<svg xmlns="http://www.w3.org/2000/svg" xmlns:xlink="http://www.w3.org/1999/xlink" contentStyleType="text/css" height="122px" preserveAspectRatio="none" style="width:307px;height:122px;background:#FFFFFF;" version="1.1" viewBox="0 0 307 122" width="307px" zoomAndPan="magnify"><defs/><g><!--class com.monacoevents.eventbooking.mapper.CategoryMapper--><a href="..\..\..\..\..\..\target\reports\apidocs\com\monacoevents\eventbooking\mapper\CategoryMapper.html" target="_top" title="..\..\..\..\..\..\target\reports\apidocs\com\monacoevents\eventbooking\mapper\CategoryMapper.html" xlink:actuate="onRequest" xlink:href="..\..\..\..\..\..\target\reports\apidocs\com\monacoevents\eventbooking\mapper\CategoryMapper.html" xlink:show="new" xlink:title="..\..\..\..\..\..\target\reports\apidocs\com\monacoevents\eventbooking\mapper\CategoryMapper.html" xlink:type="simple"><g id="elem_com.monacoevents.eventbooking.mapper.CategoryMapper"><rect codeLine="13" fill="#F1F1F1" height="83.4063" id="com.monacoevents.eventbooking.mapper.CategoryMapper" rx="2.5" ry="2.5" style="stroke:#181818;stroke-width:0.5;" width="294.4746" x="6" y="12"/><ellipse cx="56.1553" cy="32.0938" fill="#B4A7E5" rx="11" ry="11" style="stroke:#181818;stroke-width:1.0;"/><path d="M57.1084,28.7344 L57.1084,35.3906 L58.8271,35.3906 Q59.4365,35.3906 59.7021,35.625 Q59.9678,35.8594 59.9678,36.25 Q59.9678,36.625 59.7021,36.8594 Q59.4365,37.0938 58.8271,37.0938 L53.6865,37.0938 Q53.0771,37.0938 52.8115,36.8594 Q52.5459,36.625 52.5459,36.2344 Q52.5459,35.8594 52.8115,35.625 Q53.0771,35.3906 53.6865,35.3906 L55.4053,35.3906 L55.4053,28.7344 L53.6865,28.7344 Q53.0771,28.7344 52.8115,28.5 Q52.5459,28.2656 52.5459,27.875 Q52.5459,27.5 52.8115,27.2656 Q53.0771,27.0313 53.6865,27.0313 L58.8271,27.0313 Q59.4365,27.0313 59.7021,27.2656 Q59.9678,27.5 59.9678,27.875 Q59.9678,28.2656 59.7021,28.5 Q59.4365,28.7344 58.8271,28.7344 L57.1084,28.7344 Z " fill="#000000"/><text fill="#000000" font-family="sans-serif" font-size="14" font-style="italic" lengthAdjust="spacing" textLength="104.2754" x="117.3496" y="31.5332">CategoryMapper</text><text fill="#000000" font-family="sans-serif" font-size="10" font-style="italic" lengthAdjust="spacing" textLength="185.6641" x="76.6553" y="44.9902">com.monacoevents.eventbooking.mapper</text><line style="stroke:#181818;stroke-width:0.5;" x1="7" x2="299.4746" y1="52.1875" y2="52.1875"/><ellipse cx="17" cy="66.4922" fill="#84BE84" rx="3" ry="3" style="stroke:#038048;stroke-width:1.0;"/><text fill="#000000" font-family="sans-serif" font-size="14" font-style="italic" lengthAdjust="spacing" textLength="229.5508" x="26" y="70.7207">toEntity(CategoryRequest): Category</text><ellipse cx="17" cy="84.1016" fill="#84BE84" rx="3" ry="3" style="stroke:#038048;stroke-width:1.0;"/><text fill="#000000" font-family="sans-serif" font-size="14" font-style="italic" lengthAdjust="spacing" textLength="268.4746" x="26" y="88.3301">toResponse(Category): CategoryResponse</text></g></a><text fill="#888888" font-family="sans-serif" font-size="10" lengthAdjust="spacing" textLength="2.7783" x="148.1108" y="99.3809">&#160;</text><a href="https://github.com/talsma-ict/umldoclet" target="_top" title="https://github.com/talsma-ict/umldoclet" xlink:actuate="onRequest" xlink:href="https://github.com/talsma-ict/umldoclet" xlink:show="new" xlink:title="https://github.com/talsma-ict/umldoclet" xlink:type="simple"><text fill="#888888" font-family="sans-serif" font-size="10" lengthAdjust="spacing" textLength="74.4775" x="112.2612" y="111.959">UMLDoclet 2.2.1</text></a><!--SRC=[ZLDDJzj04BtpAwRqK11aOwSGsWWXeHILLa5244vn3XDxOg-mTzpTCPMB-EzTsqbgK2jrPMdbcNrltdm107o0APUrrMac80oIQGSFDpD0aq1AXYmA9Q0BJCd1Yd8sgUiU4c0b6LlWTViNixNaIZQ9DYbynoS4nvMDoQczFMX3pRViFz7rs5TrO_p2SKu21zF3dgHH48u7es0qXZdcha3uDfsh3TiVp4YDL0YUEzSn6USfAvEGRMLTbXZxQzPvZk69hDDiF2ROy3Ifncm4jN5GeXNNf7IRev56QwXy_1Dr1WUNzxFNseBFhRPZkBG6gmJk-4UrI_TTQJ7rYdEikH9m1GaQx7pEYpPO-79XJFVaWwBuIXesrFepdH1GKKeDQqrvujvQFLd6tjpQjH6oQyy4- -TE_w99U78nzPLDsTOtM9Pa8xDn11Sn5wfWWp7J4nbnghrMp8- -RQfed- -3xy__F5Ilmy1YeLJqvXEqAKbagMHVsWXBdN3i8ayVzUcZFdtKqKUlwLKcHRvSmdERTNEUSUN4OYmlS2HyPKHBVR05tL7J3JcSmDRo3znTExQETiWUPEjheIzTlS-Tr3bTxDZMpBu1FLdDkQwzufasZrFEVMlVV_gxzw4Pr5mRyhiHFnfo3eBTovSktB0NRnChCej59bAwoN2OQicgbV857Kgx90CTox0gygJRZZTxibnkvlxhRW6R8Hu4PuDWF0-3IVXn4fwgq-0i68T7mMWI18khod99mrkqsYr_0m00]--></g></svg>