<svg xmlns="http://www.w3.org/2000/svg" xmlns:xlink="http://www.w3.org/1999/xlink" contentStyleType="text/css" height="100%" preserveAspectRatio="none" style="width:100%;height:100%;background:#FFFFFF;" version="1.1" viewBox="0 0 276 133" width="100%" zoomAndPan="magnify"><defs/><g><!--class com.monacoevents.eventbooking.mapper.CategoryMapper--><a href="..\..\..\..\..\..\target\reports\apidocs\com\monacoevents\eventbooking\mapper\CategoryMapper.html" target="_top" title="..\..\..\..\..\..\target\reports\apidocs\com\monacoevents\eventbooking\mapper\CategoryMapper.html" xlink:actuate="onRequest" xlink:href="..\..\..\..\..\..\target\reports\apidocs\com\monacoevents\eventbooking\mapper\CategoryMapper.html" xlink:show="new" xlink:title="..\..\..\..\..\..\target\reports\apidocs\com\monacoevents\eventbooking\mapper\CategoryMapper.html" xlink:type="simple"><g id="elem_com.monacoevents.eventbooking.mapper.CategoryMapper"><rect codeLine="26" fill="#F4F8FB" height="84.5039" id="com.monacoevents.eventbooking.mapper.CategoryMapper" rx="4" ry="4" style="stroke:#2C6E8C;stroke-width:0.5;" width="255.6675" x="7" y="7"/><ellipse cx="42.4469" cy="27.9609" fill="#B4A7E5" rx="10" ry="10" style="stroke:#181818;stroke-width:1.0;"/><path d="M42.9937,25.5703 L42.9937,30.6641 L44.3062,30.6641 Q44.775,30.6641 44.9781,30.8516 Q45.1812,31.0234 45.1812,31.3203 Q45.1812,31.6016 44.9781,31.7891 Q44.775,31.9609 44.3062,31.9609 L40.3844,31.9609 Q39.9156,31.9609 39.7125,31.7891 Q39.5094,31.6016 39.5094,31.3047 Q39.5094,31.0234 39.7125,30.8516 Q39.9156,30.6641 40.3844,30.6641 L41.6969,30.6641 L41.6969,25.5703 L40.3844,25.5703 Q39.9156,25.5703 39.7125,25.3984 Q39.5094,25.2109 39.5094,24.9141 Q39.5094,24.6172 39.7125,24.4453 Q39.9156,24.2578 40.3844,24.2578 L44.3062,24.2734 Q44.775,24.2734 44.9781,24.4453 Q45.1812,24.6172 45.1812,24.9141 Q45.1812,25.2109 44.9781,25.3984 Q44.775,25.5703 44.3062,25.5703 L42.9937,25.5703 Z " fill="#000000"/><text fill="#14324A" font-family="Segoe UI" font-size="14" font-style="italic" lengthAdjust="spacing" textLength="100.7002" x="98.8666" y="27.1074">CategoryMapper</text><text fill="#14324A" font-family="Segoe UI" font-size="10" font-style="italic" lengthAdjust="spacing" textLength="178.0078" x="60.2128" y="41.4121">com.monacoevents.eventbooking.mapper</text><line style="stroke:#2C6E8C;stroke-width:0.5;" x1="8" x2="261.6675" y1="48.9219" y2="48.9219"/><ellipse cx="18" cy="63.0674" fill="#84BE84" rx="3" ry="3" style="stroke:#038048;stroke-width:1.0;"/><text fill="#000000" font-family="Segoe UI" font-size="13" font-style="italic" lengthAdjust="spacing" textLength="202.7759" x="26" y="66.9502">toEntity(CategoryRequest): Category</text><ellipse cx="18" cy="80.3584" fill="#84BE84" rx="3" ry="3" style="stroke:#038048;stroke-width:1.0;"/><text fill="#000000" font-family="Segoe UI" font-size="13" font-style="italic" lengthAdjust="spacing" textLength="230.6675" x="26" y="84.2412">toResponse(Category): CategoryResponse</text></g></a><text fill="#888888" font-family="Segoe UI" font-size="10" lengthAdjust="spacing" textLength="2.7588" x="132.9543" y="109.2949">&#160;</text><a href="https://github.com/talsma-ict/umldoclet" target="_top" title="https://github.com/talsma-ict/umldoclet" xlink:actuate="onRequest" xlink:href="https://github.com/talsma-ict/umldoclet" xlink:show="new" xlink:title="https://github.com/talsma-ict/umldoclet" xlink:type="simple"><text fill="#888888" font-family="Segoe UI" font-size="10" lengthAdjust="spacing" textLength="77.7783" x="95.4446" y="122.5957">UMLDoclet 2.2.1</text></a><!--SRC=[ZLHHRzf037xVh_2wXxLg2Kb8WQAg4gMmTQ9JLUWJuU58J3YHdBExIojMzR_l4W8B5BG5f2Zdpvy_-sm307o57gKhoQE51asW5rp1yyCGc0WXGe6IQGo19on21JECIKHg3KHWcLwG19eNNm59YIeb4N8HmG_sma1H9WDKrgTFK8GQRzXVcQgmprRvuHq5CMeuxPrL9Bcsqwovjjk4COjLmk2-DxPAjhy-hkLQ3XZkc0SebA7CH8YoaDLDMM1UmxNb0bvGAax2-DWbJvvgG48pBXIaJ6gLf_GOCw5phOvbudjM2qwxe-6kDlkgq7O1NIbO5i8J_SgswQeb5uQD9Q0MBAJNl2fpamJkMIKPiJsIfXhGthE5E6TPh0T6tK-M88mm8eJd- -Em4V-Du3Js047CbBfbmJ8geyNcthuCl45xS7iGIjBKhuIvlMQ_tJi4wqf9h_z4vR9AaECrNA-x1-92evop03y8x7S7pO5z5BuZid_LR-w7DrU_D8txCV5Ryxix0gwothPxtfrz65X9gz7mMfVhGdvE9OjCdyPiHPc6a7JP3QPDXRb2PRnnX3cJDgw2nBeV5Zn4m2JLAvXpZ4ErVvgW6JPpN9nlQm0dryhSUCVnRdfcbYAIgmUMfYXzKHhicu0IAo710i8N55fPnMj6P3AAhAI0du2PoFy1MhjXO3AnB7_lhvcCKFiIKpB3vBEKXnGetz3xLNg_Ik-lwVrTUckXatWwXRSYw_nvOpEb9GlqEvnhwWlDzUfqu_I4-VpfimviJexuFHMBIk7Mi-AoiHMkx-jwNokzYl5copOdCXTGaPK_trT6yP2BPTaLxSFMvtmrnLoWsOR1Kg1IO6-Hx-jmzKgyCfOl9fE5rgdgrEiHrujiPfc2rdMn5ciyqFKiYSFrFjpRZDDfkUc-RLTklhPgTgjcDyUEr_4kE-wbTUNOJQVLiErps-tOzgIVIKgn_iWaLzC_]--></g></svg>