<svg xmlns="http://www.w3.org/2000/svg" xmlns:xlink="http://www.w3.org/1999/xlink" contentStyleType="text/css" height="122px" preserveAspectRatio="none" style="width:265px;height:122px;background:#FFFFFF;" version="1.1" viewBox="0 0 265 122" width="265px" zoomAndPan="magnify"><defs/><g><!--class com.monacoevents.eventbooking.mapper.EventMapper--><a href="..\..\..\..\..\..\target\reports\apidocs\com\monacoevents\eventbooking\mapper\EventMapper.html" target="_top" title="..\..\..\..\..\..\target\reports\apidocs\com\monacoevents\eventbooking\mapper\EventMapper.html" xlink:actuate="onRequest" xlink:href="..\..\..\..\..\..\target\reports\apidocs\com\monacoevents\eventbooking\mapper\EventMapper.html" xlink:show="new" xlink:title="..\..\..\..\..\..\target\reports\apidocs\com\monacoevents\eventbooking\mapper\EventMapper.html" xlink:type="simple"><g id="elem_com.monacoevents.eventbooking.mapper.EventMapper"><rect codeLine="13" fill="#F1F1F1" height="83.4063" id="com.monacoevents.eventbooking.mapper.EventMapper" rx="2.5" ry="2.5" style="stroke:#181818;stroke-width:0.5;" width="252.4609" x="6" y="12"/><ellipse cx="36.6586" cy="32.0938" fill="#B4A7E5" rx="11" ry="11" style="stroke:#181818;stroke-width:1.0;"/><path d="M37.6117,28.7344 L37.6117,35.3906 L39.3305,35.3906 Q39.9398,35.3906 40.2055,35.625 Q40.4711,35.8594 40.4711,36.25 Q40.4711,36.625 40.2055,36.8594 Q39.9398,37.0938 39.3305,37.0938 L34.1898,37.0938 Q33.5805,37.0938 33.3148,36.8594 Q33.0492,36.625 33.0492,36.2344 Q33.0492,35.8594 33.3148,35.625 Q33.5805,35.3906 34.1898,35.3906 L35.9086,35.3906 L35.9086,28.7344 L34.1898,28.7344 Q33.5805,28.7344 33.3148,28.5 Q33.0492,28.2656 33.0492,27.875 Q33.0492,27.5 33.3148,27.2656 Q33.5805,27.0313 34.1898,27.0313 L39.3305,27.0313 Q39.9398,27.0313 40.2055,27.2656 Q40.4711,27.5 40.4711,27.875 Q40.4711,28.2656 40.2055,28.5 Q39.9398,28.7344 39.3305,28.7344 L37.6117,28.7344 Z " fill="#000000"/><text fill="#000000" font-family="sans-serif" font-size="14" font-style="italic" lengthAdjust="spacing" textLength="83.2686" x="105.336" y="31.5332">EventMapper</text><text fill="#000000" font-family="sans-serif" font-size="10" font-style="italic" lengthAdjust="spacing" textLength="185.6641" x="54.1383" y="44.9902">com.monacoevents.eventbooking.mapper</text><line style="stroke:#181818;stroke-width:0.5;" x1="7" x2="257.4609" y1="52.1875" y2="52.1875"/><ellipse cx="17" cy="66.4922" fill="#84BE84" rx="3" ry="3" style="stroke:#038048;stroke-width:1.0;"/><text fill="#000000" font-family="sans-serif" font-size="14" font-style="italic" lengthAdjust="spacing" textLength="187.5371" x="26" y="70.7207">toEntity(EventRequest): Event</text><ellipse cx="17" cy="84.1016" fill="#84BE84" rx="3" ry="3" style="stroke:#038048;stroke-width:1.0;"/><text fill="#000000" font-family="sans-serif" font-size="14" font-style="italic" lengthAdjust="spacing" textLength="226.4609" x="26" y="88.3301">toResponse(Event): EventResponse</text></g></a><text fill="#888888" font-family="sans-serif" font-size="10" lengthAdjust="spacing" textLength="2.7783" x="127.1108" y="99.3809">&#160;</text><a href="https://github.com/talsma-ict/umldoclet" target="_top" title="https://github.com/talsma-ict/umldoclet" xlink:actuate="onRequest" xlink:href="https://github.com/talsma-ict/umldoclet" xlink:show="new" xlink:title="https://github.com/talsma-ict/umldoclet" xlink:type="simple"><text fill="#888888" font-family="sans-serif" font-size="10" lengthAdjust="spacing" textLength="74.4775" x="91.2612" y="111.959">UMLDoclet 2.2.1</text></a><!--SRC=[ZLDRQzim57xlhpZh7jRIHf6zNhPG2YKhkv12QTEdE0ydzeajQakUT9pXbVxtoNAQUMM32O7GkNpdEpS0W7SmDNLhLLumi04kb8E7cncWpY0dJHQPCb0LvkHWHQNHkUiD2R3XmbWmw_1BZRNaQgCpfNFuXXi4PngRaXDxUn12pL_GVw0ReA_QJlZ9f2Kn74mF1vHY6PsDOXcVmHnBLo5ydSx55kstJonY4O77BbLAsdd8HcTa0wsh6bF_p7hDCMp8EcMqzv5Rd2xLr6X6fHtKQDbrATsMgBdZ6WaV_qISmy7L_UnFRl9Zu7OCLrPZay6T-TxiqdrJMymzun9Rqp2uYXWrzZhdIMkiVBamfNloGP5z9RNH5FI5oWYeghc5jQ8oSw-b7gmmNXpaIZFPjKU2_GkdVj8aEhcytf3c6wnhiedUIkLbQYfH6OsfeKxlH7XMnZpwdeagcE-3Ryx_68f135WiX4XUNKQR4oUMQkEBcc2jCfEwn6CdG-naY9tqsCa0MnHSbSibF8Lak_E4AySMKtw68pRNcXMt1y7ZZheEyE44mlSV7dTXJXtrFY_6BzBWzDoNzi9nMzBb3cTjZA_rW4ftlhIUvKpfnwafVHVVVlYxzg6RoL9fyckGFcfo3kJEyhaFDnx4syPAz69HCDTkCXxdYejc9Nm5nnpsOQHI7ZTLcVMBy6ebbiljY7_UxLethoDvFf9dyqXEelUJw5ISnd4tor8UoNWYvUAwiQQcyIrQvPQ_0000]--></g></svg>