<svg xmlns="http://www.w3.org/2000/svg" xmlns:xlink="http://www.w3.org/1999/xlink" contentStyleType="text/css" height="100%" preserveAspectRatio="none" style="width:100%;height:100%;background:#FFFFFF;" version="1.1" viewBox="0 0 551 319" width="100%" zoomAndPan="magnify"><defs/><g><!--cluster com.monacoevents.eventbooking.mapper--><g id="cluster_com.monacoevents.eventbooking.mapper"><path d="M10,6 L265.4229,6 A6,6 0 0 1 269.4229,10 L276.4229,29.291 L540,29.291 A4,4 0 0 1 544,33.291 L544,275.16 A4,4 0 0 1 540,279.16 L10,279.16 A4,4 0 0 1 6,275.16 L6,10 A4,4 0 0 1 10,6 " fill="#FBFBFD" style="stroke:#B8C4D0;stroke-width:1.5;"/><line style="stroke:#B8C4D0;stroke-width:1.5;" x1="6" x2="276.4229" y1="29.291" y2="29.291"/><text fill="#33475B" font-family="Segoe UI" font-size="13" font-weight="bold" lengthAdjust="spacing" textLength="257.4229" x="10" y="22.0283">com.monacoevents.eventbooking.mapper</text></g><!--class CategoryMapper--><a href="file:/C:/Users/loris/Documents/Programming/Github/event-booking-api/target/reports/apidocs/com/monacoevents/eventbooking/mapper/CategoryMapper.html" target="_top" title="file:/C:/Users/loris/Documents/Programming/Github/event-booking-api/target/reports/apidocs/com/monacoevents/eventbooking/mapper/CategoryMapper.html" xlink:actuate="onRequest" xlink:href="file:/C:/Users/loris/Documents/Programming/Github/event-booking-api/target/reports/apidocs/com/monacoevents/eventbooking/mapper/CategoryMapper.html" xlink:show="new" xlink:title="file:/C:/Users/loris/Documents/Programming/Github/event-booking-api/target/reports/apidocs/com/monacoevents/eventbooking/mapper/CategoryMapper.html" xlink:type="simple"><g id="elem_CategoryMapper"><rect codeLine="25" fill="#F4F8FB" height="80.582" id="CategoryMapper" rx="4" ry="4" style="stroke:#2C6E8C;stroke-width:0.5;" width="255.6675" x="22.17" y="42"/><ellipse cx="99.2501" cy="57" fill="#B4A7E5" rx="10" ry="10" style="stroke:#181818;stroke-width:1.0;"/><path d="M99.797,54.6094 L99.797,59.7031 L101.1095,59.7031 Q101.5782,59.7031 101.7813,59.8906 Q101.9845,60.0625 101.9845,60.3594 Q101.9845,60.6406 101.7813,60.8281 Q101.5782,61 101.1095,61 L97.1876,61 Q96.7188,61 96.5157,60.8281 Q96.3126,60.6406 96.3126,60.3438 Q96.3126,60.0625 96.5157,59.8906 Q96.7188,59.7031 97.1876,59.7031 L98.5001,59.7031 L98.5001,54.6094 L97.1876,54.6094 Q96.7188,54.6094 96.5157,54.4375 Q96.3126,54.25 96.3126,53.9531 Q96.3126,53.6563 96.5157,53.4844 Q96.7188,53.2969 97.1876,53.2969 L101.1095,53.3125 Q101.5782,53.3125 101.7813,53.4844 Q101.9845,53.6563 101.9845,53.9531 Q101.9845,54.25 101.7813,54.4375 Q101.5782,54.6094 101.1095,54.6094 L99.797,54.6094 Z " fill="#000000"/><text fill="#14324A" font-family="Segoe UI" font-size="13" font-style="italic" lengthAdjust="spacing" textLength="93.5073" x="118.2501" y="62.3828">CategoryMapper</text><line style="stroke:#2C6E8C;stroke-width:0.5;" x1="23.17" x2="276.8375" y1="72" y2="72"/><line style="stroke:#2C6E8C;stroke-width:0.5;" x1="23.17" x2="276.8375" y1="80" y2="80"/><ellipse cx="33.17" cy="94.1455" fill="#84BE84" rx="3" ry="3" style="stroke:#038048;stroke-width:1.0;"/><text fill="#000000" font-family="Segoe UI" font-size="13" font-style="italic" lengthAdjust="spacing" textLength="202.7759" x="41.17" y="98.0283">toEntity(CategoryRequest): Category</text><ellipse cx="33.17" cy="111.4365" fill="#84BE84" rx="3" ry="3" style="stroke:#038048;stroke-width:1.0;"/><text fill="#000000" font-family="Segoe UI" font-size="13" font-style="italic" lengthAdjust="spacing" textLength="230.6675" x="41.17" y="115.3193">toResponse(Category): CategoryResponse</text></g></a><!--class EventMapper--><a href="file:/C:/Users/loris/Documents/Programming/Github/event-booking-api/target/reports/apidocs/com/monacoevents/eventbooking/mapper/EventMapper.html" target="_top" title="file:/C:/Users/loris/Documents/Programming/Github/event-booking-api/target/reports/apidocs/com/monacoevents/eventbooking/mapper/EventMapper.html" xlink:actuate="onRequest" xlink:href="file:/C:/Users/loris/Documents/Programming/Github/event-booking-api/target/reports/apidocs/com/monacoevents/eventbooking/mapper/EventMapper.html" xlink:show="new" xlink:title="file:/C:/Users/loris/Documents/Programming/Github/event-booking-api/target/reports/apidocs/com/monacoevents/eventbooking/mapper/EventMapper.html" xlink:type="simple"><g id="elem_EventMapper"><rect codeLine="30" fill="#F4F8FB" height="80.582" id="EventMapper" rx="4" ry="4" style="stroke:#2C6E8C;stroke-width:0.5;" width="215.0298" x="312.49" y="42"/><ellipse cx="379.4107" cy="57" fill="#B4A7E5" rx="10" ry="10" style="stroke:#181818;stroke-width:1.0;"/><path d="M379.9575,54.6094 L379.9575,59.7031 L381.27,59.7031 Q381.7388,59.7031 381.9419,59.8906 Q382.145,60.0625 382.145,60.3594 Q382.145,60.6406 381.9419,60.8281 Q381.7388,61 381.27,61 L377.3482,61 Q376.8794,61 376.6763,60.8281 Q376.4732,60.6406 376.4732,60.3438 Q376.4732,60.0625 376.6763,59.8906 Q376.8794,59.7031 377.3482,59.7031 L378.6607,59.7031 L378.6607,54.6094 L377.3482,54.6094 Q376.8794,54.6094 376.6763,54.4375 Q376.4732,54.25 376.4732,53.9531 Q376.4732,53.6563 376.6763,53.4844 Q376.8794,53.2969 377.3482,53.2969 L381.27,53.3125 Q381.7388,53.3125 381.9419,53.4844 Q382.145,53.6563 382.145,53.9531 Q382.145,54.25 381.9419,54.4375 Q381.7388,54.6094 381.27,54.6094 L379.9575,54.6094 Z " fill="#000000"/><text fill="#14324A" font-family="Segoe UI" font-size="13" font-style="italic" lengthAdjust="spacing" textLength="73.1885" x="398.4107" y="62.3828">EventMapper</text><line style="stroke:#2C6E8C;stroke-width:0.5;" x1="313.49" x2="526.5198" y1="72" y2="72"/><line style="stroke:#2C6E8C;stroke-width:0.5;" x1="313.49" x2="526.5198" y1="80" y2="80"/><ellipse cx="323.49" cy="94.1455" fill="#84BE84" rx="3" ry="3" style="stroke:#038048;stroke-width:1.0;"/><text fill="#000000" font-family="Segoe UI" font-size="13" font-style="italic" lengthAdjust="spacing" textLength="162.1382" x="331.49" y="98.0283">toEntity(EventRequest): Event</text><ellipse cx="323.49" cy="111.4365" fill="#84BE84" rx="3" ry="3" style="stroke:#038048;stroke-width:1.0;"/><text fill="#000000" font-family="Segoe UI" font-size="13" font-style="italic" lengthAdjust="spacing" textLength="190.0298" x="331.49" y="115.3193">toResponse(Event): EventResponse</text></g></a><!--class VenueMapper--><a href="file:/C:/Users/loris/Documents/Programming/Github/event-booking-api/target/reports/apidocs/com/monacoevents/eventbooking/mapper/VenueMapper.html" target="_top" title="file:/C:/Users/loris/Documents/Programming/Github/event-booking-api/target/reports/apidocs/com/monacoevents/eventbooking/mapper/VenueMapper.html" xlink:actuate="onRequest" xlink:href="file:/C:/Users/loris/Documents/Programming/Github/event-booking-api/target/reports/apidocs/com/monacoevents/eventbooking/mapper/VenueMapper.html" xlink:show="new" xlink:title="file:/C:/Users/loris/Documents/Programming/Github/event-booking-api/target/reports/apidocs/com/monacoevents/eventbooking/mapper/VenueMapper.html" xlink:type="simple"><g id="elem_VenueMapper"><rect codeLine="35" fill="#F4F8FB" height="80.582" id="VenueMapper" rx="4" ry="4" style="stroke:#2C6E8C;stroke-width:0.5;" width="224.8433" x="37.58" y="182.58"/><ellipse cx="106.954" cy="197.58" fill="#B4A7E5" rx="10" ry="10" style="stroke:#181818;stroke-width:1.0;"/><path d="M107.5009,195.1894 L107.5009,200.2831 L108.8134,200.2831 Q109.2821,200.2831 109.4853,200.4706 Q109.6884,200.6425 109.6884,200.9394 Q109.6884,201.2206 109.4853,201.4081 Q109.2821,201.58 108.8134,201.58 L104.8915,201.58 Q104.4228,201.58 104.2196,201.4081 Q104.0165,201.2206 104.0165,200.9238 Q104.0165,200.6425 104.2196,200.4706 Q104.4228,200.2831 104.8915,200.2831 L106.204,200.2831 L106.204,195.1894 L104.8915,195.1894 Q104.4228,195.1894 104.2196,195.0175 Q104.0165,194.83 104.0165,194.5331 Q104.0165,194.2363 104.2196,194.0644 Q104.4228,193.8769 104.8915,193.8769 L108.8134,193.8925 Q109.2821,193.8925 109.4853,194.0644 Q109.6884,194.2363 109.6884,194.5331 Q109.6884,194.83 109.4853,195.0175 Q109.2821,195.1894 108.8134,195.1894 L107.5009,195.1894 Z " fill="#000000"/><text fill="#14324A" font-family="Segoe UI" font-size="13" font-style="italic" lengthAdjust="spacing" textLength="78.0952" x="125.954" y="202.9628">VenueMapper</text><line style="stroke:#2C6E8C;stroke-width:0.5;" x1="38.58" x2="261.4233" y1="212.58" y2="212.58"/><line style="stroke:#2C6E8C;stroke-width:0.5;" x1="38.58" x2="261.4233" y1="220.58" y2="220.58"/><ellipse cx="48.58" cy="234.7255" fill="#84BE84" rx="3" ry="3" style="stroke:#038048;stroke-width:1.0;"/><text fill="#000000" font-family="Segoe UI" font-size="13" font-style="italic" lengthAdjust="spacing" textLength="171.9517" x="56.58" y="238.6083">toEntity(VenueRequest): Venue</text><ellipse cx="48.58" cy="252.0165" fill="#84BE84" rx="3" ry="3" style="stroke:#038048;stroke-width:1.0;"/><text fill="#000000" font-family="Segoe UI" font-size="13" font-style="italic" lengthAdjust="spacing" textLength="199.8433" x="56.58" y="255.8993">toResponse(Venue): VenueResponse</text></g></a><text fill="#888888" font-family="Segoe UI" font-size="10" lengthAdjust="spacing" textLength="2.7588" x="267.1206" y="295.951">&#160;</text><a href="https://github.com/talsma-ict/umldoclet" target="_top" title="https://github.com/talsma-ict/umldoclet" xlink:actuate="onRequest" xlink:href="https://github.com/talsma-ict/umldoclet" xlink:show="new" xlink:title="https://github.com/talsma-ict/umldoclet" xlink:type="simple"><text fill="#888888" font-family="Segoe UI" font-size="10" lengthAdjust="spacing" textLength="77.7783" x="229.6108" y="309.2518">UMLDoclet 2.2.1</text></a><!--SRC=[pLNBRjim4BptAxReeIaIY_8ZjYCK1Hp5xWDf4UJHY-i3BQrbmXAfabG2D-Y_TqN9Zk8wRNghT10epkpEZfPQ083N4AfyhKMoj60LsAKmSFFv7BYC8K69cbkCGMGyGGDpJ9LCJ0L4u8LTAWrguLQHqXfDhcGiP0AV-2q7emeTeV5Ul02NwdeJ_OwRHlJvkdnvfg8KBHo4RngIEdwxt-hudJvSyzHa73w6rruTxO7JyJfU6oXsAYAKXa8MCaRjP8ro7j7ZlDevWblKHYX97B-EKvOQAMcva0PohgqfIxf8kRIbrhP7-NlU00v6L-UFjVadJjiHZBJaHGoNwdknBTUiXAHeF0EpvB6wArrPK16uiwiLYGsL9ZTWkBCNuu8NgPsGkYyyGxZ2H27SV7mQTYL-8BIxEu0evSQSycYLrDbI-cwl9ht9S7Aw5weq-LV3Ec5_F0ptmKPQgxk_eafPDQZTwtPwensGa1RrWaVucy3nQDAV-4_27uaSdupxk-dfqw-eSNyl_9JkioV0pQYdmx1tvky7DihgTdk3uyh8bxdc2VLfojUgi10hMx6fImsMV4k48AXQf8v4tPTvcP8yKdYBqXhFFUPAKSx4otYUKs_SLvposbe08HsWHEdrvmepdIv4YW4B0tPZgD4PoHE6qJ4fiZ8mkz0geHeoYilU2xiivipbQjN9MZmNp7ATe6KQSqM7WT6hM4M6aKhMLCcQAbcbaZqMv2rjbivcf1qQrpsV6wjvP7_2eLLZQOLT7so8brYU8VicsDRs1-wb- -4OtB8RjCtUblvpdu7ZieR_nhs6cd-mph4UV7FBvvZcW1l2y-pwYhB0_yQkXff_iCkn7knoo-VOvO0RmbDsrO-tngvJVBVTNIXbtHbkvlcm9k7dGgxgtyXm_-vDESjI8P76PxIIQ0puZRGk7MlagtDzazFfqjhS18mbpdslDDMwETeIaML5biRL0DqPfRDPFHhVRsTqEUTQ_g3bzw_RlQ1t79GZiJiO34yE_KxW-zDneLMEx89J3yn-0G00]--></g></svg>