<svg xmlns="http://www.w3.org/2000/svg" xmlns:xlink="http://www.w3.org/1999/xlink" contentStyleType="text/css" height="277px" preserveAspectRatio="none" style="width:601px;height:277px;background:#FFFFFF;" version="1.1" viewBox="0 0 601 277" width="601px" zoomAndPan="magnify"><defs/><g><!--cluster com.monacoevents.eventbooking.mapper--><g id="cluster_com.monacoevents.eventbooking.mapper"><path d="M16.5,4 L297.5684,4 A3.75,3.75 0 0 1 300.0684,6.5 L307.0684,27.6094 L591.5,27.6094 A2.5,2.5 0 0 1 594,30.1094 L594,239.5 A2.5,2.5 0 0 1 591.5,242 L16.5,242 A2.5,2.5 0 0 1 14,239.5 L14,6.5 A2.5,2.5 0 0 1 16.5,4 " fill="none" style="stroke:#000000;stroke-width:1.5;"/><line style="stroke:#000000;stroke-width:1.5;" x1="14" x2="307.0684" y1="27.6094" y2="27.6094"/><text fill="#000000" font-family="sans-serif" font-size="14" font-weight="bold" lengthAdjust="spacing" textLength="280.0684" x="18" y="20.5332">com.monacoevents.eventbooking.mapper</text></g><!--class CategoryMapper--><a href="file:/C:/Users/loris/Documents/Programming/Github/event-booking-api/target/reports/apidocs/com/monacoevents/eventbooking/mapper/CategoryMapper.html" target="_top" title="file:/C:/Users/loris/Documents/Programming/Github/event-booking-api/target/reports/apidocs/com/monacoevents/eventbooking/mapper/CategoryMapper.html" xlink:actuate="onRequest" xlink:href="file:/C:/Users/loris/Documents/Programming/Github/event-booking-api/target/reports/apidocs/com/monacoevents/eventbooking/mapper/CategoryMapper.html" xlink:show="new" xlink:title="file:/C:/Users/loris/Documents/Programming/Github/event-booking-api/target/reports/apidocs/com/monacoevents/eventbooking/mapper/CategoryMapper.html" xlink:type="simple"><g id="elem_CategoryMapper"><rect codeLine="12" fill="#F1F1F1" height="83.2188" id="CategoryMapper" rx="2.5" ry="2.5" style="stroke:#181818;stroke-width:0.5;" width="294.4746" x="22" y="32"/><ellipse cx="112.8496" cy="48" fill="#B4A7E5" rx="11" ry="11" style="stroke:#181818;stroke-width:1.0;"/><path d="M113.8027,44.6406 L113.8027,51.2969 L115.5215,51.2969 Q116.1309,51.2969 116.3965,51.5313 Q116.6621,51.7656 116.6621,52.1563 Q116.6621,52.5313 116.3965,52.7656 Q116.1309,53 115.5215,53 L110.3809,53 Q109.7715,53 109.5059,52.7656 Q109.2402,52.5313 109.2402,52.1406 Q109.2402,51.7656 109.5059,51.5313 Q109.7715,51.2969 110.3809,51.2969 L112.0996,51.2969 L112.0996,44.6406 L110.3809,44.6406 Q109.7715,44.6406 109.5059,44.4063 Q109.2402,44.1719 109.2402,43.7813 Q109.2402,43.4063 109.5059,43.1719 Q109.7715,42.9375 110.3809,42.9375 L115.5215,42.9375 Q116.1309,42.9375 116.3965,43.1719 Q116.6621,43.4063 116.6621,43.7813 Q116.6621,44.1719 116.3965,44.4063 Q116.1309,44.6406 115.5215,44.6406 L113.8027,44.6406 Z " fill="#000000"/><text fill="#000000" font-family="sans-serif" font-size="14" font-style="italic" lengthAdjust="spacing" textLength="104.2754" x="133.3496" y="53.7285">CategoryMapper</text><line style="stroke:#181818;stroke-width:0.5;" x1="23" x2="315.4746" y1="64" y2="64"/><line style="stroke:#181818;stroke-width:0.5;" x1="23" x2="315.4746" y1="72" y2="72"/><ellipse cx="33" cy="86.3047" fill="#84BE84" rx="3" ry="3" style="stroke:#038048;stroke-width:1.0;"/><text fill="#000000" font-family="sans-serif" font-size="14" font-style="italic" lengthAdjust="spacing" textLength="229.5508" x="42" y="90.5332">toEntity(CategoryRequest): Category</text><ellipse cx="33" cy="103.9141" fill="#84BE84" rx="3" ry="3" style="stroke:#038048;stroke-width:1.0;"/><text fill="#000000" font-family="sans-serif" font-size="14" font-style="italic" lengthAdjust="spacing" textLength="268.4746" x="42" y="108.1426">toResponse(Category): CategoryResponse</text></g></a><!--class EventMapper--><a href="file:/C:/Users/loris/Documents/Programming/Github/event-booking-api/target/reports/apidocs/com/monacoevents/eventbooking/mapper/EventMapper.html" target="_top" title="file:/C:/Users/loris/Documents/Programming/Github/event-booking-api/target/reports/apidocs/com/monacoevents/eventbooking/mapper/EventMapper.html" xlink:actuate="onRequest" xlink:href="file:/C:/Users/loris/Documents/Programming/Github/event-booking-api/target/reports/apidocs/com/monacoevents/eventbooking/mapper/EventMapper.html" xlink:show="new" xlink:title="file:/C:/Users/loris/Documents/Programming/Github/event-booking-api/target/reports/apidocs/com/monacoevents/eventbooking/mapper/EventMapper.html" xlink:type="simple"><g id="elem_EventMapper"><rect codeLine="17" fill="#F1F1F1" height="83.2188" id="EventMapper" rx="2.5" ry="2.5" style="stroke:#181818;stroke-width:0.5;" width="252.4609" x="334" y="32"/><ellipse cx="414.3462" cy="48" fill="#B4A7E5" rx="11" ry="11" style="stroke:#181818;stroke-width:1.0;"/><path d="M415.2993,44.6406 L415.2993,51.2969 L417.0181,51.2969 Q417.6274,51.2969 417.8931,51.5313 Q418.1587,51.7656 418.1587,52.1563 Q418.1587,52.5313 417.8931,52.7656 Q417.6274,53 417.0181,53 L411.8774,53 Q411.2681,53 411.0024,52.7656 Q410.7368,52.5313 410.7368,52.1406 Q410.7368,51.7656 411.0024,51.5313 Q411.2681,51.2969 411.8774,51.2969 L413.5962,51.2969 L413.5962,44.6406 L411.8774,44.6406 Q411.2681,44.6406 411.0024,44.4063 Q410.7368,44.1719 410.7368,43.7813 Q410.7368,43.4063 411.0024,43.1719 Q411.2681,42.9375 411.8774,42.9375 L417.0181,42.9375 Q417.6274,42.9375 417.8931,43.1719 Q418.1587,43.4063 418.1587,43.7813 Q418.1587,44.1719 417.8931,44.4063 Q417.6274,44.6406 417.0181,44.6406 L415.2993,44.6406 Z " fill="#000000"/><text fill="#000000" font-family="sans-serif" font-size="14" font-style="italic" lengthAdjust="spacing" textLength="83.2686" x="434.8462" y="53.7285">EventMapper</text><line style="stroke:#181818;stroke-width:0.5;" x1="335" x2="585.4609" y1="64" y2="64"/><line style="stroke:#181818;stroke-width:0.5;" x1="335" x2="585.4609" y1="72" y2="72"/><ellipse cx="345" cy="86.3047" fill="#84BE84" rx="3" ry="3" style="stroke:#038048;stroke-width:1.0;"/><text fill="#000000" font-family="sans-serif" font-size="14" font-style="italic" lengthAdjust="spacing" textLength="187.5371" x="354" y="90.5332">toEntity(EventRequest): Event</text><ellipse cx="345" cy="103.9141" fill="#84BE84" rx="3" ry="3" style="stroke:#038048;stroke-width:1.0;"/><text fill="#000000" font-family="sans-serif" font-size="14" font-style="italic" lengthAdjust="spacing" textLength="226.4609" x="354" y="108.1426">toResponse(Event): EventResponse</text></g></a><!--class VenueMapper--><a href="file:/C:/Users/loris/Documents/Programming/Github/event-booking-api/target/reports/apidocs/com/monacoevents/eventbooking/mapper/VenueMapper.html" target="_top" title="file:/C:/Users/loris/Documents/Programming/Github/event-booking-api/target/reports/apidocs/com/monacoevents/eventbooking/mapper/VenueMapper.html" xlink:actuate="onRequest" xlink:href="file:/C:/Users/loris/Documents/Programming/Github/event-booking-api/target/reports/apidocs/com/monacoevents/eventbooking/mapper/VenueMapper.html" xlink:show="new" xlink:title="file:/C:/Users/loris/Documents/Programming/Github/event-booking-api/target/reports/apidocs/com/monacoevents/eventbooking/mapper/VenueMapper.html" xlink:type="simple"><g id="elem_VenueMapper"><rect codeLine="22" fill="#F1F1F1" height="83.2188" id="VenueMapper" rx="2.5" ry="2.5" style="stroke:#181818;stroke-width:0.5;" width="261.8262" x="38" y="151"/><ellipse cx="120.6875" cy="167" fill="#B4A7E5" rx="11" ry="11" style="stroke:#181818;stroke-width:1.0;"/><path d="M121.6406,163.6406 L121.6406,170.2969 L123.3594,170.2969 Q123.9688,170.2969 124.2344,170.5313 Q124.5,170.7656 124.5,171.1563 Q124.5,171.5313 124.2344,171.7656 Q123.9688,172 123.3594,172 L118.2188,172 Q117.6094,172 117.3438,171.7656 Q117.0781,171.5313 117.0781,171.1406 Q117.0781,170.7656 117.3438,170.5313 Q117.6094,170.2969 118.2188,170.2969 L119.9375,170.2969 L119.9375,163.6406 L118.2188,163.6406 Q117.6094,163.6406 117.3438,163.4063 Q117.0781,163.1719 117.0781,162.7813 Q117.0781,162.4063 117.3438,162.1719 Q117.6094,161.9375 118.2188,161.9375 L123.3594,161.9375 Q123.9688,161.9375 124.2344,162.1719 Q124.5,162.4063 124.5,162.7813 Q124.5,163.1719 124.2344,163.4063 Q123.9688,163.6406 123.3594,163.6406 L121.6406,163.6406 Z " fill="#000000"/><text fill="#000000" font-family="sans-serif" font-size="14" font-style="italic" lengthAdjust="spacing" textLength="87.9512" x="141.1875" y="172.7285">VenueMapper</text><line style="stroke:#181818;stroke-width:0.5;" x1="39" x2="298.8262" y1="183" y2="183"/><line style="stroke:#181818;stroke-width:0.5;" x1="39" x2="298.8262" y1="191" y2="191"/><ellipse cx="49" cy="205.3047" fill="#84BE84" rx="3" ry="3" style="stroke:#038048;stroke-width:1.0;"/><text fill="#000000" font-family="sans-serif" font-size="14" font-style="italic" lengthAdjust="spacing" textLength="196.9023" x="58" y="209.5332">toEntity(VenueRequest): Venue</text><ellipse cx="49" cy="222.9141" fill="#84BE84" rx="3" ry="3" style="stroke:#038048;stroke-width:1.0;"/><text fill="#000000" font-family="sans-serif" font-size="14" font-style="italic" lengthAdjust="spacing" textLength="235.8262" x="58" y="227.1426">toResponse(Venue): VenueResponse</text></g></a><text fill="#888888" font-family="sans-serif" font-size="10" lengthAdjust="spacing" textLength="2.7783" x="291.1108" y="254.3809">&#160;</text><a href="https://github.com/talsma-ict/umldoclet" target="_top" title="https://github.com/talsma-ict/umldoclet" xlink:actuate="onRequest" xlink:href="https://github.com/talsma-ict/umldoclet" xlink:show="new" xlink:title="https://github.com/talsma-ict/umldoclet" xlink:type="simple"><text fill="#888888" font-family="sans-serif" font-size="10" lengthAdjust="spacing" textLength="74.4775" x="255.2612" y="266.959">UMLDoclet 2.2.1</text></a><!--SRC=[pPJHJzim4CRV-IjksiD0qDWjZ48qJK8TOan5GgpifUl3DRccLXCxiozC4U9_d-Eq9KniWZVoOZdsTzztFoK70F01HgQihSgM36o0byh1xTKOKAUGaIQBJ2ce0ZDoCAVSwCor5mcmugMnO1PXbnXhoPL6fqfdy0tl49ofR48ksjc1O3NPLF-DhbDzNZSllvWa9uRTqLudqa3sZti3EJY62UQkGBWSJQ9rjKVD81f4VV2rSvMGThvafLEo8TPPYObVnkt90ToHTSfehv7hEashYT6CIZieqR9hMhhEKNEJjHzv_wDe2BjdtyTFiydJaEq0pgp6AeKRywlQjlkkj9Zvn3dMfc9m1J5g34VEPtRahP0zlpXk1JxeocFsMOgeC1eJGtUasKLXcHkpyc2Z0ilIjtRVQff7QIQxm8HWv75cnjPNxPtfTA5oYiKe5hVEjoroOvKJ7bfLD8N5jJMPnQBmTSM5ucKr5y6hjpRhOQa4eys8XQNIU3J2lqfDueHFARefHJUbQ5EAfu6Y9HVvREQpG-UvnxbZYma_m3wRSysAwzsDy8OQehmNRtlxZ_OcV7wEjkgER7EsbJyy1_2ywU7DqEkaUGMwe7ha5hOlWHOkRWGlm_M3T4Ll1bSdpIjm1TKZhh1z2QvmSIFu5wxryibndTFdxUd260x_SDVdQ-s3ZvLUZOn71-zFdZ-zRIPRhZJvOPgiD3a7icCRx4J7R-trKq-dI-RInK9aWNxKGEKmLNigOL4LUTgEqxy6wsos7fGNsudTJBsU7FRayQH_67_int8O7VLFXgVoKCfzEOYbd9vNrfGahj5_1hC_]--></g></svg>