<svg xmlns="http://www.w3.org/2000/svg" xmlns:xlink="http://www.w3.org/1999/xlink" contentStyleType="text/css" height="100%" preserveAspectRatio="none" style="width:100%;height:100%;background:#FFFFFF;" version="1.1" viewBox="0 0 423 397" width="100%" zoomAndPan="magnify"><defs/><g><!--class com.monacoevents.eventbooking.exception.ErrorResponse--><a href="..\..\..\..\..\..\target\reports\apidocs\com\monacoevents\eventbooking\exception\ErrorResponse.html" target="_top" title="..\..\..\..\..\..\target\reports\apidocs\com\monacoevents\eventbooking\exception\ErrorResponse.html" xlink:actuate="onRequest" xlink:href="..\..\..\..\..\..\target\reports\apidocs\com\monacoevents\eventbooking\exception\ErrorResponse.html" xlink:show="new" xlink:title="..\..\..\..\..\..\target\reports\apidocs\com\monacoevents\eventbooking\exception\ErrorResponse.html" xlink:type="simple"><g id="elem_com.monacoevents.eventbooking.exception.ErrorResponse"><rect codeLine="26" fill="#F4F8FB" height="248.123" id="com.monacoevents.eventbooking.exception.ErrorResponse" rx="4" ry="4" style="stroke:#2C6E8C;stroke-width:0.5;" width="409.2363" x="7" y="108.92"/><ellipse cx="103.6558" cy="129.8809" fill="#ADD1B2" rx="10" ry="10" style="stroke:#181818;stroke-width:1.0;"/><path d="M104.5933,126.5216 Q104.7183,126.3497 104.8589,126.2716 Q104.9995,126.1934 105.1714,126.1934 Q105.4526,126.1934 105.6245,126.3966 Q105.812,126.5841 105.812,127.0528 L105.812,128.1622 Q105.812,128.6309 105.6245,128.8341 Q105.4526,129.0216 105.1714,129.0216 Q104.9058,129.0216 104.7495,128.8809 Q104.5933,128.7403 104.5151,128.3341 Q104.4683,128.0684 104.3433,127.9278 Q104.0776,127.6309 103.6089,127.4591 Q103.1401,127.2872 102.6714,127.2872 Q102.0933,127.2872 101.5933,127.5528 Q101.1089,127.8028 100.7339,128.3809 Q100.3589,128.9434 100.3589,129.7247 L100.3589,130.5684 Q100.3589,131.5059 101.0464,132.1466 Q101.7339,132.7716 102.937,132.7716 Q103.6714,132.7716 104.1714,132.5684 Q104.4526,132.4591 104.7808,132.1153 Q104.9839,131.9122 105.0933,131.8653 Q105.2183,131.8028 105.3589,131.8028 Q105.6245,131.8028 105.812,132.0059 Q106.0151,132.1934 106.0151,132.4591 Q106.0151,132.7247 105.7495,133.0372 Q105.3589,133.4747 104.7495,133.7247 Q103.937,134.0684 102.9526,134.0684 Q101.7964,134.0684 100.8589,133.5997 Q100.1089,133.2091 99.5776,132.3966 Q99.062,131.5684 99.062,130.5997 L99.062,129.7091 Q99.062,128.6934 99.5308,127.8184 Q100.0151,126.9434 100.8433,126.4747 Q101.687,125.9903 102.6245,125.9903 Q103.187,125.9903 103.6714,126.1309 Q104.1714,126.2559 104.5933,126.5216 Z " fill="#000000"/><text fill="#14324A" font-family="Segoe UI" font-size="14" lengthAdjust="spacing" textLength="95.04" x="179.0981" y="129.0274">ErrorResponse</text><text fill="#14324A" font-family="Segoe UI" font-size="10" lengthAdjust="spacing" textLength="207.9248" x="122.6558" y="143.3321">com.monacoevents.eventbooking.exception</text><line style="stroke:#2C6E8C;stroke-width:0.5;" x1="8" x2="415.2363" y1="150.8419" y2="150.8419"/><rect fill="none" height="6" style="stroke:#C82930;stroke-width:1.0;" width="6" x="15" y="161.9874"/><text fill="#000000" font-family="Segoe UI" font-size="13" lengthAdjust="spacing" textLength="162.9951" x="26" y="168.8702">timestamp: LocalDateTime</text><rect fill="none" height="6" style="stroke:#C82930;stroke-width:1.0;" width="6" x="15" y="179.2784"/><text fill="#000000" font-family="Segoe UI" font-size="13" lengthAdjust="spacing" textLength="60.144" x="26" y="186.1612">status: int</text><rect fill="none" height="6" style="stroke:#C82930;stroke-width:1.0;" width="6" x="15" y="196.5694"/><text fill="#000000" font-family="Segoe UI" font-size="13" lengthAdjust="spacing" textLength="74.7373" x="26" y="203.4522">error: String</text><rect fill="none" height="6" style="stroke:#C82930;stroke-width:1.0;" width="6" x="15" y="213.8604"/><text fill="#000000" font-family="Segoe UI" font-size="13" lengthAdjust="spacing" textLength="96.6938" x="26" y="220.7432">message: String</text><rect fill="none" height="6" style="stroke:#C82930;stroke-width:1.0;" width="6" x="15" y="231.1514"/><text fill="#000000" font-family="Segoe UI" font-size="13" lengthAdjust="spacing" textLength="123.9824" x="26" y="238.0343">details: List&lt;String&gt;</text><line style="stroke:#2C6E8C;stroke-width:0.5;" x1="8" x2="415.2363" y1="245.297" y2="245.297"/><ellipse cx="18" cy="259.4425" fill="#84BE84" rx="3" ry="3" style="stroke:#038048;stroke-width:1.0;"/><text fill="#000000" font-family="Segoe UI" font-size="13" lengthAdjust="spacing" textLength="384.2363" x="26" y="263.3253">ErrorResponse(LocalDateTime, int, String, String, List&lt;String&gt;)</text><ellipse cx="18" cy="276.7335" fill="#84BE84" rx="3" ry="3" style="stroke:#038048;stroke-width:1.0;"/><text fill="#000000" font-family="Segoe UI" font-size="13" lengthAdjust="spacing" textLength="172.5928" x="26" y="280.6163">timestamp(): LocalDateTime</text><ellipse cx="18" cy="294.0245" fill="#84BE84" rx="3" ry="3" style="stroke:#038048;stroke-width:1.0;"/><text fill="#000000" font-family="Segoe UI" font-size="13" lengthAdjust="spacing" textLength="69.7417" x="26" y="297.9073">status(): int</text><ellipse cx="18" cy="311.3155" fill="#84BE84" rx="3" ry="3" style="stroke:#038048;stroke-width:1.0;"/><text fill="#000000" font-family="Segoe UI" font-size="13" lengthAdjust="spacing" textLength="84.335" x="26" y="315.1983">error(): String</text><ellipse cx="18" cy="328.6065" fill="#84BE84" rx="3" ry="3" style="stroke:#038048;stroke-width:1.0;"/><text fill="#000000" font-family="Segoe UI" font-size="13" lengthAdjust="spacing" textLength="106.2915" x="26" y="332.4893">message(): String</text><ellipse cx="18" cy="345.8975" fill="#84BE84" rx="3" ry="3" style="stroke:#038048;stroke-width:1.0;"/><text fill="#000000" font-family="Segoe UI" font-size="13" lengthAdjust="spacing" textLength="133.5801" x="26" y="349.7804">details(): List&lt;String&gt;</text></g></a><!--class java.lang.Record--><g id="elem_java.lang.Record"><rect codeLine="40" fill="#F4F8FB" height="41.9219" id="java.lang.Record" rx="4" ry="4" style="stroke:#2C6E8C;stroke-width:0.5;" width="71.1182" x="176.06" y="7"/><ellipse cx="190.06" cy="27.9609" fill="#A9DCDF" rx="10" ry="10" style="stroke:#181818;stroke-width:1.0;"/><path d="M192.0444,29.1172 L188.8881,29.1172 L188.5756,29.9141 L188.8881,29.9141 Q189.3569,29.9141 189.56,30.1016 Q189.7631,30.2734 189.7631,30.5703 Q189.7631,30.8516 189.56,31.0391 Q189.3569,31.2109 188.8881,31.2109 L187.1381,31.2109 Q186.6694,31.2109 186.4663,31.0391 Q186.2631,30.8516 186.2631,30.5547 Q186.2631,30.2578 186.4819,30.0859 Q186.685,29.8984 187.1694,29.9141 L189.2163,24.8203 L188.3569,24.8203 Q187.8881,24.8203 187.685,24.6484 Q187.4975,24.4609 187.4975,24.1641 Q187.4975,23.8672 187.685,23.6953 Q187.8881,23.5078 188.3569,23.5078 L191.1694,23.5234 L193.7631,29.9141 Q194.2163,29.9141 194.3725,30.0078 Q194.6538,30.2266 194.6538,30.5703 Q194.6538,30.8516 194.4506,31.0391 Q194.2631,31.2109 193.7944,31.2109 L192.0444,31.2109 Q191.5756,31.2109 191.3725,31.0391 Q191.1694,30.8516 191.1694,30.5547 Q191.1694,30.2734 191.3725,30.1016 Q191.5756,29.9141 192.0444,29.9141 L192.3569,29.9141 L192.0444,29.1172 Z M191.5131,27.8203 L190.4663,25.2422 L189.4038,27.8203 L191.5131,27.8203 Z " fill="#000000"/><text fill="#14324A" font-family="Segoe UI" font-size="14" font-style="italic" lengthAdjust="spacing" textLength="41.1182" x="203.06" y="27.1074">Record</text><text fill="#14324A" font-family="Segoe UI" font-size="10" font-style="italic" lengthAdjust="spacing" textLength="39.1992" x="204.0195" y="41.4121">java.lang</text></g><!--reverse link java.lang.Record to com.monacoevents.eventbooking.exception.ErrorResponse--><g id="link_java.lang.Record_com.monacoevents.eventbooking.exception.ErrorResponse"><path codeLine="42" d="M211.62,67.16 C211.62,82.01 211.62,85.55 211.62,108.67 " fill="none" id="java.lang.Record-backto-com.monacoevents.eventbooking.exception.ErrorResponse" style="stroke:#2C6E8C;stroke-width:1.0;"/><polygon fill="none" points="211.62,49.16,205.62,67.16,217.62,67.16,211.62,49.16" style="stroke:#2C6E8C;stroke-width:1.0;"/></g><text fill="#888888" font-family="Segoe UI" font-size="10" lengthAdjust="spacing" textLength="2.7588" x="203.2388" y="373.8341">&#160;</text><a href="https://github.com/talsma-ict/umldoclet" target="_top" title="https://github.com/talsma-ict/umldoclet" xlink:actuate="onRequest" xlink:href="https://github.com/talsma-ict/umldoclet" xlink:show="new" xlink:title="https://github.com/talsma-ict/umldoclet" xlink:type="simple"><text fill="#888888" font-family="Segoe UI" font-size="10" lengthAdjust="spacing" textLength="77.7783" x="165.729" y="387.1348">UMLDoclet 2.2.1</text></a><!--SRC=[dLLTS-8s57tVNt6xVMWo164S1mYJoGmXqEuExUm4yeHv4FR5gDYILvAJqkt-zrv_58n3ffqQPZo-z-YSUwGh2G3W9nYhTAz5jBLW5TYjCF3ywmou3252YPfR344aF483QuoLZ4m9HE2PtIeDQbDy1KfhDAcIeP0HVEOl78pAT826VVW0XTJY7_PNRchiwtqUV5H1Z1OknfUrabodsskxZjk31OzDmk7JUC4gjkCObxci2yGTYm2b8SfCXgYBiaOf3-WrApDNy8BQ22LfZ5Fnv5O39IqNqa3AjJMvfIynbpQljSj8tsDzk1ZDPwUrERT5RLSmqf9d8Jofhzd1hja9IMmy0RFbeNhDPsL39h2HrOgA7IjDim63HYx43SzYEwNgVkC9mXmZXV3ywNtONFo9qBrk08AO6_F0WrrKgSMqRZzElUbW-d0MgZJDNmLpnxt9O7mEDj9QlVuhAY-h0dMzQzSRDK12MjGR7k2R0YUZQM_gl0i_AN9oE-arvMdfTzIuRuq_qE_n7N2TzM4mzXwTyy2QhUjhhtzJJkGFgUOHzMdCzogp42fRTGErgQGbD3GQvvWpMHegbIpxOIj214nIkuUDm3WqpMY2jDaeNCIBUOMFTuPMUzZrxYUq4Fgfs7q6VLd5dVj09InHaWSANr1QmuhNMYao4p7y8y3KqcRu2BGV_oEMdMZ1SicOt_XRhYEqliPKqMRoUIf25HYV1FowW5yNy0y2_ea0szeaNgtWM-4xVzfMq3HQdgH3cAc0nuzqY2meTaHGrcPccBVACOWvxH3cLfFSCKnSXbRpRI94EX5YOfa9O-_AxFqXtJgfykAaaAjS-AeYFBxhF9T7eeETYylt3BLAGpcWRgbLMCgZZTfRbQbpgSfM8TOqzhtiBhusLlF0lccp9wH3Fgprr-zqoZCwAAEYWmvVh0IMRCqetFtLRl-_RYi9xupTntXSYerIT2BKEYH_Vjcdg6T2xgejEZYVVSxlYLX8fAifs4cQDd0EoE-bNAUcLsdvShdSMfkQOQSJ2RlDremCTMnnHxL5O3jP4eVbvTIufbQhwjhv-N3_vNT8s-ctdTwYwmszcw5xm_fUpxdjzHsdvRX3nrbECgrIx7pXMfZLtm00]--></g></svg>