<svg xmlns="http://www.w3.org/2000/svg" xmlns:xlink="http://www.w3.org/1999/xlink" contentStyleType="text/css" height="365px" preserveAspectRatio="none" style="width:430px;height:365px;background:#FFFFFF;" version="1.1" viewBox="0 0 430 365" width="430px" zoomAndPan="magnify"><defs/><g><!--class com.monacoevents.eventbooking.exception.ErrorResponse--><a href="..\..\..\..\..\..\target\reports\apidocs\com\monacoevents\eventbooking\exception\ErrorResponse.html" target="_top" title="..\..\..\..\..\..\target\reports\apidocs\com\monacoevents\eventbooking\exception\ErrorResponse.html" xlink:actuate="onRequest" xlink:href="..\..\..\..\..\..\target\reports\apidocs\com\monacoevents\eventbooking\exception\ErrorResponse.html" xlink:show="new" xlink:title="..\..\..\..\..\..\target\reports\apidocs\com\monacoevents\eventbooking\exception\ErrorResponse.html" xlink:type="simple"><g id="elem_com.monacoevents.eventbooking.exception.ErrorResponse"><rect codeLine="13" fill="#F1F1F1" height="249.8906" id="com.monacoevents.eventbooking.exception.ErrorResponse" rx="2.5" ry="2.5" style="stroke:#181818;stroke-width:0.5;" width="417.3848" x="6" y="88"/><ellipse cx="113.1597" cy="108.0938" fill="#ADD1B2" rx="11" ry="11" style="stroke:#181818;stroke-width:1.0;"/><path d="M115.9253,103.9688 Q116.0815,103.75 116.269,103.6406 Q116.4565,103.5313 116.6753,103.5313 Q117.0503,103.5313 117.2847,103.7969 Q117.519,104.0469 117.519,104.6563 L117.519,106.1094 Q117.519,106.7188 117.2847,106.9844 Q117.0503,107.25 116.6753,107.25 Q116.3315,107.25 116.1284,107.0469 Q115.9253,106.8594 115.8159,106.3438 Q115.769,105.9844 115.5815,105.7969 Q115.2534,105.4219 114.644,105.2031 Q114.0347,104.9844 113.4097,104.9844 Q112.644,104.9844 112.0034,105.3125 Q111.3784,105.6406 110.8784,106.3906 Q110.394,107.1406 110.394,108.1719 L110.394,109.2656 Q110.394,110.5 111.2847,111.3281 Q112.1753,112.1406 113.769,112.1406 Q114.7065,112.1406 115.3628,111.8906 Q115.7534,111.7344 116.1753,111.2969 Q116.4409,111.0313 116.5815,110.9531 Q116.7378,110.875 116.9409,110.875 Q117.269,110.875 117.519,111.1406 Q117.7847,111.3906 117.7847,111.7344 Q117.7847,112.0781 117.4409,112.4844 Q116.9409,113.0625 116.144,113.3906 Q115.0659,113.8438 113.769,113.8438 Q112.2534,113.8438 111.0503,113.2188 Q110.0659,112.7188 109.3784,111.6563 Q108.6909,110.5781 108.6909,109.2969 L108.6909,108.1406 Q108.6909,106.8125 109.3003,105.6719 Q109.9253,104.5156 111.019,103.9063 Q112.1128,103.2813 113.3472,103.2813 Q114.0815,103.2813 114.7222,103.4531 Q115.3784,103.6094 115.9253,103.9688 Z " fill="#000000"/><text fill="#000000" font-family="sans-serif" font-size="14" lengthAdjust="spacing" textLength="94.1514" x="183.8667" y="107.5332">ErrorResponse</text><text fill="#000000" font-family="sans-serif" font-size="10" lengthAdjust="spacing" textLength="194.5654" x="133.6597" y="120.9902">com.monacoevents.eventbooking.exception</text><line style="stroke:#181818;stroke-width:0.5;" x1="7" x2="422.3848" y1="128.1875" y2="128.1875"/><rect fill="none" height="6" style="stroke:#C82930;stroke-width:1.0;" width="6" x="14" y="139.4922"/><text fill="#000000" font-family="sans-serif" font-size="14" lengthAdjust="spacing" textLength="166.5029" x="26" y="146.7207">timestamp: LocalDateTime</text><rect fill="none" height="6" style="stroke:#C82930;stroke-width:1.0;" width="6" x="14" y="157.1016"/><text fill="#000000" font-family="sans-serif" font-size="14" lengthAdjust="spacing" textLength="59.917" x="26" y="164.3301">status: int</text><rect fill="none" height="6" style="stroke:#C82930;stroke-width:1.0;" width="6" x="14" y="174.7109"/><text fill="#000000" font-family="sans-serif" font-size="14" lengthAdjust="spacing" textLength="73.9102" x="26" y="181.9395">error: String</text><rect fill="none" height="6" style="stroke:#C82930;stroke-width:1.0;" width="6" x="14" y="192.3203"/><text fill="#000000" font-family="sans-serif" font-size="14" lengthAdjust="spacing" textLength="101.1582" x="26" y="199.5488">message: String</text><rect fill="none" height="6" style="stroke:#C82930;stroke-width:1.0;" width="6" x="14" y="209.9297"/><text fill="#000000" font-family="sans-serif" font-size="14" lengthAdjust="spacing" textLength="122.958" x="26" y="217.1582">details: List&lt;String&gt;</text><line style="stroke:#181818;stroke-width:0.5;" x1="7" x2="422.3848" y1="224.2344" y2="224.2344"/><ellipse cx="17" cy="238.5391" fill="#84BE84" rx="3" ry="3" style="stroke:#038048;stroke-width:1.0;"/><text fill="#000000" font-family="sans-serif" font-size="14" lengthAdjust="spacing" textLength="391.3848" x="26" y="242.7676">ErrorResponse(LocalDateTime, int, String, String, List&lt;String&gt;)</text><ellipse cx="17" cy="256.1484" fill="#84BE84" rx="3" ry="3" style="stroke:#038048;stroke-width:1.0;"/><text fill="#000000" font-family="sans-serif" font-size="14" lengthAdjust="spacing" textLength="175.8271" x="26" y="260.377">timestamp(): LocalDateTime</text><ellipse cx="17" cy="273.7578" fill="#84BE84" rx="3" ry="3" style="stroke:#038048;stroke-width:1.0;"/><text fill="#000000" font-family="sans-serif" font-size="14" lengthAdjust="spacing" textLength="69.2412" x="26" y="277.9863">status(): int</text><ellipse cx="17" cy="291.3672" fill="#84BE84" rx="3" ry="3" style="stroke:#038048;stroke-width:1.0;"/><text fill="#000000" font-family="sans-serif" font-size="14" lengthAdjust="spacing" textLength="83.2344" x="26" y="295.5957">error(): String</text><ellipse cx="17" cy="308.9766" fill="#84BE84" rx="3" ry="3" style="stroke:#038048;stroke-width:1.0;"/><text fill="#000000" font-family="sans-serif" font-size="14" lengthAdjust="spacing" textLength="110.4824" x="26" y="313.2051">message(): String</text><ellipse cx="17" cy="326.5859" fill="#84BE84" rx="3" ry="3" style="stroke:#038048;stroke-width:1.0;"/><text fill="#000000" font-family="sans-serif" font-size="14" lengthAdjust="spacing" textLength="132.2822" x="26" y="330.8145">details(): List&lt;String&gt;</text></g></a><!--class java.lang.Record--><g id="elem_java.lang.Record"><rect codeLine="27" fill="#F1F1F1" height="40.1875" id="java.lang.Record" rx="2.5" ry="2.5" style="stroke:#181818;stroke-width:0.5;" width="77.1309" x="176" y="12"/><ellipse cx="191" cy="32.0938" fill="#A9DCDF" rx="11" ry="11" style="stroke:#181818;stroke-width:1.0;"/><path d="M193.1875,33.8594 L189.0469,33.8594 L188.625,34.8906 L189.0469,34.8906 Q189.6563,34.8906 189.9219,35.125 Q190.1875,35.3594 190.1875,35.75 Q190.1875,36.125 189.9219,36.3594 Q189.6563,36.5938 189.0469,36.5938 L186.75,36.5938 Q186.1406,36.5938 185.8906,36.3594 Q185.625,36.125 185.625,35.7344 Q185.625,35.3594 185.9063,35.125 Q186.1719,34.875 186.7969,34.8906 L189.4688,28.2344 L188.3594,28.2344 Q187.75,28.2344 187.4844,28 Q187.2188,27.7656 187.2188,27.375 Q187.2188,27 187.4844,26.7656 Q187.75,26.5313 188.3594,26.5313 L192.0313,26.5313 L195.4219,34.8906 Q196.0156,34.8906 196.2031,35.0313 Q196.5938,35.2969 196.5938,35.75 Q196.5938,36.125 196.3281,36.3594 Q196.0781,36.5938 195.4688,36.5938 L193.1719,36.5938 Q192.5625,36.5938 192.2969,36.3594 Q192.0313,36.125 192.0313,35.7344 Q192.0313,35.3594 192.2969,35.125 Q192.5625,34.8906 193.1719,34.8906 L193.5938,34.8906 L193.1875,33.8594 Z M192.4688,32.1563 L191.1094,28.7813 L189.7344,32.1563 L192.4688,32.1563 Z " fill="#000000"/><text fill="#000000" font-family="sans-serif" font-size="14" font-style="italic" lengthAdjust="spacing" textLength="45.1309" x="205" y="31.5332">Record</text><text fill="#000000" font-family="sans-serif" font-size="10" font-style="italic" lengthAdjust="spacing" textLength="40.0293" x="207.5508" y="44.9902">java.lang</text></g><polygon fill="none" points="214.5,52.1561,208.5,70.1561,220.5,70.1561,214.5,52.1561" style="stroke:#181818;stroke-width:1.0;"/><path d="M214.5,70.1561 C214.5,79.7162 214.5,74.1691 214.5,87.9071 " fill="none" style="stroke:#181818;stroke-width:1.0;"/><text fill="#888888" font-family="sans-serif" font-size="10" lengthAdjust="spacing" textLength="2.7783" x="209.6108" y="342.3809">&#160;</text><a href="https://github.com/talsma-ict/umldoclet" target="_top" title="https://github.com/talsma-ict/umldoclet" xlink:actuate="onRequest" xlink:href="https://github.com/talsma-ict/umldoclet" xlink:show="new" xlink:title="https://github.com/talsma-ict/umldoclet" xlink:type="simple"><text fill="#888888" font-family="sans-serif" font-size="10" lengthAdjust="spacing" textLength="74.4775" x="173.7612" y="354.959">UMLDoclet 2.2.1</text></a><!--SRC=[dLJVJzj037xVN-6nXu7QNjC2BOig95JGVgYJ49IdfW_Nn2Gtahlipc7hDlxtEKdNf8L9qw98fzZEz_dpsGO0U0jJaw-jYXC2Ca29Sd3tUGPIHn2ZHYi98r2PZD712bEZOrS78iY24cF1t5TVeR4MNMvqf7GCd-IZ16SA6w8Jhrv1HJN_W_vDkXRwQbqQBqsO8i7XzAYLqj0RZ7f3RpY2kKnT9k7ZT2usQCq_Gp4K0s3iL8Me7KCMEa9RfNMHov2FMUtfmYDQfupcVxmDJYarD9gaqWvoQScLagvJgQdCTI2O_qICuV3YThQRc_UkogqB5rRB8e8RyxNOodsTMnbpngbScuB0PKXIozhdE6ajCowN3F4McLGILr8RZPK_KH42PZcjuLvX6hbzAuCbXisLFKobSt0mSUe7-eEJyojhZRsfxi9Xe3TsxpmqcSYCbg71HzJaH7MiZ7dW6nFuFSISk3G7mBVpZx5YXmiM2o62lPUaZP42YxdXqWOoLv49NS04GPiWQ1C4Mu9WXq0abANB9VoiT9TFZnINaMIM-p0peKmlkQNcR6iYs4k5yq5fQenOmlfmIvRf6ZDZEMxrvuw8Rq-bZ39JZYQrztphxknaURYJIBSaxcu0cxEDSzG0RUKS7lrDKASML0Qq9NKgIQLrB_VEHjHBhesiYcnVs5FTNNBboCgGdhNP3VB8Hwt- -i8pBtXiugg3jb-Y3gpHzgqm-TNh_L-trO0JH-iKcwkuDuPuz9iEAPyFwnpjJEc7gKbvpjwSlUozAxT6gZJoeWeVD9SDl6taKqtNR_5jk0AzM2H4kVFx_LXHKgm42-fJjR5wAgH-aQLHlQhsbjPokLb2xxVRiDmeFM_SyqRpmR5_El2ziHYFJivEHyUUr_66lkSjhWfhSknVIwlSyZS0]--></g></svg>