<svg xmlns="http://www.w3.org/2000/svg" xmlns:xlink="http://www.w3.org/1999/xlink" contentStyleType="text/css" height="122px" preserveAspectRatio="none" style="width:628px;height:122px;background:#FFFFFF;" version="1.1" viewBox="0 0 628 122" width="628px" zoomAndPan="magnify"><defs/><g><!--class com.monacoevents.eventbooking.exception.GlobalExceptionHandler--><a href="..\..\..\..\..\..\target\reports\apidocs\com\monacoevents\eventbooking\exception\GlobalExceptionHandler.html" target="_top" title="..\..\..\..\..\..\target\reports\apidocs\com\monacoevents\eventbooking\exception\GlobalExceptionHandler.html" xlink:actuate="onRequest" xlink:href="..\..\..\..\..\..\target\reports\apidocs\com\monacoevents\eventbooking\exception\GlobalExceptionHandler.html" xlink:show="new" xlink:title="..\..\..\..\..\..\target\reports\apidocs\com\monacoevents\eventbooking\exception\GlobalExceptionHandler.html" xlink:type="simple"><g id="elem_com.monacoevents.eventbooking.exception.GlobalExceptionHandler"><rect codeLine="13" fill="#F1F1F1" height="83.4063" id="com.monacoevents.eventbooking.exception.GlobalExceptionHandler" rx="2.5" ry="2.5" style="stroke:#181818;stroke-width:0.5;" width="615.0938" x="6" y="12"/><ellipse cx="212.0142" cy="32.0938" fill="#ADD1B2" rx="11" ry="11" style="stroke:#181818;stroke-width:1.0;"/><path d="M214.7798,27.9688 Q214.936,27.75 215.1235,27.6406 Q215.311,27.5313 215.5298,27.5313 Q215.9048,27.5313 216.1392,27.7969 Q216.3735,28.0469 216.3735,28.6563 L216.3735,30.1094 Q216.3735,30.7188 216.1392,30.9844 Q215.9048,31.25 215.5298,31.25 Q215.186,31.25 214.9829,31.0469 Q214.7798,30.8594 214.6704,30.3438 Q214.6235,29.9844 214.436,29.7969 Q214.1079,29.4219 213.4985,29.2031 Q212.8892,28.9844 212.2642,28.9844 Q211.4985,28.9844 210.8579,29.3125 Q210.2329,29.6406 209.7329,30.3906 Q209.2485,31.1406 209.2485,32.1719 L209.2485,33.2656 Q209.2485,34.5 210.1392,35.3281 Q211.0298,36.1406 212.6235,36.1406 Q213.561,36.1406 214.2173,35.8906 Q214.6079,35.7344 215.0298,35.2969 Q215.2954,35.0313 215.436,34.9531 Q215.5923,34.875 215.7954,34.875 Q216.1235,34.875 216.3735,35.1406 Q216.6392,35.3906 216.6392,35.7344 Q216.6392,36.0781 216.2954,36.4844 Q215.7954,37.0625 214.9985,37.3906 Q213.9204,37.8438 212.6235,37.8438 Q211.1079,37.8438 209.9048,37.2188 Q208.9204,36.7188 208.2329,35.6563 Q207.5454,34.5781 207.5454,33.2969 L207.5454,32.1406 Q207.5454,30.8125 208.1548,29.6719 Q208.7798,28.5156 209.8735,27.9063 Q210.9673,27.2813 212.2017,27.2813 Q212.936,27.2813 213.5767,27.4531 Q214.2329,27.6094 214.7798,27.9688 Z " fill="#000000"/><text fill="#000000" font-family="sans-serif" font-size="14" lengthAdjust="spacing" textLength="150.9785" x="254.3076" y="31.5332">GlobalExceptionHandler</text><text fill="#000000" font-family="sans-serif" font-size="10" lengthAdjust="spacing" textLength="194.5654" x="232.5142" y="44.9902">com.monacoevents.eventbooking.exception</text><line style="stroke:#181818;stroke-width:0.5;" x1="7" x2="620.0938" y1="52.1875" y2="52.1875"/><ellipse cx="17" cy="66.4922" fill="#84BE84" rx="3" ry="3" style="stroke:#038048;stroke-width:1.0;"/><text fill="#000000" font-family="sans-serif" font-size="14" lengthAdjust="spacing" textLength="571.9834" x="26" y="70.7207">handleResourceNotFound(ResourceNotFoundException): ResponseEntity&lt;ErrorResponse&gt;</text><ellipse cx="17" cy="84.1016" fill="#84BE84" rx="3" ry="3" style="stroke:#038048;stroke-width:1.0;"/><text fill="#000000" font-family="sans-serif" font-size="14" lengthAdjust="spacing" textLength="589.0938" x="26" y="88.3301">handleValidationErrors(MethodArgumentNotValidException): ResponseEntity&lt;ErrorResponse&gt;</text></g></a><text fill="#888888" font-family="sans-serif" font-size="10" lengthAdjust="spacing" textLength="2.7783" x="308.6108" y="99.3809">&#160;</text><a href="https://github.com/talsma-ict/umldoclet" target="_top" title="https://github.com/talsma-ict/umldoclet" xlink:actuate="onRequest" xlink:href="https://github.com/talsma-ict/umldoclet" xlink:show="new" xlink:title="https://github.com/talsma-ict/umldoclet" xlink:type="simple"><text fill="#888888" font-family="sans-serif" font-size="10" lengthAdjust="spacing" textLength="74.4775" x="272.7612" y="111.959">UMLDoclet 2.2.1</text></a><!--SRC=[bLFVJzim47xVNt5Z3ok2kcaBb5K8gUews5Gc16KlJH-kpf5OEBxCTjYoYVzzJbfAL_6mMP6it9s_xtvz003lOSn5PLMQUV0CFbCExgwcW2Q1b0nPz9I0oZ4b1qlIR5At2YJ0qcTiWU-RFydMaYlO9Cgay0KV4HoNLf8JRzv0GpLxHl-1RWjzMTN6ZomrUMYDzxTIwaNTatOlwft03BNB4JwFPsADzlAc9tgY2m5RAqd61SZI96IRj4O5od1DLvv3U2Jh59lm9bhZrALADXwLSL2WzQukwLgZyNMkNH7uZyG0MgFRwT-vHH-Qt0vXP0sM2Tpmzt9Jxjl2OXeorbXnwS7bvD7WokT2qWRpq2wKT4k157tef653ZJzJ2G7bXQ_WNf5EtAurW6KSp8rTQdGEziwS-aN3xj7vXUObwibFIOKFfLw60ZNPsAm3edF9kSZPe6Hw9EETQAubyqCOdQ3dXtiGnlIFiU9rKfZFXOXtFeys9HzRAZWqEyP29InT79ZYRQPucodUCCMlCudCvtgnWDzDI-fpa3MU6rgjuLVsdpZiHMlNi47Q7y9Diy6E9iOhNvrDh6NxR3lVHVw6MYLOlspYNEkgcSh8fcKUCW_uJSJ_uJ-jPdhcVAMtAE-PVMZdItNrkQmAibDb7iQim_gyEttTUrUBGIj3GN_omL1ObcWJ-RIYwspnhRbYCvzdtXTksEcaocVbKeGHTNmZnBQIlbFcEbafS4UBYyLQMnSRaTT2QKU3TdGow_Q7nzrXD123qtx_kD-FeeEeDuoY-QIqN53d6groYpy0]--></g></svg>