<svg xmlns="http://www.w3.org/2000/svg" xmlns:xlink="http://www.w3.org/1999/xlink" contentStyleType="text/css" height="100%" preserveAspectRatio="none" style="width:100%;height:100%;background:#FFFFFF;" version="1.1" viewBox="0 0 1380 474" width="100%" zoomAndPan="magnify"><defs/><g><!--cluster com.monacoevents.eventbooking.exception--><g id="cluster_com.monacoevents.eventbooking.exception"><path d="M10,145.29 L278.3022,145.29 A6,6 0 0 1 282.3022,149.29 L289.3022,168.581 L1369,168.581 A4,4 0 0 1 1373,172.581 L1373,429.49 A4,4 0 0 1 1369,433.49 L10,433.49 A4,4 0 0 1 6,429.49 L6,149.29 A4,4 0 0 1 10,145.29 " fill="#FBFBFD" style="stroke:#B8C4D0;stroke-width:1.5;"/><line style="stroke:#B8C4D0;stroke-width:1.5;" x1="6" x2="289.3022" y1="168.581" y2="168.581"/><text fill="#33475B" font-family="Segoe UI" font-size="13" font-weight="bold" lengthAdjust="spacing" textLength="270.3022" x="10" y="161.3183">com.monacoevents.eventbooking.exception</text></g><!--cluster java.lang--><g id="cluster_java.lang"><path d="M609,6 L661.8564,6 A6,6 0 0 1 665.8564,10 L672.8564,29.291 L898,29.291 A4,4 0 0 1 902,33.291 L902,117.29 A4,4 0 0 1 898,121.29 L609,121.29 A4,4 0 0 1 605,117.29 L605,10 A4,4 0 0 1 609,6 " fill="#FBFBFD" style="stroke:#B8C4D0;stroke-width:1.5;"/><line style="stroke:#B8C4D0;stroke-width:1.5;" x1="605" x2="672.8564" y1="29.291" y2="29.291"/><text fill="#33475B" font-family="Segoe UI" font-size="13" font-weight="bold" lengthAdjust="spacing" textLength="54.8564" x="609" y="22.0283">java.lang</text></g><!--class ErrorResponse--><a href="file:/C:/Users/loris/Documents/Programming/Github/event-booking-api/target/reports/apidocs/com/monacoevents/eventbooking/exception/ErrorResponse.html" target="_top" title="file:/C:/Users/loris/Documents/Programming/Github/event-booking-api/target/reports/apidocs/com/monacoevents/eventbooking/exception/ErrorResponse.html" xlink:actuate="onRequest" xlink:href="file:/C:/Users/loris/Documents/Programming/Github/event-booking-api/target/reports/apidocs/com/monacoevents/eventbooking/exception/ErrorResponse.html" xlink:show="new" xlink:title="file:/C:/Users/loris/Documents/Programming/Github/event-booking-api/target/reports/apidocs/com/monacoevents/eventbooking/exception/ErrorResponse.html" xlink:type="simple"><g id="elem_ErrorResponse"><rect codeLine="25" fill="#F4F8FB" height="236.2012" id="ErrorResponse" rx="4" ry="4" style="stroke:#2C6E8C;stroke-width:0.5;" width="409.2363" x="22.38" y="181.29"/><ellipse cx="178.8724" cy="196.29" fill="#ADD1B2" rx="10" ry="10" style="stroke:#181818;stroke-width:1.0;"/><path d="M179.8099,192.9306 Q179.9349,192.7588 180.0756,192.6806 Q180.2162,192.6025 180.3881,192.6025 Q180.6693,192.6025 180.8412,192.8056 Q181.0287,192.9931 181.0287,193.4619 L181.0287,194.5713 Q181.0287,195.04 180.8412,195.2431 Q180.6693,195.4306 180.3881,195.4306 Q180.1224,195.4306 179.9662,195.29 Q179.8099,195.1494 179.7318,194.7431 Q179.6849,194.4775 179.5599,194.3369 Q179.2943,194.04 178.8256,193.8681 Q178.3568,193.6963 177.8881,193.6963 Q177.3099,193.6963 176.8099,193.9619 Q176.3256,194.2119 175.9506,194.79 Q175.5756,195.3525 175.5756,196.1338 L175.5756,196.9775 Q175.5756,197.915 176.2631,198.5556 Q176.9506,199.1806 178.1537,199.1806 Q178.8881,199.1806 179.3881,198.9775 Q179.6693,198.8681 179.9974,198.5244 Q180.2006,198.3213 180.3099,198.2744 Q180.4349,198.2119 180.5756,198.2119 Q180.8412,198.2119 181.0287,198.415 Q181.2318,198.6025 181.2318,198.8681 Q181.2318,199.1338 180.9662,199.4463 Q180.5756,199.8838 179.9662,200.1338 Q179.1537,200.4775 178.1693,200.4775 Q177.0131,200.4775 176.0756,200.0088 Q175.3256,199.6181 174.7943,198.8056 Q174.2787,197.9775 174.2787,197.0088 L174.2787,196.1181 Q174.2787,195.1025 174.7474,194.2275 Q175.2318,193.3525 176.0599,192.8838 Q176.9037,192.3994 177.8412,192.3994 Q178.4037,192.3994 178.8881,192.54 Q179.3881,192.665 179.8099,192.9306 Z " fill="#000000"/><text fill="#14324A" font-family="Segoe UI" font-size="13" lengthAdjust="spacing" textLength="88.2515" x="197.8724" y="201.6728">ErrorResponse</text><line style="stroke:#2C6E8C;stroke-width:0.5;" x1="23.38" x2="430.6163" y1="211.29" y2="211.29"/><rect fill="none" height="6" style="stroke:#C82930;stroke-width:1.0;" width="6" x="30.38" y="222.4355"/><text fill="#000000" font-family="Segoe UI" font-size="13" lengthAdjust="spacing" textLength="162.9951" x="41.38" y="229.3183">timestamp: LocalDateTime</text><rect fill="none" height="6" style="stroke:#C82930;stroke-width:1.0;" width="6" x="30.38" y="239.7265"/><text fill="#000000" font-family="Segoe UI" font-size="13" lengthAdjust="spacing" textLength="60.144" x="41.38" y="246.6093">status: int</text><rect fill="none" height="6" style="stroke:#C82930;stroke-width:1.0;" width="6" x="30.38" y="257.0175"/><text fill="#000000" font-family="Segoe UI" font-size="13" lengthAdjust="spacing" textLength="74.7373" x="41.38" y="263.9004">error: String</text><rect fill="none" height="6" style="stroke:#C82930;stroke-width:1.0;" width="6" x="30.38" y="274.3086"/><text fill="#000000" font-family="Segoe UI" font-size="13" lengthAdjust="spacing" textLength="96.6938" x="41.38" y="281.1914">message: String</text><rect fill="none" height="6" style="stroke:#C82930;stroke-width:1.0;" width="6" x="30.38" y="291.5996"/><text fill="#000000" font-family="Segoe UI" font-size="13" lengthAdjust="spacing" textLength="123.9824" x="41.38" y="298.4824">details: List&lt;String&gt;</text><line style="stroke:#2C6E8C;stroke-width:0.5;" x1="23.38" x2="430.6163" y1="305.7451" y2="305.7451"/><ellipse cx="33.38" cy="319.8906" fill="#84BE84" rx="3" ry="3" style="stroke:#038048;stroke-width:1.0;"/><text fill="#000000" font-family="Segoe UI" font-size="13" lengthAdjust="spacing" textLength="384.2363" x="41.38" y="323.7734">ErrorResponse(LocalDateTime, int, String, String, List&lt;String&gt;)</text><ellipse cx="33.38" cy="337.1816" fill="#84BE84" rx="3" ry="3" style="stroke:#038048;stroke-width:1.0;"/><text fill="#000000" font-family="Segoe UI" font-size="13" lengthAdjust="spacing" textLength="172.5928" x="41.38" y="341.0644">timestamp(): LocalDateTime</text><ellipse cx="33.38" cy="354.4726" fill="#84BE84" rx="3" ry="3" style="stroke:#038048;stroke-width:1.0;"/><text fill="#000000" font-family="Segoe UI" font-size="13" lengthAdjust="spacing" textLength="69.7417" x="41.38" y="358.3554">status(): int</text><ellipse cx="33.38" cy="371.7636" fill="#84BE84" rx="3" ry="3" style="stroke:#038048;stroke-width:1.0;"/><text fill="#000000" font-family="Segoe UI" font-size="13" lengthAdjust="spacing" textLength="84.335" x="41.38" y="375.6464">error(): String</text><ellipse cx="33.38" cy="389.0546" fill="#84BE84" rx="3" ry="3" style="stroke:#038048;stroke-width:1.0;"/><text fill="#000000" font-family="Segoe UI" font-size="13" lengthAdjust="spacing" textLength="106.2915" x="41.38" y="392.9375">message(): String</text><ellipse cx="33.38" cy="406.3457" fill="#84BE84" rx="3" ry="3" style="stroke:#038048;stroke-width:1.0;"/><text fill="#000000" font-family="Segoe UI" font-size="13" lengthAdjust="spacing" textLength="133.5801" x="41.38" y="410.2285">details(): List&lt;String&gt;</text></g></a><!--class GlobalExceptionHandler--><a href="file:/C:/Users/loris/Documents/Programming/Github/event-booking-api/target/reports/apidocs/com/monacoevents/eventbooking/exception/GlobalExceptionHandler.html" target="_top" title="file:/C:/Users/loris/Documents/Programming/Github/event-booking-api/target/reports/apidocs/com/monacoevents/eventbooking/exception/GlobalExceptionHandler.html" xlink:actuate="onRequest" xlink:href="file:/C:/Users/loris/Documents/Programming/Github/event-booking-api/target/reports/apidocs/com/monacoevents/eventbooking/exception/GlobalExceptionHandler.html" xlink:show="new" xlink:title="file:/C:/Users/loris/Documents/Programming/Github/event-booking-api/target/reports/apidocs/com/monacoevents/eventbooking/exception/GlobalExceptionHandler.html" xlink:type="simple"><g id="elem_GlobalExceptionHandler"><rect codeLine="39" fill="#F4F8FB" height="80.582" id="GlobalExceptionHandler" rx="4" ry="4" style="stroke:#2C6E8C;stroke-width:0.5;" width="606.8579" x="466.57" y="259.1"/><ellipse cx="691.798" cy="274.1" fill="#ADD1B2" rx="10" ry="10" style="stroke:#181818;stroke-width:1.0;"/><path d="M692.7355,270.7406 Q692.8605,270.5688 693.0012,270.4906 Q693.1418,270.4125 693.3137,270.4125 Q693.5949,270.4125 693.7668,270.6156 Q693.9543,270.8031 693.9543,271.2719 L693.9543,272.3813 Q693.9543,272.85 693.7668,273.0531 Q693.5949,273.2406 693.3137,273.2406 Q693.048,273.2406 692.8918,273.1 Q692.7355,272.9594 692.6574,272.5531 Q692.6105,272.2875 692.4855,272.1469 Q692.2199,271.85 691.7512,271.6781 Q691.2824,271.5063 690.8137,271.5063 Q690.2355,271.5063 689.7355,271.7719 Q689.2512,272.0219 688.8762,272.6 Q688.5012,273.1625 688.5012,273.9438 L688.5012,274.7875 Q688.5012,275.725 689.1887,276.3656 Q689.8762,276.9906 691.0793,276.9906 Q691.8137,276.9906 692.3137,276.7875 Q692.5949,276.6781 692.923,276.3344 Q693.1262,276.1313 693.2355,276.0844 Q693.3605,276.0219 693.5012,276.0219 Q693.7668,276.0219 693.9543,276.225 Q694.1574,276.4125 694.1574,276.6781 Q694.1574,276.9438 693.8918,277.2563 Q693.5012,277.6938 692.8918,277.9438 Q692.0793,278.2875 691.0949,278.2875 Q689.9387,278.2875 689.0012,277.8188 Q688.2512,277.4281 687.7199,276.6156 Q687.2043,275.7875 687.2043,274.8188 L687.2043,273.9281 Q687.2043,272.9125 687.673,272.0375 Q688.1574,271.1625 688.9855,270.6938 Q689.8293,270.2094 690.7668,270.2094 Q691.3293,270.2094 691.8137,270.35 Q692.3137,270.475 692.7355,270.7406 Z " fill="#000000"/><text fill="#14324A" font-family="Segoe UI" font-size="13" lengthAdjust="spacing" textLength="148.4019" x="710.798" y="279.4828">GlobalExceptionHandler</text><line style="stroke:#2C6E8C;stroke-width:0.5;" x1="467.57" x2="1072.4279" y1="289.1" y2="289.1"/><line style="stroke:#2C6E8C;stroke-width:0.5;" x1="467.57" x2="1072.4279" y1="297.1" y2="297.1"/><ellipse cx="477.57" cy="311.2455" fill="#84BE84" rx="3" ry="3" style="stroke:#038048;stroke-width:1.0;"/><text fill="#000000" font-family="Segoe UI" font-size="13" lengthAdjust="spacing" textLength="552.7793" x="485.57" y="315.1283">handleResourceNotFound(ResourceNotFoundException): ResponseEntity&lt;ErrorResponse&gt;</text><ellipse cx="477.57" cy="328.5365" fill="#84BE84" rx="3" ry="3" style="stroke:#038048;stroke-width:1.0;"/><text fill="#000000" font-family="Segoe UI" font-size="13" lengthAdjust="spacing" textLength="581.8579" x="485.57" y="332.4193">handleValidationErrors(MethodArgumentNotValidException): ResponseEntity&lt;ErrorResponse&gt;</text></g></a><!--class ResourceNotFoundException--><a href="file:/C:/Users/loris/Documents/Programming/Github/event-booking-api/target/reports/apidocs/com/monacoevents/eventbooking/exception/ResourceNotFoundException.html" target="_top" title="file:/C:/Users/loris/Documents/Programming/Github/event-booking-api/target/reports/apidocs/com/monacoevents/eventbooking/exception/ResourceNotFoundException.html" xlink:actuate="onRequest" xlink:href="file:/C:/Users/loris/Documents/Programming/Github/event-booking-api/target/reports/apidocs/com/monacoevents/eventbooking/exception/ResourceNotFoundException.html" xlink:show="new" xlink:title="file:/C:/Users/loris/Documents/Programming/Github/event-booking-api/target/reports/apidocs/com/monacoevents/eventbooking/exception/ResourceNotFoundException.html" xlink:type="simple"><g id="elem_ResourceNotFoundException"><rect codeLine="44" fill="#F4F8FB" height="63.291" id="ResourceNotFoundException" rx="4" ry="4" style="stroke:#2C6E8C;stroke-width:0.5;" width="248.9834" x="1108.51" y="267.74"/><ellipse cx="1141.2863" cy="282.74" fill="#ADD1B2" rx="10" ry="10" style="stroke:#181818;stroke-width:1.0;"/><path d="M1142.2238,279.3806 Q1142.3488,279.2088 1142.4894,279.1306 Q1142.63,279.0525 1142.8019,279.0525 Q1143.0832,279.0525 1143.255,279.2556 Q1143.4425,279.4431 1143.4425,279.9119 L1143.4425,281.0213 Q1143.4425,281.49 1143.255,281.6931 Q1143.0832,281.8806 1142.8019,281.8806 Q1142.5363,281.8806 1142.38,281.74 Q1142.2238,281.5994 1142.1457,281.1931 Q1142.0988,280.9275 1141.9738,280.7869 Q1141.7082,280.49 1141.2394,280.3181 Q1140.7707,280.1463 1140.3019,280.1463 Q1139.7238,280.1463 1139.2238,280.4119 Q1138.7394,280.6619 1138.3644,281.24 Q1137.9894,281.8025 1137.9894,282.5838 L1137.9894,283.4275 Q1137.9894,284.365 1138.6769,285.0056 Q1139.3644,285.6306 1140.5675,285.6306 Q1141.3019,285.6306 1141.8019,285.4275 Q1142.0832,285.3181 1142.4113,284.9744 Q1142.6144,284.7713 1142.7238,284.7244 Q1142.8488,284.6619 1142.9894,284.6619 Q1143.255,284.6619 1143.4425,284.865 Q1143.6457,285.0525 1143.6457,285.3181 Q1143.6457,285.5838 1143.38,285.8963 Q1142.9894,286.3338 1142.38,286.5838 Q1141.5675,286.9275 1140.5832,286.9275 Q1139.4269,286.9275 1138.4894,286.4588 Q1137.7394,286.0681 1137.2082,285.2556 Q1136.6925,284.4275 1136.6925,283.4588 L1136.6925,282.5681 Q1136.6925,281.5525 1137.1613,280.6775 Q1137.6457,279.8025 1138.4738,279.3338 Q1139.3175,278.8494 1140.255,278.8494 Q1140.8175,278.8494 1141.3019,278.99 Q1141.8019,279.115 1142.2238,279.3806 Z " fill="#000000"/><text fill="#14324A" font-family="Segoe UI" font-size="13" lengthAdjust="spacing" textLength="177.2583" x="1158.4588" y="288.1228">ResourceNotFoundException</text><line style="stroke:#2C6E8C;stroke-width:0.5;" x1="1109.51" x2="1356.4934" y1="297.74" y2="297.74"/><line style="stroke:#2C6E8C;stroke-width:0.5;" x1="1109.51" x2="1356.4934" y1="305.74" y2="305.74"/><ellipse cx="1119.51" cy="319.8855" fill="#84BE84" rx="3" ry="3" style="stroke:#038048;stroke-width:1.0;"/><text fill="#000000" font-family="Segoe UI" font-size="13" lengthAdjust="spacing" textLength="223.9834" x="1127.51" y="323.7683">ResourceNotFoundException(String)</text></g></a><!--class Record--><g id="elem_Record"><rect codeLine="51" fill="#F4F8FB" height="46" id="Record" rx="4" ry="4" style="stroke:#2C6E8C;stroke-width:0.5;" width="68.1812" x="620.91" y="50.64"/><ellipse cx="634.91" cy="65.64" fill="#A9DCDF" rx="10" ry="10" style="stroke:#181818;stroke-width:1.0;"/><path d="M636.8944,66.7962 L633.7381,66.7962 L633.4256,67.5931 L633.7381,67.5931 Q634.2069,67.5931 634.41,67.7806 Q634.6131,67.9525 634.6131,68.2494 Q634.6131,68.5306 634.41,68.7181 Q634.2069,68.89 633.7381,68.89 L631.9881,68.89 Q631.5194,68.89 631.3163,68.7181 Q631.1131,68.5306 631.1131,68.2337 Q631.1131,67.9369 631.3319,67.765 Q631.535,67.5775 632.0194,67.5931 L634.0663,62.4994 L633.2069,62.4994 Q632.7381,62.4994 632.535,62.3275 Q632.3475,62.14 632.3475,61.8431 Q632.3475,61.5462 632.535,61.3744 Q632.7381,61.1869 633.2069,61.1869 L636.0194,61.2025 L638.6131,67.5931 Q639.0663,67.5931 639.2225,67.6869 Q639.5038,67.9056 639.5038,68.2494 Q639.5038,68.5306 639.3006,68.7181 Q639.1131,68.89 638.6444,68.89 L636.8944,68.89 Q636.4256,68.89 636.2225,68.7181 Q636.0194,68.5306 636.0194,68.2337 Q636.0194,67.9525 636.2225,67.7806 Q636.4256,67.5931 636.8944,67.5931 L637.2069,67.5931 L636.8944,66.7962 Z M636.3631,65.4994 L635.3163,62.9212 L634.2538,65.4994 L636.3631,65.4994 Z " fill="#000000"/><text fill="#14324A" font-family="Segoe UI" font-size="13" font-style="italic" lengthAdjust="spacing" textLength="38.1812" x="647.91" y="71.0228">Record</text><line style="stroke:#2C6E8C;stroke-width:0.5;" x1="621.91" x2="688.0912" y1="80.64" y2="80.64"/><line style="stroke:#2C6E8C;stroke-width:0.5;" x1="621.91" x2="688.0912" y1="88.64" y2="88.64"/></g><!--class RuntimeException--><g id="elem_RuntimeException"><rect codeLine="52" fill="#F4F8FB" height="63.291" id="RuntimeException" rx="4" ry="4" style="stroke:#2C6E8C;stroke-width:0.5;" width="161.1826" x="724.41" y="42"/><ellipse cx="747.083" cy="57" fill="#ADD1B2" rx="10" ry="10" style="stroke:#181818;stroke-width:1.0;"/><path d="M748.0205,53.6406 Q748.1455,53.4688 748.2862,53.3906 Q748.4268,53.3125 748.5987,53.3125 Q748.8799,53.3125 749.0518,53.5156 Q749.2393,53.7031 749.2393,54.1719 L749.2393,55.2813 Q749.2393,55.75 749.0518,55.9531 Q748.8799,56.1406 748.5987,56.1406 Q748.333,56.1406 748.1768,56 Q748.0205,55.8594 747.9424,55.4531 Q747.8955,55.1875 747.7705,55.0469 Q747.5049,54.75 747.0362,54.5781 Q746.5674,54.4063 746.0987,54.4063 Q745.5205,54.4063 745.0205,54.6719 Q744.5362,54.9219 744.1612,55.5 Q743.7862,56.0625 743.7862,56.8438 L743.7862,57.6875 Q743.7862,58.625 744.4737,59.2656 Q745.1612,59.8906 746.3643,59.8906 Q747.0987,59.8906 747.5987,59.6875 Q747.8799,59.5781 748.208,59.2344 Q748.4112,59.0313 748.5205,58.9844 Q748.6455,58.9219 748.7862,58.9219 Q749.0518,58.9219 749.2393,59.125 Q749.4424,59.3125 749.4424,59.5781 Q749.4424,59.8438 749.1768,60.1563 Q748.7862,60.5938 748.1768,60.8438 Q747.3643,61.1875 746.3799,61.1875 Q745.2237,61.1875 744.2862,60.7188 Q743.5362,60.3281 743.0049,59.5156 Q742.4893,58.6875 742.4893,57.7188 L742.4893,56.8281 Q742.4893,55.8125 742.958,54.9375 Q743.4424,54.0625 744.2705,53.5938 Q745.1143,53.1094 746.0518,53.1094 Q746.6143,53.1094 747.0987,53.25 Q747.5987,53.375 748.0205,53.6406 Z " fill="#000000"/><text fill="#14324A" font-family="Segoe UI" font-size="13" lengthAdjust="spacing" textLength="111.9092" x="762.0104" y="62.3828">RuntimeException</text><line style="stroke:#2C6E8C;stroke-width:0.5;" x1="725.41" x2="884.5926" y1="72" y2="72"/><polygon fill="none" points="735.41,82.1455,731.41,88.1455,739.41,88.1455" style="stroke:#B8C4D0;stroke-width:1.0;"/><text fill="#000000" font-family="Segoe UI" font-size="13" lengthAdjust="spacing" text-decoration="underline" textLength="136.1826" x="743.41" y="90.0283">serialVersionUID: long</text><line style="stroke:#2C6E8C;stroke-width:0.5;" x1="725.41" x2="884.5926" y1="97.291" y2="97.291"/></g><!--reverse link Record to ErrorResponse--><g id="link_Record_ErrorResponse"><path codeLine="57" d="M602.918,85.2507 C560.908,94.3507 506.07,108.91 449,137.29 C424.06,149.69 398.92,164.84 374.98,180.83 " fill="none" id="Record-backto-ErrorResponse" style="stroke:#2C6E8C;stroke-width:1.0;"/><polygon fill="none" points="620.51,81.44,601.6478,79.3867,604.1882,91.1147,620.51,81.44" style="stroke:#2C6E8C;stroke-width:1.0;"/></g><!--reverse link RuntimeException to ResourceNotFoundException--><g id="link_RuntimeException_ResourceNotFoundException"><path codeLine="58" d="M903.9538,80.7583 C964.0738,86.9983 1028.25,100.35 1091,137.29 C1145.78,169.53 1190.58,230.29 1214.39,267.27 " fill="none" id="RuntimeException-backto-ResourceNotFoundException" style="stroke:#2C6E8C;stroke-width:1.0;"/><polygon fill="none" points="886.05,78.9,903.3344,86.7262,904.5732,74.7903,886.05,78.9" style="stroke:#2C6E8C;stroke-width:1.0;"/></g><text fill="#888888" font-family="Segoe UI" font-size="10" lengthAdjust="spacing" textLength="2.7588" x="681.6206" y="450.281">&#160;</text><a href="https://github.com/talsma-ict/umldoclet" target="_top" title="https://github.com/talsma-ict/umldoclet" xlink:actuate="onRequest" xlink:href="https://github.com/talsma-ict/umldoclet" xlink:show="new" xlink:title="https://github.com/talsma-ict/umldoclet" xlink:type="simple"><text fill="#888888" font-family="Segoe UI" font-size="10" lengthAdjust="spacing" textLength="77.7783" x="644.1108" y="463.5818">UMLDoclet 2.2.1</text></a><!--SRC=[pLPTSzeu57tlhxWx-x1a2BRv224UfZE4G9eTsiaqq1UM1s4BeqMMN4bEbhRPtxvNjaDj1tQtRpKF7doFpZttGz850FWDnZBPAnPj3HW9PiiqBDxFW8WG8Yge8eQ6m68IKGrhogM8T0waG5ApbGha9liNIAMeJgG8cOZWT_98GCjK1LGxRzv0vch-mlv4T8bzlRSVRsJ0gO76-AmagUEr-wsEr-d3d70T4xWRpvs2xVkQZjDnse3Sd0LKQAHCHKXL9ckKa01Vizno3ezKQIO5hl4A7Xjg88KXJ6X8Y3BQXdJFYJ1MQzj1_ptd4XgZXrbLctULQJk7aH8a3U6Z_9mUmjKx9f2DnA2t99HFDYiR38BMh4gYsB5Kc0qOr6mXtP2Kcocg-q1Y2WyqaXGMTwTX3-mBXNQt1WWuqVgQ1BkeyCQnRhzEUzF1zFeeL2hCNm7hZFkJmVWORAIKVFfFb9LLWDgzRgStge6OC5HjI41V2PoCflsfTn9U4JcvclJhxh7qEspSru5Vu-_c1BZCUZqOzswyuy1IMDrkx_8YJ-GlYI8HzYadUvaQ2AN9LsENQchN6rpW-tcB54pOVR4JIq42IH-fCDh9NcifqMVaqBy2cXZRir_pPVR9CWiJB83wcEqwJM6vt31EVNVikmkDRUwYEAPTt2HfR6dTUoKZZ216LlUMcMswTZDFhS9LYoJCDKH5rBYA9XAtWekVGXbe5pMwPOrkMQDxqEXM93bR4_FL2eL3wMaP5bDjI9puC9C1uJTu3CpnMnM529DgtnQyQg3MXGyFHg7hgWbvDMRqk36akCSvCiwODiCSyRO2QLRKDohYpgsGyuBu-xlCTLObEuJPEFktG9jve1PK3xMPXMejH-9f5i6UCXVXPiwF1VnSxwPRBjU4JrvA-GuFHew7qa_HLiUr7U-lvZQpOXcp- -U3n9CHDt-Z_k70XXbwgVb466RsmqeVl3t6_ebm5XAxEiFgndkAjs4uKb6M5VIH8NxSnwkod9JzSrJcfBmJnJc9R-GDUbRFn7FriFmJ9mi7B-UeH4pMsYWIc4F6S1W9wsbCXTsGaz9fMjRrrUv25Zp3tvX9HlYdV4vOtDtuOAUUaggIg8COty-Tml1Rg_L_3tJVh_J0AyQwuX_ZFfdeNFfGcpqlzTr6IhnOQrbvjq-ecZ6nAswwmN7hmevRd0cA4rwm4tWkWLTBsD0j-Ijy_I6MowqnYVPTDyhQqx5TPx9HhyK2uwOn3_CPhpRjhLR5z7Px62FjADRoBbjUVzxk-RqB7wUsVlkYsxcyyhocr_4zRpb9bKoeUqzmdwp-0G00]--></g></svg>