<svg xmlns="http://www.w3.org/2000/svg" xmlns:xlink="http://www.w3.org/1999/xlink" contentStyleType="text/css" height="427px" preserveAspectRatio="none" style="width:1361px;height:427px;background:#FFFFFF;" version="1.1" viewBox="0 0 1361 427" width="1361px" zoomAndPan="magnify"><defs/><g><!--cluster com.monacoevents.eventbooking.exception--><g id="cluster_com.monacoevents.eventbooking.exception"><path d="M16.5,114 L312.3477,114 A3.75,3.75 0 0 1 314.8477,116.5 L321.8477,137.6094 L1351.5,137.6094 A2.5,2.5 0 0 1 1354,140.1094 L1354,389.5 A2.5,2.5 0 0 1 1351.5,392 L16.5,392 A2.5,2.5 0 0 1 14,389.5 L14,116.5 A2.5,2.5 0 0 1 16.5,114 " fill="none" style="stroke:#000000;stroke-width:1.5;"/><line style="stroke:#000000;stroke-width:1.5;" x1="14" x2="321.8477" y1="137.6094" y2="137.6094"/><text fill="#000000" font-family="sans-serif" font-size="14" font-weight="bold" lengthAdjust="spacing" textLength="294.8477" x="18" y="130.5332">com.monacoevents.eventbooking.exception</text></g><!--cluster java.lang--><g id="cluster_java.lang"><path d="M485.5,4 L546.417,4 A3.75,3.75 0 0 1 548.917,6.5 L555.917,27.6094 L757.5,27.6094 A2.5,2.5 0 0 1 760,30.1094 L760,103.5 A2.5,2.5 0 0 1 757.5,106 L485.5,106 A2.5,2.5 0 0 1 483,103.5 L483,6.5 A2.5,2.5 0 0 1 485.5,4 " fill="none" style="stroke:#000000;stroke-width:1.5;"/><line style="stroke:#000000;stroke-width:1.5;" x1="483" x2="555.917" y1="27.6094" y2="27.6094"/><text fill="#000000" font-family="sans-serif" font-size="14" font-weight="bold" lengthAdjust="spacing" textLength="59.917" x="487" y="20.5332">java.lang</text></g><!--class ErrorResponse--><a href="file:/C:/Users/loris/Documents/Programming/Github/event-booking-api/target/reports/apidocs/com/monacoevents/eventbooking/exception/ErrorResponse.html" target="_top" title="file:/C:/Users/loris/Documents/Programming/Github/event-booking-api/target/reports/apidocs/com/monacoevents/eventbooking/exception/ErrorResponse.html" xlink:actuate="onRequest" xlink:href="file:/C:/Users/loris/Documents/Programming/Github/event-booking-api/target/reports/apidocs/com/monacoevents/eventbooking/exception/ErrorResponse.html" xlink:show="new" xlink:title="file:/C:/Users/loris/Documents/Programming/Github/event-booking-api/target/reports/apidocs/com/monacoevents/eventbooking/exception/ErrorResponse.html" xlink:type="simple"><g id="elem_ErrorResponse"><rect codeLine="12" fill="#F1F1F1" height="241.7031" id="ErrorResponse" rx="2.5" ry="2.5" style="stroke:#181818;stroke-width:0.5;" width="417.3848" x="928.5" y="142"/><ellipse cx="1085.8667" cy="158" fill="#ADD1B2" rx="11" ry="11" style="stroke:#181818;stroke-width:1.0;"/><path d="M1088.6323,153.875 Q1088.7886,153.6563 1088.9761,153.5469 Q1089.1636,153.4375 1089.3823,153.4375 Q1089.7573,153.4375 1089.9917,153.7031 Q1090.2261,153.9531 1090.2261,154.5625 L1090.2261,156.0156 Q1090.2261,156.625 1089.9917,156.8906 Q1089.7573,157.1563 1089.3823,157.1563 Q1089.0386,157.1563 1088.8354,156.9531 Q1088.6323,156.7656 1088.5229,156.25 Q1088.4761,155.8906 1088.2886,155.7031 Q1087.9604,155.3281 1087.3511,155.1094 Q1086.7417,154.8906 1086.1167,154.8906 Q1085.3511,154.8906 1084.7104,155.2188 Q1084.0854,155.5469 1083.5854,156.2969 Q1083.1011,157.0469 1083.1011,158.0781 L1083.1011,159.1719 Q1083.1011,160.4063 1083.9917,161.2344 Q1084.8823,162.0469 1086.4761,162.0469 Q1087.4136,162.0469 1088.0698,161.7969 Q1088.4604,161.6406 1088.8823,161.2031 Q1089.1479,160.9375 1089.2886,160.8594 Q1089.4448,160.7813 1089.6479,160.7813 Q1089.9761,160.7813 1090.2261,161.0469 Q1090.4917,161.2969 1090.4917,161.6406 Q1090.4917,161.9844 1090.1479,162.3906 Q1089.6479,162.9688 1088.8511,163.2969 Q1087.7729,163.75 1086.4761,163.75 Q1084.9604,163.75 1083.7573,163.125 Q1082.7729,162.625 1082.0854,161.5625 Q1081.3979,160.4844 1081.3979,159.2031 L1081.3979,158.0469 Q1081.3979,156.7188 1082.0073,155.5781 Q1082.6323,154.4219 1083.7261,153.8125 Q1084.8198,153.1875 1086.0542,153.1875 Q1086.7886,153.1875 1087.4292,153.3594 Q1088.0854,153.5156 1088.6323,153.875 Z " fill="#000000"/><text fill="#000000" font-family="sans-serif" font-size="14" lengthAdjust="spacing" textLength="94.1514" x="1106.3667" y="163.7285">ErrorResponse</text><line style="stroke:#181818;stroke-width:0.5;" x1="929.5" x2="1344.8848" y1="174" y2="174"/><rect fill="none" height="6" style="stroke:#C82930;stroke-width:1.0;" width="6" x="936.5" y="185.3047"/><text fill="#000000" font-family="sans-serif" font-size="14" lengthAdjust="spacing" textLength="166.5029" x="948.5" y="192.5332">timestamp: LocalDateTime</text><rect fill="none" height="6" style="stroke:#C82930;stroke-width:1.0;" width="6" x="936.5" y="202.9141"/><text fill="#000000" font-family="sans-serif" font-size="14" lengthAdjust="spacing" textLength="59.917" x="948.5" y="210.1426">status: int</text><rect fill="none" height="6" style="stroke:#C82930;stroke-width:1.0;" width="6" x="936.5" y="220.5234"/><text fill="#000000" font-family="sans-serif" font-size="14" lengthAdjust="spacing" textLength="73.9102" x="948.5" y="227.752">error: String</text><rect fill="none" height="6" style="stroke:#C82930;stroke-width:1.0;" width="6" x="936.5" y="238.1328"/><text fill="#000000" font-family="sans-serif" font-size="14" lengthAdjust="spacing" textLength="101.1582" x="948.5" y="245.3613">message: String</text><rect fill="none" height="6" style="stroke:#C82930;stroke-width:1.0;" width="6" x="936.5" y="255.7422"/><text fill="#000000" font-family="sans-serif" font-size="14" lengthAdjust="spacing" textLength="122.958" x="948.5" y="262.9707">details: List&lt;String&gt;</text><line style="stroke:#181818;stroke-width:0.5;" x1="929.5" x2="1344.8848" y1="270.0469" y2="270.0469"/><ellipse cx="939.5" cy="284.3516" fill="#84BE84" rx="3" ry="3" style="stroke:#038048;stroke-width:1.0;"/><text fill="#000000" font-family="sans-serif" font-size="14" lengthAdjust="spacing" textLength="391.3848" x="948.5" y="288.5801">ErrorResponse(LocalDateTime, int, String, String, List&lt;String&gt;)</text><ellipse cx="939.5" cy="301.9609" fill="#84BE84" rx="3" ry="3" style="stroke:#038048;stroke-width:1.0;"/><text fill="#000000" font-family="sans-serif" font-size="14" lengthAdjust="spacing" textLength="175.8271" x="948.5" y="306.1895">timestamp(): LocalDateTime</text><ellipse cx="939.5" cy="319.5703" fill="#84BE84" rx="3" ry="3" style="stroke:#038048;stroke-width:1.0;"/><text fill="#000000" font-family="sans-serif" font-size="14" lengthAdjust="spacing" textLength="69.2412" x="948.5" y="323.7988">status(): int</text><ellipse cx="939.5" cy="337.1797" fill="#84BE84" rx="3" ry="3" style="stroke:#038048;stroke-width:1.0;"/><text fill="#000000" font-family="sans-serif" font-size="14" lengthAdjust="spacing" textLength="83.2344" x="948.5" y="341.4082">error(): String</text><ellipse cx="939.5" cy="354.7891" fill="#84BE84" rx="3" ry="3" style="stroke:#038048;stroke-width:1.0;"/><text fill="#000000" font-family="sans-serif" font-size="14" lengthAdjust="spacing" textLength="110.4824" x="948.5" y="359.0176">message(): String</text><ellipse cx="939.5" cy="372.3984" fill="#84BE84" rx="3" ry="3" style="stroke:#038048;stroke-width:1.0;"/><text fill="#000000" font-family="sans-serif" font-size="14" lengthAdjust="spacing" textLength="132.2822" x="948.5" y="376.627">details(): List&lt;String&gt;</text></g></a><!--class GlobalExceptionHandler--><a href="file:/C:/Users/loris/Documents/Programming/Github/event-booking-api/target/reports/apidocs/com/monacoevents/eventbooking/exception/GlobalExceptionHandler.html" target="_top" title="file:/C:/Users/loris/Documents/Programming/Github/event-booking-api/target/reports/apidocs/com/monacoevents/eventbooking/exception/GlobalExceptionHandler.html" xlink:actuate="onRequest" xlink:href="file:/C:/Users/loris/Documents/Programming/Github/event-booking-api/target/reports/apidocs/com/monacoevents/eventbooking/exception/GlobalExceptionHandler.html" xlink:show="new" xlink:title="file:/C:/Users/loris/Documents/Programming/Github/event-booking-api/target/reports/apidocs/com/monacoevents/eventbooking/exception/GlobalExceptionHandler.html" xlink:type="simple"><g id="elem_GlobalExceptionHandler"><rect codeLine="26" fill="#F1F1F1" height="83.2188" id="GlobalExceptionHandler" rx="2.5" ry="2.5" style="stroke:#181818;stroke-width:0.5;" width="615.0938" x="295.5" y="221.5"/><ellipse cx="523.3076" cy="237.5" fill="#ADD1B2" rx="11" ry="11" style="stroke:#181818;stroke-width:1.0;"/><path d="M526.0732,233.375 Q526.2295,233.1563 526.417,233.0469 Q526.6045,232.9375 526.8232,232.9375 Q527.1982,232.9375 527.4326,233.2031 Q527.667,233.4531 527.667,234.0625 L527.667,235.5156 Q527.667,236.125 527.4326,236.3906 Q527.1982,236.6563 526.8232,236.6563 Q526.4795,236.6563 526.2764,236.4531 Q526.0732,236.2656 525.9639,235.75 Q525.917,235.3906 525.7295,235.2031 Q525.4014,234.8281 524.792,234.6094 Q524.1826,234.3906 523.5576,234.3906 Q522.792,234.3906 522.1514,234.7188 Q521.5264,235.0469 521.0264,235.7969 Q520.542,236.5469 520.542,237.5781 L520.542,238.6719 Q520.542,239.9063 521.4326,240.7344 Q522.3232,241.5469 523.917,241.5469 Q524.8545,241.5469 525.5107,241.2969 Q525.9014,241.1406 526.3232,240.7031 Q526.5889,240.4375 526.7295,240.3594 Q526.8857,240.2813 527.0889,240.2813 Q527.417,240.2813 527.667,240.5469 Q527.9326,240.7969 527.9326,241.1406 Q527.9326,241.4844 527.5889,241.8906 Q527.0889,242.4688 526.292,242.7969 Q525.2139,243.25 523.917,243.25 Q522.4014,243.25 521.1982,242.625 Q520.2139,242.125 519.5264,241.0625 Q518.8389,239.9844 518.8389,238.7031 L518.8389,237.5469 Q518.8389,236.2188 519.4482,235.0781 Q520.0732,233.9219 521.167,233.3125 Q522.2607,232.6875 523.4951,232.6875 Q524.2295,232.6875 524.8701,232.8594 Q525.5264,233.0156 526.0732,233.375 Z " fill="#000000"/><text fill="#000000" font-family="sans-serif" font-size="14" lengthAdjust="spacing" textLength="150.9785" x="543.8076" y="243.2285">GlobalExceptionHandler</text><line style="stroke:#181818;stroke-width:0.5;" x1="296.5" x2="909.5938" y1="253.5" y2="253.5"/><line style="stroke:#181818;stroke-width:0.5;" x1="296.5" x2="909.5938" y1="261.5" y2="261.5"/><ellipse cx="306.5" cy="275.8047" fill="#84BE84" rx="3" ry="3" style="stroke:#038048;stroke-width:1.0;"/><text fill="#000000" font-family="sans-serif" font-size="14" lengthAdjust="spacing" textLength="571.9834" x="315.5" y="280.0332">handleResourceNotFound(ResourceNotFoundException): ResponseEntity&lt;ErrorResponse&gt;</text><ellipse cx="306.5" cy="293.4141" fill="#84BE84" rx="3" ry="3" style="stroke:#038048;stroke-width:1.0;"/><text fill="#000000" font-family="sans-serif" font-size="14" lengthAdjust="spacing" textLength="589.0938" x="315.5" y="297.6426">handleValidationErrors(MethodArgumentNotValidException): ResponseEntity&lt;ErrorResponse&gt;</text></g></a><!--class ResourceNotFoundException--><a href="file:/C:/Users/loris/Documents/Programming/Github/event-booking-api/target/reports/apidocs/com/monacoevents/eventbooking/exception/ResourceNotFoundException.html" target="_top" title="file:/C:/Users/loris/Documents/Programming/Github/event-booking-api/target/reports/apidocs/com/monacoevents/eventbooking/exception/ResourceNotFoundException.html" xlink:actuate="onRequest" xlink:href="file:/C:/Users/loris/Documents/Programming/Github/event-booking-api/target/reports/apidocs/com/monacoevents/eventbooking/exception/ResourceNotFoundException.html" xlink:show="new" xlink:title="file:/C:/Users/loris/Documents/Programming/Github/event-booking-api/target/reports/apidocs/com/monacoevents/eventbooking/exception/ResourceNotFoundException.html" xlink:type="simple"><g id="elem_ResourceNotFoundException"><rect codeLine="31" fill="#F1F1F1" height="65.6094" id="ResourceNotFoundException" rx="2.5" ry="2.5" style="stroke:#181818;stroke-width:0.5;" width="254.7783" x="22.5" y="230"/><ellipse cx="55.4534" cy="246" fill="#ADD1B2" rx="11" ry="11" style="stroke:#181818;stroke-width:1.0;"/><path d="M58.219,241.875 Q58.3753,241.6563 58.5628,241.5469 Q58.7503,241.4375 58.969,241.4375 Q59.344,241.4375 59.5784,241.7031 Q59.8128,241.9531 59.8128,242.5625 L59.8128,244.0156 Q59.8128,244.625 59.5784,244.8906 Q59.344,245.1563 58.969,245.1563 Q58.6253,245.1563 58.4222,244.9531 Q58.219,244.7656 58.1097,244.25 Q58.0628,243.8906 57.8753,243.7031 Q57.5472,243.3281 56.9378,243.1094 Q56.3284,242.8906 55.7034,242.8906 Q54.9378,242.8906 54.2972,243.2188 Q53.6722,243.5469 53.1722,244.2969 Q52.6878,245.0469 52.6878,246.0781 L52.6878,247.1719 Q52.6878,248.4063 53.5784,249.2344 Q54.469,250.0469 56.0628,250.0469 Q57.0003,250.0469 57.6565,249.7969 Q58.0472,249.6406 58.469,249.2031 Q58.7347,248.9375 58.8753,248.8594 Q59.0315,248.7813 59.2347,248.7813 Q59.5628,248.7813 59.8128,249.0469 Q60.0784,249.2969 60.0784,249.6406 Q60.0784,249.9844 59.7347,250.3906 Q59.2347,250.9688 58.4378,251.2969 Q57.3597,251.75 56.0628,251.75 Q54.5472,251.75 53.344,251.125 Q52.3597,250.625 51.6722,249.5625 Q50.9847,248.4844 50.9847,247.2031 L50.9847,246.0469 Q50.9847,244.7188 51.594,243.5781 Q52.219,242.4219 53.3128,241.8125 Q54.4065,241.1875 55.6409,241.1875 Q56.3753,241.1875 57.0159,241.3594 Q57.6722,241.5156 58.219,241.875 Z " fill="#000000"/><text fill="#000000" font-family="sans-serif" font-size="14" lengthAdjust="spacing" textLength="182.8818" x="73.4431" y="251.7285">ResourceNotFoundException</text><line style="stroke:#181818;stroke-width:0.5;" x1="23.5" x2="276.2783" y1="262" y2="262"/><line style="stroke:#181818;stroke-width:0.5;" x1="23.5" x2="276.2783" y1="270" y2="270"/><ellipse cx="33.5" cy="284.3047" fill="#84BE84" rx="3" ry="3" style="stroke:#038048;stroke-width:1.0;"/><text fill="#000000" font-family="sans-serif" font-size="14" lengthAdjust="spacing" textLength="228.7783" x="42.5" y="288.5332">ResourceNotFoundException(String)</text></g></a><!--class Record--><g id="elem_Record"><rect codeLine="38" fill="#F1F1F1" height="48" id="Record" rx="2.5" ry="2.5" style="stroke:#181818;stroke-width:0.5;" width="77.1309" x="674.5" y="41"/><ellipse cx="689.5" cy="57" fill="#A9DCDF" rx="11" ry="11" style="stroke:#181818;stroke-width:1.0;"/><path d="M691.6875,58.7656 L687.5469,58.7656 L687.125,59.7969 L687.5469,59.7969 Q688.1563,59.7969 688.4219,60.0313 Q688.6875,60.2656 688.6875,60.6563 Q688.6875,61.0313 688.4219,61.2656 Q688.1563,61.5 687.5469,61.5 L685.25,61.5 Q684.6406,61.5 684.3906,61.2656 Q684.125,61.0313 684.125,60.6406 Q684.125,60.2656 684.4063,60.0313 Q684.6719,59.7813 685.2969,59.7969 L687.9688,53.1406 L686.8594,53.1406 Q686.25,53.1406 685.9844,52.9063 Q685.7188,52.6719 685.7188,52.2813 Q685.7188,51.9063 685.9844,51.6719 Q686.25,51.4375 686.8594,51.4375 L690.5313,51.4375 L693.9219,59.7969 Q694.5156,59.7969 694.7031,59.9375 Q695.0938,60.2031 695.0938,60.6563 Q695.0938,61.0313 694.8281,61.2656 Q694.5781,61.5 693.9688,61.5 L691.6719,61.5 Q691.0625,61.5 690.7969,61.2656 Q690.5313,61.0313 690.5313,60.6406 Q690.5313,60.2656 690.7969,60.0313 Q691.0625,59.7969 691.6719,59.7969 L692.0938,59.7969 L691.6875,58.7656 Z M690.9688,57.0625 L689.6094,53.6875 L688.2344,57.0625 L690.9688,57.0625 Z " fill="#000000"/><text fill="#000000" font-family="sans-serif" font-size="14" font-style="italic" lengthAdjust="spacing" textLength="45.1309" x="703.5" y="62.7285">Record</text><line style="stroke:#181818;stroke-width:0.5;" x1="675.5" x2="750.6309" y1="73" y2="73"/><line style="stroke:#181818;stroke-width:0.5;" x1="675.5" x2="750.6309" y1="81" y2="81"/></g><!--class RuntimeException--><g id="elem_RuntimeException"><rect codeLine="39" fill="#F1F1F1" height="65.6094" id="RuntimeException" rx="2.5" ry="2.5" style="stroke:#181818;stroke-width:0.5;" width="165.2822" x="491.5" y="32"/><ellipse cx="515.351" cy="48" fill="#ADD1B2" rx="11" ry="11" style="stroke:#181818;stroke-width:1.0;"/><path d="M518.1167,43.875 Q518.2729,43.6563 518.4604,43.5469 Q518.6479,43.4375 518.8667,43.4375 Q519.2417,43.4375 519.476,43.7031 Q519.7104,43.9531 519.7104,44.5625 L519.7104,46.0156 Q519.7104,46.625 519.476,46.8906 Q519.2417,47.1563 518.8667,47.1563 Q518.5229,47.1563 518.3198,46.9531 Q518.1167,46.7656 518.0073,46.25 Q517.9604,45.8906 517.7729,45.7031 Q517.4448,45.3281 516.8354,45.1094 Q516.226,44.8906 515.601,44.8906 Q514.8354,44.8906 514.1948,45.2188 Q513.5698,45.5469 513.0698,46.2969 Q512.5854,47.0469 512.5854,48.0781 L512.5854,49.1719 Q512.5854,50.4063 513.476,51.2344 Q514.3667,52.0469 515.9604,52.0469 Q516.8979,52.0469 517.5542,51.7969 Q517.9448,51.6406 518.3667,51.2031 Q518.6323,50.9375 518.7729,50.8594 Q518.9292,50.7813 519.1323,50.7813 Q519.4604,50.7813 519.7104,51.0469 Q519.976,51.2969 519.976,51.6406 Q519.976,51.9844 519.6323,52.3906 Q519.1323,52.9688 518.3354,53.2969 Q517.2573,53.75 515.9604,53.75 Q514.4448,53.75 513.2417,53.125 Q512.2573,52.625 511.5698,51.5625 Q510.8823,50.4844 510.8823,49.2031 L510.8823,48.0469 Q510.8823,46.7188 511.4917,45.5781 Q512.1167,44.4219 513.2104,43.8125 Q514.3042,43.1875 515.5385,43.1875 Q516.2729,43.1875 516.9135,43.3594 Q517.5698,43.5156 518.1167,43.875 Z " fill="#000000"/><text fill="#000000" font-family="sans-serif" font-size="14" lengthAdjust="spacing" textLength="113.6133" x="531.3179" y="53.7285">RuntimeException</text><line style="stroke:#181818;stroke-width:0.5;" x1="492.5" x2="655.7822" y1="64" y2="64"/><polygon fill="none" points="502.5,74.3047,498.5,80.3047,506.5,80.3047" style="stroke:#1963A0;stroke-width:1.0;"/><text fill="#000000" font-family="sans-serif" font-size="14" lengthAdjust="spacing" text-decoration="underline" textLength="139.2822" x="511.5" y="82.5332">serialVersionUID: long</text><line style="stroke:#181818;stroke-width:0.5;" x1="492.5" x2="655.7822" y1="89.6094" y2="89.6094"/></g><polygon fill="none" points="751.7407,70.6181,768.7163,79.0932,770.4063,67.2128,751.7407,70.6181" style="stroke:#181818;stroke-width:1.0;"/><path d="M769.5613,73.153 C812.1958,79.2177 864.2528,89.5575 920,114 C938.1672,121.9654 956.4259,131.4971 974.2205,141.8328 " fill="none" style="stroke:#181818;stroke-width:1.0;"/><polygon fill="none" points="491.3203,73.8366,472.773,69.8368,474.0826,81.7651,491.3203,73.8366" style="stroke:#181818;stroke-width:1.0;"/><path d="M473.4278,75.801 C401.5069,83.6969 321.4552,95.407 287,114 C236.0045,141.5186 193.6865,195.3119 170.1395,229.9064 " fill="none" style="stroke:#181818;stroke-width:1.0;"/><text fill="#888888" font-family="sans-serif" font-size="10" lengthAdjust="spacing" textLength="2.7783" x="671.1108" y="404.3809">&#160;</text><a href="https://github.com/talsma-ict/umldoclet" target="_top" title="https://github.com/talsma-ict/umldoclet" xlink:actuate="onRequest" xlink:href="https://github.com/talsma-ict/umldoclet" xlink:show="new" xlink:title="https://github.com/talsma-ict/umldoclet" xlink:type="simple"><text fill="#888888" font-family="sans-serif" font-size="10" lengthAdjust="spacing" textLength="74.4775" x="635.2612" y="416.959">UMLDoclet 2.2.1</text></a><!--SRC=[pLPHZzCu47xdLmpYuRhg9axBqOMeGbfrUmkee1LqUUdrmKsygMyTEzYJvIfOVZjZfrkIqfwED_8IDJF-vfjlnZC50FW39gRQM5ci4T00hgM3wxSpu3g7GcXXEOeSPCaBuM0bbD65Qnm5y1hNneAv2RyoOwrmbT6vr0MyuNSSdAbj9bpyw164KFC7zC_SjT1N6__nmcHA8FGc9orAmsGmYeR9S0Hphbp9uVLa7c_HVfmPniDu08IjP2Qq8yXQvy86MkSLp-WrQoodS2UiaqRJcMIBurFDZ4OkjOEAMtG-fIl5DNgkWvZY_ncVGU_ymwpBBNaHk9t2kTMypk6z-LJlqdrSMLuGOyKtfaPmfK2kUJ0vukm4XU98-gLfSu28tfBCnAMCIwDvPiITqEZYy5ePSql2nkBVJ5JeC_ZI7FDFfhXpCBNMsFUX1ax0Od4ZbKZP96NNZf9cobZf64bMbnwMNLbJM5wMXCek9Qxh5GkHecseY5UI8RU5G6P5PKWOHfzoapb675cR8sjpP3kEh4CfNcEfbaiY3gqdGbaAXxoiKfYPZAiBQeevVUjwaGVMBWMfiMiGFaGA7z1IwAw9S1qfUjYOKpsa8iIPT3XkF5vsNFeTzhqEkLDFv7GB_EFTnZhfWktIx9tyLwBz9b7lj9zgFwJgBGVowM-JFMRUfXk27qhuVh-RBfLPSJLzAEKhkYQAxjHlqLQ7kHtkh_uwMAcCOHgzC_YNeV7Gs_-mGoE57ce-rIXnC-xqmSj3w1-vaZdtfuElwxqLD1lpSri4LIX6yFZr63-LvIZjtwCoH-aTASvH_rxJe2VxIjntX-K_j6TY6jL52vYl75gUuKunMatvleorzXTosfgcRLvV_2sKsJry8oKbLn-RhN7z-Y85lmDRh5gaTcJIj0aAuwzHz7y7UffsUk0dn7t6luPzLEY6-jZXHhNwxiOOfDlULUNLfX9s9lNjn51lmPFdXwtNVlaggGNj- -nMqro2P4-mCMl5syRwMoyMQyJAfOmLeJrZttKO5dyaCsHrgV9cu-_j_kLokyilTtyg_6AEahCe6Sq7JzDdWpGvYvy-7xqOZaP9qa-6QP8ifhKrbM1NdEx9yZi0]--></g></svg>