<svg xmlns="http://www.w3.org/2000/svg" xmlns:xlink="http://www.w3.org/1999/xlink" contentStyleType="text/css" height="321px" preserveAspectRatio="none" style="width:1361px;height:321px;background:#FFFFFF;" version="1.1" viewBox="0 0 1361 321" width="1361px" zoomAndPan="magnify"><defs/><g><!--cluster com.monacoevents.eventbooking.exception--><g id="cluster_com.monacoevents.eventbooking.exception"><path d="M16.5,96 L312.3477,96 A3.75,3.75 0 0 1 314.8477,98.5 L321.8477,119.6094 L1351.5,119.6094 A2.5,2.5 0 0 1 1354,122.1094 L1354,283.5 A2.5,2.5 0 0 1 1351.5,286 L16.5,286 A2.5,2.5 0 0 1 14,283.5 L14,98.5 A2.5,2.5 0 0 1 16.5,96 " fill="none" style="stroke:#000000;stroke-width:1.5;"/><line style="stroke:#000000;stroke-width:1.5;" x1="14" x2="321.8477" y1="119.6094" y2="119.6094"/><text fill="#000000" font-family="sans-serif" font-size="14" font-weight="bold" lengthAdjust="spacing" textLength="294.8477" x="18" y="112.5332">com.monacoevents.eventbooking.exception</text></g><!--cluster java.lang--><g id="cluster_java.lang"><path d="M499.5,4 L560.417,4 A3.75,3.75 0 0 1 562.917,6.5 L569.917,27.6094 L752.5,27.6094 A2.5,2.5 0 0 1 755,30.1094 L755,85.5 A2.5,2.5 0 0 1 752.5,88 L499.5,88 A2.5,2.5 0 0 1 497,85.5 L497,6.5 A2.5,2.5 0 0 1 499.5,4 " fill="none" style="stroke:#000000;stroke-width:1.5;"/><line style="stroke:#000000;stroke-width:1.5;" x1="497" x2="569.917" y1="27.6094" y2="27.6094"/><text fill="#000000" font-family="sans-serif" font-size="14" font-weight="bold" lengthAdjust="spacing" textLength="59.917" x="501" y="20.5332">java.lang</text></g><!--class ErrorResponse--><a href="file:/C:/Users/loris/Documents/Programming/Github/event-booking-api/target/reports/apidocs/com/monacoevents/eventbooking/exception/ErrorResponse.html" target="_top" title="file:/C:/Users/loris/Documents/Programming/Github/event-booking-api/target/reports/apidocs/com/monacoevents/eventbooking/exception/ErrorResponse.html" xlink:actuate="onRequest" xlink:href="file:/C:/Users/loris/Documents/Programming/Github/event-booking-api/target/reports/apidocs/com/monacoevents/eventbooking/exception/ErrorResponse.html" xlink:show="new" xlink:title="file:/C:/Users/loris/Documents/Programming/Github/event-booking-api/target/reports/apidocs/com/monacoevents/eventbooking/exception/ErrorResponse.html" xlink:type="simple"><g id="elem_ErrorResponse"><rect codeLine="12" fill="#F1F1F1" height="153.6563" id="ErrorResponse" rx="2.5" ry="2.5" style="stroke:#181818;stroke-width:0.5;" width="417.3848" x="928.5" y="124"/><ellipse cx="1085.8667" cy="140" fill="#ADD1B2" rx="11" ry="11" style="stroke:#181818;stroke-width:1.0;"/><path d="M1088.6323,135.875 Q1088.7886,135.6563 1088.9761,135.5469 Q1089.1636,135.4375 1089.3823,135.4375 Q1089.7573,135.4375 1089.9917,135.7031 Q1090.2261,135.9531 1090.2261,136.5625 L1090.2261,138.0156 Q1090.2261,138.625 1089.9917,138.8906 Q1089.7573,139.1563 1089.3823,139.1563 Q1089.0386,139.1563 1088.8354,138.9531 Q1088.6323,138.7656 1088.5229,138.25 Q1088.4761,137.8906 1088.2886,137.7031 Q1087.9604,137.3281 1087.3511,137.1094 Q1086.7417,136.8906 1086.1167,136.8906 Q1085.3511,136.8906 1084.7104,137.2188 Q1084.0854,137.5469 1083.5854,138.2969 Q1083.1011,139.0469 1083.1011,140.0781 L1083.1011,141.1719 Q1083.1011,142.4063 1083.9917,143.2344 Q1084.8823,144.0469 1086.4761,144.0469 Q1087.4136,144.0469 1088.0698,143.7969 Q1088.4604,143.6406 1088.8823,143.2031 Q1089.1479,142.9375 1089.2886,142.8594 Q1089.4448,142.7813 1089.6479,142.7813 Q1089.9761,142.7813 1090.2261,143.0469 Q1090.4917,143.2969 1090.4917,143.6406 Q1090.4917,143.9844 1090.1479,144.3906 Q1089.6479,144.9688 1088.8511,145.2969 Q1087.7729,145.75 1086.4761,145.75 Q1084.9604,145.75 1083.7573,145.125 Q1082.7729,144.625 1082.0854,143.5625 Q1081.3979,142.4844 1081.3979,141.2031 L1081.3979,140.0469 Q1081.3979,138.7188 1082.0073,137.5781 Q1082.6323,136.4219 1083.7261,135.8125 Q1084.8198,135.1875 1086.0542,135.1875 Q1086.7886,135.1875 1087.4292,135.3594 Q1088.0854,135.5156 1088.6323,135.875 Z " fill="#000000"/><text fill="#000000" font-family="sans-serif" font-size="14" lengthAdjust="spacing" textLength="94.1514" x="1106.3667" y="145.7285">ErrorResponse</text><line style="stroke:#181818;stroke-width:0.5;" x1="929.5" x2="1344.8848" y1="156" y2="156"/><line style="stroke:#181818;stroke-width:0.5;" x1="929.5" x2="1344.8848" y1="164" y2="164"/><ellipse cx="939.5" cy="178.3047" fill="#84BE84" rx="3" ry="3" style="stroke:#038048;stroke-width:1.0;"/><text fill="#000000" font-family="sans-serif" font-size="14" lengthAdjust="spacing" textLength="391.3848" x="948.5" y="182.5332">ErrorResponse(LocalDateTime, int, String, String, List&lt;String&gt;)</text><ellipse cx="939.5" cy="195.9141" fill="#84BE84" rx="3" ry="3" style="stroke:#038048;stroke-width:1.0;"/><text fill="#000000" font-family="sans-serif" font-size="14" lengthAdjust="spacing" textLength="175.8271" x="948.5" y="200.1426">timestamp(): LocalDateTime</text><ellipse cx="939.5" cy="213.5234" fill="#84BE84" rx="3" ry="3" style="stroke:#038048;stroke-width:1.0;"/><text fill="#000000" font-family="sans-serif" font-size="14" lengthAdjust="spacing" textLength="69.2412" x="948.5" y="217.752">status(): int</text><ellipse cx="939.5" cy="231.1328" fill="#84BE84" rx="3" ry="3" style="stroke:#038048;stroke-width:1.0;"/><text fill="#000000" font-family="sans-serif" font-size="14" lengthAdjust="spacing" textLength="83.2344" x="948.5" y="235.3613">error(): String</text><ellipse cx="939.5" cy="248.7422" fill="#84BE84" rx="3" ry="3" style="stroke:#038048;stroke-width:1.0;"/><text fill="#000000" font-family="sans-serif" font-size="14" lengthAdjust="spacing" textLength="110.4824" x="948.5" y="252.9707">message(): String</text><ellipse cx="939.5" cy="266.3516" fill="#84BE84" rx="3" ry="3" style="stroke:#038048;stroke-width:1.0;"/><text fill="#000000" font-family="sans-serif" font-size="14" lengthAdjust="spacing" textLength="132.2822" x="948.5" y="270.5801">details(): List&lt;String&gt;</text></g></a><!--class GlobalExceptionHandler--><a href="file:/C:/Users/loris/Documents/Programming/Github/event-booking-api/target/reports/apidocs/com/monacoevents/eventbooking/exception/GlobalExceptionHandler.html" target="_top" title="file:/C:/Users/loris/Documents/Programming/Github/event-booking-api/target/reports/apidocs/com/monacoevents/eventbooking/exception/GlobalExceptionHandler.html" xlink:actuate="onRequest" xlink:href="file:/C:/Users/loris/Documents/Programming/Github/event-booking-api/target/reports/apidocs/com/monacoevents/eventbooking/exception/GlobalExceptionHandler.html" xlink:show="new" xlink:title="file:/C:/Users/loris/Documents/Programming/Github/event-booking-api/target/reports/apidocs/com/monacoevents/eventbooking/exception/GlobalExceptionHandler.html" xlink:type="simple"><g id="elem_GlobalExceptionHandler"><rect codeLine="21" fill="#F1F1F1" height="83.2188" id="GlobalExceptionHandler" rx="2.5" ry="2.5" style="stroke:#181818;stroke-width:0.5;" width="615.0938" x="295.5" y="159.5"/><ellipse cx="523.3076" cy="175.5" fill="#ADD1B2" rx="11" ry="11" style="stroke:#181818;stroke-width:1.0;"/><path d="M526.0732,171.375 Q526.2295,171.1563 526.417,171.0469 Q526.6045,170.9375 526.8232,170.9375 Q527.1982,170.9375 527.4326,171.2031 Q527.667,171.4531 527.667,172.0625 L527.667,173.5156 Q527.667,174.125 527.4326,174.3906 Q527.1982,174.6563 526.8232,174.6563 Q526.4795,174.6563 526.2764,174.4531 Q526.0732,174.2656 525.9639,173.75 Q525.917,173.3906 525.7295,173.2031 Q525.4014,172.8281 524.792,172.6094 Q524.1826,172.3906 523.5576,172.3906 Q522.792,172.3906 522.1514,172.7188 Q521.5264,173.0469 521.0264,173.7969 Q520.542,174.5469 520.542,175.5781 L520.542,176.6719 Q520.542,177.9063 521.4326,178.7344 Q522.3232,179.5469 523.917,179.5469 Q524.8545,179.5469 525.5107,179.2969 Q525.9014,179.1406 526.3232,178.7031 Q526.5889,178.4375 526.7295,178.3594 Q526.8857,178.2813 527.0889,178.2813 Q527.417,178.2813 527.667,178.5469 Q527.9326,178.7969 527.9326,179.1406 Q527.9326,179.4844 527.5889,179.8906 Q527.0889,180.4688 526.292,180.7969 Q525.2139,181.25 523.917,181.25 Q522.4014,181.25 521.1982,180.625 Q520.2139,180.125 519.5264,179.0625 Q518.8389,177.9844 518.8389,176.7031 L518.8389,175.5469 Q518.8389,174.2188 519.4482,173.0781 Q520.0732,171.9219 521.167,171.3125 Q522.2607,170.6875 523.4951,170.6875 Q524.2295,170.6875 524.8701,170.8594 Q525.5264,171.0156 526.0732,171.375 Z " fill="#000000"/><text fill="#000000" font-family="sans-serif" font-size="14" lengthAdjust="spacing" textLength="150.9785" x="543.8076" y="181.2285">GlobalExceptionHandler</text><line style="stroke:#181818;stroke-width:0.5;" x1="296.5" x2="909.5938" y1="191.5" y2="191.5"/><line style="stroke:#181818;stroke-width:0.5;" x1="296.5" x2="909.5938" y1="199.5" y2="199.5"/><ellipse cx="306.5" cy="213.8047" fill="#84BE84" rx="3" ry="3" style="stroke:#038048;stroke-width:1.0;"/><text fill="#000000" font-family="sans-serif" font-size="14" lengthAdjust="spacing" textLength="571.9834" x="315.5" y="218.0332">handleResourceNotFound(ResourceNotFoundException): ResponseEntity&lt;ErrorResponse&gt;</text><ellipse cx="306.5" cy="231.4141" fill="#84BE84" rx="3" ry="3" style="stroke:#038048;stroke-width:1.0;"/><text fill="#000000" font-family="sans-serif" font-size="14" lengthAdjust="spacing" textLength="589.0938" x="315.5" y="235.6426">handleValidationErrors(MethodArgumentNotValidException): ResponseEntity&lt;ErrorResponse&gt;</text></g></a><!--class ResourceNotFoundException--><a href="file:/C:/Users/loris/Documents/Programming/Github/event-booking-api/target/reports/apidocs/com/monacoevents/eventbooking/exception/ResourceNotFoundException.html" target="_top" title="file:/C:/Users/loris/Documents/Programming/Github/event-booking-api/target/reports/apidocs/com/monacoevents/eventbooking/exception/ResourceNotFoundException.html" xlink:actuate="onRequest" xlink:href="file:/C:/Users/loris/Documents/Programming/Github/event-booking-api/target/reports/apidocs/com/monacoevents/eventbooking/exception/ResourceNotFoundException.html" xlink:show="new" xlink:title="file:/C:/Users/loris/Documents/Programming/Github/event-booking-api/target/reports/apidocs/com/monacoevents/eventbooking/exception/ResourceNotFoundException.html" xlink:type="simple"><g id="elem_ResourceNotFoundException"><rect codeLine="26" fill="#F1F1F1" height="65.6094" id="ResourceNotFoundException" rx="2.5" ry="2.5" style="stroke:#181818;stroke-width:0.5;" width="254.7783" x="22.5" y="168"/><ellipse cx="55.4534" cy="184" fill="#ADD1B2" rx="11" ry="11" style="stroke:#181818;stroke-width:1.0;"/><path d="M58.219,179.875 Q58.3753,179.6563 58.5628,179.5469 Q58.7503,179.4375 58.969,179.4375 Q59.344,179.4375 59.5784,179.7031 Q59.8128,179.9531 59.8128,180.5625 L59.8128,182.0156 Q59.8128,182.625 59.5784,182.8906 Q59.344,183.1563 58.969,183.1563 Q58.6253,183.1563 58.4222,182.9531 Q58.219,182.7656 58.1097,182.25 Q58.0628,181.8906 57.8753,181.7031 Q57.5472,181.3281 56.9378,181.1094 Q56.3284,180.8906 55.7034,180.8906 Q54.9378,180.8906 54.2972,181.2188 Q53.6722,181.5469 53.1722,182.2969 Q52.6878,183.0469 52.6878,184.0781 L52.6878,185.1719 Q52.6878,186.4063 53.5784,187.2344 Q54.469,188.0469 56.0628,188.0469 Q57.0003,188.0469 57.6565,187.7969 Q58.0472,187.6406 58.469,187.2031 Q58.7347,186.9375 58.8753,186.8594 Q59.0315,186.7813 59.2347,186.7813 Q59.5628,186.7813 59.8128,187.0469 Q60.0784,187.2969 60.0784,187.6406 Q60.0784,187.9844 59.7347,188.3906 Q59.2347,188.9688 58.4378,189.2969 Q57.3597,189.75 56.0628,189.75 Q54.5472,189.75 53.344,189.125 Q52.3597,188.625 51.6722,187.5625 Q50.9847,186.4844 50.9847,185.2031 L50.9847,184.0469 Q50.9847,182.7188 51.594,181.5781 Q52.219,180.4219 53.3128,179.8125 Q54.4065,179.1875 55.6409,179.1875 Q56.3753,179.1875 57.0159,179.3594 Q57.6722,179.5156 58.219,179.875 Z " fill="#000000"/><text fill="#000000" font-family="sans-serif" font-size="14" lengthAdjust="spacing" textLength="182.8818" x="73.4431" y="189.7285">ResourceNotFoundException</text><line style="stroke:#181818;stroke-width:0.5;" x1="23.5" x2="276.2783" y1="200" y2="200"/><line style="stroke:#181818;stroke-width:0.5;" x1="23.5" x2="276.2783" y1="208" y2="208"/><ellipse cx="33.5" cy="222.3047" fill="#84BE84" rx="3" ry="3" style="stroke:#038048;stroke-width:1.0;"/><text fill="#000000" font-family="sans-serif" font-size="14" lengthAdjust="spacing" textLength="228.7783" x="42.5" y="226.5332">ResourceNotFoundException(String)</text></g></a><!--class Record--><g id="elem_Record"><rect codeLine="33" fill="#F1F1F1" height="48" id="Record" rx="2.5" ry="2.5" style="stroke:#181818;stroke-width:0.5;" width="77.1309" x="669.5" y="32"/><ellipse cx="684.5" cy="48" fill="#A9DCDF" rx="11" ry="11" style="stroke:#181818;stroke-width:1.0;"/><path d="M686.6875,49.7656 L682.5469,49.7656 L682.125,50.7969 L682.5469,50.7969 Q683.1563,50.7969 683.4219,51.0313 Q683.6875,51.2656 683.6875,51.6563 Q683.6875,52.0313 683.4219,52.2656 Q683.1563,52.5 682.5469,52.5 L680.25,52.5 Q679.6406,52.5 679.3906,52.2656 Q679.125,52.0313 679.125,51.6406 Q679.125,51.2656 679.4063,51.0313 Q679.6719,50.7813 680.2969,50.7969 L682.9688,44.1406 L681.8594,44.1406 Q681.25,44.1406 680.9844,43.9063 Q680.7188,43.6719 680.7188,43.2813 Q680.7188,42.9063 680.9844,42.6719 Q681.25,42.4375 681.8594,42.4375 L685.5313,42.4375 L688.9219,50.7969 Q689.5156,50.7969 689.7031,50.9375 Q690.0938,51.2031 690.0938,51.6563 Q690.0938,52.0313 689.8281,52.2656 Q689.5781,52.5 688.9688,52.5 L686.6719,52.5 Q686.0625,52.5 685.7969,52.2656 Q685.5313,52.0313 685.5313,51.6406 Q685.5313,51.2656 685.7969,51.0313 Q686.0625,50.7969 686.6719,50.7969 L687.0938,50.7969 L686.6875,49.7656 Z M685.9688,48.0625 L684.6094,44.6875 L683.2344,48.0625 L685.9688,48.0625 Z " fill="#000000"/><text fill="#000000" font-family="sans-serif" font-size="14" font-style="italic" lengthAdjust="spacing" textLength="45.1309" x="698.5" y="53.7285">Record</text><line style="stroke:#181818;stroke-width:0.5;" x1="670.5" x2="745.6309" y1="64" y2="64"/><line style="stroke:#181818;stroke-width:0.5;" x1="670.5" x2="745.6309" y1="72" y2="72"/></g><!--class RuntimeException--><g id="elem_RuntimeException"><rect codeLine="34" fill="#F1F1F1" height="48" id="RuntimeException" rx="2.5" ry="2.5" style="stroke:#181818;stroke-width:0.5;" width="145.6133" x="505" y="32"/><ellipse cx="520" cy="48" fill="#ADD1B2" rx="11" ry="11" style="stroke:#181818;stroke-width:1.0;"/><path d="M522.7656,43.875 Q522.9219,43.6563 523.1094,43.5469 Q523.2969,43.4375 523.5156,43.4375 Q523.8906,43.4375 524.125,43.7031 Q524.3594,43.9531 524.3594,44.5625 L524.3594,46.0156 Q524.3594,46.625 524.125,46.8906 Q523.8906,47.1563 523.5156,47.1563 Q523.1719,47.1563 522.9688,46.9531 Q522.7656,46.7656 522.6563,46.25 Q522.6094,45.8906 522.4219,45.7031 Q522.0938,45.3281 521.4844,45.1094 Q520.875,44.8906 520.25,44.8906 Q519.4844,44.8906 518.8438,45.2188 Q518.2188,45.5469 517.7188,46.2969 Q517.2344,47.0469 517.2344,48.0781 L517.2344,49.1719 Q517.2344,50.4063 518.125,51.2344 Q519.0156,52.0469 520.6094,52.0469 Q521.5469,52.0469 522.2031,51.7969 Q522.5938,51.6406 523.0156,51.2031 Q523.2813,50.9375 523.4219,50.8594 Q523.5781,50.7813 523.7813,50.7813 Q524.1094,50.7813 524.3594,51.0469 Q524.625,51.2969 524.625,51.6406 Q524.625,51.9844 524.2813,52.3906 Q523.7813,52.9688 522.9844,53.2969 Q521.9063,53.75 520.6094,53.75 Q519.0938,53.75 517.8906,53.125 Q516.9063,52.625 516.2188,51.5625 Q515.5313,50.4844 515.5313,49.2031 L515.5313,48.0469 Q515.5313,46.7188 516.1406,45.5781 Q516.7656,44.4219 517.8594,43.8125 Q518.9531,43.1875 520.1875,43.1875 Q520.9219,43.1875 521.5625,43.3594 Q522.2188,43.5156 522.7656,43.875 Z " fill="#000000"/><text fill="#000000" font-family="sans-serif" font-size="14" lengthAdjust="spacing" textLength="113.6133" x="534" y="53.7285">RuntimeException</text><line style="stroke:#181818;stroke-width:0.5;" x1="506" x2="649.6133" y1="64" y2="64"/><line style="stroke:#181818;stroke-width:0.5;" x1="506" x2="649.6133" y1="72" y2="72"/></g><polygon fill="none" points="746.6683,60.9944,763.8266,69.0934,765.2543,57.1786,746.6683,60.9944" style="stroke:#181818;stroke-width:1.0;"/><path d="M764.5404,63.136 C807.625,68.299 861.1011,76.8453 920,96 C943.7379,103.7199 968.2161,113.5015 991.7958,123.962 " fill="none" style="stroke:#181818;stroke-width:1.0;"/><polygon fill="none" points="504.7816,56.5643,486.5922,51.1657,486.9909,63.1591,504.7816,56.5643" style="stroke:#181818;stroke-width:1.0;"/><path d="M486.7915,57.1624 C426.2797,59.1742 357.2092,67.0358 287,96 C246.835,112.5697 208.0709,143.8997 182.0898,167.8591 " fill="none" style="stroke:#181818;stroke-width:1.0;"/><text fill="#888888" font-family="sans-serif" font-size="10" lengthAdjust="spacing" textLength="2.7783" x="671.1108" y="298.3809">&#160;</text><a href="https://github.com/talsma-ict/umldoclet" target="_top" title="https://github.com/talsma-ict/umldoclet" xlink:actuate="onRequest" xlink:href="https://github.com/talsma-ict/umldoclet" xlink:show="new" xlink:title="https://github.com/talsma-ict/umldoclet" xlink:type="simple"><text fill="#888888" font-family="sans-serif" font-size="10" lengthAdjust="spacing" textLength="74.4775" x="635.2612" y="310.959">UMLDoclet 2.2.1</text></a><!--SRC=[pLLHJzim47xVhxXf3si5YTDim1PLI5NfO5EP49IzT7rm4vDwTUpClh1L6_zzbwIKf51fl94NAxxpTv_lEzy10Bo5eSbNLgOB13I02-dW-dmCN2UG2YqiHv60p7Wg7Co5CZfrjQC0Nk32M30trLzih1KkDpgHEeKl_9Q3CuMDXVDVlO8grEGU_HTt3VJvgjmyCR4I29rXjq4f37g7NXY4Xp3XocKSFWyd_XhjuKpeXtuF25l9M6X7a8LEXAre3N8UqpAkBVjmAwoJHjEPO8rJNZKs6hdK3d9kqPLNkb1SOycrvrFyz_uHT0PNupQtu6F5RHy6LlCYWKlpizXSztLkUKgC5L-P0i5b0hdcbSaHPoSe54VANnJL1uZeaj9CN38_Cvh7HjmAZSwlbhanIqgiBtx78iVo1d_gO-KNA-uSZAmrzhBIm0cOJc-a4X4RHkpQqQMPCbOwHYahiXAMNLYJMfvbXCfE9IwAEQiYUUjG7iybGsvJWSoAt51Y66qb9dQCEB8cHzRao3OSMOkIly1CpMP471hVNikdCpOnLoTK5nEPaLnIupvSeINOXtKi7VRhd-Dk6mpfb4EUvPrk12sijX_vOE5A9uhGDecIJscf8xIDXEv8f5tcX4IMgi9jajmutMrhTghCdAlHVSBEg1WLLUwB4EzfRZjKN5HMah5wyryDVZBq23lR6niqoj2zvYED4bVzLXqSFuN-ZIkPyF9qvUiwvu8wK3AmQPKLYb5vF3_68rbsqduPokoajqESdVwTka2xsvcuQxUa7zJDVMg8QGEOpnrQ7kCcOpG0akqq5hfyaAD6pte8r8YpmO-Y6WVwVptlVpjX5BLaVOIuJU9vs3jpLrFlErofHYdT68FqWDi2dAroOSTIBuU6oWNUV7ZQUbrEBIMre44PBpMr6WYs4jPdZNZhMD_rTBf0p5t4M5fLd5yM4bOJqvCniY9JIJqgjuRcRBOUWgURQLnED2yuyeB3II-8Uk-Yte7VEpeAmzv14Em5OHG4qr5XJIxO1QVId_q3]--></g></svg>