<svg xmlns="http://www.w3.org/2000/svg" xmlns:xlink="http://www.w3.org/1999/xlink" contentStyleType="text/css" height="181px" preserveAspectRatio="none" style="width:267px;height:181px;background:#FFFFFF;" version="1.1" viewBox="0 0 267 181" width="267px" zoomAndPan="magnify"><defs/><g><!--class com.monacoevents.eventbooking.exception.ResourceNotFoundException--><a href="..\..\..\..\..\..\target\reports\apidocs\com\monacoevents\eventbooking\exception\ResourceNotFoundException.html" target="_top" title="..\..\..\..\..\..\target\reports\apidocs\com\monacoevents\eventbooking\exception\ResourceNotFoundException.html" xlink:actuate="onRequest" xlink:href="..\..\..\..\..\..\target\reports\apidocs\com\monacoevents\eventbooking\exception\ResourceNotFoundException.html" xlink:show="new" xlink:title="..\..\..\..\..\..\target\reports\apidocs\com\monacoevents\eventbooking\exception\ResourceNotFoundException.html" xlink:type="simple"><g id="elem_com.monacoevents.eventbooking.exception.ResourceNotFoundException"><rect codeLine="13" fill="#F1F1F1" height="65.7969" id="com.monacoevents.eventbooking.exception.ResourceNotFoundException" rx="2.5" ry="2.5" style="stroke:#181818;stroke-width:0.5;" width="254.7783" x="6" y="88"/><ellipse cx="33.6958" cy="108.0938" fill="#ADD1B2" rx="11" ry="11" style="stroke:#181818;stroke-width:1.0;"/><path d="M36.4614,103.9688 Q36.6177,103.75 36.8052,103.6406 Q36.9927,103.5313 37.2114,103.5313 Q37.5864,103.5313 37.8208,103.7969 Q38.0552,104.0469 38.0552,104.6563 L38.0552,106.1094 Q38.0552,106.7188 37.8208,106.9844 Q37.5864,107.25 37.2114,107.25 Q36.8677,107.25 36.6646,107.0469 Q36.4614,106.8594 36.3521,106.3438 Q36.3052,105.9844 36.1177,105.7969 Q35.7896,105.4219 35.1802,105.2031 Q34.5708,104.9844 33.9458,104.9844 Q33.1802,104.9844 32.5396,105.3125 Q31.9146,105.6406 31.4146,106.3906 Q30.9302,107.1406 30.9302,108.1719 L30.9302,109.2656 Q30.9302,110.5 31.8208,111.3281 Q32.7114,112.1406 34.3052,112.1406 Q35.2427,112.1406 35.8989,111.8906 Q36.2896,111.7344 36.7114,111.2969 Q36.9771,111.0313 37.1177,110.9531 Q37.2739,110.875 37.4771,110.875 Q37.8052,110.875 38.0552,111.1406 Q38.3208,111.3906 38.3208,111.7344 Q38.3208,112.0781 37.9771,112.4844 Q37.4771,113.0625 36.6802,113.3906 Q35.6021,113.8438 34.3052,113.8438 Q32.7896,113.8438 31.5864,113.2188 Q30.6021,112.7188 29.9146,111.6563 Q29.2271,110.5781 29.2271,109.2969 L29.2271,108.1406 Q29.2271,106.8125 29.8364,105.6719 Q30.4614,104.5156 31.5552,103.9063 Q32.6489,103.2813 33.8833,103.2813 Q34.6177,103.2813 35.2583,103.4531 Q35.9146,103.6094 36.4614,103.9688 Z " fill="#000000"/><text fill="#000000" font-family="sans-serif" font-size="14" lengthAdjust="spacing" textLength="182.8818" x="56.3589" y="107.5332">ResourceNotFoundException</text><text fill="#000000" font-family="sans-serif" font-size="10" lengthAdjust="spacing" textLength="194.5654" x="50.5171" y="120.9902">com.monacoevents.eventbooking.exception</text><line style="stroke:#181818;stroke-width:0.5;" x1="7" x2="259.7783" y1="128.1875" y2="128.1875"/><ellipse cx="17" cy="142.4922" fill="#84BE84" rx="3" ry="3" style="stroke:#038048;stroke-width:1.0;"/><text fill="#000000" font-family="sans-serif" font-size="14" lengthAdjust="spacing" textLength="228.7783" x="26" y="146.7207">ResourceNotFoundException(String)</text></g></a><!--class java.lang.RuntimeException--><g id="elem_java.lang.RuntimeException"><rect codeLine="17" fill="#F1F1F1" height="40.1875" id="java.lang.RuntimeException" rx="2.5" ry="2.5" style="stroke:#181818;stroke-width:0.5;" width="145.6133" x="60.5" y="12"/><ellipse cx="75.5" cy="32.0938" fill="#ADD1B2" rx="11" ry="11" style="stroke:#181818;stroke-width:1.0;"/><path d="M78.2656,27.9688 Q78.4219,27.75 78.6094,27.6406 Q78.7969,27.5313 79.0156,27.5313 Q79.3906,27.5313 79.625,27.7969 Q79.8594,28.0469 79.8594,28.6563 L79.8594,30.1094 Q79.8594,30.7188 79.625,30.9844 Q79.3906,31.25 79.0156,31.25 Q78.6719,31.25 78.4688,31.0469 Q78.2656,30.8594 78.1563,30.3438 Q78.1094,29.9844 77.9219,29.7969 Q77.5938,29.4219 76.9844,29.2031 Q76.375,28.9844 75.75,28.9844 Q74.9844,28.9844 74.3438,29.3125 Q73.7188,29.6406 73.2188,30.3906 Q72.7344,31.1406 72.7344,32.1719 L72.7344,33.2656 Q72.7344,34.5 73.625,35.3281 Q74.5156,36.1406 76.1094,36.1406 Q77.0469,36.1406 77.7031,35.8906 Q78.0938,35.7344 78.5156,35.2969 Q78.7813,35.0313 78.9219,34.9531 Q79.0781,34.875 79.2813,34.875 Q79.6094,34.875 79.8594,35.1406 Q80.125,35.3906 80.125,35.7344 Q80.125,36.0781 79.7813,36.4844 Q79.2813,37.0625 78.4844,37.3906 Q77.4063,37.8438 76.1094,37.8438 Q74.5938,37.8438 73.3906,37.2188 Q72.4063,36.7188 71.7188,35.6563 Q71.0313,34.5781 71.0313,33.2969 L71.0313,32.1406 Q71.0313,30.8125 71.6406,29.6719 Q72.2656,28.5156 73.3594,27.9063 Q74.4531,27.2813 75.6875,27.2813 Q76.4219,27.2813 77.0625,27.4531 Q77.7188,27.6094 78.2656,27.9688 Z " fill="#000000"/><text fill="#000000" font-family="sans-serif" font-size="14" lengthAdjust="spacing" textLength="113.6133" x="89.5" y="31.5332">RuntimeException</text><text fill="#000000" font-family="sans-serif" font-size="10" lengthAdjust="spacing" textLength="40.0293" x="126.292" y="44.9902">java.lang</text></g><polygon fill="none" points="133.5,52.3081,127.5,70.3081,139.5,70.3081,133.5,52.3081" style="stroke:#181818;stroke-width:1.0;"/><path d="M133.5,70.3081 C133.5,80.7207 133.5,75.8448 133.5,87.7589 " fill="none" style="stroke:#181818;stroke-width:1.0;"/><text fill="#888888" font-family="sans-serif" font-size="10" lengthAdjust="spacing" textLength="2.7783" x="128.6108" y="158.3809">&#160;</text><a href="https://github.com/talsma-ict/umldoclet" target="_top" title="https://github.com/talsma-ict/umldoclet" xlink:actuate="onRequest" xlink:href="https://github.com/talsma-ict/umldoclet" xlink:show="new" xlink:title="https://github.com/talsma-ict/umldoclet" xlink:type="simple"><text fill="#888888" font-family="sans-serif" font-size="10" lengthAdjust="spacing" textLength="74.4775" x="92.7612" y="170.959">UMLDoclet 2.2.1</text></a><!--SRC=[fLJVJzim47xdhxYnXu6WhfknTbG82NMCRUec1EMfwOFh78b7uili2rktyR_FIKhfAYfDcXN9yltulhlFlW00l88HbGjdqeo12JWp7cu-Zq7P15Aqw1HZ0gPGANgOOquszMqWWgeu8mTqsvmqEOU-99iOcy8dTQ_0K-KqUh6p0mtLv17zk_9hwFD5RNn7EaU6lT7-MacHxFKxaOpwC56vBnHy74t44kqf9nAHw470per6wmDaPHDqJLbdfT9X6xUUGxX7vmtPa2ENE7MhcYmhOpsKoh6lMxhCbUMwrfu8_4TY07jdr-E_QvF7JMs7SEQigXAuec_LgjqNfLDfg3XN2weOV86ih6fzFXHjLH7aKXglCP0g3afQijZuCvCWO57o0cuDvedVj0QmZ8AviUjSUG-x9zxyn67lwFGAM-6_4B-deCJv3uqbXwPZkuoHfveAKP1Lcl0UBNlHR7EYkt1x0XypTY7Sr3_6YgsyC9qA4Mzyh5oA73iiAKWUgz8af7qSoE9ridYTB5wHnLl9HCP5Ffl1hqQRUXriZTsxPXTWzvlGXorgLfPDWS-9-3KySX7UITh8j3g9pPGMUBiVJdvtElylSqjpudcHu-cg-riY3hFm94UzFYnAT6DZxqQKXuVtyktptfjwZ79ZCKoklhCOX96ho8UMhhl6j-IAxNIQCPT-sEscXhDgBa9pNMv6k6CqTwiYJzhPtPZYsMmvbHUhtqCzOXqvwCZ-fFTw-AOtb0CnE1x8wBWlvO6CXb9Epoj79NOlbJD-zWS0]--></g></svg>