<svg xmlns="http://www.w3.org/2000/svg" xmlns:xlink="http://www.w3.org/1999/xlink" contentStyleType="text/css" height="100%" preserveAspectRatio="none" style="width:100%;height:100%;background:#FFFFFF;" version="1.1" viewBox="0 0 262 216" width="100%" zoomAndPan="magnify"><defs/><g><!--class com.monacoevents.eventbooking.exception.ResourceNotFoundException--><a href="..\..\..\..\..\..\target\reports\apidocs\com\monacoevents\eventbooking\exception\ResourceNotFoundException.html" target="_top" title="..\..\..\..\..\..\target\reports\apidocs\com\monacoevents\eventbooking\exception\ResourceNotFoundException.html" xlink:actuate="onRequest" xlink:href="..\..\..\..\..\..\target\reports\apidocs\com\monacoevents\eventbooking\exception\ResourceNotFoundException.html" xlink:show="new" xlink:title="..\..\..\..\..\..\target\reports\apidocs\com\monacoevents\eventbooking\exception\ResourceNotFoundException.html" xlink:type="simple"><g id="elem_com.monacoevents.eventbooking.exception.ResourceNotFoundException"><rect codeLine="26" fill="#F4F8FB" height="67.2129" id="com.monacoevents.eventbooking.exception.ResourceNotFoundException" rx="4" ry="4" style="stroke:#2C6E8C;stroke-width:0.5;" width="248.9834" x="7" y="108.92"/><ellipse cx="25.9764" cy="129.8809" fill="#ADD1B2" rx="10" ry="10" style="stroke:#181818;stroke-width:1.0;"/><path d="M26.9139,126.5216 Q27.0389,126.3497 27.1795,126.2716 Q27.3201,126.1934 27.492,126.1934 Q27.7732,126.1934 27.9451,126.3966 Q28.1326,126.5841 28.1326,127.0528 L28.1326,128.1622 Q28.1326,128.6309 27.9451,128.8341 Q27.7732,129.0216 27.492,129.0216 Q27.2264,129.0216 27.0701,128.8809 Q26.9139,128.7403 26.8357,128.3341 Q26.7889,128.0684 26.6639,127.9278 Q26.3982,127.6309 25.9295,127.4591 Q25.4607,127.2872 24.992,127.2872 Q24.4139,127.2872 23.9139,127.5528 Q23.4295,127.8028 23.0545,128.3809 Q22.6795,128.9434 22.6795,129.7247 L22.6795,130.5684 Q22.6795,131.5059 23.367,132.1466 Q24.0545,132.7716 25.2576,132.7716 Q25.992,132.7716 26.492,132.5684 Q26.7732,132.4591 27.1014,132.1153 Q27.3045,131.9122 27.4139,131.8653 Q27.5389,131.8028 27.6795,131.8028 Q27.9451,131.8028 28.1326,132.0059 Q28.3357,132.1934 28.3357,132.4591 Q28.3357,132.7247 28.0701,133.0372 Q27.6795,133.4747 27.0701,133.7247 Q26.2576,134.0684 25.2732,134.0684 Q24.117,134.0684 23.1795,133.5997 Q22.4295,133.2091 21.8982,132.3966 Q21.3826,131.5684 21.3826,130.5997 L21.3826,129.7091 Q21.3826,128.6934 21.8514,127.8184 Q22.3357,126.9434 23.1639,126.4747 Q24.0076,125.9903 24.9451,125.9903 Q25.5076,125.9903 25.992,126.1309 Q26.492,126.2559 26.9139,126.5216 Z " fill="#000000"/><text fill="#14324A" font-family="Segoe UI" font-size="14" lengthAdjust="spacing" textLength="190.8936" x="48.5979" y="129.0274">ResourceNotFoundException</text><text fill="#14324A" font-family="Segoe UI" font-size="10" lengthAdjust="spacing" textLength="207.9248" x="40.0822" y="143.3321">com.monacoevents.eventbooking.exception</text><line style="stroke:#2C6E8C;stroke-width:0.5;" x1="8" x2="254.9834" y1="150.8419" y2="150.8419"/><ellipse cx="18" cy="164.9874" fill="#84BE84" rx="3" ry="3" style="stroke:#038048;stroke-width:1.0;"/><text fill="#000000" font-family="Segoe UI" font-size="13" lengthAdjust="spacing" textLength="223.9834" x="26" y="168.8702">ResourceNotFoundException(String)</text></g></a><!--class java.lang.RuntimeException--><g id="elem_java.lang.RuntimeException"><rect codeLine="30" fill="#F4F8FB" height="41.9219" id="java.lang.RuntimeException" rx="4" ry="4" style="stroke:#2C6E8C;stroke-width:0.5;" width="150.5176" x="56.23" y="7"/><ellipse cx="70.23" cy="27.9609" fill="#ADD1B2" rx="10" ry="10" style="stroke:#181818;stroke-width:1.0;"/><path d="M71.1675,24.6016 Q71.2925,24.4297 71.4331,24.3516 Q71.5737,24.2734 71.7456,24.2734 Q72.0269,24.2734 72.1987,24.4766 Q72.3862,24.6641 72.3862,25.1328 L72.3862,26.2422 Q72.3862,26.7109 72.1987,26.9141 Q72.0269,27.1016 71.7456,27.1016 Q71.48,27.1016 71.3237,26.9609 Q71.1675,26.8203 71.0894,26.4141 Q71.0425,26.1484 70.9175,26.0078 Q70.6519,25.7109 70.1831,25.5391 Q69.7144,25.3672 69.2456,25.3672 Q68.6675,25.3672 68.1675,25.6328 Q67.6831,25.8828 67.3081,26.4609 Q66.9331,27.0234 66.9331,27.8047 L66.9331,28.6484 Q66.9331,29.5859 67.6206,30.2266 Q68.3081,30.8516 69.5112,30.8516 Q70.2456,30.8516 70.7456,30.6484 Q71.0269,30.5391 71.355,30.1953 Q71.5581,29.9922 71.6675,29.9453 Q71.7925,29.8828 71.9331,29.8828 Q72.1987,29.8828 72.3862,30.0859 Q72.5894,30.2734 72.5894,30.5391 Q72.5894,30.8047 72.3237,31.1172 Q71.9331,31.5547 71.3237,31.8047 Q70.5112,32.1484 69.5269,32.1484 Q68.3706,32.1484 67.4331,31.6797 Q66.6831,31.2891 66.1519,30.4766 Q65.6362,29.6484 65.6362,28.6797 L65.6362,27.7891 Q65.6362,26.7734 66.105,25.8984 Q66.5894,25.0234 67.4175,24.5547 Q68.2612,24.0703 69.1987,24.0703 Q69.7612,24.0703 70.2456,24.2109 Q70.7456,24.3359 71.1675,24.6016 Z " fill="#000000"/><text fill="#14324A" font-family="Segoe UI" font-size="14" lengthAdjust="spacing" textLength="120.5176" x="83.23" y="27.1074">RuntimeException</text><text fill="#14324A" font-family="Segoe UI" font-size="10" lengthAdjust="spacing" textLength="42.1973" x="122.3902" y="41.4121">java.lang</text></g><!--reverse link java.lang.RuntimeException to com.monacoevents.eventbooking.exception.ResourceNotFoundException--><g id="link_java.lang.RuntimeException_com.monacoevents.eventbooking.exception.ResourceNotFoundException"><path codeLine="32" d="M131.49,67.34 C131.49,83.81 131.49,89.33 131.49,108.48 " fill="none" id="java.lang.RuntimeException-backto-com.monacoevents.eventbooking.exception.ResourceNotFoundException" style="stroke:#2C6E8C;stroke-width:1.0;"/><polygon fill="none" points="131.49,49.34,125.49,67.34,137.49,67.34,131.49,49.34" style="stroke:#2C6E8C;stroke-width:1.0;"/></g><text fill="#888888" font-family="Segoe UI" font-size="10" lengthAdjust="spacing" textLength="2.7588" x="123.1123" y="192.9239">&#160;</text><a href="https://github.com/talsma-ict/umldoclet" target="_top" title="https://github.com/talsma-ict/umldoclet" xlink:actuate="onRequest" xlink:href="https://github.com/talsma-ict/umldoclet" xlink:show="new" xlink:title="https://github.com/talsma-ict/umldoclet" xlink:type="simple"><text fill="#888888" font-family="Segoe UI" font-size="10" lengthAdjust="spacing" textLength="77.7783" x="85.6025" y="206.2247">UMLDoclet 2.2.1</text></a><!--SRC=[fLNlJzim4FtENt5Z7mQ2kcaQIgaGKYdjniGGel2fwGUJN5ElYPtP3gpR-Dzt-K5NGgjDMbifYltklRldynK0u0CCLBhK8ffRi0hiN1Yu_t85N8OGeKJDBOOW4XwXWGUCbOnC2KJWcPqh3MfMl0LAQpIfag6G4NpcZnoCodI0XktiG25rzyB-nCqQ-yCoNxnGGOmMzWRxQocvJglJS1st0tSyDWc7oy4TgzZ-nBZCPIqWxbW4A0rHPZ94NQJLJtb0Zwjovn0UKHkX9CKu5KzUQg2avK8QIBcs9Y_f9kRIvhcs6Ebxx1Zs-kEhrxav9qLkXz3NacSXtAflsQfSin2Is7W2Piv3zPIxCgCYiBQh5IKxK9hSW6vjByGPps8xekokUO8mnaWXt5zkXut53uHMkmO8OcxCEGyMKQKMqxcz7tcZxkXy8rHfyg-2kOFEi3lO1EjhhPx-YihJga0jh-rw_Hf8I8jwnWDya-2mF-gCdAtmLqaEJuQTkZmT_O8QzstXv_Izs09UPptl3hmBPpDmhQnsspi-AerybseUKP_6VAao2w6oLJTGcqewGaFHECQSoLAeLBBiXxa84J19xH9c0kFGr5SJfCj6oyLwuIlidXewxLxBExl5ygfTAse2gdFuFS3KKflxii8uPu5AMA8a3nG-ehI65Oy7fQYmYE5Bn2xGtVn7BDkg2vC9OtxjPxcEqFeQKqMNpEUf25LWV1BpryNyTJ5_9UPl5MDpcyJJAVmilCa_1rknUsEhYNQ_W3vlSJEJLYIuoSIlDDOOJOQei6drnkeX9V7sVJZzrMZylysbpAcnonZFLjNFbA8hicP7_lcqJ55V2RceUhQxUVS-7vona4YpEbX896ES5VAvb6kkwLLQlfnCvjQcfjTiHiBEimT6nJLjCRGR8h3DB8d3SbhNvlPqMitXZwi_X7oeDfpZXjEvQtazxwZd7h6kvvqSTpp7EN3SdkDCXfbMAJPlk1Pc-Xi0]--></g></svg>