<svg xmlns="http://www.w3.org/2000/svg" xmlns:xlink="http://www.w3.org/1999/xlink" contentStyleType="text/css" height="100%" preserveAspectRatio="none" style="width:100%;height:100%;background:#FFFFFF;" version="1.1" viewBox="0 0 221 259" width="100%" zoomAndPan="magnify"><defs/><g><!--class com.monacoevents.eventbooking.dto.CategoryRequest--><a href="..\..\..\..\..\..\target\reports\apidocs\com\monacoevents\eventbooking\dto\CategoryRequest.html" target="_top" title="..\..\..\..\..\..\target\reports\apidocs\com\monacoevents\eventbooking\dto\CategoryRequest.html" xlink:actuate="onRequest" xlink:href="..\..\..\..\..\..\target\reports\apidocs\com\monacoevents\eventbooking\dto\CategoryRequest.html" xlink:show="new" xlink:title="..\..\..\..\..\..\target\reports\apidocs\com\monacoevents\eventbooking\dto\CategoryRequest.html" xlink:type="simple"><g id="elem_com.monacoevents.eventbooking.dto.CategoryRequest"><rect codeLine="26" fill="#F4F8FB" height="109.7949" id="com.monacoevents.eventbooking.dto.CategoryRequest" rx="4" ry="4" style="stroke:#2C6E8C;stroke-width:0.5;" width="207.8809" x="7" y="108.93"/><ellipse cx="21" cy="129.8909" fill="#ADD1B2" rx="10" ry="10" style="stroke:#181818;stroke-width:1.0;"/><path d="M21.9375,126.5316 Q22.0625,126.3597 22.2031,126.2816 Q22.3438,126.2034 22.5156,126.2034 Q22.7969,126.2034 22.9688,126.4066 Q23.1563,126.5941 23.1563,127.0628 L23.1563,128.1722 Q23.1563,128.6409 22.9688,128.8441 Q22.7969,129.0316 22.5156,129.0316 Q22.25,129.0316 22.0938,128.8909 Q21.9375,128.7503 21.8594,128.3441 Q21.8125,128.0784 21.6875,127.9378 Q21.4219,127.6409 20.9531,127.4691 Q20.4844,127.2972 20.0156,127.2972 Q19.4375,127.2972 18.9375,127.5628 Q18.4531,127.8128 18.0781,128.3909 Q17.7031,128.9534 17.7031,129.7347 L17.7031,130.5784 Q17.7031,131.5159 18.3906,132.1566 Q19.0781,132.7816 20.2813,132.7816 Q21.0156,132.7816 21.5156,132.5784 Q21.7969,132.4691 22.125,132.1253 Q22.3281,131.9222 22.4375,131.8753 Q22.5625,131.8128 22.7031,131.8128 Q22.9688,131.8128 23.1563,132.0159 Q23.3594,132.2034 23.3594,132.4691 Q23.3594,132.7347 23.0938,133.0472 Q22.7031,133.4847 22.0938,133.7347 Q21.2813,134.0784 20.2969,134.0784 Q19.1406,134.0784 18.2031,133.6097 Q17.4531,133.2191 16.9219,132.4066 Q16.4063,131.5784 16.4063,130.6097 L16.4063,129.7191 Q16.4063,128.7034 16.875,127.8284 Q17.3594,126.9534 18.1875,126.4847 Q19.0313,126.0003 19.9688,126.0003 Q20.5313,126.0003 21.0156,126.1409 Q21.5156,126.2659 21.9375,126.5316 Z " fill="#000000"/><text fill="#14324A" font-family="Segoe UI" font-size="14" lengthAdjust="spacing" textLength="112.6563" x="66.6123" y="129.0374">CategoryRequest</text><text fill="#14324A" font-family="Segoe UI" font-size="10" lengthAdjust="spacing" textLength="177.8809" x="34" y="143.3421">com.monacoevents.eventbooking.dto</text><line style="stroke:#2C6E8C;stroke-width:0.5;" x1="8" x2="213.8809" y1="150.8519" y2="150.8519"/><rect fill="none" height="6" style="stroke:#C82930;stroke-width:1.0;" width="6" x="15" y="161.9974"/><text fill="#000000" font-family="Segoe UI" font-size="13" lengthAdjust="spacing" textLength="78.0381" x="26" y="168.8802">name: String</text><line style="stroke:#2C6E8C;stroke-width:0.5;" x1="8" x2="213.8809" y1="176.1429" y2="176.1429"/><ellipse cx="18" cy="190.2884" fill="#84BE84" rx="3" ry="3" style="stroke:#038048;stroke-width:1.0;"/><text fill="#000000" font-family="Segoe UI" font-size="13" lengthAdjust="spacing" textLength="151.3345" x="26" y="194.1712">CategoryRequest(String)</text><ellipse cx="18" cy="207.5794" fill="#84BE84" rx="3" ry="3" style="stroke:#038048;stroke-width:1.0;"/><text fill="#000000" font-family="Segoe UI" font-size="13" lengthAdjust="spacing" textLength="87.6357" x="26" y="211.4622">name(): String</text></g></a><!--class java.lang.Record--><g id="elem_java.lang.Record"><rect codeLine="32" fill="#F4F8FB" height="41.9219" id="java.lang.Record" rx="4" ry="4" style="stroke:#2C6E8C;stroke-width:0.5;" width="71.1182" x="75.38" y="7"/><ellipse cx="89.38" cy="27.9609" fill="#A9DCDF" rx="10" ry="10" style="stroke:#181818;stroke-width:1.0;"/><path d="M91.3644,29.1172 L88.2081,29.1172 L87.8956,29.9141 L88.2081,29.9141 Q88.6769,29.9141 88.88,30.1016 Q89.0831,30.2734 89.0831,30.5703 Q89.0831,30.8516 88.88,31.0391 Q88.6769,31.2109 88.2081,31.2109 L86.4581,31.2109 Q85.9894,31.2109 85.7863,31.0391 Q85.5831,30.8516 85.5831,30.5547 Q85.5831,30.2578 85.8019,30.0859 Q86.005,29.8984 86.4894,29.9141 L88.5363,24.8203 L87.6769,24.8203 Q87.2081,24.8203 87.005,24.6484 Q86.8175,24.4609 86.8175,24.1641 Q86.8175,23.8672 87.005,23.6953 Q87.2081,23.5078 87.6769,23.5078 L90.4894,23.5234 L93.0831,29.9141 Q93.5363,29.9141 93.6925,30.0078 Q93.9738,30.2266 93.9738,30.5703 Q93.9738,30.8516 93.7706,31.0391 Q93.5831,31.2109 93.1144,31.2109 L91.3644,31.2109 Q90.8956,31.2109 90.6925,31.0391 Q90.4894,30.8516 90.4894,30.5547 Q90.4894,30.2734 90.6925,30.1016 Q90.8956,29.9141 91.3644,29.9141 L91.6769,29.9141 L91.3644,29.1172 Z M90.8331,27.8203 L89.7863,25.2422 L88.7238,27.8203 L90.8331,27.8203 Z " fill="#000000"/><text fill="#14324A" font-family="Segoe UI" font-size="14" font-style="italic" lengthAdjust="spacing" textLength="41.1182" x="102.38" y="27.1074">Record</text><text fill="#14324A" font-family="Segoe UI" font-size="10" font-style="italic" lengthAdjust="spacing" textLength="39.1992" x="103.3395" y="41.4121">java.lang</text></g><!--reverse link java.lang.Record to com.monacoevents.eventbooking.dto.CategoryRequest--><g id="link_java.lang.Record_com.monacoevents.eventbooking.dto.CategoryRequest"><path codeLine="34" d="M110.94,67.29 C110.94,83.09 110.94,87.77 110.94,108.7 " fill="none" id="java.lang.Record-backto-com.monacoevents.eventbooking.dto.CategoryRequest" style="stroke:#2C6E8C;stroke-width:1.0;"/><polygon fill="none" points="110.94,49.29,104.94,67.29,116.94,67.29,110.94,49.29" style="stroke:#2C6E8C;stroke-width:1.0;"/></g><text fill="#888888" font-family="Segoe UI" font-size="10" lengthAdjust="spacing" textLength="2.7588" x="102.561" y="235.5159">&#160;</text><a href="https://github.com/talsma-ict/umldoclet" target="_top" title="https://github.com/talsma-ict/umldoclet" xlink:actuate="onRequest" xlink:href="https://github.com/talsma-ict/umldoclet" xlink:show="new" xlink:title="https://github.com/talsma-ict/umldoclet" xlink:type="simple"><text fill="#888888" font-family="Segoe UI" font-size="10" lengthAdjust="spacing" textLength="77.7783" x="65.0513" y="248.8167">UMLDoclet 2.2.1</text></a><!--SRC=[bLJRRjf047tlLqpRXoPgCSPnWA0e4Y7GfaghAYHFc8V57imMUyVTNIUYbt_l-5BgE8cg6YJBCsVEN7Rs002yWGbbEotZZGLBO3VImEsdAn0gWXWLQc4n0fcA60siC24Lcmg887Ax8GsqBhz2qXfDHYgIAeQFuaw0eLo7Q9mNBw1CTVE7_LwO1ljgLnWlA4pGmi7ai56Iv_Rw7S_r-d0Z4fCAk9pSE3NRtnZFyPmUC7SYGrI6ANCLeIxB6cSYvDTLvNa7TwYD9CKnRirJj1gIia8g0vdGrXGjVKc4iaMjFOVp-yu03iRpguUrkITbRUzWh9N88xYcR_c-NRELYjb42cOZ8helfhBc9h3brSJ5JaZpD63OyaMu5dbYPrpTPv4Yp34cXDlBvs5p-HsXTzG2X8amvbo4sxZEbl2vlPxvi-7i_4aeQPvV3VCc_UbmyXHih3NT_nDLb5M3UlwHvuzR8AaiwhK8yL61q_6iFtEVXJyeSdeoxRVJyz5lUN4VDtxElujdm4tMy-74lt2V1ZRQEZho1yVL85zcMiIyfudOKMuX8bjl0w-fuYCq78rpB9WiXofIrJviP8I0QMPti9QOHAPjJP4l6vjBUpbNU7Lg-BH7FVzimlSe9hsxnc81RQ1gZtiMKkgaf4H8U8VA6gTyhOYudTY9BBq2lel_H3cj3B1OE4xG-bkXOxI1nepu4WKYan659c3oe4aUDCa39WzQvCx6fibo2J_ANekdKunk17EhEMHlVTkAEwZyXty1HTZ1uOF0NzK4nSfOBKBxQ9JNo48MDIRubPNCOJ68oqdjlvmAMB6rhN3wizFv_wbMPAV6xX8ystUn9kADRqoZU3xiCjHNKcth5Hm-xRqjT32H2bbwmwr2RjNT8tzLwRgDV7MkG2qM6sipC-fsOsat-ShXPhgsrE2E36qtJvEe4j-M32-NjQo-t-jxeP4TTz1n-pSzV-GVZxnZrjJ1O7ZYk-vRrnkvxcAQQygm-qLeQPQ_0G00]--></g></svg>