<svg xmlns="http://www.w3.org/2000/svg" xmlns:xlink="http://www.w3.org/1999/xlink" contentStyleType="text/css" height="224px" preserveAspectRatio="none" style="width:210px;height:224px;background:#FFFFFF;" version="1.1" viewBox="0 0 210 224" width="210px" zoomAndPan="magnify"><defs/><g><!--class com.monacoevents.eventbooking.dto.CategoryRequest--><a href="..\..\..\..\..\..\target\reports\apidocs\com\monacoevents\eventbooking\dto\CategoryRequest.html" target="_top" title="..\..\..\..\..\..\target\reports\apidocs\com\monacoevents\eventbooking\dto\CategoryRequest.html" xlink:actuate="onRequest" xlink:href="..\..\..\..\..\..\target\reports\apidocs\com\monacoevents\eventbooking\dto\CategoryRequest.html" xlink:show="new" xlink:title="..\..\..\..\..\..\target\reports\apidocs\com\monacoevents\eventbooking\dto\CategoryRequest.html" xlink:type="simple"><g id="elem_com.monacoevents.eventbooking.dto.CategoryRequest"><rect codeLine="13" fill="#F1F1F1" height="109.0156" id="com.monacoevents.eventbooking.dto.CategoryRequest" rx="2.5" ry="2.5" style="stroke:#181818;stroke-width:0.5;" width="197.6592" x="6" y="88"/><ellipse cx="21" cy="108.0938" fill="#ADD1B2" rx="11" ry="11" style="stroke:#181818;stroke-width:1.0;"/><path d="M23.7656,103.9688 Q23.9219,103.75 24.1094,103.6406 Q24.2969,103.5313 24.5156,103.5313 Q24.8906,103.5313 25.125,103.7969 Q25.3594,104.0469 25.3594,104.6563 L25.3594,106.1094 Q25.3594,106.7188 25.125,106.9844 Q24.8906,107.25 24.5156,107.25 Q24.1719,107.25 23.9688,107.0469 Q23.7656,106.8594 23.6563,106.3438 Q23.6094,105.9844 23.4219,105.7969 Q23.0938,105.4219 22.4844,105.2031 Q21.875,104.9844 21.25,104.9844 Q20.4844,104.9844 19.8438,105.3125 Q19.2188,105.6406 18.7188,106.3906 Q18.2344,107.1406 18.2344,108.1719 L18.2344,109.2656 Q18.2344,110.5 19.125,111.3281 Q20.0156,112.1406 21.6094,112.1406 Q22.5469,112.1406 23.2031,111.8906 Q23.5938,111.7344 24.0156,111.2969 Q24.2813,111.0313 24.4219,110.9531 Q24.5781,110.875 24.7813,110.875 Q25.1094,110.875 25.3594,111.1406 Q25.625,111.3906 25.625,111.7344 Q25.625,112.0781 25.2813,112.4844 Q24.7813,113.0625 23.9844,113.3906 Q22.9063,113.8438 21.6094,113.8438 Q20.0938,113.8438 18.8906,113.2188 Q17.9063,112.7188 17.2188,111.6563 Q16.5313,110.5781 16.5313,109.2969 L16.5313,108.1406 Q16.5313,106.8125 17.1406,105.6719 Q17.7656,104.5156 18.8594,103.9063 Q19.9531,103.2813 21.1875,103.2813 Q21.9219,103.2813 22.5625,103.4531 Q23.2188,103.6094 23.7656,103.9688 Z " fill="#000000"/><text fill="#000000" font-family="sans-serif" font-size="14" lengthAdjust="spacing" textLength="108.9512" x="63.354" y="107.5332">CategoryRequest</text><text fill="#000000" font-family="sans-serif" font-size="10" lengthAdjust="spacing" textLength="165.6592" x="35" y="120.9902">com.monacoevents.eventbooking.dto</text><line style="stroke:#181818;stroke-width:0.5;" x1="7" x2="202.6592" y1="128.1875" y2="128.1875"/><rect fill="none" height="6" style="stroke:#C82930;stroke-width:1.0;" width="6" x="14" y="139.4922"/><text fill="#000000" font-family="sans-serif" font-size="14" lengthAdjust="spacing" textLength="79.3721" x="26" y="146.7207">name: String</text><line style="stroke:#181818;stroke-width:0.5;" x1="7" x2="202.6592" y1="153.7969" y2="153.7969"/><ellipse cx="17" cy="168.1016" fill="#84BE84" rx="3" ry="3" style="stroke:#038048;stroke-width:1.0;"/><text fill="#000000" font-family="sans-serif" font-size="14" lengthAdjust="spacing" textLength="154.8477" x="26" y="172.3301">CategoryRequest(String)</text><ellipse cx="17" cy="185.7109" fill="#84BE84" rx="3" ry="3" style="stroke:#038048;stroke-width:1.0;"/><text fill="#000000" font-family="sans-serif" font-size="14" lengthAdjust="spacing" textLength="88.6963" x="26" y="189.9395">name(): String</text></g></a><!--class java.lang.Record--><g id="elem_java.lang.Record"><rect codeLine="19" fill="#F1F1F1" height="40.1875" id="java.lang.Record" rx="2.5" ry="2.5" style="stroke:#181818;stroke-width:0.5;" width="77.1309" x="66.5" y="12"/><ellipse cx="81.5" cy="32.0938" fill="#A9DCDF" rx="11" ry="11" style="stroke:#181818;stroke-width:1.0;"/><path d="M83.6875,33.8594 L79.5469,33.8594 L79.125,34.8906 L79.5469,34.8906 Q80.1563,34.8906 80.4219,35.125 Q80.6875,35.3594 80.6875,35.75 Q80.6875,36.125 80.4219,36.3594 Q80.1563,36.5938 79.5469,36.5938 L77.25,36.5938 Q76.6406,36.5938 76.3906,36.3594 Q76.125,36.125 76.125,35.7344 Q76.125,35.3594 76.4063,35.125 Q76.6719,34.875 77.2969,34.8906 L79.9688,28.2344 L78.8594,28.2344 Q78.25,28.2344 77.9844,28 Q77.7188,27.7656 77.7188,27.375 Q77.7188,27 77.9844,26.7656 Q78.25,26.5313 78.8594,26.5313 L82.5313,26.5313 L85.9219,34.8906 Q86.5156,34.8906 86.7031,35.0313 Q87.0938,35.2969 87.0938,35.75 Q87.0938,36.125 86.8281,36.3594 Q86.5781,36.5938 85.9688,36.5938 L83.6719,36.5938 Q83.0625,36.5938 82.7969,36.3594 Q82.5313,36.125 82.5313,35.7344 Q82.5313,35.3594 82.7969,35.125 Q83.0625,34.8906 83.6719,34.8906 L84.0938,34.8906 L83.6875,33.8594 Z M82.9688,32.1563 L81.6094,28.7813 L80.2344,32.1563 L82.9688,32.1563 Z " fill="#000000"/><text fill="#000000" font-family="sans-serif" font-size="14" font-style="italic" lengthAdjust="spacing" textLength="45.1309" x="95.5" y="31.5332">Record</text><text fill="#000000" font-family="sans-serif" font-size="10" font-style="italic" lengthAdjust="spacing" textLength="40.0293" x="98.0508" y="44.9902">java.lang</text></g><polygon fill="none" points="105,52.1479,99,70.1479,111,70.1479,105,52.1479" style="stroke:#181818;stroke-width:1.0;"/><path d="M105,70.1479 C105,80.125 105,74.8781 105,87.6051 " fill="none" style="stroke:#181818;stroke-width:1.0;"/><text fill="#888888" font-family="sans-serif" font-size="10" lengthAdjust="spacing" textLength="2.7783" x="100.1108" y="201.3809">&#160;</text><a href="https://github.com/talsma-ict/umldoclet" target="_top" title="https://github.com/talsma-ict/umldoclet" xlink:actuate="onRequest" xlink:href="https://github.com/talsma-ict/umldoclet" xlink:show="new" xlink:title="https://github.com/talsma-ict/umldoclet" xlink:type="simple"><text fill="#888888" font-family="sans-serif" font-size="10" lengthAdjust="spacing" textLength="74.4775" x="64.2612" y="213.959">UMLDoclet 2.2.1</text></a><!--SRC=[bLFRRjD047tlLmpbWLIjDxOfAKHLfIeWBWfIrQPFSHucwwczrDurk-CW0_rtrdP8KuE4M5coTYvdPixE0G1u0JDJDLPbEGCRu5mvkFqy1zGfPAJ98bCAgiIC7AofC3fpVI01rfmR2-QkkqbZBRdAw5Jf33xX1i6Psafouk00kbABt-ZVqEsXhvlM-DR8WXX6iwEzbk8mcWHn64zWWOKh4JxE5cABzfWJYrX4uB4B9Kax3rdhb6pNrcM5ql_clUS4DcITCjhdX5kSTbHfDAFI3YgqxDgHhWhKtFOQ2L__L9p1wF9c_hIty4tNsmbSMerr2jVcQxqRzrbbCVCT5zYOci6LnAYnzpdVjCRIquMIRiWNHVPCQgEfy-Sg9Q2ouWRk51Mf6rezM6wykRFB0fs3mtEdljCqEhsOULOpOvjhQjlXH6yzuOKqfIYDHcbeGvgTw7vhO-xzcucKpI7ub_bdb1XKWELIY6JmCTgCEB5K6KzfWfLAZNI91q_smPDzyCI39mDmaNDPh5RmevkrFK5BtHHksFgKdVLua3Vg_KUF0MtQwEX9uaFF8AuTMvJy1vNNvDSwtMFmYzzhuLSZwvZQtKGVsACDhN3-CmZ-dzKUxDnnKz35ReexOzYlzYCRxVdGL6JdIj_FJE7twFdhltjlMrKKIfCNehpNv4SDTv4FVRdnNhrjhKGlbpbpvQRZSQOuhzV23pFcJf61aZokooBjfJWGvMgr5TdxdTfRnGJXMH1E5j7BwQje6fw9INWQXV5n64_3SFckjgQYyHLQvLQ_0000]--></g></svg>