<svg xmlns="http://www.w3.org/2000/svg" xmlns:xlink="http://www.w3.org/1999/xlink" contentStyleType="text/css" height="100%" preserveAspectRatio="none" style="width:100%;height:100%;background:#FFFFFF;" version="1.1" viewBox="0 0 236 293" width="100%" zoomAndPan="magnify"><defs/><g><!--class com.monacoevents.eventbooking.dto.CategoryResponse--><a href="..\..\..\..\..\..\target\reports\apidocs\com\monacoevents\eventbooking\dto\CategoryResponse.html" target="_top" title="..\..\..\..\..\..\target\reports\apidocs\com\monacoevents\eventbooking\dto\CategoryResponse.html" xlink:actuate="onRequest" xlink:href="..\..\..\..\..\..\target\reports\apidocs\com\monacoevents\eventbooking\dto\CategoryResponse.html" xlink:show="new" xlink:title="..\..\..\..\..\..\target\reports\apidocs\com\monacoevents\eventbooking\dto\CategoryResponse.html" xlink:type="simple"><g id="elem_com.monacoevents.eventbooking.dto.CategoryResponse"><rect codeLine="26" fill="#F4F8FB" height="144.377" id="com.monacoevents.eventbooking.dto.CategoryResponse" rx="4" ry="4" style="stroke:#2C6E8C;stroke-width:0.5;" width="222.5708" x="7" y="108.92"/><ellipse cx="27.6105" cy="129.8809" fill="#ADD1B2" rx="10" ry="10" style="stroke:#181818;stroke-width:1.0;"/><path d="M28.548,126.5216 Q28.673,126.3497 28.8136,126.2716 Q28.9542,126.1934 29.1261,126.1934 Q29.4073,126.1934 29.5792,126.3966 Q29.7667,126.5841 29.7667,127.0528 L29.7667,128.1622 Q29.7667,128.6309 29.5792,128.8341 Q29.4073,129.0216 29.1261,129.0216 Q28.8605,129.0216 28.7042,128.8809 Q28.548,128.7403 28.4698,128.3341 Q28.423,128.0684 28.298,127.9278 Q28.0323,127.6309 27.5636,127.4591 Q27.0948,127.2872 26.6261,127.2872 Q26.048,127.2872 25.548,127.5528 Q25.0636,127.8028 24.6886,128.3809 Q24.3136,128.9434 24.3136,129.7247 L24.3136,130.5684 Q24.3136,131.5059 25.0011,132.1466 Q25.6886,132.7716 26.8917,132.7716 Q27.6261,132.7716 28.1261,132.5684 Q28.4073,132.4591 28.7355,132.1153 Q28.9386,131.9122 29.048,131.8653 Q29.173,131.8028 29.3136,131.8028 Q29.5792,131.8028 29.7667,132.0059 Q29.9698,132.1934 29.9698,132.4591 Q29.9698,132.7247 29.7042,133.0372 Q29.3136,133.4747 28.7042,133.7247 Q27.8917,134.0684 26.9073,134.0684 Q25.7511,134.0684 24.8136,133.5997 Q24.0636,133.2091 23.5323,132.3966 Q23.0167,131.5684 23.0167,130.5997 L23.0167,129.7091 Q23.0167,128.6934 23.4855,127.8184 Q23.9698,126.9434 24.798,126.4747 Q25.6417,125.9903 26.5792,125.9903 Q27.1417,125.9903 27.6261,126.1309 Q28.1261,126.2559 28.548,126.5216 Z " fill="#000000"/><text fill="#14324A" font-family="Segoe UI" font-size="14" lengthAdjust="spacing" textLength="121.9395" x="70.0502" y="129.0274">CategoryResponse</text><text fill="#14324A" font-family="Segoe UI" font-size="10" lengthAdjust="spacing" textLength="177.8809" x="42.0795" y="143.3321">com.monacoevents.eventbooking.dto</text><line style="stroke:#2C6E8C;stroke-width:0.5;" x1="8" x2="228.5708" y1="150.8419" y2="150.8419"/><rect fill="none" height="6" style="stroke:#C82930;stroke-width:1.0;" width="6" x="15" y="161.9874"/><text fill="#000000" font-family="Segoe UI" font-size="13" lengthAdjust="spacing" textLength="49.3594" x="26" y="168.8702">id: Long</text><rect fill="none" height="6" style="stroke:#C82930;stroke-width:1.0;" width="6" x="15" y="179.2784"/><text fill="#000000" font-family="Segoe UI" font-size="13" lengthAdjust="spacing" textLength="78.0381" x="26" y="186.1612">name: String</text><line style="stroke:#2C6E8C;stroke-width:0.5;" x1="8" x2="228.5708" y1="193.4239" y2="193.4239"/><ellipse cx="18" cy="207.5694" fill="#84BE84" rx="3" ry="3" style="stroke:#038048;stroke-width:1.0;"/><text fill="#000000" font-family="Segoe UI" font-size="13" lengthAdjust="spacing" textLength="197.5708" x="26" y="211.4522">CategoryResponse(Long, String)</text><ellipse cx="18" cy="224.8604" fill="#84BE84" rx="3" ry="3" style="stroke:#038048;stroke-width:1.0;"/><text fill="#000000" font-family="Segoe UI" font-size="13" lengthAdjust="spacing" textLength="58.957" x="26" y="228.7432">id(): Long</text><ellipse cx="18" cy="242.1514" fill="#84BE84" rx="3" ry="3" style="stroke:#038048;stroke-width:1.0;"/><text fill="#000000" font-family="Segoe UI" font-size="13" lengthAdjust="spacing" textLength="87.6357" x="26" y="246.0343">name(): String</text></g></a><!--class java.lang.Record--><g id="elem_java.lang.Record"><rect codeLine="34" fill="#F4F8FB" height="41.9219" id="java.lang.Record" rx="4" ry="4" style="stroke:#2C6E8C;stroke-width:0.5;" width="71.1182" x="82.73" y="7"/><ellipse cx="96.73" cy="27.9609" fill="#A9DCDF" rx="10" ry="10" style="stroke:#181818;stroke-width:1.0;"/><path d="M98.7144,29.1172 L95.5581,29.1172 L95.2456,29.9141 L95.5581,29.9141 Q96.0269,29.9141 96.23,30.1016 Q96.4331,30.2734 96.4331,30.5703 Q96.4331,30.8516 96.23,31.0391 Q96.0269,31.2109 95.5581,31.2109 L93.8081,31.2109 Q93.3394,31.2109 93.1363,31.0391 Q92.9331,30.8516 92.9331,30.5547 Q92.9331,30.2578 93.1519,30.0859 Q93.355,29.8984 93.8394,29.9141 L95.8863,24.8203 L95.0269,24.8203 Q94.5581,24.8203 94.355,24.6484 Q94.1675,24.4609 94.1675,24.1641 Q94.1675,23.8672 94.355,23.6953 Q94.5581,23.5078 95.0269,23.5078 L97.8394,23.5234 L100.4331,29.9141 Q100.8863,29.9141 101.0425,30.0078 Q101.3238,30.2266 101.3238,30.5703 Q101.3238,30.8516 101.1206,31.0391 Q100.9331,31.2109 100.4644,31.2109 L98.7144,31.2109 Q98.2456,31.2109 98.0425,31.0391 Q97.8394,30.8516 97.8394,30.5547 Q97.8394,30.2734 98.0425,30.1016 Q98.2456,29.9141 98.7144,29.9141 L99.0269,29.9141 L98.7144,29.1172 Z M98.1831,27.8203 L97.1363,25.2422 L96.0738,27.8203 L98.1831,27.8203 Z " fill="#000000"/><text fill="#14324A" font-family="Segoe UI" font-size="14" font-style="italic" lengthAdjust="spacing" textLength="41.1182" x="109.73" y="27.1074">Record</text><text fill="#14324A" font-family="Segoe UI" font-size="10" font-style="italic" lengthAdjust="spacing" textLength="39.1992" x="110.6895" y="41.4121">java.lang</text></g><!--reverse link java.lang.Record to com.monacoevents.eventbooking.dto.CategoryResponse--><g id="link_java.lang.Record_com.monacoevents.eventbooking.dto.CategoryResponse"><path codeLine="36" d="M118.29,67.35 C118.29,82.74 118.29,86.84 118.29,108.51 " fill="none" id="java.lang.Record-backto-com.monacoevents.eventbooking.dto.CategoryResponse" style="stroke:#2C6E8C;stroke-width:1.0;"/><polygon fill="none" points="118.29,49.35,112.29,67.35,124.29,67.35,118.29,49.35" style="stroke:#2C6E8C;stroke-width:1.0;"/></g><text fill="#888888" font-family="Segoe UI" font-size="10" lengthAdjust="spacing" textLength="2.7588" x="109.906" y="270.088">&#160;</text><a href="https://github.com/talsma-ict/umldoclet" target="_top" title="https://github.com/talsma-ict/umldoclet" xlink:actuate="onRequest" xlink:href="https://github.com/talsma-ict/umldoclet" xlink:show="new" xlink:title="https://github.com/talsma-ict/umldoclet" xlink:type="simple"><text fill="#888888" font-family="Segoe UI" font-size="10" lengthAdjust="spacing" textLength="77.7783" x="72.3962" y="283.3888">UMLDoclet 2.2.1</text></a><!--SRC=[dLNRJjj047tdAwRqeI38nZ4cX0WXXP2qL6c523p5UTZO4sSRUzVTNOFIbd_l-D9W30YfjYNBisVFN7Rc603W4mnLkj4YMbcm2knA6BZxDW4kGuXGekOMGn09Zz300cCb8rC24NXcLqg3MXPVWT8QJQfaA6G4N_az1wCo7Q1XEpjGkBhzn_x0JOrziScDbog8qSBUSByMakjqkYtNSRjmosEJSBWQthAAxMcForpM0UAEHO3I46KcGzH5M8EK1_IQb2k7S8_Q22LfZrFnvAa6Ibekf86KQslobAvZBcqUQuUHVu-TmDvWEdaUctDQn7O80orv5iAD-fbjqpLh8OcD9s1MF5GFULMMb0GsLhMYO8TAKpMWrrWBSScps8ufkkyyGPXYf13khjw6JSKlXCvH0n34t9WB7goZobjCv_Pnx8rxuujNeKfJ_IgOE-oEUiFNO0EjrSExg3oi2jJnZbnlq009QL4lUO0l0XmDnjsnyoRyMP2Zqr6twPwEVasD-pBn2xeltm3NMIzwG-_IUHrOI-leo3ivBWlv8TKyeZwD-KPb5a9bgswWDfLqX8PsunHp9ajRfP9bFwn4Y819QZUm51Y7fcbDa8QDp8Mzg2lidXawxNx7En_I74LARswA0JJeosh9EGzKmX8bUQ3m7gKrh7WjbA9y8XPQjGiqZE-YMDC5p6QC-Ot7SXsXzJMcYiR8vwa8LM1yOlVhx7wTtITslydELZQ9vtFuNQIRNoqHzc52ylDaoUlPXwdLecOzQ5BjvPiEAzZ-4qw4U_iDneESCRVME1_BYlE5iPe7zaNfRv24BwmL_0Sf7oFnY8h2RhzO2IpPcbOu-zDg_SSXb6ndncvYFD-ciLIAHgHMk_pwiabHJuHSLptRUttrBXVEM4WahGxM4YbNPujyBDsrQ_ugNxwSpLRMfgRVRaV2hh85espQjX3jbWXiEqlYi5JhXcxFvvKEVzx-479HRJadBQTxs_7wtd7VFMPkppavTKbp3notxpYpKQPLYkrhheMP_mK0]--></g></svg>