<svg xmlns="http://www.w3.org/2000/svg" xmlns:xlink="http://www.w3.org/1999/xlink" contentStyleType="text/css" height="216px" preserveAspectRatio="none" style="width:243px;height:216px;background:#FFFFFF;" version="1.1" viewBox="0 0 243 216" width="243px" zoomAndPan="magnify"><defs/><g><!--class com.monacoevents.eventbooking.dto.CategoryResponse--><a href="..\..\..\..\..\..\target\reports\apidocs\com\monacoevents\eventbooking\dto\CategoryResponse.html" target="_top" title="..\..\..\..\..\..\target\reports\apidocs\com\monacoevents\eventbooking\dto\CategoryResponse.html" xlink:actuate="onRequest" xlink:href="..\..\..\..\..\..\target\reports\apidocs\com\monacoevents\eventbooking\dto\CategoryResponse.html" xlink:show="new" xlink:title="..\..\..\..\..\..\target\reports\apidocs\com\monacoevents\eventbooking\dto\CategoryResponse.html" xlink:type="simple"><g id="elem_com.monacoevents.eventbooking.dto.CategoryResponse"><rect codeLine="13" fill="#F1F1F1" height="101.0156" id="com.monacoevents.eventbooking.dto.CategoryResponse" rx="2.5" ry="2.5" style="stroke:#181818;stroke-width:0.5;" width="230.668" x="6" y="88"/><ellipse cx="35.854" cy="108.0938" fill="#ADD1B2" rx="11" ry="11" style="stroke:#181818;stroke-width:1.0;"/><path d="M38.6196,103.9688 Q38.7758,103.75 38.9633,103.6406 Q39.1508,103.5313 39.3696,103.5313 Q39.7446,103.5313 39.979,103.7969 Q40.2133,104.0469 40.2133,104.6563 L40.2133,106.1094 Q40.2133,106.7188 39.979,106.9844 Q39.7446,107.25 39.3696,107.25 Q39.0258,107.25 38.8227,107.0469 Q38.6196,106.8594 38.5102,106.3438 Q38.4633,105.9844 38.2758,105.7969 Q37.9477,105.4219 37.3383,105.2031 Q36.729,104.9844 36.104,104.9844 Q35.3383,104.9844 34.6977,105.3125 Q34.0727,105.6406 33.5727,106.3906 Q33.0883,107.1406 33.0883,108.1719 L33.0883,109.2656 Q33.0883,110.5 33.979,111.3281 Q34.8696,112.1406 36.4633,112.1406 Q37.4008,112.1406 38.0571,111.8906 Q38.4477,111.7344 38.8696,111.2969 Q39.1352,111.0313 39.2758,110.9531 Q39.4321,110.875 39.6352,110.875 Q39.9633,110.875 40.2133,111.1406 Q40.479,111.3906 40.479,111.7344 Q40.479,112.0781 40.1352,112.4844 Q39.6352,113.0625 38.8383,113.3906 Q37.7602,113.8438 36.4633,113.8438 Q34.9477,113.8438 33.7446,113.2188 Q32.7602,112.7188 32.0727,111.6563 Q31.3852,110.5781 31.3852,109.2969 L31.3852,108.1406 Q31.3852,106.8125 31.9946,105.6719 Q32.6196,104.5156 33.7133,103.9063 Q34.8071,103.2813 36.0415,103.2813 Q36.7758,103.2813 37.4165,103.4531 Q38.0727,103.6094 38.6196,103.9688 Z " fill="#000000"/><text fill="#000000" font-family="sans-serif" font-size="14" lengthAdjust="spacing" textLength="119.8477" x="76.0606" y="107.5332">CategoryResponse</text><text fill="#000000" font-family="sans-serif" font-size="10" lengthAdjust="spacing" textLength="165.6592" x="53.1548" y="120.9902">com.monacoevents.eventbooking.dto</text><line style="stroke:#181818;stroke-width:0.5;" x1="7" x2="235.668" y1="128.1875" y2="128.1875"/><ellipse cx="17" cy="142.4922" fill="#84BE84" rx="3" ry="3" style="stroke:#038048;stroke-width:1.0;"/><text fill="#000000" font-family="sans-serif" font-size="14" lengthAdjust="spacing" textLength="204.668" x="26" y="146.7207">CategoryResponse(Long, String)</text><ellipse cx="17" cy="160.1016" fill="#84BE84" rx="3" ry="3" style="stroke:#038048;stroke-width:1.0;"/><text fill="#000000" font-family="sans-serif" font-size="14" lengthAdjust="spacing" textLength="59.1445" x="26" y="164.3301">id(): Long</text><ellipse cx="17" cy="177.7109" fill="#84BE84" rx="3" ry="3" style="stroke:#038048;stroke-width:1.0;"/><text fill="#000000" font-family="sans-serif" font-size="14" lengthAdjust="spacing" textLength="88.6963" x="26" y="181.9395">name(): String</text></g></a><!--class java.lang.Record--><g id="elem_java.lang.Record"><rect codeLine="19" fill="#F1F1F1" height="40.1875" id="java.lang.Record" rx="2.5" ry="2.5" style="stroke:#181818;stroke-width:0.5;" width="77.1309" x="83" y="12"/><ellipse cx="98" cy="32.0938" fill="#A9DCDF" rx="11" ry="11" style="stroke:#181818;stroke-width:1.0;"/><path d="M100.1875,33.8594 L96.0469,33.8594 L95.625,34.8906 L96.0469,34.8906 Q96.6563,34.8906 96.9219,35.125 Q97.1875,35.3594 97.1875,35.75 Q97.1875,36.125 96.9219,36.3594 Q96.6563,36.5938 96.0469,36.5938 L93.75,36.5938 Q93.1406,36.5938 92.8906,36.3594 Q92.625,36.125 92.625,35.7344 Q92.625,35.3594 92.9063,35.125 Q93.1719,34.875 93.7969,34.8906 L96.4688,28.2344 L95.3594,28.2344 Q94.75,28.2344 94.4844,28 Q94.2188,27.7656 94.2188,27.375 Q94.2188,27 94.4844,26.7656 Q94.75,26.5313 95.3594,26.5313 L99.0313,26.5313 L102.4219,34.8906 Q103.0156,34.8906 103.2031,35.0313 Q103.5938,35.2969 103.5938,35.75 Q103.5938,36.125 103.3281,36.3594 Q103.0781,36.5938 102.4688,36.5938 L100.1719,36.5938 Q99.5625,36.5938 99.2969,36.3594 Q99.0313,36.125 99.0313,35.7344 Q99.0313,35.3594 99.2969,35.125 Q99.5625,34.8906 100.1719,34.8906 L100.5938,34.8906 L100.1875,33.8594 Z M99.4688,32.1563 L98.1094,28.7813 L96.7344,32.1563 L99.4688,32.1563 Z " fill="#000000"/><text fill="#000000" font-family="sans-serif" font-size="14" font-style="italic" lengthAdjust="spacing" textLength="45.1309" x="112" y="31.5332">Record</text><text fill="#000000" font-family="sans-serif" font-size="10" font-style="italic" lengthAdjust="spacing" textLength="40.0293" x="114.5508" y="44.9902">java.lang</text></g><polygon fill="none" points="121.5,52.1669,115.5,70.1669,127.5,70.1669,121.5,52.1669" style="stroke:#181818;stroke-width:1.0;"/><path d="M121.5,70.1669 C121.5,80.3016 121.5,75.2572 121.5,87.9947 " fill="none" style="stroke:#181818;stroke-width:1.0;"/><text fill="#888888" font-family="sans-serif" font-size="10" lengthAdjust="spacing" textLength="2.7783" x="116.6108" y="193.3809">&#160;</text><a href="https://github.com/talsma-ict/umldoclet" target="_top" title="https://github.com/talsma-ict/umldoclet" xlink:actuate="onRequest" xlink:href="https://github.com/talsma-ict/umldoclet" xlink:show="new" xlink:title="https://github.com/talsma-ict/umldoclet" xlink:type="simple"><text fill="#888888" font-family="sans-serif" font-size="10" lengthAdjust="spacing" textLength="74.4775" x="80.7612" y="205.959">UMLDoclet 2.2.1</text></a><!--SRC=[dLFRRjD047tlLmpbWLHjDhRJ6r5LgGg8Yu9KDUbJd8V9UceljNVDxhh8GF-TiHsIO92Gi2nPFZDxPkRi7020Lp0rPMrLcddm1doc7Dn_cW7g15BIPD5J0gh0b1oiAJSwTLqY0LO-CnRCG_idZRNaIgCJfLFuY4y8pbHMaXC71z2MMlnY_ufkZtrTD-0R8tFoC9WUxRKK1U7vC0gYSrXWxWg43zE5sB3jpaGY4Y4mTwuaQSUKbKx8jctTb2ZvC-iY9_14rYcZ-KomuMb6bKPxLDf1YTQxPgJR7BLlUWq5rpyL5p2ucSz-xorutVPs0ZTMOvN0dVbIRSTzKLfCkUCSQrDvS0LvrDZ573UjiM2vKDASk2XwLb8RJMqyKma15QMluK5HdhW-ocIPORZ5POxEmU6LKzze4fvUJrdLrDZwhhqEHx7UX89hQGfH68tIq1DfxqJxMHlpo9Sc4cyEWQ_cdrcYNmAMIo7YtklHfkHZIwLXKMCiLMAaYvaztcUFzzbZPe_xx2BpHRvQmVTstEOvxgSCPhoP9p3tbacETdag6HnDe0dki4Rv1ksIM_ovKnBNpbkK_Wz9xuZNEzaJyZFlj-0LILl1jd-YI-pO-YXS_HWE_qFSZktA-Jgdw-qO3yPutl6T9itplYx9pfH-d9gS5-hbvT-ZzuqzSgM97IaVDV6imJRpkIitsgktgHNhvJBpldIJqIXLFglMWgSP-TQQGoNzg2hofFDapvshrSPjxxQsRwmp32w6mVaY32RXU1AUYV7uBBeSixEEWsWI1CktbJKbZMxHAhVw2G00]--></g></svg>