<svg xmlns="http://www.w3.org/2000/svg" xmlns:xlink="http://www.w3.org/1999/xlink" contentStyleType="text/css" height="100%" preserveAspectRatio="none" style="width:100%;height:100%;background:#FFFFFF;" version="1.1" viewBox="0 0 708 501" width="100%" zoomAndPan="magnify"><defs/><g><!--class com.monacoevents.eventbooking.dto.EventResponse--><a href="..\..\..\..\..\..\target\reports\apidocs\com\monacoevents\eventbooking\dto\EventResponse.html" target="_top" title="..\..\..\..\..\..\target\reports\apidocs\com\monacoevents\eventbooking\dto\EventResponse.html" xlink:actuate="onRequest" xlink:href="..\..\..\..\..\..\target\reports\apidocs\com\monacoevents\eventbooking\dto\EventResponse.html" xlink:show="new" xlink:title="..\..\..\..\..\..\target\reports\apidocs\com\monacoevents\eventbooking\dto\EventResponse.html" xlink:type="simple"><g id="elem_com.monacoevents.eventbooking.dto.EventResponse"><rect codeLine="26" fill="#F4F8FB" height="351.8691" id="com.monacoevents.eventbooking.dto.EventResponse" rx="4" ry="4" style="stroke:#2C6E8C;stroke-width:0.5;" width="694.481" x="7" y="108.92"/><ellipse cx="261.3" cy="129.8809" fill="#ADD1B2" rx="10" ry="10" style="stroke:#181818;stroke-width:1.0;"/><path d="M262.2375,126.5216 Q262.3625,126.3497 262.5032,126.2716 Q262.6438,126.1934 262.8157,126.1934 Q263.0969,126.1934 263.2688,126.3966 Q263.4563,126.5841 263.4563,127.0528 L263.4563,128.1622 Q263.4563,128.6309 263.2688,128.8341 Q263.0969,129.0216 262.8157,129.0216 Q262.55,129.0216 262.3938,128.8809 Q262.2375,128.7403 262.1594,128.3341 Q262.1125,128.0684 261.9875,127.9278 Q261.7219,127.6309 261.2532,127.4591 Q260.7844,127.2872 260.3157,127.2872 Q259.7375,127.2872 259.2375,127.5528 Q258.7532,127.8028 258.3782,128.3809 Q258.0032,128.9434 258.0032,129.7247 L258.0032,130.5684 Q258.0032,131.5059 258.6907,132.1466 Q259.3782,132.7716 260.5813,132.7716 Q261.3157,132.7716 261.8157,132.5684 Q262.0969,132.4591 262.425,132.1153 Q262.6282,131.9122 262.7375,131.8653 Q262.8625,131.8028 263.0032,131.8028 Q263.2688,131.8028 263.4563,132.0059 Q263.6594,132.1934 263.6594,132.4591 Q263.6594,132.7247 263.3938,133.0372 Q263.0032,133.4747 262.3938,133.7247 Q261.5813,134.0684 260.5969,134.0684 Q259.4407,134.0684 258.5032,133.5997 Q257.7532,133.2091 257.2219,132.3966 Q256.7063,131.5684 256.7063,130.5997 L256.7063,129.7091 Q256.7063,128.6934 257.175,127.8184 Q257.6594,126.9434 258.4875,126.4747 Q259.3313,125.9903 260.2688,125.9903 Q260.8313,125.9903 261.3157,126.1309 Q261.8157,126.2559 262.2375,126.5216 Z " fill="#000000"/><text fill="#14324A" font-family="Segoe UI" font-size="14" lengthAdjust="spacing" textLength="98.8477" x="319.8167" y="129.0274">EventResponse</text><text fill="#14324A" font-family="Segoe UI" font-size="10" lengthAdjust="spacing" textLength="177.8809" x="280.3" y="143.3321">com.monacoevents.eventbooking.dto</text><line style="stroke:#2C6E8C;stroke-width:0.5;" x1="8" x2="700.481" y1="150.8419" y2="150.8419"/><rect fill="none" height="6" style="stroke:#C82930;stroke-width:1.0;" width="6" x="15" y="161.9874"/><text fill="#000000" font-family="Segoe UI" font-size="13" lengthAdjust="spacing" textLength="49.3594" x="26" y="168.8702">id: Long</text><rect fill="none" height="6" style="stroke:#C82930;stroke-width:1.0;" width="6" x="15" y="179.2784"/><text fill="#000000" font-family="Segoe UI" font-size="13" lengthAdjust="spacing" textLength="68.7769" x="26" y="186.1612">title: String</text><rect fill="none" height="6" style="stroke:#C82930;stroke-width:1.0;" width="6" x="15" y="196.5694"/><text fill="#000000" font-family="Segoe UI" font-size="13" lengthAdjust="spacing" textLength="112.7725" x="26" y="203.4522">description: String</text><rect fill="none" height="6" style="stroke:#C82930;stroke-width:1.0;" width="6" x="15" y="213.8604"/><text fill="#000000" font-family="Segoe UI" font-size="13" lengthAdjust="spacing" textLength="160.2656" x="26" y="220.7432">eventDate: LocalDateTime</text><rect fill="none" height="6" style="stroke:#C82930;stroke-width:1.0;" width="6" x="15" y="231.1514"/><text fill="#000000" font-family="Segoe UI" font-size="13" lengthAdjust="spacing" textLength="101.7212" x="26" y="238.0343">capacity: Integer</text><rect fill="none" height="6" style="stroke:#C82930;stroke-width:1.0;" width="6" x="15" y="248.4425"/><text fill="#000000" font-family="Segoe UI" font-size="13" lengthAdjust="spacing" textLength="106.5391" x="26" y="255.3253">price: BigDecimal</text><rect fill="none" height="6" style="stroke:#C82930;stroke-width:1.0;" width="6" x="15" y="265.7335"/><text fill="#000000" font-family="Segoe UI" font-size="13" lengthAdjust="spacing" textLength="140.2832" x="26" y="272.6163">venue: VenueResponse</text><rect fill="none" height="6" style="stroke:#C82930;stroke-width:1.0;" width="6" x="15" y="283.0245"/><text fill="#000000" font-family="Segoe UI" font-size="13" lengthAdjust="spacing" textLength="173.8306" x="26" y="289.9073">category: CategoryResponse</text><line style="stroke:#2C6E8C;stroke-width:0.5;" x1="8" x2="700.481" y1="297.17" y2="297.17"/><ellipse cx="18" cy="311.3155" fill="#84BE84" rx="3" ry="3" style="stroke:#038048;stroke-width:1.0;"/><text fill="#000000" font-family="Segoe UI" font-size="13" lengthAdjust="spacing" textLength="669.481" x="26" y="315.1983">EventResponse(Long, String, String, LocalDateTime, Integer, BigDecimal, VenueResponse, CategoryResponse)</text><ellipse cx="18" cy="328.6065" fill="#84BE84" rx="3" ry="3" style="stroke:#038048;stroke-width:1.0;"/><text fill="#000000" font-family="Segoe UI" font-size="13" lengthAdjust="spacing" textLength="58.957" x="26" y="332.4893">id(): Long</text><ellipse cx="18" cy="345.8975" fill="#84BE84" rx="3" ry="3" style="stroke:#038048;stroke-width:1.0;"/><text fill="#000000" font-family="Segoe UI" font-size="13" lengthAdjust="spacing" textLength="78.3745" x="26" y="349.7804">title(): String</text><ellipse cx="18" cy="363.1886" fill="#84BE84" rx="3" ry="3" style="stroke:#038048;stroke-width:1.0;"/><text fill="#000000" font-family="Segoe UI" font-size="13" lengthAdjust="spacing" textLength="122.3701" x="26" y="367.0714">description(): String</text><ellipse cx="18" cy="380.4796" fill="#84BE84" rx="3" ry="3" style="stroke:#038048;stroke-width:1.0;"/><text fill="#000000" font-family="Segoe UI" font-size="13" lengthAdjust="spacing" textLength="169.8633" x="26" y="384.3624">eventDate(): LocalDateTime</text><ellipse cx="18" cy="397.7706" fill="#84BE84" rx="3" ry="3" style="stroke:#038048;stroke-width:1.0;"/><text fill="#000000" font-family="Segoe UI" font-size="13" lengthAdjust="spacing" textLength="111.3188" x="26" y="401.6534">capacity(): Integer</text><ellipse cx="18" cy="415.0616" fill="#84BE84" rx="3" ry="3" style="stroke:#038048;stroke-width:1.0;"/><text fill="#000000" font-family="Segoe UI" font-size="13" lengthAdjust="spacing" textLength="116.1367" x="26" y="418.9444">price(): BigDecimal</text><ellipse cx="18" cy="432.3526" fill="#84BE84" rx="3" ry="3" style="stroke:#038048;stroke-width:1.0;"/><text fill="#000000" font-family="Segoe UI" font-size="13" lengthAdjust="spacing" textLength="149.8809" x="26" y="436.2354">venue(): VenueResponse</text><ellipse cx="18" cy="449.6436" fill="#84BE84" rx="3" ry="3" style="stroke:#038048;stroke-width:1.0;"/><text fill="#000000" font-family="Segoe UI" font-size="13" lengthAdjust="spacing" textLength="183.4282" x="26" y="453.5264">category(): CategoryResponse</text></g></a><!--class java.lang.Record--><g id="elem_java.lang.Record"><rect codeLine="46" fill="#F4F8FB" height="41.9219" id="java.lang.Record" rx="4" ry="4" style="stroke:#2C6E8C;stroke-width:0.5;" width="71.1182" x="318.68" y="7"/><ellipse cx="332.68" cy="27.9609" fill="#A9DCDF" rx="10" ry="10" style="stroke:#181818;stroke-width:1.0;"/><path d="M334.6644,29.1172 L331.5081,29.1172 L331.1956,29.9141 L331.5081,29.9141 Q331.9769,29.9141 332.18,30.1016 Q332.3831,30.2734 332.3831,30.5703 Q332.3831,30.8516 332.18,31.0391 Q331.9769,31.2109 331.5081,31.2109 L329.7581,31.2109 Q329.2894,31.2109 329.0863,31.0391 Q328.8831,30.8516 328.8831,30.5547 Q328.8831,30.2578 329.1019,30.0859 Q329.305,29.8984 329.7894,29.9141 L331.8363,24.8203 L330.9769,24.8203 Q330.5081,24.8203 330.305,24.6484 Q330.1175,24.4609 330.1175,24.1641 Q330.1175,23.8672 330.305,23.6953 Q330.5081,23.5078 330.9769,23.5078 L333.7894,23.5234 L336.3831,29.9141 Q336.8363,29.9141 336.9925,30.0078 Q337.2738,30.2266 337.2738,30.5703 Q337.2738,30.8516 337.0706,31.0391 Q336.8831,31.2109 336.4144,31.2109 L334.6644,31.2109 Q334.1956,31.2109 333.9925,31.0391 Q333.7894,30.8516 333.7894,30.5547 Q333.7894,30.2734 333.9925,30.1016 Q334.1956,29.9141 334.6644,29.9141 L334.9769,29.9141 L334.6644,29.1172 Z M334.1331,27.8203 L333.0863,25.2422 L332.0238,27.8203 L334.1331,27.8203 Z " fill="#000000"/><text fill="#14324A" font-family="Segoe UI" font-size="14" font-style="italic" lengthAdjust="spacing" textLength="41.1182" x="345.68" y="27.1074">Record</text><text fill="#14324A" font-family="Segoe UI" font-size="10" font-style="italic" lengthAdjust="spacing" textLength="39.1992" x="346.6395" y="41.4121">java.lang</text></g><!--reverse link java.lang.Record to com.monacoevents.eventbooking.dto.EventResponse--><g id="link_java.lang.Record_com.monacoevents.eventbooking.dto.EventResponse"><path codeLine="48" d="M354.24,67.39 C354.24,81.92 354.24,85 354.24,108.65 " fill="none" id="java.lang.Record-backto-com.monacoevents.eventbooking.dto.EventResponse" style="stroke:#2C6E8C;stroke-width:1.0;"/><polygon fill="none" points="354.24,49.39,348.24,67.39,360.24,67.39,354.24,49.39" style="stroke:#2C6E8C;stroke-width:1.0;"/></g><text fill="#888888" font-family="Segoe UI" font-size="10" lengthAdjust="spacing" textLength="2.7588" x="345.8611" y="477.5802">&#160;</text><a href="https://github.com/talsma-ict/umldoclet" target="_top" title="https://github.com/talsma-ict/umldoclet" xlink:actuate="onRequest" xlink:href="https://github.com/talsma-ict/umldoclet" xlink:show="new" xlink:title="https://github.com/talsma-ict/umldoclet" xlink:type="simple"><text fill="#888888" font-family="Segoe UI" font-size="10" lengthAdjust="spacing" textLength="77.7783" x="308.3513" y="490.8809">UMLDoclet 2.2.1</text></a><!--SRC=[bLLTR-f647s_ls9w-z14W34E8LmKHUApJKMhgq3w0Zmizc2ssBlkxZeHRUz_xwnjm1YYgneaspF7PsRExkm00Fm4Gvdi5G-t1em4i-KQNd-R0XC1X2XGCOC1y9Y5g66DaHIXpe48B3LRgK1kiZTVAeKwaIBW8eHVsHi3BLFbetO-VO8irFp0_ivqYNszjyQHz2CqS3EyBQNakQrEmtEz3inPf6C6pyEvKx2Tll4Spsa1SKVSHw69CXK1gYojVi9ykarpJntUK6ak1NtZ5ZosL5yAmxZGa31bj2tfQyI4iRcs78hVTXxWfZ-RdkVcVibogqDV2PO6y2B_Ie_bwXqNnCPYq5iMo7UhoeQAm8fNIKfsA1Mf0TsABy0DIoCpeUn-Pp7234E9yFhyCMp6_qPetLK0ViIq7Z1_5nRH8bgt7oVjINSok0gLYlGhODwmC-uEhy7wIidtxw9iMWMerRxpslqAY0k3QiDyl4Xmt9zq9kw7yBCanr_6dMfuMleTRTpBmWVq6tq0BhCEkiFsoBqEB9LrTzT-kC-5_25HBAHz6h6zJ0q4qXIxWRQfe2NKz3NEq38P-bH8aU-7BGyGC4xC7ZOSeq1NhJ5Iiv4visUwmkT7JQlTQxMVncyep4lMVHgNeh2xJxwCdLWAvakq2ErajxMKL4pe14P-1kh4xwASCtvOB1ndMVaRfa8qIuM9f0PQieG7qjTBebwMgPTbwYLHBy-edQs9ezKA_icgj5U31psOqgbpiXXk8kp1p2XUDWUeVSKJGyrzwSp2ZkYqiMG-Y-pZdCTuGlYCLeQRVG-UQOE5g4wkHD7XqOC13qVeqr4OdLn4cvBh3tix557c92QfY7DOF5rWQcVrtzXAwqNsf_jPolL3WlLIHlNp5EeN0MzF4NbmSrlHj9PfQiqLuMebLQ-vZxhcbDUKhHsKjP2gjhLCM-kvecujKzSwh-jRE-Xh8LSL_fQt2rjhevXlBlhc1Mbg1QM6-PF6baCdVvWrnl7DoO4vMzKAZ_ys6l-tYNAgHsts4JuTAzf8IOTRQVlRwvTzWchAnQuuRRhNlQzsv4LS84rPVoUG2dMFo6zvk6OfNX5hAHQBhJ69xZMR8JVRTErGAKsJZTi6zqqpZQCWdxELYRjQ5HFqv-Cej-EmuJuqtCwyrUwrxtlUlTFslEvzj-MwDTVhkUvYd2gPOFChKrol_WC0]--></g></svg>