<svg xmlns="http://www.w3.org/2000/svg" xmlns:xlink="http://www.w3.org/1999/xlink" contentStyleType="text/css" height="304px" preserveAspectRatio="none" style="width:526px;height:304px;background:#FFFFFF;" version="1.1" viewBox="0 0 526 304" width="526px" zoomAndPan="magnify"><defs/><g><!--class com.monacoevents.eventbooking.dto.EventRequest--><a href="..\..\..\..\..\..\target\reports\apidocs\com\monacoevents\eventbooking\dto\EventRequest.html" target="_top" title="..\..\..\..\..\..\target\reports\apidocs\com\monacoevents\eventbooking\dto\EventRequest.html" xlink:actuate="onRequest" xlink:href="..\..\..\..\..\..\target\reports\apidocs\com\monacoevents\eventbooking\dto\EventRequest.html" xlink:show="new" xlink:title="..\..\..\..\..\..\target\reports\apidocs\com\monacoevents\eventbooking\dto\EventRequest.html" xlink:type="simple"><g id="elem_com.monacoevents.eventbooking.dto.EventRequest"><rect codeLine="13" fill="#F1F1F1" height="189.0625" id="com.monacoevents.eventbooking.dto.EventRequest" rx="2.5" ry="2.5" style="stroke:#181818;stroke-width:0.5;" width="513.915" x="6" y="88"/><ellipse cx="175.8779" cy="108.0938" fill="#ADD1B2" rx="11" ry="11" style="stroke:#181818;stroke-width:1.0;"/><path d="M178.6436,103.9688 Q178.7998,103.75 178.9873,103.6406 Q179.1748,103.5313 179.3936,103.5313 Q179.7686,103.5313 180.0029,103.7969 Q180.2373,104.0469 180.2373,104.6563 L180.2373,106.1094 Q180.2373,106.7188 180.0029,106.9844 Q179.7686,107.25 179.3936,107.25 Q179.0498,107.25 178.8467,107.0469 Q178.6436,106.8594 178.5342,106.3438 Q178.4873,105.9844 178.2998,105.7969 Q177.9717,105.4219 177.3623,105.2031 Q176.7529,104.9844 176.1279,104.9844 Q175.3623,104.9844 174.7217,105.3125 Q174.0967,105.6406 173.5967,106.3906 Q173.1123,107.1406 173.1123,108.1719 L173.1123,109.2656 Q173.1123,110.5 174.0029,111.3281 Q174.8936,112.1406 176.4873,112.1406 Q177.4248,112.1406 178.0811,111.8906 Q178.4717,111.7344 178.8936,111.2969 Q179.1592,111.0313 179.2998,110.9531 Q179.4561,110.875 179.6592,110.875 Q179.9873,110.875 180.2373,111.1406 Q180.5029,111.3906 180.5029,111.7344 Q180.5029,112.0781 180.1592,112.4844 Q179.6592,113.0625 178.8623,113.3906 Q177.7842,113.8438 176.4873,113.8438 Q174.9717,113.8438 173.7686,113.2188 Q172.7842,112.7188 172.0967,111.6563 Q171.4092,110.5781 171.4092,109.2969 L171.4092,108.1406 Q171.4092,106.8125 172.0186,105.6719 Q172.6436,104.5156 173.7373,103.9063 Q174.8311,103.2813 176.0654,103.2813 Q176.7998,103.2813 177.4404,103.4531 Q178.0967,103.6094 178.6436,103.9688 Z " fill="#000000"/><text fill="#000000" font-family="sans-serif" font-size="14" lengthAdjust="spacing" textLength="87.9443" x="235.2354" y="107.5332">EventRequest</text><text fill="#000000" font-family="sans-serif" font-size="10" lengthAdjust="spacing" textLength="165.6592" x="196.3779" y="120.9902">com.monacoevents.eventbooking.dto</text><line style="stroke:#181818;stroke-width:0.5;" x1="7" x2="518.915" y1="128.1875" y2="128.1875"/><ellipse cx="17" cy="142.4922" fill="#84BE84" rx="3" ry="3" style="stroke:#038048;stroke-width:1.0;"/><text fill="#000000" font-family="sans-serif" font-size="14" lengthAdjust="spacing" textLength="487.915" x="26" y="146.7207">EventRequest(String, String, LocalDateTime, Integer, BigDecimal, Long, Long)</text><ellipse cx="17" cy="160.1016" fill="#84BE84" rx="3" ry="3" style="stroke:#038048;stroke-width:1.0;"/><text fill="#000000" font-family="sans-serif" font-size="14" lengthAdjust="spacing" textLength="75.4619" x="26" y="164.3301">title(): String</text><ellipse cx="17" cy="177.7109" fill="#84BE84" rx="3" ry="3" style="stroke:#038048;stroke-width:1.0;"/><text fill="#000000" font-family="sans-serif" font-size="14" lengthAdjust="spacing" textLength="121.3789" x="26" y="181.9395">description(): String</text><ellipse cx="17" cy="195.3203" fill="#84BE84" rx="3" ry="3" style="stroke:#038048;stroke-width:1.0;"/><text fill="#000000" font-family="sans-serif" font-size="14" lengthAdjust="spacing" textLength="175.0752" x="26" y="199.5488">eventDate(): LocalDateTime</text><ellipse cx="17" cy="212.9297" fill="#84BE84" rx="3" ry="3" style="stroke:#038048;stroke-width:1.0;"/><text fill="#000000" font-family="sans-serif" font-size="14" lengthAdjust="spacing" textLength="112.0479" x="26" y="217.1582">capacity(): Integer</text><ellipse cx="17" cy="230.5391" fill="#84BE84" rx="3" ry="3" style="stroke:#038048;stroke-width:1.0;"/><text fill="#000000" font-family="sans-serif" font-size="14" lengthAdjust="spacing" textLength="118.248" x="26" y="234.7676">price(): BigDecimal</text><ellipse cx="17" cy="248.1484" fill="#84BE84" rx="3" ry="3" style="stroke:#038048;stroke-width:1.0;"/><text fill="#000000" font-family="sans-serif" font-size="14" lengthAdjust="spacing" textLength="98.0684" x="26" y="252.377">venueId(): Long</text><ellipse cx="17" cy="265.7578" fill="#84BE84" rx="3" ry="3" style="stroke:#038048;stroke-width:1.0;"/><text fill="#000000" font-family="sans-serif" font-size="14" lengthAdjust="spacing" textLength="113.6201" x="26" y="269.9863">categoryId(): Long</text></g></a><!--class java.lang.Record--><g id="elem_java.lang.Record"><rect codeLine="24" fill="#F1F1F1" height="40.1875" id="java.lang.Record" rx="2.5" ry="2.5" style="stroke:#181818;stroke-width:0.5;" width="77.1309" x="224.5" y="12"/><ellipse cx="239.5" cy="32.0938" fill="#A9DCDF" rx="11" ry="11" style="stroke:#181818;stroke-width:1.0;"/><path d="M241.6875,33.8594 L237.5469,33.8594 L237.125,34.8906 L237.5469,34.8906 Q238.1563,34.8906 238.4219,35.125 Q238.6875,35.3594 238.6875,35.75 Q238.6875,36.125 238.4219,36.3594 Q238.1563,36.5938 237.5469,36.5938 L235.25,36.5938 Q234.6406,36.5938 234.3906,36.3594 Q234.125,36.125 234.125,35.7344 Q234.125,35.3594 234.4063,35.125 Q234.6719,34.875 235.2969,34.8906 L237.9688,28.2344 L236.8594,28.2344 Q236.25,28.2344 235.9844,28 Q235.7188,27.7656 235.7188,27.375 Q235.7188,27 235.9844,26.7656 Q236.25,26.5313 236.8594,26.5313 L240.5313,26.5313 L243.9219,34.8906 Q244.5156,34.8906 244.7031,35.0313 Q245.0938,35.2969 245.0938,35.75 Q245.0938,36.125 244.8281,36.3594 Q244.5781,36.5938 243.9688,36.5938 L241.6719,36.5938 Q241.0625,36.5938 240.7969,36.3594 Q240.5313,36.125 240.5313,35.7344 Q240.5313,35.3594 240.7969,35.125 Q241.0625,34.8906 241.6719,34.8906 L242.0938,34.8906 L241.6875,33.8594 Z M240.9688,32.1563 L239.6094,28.7813 L238.2344,32.1563 L240.9688,32.1563 Z " fill="#000000"/><text fill="#000000" font-family="sans-serif" font-size="14" font-style="italic" lengthAdjust="spacing" textLength="45.1309" x="253.5" y="31.5332">Record</text><text fill="#000000" font-family="sans-serif" font-size="10" font-style="italic" lengthAdjust="spacing" textLength="40.0293" x="256.0508" y="44.9902">java.lang</text></g><polygon fill="none" points="263,52.1098,257,70.1098,269,70.1098,263,52.1098" style="stroke:#181818;stroke-width:1.0;"/><path d="M263,70.1098 C263,79.8233 263,74.4212 263,87.9366 " fill="none" style="stroke:#181818;stroke-width:1.0;"/><text fill="#888888" font-family="sans-serif" font-size="10" lengthAdjust="spacing" textLength="2.7783" x="258.1108" y="281.3809">&#160;</text><a href="https://github.com/talsma-ict/umldoclet" target="_top" title="https://github.com/talsma-ict/umldoclet" xlink:actuate="onRequest" xlink:href="https://github.com/talsma-ict/umldoclet" xlink:show="new" xlink:title="https://github.com/talsma-ict/umldoclet" xlink:type="simple"><text fill="#888888" font-family="sans-serif" font-size="10" lengthAdjust="spacing" textLength="74.4775" x="222.2612" y="293.959">UMLDoclet 2.2.1</text></a><!--SRC=[bLHDJzj04BtpAwRqK139nWaKGeIGQAXQgbH244vn3flrO6-nTztTCPNRyjyxjaDiKgIgbYNBysRVlDdv001u1rERbqx72G5Pe4HxkFiw0saYYD6WauGHw4p6w665gJMnRnmHP469TM3lwpzbdKEVMnDf4yCN-IZ1sy8fz69d1-fGysVs7z9ts5TbPRoqAaM2lUb-Hz8e61xtHy7e6EOozPc4g-bShDdQCoCn4aDWxbGhD9uf2nEXgsLTv5BnPzOWFNX4vxKrV2POyrIfAcj8QkCXbuvybT9rAWrLMeU2un-94zYxk9szr1QSrjfwSE6CB2AuiT-BJRflSYTZLfpAqXO4FaEIHZQOPz56PdnTKk4jSb19V9F66gpnH4S8cELKmht6DFBRLYPBB9jhkqgbzx1xvlLFd0oFpZy-eg4RhBHGQDRcu5pPJ6JMI6MnSl2Y_goiVU22YOZiBd1P_kabklImM0WHRhqaNOmKEimjNsOeSnrPvKDc3hlCOPSvPEQmoomIojBb4dxLALRFGHVUkoN7nthm_9rP9TDBxgUvphZCLuOmHjU33pg-HCKDd5O-ZQU9zrjMqfJYtlvapTG24NhbT4xSBQ_1jVegO0M-YDxwACa5rbHMBcj5BPWxxiaAQIMs89CNU1KrtDsmYeF4rfLRs5FJ2dBboKb5V_N43V9yHfrk-CO3AhZ7uxhgcp_HE3PisrOu-ztl_sU7D4nddieKppTft5jBFA1jSQldSvcZcsdpCBKfJyFRyUleNJNRgJR8wqGz6EGyWutdKnDkq8ctZXMQnI8XolraC8Wr9SLAS2O3glTANoiQ55aQDGjbQxKib-jLyMcpiwgvxmSd_U1uFWmcmyF9yBquF1gFJyUdGN0GZ2P1iFXOE9lZu5ewxPT_0000]--></g></svg>