<svg xmlns="http://www.w3.org/2000/svg" xmlns:xlink="http://www.w3.org/1999/xlink" contentStyleType="text/css" height="322px" preserveAspectRatio="none" style="width:737px;height:322px;background:#FFFFFF;" version="1.1" viewBox="0 0 737 322" width="737px" zoomAndPan="magnify"><defs/><g><!--class com.monacoevents.eventbooking.dto.EventResponse--><a href="..\..\..\..\..\..\target\reports\apidocs\com\monacoevents\eventbooking\dto\EventResponse.html" target="_top" title="..\..\..\..\..\..\target\reports\apidocs\com\monacoevents\eventbooking\dto\EventResponse.html" xlink:actuate="onRequest" xlink:href="..\..\..\..\..\..\target\reports\apidocs\com\monacoevents\eventbooking\dto\EventResponse.html" xlink:show="new" xlink:title="..\..\..\..\..\..\target\reports\apidocs\com\monacoevents\eventbooking\dto\EventResponse.html" xlink:type="simple"><g id="elem_com.monacoevents.eventbooking.dto.EventResponse"><rect codeLine="13" fill="#F1F1F1" height="206.6719" id="com.monacoevents.eventbooking.dto.EventResponse" rx="2.5" ry="2.5" style="stroke:#181818;stroke-width:0.5;" width="724.8174" x="6" y="88"/><ellipse cx="281.3291" cy="108.0938" fill="#ADD1B2" rx="11" ry="11" style="stroke:#181818;stroke-width:1.0;"/><path d="M284.0947,103.9688 Q284.251,103.75 284.4385,103.6406 Q284.626,103.5313 284.8447,103.5313 Q285.2197,103.5313 285.4541,103.7969 Q285.6885,104.0469 285.6885,104.6563 L285.6885,106.1094 Q285.6885,106.7188 285.4541,106.9844 Q285.2197,107.25 284.8447,107.25 Q284.501,107.25 284.2979,107.0469 Q284.0947,106.8594 283.9854,106.3438 Q283.9385,105.9844 283.751,105.7969 Q283.4229,105.4219 282.8135,105.2031 Q282.2041,104.9844 281.5791,104.9844 Q280.8135,104.9844 280.1729,105.3125 Q279.5479,105.6406 279.0479,106.3906 Q278.5635,107.1406 278.5635,108.1719 L278.5635,109.2656 Q278.5635,110.5 279.4541,111.3281 Q280.3447,112.1406 281.9385,112.1406 Q282.876,112.1406 283.5322,111.8906 Q283.9229,111.7344 284.3447,111.2969 Q284.6104,111.0313 284.751,110.9531 Q284.9072,110.875 285.1104,110.875 Q285.4385,110.875 285.6885,111.1406 Q285.9541,111.3906 285.9541,111.7344 Q285.9541,112.0781 285.6104,112.4844 Q285.1104,113.0625 284.3135,113.3906 Q283.2354,113.8438 281.9385,113.8438 Q280.4229,113.8438 279.2197,113.2188 Q278.2354,112.7188 277.5479,111.6563 Q276.8604,110.5781 276.8604,109.2969 L276.8604,108.1406 Q276.8604,106.8125 277.4697,105.6719 Q278.0947,104.5156 279.1885,103.9063 Q280.2822,103.2813 281.5166,103.2813 Q282.251,103.2813 282.8916,103.4531 Q283.5479,103.6094 284.0947,103.9688 Z " fill="#000000"/><text fill="#000000" font-family="sans-serif" font-size="14" lengthAdjust="spacing" textLength="98.8408" x="335.2383" y="107.5332">EventResponse</text><text fill="#000000" font-family="sans-serif" font-size="10" lengthAdjust="spacing" textLength="165.6592" x="301.8291" y="120.9902">com.monacoevents.eventbooking.dto</text><line style="stroke:#181818;stroke-width:0.5;" x1="7" x2="729.8174" y1="128.1875" y2="128.1875"/><ellipse cx="17" cy="142.4922" fill="#84BE84" rx="3" ry="3" style="stroke:#038048;stroke-width:1.0;"/><text fill="#000000" font-family="sans-serif" font-size="14" lengthAdjust="spacing" textLength="698.8174" x="26" y="146.7207">EventResponse(Long, String, String, LocalDateTime, Integer, BigDecimal, VenueResponse, CategoryResponse)</text><ellipse cx="17" cy="160.1016" fill="#84BE84" rx="3" ry="3" style="stroke:#038048;stroke-width:1.0;"/><text fill="#000000" font-family="sans-serif" font-size="14" lengthAdjust="spacing" textLength="59.1445" x="26" y="164.3301">id(): Long</text><ellipse cx="17" cy="177.7109" fill="#84BE84" rx="3" ry="3" style="stroke:#038048;stroke-width:1.0;"/><text fill="#000000" font-family="sans-serif" font-size="14" lengthAdjust="spacing" textLength="75.4619" x="26" y="181.9395">title(): String</text><ellipse cx="17" cy="195.3203" fill="#84BE84" rx="3" ry="3" style="stroke:#038048;stroke-width:1.0;"/><text fill="#000000" font-family="sans-serif" font-size="14" lengthAdjust="spacing" textLength="121.3789" x="26" y="199.5488">description(): String</text><ellipse cx="17" cy="212.9297" fill="#84BE84" rx="3" ry="3" style="stroke:#038048;stroke-width:1.0;"/><text fill="#000000" font-family="sans-serif" font-size="14" lengthAdjust="spacing" textLength="175.0752" x="26" y="217.1582">eventDate(): LocalDateTime</text><ellipse cx="17" cy="230.5391" fill="#84BE84" rx="3" ry="3" style="stroke:#038048;stroke-width:1.0;"/><text fill="#000000" font-family="sans-serif" font-size="14" lengthAdjust="spacing" textLength="112.0479" x="26" y="234.7676">capacity(): Integer</text><ellipse cx="17" cy="248.1484" fill="#84BE84" rx="3" ry="3" style="stroke:#038048;stroke-width:1.0;"/><text fill="#000000" font-family="sans-serif" font-size="14" lengthAdjust="spacing" textLength="118.248" x="26" y="252.377">price(): BigDecimal</text><ellipse cx="17" cy="265.7578" fill="#84BE84" rx="3" ry="3" style="stroke:#038048;stroke-width:1.0;"/><text fill="#000000" font-family="sans-serif" font-size="14" lengthAdjust="spacing" textLength="158.7715" x="26" y="269.9863">venue(): VenueResponse</text><ellipse cx="17" cy="283.3672" fill="#84BE84" rx="3" ry="3" style="stroke:#038048;stroke-width:1.0;"/><text fill="#000000" font-family="sans-serif" font-size="14" lengthAdjust="spacing" textLength="190.6475" x="26" y="287.5957">category(): CategoryResponse</text></g></a><!--class java.lang.Record--><g id="elem_java.lang.Record"><rect codeLine="25" fill="#F1F1F1" height="40.1875" id="java.lang.Record" rx="2.5" ry="2.5" style="stroke:#181818;stroke-width:0.5;" width="77.1309" x="330" y="12"/><ellipse cx="345" cy="32.0938" fill="#A9DCDF" rx="11" ry="11" style="stroke:#181818;stroke-width:1.0;"/><path d="M347.1875,33.8594 L343.0469,33.8594 L342.625,34.8906 L343.0469,34.8906 Q343.6563,34.8906 343.9219,35.125 Q344.1875,35.3594 344.1875,35.75 Q344.1875,36.125 343.9219,36.3594 Q343.6563,36.5938 343.0469,36.5938 L340.75,36.5938 Q340.1406,36.5938 339.8906,36.3594 Q339.625,36.125 339.625,35.7344 Q339.625,35.3594 339.9063,35.125 Q340.1719,34.875 340.7969,34.8906 L343.4688,28.2344 L342.3594,28.2344 Q341.75,28.2344 341.4844,28 Q341.2188,27.7656 341.2188,27.375 Q341.2188,27 341.4844,26.7656 Q341.75,26.5313 342.3594,26.5313 L346.0313,26.5313 L349.4219,34.8906 Q350.0156,34.8906 350.2031,35.0313 Q350.5938,35.2969 350.5938,35.75 Q350.5938,36.125 350.3281,36.3594 Q350.0781,36.5938 349.4688,36.5938 L347.1719,36.5938 Q346.5625,36.5938 346.2969,36.3594 Q346.0313,36.125 346.0313,35.7344 Q346.0313,35.3594 346.2969,35.125 Q346.5625,34.8906 347.1719,34.8906 L347.5938,34.8906 L347.1875,33.8594 Z M346.4688,32.1563 L345.1094,28.7813 L343.7344,32.1563 L346.4688,32.1563 Z " fill="#000000"/><text fill="#000000" font-family="sans-serif" font-size="14" font-style="italic" lengthAdjust="spacing" textLength="45.1309" x="359" y="31.5332">Record</text><text fill="#000000" font-family="sans-serif" font-size="10" font-style="italic" lengthAdjust="spacing" textLength="40.0293" x="361.5508" y="44.9902">java.lang</text></g><polygon fill="none" points="368.5,52.3126,362.5,70.3126,374.5,70.3126,368.5,52.3126" style="stroke:#181818;stroke-width:1.0;"/><path d="M368.5,70.3126 C368.5,79.9233 368.5,74.3576 368.5,87.8233 " fill="none" style="stroke:#181818;stroke-width:1.0;"/><text fill="#888888" font-family="sans-serif" font-size="10" lengthAdjust="spacing" textLength="2.7783" x="363.6108" y="299.3809">&#160;</text><a href="https://github.com/talsma-ict/umldoclet" target="_top" title="https://github.com/talsma-ict/umldoclet" xlink:actuate="onRequest" xlink:href="https://github.com/talsma-ict/umldoclet" xlink:show="new" xlink:title="https://github.com/talsma-ict/umldoclet" xlink:type="simple"><text fill="#888888" font-family="sans-serif" font-size="10" lengthAdjust="spacing" textLength="74.4775" x="327.7612" y="311.959">UMLDoclet 2.2.1</text></a><!--SRC=[bLJlRzCm4Fs-l-8O7zYqrasxNwoQ9eqEmL2Hq5RuqlI3wznIiyGEzgMemFvtpadNf0K94KMoSk_oxfxzV000hs1aYvNJwOA0BD12U_ZySGpI992YGIS94z2vJD7373DhKbyd8iYI5jQ1VQY-b7KEVM5DeaqA7-HIWhUbK-Z5tXvKfIRFxD-bRx7FLo5uOrM610UZmrPBWwX_rXr4WpEOoCpd4cv74x5cQ_uPY87e0tDdMg7nJ5cQ15tLrdKX5I_Z6kd04ftNrl0_qPedI5NMaDJ6Go4T-I3fKoODXLxxWkkVY7CukBuVR_SMNLIzTU3Q6LacS6U_bHkvBmedK-uuaojR4lWSIHfPOvwRDZBdxP8Axv6BIkATDDPWXIzqWe1vGIjuq9WbVZVAP0lBuIgkCkazx5zw_GE7_PEhjqiqT5UTXSVOhEFHbRAvoAsHocB8yA9QvjO-yec9XEm-yBdyCqjiySDqAaIyyv9qALBiiB2ydR4iT6ALZvawRbF7RUgOgUCjQh6WF9lDu6UbCZn7M_Z1cDtOWNjokhsEhPBP3JjhedC-y5j3cABhm1kTtg1YAsST-8Acn6UU3emuExLkzHmvR2hgvE1m2A5I4oDD6OPmNR814lJAwOBOO7-3AxcXivgorMQJeoHxGjCgfAnRRy32iOq3qcXfm6NG5C0jSMtcMcH8sHLSPJtLTf9pJqug-iDNTyXtF6aPwYjVSi7t9AsCi_aITMBDjXk5or_Txl-QhAQwzBJAy6gZwC5QublUs2CyxrS5kh4sZoERyPLw-VhlwESm839ja6UIUZJ8GgDDvbDThjUgjwuLc-bqGLJuOQ-NQbgKSy5IUbGDfwvMr2lpBAcdqivycitMy-RTPl25uT6DphlHsQGV3Vl7m_wfE3uxFtrzSHf5Hz5W64NJjwMp1VO-IQVzx3S0]--></g></svg>