<svg xmlns="http://www.w3.org/2000/svg" xmlns:xlink="http://www.w3.org/1999/xlink" contentStyleType="text/css" height="100%" preserveAspectRatio="none" style="width:100%;height:100%;background:#FFFFFF;" version="1.1" viewBox="0 0 513 466" width="100%" zoomAndPan="magnify"><defs/><g><!--class com.monacoevents.eventbooking.dto.EventRequest--><a href="..\..\..\..\..\..\target\reports\apidocs\com\monacoevents\eventbooking\dto\EventRequest.html" target="_top" title="..\..\..\..\..\..\target\reports\apidocs\com\monacoevents\eventbooking\dto\EventRequest.html" xlink:actuate="onRequest" xlink:href="..\..\..\..\..\..\target\reports\apidocs\com\monacoevents\eventbooking\dto\EventRequest.html" xlink:show="new" xlink:title="..\..\..\..\..\..\target\reports\apidocs\com\monacoevents\eventbooking\dto\EventRequest.html" xlink:type="simple"><g id="elem_com.monacoevents.eventbooking.dto.EventRequest"><rect codeLine="26" fill="#F4F8FB" height="317.2871" id="com.monacoevents.eventbooking.dto.EventRequest" rx="4" ry="4" style="stroke:#2C6E8C;stroke-width:0.5;" width="499.6968" x="7" y="108.92"/><ellipse cx="163.908" cy="129.8809" fill="#ADD1B2" rx="10" ry="10" style="stroke:#181818;stroke-width:1.0;"/><path d="M164.8455,126.5216 Q164.9705,126.3497 165.1111,126.2716 Q165.2517,126.1934 165.4236,126.1934 Q165.7048,126.1934 165.8767,126.3966 Q166.0642,126.5841 166.0642,127.0528 L166.0642,128.1622 Q166.0642,128.6309 165.8767,128.8341 Q165.7048,129.0216 165.4236,129.0216 Q165.158,129.0216 165.0017,128.8809 Q164.8455,128.7403 164.7673,128.3341 Q164.7205,128.0684 164.5955,127.9278 Q164.3298,127.6309 163.8611,127.4591 Q163.3923,127.2872 162.9236,127.2872 Q162.3455,127.2872 161.8455,127.5528 Q161.3611,127.8028 160.9861,128.3809 Q160.6111,128.9434 160.6111,129.7247 L160.6111,130.5684 Q160.6111,131.5059 161.2986,132.1466 Q161.9861,132.7716 163.1892,132.7716 Q163.9236,132.7716 164.4236,132.5684 Q164.7048,132.4591 165.033,132.1153 Q165.2361,131.9122 165.3455,131.8653 Q165.4705,131.8028 165.6111,131.8028 Q165.8767,131.8028 166.0642,132.0059 Q166.2673,132.1934 166.2673,132.4591 Q166.2673,132.7247 166.0017,133.0372 Q165.6111,133.4747 165.0017,133.7247 Q164.1892,134.0684 163.2048,134.0684 Q162.0486,134.0684 161.1111,133.5997 Q160.3611,133.2091 159.8298,132.3966 Q159.3142,131.5684 159.3142,130.5997 L159.3142,129.7091 Q159.3142,128.6934 159.783,127.8184 Q160.2673,126.9434 161.0955,126.4747 Q161.9392,125.9903 162.8767,125.9903 Q163.4392,125.9903 163.9236,126.1309 Q164.4236,126.2559 164.8455,126.5216 Z " fill="#000000"/><text fill="#14324A" font-family="Segoe UI" font-size="14" lengthAdjust="spacing" textLength="89.5645" x="227.0662" y="129.0274">EventRequest</text><text fill="#14324A" font-family="Segoe UI" font-size="10" lengthAdjust="spacing" textLength="177.8809" x="182.908" y="143.3321">com.monacoevents.eventbooking.dto</text><line style="stroke:#2C6E8C;stroke-width:0.5;" x1="8" x2="505.6968" y1="150.8419" y2="150.8419"/><rect fill="none" height="6" style="stroke:#C82930;stroke-width:1.0;" width="6" x="15" y="161.9874"/><text fill="#000000" font-family="Segoe UI" font-size="13" lengthAdjust="spacing" textLength="68.7769" x="26" y="168.8702">title: String</text><rect fill="none" height="6" style="stroke:#C82930;stroke-width:1.0;" width="6" x="15" y="179.2784"/><text fill="#000000" font-family="Segoe UI" font-size="13" lengthAdjust="spacing" textLength="112.7725" x="26" y="186.1612">description: String</text><rect fill="none" height="6" style="stroke:#C82930;stroke-width:1.0;" width="6" x="15" y="196.5694"/><text fill="#000000" font-family="Segoe UI" font-size="13" lengthAdjust="spacing" textLength="160.2656" x="26" y="203.4522">eventDate: LocalDateTime</text><rect fill="none" height="6" style="stroke:#C82930;stroke-width:1.0;" width="6" x="15" y="213.8604"/><text fill="#000000" font-family="Segoe UI" font-size="13" lengthAdjust="spacing" textLength="101.7212" x="26" y="220.7432">capacity: Integer</text><rect fill="none" height="6" style="stroke:#C82930;stroke-width:1.0;" width="6" x="15" y="231.1514"/><text fill="#000000" font-family="Segoe UI" font-size="13" lengthAdjust="spacing" textLength="106.5391" x="26" y="238.0343">price: BigDecimal</text><rect fill="none" height="6" style="stroke:#C82930;stroke-width:1.0;" width="6" x="15" y="248.4425"/><text fill="#000000" font-family="Segoe UI" font-size="13" lengthAdjust="spacing" textLength="86.6265" x="26" y="255.3253">venueId: Long</text><rect fill="none" height="6" style="stroke:#C82930;stroke-width:1.0;" width="6" x="15" y="265.7335"/><text fill="#000000" font-family="Segoe UI" font-size="13" lengthAdjust="spacing" textLength="103.2764" x="26" y="272.6163">categoryId: Long</text><line style="stroke:#2C6E8C;stroke-width:0.5;" x1="8" x2="505.6968" y1="279.879" y2="279.879"/><ellipse cx="18" cy="294.0245" fill="#84BE84" rx="3" ry="3" style="stroke:#038048;stroke-width:1.0;"/><text fill="#000000" font-family="Segoe UI" font-size="13" lengthAdjust="spacing" textLength="474.6968" x="26" y="297.9073">EventRequest(String, String, LocalDateTime, Integer, BigDecimal, Long, Long)</text><ellipse cx="18" cy="311.3155" fill="#84BE84" rx="3" ry="3" style="stroke:#038048;stroke-width:1.0;"/><text fill="#000000" font-family="Segoe UI" font-size="13" lengthAdjust="spacing" textLength="78.3745" x="26" y="315.1983">title(): String</text><ellipse cx="18" cy="328.6065" fill="#84BE84" rx="3" ry="3" style="stroke:#038048;stroke-width:1.0;"/><text fill="#000000" font-family="Segoe UI" font-size="13" lengthAdjust="spacing" textLength="122.3701" x="26" y="332.4893">description(): String</text><ellipse cx="18" cy="345.8975" fill="#84BE84" rx="3" ry="3" style="stroke:#038048;stroke-width:1.0;"/><text fill="#000000" font-family="Segoe UI" font-size="13" lengthAdjust="spacing" textLength="169.8633" x="26" y="349.7804">eventDate(): LocalDateTime</text><ellipse cx="18" cy="363.1886" fill="#84BE84" rx="3" ry="3" style="stroke:#038048;stroke-width:1.0;"/><text fill="#000000" font-family="Segoe UI" font-size="13" lengthAdjust="spacing" textLength="111.3188" x="26" y="367.0714">capacity(): Integer</text><ellipse cx="18" cy="380.4796" fill="#84BE84" rx="3" ry="3" style="stroke:#038048;stroke-width:1.0;"/><text fill="#000000" font-family="Segoe UI" font-size="13" lengthAdjust="spacing" textLength="116.1367" x="26" y="384.3624">price(): BigDecimal</text><ellipse cx="18" cy="397.7706" fill="#84BE84" rx="3" ry="3" style="stroke:#038048;stroke-width:1.0;"/><text fill="#000000" font-family="Segoe UI" font-size="13" lengthAdjust="spacing" textLength="96.2241" x="26" y="401.6534">venueId(): Long</text><ellipse cx="18" cy="415.0616" fill="#84BE84" rx="3" ry="3" style="stroke:#038048;stroke-width:1.0;"/><text fill="#000000" font-family="Segoe UI" font-size="13" lengthAdjust="spacing" textLength="112.874" x="26" y="418.9444">categoryId(): Long</text></g></a><!--class java.lang.Record--><g id="elem_java.lang.Record"><rect codeLine="44" fill="#F4F8FB" height="41.9219" id="java.lang.Record" rx="4" ry="4" style="stroke:#2C6E8C;stroke-width:0.5;" width="71.1182" x="221.29" y="7"/><ellipse cx="235.29" cy="27.9609" fill="#A9DCDF" rx="10" ry="10" style="stroke:#181818;stroke-width:1.0;"/><path d="M237.2744,29.1172 L234.1181,29.1172 L233.8056,29.9141 L234.1181,29.9141 Q234.5869,29.9141 234.79,30.1016 Q234.9931,30.2734 234.9931,30.5703 Q234.9931,30.8516 234.79,31.0391 Q234.5869,31.2109 234.1181,31.2109 L232.3681,31.2109 Q231.8994,31.2109 231.6963,31.0391 Q231.4931,30.8516 231.4931,30.5547 Q231.4931,30.2578 231.7119,30.0859 Q231.915,29.8984 232.3994,29.9141 L234.4463,24.8203 L233.5869,24.8203 Q233.1181,24.8203 232.915,24.6484 Q232.7275,24.4609 232.7275,24.1641 Q232.7275,23.8672 232.915,23.6953 Q233.1181,23.5078 233.5869,23.5078 L236.3994,23.5234 L238.9931,29.9141 Q239.4463,29.9141 239.6025,30.0078 Q239.8838,30.2266 239.8838,30.5703 Q239.8838,30.8516 239.6806,31.0391 Q239.4931,31.2109 239.0244,31.2109 L237.2744,31.2109 Q236.8056,31.2109 236.6025,31.0391 Q236.3994,30.8516 236.3994,30.5547 Q236.3994,30.2734 236.6025,30.1016 Q236.8056,29.9141 237.2744,29.9141 L237.5869,29.9141 L237.2744,29.1172 Z M236.7431,27.8203 L235.6963,25.2422 L234.6338,27.8203 L236.7431,27.8203 Z " fill="#000000"/><text fill="#14324A" font-family="Segoe UI" font-size="14" font-style="italic" lengthAdjust="spacing" textLength="41.1182" x="248.29" y="27.1074">Record</text><text fill="#14324A" font-family="Segoe UI" font-size="10" font-style="italic" lengthAdjust="spacing" textLength="39.1992" x="249.2495" y="41.4121">java.lang</text></g><!--reverse link java.lang.Record to com.monacoevents.eventbooking.dto.EventRequest--><g id="link_java.lang.Record_com.monacoevents.eventbooking.dto.EventRequest"><path codeLine="46" d="M256.85,67.22 C256.85,81.81 256.85,85 256.85,108.5 " fill="none" id="java.lang.Record-backto-com.monacoevents.eventbooking.dto.EventRequest" style="stroke:#2C6E8C;stroke-width:1.0;"/><polygon fill="none" points="256.85,49.22,250.85,67.22,262.85,67.22,256.85,49.22" style="stroke:#2C6E8C;stroke-width:1.0;"/></g><text fill="#888888" font-family="Segoe UI" font-size="10" lengthAdjust="spacing" textLength="2.7588" x="248.469" y="442.9981">&#160;</text><a href="https://github.com/talsma-ict/umldoclet" target="_top" title="https://github.com/talsma-ict/umldoclet" xlink:actuate="onRequest" xlink:href="https://github.com/talsma-ict/umldoclet" xlink:show="new" xlink:title="https://github.com/talsma-ict/umldoclet" xlink:type="simple"><text fill="#888888" font-family="Segoe UI" font-size="10" lengthAdjust="spacing" textLength="77.7783" x="210.9592" y="456.2989">UMLDoclet 2.2.1</text></a><!--SRC=[bLNVS-8s47w_ls9xVMWoW37W48x9P0O8jEdGpaqWJvW78Iz6nPPyafmCRUz_x_f7m35aRceOXBMVljtzjD820Fm24vKSj0Xt5gm2knC6dl-O0vC1X2XHCui1Y9Y5Q623aPAXAO08BBKxfK5jypUkj4QJA1a86SBlx8M1KQdcQ9nFdo1tjNnZVsMcmhuvP9CFYaTeuMfoNGcfwtRwhQxRxSEIHIPcy3XPEYNRQKtNwJeT8Ev8S9I6A5CPeCx36YMCqp0lB4ruGMs4ahJ6BNcoLBcIbWbf867QcYobhn6JDekruv1_pxc5gz5Y_ZuszqiUMnD6Mh8qW2VrBJscQ_P24XkBmUnOe5upLRQK1DQiMb6m4wL93HZKR05kMHhP6KNt9uiH5XWgXEV7Zs4ByJT2frS3y8WPCsPy7vRU8jgtdsVUR30RNuGgJVgLiEwaFnrCBi56MglN7wAoi4fGn-jrlL4D9AH5lMKSpmASZcRzcViX_5sGqo_JVjqzRVsU2lSyyJ5z7Zu0Lrd7Wudtu5u6LjBgzRpRcqB8dnBDGghJY1rKQY5Gjgm6AbD9MsXeDIumOxAqL2fPrCDE10WO9_O0Mu5HOEgpCT9Xe-byFjSLFjyPskrXnxkVlg2qJvXLd_LbEUtUSnKxiPACAym0nic7ZLAKI-W4Ldq6EeW_H3bLUbYj7CUlVItJ8LfVOwBe-FWi4O7YnYTclyhiLvbzOlQhpCxEnj5w3V_aAMPFomeRuH0MLjE2qtI0XckHM3h7vyRSnmDTB4EOAywYxEzIn7X2S4QR8EnX28zKIo7gaodHT4yCOIp21-HqwqKd4z6c-1Xah5LtdEX3fGzdbaOrjwiYoYQyZUz2Qxu5qgnuRkPqnU_rYJMNvEhwBEz6HPHBvgCicV6oC8qtOJ98NPf6BarckI1EenIduAwwFSdpplQzg6EsCLOpRiyA-WcfdGILKlwB-eb3LtAOb-pnpIc01Ljz5kx-RRN-PtaNJ7V67YAyFwQnLOekdKfbPizlXmJrNCXzUGiCBbkVirOK2OdK_VXU8kNf7f7V2tVjYh_IbozNgvsrYHcssw6mktJZK2PjcxV1bk2sdSPHKFI_MYTShylEzkknnMPjgkNUjjp-ikCDlPjXzyRfUJS3T-2vRiFj3brtDKsrIh3zbMbXrly1]--></g></svg>