<svg xmlns="http://www.w3.org/2000/svg" xmlns:xlink="http://www.w3.org/1999/xlink" contentStyleType="text/css" height="752px" preserveAspectRatio="none" style="width:1890px;height:752px;background:#FFFFFF;" version="1.1" viewBox="0 0 1890 752" width="1890px" zoomAndPan="magnify"><defs/><g><!--cluster com.monacoevents.eventbooking.dto--><g id="cluster_com.monacoevents.eventbooking.dto"><path d="M16.5,107 L268.7617,107 A3.75,3.75 0 0 1 271.2617,109.5 L278.2617,130.6094 L1756.5,130.6094 A2.5,2.5 0 0 1 1759,133.1094 L1759,714.5 A2.5,2.5 0 0 1 1756.5,717 L16.5,717 A2.5,2.5 0 0 1 14,714.5 L14,109.5 A2.5,2.5 0 0 1 16.5,107 " fill="none" style="stroke:#000000;stroke-width:1.5;"/><line style="stroke:#000000;stroke-width:1.5;" x1="14" x2="278.2617" y1="130.6094" y2="130.6094"/><text fill="#000000" font-family="sans-serif" font-size="14" font-weight="bold" lengthAdjust="spacing" textLength="251.2617" x="18" y="123.5332">com.monacoevents.eventbooking.dto</text></g><!--cluster java.lang--><g id="cluster_java.lang"><path d="M1265.5,4 L1326.417,4 A3.75,3.75 0 0 1 1328.917,6.5 L1335.917,27.6094 L1354.5,27.6094 A2.5,2.5 0 0 1 1357,30.1094 L1357,85.5 A2.5,2.5 0 0 1 1354.5,88 L1265.5,88 A2.5,2.5 0 0 1 1263,85.5 L1263,6.5 A2.5,2.5 0 0 1 1265.5,4 " fill="none" style="stroke:#000000;stroke-width:1.5;"/><line style="stroke:#000000;stroke-width:1.5;" x1="1263" x2="1335.917" y1="27.6094" y2="27.6094"/><text fill="#000000" font-family="sans-serif" font-size="14" font-weight="bold" lengthAdjust="spacing" textLength="59.917" x="1267" y="20.5332">java.lang</text></g><!--class CategoryRequest--><a href="file:/C:/Users/loris/Documents/Programming/Github/event-booking-api/target/reports/apidocs/com/monacoevents/eventbooking/dto/CategoryRequest.html" target="_top" title="file:/C:/Users/loris/Documents/Programming/Github/event-booking-api/target/reports/apidocs/com/monacoevents/eventbooking/dto/CategoryRequest.html" xlink:actuate="onRequest" xlink:href="file:/C:/Users/loris/Documents/Programming/Github/event-booking-api/target/reports/apidocs/com/monacoevents/eventbooking/dto/CategoryRequest.html" xlink:show="new" xlink:title="file:/C:/Users/loris/Documents/Programming/Github/event-booking-api/target/reports/apidocs/com/monacoevents/eventbooking/dto/CategoryRequest.html" xlink:type="simple"><g id="elem_CategoryRequest"><rect codeLine="12" fill="#F1F1F1" height="100.8281" id="CategoryRequest" rx="2.5" ry="2.5" style="stroke:#181818;stroke-width:0.5;" width="180.8477" x="22.5" y="240.5"/><ellipse cx="55.4534" cy="256.5" fill="#ADD1B2" rx="11" ry="11" style="stroke:#181818;stroke-width:1.0;"/><path d="M58.219,252.375 Q58.3753,252.1563 58.5628,252.0469 Q58.7503,251.9375 58.969,251.9375 Q59.344,251.9375 59.5784,252.2031 Q59.8128,252.4531 59.8128,253.0625 L59.8128,254.5156 Q59.8128,255.125 59.5784,255.3906 Q59.344,255.6563 58.969,255.6563 Q58.6253,255.6563 58.4222,255.4531 Q58.219,255.2656 58.1097,254.75 Q58.0628,254.3906 57.8753,254.2031 Q57.5472,253.8281 56.9378,253.6094 Q56.3284,253.3906 55.7034,253.3906 Q54.9378,253.3906 54.2972,253.7188 Q53.6722,254.0469 53.1722,254.7969 Q52.6878,255.5469 52.6878,256.5781 L52.6878,257.6719 Q52.6878,258.9063 53.5784,259.7344 Q54.469,260.5469 56.0628,260.5469 Q57.0003,260.5469 57.6565,260.2969 Q58.0472,260.1406 58.469,259.7031 Q58.7347,259.4375 58.8753,259.3594 Q59.0315,259.2813 59.2347,259.2813 Q59.5628,259.2813 59.8128,259.5469 Q60.0784,259.7969 60.0784,260.1406 Q60.0784,260.4844 59.7347,260.8906 Q59.2347,261.4688 58.4378,261.7969 Q57.3597,262.25 56.0628,262.25 Q54.5472,262.25 53.344,261.625 Q52.3597,261.125 51.6722,260.0625 Q50.9847,258.9844 50.9847,257.7031 L50.9847,256.5469 Q50.9847,255.2188 51.594,254.0781 Q52.219,252.9219 53.3128,252.3125 Q54.4065,251.6875 55.6409,251.6875 Q56.3753,251.6875 57.0159,251.8594 Q57.6722,252.0156 58.219,252.375 Z " fill="#000000"/><text fill="#000000" font-family="sans-serif" font-size="14" lengthAdjust="spacing" textLength="108.9512" x="73.4431" y="262.2285">CategoryRequest</text><line style="stroke:#181818;stroke-width:0.5;" x1="23.5" x2="202.3477" y1="272.5" y2="272.5"/><rect fill="none" height="6" style="stroke:#C82930;stroke-width:1.0;" width="6" x="30.5" y="283.8047"/><text fill="#000000" font-family="sans-serif" font-size="14" lengthAdjust="spacing" textLength="79.3721" x="42.5" y="291.0332">name: String</text><line style="stroke:#181818;stroke-width:0.5;" x1="23.5" x2="202.3477" y1="298.1094" y2="298.1094"/><ellipse cx="33.5" cy="312.4141" fill="#84BE84" rx="3" ry="3" style="stroke:#038048;stroke-width:1.0;"/><text fill="#000000" font-family="sans-serif" font-size="14" lengthAdjust="spacing" textLength="154.8477" x="42.5" y="316.6426">CategoryRequest(String)</text><ellipse cx="33.5" cy="330.0234" fill="#84BE84" rx="3" ry="3" style="stroke:#038048;stroke-width:1.0;"/><text fill="#000000" font-family="sans-serif" font-size="14" lengthAdjust="spacing" textLength="88.6963" x="42.5" y="334.252">name(): String</text></g></a><!--class CategoryResponse--><a href="file:/C:/Users/loris/Documents/Programming/Github/event-booking-api/target/reports/apidocs/com/monacoevents/eventbooking/dto/CategoryResponse.html" target="_top" title="file:/C:/Users/loris/Documents/Programming/Github/event-booking-api/target/reports/apidocs/com/monacoevents/eventbooking/dto/CategoryResponse.html" xlink:actuate="onRequest" xlink:href="file:/C:/Users/loris/Documents/Programming/Github/event-booking-api/target/reports/apidocs/com/monacoevents/eventbooking/dto/CategoryResponse.html" xlink:show="new" xlink:title="file:/C:/Users/loris/Documents/Programming/Github/event-booking-api/target/reports/apidocs/com/monacoevents/eventbooking/dto/CategoryResponse.html" xlink:type="simple"><g id="elem_CategoryResponse"><rect codeLine="18" fill="#F1F1F1" height="136.0469" id="CategoryResponse" rx="2.5" ry="2.5" style="stroke:#181818;stroke-width:0.5;" width="230.668" x="1075.5" y="538"/><ellipse cx="1126.6602" cy="554" fill="#ADD1B2" rx="11" ry="11" style="stroke:#181818;stroke-width:1.0;"/><path d="M1129.4258,549.875 Q1129.582,549.6563 1129.7695,549.5469 Q1129.957,549.4375 1130.1758,549.4375 Q1130.5508,549.4375 1130.7852,549.7031 Q1131.0195,549.9531 1131.0195,550.5625 L1131.0195,552.0156 Q1131.0195,552.625 1130.7852,552.8906 Q1130.5508,553.1563 1130.1758,553.1563 Q1129.832,553.1563 1129.6289,552.9531 Q1129.4258,552.7656 1129.3164,552.25 Q1129.2695,551.8906 1129.082,551.7031 Q1128.7539,551.3281 1128.1445,551.1094 Q1127.5352,550.8906 1126.9102,550.8906 Q1126.1445,550.8906 1125.5039,551.2188 Q1124.8789,551.5469 1124.3789,552.2969 Q1123.8945,553.0469 1123.8945,554.0781 L1123.8945,555.1719 Q1123.8945,556.4063 1124.7852,557.2344 Q1125.6758,558.0469 1127.2695,558.0469 Q1128.207,558.0469 1128.8633,557.7969 Q1129.2539,557.6406 1129.6758,557.2031 Q1129.9414,556.9375 1130.082,556.8594 Q1130.2383,556.7813 1130.4414,556.7813 Q1130.7695,556.7813 1131.0195,557.0469 Q1131.2852,557.2969 1131.2852,557.6406 Q1131.2852,557.9844 1130.9414,558.3906 Q1130.4414,558.9688 1129.6445,559.2969 Q1128.5664,559.75 1127.2695,559.75 Q1125.7539,559.75 1124.5508,559.125 Q1123.5664,558.625 1122.8789,557.5625 Q1122.1914,556.4844 1122.1914,555.2031 L1122.1914,554.0469 Q1122.1914,552.7188 1122.8008,551.5781 Q1123.4258,550.4219 1124.5195,549.8125 Q1125.6133,549.1875 1126.8477,549.1875 Q1127.582,549.1875 1128.2227,549.3594 Q1128.8789,549.5156 1129.4258,549.875 Z " fill="#000000"/><text fill="#000000" font-family="sans-serif" font-size="14" lengthAdjust="spacing" textLength="119.8477" x="1147.1602" y="559.7285">CategoryResponse</text><line style="stroke:#181818;stroke-width:0.5;" x1="1076.5" x2="1305.168" y1="570" y2="570"/><rect fill="none" height="6" style="stroke:#C82930;stroke-width:1.0;" width="6" x="1083.5" y="581.3047"/><text fill="#000000" font-family="sans-serif" font-size="14" lengthAdjust="spacing" textLength="49.8203" x="1095.5" y="588.5332">id: Long</text><rect fill="none" height="6" style="stroke:#C82930;stroke-width:1.0;" width="6" x="1083.5" y="598.9141"/><text fill="#000000" font-family="sans-serif" font-size="14" lengthAdjust="spacing" textLength="79.3721" x="1095.5" y="606.1426">name: String</text><line style="stroke:#181818;stroke-width:0.5;" x1="1076.5" x2="1305.168" y1="613.2188" y2="613.2188"/><ellipse cx="1086.5" cy="627.5234" fill="#84BE84" rx="3" ry="3" style="stroke:#038048;stroke-width:1.0;"/><text fill="#000000" font-family="sans-serif" font-size="14" lengthAdjust="spacing" textLength="204.668" x="1095.5" y="631.752">CategoryResponse(Long, String)</text><ellipse cx="1086.5" cy="645.1328" fill="#84BE84" rx="3" ry="3" style="stroke:#038048;stroke-width:1.0;"/><text fill="#000000" font-family="sans-serif" font-size="14" lengthAdjust="spacing" textLength="59.1445" x="1095.5" y="649.3613">id(): Long</text><ellipse cx="1086.5" cy="662.7422" fill="#84BE84" rx="3" ry="3" style="stroke:#038048;stroke-width:1.0;"/><text fill="#000000" font-family="sans-serif" font-size="14" lengthAdjust="spacing" textLength="88.6963" x="1095.5" y="666.9707">name(): String</text></g></a><!--class EventRequest--><a href="file:/C:/Users/loris/Documents/Programming/Github/event-booking-api/target/reports/apidocs/com/monacoevents/eventbooking/dto/EventRequest.html" target="_top" title="file:/C:/Users/loris/Documents/Programming/Github/event-booking-api/target/reports/apidocs/com/monacoevents/eventbooking/dto/EventRequest.html" xlink:actuate="onRequest" xlink:href="file:/C:/Users/loris/Documents/Programming/Github/event-booking-api/target/reports/apidocs/com/monacoevents/eventbooking/dto/EventRequest.html" xlink:show="new" xlink:title="file:/C:/Users/loris/Documents/Programming/Github/event-booking-api/target/reports/apidocs/com/monacoevents/eventbooking/dto/EventRequest.html" xlink:type="simple"><g id="elem_EventRequest"><rect codeLine="26" fill="#F1F1F1" height="312.1406" id="EventRequest" rx="2.5" ry="2.5" style="stroke:#181818;stroke-width:0.5;" width="513.915" x="222" y="135"/><ellipse cx="430.7354" cy="151" fill="#ADD1B2" rx="11" ry="11" style="stroke:#181818;stroke-width:1.0;"/><path d="M433.501,146.875 Q433.6572,146.6563 433.8447,146.5469 Q434.0322,146.4375 434.251,146.4375 Q434.626,146.4375 434.8604,146.7031 Q435.0947,146.9531 435.0947,147.5625 L435.0947,149.0156 Q435.0947,149.625 434.8604,149.8906 Q434.626,150.1563 434.251,150.1563 Q433.9072,150.1563 433.7041,149.9531 Q433.501,149.7656 433.3916,149.25 Q433.3447,148.8906 433.1572,148.7031 Q432.8291,148.3281 432.2197,148.1094 Q431.6104,147.8906 430.9854,147.8906 Q430.2197,147.8906 429.5791,148.2188 Q428.9541,148.5469 428.4541,149.2969 Q427.9697,150.0469 427.9697,151.0781 L427.9697,152.1719 Q427.9697,153.4063 428.8604,154.2344 Q429.751,155.0469 431.3447,155.0469 Q432.2822,155.0469 432.9385,154.7969 Q433.3291,154.6406 433.751,154.2031 Q434.0166,153.9375 434.1572,153.8594 Q434.3135,153.7813 434.5166,153.7813 Q434.8447,153.7813 435.0947,154.0469 Q435.3604,154.2969 435.3604,154.6406 Q435.3604,154.9844 435.0166,155.3906 Q434.5166,155.9688 433.7197,156.2969 Q432.6416,156.75 431.3447,156.75 Q429.8291,156.75 428.626,156.125 Q427.6416,155.625 426.9541,154.5625 Q426.2666,153.4844 426.2666,152.2031 L426.2666,151.0469 Q426.2666,149.7188 426.876,148.5781 Q427.501,147.4219 428.5947,146.8125 Q429.6885,146.1875 430.9229,146.1875 Q431.6572,146.1875 432.2979,146.3594 Q432.9541,146.5156 433.501,146.875 Z " fill="#000000"/><text fill="#000000" font-family="sans-serif" font-size="14" lengthAdjust="spacing" textLength="87.9443" x="451.2354" y="156.7285">EventRequest</text><line style="stroke:#181818;stroke-width:0.5;" x1="223" x2="734.915" y1="167" y2="167"/><rect fill="none" height="6" style="stroke:#C82930;stroke-width:1.0;" width="6" x="230" y="178.3047"/><text fill="#000000" font-family="sans-serif" font-size="14" lengthAdjust="spacing" textLength="66.1377" x="242" y="185.5332">title: String</text><rect fill="none" height="6" style="stroke:#C82930;stroke-width:1.0;" width="6" x="230" y="195.9141"/><text fill="#000000" font-family="sans-serif" font-size="14" lengthAdjust="spacing" textLength="112.0547" x="242" y="203.1426">description: String</text><rect fill="none" height="6" style="stroke:#C82930;stroke-width:1.0;" width="6" x="230" y="213.5234"/><text fill="#000000" font-family="sans-serif" font-size="14" lengthAdjust="spacing" textLength="165.751" x="242" y="220.752">eventDate: LocalDateTime</text><rect fill="none" height="6" style="stroke:#C82930;stroke-width:1.0;" width="6" x="230" y="231.1328"/><text fill="#000000" font-family="sans-serif" font-size="14" lengthAdjust="spacing" textLength="102.7236" x="242" y="238.3613">capacity: Integer</text><rect fill="none" height="6" style="stroke:#C82930;stroke-width:1.0;" width="6" x="230" y="248.7422"/><text fill="#000000" font-family="sans-serif" font-size="14" lengthAdjust="spacing" textLength="108.9238" x="242" y="255.9707">price: BigDecimal</text><rect fill="none" height="6" style="stroke:#C82930;stroke-width:1.0;" width="6" x="230" y="266.3516"/><text fill="#000000" font-family="sans-serif" font-size="14" lengthAdjust="spacing" textLength="88.7441" x="242" y="273.5801">venueId: Long</text><rect fill="none" height="6" style="stroke:#C82930;stroke-width:1.0;" width="6" x="230" y="283.9609"/><text fill="#000000" font-family="sans-serif" font-size="14" lengthAdjust="spacing" textLength="104.2959" x="242" y="291.1895">categoryId: Long</text><line style="stroke:#181818;stroke-width:0.5;" x1="223" x2="734.915" y1="298.2656" y2="298.2656"/><ellipse cx="233" cy="312.5703" fill="#84BE84" rx="3" ry="3" style="stroke:#038048;stroke-width:1.0;"/><text fill="#000000" font-family="sans-serif" font-size="14" lengthAdjust="spacing" textLength="487.915" x="242" y="316.7988">EventRequest(String, String, LocalDateTime, Integer, BigDecimal, Long, Long)</text><ellipse cx="233" cy="330.1797" fill="#84BE84" rx="3" ry="3" style="stroke:#038048;stroke-width:1.0;"/><text fill="#000000" font-family="sans-serif" font-size="14" lengthAdjust="spacing" textLength="75.4619" x="242" y="334.4082">title(): String</text><ellipse cx="233" cy="347.7891" fill="#84BE84" rx="3" ry="3" style="stroke:#038048;stroke-width:1.0;"/><text fill="#000000" font-family="sans-serif" font-size="14" lengthAdjust="spacing" textLength="121.3789" x="242" y="352.0176">description(): String</text><ellipse cx="233" cy="365.3984" fill="#84BE84" rx="3" ry="3" style="stroke:#038048;stroke-width:1.0;"/><text fill="#000000" font-family="sans-serif" font-size="14" lengthAdjust="spacing" textLength="175.0752" x="242" y="369.627">eventDate(): LocalDateTime</text><ellipse cx="233" cy="383.0078" fill="#84BE84" rx="3" ry="3" style="stroke:#038048;stroke-width:1.0;"/><text fill="#000000" font-family="sans-serif" font-size="14" lengthAdjust="spacing" textLength="112.0479" x="242" y="387.2363">capacity(): Integer</text><ellipse cx="233" cy="400.6172" fill="#84BE84" rx="3" ry="3" style="stroke:#038048;stroke-width:1.0;"/><text fill="#000000" font-family="sans-serif" font-size="14" lengthAdjust="spacing" textLength="118.248" x="242" y="404.8457">price(): BigDecimal</text><ellipse cx="233" cy="418.2266" fill="#84BE84" rx="3" ry="3" style="stroke:#038048;stroke-width:1.0;"/><text fill="#000000" font-family="sans-serif" font-size="14" lengthAdjust="spacing" textLength="98.0684" x="242" y="422.4551">venueId(): Long</text><ellipse cx="233" cy="435.8359" fill="#84BE84" rx="3" ry="3" style="stroke:#038048;stroke-width:1.0;"/><text fill="#000000" font-family="sans-serif" font-size="14" lengthAdjust="spacing" textLength="113.6201" x="242" y="440.0645">categoryId(): Long</text></g></a><!--class EventResponse--><a href="file:/C:/Users/loris/Documents/Programming/Github/event-booking-api/target/reports/apidocs/com/monacoevents/eventbooking/dto/EventResponse.html" target="_top" title="file:/C:/Users/loris/Documents/Programming/Github/event-booking-api/target/reports/apidocs/com/monacoevents/eventbooking/dto/EventResponse.html" xlink:actuate="onRequest" xlink:href="file:/C:/Users/loris/Documents/Programming/Github/event-booking-api/target/reports/apidocs/com/monacoevents/eventbooking/dto/EventResponse.html" xlink:show="new" xlink:title="file:/C:/Users/loris/Documents/Programming/Github/event-booking-api/target/reports/apidocs/com/monacoevents/eventbooking/dto/EventResponse.html" xlink:type="simple"><g id="elem_EventResponse"><rect codeLine="44" fill="#F1F1F1" height="312.1406" id="EventResponse" rx="2.5" ry="2.5" style="stroke:#181818;stroke-width:0.5;" width="724.8174" x="754.5" y="135"/><ellipse cx="1063.2383" cy="151" fill="#ADD1B2" rx="11" ry="11" style="stroke:#181818;stroke-width:1.0;"/><path d="M1066.0039,146.875 Q1066.1602,146.6563 1066.3477,146.5469 Q1066.5352,146.4375 1066.7539,146.4375 Q1067.1289,146.4375 1067.3633,146.7031 Q1067.5977,146.9531 1067.5977,147.5625 L1067.5977,149.0156 Q1067.5977,149.625 1067.3633,149.8906 Q1067.1289,150.1563 1066.7539,150.1563 Q1066.4102,150.1563 1066.207,149.9531 Q1066.0039,149.7656 1065.8945,149.25 Q1065.8477,148.8906 1065.6602,148.7031 Q1065.332,148.3281 1064.7227,148.1094 Q1064.1133,147.8906 1063.4883,147.8906 Q1062.7227,147.8906 1062.082,148.2188 Q1061.457,148.5469 1060.957,149.2969 Q1060.4727,150.0469 1060.4727,151.0781 L1060.4727,152.1719 Q1060.4727,153.4063 1061.3633,154.2344 Q1062.2539,155.0469 1063.8477,155.0469 Q1064.7852,155.0469 1065.4414,154.7969 Q1065.832,154.6406 1066.2539,154.2031 Q1066.5195,153.9375 1066.6602,153.8594 Q1066.8164,153.7813 1067.0195,153.7813 Q1067.3477,153.7813 1067.5977,154.0469 Q1067.8633,154.2969 1067.8633,154.6406 Q1067.8633,154.9844 1067.5195,155.3906 Q1067.0195,155.9688 1066.2227,156.2969 Q1065.1445,156.75 1063.8477,156.75 Q1062.332,156.75 1061.1289,156.125 Q1060.1445,155.625 1059.457,154.5625 Q1058.7695,153.4844 1058.7695,152.2031 L1058.7695,151.0469 Q1058.7695,149.7188 1059.3789,148.5781 Q1060.0039,147.4219 1061.0977,146.8125 Q1062.1914,146.1875 1063.4258,146.1875 Q1064.1602,146.1875 1064.8008,146.3594 Q1065.457,146.5156 1066.0039,146.875 Z " fill="#000000"/><text fill="#000000" font-family="sans-serif" font-size="14" lengthAdjust="spacing" textLength="98.8408" x="1083.7383" y="156.7285">EventResponse</text><line style="stroke:#181818;stroke-width:0.5;" x1="755.5" x2="1478.3174" y1="167" y2="167"/><rect fill="none" height="6" style="stroke:#C82930;stroke-width:1.0;" width="6" x="762.5" y="178.3047"/><text fill="#000000" font-family="sans-serif" font-size="14" lengthAdjust="spacing" textLength="49.8203" x="774.5" y="185.5332">id: Long</text><rect fill="none" height="6" style="stroke:#C82930;stroke-width:1.0;" width="6" x="762.5" y="195.9141"/><text fill="#000000" font-family="sans-serif" font-size="14" lengthAdjust="spacing" textLength="66.1377" x="774.5" y="203.1426">title: String</text><rect fill="none" height="6" style="stroke:#C82930;stroke-width:1.0;" width="6" x="762.5" y="213.5234"/><text fill="#000000" font-family="sans-serif" font-size="14" lengthAdjust="spacing" textLength="112.0547" x="774.5" y="220.752">description: String</text><rect fill="none" height="6" style="stroke:#C82930;stroke-width:1.0;" width="6" x="762.5" y="231.1328"/><text fill="#000000" font-family="sans-serif" font-size="14" lengthAdjust="spacing" textLength="165.751" x="774.5" y="238.3613">eventDate: LocalDateTime</text><rect fill="none" height="6" style="stroke:#C82930;stroke-width:1.0;" width="6" x="762.5" y="248.7422"/><text fill="#000000" font-family="sans-serif" font-size="14" lengthAdjust="spacing" textLength="102.7236" x="774.5" y="255.9707">capacity: Integer</text><rect fill="none" height="6" style="stroke:#C82930;stroke-width:1.0;" width="6" x="762.5" y="266.3516"/><text fill="#000000" font-family="sans-serif" font-size="14" lengthAdjust="spacing" textLength="108.9238" x="774.5" y="273.5801">price: BigDecimal</text><line style="stroke:#181818;stroke-width:0.5;" x1="755.5" x2="1478.3174" y1="280.6563" y2="280.6563"/><ellipse cx="765.5" cy="294.9609" fill="#84BE84" rx="3" ry="3" style="stroke:#038048;stroke-width:1.0;"/><text fill="#000000" font-family="sans-serif" font-size="14" lengthAdjust="spacing" textLength="698.8174" x="774.5" y="299.1895">EventResponse(Long, String, String, LocalDateTime, Integer, BigDecimal, VenueResponse, CategoryResponse)</text><ellipse cx="765.5" cy="312.5703" fill="#84BE84" rx="3" ry="3" style="stroke:#038048;stroke-width:1.0;"/><text fill="#000000" font-family="sans-serif" font-size="14" lengthAdjust="spacing" textLength="59.1445" x="774.5" y="316.7988">id(): Long</text><ellipse cx="765.5" cy="330.1797" fill="#84BE84" rx="3" ry="3" style="stroke:#038048;stroke-width:1.0;"/><text fill="#000000" font-family="sans-serif" font-size="14" lengthAdjust="spacing" textLength="75.4619" x="774.5" y="334.4082">title(): String</text><ellipse cx="765.5" cy="347.7891" fill="#84BE84" rx="3" ry="3" style="stroke:#038048;stroke-width:1.0;"/><text fill="#000000" font-family="sans-serif" font-size="14" lengthAdjust="spacing" textLength="121.3789" x="774.5" y="352.0176">description(): String</text><ellipse cx="765.5" cy="365.3984" fill="#84BE84" rx="3" ry="3" style="stroke:#038048;stroke-width:1.0;"/><text fill="#000000" font-family="sans-serif" font-size="14" lengthAdjust="spacing" textLength="175.0752" x="774.5" y="369.627">eventDate(): LocalDateTime</text><ellipse cx="765.5" cy="383.0078" fill="#84BE84" rx="3" ry="3" style="stroke:#038048;stroke-width:1.0;"/><text fill="#000000" font-family="sans-serif" font-size="14" lengthAdjust="spacing" textLength="112.0479" x="774.5" y="387.2363">capacity(): Integer</text><ellipse cx="765.5" cy="400.6172" fill="#84BE84" rx="3" ry="3" style="stroke:#038048;stroke-width:1.0;"/><text fill="#000000" font-family="sans-serif" font-size="14" lengthAdjust="spacing" textLength="118.248" x="774.5" y="404.8457">price(): BigDecimal</text><ellipse cx="765.5" cy="418.2266" fill="#84BE84" rx="3" ry="3" style="stroke:#038048;stroke-width:1.0;"/><text fill="#000000" font-family="sans-serif" font-size="14" lengthAdjust="spacing" textLength="158.7715" x="774.5" y="422.4551">venue(): VenueResponse</text><ellipse cx="765.5" cy="435.8359" fill="#84BE84" rx="3" ry="3" style="stroke:#038048;stroke-width:1.0;"/><text fill="#000000" font-family="sans-serif" font-size="14" lengthAdjust="spacing" textLength="190.6475" x="774.5" y="440.0645">category(): CategoryResponse</text></g></a><!--class VenueRequest--><a href="file:/C:/Users/loris/Documents/Programming/Github/event-booking-api/target/reports/apidocs/com/monacoevents/eventbooking/dto/VenueRequest.html" target="_top" title="file:/C:/Users/loris/Documents/Programming/Github/event-booking-api/target/reports/apidocs/com/monacoevents/eventbooking/dto/VenueRequest.html" xlink:actuate="onRequest" xlink:href="file:/C:/Users/loris/Documents/Programming/Github/event-booking-api/target/reports/apidocs/com/monacoevents/eventbooking/dto/VenueRequest.html" xlink:show="new" xlink:title="file:/C:/Users/loris/Documents/Programming/Github/event-booking-api/target/reports/apidocs/com/monacoevents/eventbooking/dto/VenueRequest.html" xlink:type="simple"><g id="elem_VenueRequest"><rect codeLine="62" fill="#F1F1F1" height="171.2656" id="VenueRequest" rx="2.5" ry="2.5" style="stroke:#181818;stroke-width:0.5;" width="253.2266" x="1497.5" y="205.5"/><ellipse cx="1573.5498" cy="221.5" fill="#ADD1B2" rx="11" ry="11" style="stroke:#181818;stroke-width:1.0;"/><path d="M1576.3154,217.375 Q1576.4717,217.1563 1576.6592,217.0469 Q1576.8467,216.9375 1577.0654,216.9375 Q1577.4404,216.9375 1577.6748,217.2031 Q1577.9092,217.4531 1577.9092,218.0625 L1577.9092,219.5156 Q1577.9092,220.125 1577.6748,220.3906 Q1577.4404,220.6563 1577.0654,220.6563 Q1576.7217,220.6563 1576.5186,220.4531 Q1576.3154,220.2656 1576.2061,219.75 Q1576.1592,219.3906 1575.9717,219.2031 Q1575.6436,218.8281 1575.0342,218.6094 Q1574.4248,218.3906 1573.7998,218.3906 Q1573.0342,218.3906 1572.3936,218.7188 Q1571.7686,219.0469 1571.2686,219.7969 Q1570.7842,220.5469 1570.7842,221.5781 L1570.7842,222.6719 Q1570.7842,223.9063 1571.6748,224.7344 Q1572.5654,225.5469 1574.1592,225.5469 Q1575.0967,225.5469 1575.7529,225.2969 Q1576.1436,225.1406 1576.5654,224.7031 Q1576.8311,224.4375 1576.9717,224.3594 Q1577.1279,224.2813 1577.3311,224.2813 Q1577.6592,224.2813 1577.9092,224.5469 Q1578.1748,224.7969 1578.1748,225.1406 Q1578.1748,225.4844 1577.8311,225.8906 Q1577.3311,226.4688 1576.5342,226.7969 Q1575.4561,227.25 1574.1592,227.25 Q1572.6436,227.25 1571.4404,226.625 Q1570.4561,226.125 1569.7686,225.0625 Q1569.0811,223.9844 1569.0811,222.7031 L1569.0811,221.5469 Q1569.0811,220.2188 1569.6904,219.0781 Q1570.3154,217.9219 1571.4092,217.3125 Q1572.5029,216.6875 1573.7373,216.6875 Q1574.4717,216.6875 1575.1123,216.8594 Q1575.7686,217.0156 1576.3154,217.375 Z " fill="#000000"/><text fill="#000000" font-family="sans-serif" font-size="14" lengthAdjust="spacing" textLength="92.627" x="1594.0498" y="227.2285">VenueRequest</text><line style="stroke:#181818;stroke-width:0.5;" x1="1498.5" x2="1749.7266" y1="237.5" y2="237.5"/><rect fill="none" height="6" style="stroke:#C82930;stroke-width:1.0;" width="6" x="1505.5" y="248.8047"/><text fill="#000000" font-family="sans-serif" font-size="14" lengthAdjust="spacing" textLength="79.3721" x="1517.5" y="256.0332">name: String</text><rect fill="none" height="6" style="stroke:#C82930;stroke-width:1.0;" width="6" x="1505.5" y="266.4141"/><text fill="#000000" font-family="sans-serif" font-size="14" lengthAdjust="spacing" textLength="94.1582" x="1517.5" y="273.6426">address: String</text><rect fill="none" height="6" style="stroke:#C82930;stroke-width:1.0;" width="6" x="1505.5" y="284.0234"/><text fill="#000000" font-family="sans-serif" font-size="14" lengthAdjust="spacing" textLength="65.3516" x="1517.5" y="291.252">city: String</text><line style="stroke:#181818;stroke-width:0.5;" x1="1498.5" x2="1749.7266" y1="298.3281" y2="298.3281"/><ellipse cx="1508.5" cy="312.6328" fill="#84BE84" rx="3" ry="3" style="stroke:#038048;stroke-width:1.0;"/><text fill="#000000" font-family="sans-serif" font-size="14" lengthAdjust="spacing" textLength="227.2266" x="1517.5" y="316.8613">VenueRequest(String, String, String)</text><ellipse cx="1508.5" cy="330.2422" fill="#84BE84" rx="3" ry="3" style="stroke:#038048;stroke-width:1.0;"/><text fill="#000000" font-family="sans-serif" font-size="14" lengthAdjust="spacing" textLength="88.6963" x="1517.5" y="334.4707">name(): String</text><ellipse cx="1508.5" cy="347.8516" fill="#84BE84" rx="3" ry="3" style="stroke:#038048;stroke-width:1.0;"/><text fill="#000000" font-family="sans-serif" font-size="14" lengthAdjust="spacing" textLength="103.4824" x="1517.5" y="352.0801">address(): String</text><ellipse cx="1508.5" cy="365.4609" fill="#84BE84" rx="3" ry="3" style="stroke:#038048;stroke-width:1.0;"/><text fill="#000000" font-family="sans-serif" font-size="14" lengthAdjust="spacing" textLength="74.6758" x="1517.5" y="369.6895">city(): String</text></g></a><!--class VenueResponse--><a href="file:/C:/Users/loris/Documents/Programming/Github/event-booking-api/target/reports/apidocs/com/monacoevents/eventbooking/dto/VenueResponse.html" target="_top" title="file:/C:/Users/loris/Documents/Programming/Github/event-booking-api/target/reports/apidocs/com/monacoevents/eventbooking/dto/VenueResponse.html" xlink:actuate="onRequest" xlink:href="file:/C:/Users/loris/Documents/Programming/Github/event-booking-api/target/reports/apidocs/com/monacoevents/eventbooking/dto/VenueResponse.html" xlink:show="new" xlink:title="file:/C:/Users/loris/Documents/Programming/Github/event-booking-api/target/reports/apidocs/com/monacoevents/eventbooking/dto/VenueResponse.html" xlink:type="simple"><g id="elem_VenueResponse"><rect codeLine="72" fill="#F1F1F1" height="206.4844" id="VenueResponse" rx="2.5" ry="2.5" style="stroke:#181818;stroke-width:0.5;" width="303.0469" x="1349.5" y="503"/><ellipse cx="1445.0117" cy="519" fill="#ADD1B2" rx="11" ry="11" style="stroke:#181818;stroke-width:1.0;"/><path d="M1447.7773,514.875 Q1447.9336,514.6563 1448.1211,514.5469 Q1448.3086,514.4375 1448.5273,514.4375 Q1448.9023,514.4375 1449.1367,514.7031 Q1449.3711,514.9531 1449.3711,515.5625 L1449.3711,517.0156 Q1449.3711,517.625 1449.1367,517.8906 Q1448.9023,518.1563 1448.5273,518.1563 Q1448.1836,518.1563 1447.9805,517.9531 Q1447.7773,517.7656 1447.668,517.25 Q1447.6211,516.8906 1447.4336,516.7031 Q1447.1055,516.3281 1446.4961,516.1094 Q1445.8867,515.8906 1445.2617,515.8906 Q1444.4961,515.8906 1443.8555,516.2188 Q1443.2305,516.5469 1442.7305,517.2969 Q1442.2461,518.0469 1442.2461,519.0781 L1442.2461,520.1719 Q1442.2461,521.4063 1443.1367,522.2344 Q1444.0273,523.0469 1445.6211,523.0469 Q1446.5586,523.0469 1447.2148,522.7969 Q1447.6055,522.6406 1448.0273,522.2031 Q1448.293,521.9375 1448.4336,521.8594 Q1448.5898,521.7813 1448.793,521.7813 Q1449.1211,521.7813 1449.3711,522.0469 Q1449.6367,522.2969 1449.6367,522.6406 Q1449.6367,522.9844 1449.293,523.3906 Q1448.793,523.9688 1447.9961,524.2969 Q1446.918,524.75 1445.6211,524.75 Q1444.1055,524.75 1442.9023,524.125 Q1441.918,523.625 1441.2305,522.5625 Q1440.543,521.4844 1440.543,520.2031 L1440.543,519.0469 Q1440.543,517.7188 1441.1523,516.5781 Q1441.7773,515.4219 1442.8711,514.8125 Q1443.9648,514.1875 1445.1992,514.1875 Q1445.9336,514.1875 1446.5742,514.3594 Q1447.2305,514.5156 1447.7773,514.875 Z " fill="#000000"/><text fill="#000000" font-family="sans-serif" font-size="14" lengthAdjust="spacing" textLength="103.5234" x="1465.5117" y="524.7285">VenueResponse</text><line style="stroke:#181818;stroke-width:0.5;" x1="1350.5" x2="1651.5469" y1="535" y2="535"/><rect fill="none" height="6" style="stroke:#C82930;stroke-width:1.0;" width="6" x="1357.5" y="546.3047"/><text fill="#000000" font-family="sans-serif" font-size="14" lengthAdjust="spacing" textLength="49.8203" x="1369.5" y="553.5332">id: Long</text><rect fill="none" height="6" style="stroke:#C82930;stroke-width:1.0;" width="6" x="1357.5" y="563.9141"/><text fill="#000000" font-family="sans-serif" font-size="14" lengthAdjust="spacing" textLength="79.3721" x="1369.5" y="571.1426">name: String</text><rect fill="none" height="6" style="stroke:#C82930;stroke-width:1.0;" width="6" x="1357.5" y="581.5234"/><text fill="#000000" font-family="sans-serif" font-size="14" lengthAdjust="spacing" textLength="94.1582" x="1369.5" y="588.752">address: String</text><rect fill="none" height="6" style="stroke:#C82930;stroke-width:1.0;" width="6" x="1357.5" y="599.1328"/><text fill="#000000" font-family="sans-serif" font-size="14" lengthAdjust="spacing" textLength="65.3516" x="1369.5" y="606.3613">city: String</text><line style="stroke:#181818;stroke-width:0.5;" x1="1350.5" x2="1651.5469" y1="613.4375" y2="613.4375"/><ellipse cx="1360.5" cy="627.7422" fill="#84BE84" rx="3" ry="3" style="stroke:#038048;stroke-width:1.0;"/><text fill="#000000" font-family="sans-serif" font-size="14" lengthAdjust="spacing" textLength="277.0469" x="1369.5" y="631.9707">VenueResponse(Long, String, String, String)</text><ellipse cx="1360.5" cy="645.3516" fill="#84BE84" rx="3" ry="3" style="stroke:#038048;stroke-width:1.0;"/><text fill="#000000" font-family="sans-serif" font-size="14" lengthAdjust="spacing" textLength="59.1445" x="1369.5" y="649.5801">id(): Long</text><ellipse cx="1360.5" cy="662.9609" fill="#84BE84" rx="3" ry="3" style="stroke:#038048;stroke-width:1.0;"/><text fill="#000000" font-family="sans-serif" font-size="14" lengthAdjust="spacing" textLength="88.6963" x="1369.5" y="667.1895">name(): String</text><ellipse cx="1360.5" cy="680.5703" fill="#84BE84" rx="3" ry="3" style="stroke:#038048;stroke-width:1.0;"/><text fill="#000000" font-family="sans-serif" font-size="14" lengthAdjust="spacing" textLength="103.4824" x="1369.5" y="684.7988">address(): String</text><ellipse cx="1360.5" cy="698.1797" fill="#84BE84" rx="3" ry="3" style="stroke:#038048;stroke-width:1.0;"/><text fill="#000000" font-family="sans-serif" font-size="14" lengthAdjust="spacing" textLength="74.6758" x="1369.5" y="702.4082">city(): String</text></g></a><!--class Record--><g id="elem_Record"><rect codeLine="87" fill="#F1F1F1" height="48" id="Record" rx="2.5" ry="2.5" style="stroke:#181818;stroke-width:0.5;" width="77.1309" x="1271.5" y="32"/><ellipse cx="1286.5" cy="48" fill="#A9DCDF" rx="11" ry="11" style="stroke:#181818;stroke-width:1.0;"/><path d="M1288.6875,49.7656 L1284.5469,49.7656 L1284.125,50.7969 L1284.5469,50.7969 Q1285.1563,50.7969 1285.4219,51.0313 Q1285.6875,51.2656 1285.6875,51.6563 Q1285.6875,52.0313 1285.4219,52.2656 Q1285.1563,52.5 1284.5469,52.5 L1282.25,52.5 Q1281.6406,52.5 1281.3906,52.2656 Q1281.125,52.0313 1281.125,51.6406 Q1281.125,51.2656 1281.4063,51.0313 Q1281.6719,50.7813 1282.2969,50.7969 L1284.9688,44.1406 L1283.8594,44.1406 Q1283.25,44.1406 1282.9844,43.9063 Q1282.7188,43.6719 1282.7188,43.2813 Q1282.7188,42.9063 1282.9844,42.6719 Q1283.25,42.4375 1283.8594,42.4375 L1287.5313,42.4375 L1290.9219,50.7969 Q1291.5156,50.7969 1291.7031,50.9375 Q1292.0938,51.2031 1292.0938,51.6563 Q1292.0938,52.0313 1291.8281,52.2656 Q1291.5781,52.5 1290.9688,52.5 L1288.6719,52.5 Q1288.0625,52.5 1287.7969,52.2656 Q1287.5313,52.0313 1287.5313,51.6406 Q1287.5313,51.2656 1287.7969,51.0313 Q1288.0625,50.7969 1288.6719,50.7969 L1289.0938,50.7969 L1288.6875,49.7656 Z M1287.9688,48.0625 L1286.6094,44.6875 L1285.2344,48.0625 L1287.9688,48.0625 Z " fill="#000000"/><text fill="#000000" font-family="sans-serif" font-size="14" font-style="italic" lengthAdjust="spacing" textLength="45.1309" x="1300.5" y="53.7285">Record</text><line style="stroke:#181818;stroke-width:0.5;" x1="1272.5" x2="1347.6309" y1="64" y2="64"/><line style="stroke:#181818;stroke-width:0.5;" x1="1272.5" x2="1347.6309" y1="72" y2="72"/></g><polygon fill="none" points="1271.4802,57.7001,1253.3701,52.0408,1253.5966,64.0387,1271.4802,57.7001" style="stroke:#181818;stroke-width:1.0;"/><path d="M1253.4834,58.0398 C1064.2984,61.6111 258.7867,78.4141 213,107 C165.5516,136.6234 138.9518,197.1447 125.3178,240.4794 " fill="none" style="stroke:#181818;stroke-width:1.0;"/><polygon fill="none" points="1348.6532,58.402,1366.3986,65.1177,1366.879,53.1274,1348.6532,58.402" style="stroke:#181818;stroke-width:1.0;"/><path d="M1366.6388,59.1226 C1470.6926,63.2913 1732.7396,76.5429 1760,107 C1810.3896,163.2986 1809.7614,390.1454 1760,447 C1698.1311,517.6879 1428.75,469.4667 1341,503 C1318.3487,511.6561 1295.7531,524.3329 1275.2291,537.8286 " fill="none" style="stroke:#181818;stroke-width:1.0;"/><polygon fill="none" points="1271.3235,57.8852,1253.171,52.3639,1253.4887,64.3596,1271.3235,57.8852" style="stroke:#181818;stroke-width:1.0;"/><path d="M1253.3299,58.3618 C1142.441,61.2988 843.1464,72.1279 746,107 C725.1075,114.4997 704.3057,124.0418 684.064,134.8174 " fill="none" style="stroke:#181818;stroke-width:1.0;"/><polygon fill="none" points="1290.7888,80.1928,1274.6858,90.2274,1283.9272,97.8823,1290.7888,80.1928" style="stroke:#181818;stroke-width:1.0;"/><path d="M1279.3065,94.0548 C1267.6267,108.1554 1263.0697,113.6568 1245.4256,134.9577 " fill="none" style="stroke:#181818;stroke-width:1.0;"/><polygon fill="#181818" points="1375.647,502.8243,1371.1981,494.0375,1371.7714,499.6652,1366.1437,500.2385,1375.647,502.8243" style="stroke:#181818;stroke-width:1.0;"/><path d="M1307.3125,447.1245 C1330.5094,466.0324 1349.0883,481.1761 1370.9963,499.0334 " fill="none" style="stroke:#181818;stroke-width:1.0;"/><text fill="#000000" font-family="sans-serif" font-size="13" lengthAdjust="spacing" textLength="35.4199" x="1345" y="480.4951">venue</text><polygon fill="#181818" points="1175.145,537.9377,1176.967,528.2588,1173.9946,533.0718,1169.1816,530.0995,1175.145,537.9377" style="stroke:#181818;stroke-width:1.0;"/><path d="M1153.6748,447.1245 C1161.2342,479.0988 1167.4312,505.3105 1173.7645,532.0987 " fill="none" style="stroke:#181818;stroke-width:1.0;"/><text fill="#000000" font-family="sans-serif" font-size="13" lengthAdjust="spacing" textLength="49.8608" x="1162" y="480.4951">category</text><polygon fill="none" points="1348.7081,60.4545,1365.779,68.7362,1367.3338,56.8373,1348.7081,60.4545" style="stroke:#181818;stroke-width:1.0;"/><path d="M1366.5564,62.7868 C1405.0533,67.8173 1446.5026,77.6884 1489,107 C1525.3996,132.1058 1555.7894,170.2714 1578.4609,205.264 " fill="none" style="stroke:#181818;stroke-width:1.0;"/><polygon fill="none" points="1348.8902,57.8733,1366.726,64.3451,1367.0419,52.3493,1348.8902,57.8733" style="stroke:#181818;stroke-width:1.0;"/><path d="M1366.8839,58.3472 C1476.7461,61.2406 1765.2222,71.9412 1792,107 C1883.7235,227.089 1869.2621,317.1342 1792,447 C1761.064,498.9987 1706.3778,534.9474 1652.6996,559.2542 " fill="none" style="stroke:#181818;stroke-width:1.0;"/><text fill="#888888" font-family="sans-serif" font-size="10" lengthAdjust="spacing" textLength="2.7783" x="873.6108" y="729.3809">&#160;</text><a href="https://github.com/talsma-ict/umldoclet" target="_top" title="https://github.com/talsma-ict/umldoclet" xlink:actuate="onRequest" xlink:href="https://github.com/talsma-ict/umldoclet" xlink:show="new" xlink:title="https://github.com/talsma-ict/umldoclet" xlink:type="simple"><text fill="#888888" font-family="sans-serif" font-size="10" lengthAdjust="spacing" textLength="74.4775" x="837.7612" y="741.959">UMLDoclet 2.2.1</text></a><!--SRC=[rLXTRzis57tlhxZ37kR0bYXxRR8IHO7CAReK7X2apbvSFz0I8tEHI8saKXXR__ik9TcbR7cD5m_m_637lb-7vrwTa0G0-076gbXfaIujM0LsAGpS_Je19XD8kUIQMPw0o5dA3InufcHgQaSEhBHBfK7TLzzYfJKtXPA9a2byO8yCZ2frp4tuuWLKfQRhx9-PyR8lLkx7AnLdt49lVEP16aN3ys0KZSvXoZAJCxWUJyCcszUOKJWAXu2vCn5pQJ1bAHEkArYN1OlnOr9R1l38jH5AOapKv75BZPMqJ4W31TFMk2NTP4nQXtKOOlsNuGNqBZzEsjYYrnMs0LngoSe4RjKVvMQvtnMQfOWuOojLMZ0vjqooocGGi-5OYbdaZz8w084-8Cs89Gzp9Lci-2ENreJLnqAf1oGsJ93yF-i0zuepPWoCaSTKwTKjTm0ip6Rt8kEKZ2cvCxXWaYaj346wojob93TQfPhbEMOaxuLTbWjILGcQCW4h1B5CfzmIpGk5f13yAL6n8OYF-FY8ZuyWFh859rpQF9lF4JPuhq2od5FuQ3M6jIpzhVXUxNFMTdBXlRET15_sS-E6q_3J8QV6iuSTaL2Og2rcdiHPdRRdWWVGIPr8774xsPzCwJktfXEPDH_B7Ygji5atQq72JQn5OL4HkXsgUbV8hUChPfdxSofotlQA6JwymgueN4ji0zTjSw5HVIZyBD8h7gEMPcqpbYZvTMU_uwQhdTQ-l_Rc8LbtVD26ErW36tWe1b3FY7lVcf2AievHg8mUQVjSDhJLWxQFkFwQEEVMHLs_eivPzv3NRyZh7kYlzEtOzmtrQOX42yn12d7YmzvlhQmbKeUDxc-kx-iyWnsLVwBY_S_ct3cq5juzxivjcv3zWzyaF0arzx4Skcq8M9BW3jHq6-k9xUgXNtD7HG_PUbIs1iG-yte8llKljjNb4-dACVShpspMFyh7CVOyp-_bb_Qk_dSy48LufaWzujZ2MCrYs_JybkCPAl63Dq6KraPuyrSGVFk4GEdM5lfesJmn-VVf_7tBSL9vi0uDWY1u-vIWrkHHgFJuFosuJJg5jRu_apDVy8wJgg6_IlR6s5N6tsw6_5ufYsVnjbpyiYgudWZvC5OePV3zJztMEtUCpuJaqwM87oG-Yn1vprbLZdZrcbgVv6osjBOmb92qKiFGYPojhX024LjIvbbItnritIBCvysjmFlDzOGxuWVHHH2TJuS_qbT36bs4e-6hA7evYg9-DA9HD7jNQbLmSiDGbkT_0m00]--></g></svg>