<svg xmlns="http://www.w3.org/2000/svg" xmlns:xlink="http://www.w3.org/1999/xlink" contentStyleType="text/css" height="373px" preserveAspectRatio="none" style="width:2336px;height:373px;background:#FFFFFF;" version="1.1" viewBox="0 0 2336 373" width="2336px" zoomAndPan="magnify"><defs/><g><!--cluster com.monacoevents.eventbooking.dto--><g id="cluster_com.monacoevents.eventbooking.dto"><path d="M16.5,96 L268.7617,96 A3.75,3.75 0 0 1 271.2617,98.5 L278.2617,119.6094 L2326.5,119.6094 A2.5,2.5 0 0 1 2329,122.1094 L2329,335.5 A2.5,2.5 0 0 1 2326.5,338 L16.5,338 A2.5,2.5 0 0 1 14,335.5 L14,98.5 A2.5,2.5 0 0 1 16.5,96 " fill="none" style="stroke:#000000;stroke-width:1.5;"/><line style="stroke:#000000;stroke-width:1.5;" x1="14" x2="278.2617" y1="119.6094" y2="119.6094"/><text fill="#000000" font-family="sans-serif" font-size="14" font-weight="bold" lengthAdjust="spacing" textLength="251.2617" x="18" y="112.5332">com.monacoevents.eventbooking.dto</text></g><!--cluster java.lang--><g id="cluster_java.lang"><path d="M1251.5,4 L1312.417,4 A3.75,3.75 0 0 1 1314.917,6.5 L1321.917,27.6094 L1340.5,27.6094 A2.5,2.5 0 0 1 1343,30.1094 L1343,85.5 A2.5,2.5 0 0 1 1340.5,88 L1251.5,88 A2.5,2.5 0 0 1 1249,85.5 L1249,6.5 A2.5,2.5 0 0 1 1251.5,4 " fill="none" style="stroke:#000000;stroke-width:1.5;"/><line style="stroke:#000000;stroke-width:1.5;" x1="1249" x2="1321.917" y1="27.6094" y2="27.6094"/><text fill="#000000" font-family="sans-serif" font-size="14" font-weight="bold" lengthAdjust="spacing" textLength="59.917" x="1253" y="20.5332">java.lang</text></g><!--class CategoryRequest--><a href="file:/C:/Users/loris/Documents/Programming/Github/event-booking-api/target/reports/apidocs/com/monacoevents/eventbooking/dto/CategoryRequest.html" target="_top" title="file:/C:/Users/loris/Documents/Programming/Github/event-booking-api/target/reports/apidocs/com/monacoevents/eventbooking/dto/CategoryRequest.html" xlink:actuate="onRequest" xlink:href="file:/C:/Users/loris/Documents/Programming/Github/event-booking-api/target/reports/apidocs/com/monacoevents/eventbooking/dto/CategoryRequest.html" xlink:show="new" xlink:title="file:/C:/Users/loris/Documents/Programming/Github/event-booking-api/target/reports/apidocs/com/monacoevents/eventbooking/dto/CategoryRequest.html" xlink:type="simple"><g id="elem_CategoryRequest"><rect codeLine="12" fill="#F1F1F1" height="83.2188" id="CategoryRequest" rx="2.5" ry="2.5" style="stroke:#181818;stroke-width:0.5;" width="180.8477" x="2139.5" y="185.5"/><ellipse cx="2172.4534" cy="201.5" fill="#ADD1B2" rx="11" ry="11" style="stroke:#181818;stroke-width:1.0;"/><path d="M2175.219,197.375 Q2175.3753,197.1563 2175.5628,197.0469 Q2175.7503,196.9375 2175.969,196.9375 Q2176.344,196.9375 2176.5784,197.2031 Q2176.8128,197.4531 2176.8128,198.0625 L2176.8128,199.5156 Q2176.8128,200.125 2176.5784,200.3906 Q2176.344,200.6563 2175.969,200.6563 Q2175.6253,200.6563 2175.4222,200.4531 Q2175.219,200.2656 2175.1097,199.75 Q2175.0628,199.3906 2174.8753,199.2031 Q2174.5472,198.8281 2173.9378,198.6094 Q2173.3284,198.3906 2172.7034,198.3906 Q2171.9378,198.3906 2171.2972,198.7188 Q2170.6722,199.0469 2170.1722,199.7969 Q2169.6878,200.5469 2169.6878,201.5781 L2169.6878,202.6719 Q2169.6878,203.9063 2170.5784,204.7344 Q2171.469,205.5469 2173.0628,205.5469 Q2174.0003,205.5469 2174.6565,205.2969 Q2175.0472,205.1406 2175.469,204.7031 Q2175.7347,204.4375 2175.8753,204.3594 Q2176.0315,204.2813 2176.2347,204.2813 Q2176.5628,204.2813 2176.8128,204.5469 Q2177.0784,204.7969 2177.0784,205.1406 Q2177.0784,205.4844 2176.7347,205.8906 Q2176.2347,206.4688 2175.4378,206.7969 Q2174.3597,207.25 2173.0628,207.25 Q2171.5472,207.25 2170.344,206.625 Q2169.3597,206.125 2168.6722,205.0625 Q2167.9847,203.9844 2167.9847,202.7031 L2167.9847,201.5469 Q2167.9847,200.2188 2168.594,199.0781 Q2169.219,197.9219 2170.3128,197.3125 Q2171.4065,196.6875 2172.6409,196.6875 Q2173.3753,196.6875 2174.0159,196.8594 Q2174.6722,197.0156 2175.219,197.375 Z " fill="#000000"/><text fill="#000000" font-family="sans-serif" font-size="14" lengthAdjust="spacing" textLength="108.9512" x="2190.4431" y="207.2285">CategoryRequest</text><line style="stroke:#181818;stroke-width:0.5;" x1="2140.5" x2="2319.3477" y1="217.5" y2="217.5"/><line style="stroke:#181818;stroke-width:0.5;" x1="2140.5" x2="2319.3477" y1="225.5" y2="225.5"/><ellipse cx="2150.5" cy="239.8047" fill="#84BE84" rx="3" ry="3" style="stroke:#038048;stroke-width:1.0;"/><text fill="#000000" font-family="sans-serif" font-size="14" lengthAdjust="spacing" textLength="154.8477" x="2159.5" y="244.0332">CategoryRequest(String)</text><ellipse cx="2150.5" cy="257.4141" fill="#84BE84" rx="3" ry="3" style="stroke:#038048;stroke-width:1.0;"/><text fill="#000000" font-family="sans-serif" font-size="14" lengthAdjust="spacing" textLength="88.6963" x="2159.5" y="261.6426">name(): String</text></g></a><!--class CategoryResponse--><a href="file:/C:/Users/loris/Documents/Programming/Github/event-booking-api/target/reports/apidocs/com/monacoevents/eventbooking/dto/CategoryResponse.html" target="_top" title="file:/C:/Users/loris/Documents/Programming/Github/event-booking-api/target/reports/apidocs/com/monacoevents/eventbooking/dto/CategoryResponse.html" xlink:actuate="onRequest" xlink:href="file:/C:/Users/loris/Documents/Programming/Github/event-booking-api/target/reports/apidocs/com/monacoevents/eventbooking/dto/CategoryResponse.html" xlink:show="new" xlink:title="file:/C:/Users/loris/Documents/Programming/Github/event-booking-api/target/reports/apidocs/com/monacoevents/eventbooking/dto/CategoryResponse.html" xlink:type="simple"><g id="elem_CategoryResponse"><rect codeLine="17" fill="#F1F1F1" height="100.8281" id="CategoryResponse" rx="2.5" ry="2.5" style="stroke:#181818;stroke-width:0.5;" width="230.668" x="1890.5" y="176.5"/><ellipse cx="1941.6602" cy="192.5" fill="#ADD1B2" rx="11" ry="11" style="stroke:#181818;stroke-width:1.0;"/><path d="M1944.4258,188.375 Q1944.582,188.1563 1944.7695,188.0469 Q1944.957,187.9375 1945.1758,187.9375 Q1945.5508,187.9375 1945.7852,188.2031 Q1946.0195,188.4531 1946.0195,189.0625 L1946.0195,190.5156 Q1946.0195,191.125 1945.7852,191.3906 Q1945.5508,191.6563 1945.1758,191.6563 Q1944.832,191.6563 1944.6289,191.4531 Q1944.4258,191.2656 1944.3164,190.75 Q1944.2695,190.3906 1944.082,190.2031 Q1943.7539,189.8281 1943.1445,189.6094 Q1942.5352,189.3906 1941.9102,189.3906 Q1941.1445,189.3906 1940.5039,189.7188 Q1939.8789,190.0469 1939.3789,190.7969 Q1938.8945,191.5469 1938.8945,192.5781 L1938.8945,193.6719 Q1938.8945,194.9063 1939.7852,195.7344 Q1940.6758,196.5469 1942.2695,196.5469 Q1943.207,196.5469 1943.8633,196.2969 Q1944.2539,196.1406 1944.6758,195.7031 Q1944.9414,195.4375 1945.082,195.3594 Q1945.2383,195.2813 1945.4414,195.2813 Q1945.7695,195.2813 1946.0195,195.5469 Q1946.2852,195.7969 1946.2852,196.1406 Q1946.2852,196.4844 1945.9414,196.8906 Q1945.4414,197.4688 1944.6445,197.7969 Q1943.5664,198.25 1942.2695,198.25 Q1940.7539,198.25 1939.5508,197.625 Q1938.5664,197.125 1937.8789,196.0625 Q1937.1914,194.9844 1937.1914,193.7031 L1937.1914,192.5469 Q1937.1914,191.2188 1937.8008,190.0781 Q1938.4258,188.9219 1939.5195,188.3125 Q1940.6133,187.6875 1941.8477,187.6875 Q1942.582,187.6875 1943.2227,187.8594 Q1943.8789,188.0156 1944.4258,188.375 Z " fill="#000000"/><text fill="#000000" font-family="sans-serif" font-size="14" lengthAdjust="spacing" textLength="119.8477" x="1962.1602" y="198.2285">CategoryResponse</text><line style="stroke:#181818;stroke-width:0.5;" x1="1891.5" x2="2120.168" y1="208.5" y2="208.5"/><line style="stroke:#181818;stroke-width:0.5;" x1="1891.5" x2="2120.168" y1="216.5" y2="216.5"/><ellipse cx="1901.5" cy="230.8047" fill="#84BE84" rx="3" ry="3" style="stroke:#038048;stroke-width:1.0;"/><text fill="#000000" font-family="sans-serif" font-size="14" lengthAdjust="spacing" textLength="204.668" x="1910.5" y="235.0332">CategoryResponse(Long, String)</text><ellipse cx="1901.5" cy="248.4141" fill="#84BE84" rx="3" ry="3" style="stroke:#038048;stroke-width:1.0;"/><text fill="#000000" font-family="sans-serif" font-size="14" lengthAdjust="spacing" textLength="59.1445" x="1910.5" y="252.6426">id(): Long</text><ellipse cx="1901.5" cy="266.0234" fill="#84BE84" rx="3" ry="3" style="stroke:#038048;stroke-width:1.0;"/><text fill="#000000" font-family="sans-serif" font-size="14" lengthAdjust="spacing" textLength="88.6963" x="1910.5" y="270.252">name(): String</text></g></a><!--class EventRequest--><a href="file:/C:/Users/loris/Documents/Programming/Github/event-booking-api/target/reports/apidocs/com/monacoevents/eventbooking/dto/EventRequest.html" target="_top" title="file:/C:/Users/loris/Documents/Programming/Github/event-booking-api/target/reports/apidocs/com/monacoevents/eventbooking/dto/EventRequest.html" xlink:actuate="onRequest" xlink:href="file:/C:/Users/loris/Documents/Programming/Github/event-booking-api/target/reports/apidocs/com/monacoevents/eventbooking/dto/EventRequest.html" xlink:show="new" xlink:title="file:/C:/Users/loris/Documents/Programming/Github/event-booking-api/target/reports/apidocs/com/monacoevents/eventbooking/dto/EventRequest.html" xlink:type="simple"><g id="elem_EventRequest"><rect codeLine="23" fill="#F1F1F1" height="188.875" id="EventRequest" rx="2.5" ry="2.5" style="stroke:#181818;stroke-width:0.5;" width="513.915" x="1358" y="132.5"/><ellipse cx="1566.7354" cy="148.5" fill="#ADD1B2" rx="11" ry="11" style="stroke:#181818;stroke-width:1.0;"/><path d="M1569.501,144.375 Q1569.6572,144.1563 1569.8447,144.0469 Q1570.0322,143.9375 1570.251,143.9375 Q1570.626,143.9375 1570.8604,144.2031 Q1571.0947,144.4531 1571.0947,145.0625 L1571.0947,146.5156 Q1571.0947,147.125 1570.8604,147.3906 Q1570.626,147.6563 1570.251,147.6563 Q1569.9072,147.6563 1569.7041,147.4531 Q1569.501,147.2656 1569.3916,146.75 Q1569.3447,146.3906 1569.1572,146.2031 Q1568.8291,145.8281 1568.2197,145.6094 Q1567.6104,145.3906 1566.9854,145.3906 Q1566.2197,145.3906 1565.5791,145.7188 Q1564.9541,146.0469 1564.4541,146.7969 Q1563.9697,147.5469 1563.9697,148.5781 L1563.9697,149.6719 Q1563.9697,150.9063 1564.8604,151.7344 Q1565.751,152.5469 1567.3447,152.5469 Q1568.2822,152.5469 1568.9385,152.2969 Q1569.3291,152.1406 1569.751,151.7031 Q1570.0166,151.4375 1570.1572,151.3594 Q1570.3135,151.2813 1570.5166,151.2813 Q1570.8447,151.2813 1571.0947,151.5469 Q1571.3604,151.7969 1571.3604,152.1406 Q1571.3604,152.4844 1571.0166,152.8906 Q1570.5166,153.4688 1569.7197,153.7969 Q1568.6416,154.25 1567.3447,154.25 Q1565.8291,154.25 1564.626,153.625 Q1563.6416,153.125 1562.9541,152.0625 Q1562.2666,150.9844 1562.2666,149.7031 L1562.2666,148.5469 Q1562.2666,147.2188 1562.876,146.0781 Q1563.501,144.9219 1564.5947,144.3125 Q1565.6885,143.6875 1566.9229,143.6875 Q1567.6572,143.6875 1568.2979,143.8594 Q1568.9541,144.0156 1569.501,144.375 Z " fill="#000000"/><text fill="#000000" font-family="sans-serif" font-size="14" lengthAdjust="spacing" textLength="87.9443" x="1587.2354" y="154.2285">EventRequest</text><line style="stroke:#181818;stroke-width:0.5;" x1="1359" x2="1870.915" y1="164.5" y2="164.5"/><line style="stroke:#181818;stroke-width:0.5;" x1="1359" x2="1870.915" y1="172.5" y2="172.5"/><ellipse cx="1369" cy="186.8047" fill="#84BE84" rx="3" ry="3" style="stroke:#038048;stroke-width:1.0;"/><text fill="#000000" font-family="sans-serif" font-size="14" lengthAdjust="spacing" textLength="487.915" x="1378" y="191.0332">EventRequest(String, String, LocalDateTime, Integer, BigDecimal, Long, Long)</text><ellipse cx="1369" cy="204.4141" fill="#84BE84" rx="3" ry="3" style="stroke:#038048;stroke-width:1.0;"/><text fill="#000000" font-family="sans-serif" font-size="14" lengthAdjust="spacing" textLength="75.4619" x="1378" y="208.6426">title(): String</text><ellipse cx="1369" cy="222.0234" fill="#84BE84" rx="3" ry="3" style="stroke:#038048;stroke-width:1.0;"/><text fill="#000000" font-family="sans-serif" font-size="14" lengthAdjust="spacing" textLength="121.3789" x="1378" y="226.252">description(): String</text><ellipse cx="1369" cy="239.6328" fill="#84BE84" rx="3" ry="3" style="stroke:#038048;stroke-width:1.0;"/><text fill="#000000" font-family="sans-serif" font-size="14" lengthAdjust="spacing" textLength="175.0752" x="1378" y="243.8613">eventDate(): LocalDateTime</text><ellipse cx="1369" cy="257.2422" fill="#84BE84" rx="3" ry="3" style="stroke:#038048;stroke-width:1.0;"/><text fill="#000000" font-family="sans-serif" font-size="14" lengthAdjust="spacing" textLength="112.0479" x="1378" y="261.4707">capacity(): Integer</text><ellipse cx="1369" cy="274.8516" fill="#84BE84" rx="3" ry="3" style="stroke:#038048;stroke-width:1.0;"/><text fill="#000000" font-family="sans-serif" font-size="14" lengthAdjust="spacing" textLength="118.248" x="1378" y="279.0801">price(): BigDecimal</text><ellipse cx="1369" cy="292.4609" fill="#84BE84" rx="3" ry="3" style="stroke:#038048;stroke-width:1.0;"/><text fill="#000000" font-family="sans-serif" font-size="14" lengthAdjust="spacing" textLength="98.0684" x="1378" y="296.6895">venueId(): Long</text><ellipse cx="1369" cy="310.0703" fill="#84BE84" rx="3" ry="3" style="stroke:#038048;stroke-width:1.0;"/><text fill="#000000" font-family="sans-serif" font-size="14" lengthAdjust="spacing" textLength="113.6201" x="1378" y="314.2988">categoryId(): Long</text></g></a><!--class EventResponse--><a href="file:/C:/Users/loris/Documents/Programming/Github/event-booking-api/target/reports/apidocs/com/monacoevents/eventbooking/dto/EventResponse.html" target="_top" title="file:/C:/Users/loris/Documents/Programming/Github/event-booking-api/target/reports/apidocs/com/monacoevents/eventbooking/dto/EventResponse.html" xlink:actuate="onRequest" xlink:href="file:/C:/Users/loris/Documents/Programming/Github/event-booking-api/target/reports/apidocs/com/monacoevents/eventbooking/dto/EventResponse.html" xlink:show="new" xlink:title="file:/C:/Users/loris/Documents/Programming/Github/event-booking-api/target/reports/apidocs/com/monacoevents/eventbooking/dto/EventResponse.html" xlink:type="simple"><g id="elem_EventResponse"><rect codeLine="34" fill="#F1F1F1" height="206.4844" id="EventResponse" rx="2.5" ry="2.5" style="stroke:#181818;stroke-width:0.5;" width="724.8174" x="614.5" y="124"/><ellipse cx="923.2383" cy="140" fill="#ADD1B2" rx="11" ry="11" style="stroke:#181818;stroke-width:1.0;"/><path d="M926.0039,135.875 Q926.1602,135.6563 926.3477,135.5469 Q926.5352,135.4375 926.7539,135.4375 Q927.1289,135.4375 927.3633,135.7031 Q927.5977,135.9531 927.5977,136.5625 L927.5977,138.0156 Q927.5977,138.625 927.3633,138.8906 Q927.1289,139.1563 926.7539,139.1563 Q926.4102,139.1563 926.207,138.9531 Q926.0039,138.7656 925.8945,138.25 Q925.8477,137.8906 925.6602,137.7031 Q925.332,137.3281 924.7227,137.1094 Q924.1133,136.8906 923.4883,136.8906 Q922.7227,136.8906 922.082,137.2188 Q921.457,137.5469 920.957,138.2969 Q920.4727,139.0469 920.4727,140.0781 L920.4727,141.1719 Q920.4727,142.4063 921.3633,143.2344 Q922.2539,144.0469 923.8477,144.0469 Q924.7852,144.0469 925.4414,143.7969 Q925.832,143.6406 926.2539,143.2031 Q926.5195,142.9375 926.6602,142.8594 Q926.8164,142.7813 927.0195,142.7813 Q927.3477,142.7813 927.5977,143.0469 Q927.8633,143.2969 927.8633,143.6406 Q927.8633,143.9844 927.5195,144.3906 Q927.0195,144.9688 926.2227,145.2969 Q925.1445,145.75 923.8477,145.75 Q922.332,145.75 921.1289,145.125 Q920.1445,144.625 919.457,143.5625 Q918.7695,142.4844 918.7695,141.2031 L918.7695,140.0469 Q918.7695,138.7188 919.3789,137.5781 Q920.0039,136.4219 921.0977,135.8125 Q922.1914,135.1875 923.4258,135.1875 Q924.1602,135.1875 924.8008,135.3594 Q925.457,135.5156 926.0039,135.875 Z " fill="#000000"/><text fill="#000000" font-family="sans-serif" font-size="14" lengthAdjust="spacing" textLength="98.8408" x="943.7383" y="145.7285">EventResponse</text><line style="stroke:#181818;stroke-width:0.5;" x1="615.5" x2="1338.3174" y1="156" y2="156"/><line style="stroke:#181818;stroke-width:0.5;" x1="615.5" x2="1338.3174" y1="164" y2="164"/><ellipse cx="625.5" cy="178.3047" fill="#84BE84" rx="3" ry="3" style="stroke:#038048;stroke-width:1.0;"/><text fill="#000000" font-family="sans-serif" font-size="14" lengthAdjust="spacing" textLength="698.8174" x="634.5" y="182.5332">EventResponse(Long, String, String, LocalDateTime, Integer, BigDecimal, VenueResponse, CategoryResponse)</text><ellipse cx="625.5" cy="195.9141" fill="#84BE84" rx="3" ry="3" style="stroke:#038048;stroke-width:1.0;"/><text fill="#000000" font-family="sans-serif" font-size="14" lengthAdjust="spacing" textLength="59.1445" x="634.5" y="200.1426">id(): Long</text><ellipse cx="625.5" cy="213.5234" fill="#84BE84" rx="3" ry="3" style="stroke:#038048;stroke-width:1.0;"/><text fill="#000000" font-family="sans-serif" font-size="14" lengthAdjust="spacing" textLength="75.4619" x="634.5" y="217.752">title(): String</text><ellipse cx="625.5" cy="231.1328" fill="#84BE84" rx="3" ry="3" style="stroke:#038048;stroke-width:1.0;"/><text fill="#000000" font-family="sans-serif" font-size="14" lengthAdjust="spacing" textLength="121.3789" x="634.5" y="235.3613">description(): String</text><ellipse cx="625.5" cy="248.7422" fill="#84BE84" rx="3" ry="3" style="stroke:#038048;stroke-width:1.0;"/><text fill="#000000" font-family="sans-serif" font-size="14" lengthAdjust="spacing" textLength="175.0752" x="634.5" y="252.9707">eventDate(): LocalDateTime</text><ellipse cx="625.5" cy="266.3516" fill="#84BE84" rx="3" ry="3" style="stroke:#038048;stroke-width:1.0;"/><text fill="#000000" font-family="sans-serif" font-size="14" lengthAdjust="spacing" textLength="112.0479" x="634.5" y="270.5801">capacity(): Integer</text><ellipse cx="625.5" cy="283.9609" fill="#84BE84" rx="3" ry="3" style="stroke:#038048;stroke-width:1.0;"/><text fill="#000000" font-family="sans-serif" font-size="14" lengthAdjust="spacing" textLength="118.248" x="634.5" y="288.1895">price(): BigDecimal</text><ellipse cx="625.5" cy="301.5703" fill="#84BE84" rx="3" ry="3" style="stroke:#038048;stroke-width:1.0;"/><text fill="#000000" font-family="sans-serif" font-size="14" lengthAdjust="spacing" textLength="158.7715" x="634.5" y="305.7988">venue(): VenueResponse</text><ellipse cx="625.5" cy="319.1797" fill="#84BE84" rx="3" ry="3" style="stroke:#038048;stroke-width:1.0;"/><text fill="#000000" font-family="sans-serif" font-size="14" lengthAdjust="spacing" textLength="190.6475" x="634.5" y="323.4082">category(): CategoryResponse</text></g></a><!--class VenueRequest--><a href="file:/C:/Users/loris/Documents/Programming/Github/event-booking-api/target/reports/apidocs/com/monacoevents/eventbooking/dto/VenueRequest.html" target="_top" title="file:/C:/Users/loris/Documents/Programming/Github/event-booking-api/target/reports/apidocs/com/monacoevents/eventbooking/dto/VenueRequest.html" xlink:actuate="onRequest" xlink:href="file:/C:/Users/loris/Documents/Programming/Github/event-booking-api/target/reports/apidocs/com/monacoevents/eventbooking/dto/VenueRequest.html" xlink:show="new" xlink:title="file:/C:/Users/loris/Documents/Programming/Github/event-booking-api/target/reports/apidocs/com/monacoevents/eventbooking/dto/VenueRequest.html" xlink:type="simple"><g id="elem_VenueRequest"><rect codeLine="46" fill="#F1F1F1" height="118.4375" id="VenueRequest" rx="2.5" ry="2.5" style="stroke:#181818;stroke-width:0.5;" width="253.2266" x="343.5" y="168"/><ellipse cx="419.5498" cy="184" fill="#ADD1B2" rx="11" ry="11" style="stroke:#181818;stroke-width:1.0;"/><path d="M422.3154,179.875 Q422.4717,179.6563 422.6592,179.5469 Q422.8467,179.4375 423.0654,179.4375 Q423.4404,179.4375 423.6748,179.7031 Q423.9092,179.9531 423.9092,180.5625 L423.9092,182.0156 Q423.9092,182.625 423.6748,182.8906 Q423.4404,183.1563 423.0654,183.1563 Q422.7217,183.1563 422.5186,182.9531 Q422.3154,182.7656 422.2061,182.25 Q422.1592,181.8906 421.9717,181.7031 Q421.6436,181.3281 421.0342,181.1094 Q420.4248,180.8906 419.7998,180.8906 Q419.0342,180.8906 418.3936,181.2188 Q417.7686,181.5469 417.2686,182.2969 Q416.7842,183.0469 416.7842,184.0781 L416.7842,185.1719 Q416.7842,186.4063 417.6748,187.2344 Q418.5654,188.0469 420.1592,188.0469 Q421.0967,188.0469 421.7529,187.7969 Q422.1436,187.6406 422.5654,187.2031 Q422.8311,186.9375 422.9717,186.8594 Q423.1279,186.7813 423.3311,186.7813 Q423.6592,186.7813 423.9092,187.0469 Q424.1748,187.2969 424.1748,187.6406 Q424.1748,187.9844 423.8311,188.3906 Q423.3311,188.9688 422.5342,189.2969 Q421.4561,189.75 420.1592,189.75 Q418.6436,189.75 417.4404,189.125 Q416.4561,188.625 415.7686,187.5625 Q415.0811,186.4844 415.0811,185.2031 L415.0811,184.0469 Q415.0811,182.7188 415.6904,181.5781 Q416.3154,180.4219 417.4092,179.8125 Q418.5029,179.1875 419.7373,179.1875 Q420.4717,179.1875 421.1123,179.3594 Q421.7686,179.5156 422.3154,179.875 Z " fill="#000000"/><text fill="#000000" font-family="sans-serif" font-size="14" lengthAdjust="spacing" textLength="92.627" x="440.0498" y="189.7285">VenueRequest</text><line style="stroke:#181818;stroke-width:0.5;" x1="344.5" x2="595.7266" y1="200" y2="200"/><line style="stroke:#181818;stroke-width:0.5;" x1="344.5" x2="595.7266" y1="208" y2="208"/><ellipse cx="354.5" cy="222.3047" fill="#84BE84" rx="3" ry="3" style="stroke:#038048;stroke-width:1.0;"/><text fill="#000000" font-family="sans-serif" font-size="14" lengthAdjust="spacing" textLength="227.2266" x="363.5" y="226.5332">VenueRequest(String, String, String)</text><ellipse cx="354.5" cy="239.9141" fill="#84BE84" rx="3" ry="3" style="stroke:#038048;stroke-width:1.0;"/><text fill="#000000" font-family="sans-serif" font-size="14" lengthAdjust="spacing" textLength="88.6963" x="363.5" y="244.1426">name(): String</text><ellipse cx="354.5" cy="257.5234" fill="#84BE84" rx="3" ry="3" style="stroke:#038048;stroke-width:1.0;"/><text fill="#000000" font-family="sans-serif" font-size="14" lengthAdjust="spacing" textLength="103.4824" x="363.5" y="261.752">address(): String</text><ellipse cx="354.5" cy="275.1328" fill="#84BE84" rx="3" ry="3" style="stroke:#038048;stroke-width:1.0;"/><text fill="#000000" font-family="sans-serif" font-size="14" lengthAdjust="spacing" textLength="74.6758" x="363.5" y="279.3613">city(): String</text></g></a><!--class VenueResponse--><a href="file:/C:/Users/loris/Documents/Programming/Github/event-booking-api/target/reports/apidocs/com/monacoevents/eventbooking/dto/VenueResponse.html" target="_top" title="file:/C:/Users/loris/Documents/Programming/Github/event-booking-api/target/reports/apidocs/com/monacoevents/eventbooking/dto/VenueResponse.html" xlink:actuate="onRequest" xlink:href="file:/C:/Users/loris/Documents/Programming/Github/event-booking-api/target/reports/apidocs/com/monacoevents/eventbooking/dto/VenueResponse.html" xlink:show="new" xlink:title="file:/C:/Users/loris/Documents/Programming/Github/event-booking-api/target/reports/apidocs/com/monacoevents/eventbooking/dto/VenueResponse.html" xlink:type="simple"><g id="elem_VenueResponse"><rect codeLine="53" fill="#F1F1F1" height="136.0469" id="VenueResponse" rx="2.5" ry="2.5" style="stroke:#181818;stroke-width:0.5;" width="303.0469" x="22.5" y="159"/><ellipse cx="118.0117" cy="175" fill="#ADD1B2" rx="11" ry="11" style="stroke:#181818;stroke-width:1.0;"/><path d="M120.7773,170.875 Q120.9336,170.6563 121.1211,170.5469 Q121.3086,170.4375 121.5273,170.4375 Q121.9023,170.4375 122.1367,170.7031 Q122.3711,170.9531 122.3711,171.5625 L122.3711,173.0156 Q122.3711,173.625 122.1367,173.8906 Q121.9023,174.1563 121.5273,174.1563 Q121.1836,174.1563 120.9805,173.9531 Q120.7773,173.7656 120.668,173.25 Q120.6211,172.8906 120.4336,172.7031 Q120.1055,172.3281 119.4961,172.1094 Q118.8867,171.8906 118.2617,171.8906 Q117.4961,171.8906 116.8555,172.2188 Q116.2305,172.5469 115.7305,173.2969 Q115.2461,174.0469 115.2461,175.0781 L115.2461,176.1719 Q115.2461,177.4063 116.1367,178.2344 Q117.0273,179.0469 118.6211,179.0469 Q119.5586,179.0469 120.2148,178.7969 Q120.6055,178.6406 121.0273,178.2031 Q121.293,177.9375 121.4336,177.8594 Q121.5898,177.7813 121.793,177.7813 Q122.1211,177.7813 122.3711,178.0469 Q122.6367,178.2969 122.6367,178.6406 Q122.6367,178.9844 122.293,179.3906 Q121.793,179.9688 120.9961,180.2969 Q119.918,180.75 118.6211,180.75 Q117.1055,180.75 115.9023,180.125 Q114.918,179.625 114.2305,178.5625 Q113.543,177.4844 113.543,176.2031 L113.543,175.0469 Q113.543,173.7188 114.1523,172.5781 Q114.7773,171.4219 115.8711,170.8125 Q116.9648,170.1875 118.1992,170.1875 Q118.9336,170.1875 119.5742,170.3594 Q120.2305,170.5156 120.7773,170.875 Z " fill="#000000"/><text fill="#000000" font-family="sans-serif" font-size="14" lengthAdjust="spacing" textLength="103.5234" x="138.5117" y="180.7285">VenueResponse</text><line style="stroke:#181818;stroke-width:0.5;" x1="23.5" x2="324.5469" y1="191" y2="191"/><line style="stroke:#181818;stroke-width:0.5;" x1="23.5" x2="324.5469" y1="199" y2="199"/><ellipse cx="33.5" cy="213.3047" fill="#84BE84" rx="3" ry="3" style="stroke:#038048;stroke-width:1.0;"/><text fill="#000000" font-family="sans-serif" font-size="14" lengthAdjust="spacing" textLength="277.0469" x="42.5" y="217.5332">VenueResponse(Long, String, String, String)</text><ellipse cx="33.5" cy="230.9141" fill="#84BE84" rx="3" ry="3" style="stroke:#038048;stroke-width:1.0;"/><text fill="#000000" font-family="sans-serif" font-size="14" lengthAdjust="spacing" textLength="59.1445" x="42.5" y="235.1426">id(): Long</text><ellipse cx="33.5" cy="248.5234" fill="#84BE84" rx="3" ry="3" style="stroke:#038048;stroke-width:1.0;"/><text fill="#000000" font-family="sans-serif" font-size="14" lengthAdjust="spacing" textLength="88.6963" x="42.5" y="252.752">name(): String</text><ellipse cx="33.5" cy="266.1328" fill="#84BE84" rx="3" ry="3" style="stroke:#038048;stroke-width:1.0;"/><text fill="#000000" font-family="sans-serif" font-size="14" lengthAdjust="spacing" textLength="103.4824" x="42.5" y="270.3613">address(): String</text><ellipse cx="33.5" cy="283.7422" fill="#84BE84" rx="3" ry="3" style="stroke:#038048;stroke-width:1.0;"/><text fill="#000000" font-family="sans-serif" font-size="14" lengthAdjust="spacing" textLength="74.6758" x="42.5" y="287.9707">city(): String</text></g></a><!--class Record--><g id="elem_Record"><rect codeLine="64" fill="#F1F1F1" height="48" id="Record" rx="2.5" ry="2.5" style="stroke:#181818;stroke-width:0.5;" width="77.1309" x="1257.5" y="32"/><ellipse cx="1272.5" cy="48" fill="#A9DCDF" rx="11" ry="11" style="stroke:#181818;stroke-width:1.0;"/><path d="M1274.6875,49.7656 L1270.5469,49.7656 L1270.125,50.7969 L1270.5469,50.7969 Q1271.1563,50.7969 1271.4219,51.0313 Q1271.6875,51.2656 1271.6875,51.6563 Q1271.6875,52.0313 1271.4219,52.2656 Q1271.1563,52.5 1270.5469,52.5 L1268.25,52.5 Q1267.6406,52.5 1267.3906,52.2656 Q1267.125,52.0313 1267.125,51.6406 Q1267.125,51.2656 1267.4063,51.0313 Q1267.6719,50.7813 1268.2969,50.7969 L1270.9688,44.1406 L1269.8594,44.1406 Q1269.25,44.1406 1268.9844,43.9063 Q1268.7188,43.6719 1268.7188,43.2813 Q1268.7188,42.9063 1268.9844,42.6719 Q1269.25,42.4375 1269.8594,42.4375 L1273.5313,42.4375 L1276.9219,50.7969 Q1277.5156,50.7969 1277.7031,50.9375 Q1278.0938,51.2031 1278.0938,51.6563 Q1278.0938,52.0313 1277.8281,52.2656 Q1277.5781,52.5 1276.9688,52.5 L1274.6719,52.5 Q1274.0625,52.5 1273.7969,52.2656 Q1273.5313,52.0313 1273.5313,51.6406 Q1273.5313,51.2656 1273.7969,51.0313 Q1274.0625,50.7969 1274.6719,50.7969 L1275.0938,50.7969 L1274.6875,49.7656 Z M1273.9688,48.0625 L1272.6094,44.6875 L1271.2344,48.0625 L1273.9688,48.0625 Z " fill="#000000"/><text fill="#000000" font-family="sans-serif" font-size="14" font-style="italic" lengthAdjust="spacing" textLength="45.1309" x="1286.5" y="53.7285">Record</text><line style="stroke:#181818;stroke-width:0.5;" x1="1258.5" x2="1333.6309" y1="64" y2="64"/><line style="stroke:#181818;stroke-width:0.5;" x1="1258.5" x2="1333.6309" y1="72" y2="72"/></g><polygon fill="none" points="1334.5745,56.8982,1352.5804,62.8805,1352.5686,50.8805,1334.5745,56.8982" style="stroke:#181818;stroke-width:1.0;"/><path d="M1352.5745,56.8805 C1507.2993,56.7288 2060.0032,58.7389 2131,96 C2167.6744,115.2478 2194.7175,154.8244 2211.1863,185.2818 " fill="none" style="stroke:#181818;stroke-width:1.0;"/><polygon fill="none" points="1334.5137,57.96,1352.3469,64.439,1352.6677,52.4433,1334.5137,57.96" style="stroke:#181818;stroke-width:1.0;"/><path d="M1352.5073,58.4411 C1474.8792,61.7131 1831.6907,73.0395 1881,96 C1918.4668,113.4461 1950.5296,147.4639 1972.8,176.3255 " fill="none" style="stroke:#181818;stroke-width:1.0;"/><polygon fill="none" points="1334.7967,77.5538,1347.8936,91.2822,1353.5114,80.6784,1334.7967,77.5538" style="stroke:#181818;stroke-width:1.0;"/><path d="M1350.7025,85.9803 C1377.4354,100.1429 1399.1568,111.6505 1438.1833,132.326 " fill="none" style="stroke:#181818;stroke-width:1.0;"/><polygon fill="none" points="1257.2033,77.5538,1238.4886,80.6784,1244.1064,91.2822,1257.2033,77.5538" style="stroke:#181818;stroke-width:1.0;"/><path d="M1241.2975,85.9803 C1218.2175,98.2076 1202.923,106.3104 1169.7125,123.9047 " fill="none" style="stroke:#181818;stroke-width:1.0;"/><polygon fill="none" points="1257.4667,57.6262,1239.3628,51.9475,1239.5764,63.9456,1257.4667,57.6262" style="stroke:#181818;stroke-width:1.0;"/><path d="M1239.4696,57.9466 C1103.021,60.3761 665.7738,70.045 606,96 C570.1974,111.5462 538.1856,140.9055 514.2269,167.7945 " fill="none" style="stroke:#181818;stroke-width:1.0;"/><polygon fill="none" points="1257.4067,57.1386,1239.3785,51.2239,1239.4353,63.2238,1257.4067,57.1386" style="stroke:#181818;stroke-width:1.0;"/><path d="M1239.4069,57.2239 C1070.9098,58.0217 422.272,63.1591 335,96 C299.0224,109.5386 264.9935,134.4704 237.5695,158.9064 " fill="none" style="stroke:#181818;stroke-width:1.0;"/><text fill="#888888" font-family="sans-serif" font-size="10" lengthAdjust="spacing" textLength="2.7783" x="1158.6108" y="350.3809">&#160;</text><a href="https://github.com/talsma-ict/umldoclet" target="_top" title="https://github.com/talsma-ict/umldoclet" xlink:actuate="onRequest" xlink:href="https://github.com/talsma-ict/umldoclet" xlink:show="new" xlink:title="https://github.com/talsma-ict/umldoclet" xlink:type="simple"><text fill="#888888" font-family="sans-serif" font-size="10" lengthAdjust="spacing" textLength="74.4775" x="1122.7612" y="362.959">UMLDoclet 2.2.1</text></a><!--SRC=[rLVVRzCm47xdhpZ40vreuxI33IA4D3e4GqMQjewNqWVNyLBJn0wsCrG1_pld9EsShc7yw4F9Gwlspjzz_dntyG40F8QXofTQ97CBLe6T2mDN7qP0PGm9brnJosCG6KsuWHbFbKnCvSY15dQkDAZhyXTJMdEJAnaBcS1xUaF1g48pRe873w0CDLwXVwN6GvyjtP-dYgNSGcTuu54QXFsZtY0S7C6OfYQZS3OS1pNQxPf1C0ZwWDYfO5mQX2nap7L9woId3Bz6bQKBDrmReIIk2MiSjrMcfAL26iYfjiPjwJobqZgk_G3ZFmsEeNDoEMfo2r-KtBfmeYKjOhXGNuhrTX_ccYR8EALBLLWm6RTKqj9aaBFX68fQr2-AgWL8T84o8vSio9IaJF4RBgq9og-PKWiKDeXH_6_L0lUmb1e3GzGnKNfvmHq12vF9jKXvH8OHkJAuOP8gBGn1kOhCGP9phH9DimmHoLjXvyMCb55wTPWUpGMnL2VS4irpXQ8G_2jMp13aHtn-nET7a1_Pe1FCRPPEfqWRlEV9XbVdqce4E6WwIPhnpa44bN5j-z6kW4j1m_T7WehFlHfKRfqH5bWNjaeXOYU4S_WxYTuuZdkI8JwN5cbybpetLi9qKGL6qrCKRomoBEepYJ9otONN8Zdb3DjLseLAIlUv8QGLDjscM6cCkM5Qv1PxH9jBkHiNl3eFZqdJZr4iQM6Npgrcs7J8DNObPxsbtNJ0G0K_QpbtLkVE5dlRsUz7RJJ8_FhqjrJ5doN1HwVW2gTxfqtyPedzPndZ71eRtvuupcrJaFOKgW7tedtuN5eIo7Uvqpx-v5LJscWSu-N6j9bNPtPV2suSofw8-CioRFYqbE4kNbR_BlAFvYNgCzu_0xp29TwEwCnOJPcj3-E2uvKrzXUl5qLHPOINttkz-ozaKRHnbzaPcbUKVm_dlqbt0xKJMdw5xWQgfbM2lJHscV9NwyE_LihYID3CxtVBdEkHa8kXmjg3Hy-tMw_SD94AoN60OGk9EGgXbtzbEEB5gsDzafF9tDhSH8GaPVa6hYfjESdq1BEaoDAu6c4sXfdfj1vEtgwd93TfzCBZNdWqxeTH_p3gFmjmCEaF1eTX-2GSH64uULDebNDoJh6FJ7y2]--></g></svg>