<svg xmlns="http://www.w3.org/2000/svg" xmlns:xlink="http://www.w3.org/1999/xlink" contentStyleType="text/css" height="100%" preserveAspectRatio="none" style="width:100%;height:100%;background:#FFFFFF;" version="1.1" viewBox="0 0 1931 815" width="100%" zoomAndPan="magnify"><defs/><g><!--cluster com.monacoevents.eventbooking.dto--><g id="cluster_com.monacoevents.eventbooking.dto"><path d="M10,137 L239.2451,137 A6,6 0 0 1 243.2451,141 L250.2451,160.291 L1757,160.291 A4,4 0 0 1 1761,164.291 L1761,770.98 A4,4 0 0 1 1757,774.98 L10,774.98 A4,4 0 0 1 6,770.98 L6,141 A4,4 0 0 1 10,137 " fill="#FBFBFD" style="stroke:#B8C4D0;stroke-width:1.5;"/><line style="stroke:#B8C4D0;stroke-width:1.5;" x1="6" x2="250.2451" y1="160.291" y2="160.291"/><text fill="#33475B" font-family="Segoe UI" font-size="13" font-weight="bold" lengthAdjust="spacing" textLength="231.2451" x="10" y="153.0283">com.monacoevents.eventbooking.dto</text></g><!--cluster java.lang--><g id="cluster_java.lang"><path d="M1274,6 L1326.8564,6 A6,6 0 0 1 1330.8564,10 L1337.8564,29.291 L1366,29.291 A4,4 0 0 1 1370,33.291 L1370,100 A4,4 0 0 1 1366,104 L1274,104 A4,4 0 0 1 1270,100 L1270,10 A4,4 0 0 1 1274,6 " fill="#FBFBFD" style="stroke:#B8C4D0;stroke-width:1.5;"/><line style="stroke:#B8C4D0;stroke-width:1.5;" x1="1270" x2="1337.8564" y1="29.291" y2="29.291"/><text fill="#33475B" font-family="Segoe UI" font-size="13" font-weight="bold" lengthAdjust="spacing" textLength="54.8564" x="1274" y="22.0283">java.lang</text></g><!--class CategoryRequest--><a href="file:/C:/Users/loris/Documents/Programming/Github/event-booking-api/target/reports/apidocs/com/monacoevents/eventbooking/dto/CategoryRequest.html" target="_top" title="file:/C:/Users/loris/Documents/Programming/Github/event-booking-api/target/reports/apidocs/com/monacoevents/eventbooking/dto/CategoryRequest.html" xlink:actuate="onRequest" xlink:href="file:/C:/Users/loris/Documents/Programming/Github/event-booking-api/target/reports/apidocs/com/monacoevents/eventbooking/dto/CategoryRequest.html" xlink:show="new" xlink:title="file:/C:/Users/loris/Documents/Programming/Github/event-booking-api/target/reports/apidocs/com/monacoevents/eventbooking/dto/CategoryRequest.html" xlink:type="simple"><g id="elem_CategoryRequest"><rect codeLine="25" fill="#F4F8FB" height="97.873" id="CategoryRequest" rx="4" ry="4" style="stroke:#2C6E8C;stroke-width:0.5;" width="176.3345" x="21.83" y="276.74"/><ellipse cx="54.6063" cy="291.74" fill="#ADD1B2" rx="10" ry="10" style="stroke:#181818;stroke-width:1.0;"/><path d="M55.5438,288.3806 Q55.6688,288.2088 55.8094,288.1306 Q55.95,288.0525 56.1219,288.0525 Q56.4032,288.0525 56.575,288.2556 Q56.7625,288.4431 56.7625,288.9119 L56.7625,290.0213 Q56.7625,290.49 56.575,290.6931 Q56.4032,290.8806 56.1219,290.8806 Q55.8563,290.8806 55.7,290.74 Q55.5438,290.5994 55.4657,290.1931 Q55.4188,289.9275 55.2938,289.7869 Q55.0282,289.49 54.5594,289.3181 Q54.0907,289.1463 53.6219,289.1463 Q53.0438,289.1463 52.5438,289.4119 Q52.0594,289.6619 51.6844,290.24 Q51.3094,290.8025 51.3094,291.5838 L51.3094,292.4275 Q51.3094,293.365 51.9969,294.0056 Q52.6844,294.6306 53.8875,294.6306 Q54.6219,294.6306 55.1219,294.4275 Q55.4032,294.3181 55.7313,293.9744 Q55.9344,293.7713 56.0438,293.7244 Q56.1688,293.6619 56.3094,293.6619 Q56.575,293.6619 56.7625,293.865 Q56.9657,294.0525 56.9657,294.3181 Q56.9657,294.5838 56.7,294.8963 Q56.3094,295.3338 55.7,295.5838 Q54.8875,295.9275 53.9032,295.9275 Q52.7469,295.9275 51.8094,295.4588 Q51.0594,295.0681 50.5282,294.2556 Q50.0125,293.4275 50.0125,292.4588 L50.0125,291.5681 Q50.0125,290.5525 50.4813,289.6775 Q50.9657,288.8025 51.7938,288.3338 Q52.6375,287.8494 53.575,287.8494 Q54.1375,287.8494 54.6219,287.99 Q55.1219,288.115 55.5438,288.3806 Z " fill="#000000"/><text fill="#14324A" font-family="Segoe UI" font-size="13" lengthAdjust="spacing" textLength="104.6094" x="71.7788" y="297.1228">CategoryRequest</text><line style="stroke:#2C6E8C;stroke-width:0.5;" x1="22.83" x2="197.1645" y1="306.74" y2="306.74"/><rect fill="none" height="6" style="stroke:#C82930;stroke-width:1.0;" width="6" x="29.83" y="317.8855"/><text fill="#000000" font-family="Segoe UI" font-size="13" lengthAdjust="spacing" textLength="78.0381" x="40.83" y="324.7683">name: String</text><line style="stroke:#2C6E8C;stroke-width:0.5;" x1="22.83" x2="197.1645" y1="332.031" y2="332.031"/><ellipse cx="32.83" cy="346.1765" fill="#84BE84" rx="3" ry="3" style="stroke:#038048;stroke-width:1.0;"/><text fill="#000000" font-family="Segoe UI" font-size="13" lengthAdjust="spacing" textLength="151.3345" x="40.83" y="350.0593">CategoryRequest(String)</text><ellipse cx="32.83" cy="363.4675" fill="#84BE84" rx="3" ry="3" style="stroke:#038048;stroke-width:1.0;"/><text fill="#000000" font-family="Segoe UI" font-size="13" lengthAdjust="spacing" textLength="87.6357" x="40.83" y="367.3504">name(): String</text></g></a><!--class CategoryResponse--><a href="file:/C:/Users/loris/Documents/Programming/Github/event-booking-api/target/reports/apidocs/com/monacoevents/eventbooking/dto/CategoryResponse.html" target="_top" title="file:/C:/Users/loris/Documents/Programming/Github/event-booking-api/target/reports/apidocs/com/monacoevents/eventbooking/dto/CategoryResponse.html" xlink:actuate="onRequest" xlink:href="file:/C:/Users/loris/Documents/Programming/Github/event-booking-api/target/reports/apidocs/com/monacoevents/eventbooking/dto/CategoryResponse.html" xlink:show="new" xlink:title="file:/C:/Users/loris/Documents/Programming/Github/event-booking-api/target/reports/apidocs/com/monacoevents/eventbooking/dto/CategoryResponse.html" xlink:type="simple"><g id="elem_CategoryResponse"><rect codeLine="31" fill="#F4F8FB" height="132.4551" id="CategoryResponse" rx="4" ry="4" style="stroke:#2C6E8C;stroke-width:0.5;" width="222.5708" x="1051.71" y="591.94"/><ellipse cx="1102.3807" cy="606.94" fill="#ADD1B2" rx="10" ry="10" style="stroke:#181818;stroke-width:1.0;"/><path d="M1103.3182,603.5806 Q1103.4432,603.4088 1103.5838,603.3306 Q1103.7244,603.2525 1103.8963,603.2525 Q1104.1775,603.2525 1104.3494,603.4556 Q1104.5369,603.6431 1104.5369,604.1119 L1104.5369,605.2213 Q1104.5369,605.69 1104.3494,605.8931 Q1104.1775,606.0806 1103.8963,606.0806 Q1103.6307,606.0806 1103.4744,605.94 Q1103.3182,605.7994 1103.24,605.3931 Q1103.1932,605.1275 1103.0682,604.9869 Q1102.8025,604.69 1102.3338,604.5181 Q1101.865,604.3463 1101.3963,604.3463 Q1100.8182,604.3463 1100.3182,604.6119 Q1099.8338,604.8619 1099.4588,605.44 Q1099.0838,606.0025 1099.0838,606.7838 L1099.0838,607.6275 Q1099.0838,608.565 1099.7713,609.2056 Q1100.4588,609.8306 1101.6619,609.8306 Q1102.3963,609.8306 1102.8963,609.6275 Q1103.1775,609.5181 1103.5057,609.1744 Q1103.7088,608.9713 1103.8182,608.9244 Q1103.9432,608.8619 1104.0838,608.8619 Q1104.3494,608.8619 1104.5369,609.065 Q1104.74,609.2525 1104.74,609.5181 Q1104.74,609.7838 1104.4744,610.0963 Q1104.0838,610.5338 1103.4744,610.7838 Q1102.6619,611.1275 1101.6775,611.1275 Q1100.5213,611.1275 1099.5838,610.6588 Q1098.8338,610.2681 1098.3025,609.4556 Q1097.7869,608.6275 1097.7869,607.6588 L1097.7869,606.7681 Q1097.7869,605.7525 1098.2557,604.8775 Q1098.74,604.0025 1099.5682,603.5338 Q1100.4119,603.0494 1101.3494,603.0494 Q1101.9119,603.0494 1102.3963,603.19 Q1102.8963,603.315 1103.3182,603.5806 Z " fill="#000000"/><text fill="#14324A" font-family="Segoe UI" font-size="13" lengthAdjust="spacing" textLength="113.2295" x="1121.3807" y="612.3228">CategoryResponse</text><line style="stroke:#2C6E8C;stroke-width:0.5;" x1="1052.71" x2="1273.2808" y1="621.94" y2="621.94"/><rect fill="none" height="6" style="stroke:#C82930;stroke-width:1.0;" width="6" x="1059.71" y="633.0855"/><text fill="#000000" font-family="Segoe UI" font-size="13" lengthAdjust="spacing" textLength="49.3594" x="1070.71" y="639.9683">id: Long</text><rect fill="none" height="6" style="stroke:#C82930;stroke-width:1.0;" width="6" x="1059.71" y="650.3765"/><text fill="#000000" font-family="Segoe UI" font-size="13" lengthAdjust="spacing" textLength="78.0381" x="1070.71" y="657.2593">name: String</text><line style="stroke:#2C6E8C;stroke-width:0.5;" x1="1052.71" x2="1273.2808" y1="664.522" y2="664.522"/><ellipse cx="1062.71" cy="678.6675" fill="#84BE84" rx="3" ry="3" style="stroke:#038048;stroke-width:1.0;"/><text fill="#000000" font-family="Segoe UI" font-size="13" lengthAdjust="spacing" textLength="197.5708" x="1070.71" y="682.5504">CategoryResponse(Long, String)</text><ellipse cx="1062.71" cy="695.9586" fill="#84BE84" rx="3" ry="3" style="stroke:#038048;stroke-width:1.0;"/><text fill="#000000" font-family="Segoe UI" font-size="13" lengthAdjust="spacing" textLength="58.957" x="1070.71" y="699.8414">id(): Long</text><ellipse cx="1062.71" cy="713.2496" fill="#84BE84" rx="3" ry="3" style="stroke:#038048;stroke-width:1.0;"/><text fill="#000000" font-family="Segoe UI" font-size="13" lengthAdjust="spacing" textLength="87.6357" x="1070.71" y="717.1324">name(): String</text></g></a><!--class EventRequest--><a href="file:/C:/Users/loris/Documents/Programming/Github/event-booking-api/target/reports/apidocs/com/monacoevents/eventbooking/dto/EventRequest.html" target="_top" title="file:/C:/Users/loris/Documents/Programming/Github/event-booking-api/target/reports/apidocs/com/monacoevents/eventbooking/dto/EventRequest.html" xlink:actuate="onRequest" xlink:href="file:/C:/Users/loris/Documents/Programming/Github/event-booking-api/target/reports/apidocs/com/monacoevents/eventbooking/dto/EventRequest.html" xlink:show="new" xlink:title="file:/C:/Users/loris/Documents/Programming/Github/event-booking-api/target/reports/apidocs/com/monacoevents/eventbooking/dto/EventRequest.html" xlink:type="simple"><g id="elem_EventRequest"><rect codeLine="39" fill="#F4F8FB" height="305.3652" id="EventRequest" rx="4" ry="4" style="stroke:#2C6E8C;stroke-width:0.5;" width="499.6968" x="233.15" y="173"/><ellipse cx="437.4149" cy="188" fill="#ADD1B2" rx="10" ry="10" style="stroke:#181818;stroke-width:1.0;"/><path d="M438.3524,184.6406 Q438.4774,184.4688 438.618,184.3906 Q438.7586,184.3125 438.9305,184.3125 Q439.2118,184.3125 439.3836,184.5156 Q439.5711,184.7031 439.5711,185.1719 L439.5711,186.2813 Q439.5711,186.75 439.3836,186.9531 Q439.2118,187.1406 438.9305,187.1406 Q438.6649,187.1406 438.5086,187 Q438.3524,186.8594 438.2743,186.4531 Q438.2274,186.1875 438.1024,186.0469 Q437.8368,185.75 437.368,185.5781 Q436.8993,185.4063 436.4305,185.4063 Q435.8524,185.4063 435.3524,185.6719 Q434.868,185.9219 434.493,186.5 Q434.118,187.0625 434.118,187.8438 L434.118,188.6875 Q434.118,189.625 434.8055,190.2656 Q435.493,190.8906 436.6961,190.8906 Q437.4305,190.8906 437.9305,190.6875 Q438.2118,190.5781 438.5399,190.2344 Q438.743,190.0313 438.8524,189.9844 Q438.9774,189.9219 439.118,189.9219 Q439.3836,189.9219 439.5711,190.125 Q439.7743,190.3125 439.7743,190.5781 Q439.7743,190.8438 439.5086,191.1563 Q439.118,191.5938 438.5086,191.8438 Q437.6961,192.1875 436.7118,192.1875 Q435.5555,192.1875 434.618,191.7188 Q433.868,191.3281 433.3368,190.5156 Q432.8211,189.6875 432.8211,188.7188 L432.8211,187.8281 Q432.8211,186.8125 433.2899,185.9375 Q433.7743,185.0625 434.6024,184.5938 Q435.4461,184.1094 436.3836,184.1094 Q436.9461,184.1094 437.4305,184.25 Q437.9305,184.375 438.3524,184.6406 Z " fill="#000000"/><text fill="#14324A" font-family="Segoe UI" font-size="13" lengthAdjust="spacing" textLength="83.167" x="456.4149" y="193.3828">EventRequest</text><line style="stroke:#2C6E8C;stroke-width:0.5;" x1="234.15" x2="731.8468" y1="203" y2="203"/><rect fill="none" height="6" style="stroke:#C82930;stroke-width:1.0;" width="6" x="241.15" y="214.1455"/><text fill="#000000" font-family="Segoe UI" font-size="13" lengthAdjust="spacing" textLength="68.7769" x="252.15" y="221.0283">title: String</text><rect fill="none" height="6" style="stroke:#C82930;stroke-width:1.0;" width="6" x="241.15" y="231.4365"/><text fill="#000000" font-family="Segoe UI" font-size="13" lengthAdjust="spacing" textLength="112.7725" x="252.15" y="238.3193">description: String</text><rect fill="none" height="6" style="stroke:#C82930;stroke-width:1.0;" width="6" x="241.15" y="248.7275"/><text fill="#000000" font-family="Segoe UI" font-size="13" lengthAdjust="spacing" textLength="160.2656" x="252.15" y="255.6104">eventDate: LocalDateTime</text><rect fill="none" height="6" style="stroke:#C82930;stroke-width:1.0;" width="6" x="241.15" y="266.0186"/><text fill="#000000" font-family="Segoe UI" font-size="13" lengthAdjust="spacing" textLength="101.7212" x="252.15" y="272.9014">capacity: Integer</text><rect fill="none" height="6" style="stroke:#C82930;stroke-width:1.0;" width="6" x="241.15" y="283.3096"/><text fill="#000000" font-family="Segoe UI" font-size="13" lengthAdjust="spacing" textLength="106.5391" x="252.15" y="290.1924">price: BigDecimal</text><rect fill="none" height="6" style="stroke:#C82930;stroke-width:1.0;" width="6" x="241.15" y="300.6006"/><text fill="#000000" font-family="Segoe UI" font-size="13" lengthAdjust="spacing" textLength="86.6265" x="252.15" y="307.4834">venueId: Long</text><rect fill="none" height="6" style="stroke:#C82930;stroke-width:1.0;" width="6" x="241.15" y="317.8916"/><text fill="#000000" font-family="Segoe UI" font-size="13" lengthAdjust="spacing" textLength="103.2764" x="252.15" y="324.7744">categoryId: Long</text><line style="stroke:#2C6E8C;stroke-width:0.5;" x1="234.15" x2="731.8468" y1="332.0371" y2="332.0371"/><ellipse cx="244.15" cy="346.1826" fill="#84BE84" rx="3" ry="3" style="stroke:#038048;stroke-width:1.0;"/><text fill="#000000" font-family="Segoe UI" font-size="13" lengthAdjust="spacing" textLength="474.6968" x="252.15" y="350.0654">EventRequest(String, String, LocalDateTime, Integer, BigDecimal, Long, Long)</text><ellipse cx="244.15" cy="363.4736" fill="#84BE84" rx="3" ry="3" style="stroke:#038048;stroke-width:1.0;"/><text fill="#000000" font-family="Segoe UI" font-size="13" lengthAdjust="spacing" textLength="78.3745" x="252.15" y="367.3564">title(): String</text><ellipse cx="244.15" cy="380.7646" fill="#84BE84" rx="3" ry="3" style="stroke:#038048;stroke-width:1.0;"/><text fill="#000000" font-family="Segoe UI" font-size="13" lengthAdjust="spacing" textLength="122.3701" x="252.15" y="384.6475">description(): String</text><ellipse cx="244.15" cy="398.0557" fill="#84BE84" rx="3" ry="3" style="stroke:#038048;stroke-width:1.0;"/><text fill="#000000" font-family="Segoe UI" font-size="13" lengthAdjust="spacing" textLength="169.8633" x="252.15" y="401.9385">eventDate(): LocalDateTime</text><ellipse cx="244.15" cy="415.3467" fill="#84BE84" rx="3" ry="3" style="stroke:#038048;stroke-width:1.0;"/><text fill="#000000" font-family="Segoe UI" font-size="13" lengthAdjust="spacing" textLength="111.3188" x="252.15" y="419.2295">capacity(): Integer</text><ellipse cx="244.15" cy="432.6377" fill="#84BE84" rx="3" ry="3" style="stroke:#038048;stroke-width:1.0;"/><text fill="#000000" font-family="Segoe UI" font-size="13" lengthAdjust="spacing" textLength="116.1367" x="252.15" y="436.5205">price(): BigDecimal</text><ellipse cx="244.15" cy="449.9287" fill="#84BE84" rx="3" ry="3" style="stroke:#038048;stroke-width:1.0;"/><text fill="#000000" font-family="Segoe UI" font-size="13" lengthAdjust="spacing" textLength="96.2241" x="252.15" y="453.8115">venueId(): Long</text><ellipse cx="244.15" cy="467.2197" fill="#84BE84" rx="3" ry="3" style="stroke:#038048;stroke-width:1.0;"/><text fill="#000000" font-family="Segoe UI" font-size="13" lengthAdjust="spacing" textLength="112.874" x="252.15" y="471.1025">categoryId(): Long</text></g></a><!--class EventResponse--><a href="file:/C:/Users/loris/Documents/Programming/Github/event-booking-api/target/reports/apidocs/com/monacoevents/eventbooking/dto/EventResponse.html" target="_top" title="file:/C:/Users/loris/Documents/Programming/Github/event-booking-api/target/reports/apidocs/com/monacoevents/eventbooking/dto/EventResponse.html" xlink:actuate="onRequest" xlink:href="file:/C:/Users/loris/Documents/Programming/Github/event-booking-api/target/reports/apidocs/com/monacoevents/eventbooking/dto/EventResponse.html" xlink:show="new" xlink:title="file:/C:/Users/loris/Documents/Programming/Github/event-booking-api/target/reports/apidocs/com/monacoevents/eventbooking/dto/EventResponse.html" xlink:type="simple"><g id="elem_EventResponse"><rect codeLine="57" fill="#F4F8FB" height="305.3652" id="EventResponse" rx="4" ry="4" style="stroke:#2C6E8C;stroke-width:0.5;" width="694.481" x="767.76" y="173"/><ellipse cx="1065.1069" cy="188" fill="#ADD1B2" rx="10" ry="10" style="stroke:#181818;stroke-width:1.0;"/><path d="M1066.0444,184.6406 Q1066.1694,184.4688 1066.31,184.3906 Q1066.4507,184.3125 1066.6225,184.3125 Q1066.9038,184.3125 1067.0757,184.5156 Q1067.2632,184.7031 1067.2632,185.1719 L1067.2632,186.2813 Q1067.2632,186.75 1067.0757,186.9531 Q1066.9038,187.1406 1066.6225,187.1406 Q1066.3569,187.1406 1066.2007,187 Q1066.0444,186.8594 1065.9663,186.4531 Q1065.9194,186.1875 1065.7944,186.0469 Q1065.5288,185.75 1065.06,185.5781 Q1064.5913,185.4063 1064.1225,185.4063 Q1063.5444,185.4063 1063.0444,185.6719 Q1062.56,185.9219 1062.185,186.5 Q1061.81,187.0625 1061.81,187.8438 L1061.81,188.6875 Q1061.81,189.625 1062.4975,190.2656 Q1063.185,190.8906 1064.3882,190.8906 Q1065.1225,190.8906 1065.6225,190.6875 Q1065.9038,190.5781 1066.2319,190.2344 Q1066.435,190.0313 1066.5444,189.9844 Q1066.6694,189.9219 1066.81,189.9219 Q1067.0757,189.9219 1067.2632,190.125 Q1067.4663,190.3125 1067.4663,190.5781 Q1067.4663,190.8438 1067.2007,191.1563 Q1066.81,191.5938 1066.2007,191.8438 Q1065.3882,192.1875 1064.4038,192.1875 Q1063.2475,192.1875 1062.31,191.7188 Q1061.56,191.3281 1061.0288,190.5156 Q1060.5132,189.6875 1060.5132,188.7188 L1060.5132,187.8281 Q1060.5132,186.8125 1060.9819,185.9375 Q1061.4663,185.0625 1062.2944,184.5938 Q1063.1382,184.1094 1064.0757,184.1094 Q1064.6382,184.1094 1065.1225,184.25 Q1065.6225,184.375 1066.0444,184.6406 Z " fill="#000000"/><text fill="#14324A" font-family="Segoe UI" font-size="13" lengthAdjust="spacing" textLength="91.7871" x="1084.1069" y="193.3828">EventResponse</text><line style="stroke:#2C6E8C;stroke-width:0.5;" x1="768.76" x2="1461.241" y1="203" y2="203"/><rect fill="none" height="6" style="stroke:#C82930;stroke-width:1.0;" width="6" x="775.76" y="214.1455"/><text fill="#000000" font-family="Segoe UI" font-size="13" lengthAdjust="spacing" textLength="49.3594" x="786.76" y="221.0283">id: Long</text><rect fill="none" height="6" style="stroke:#C82930;stroke-width:1.0;" width="6" x="775.76" y="231.4365"/><text fill="#000000" font-family="Segoe UI" font-size="13" lengthAdjust="spacing" textLength="68.7769" x="786.76" y="238.3193">title: String</text><rect fill="none" height="6" style="stroke:#C82930;stroke-width:1.0;" width="6" x="775.76" y="248.7275"/><text fill="#000000" font-family="Segoe UI" font-size="13" lengthAdjust="spacing" textLength="112.7725" x="786.76" y="255.6104">description: String</text><rect fill="none" height="6" style="stroke:#C82930;stroke-width:1.0;" width="6" x="775.76" y="266.0186"/><text fill="#000000" font-family="Segoe UI" font-size="13" lengthAdjust="spacing" textLength="160.2656" x="786.76" y="272.9014">eventDate: LocalDateTime</text><rect fill="none" height="6" style="stroke:#C82930;stroke-width:1.0;" width="6" x="775.76" y="283.3096"/><text fill="#000000" font-family="Segoe UI" font-size="13" lengthAdjust="spacing" textLength="101.7212" x="786.76" y="290.1924">capacity: Integer</text><rect fill="none" height="6" style="stroke:#C82930;stroke-width:1.0;" width="6" x="775.76" y="300.6006"/><text fill="#000000" font-family="Segoe UI" font-size="13" lengthAdjust="spacing" textLength="106.5391" x="786.76" y="307.4834">price: BigDecimal</text><line style="stroke:#2C6E8C;stroke-width:0.5;" x1="768.76" x2="1461.241" y1="314.7461" y2="314.7461"/><ellipse cx="778.76" cy="328.8916" fill="#84BE84" rx="3" ry="3" style="stroke:#038048;stroke-width:1.0;"/><text fill="#000000" font-family="Segoe UI" font-size="13" lengthAdjust="spacing" textLength="669.481" x="786.76" y="332.7744">EventResponse(Long, String, String, LocalDateTime, Integer, BigDecimal, VenueResponse, CategoryResponse)</text><ellipse cx="778.76" cy="346.1826" fill="#84BE84" rx="3" ry="3" style="stroke:#038048;stroke-width:1.0;"/><text fill="#000000" font-family="Segoe UI" font-size="13" lengthAdjust="spacing" textLength="58.957" x="786.76" y="350.0654">id(): Long</text><ellipse cx="778.76" cy="363.4736" fill="#84BE84" rx="3" ry="3" style="stroke:#038048;stroke-width:1.0;"/><text fill="#000000" font-family="Segoe UI" font-size="13" lengthAdjust="spacing" textLength="78.3745" x="786.76" y="367.3564">title(): String</text><ellipse cx="778.76" cy="380.7646" fill="#84BE84" rx="3" ry="3" style="stroke:#038048;stroke-width:1.0;"/><text fill="#000000" font-family="Segoe UI" font-size="13" lengthAdjust="spacing" textLength="122.3701" x="786.76" y="384.6475">description(): String</text><ellipse cx="778.76" cy="398.0557" fill="#84BE84" rx="3" ry="3" style="stroke:#038048;stroke-width:1.0;"/><text fill="#000000" font-family="Segoe UI" font-size="13" lengthAdjust="spacing" textLength="169.8633" x="786.76" y="401.9385">eventDate(): LocalDateTime</text><ellipse cx="778.76" cy="415.3467" fill="#84BE84" rx="3" ry="3" style="stroke:#038048;stroke-width:1.0;"/><text fill="#000000" font-family="Segoe UI" font-size="13" lengthAdjust="spacing" textLength="111.3188" x="786.76" y="419.2295">capacity(): Integer</text><ellipse cx="778.76" cy="432.6377" fill="#84BE84" rx="3" ry="3" style="stroke:#038048;stroke-width:1.0;"/><text fill="#000000" font-family="Segoe UI" font-size="13" lengthAdjust="spacing" textLength="116.1367" x="786.76" y="436.5205">price(): BigDecimal</text><ellipse cx="778.76" cy="449.9287" fill="#84BE84" rx="3" ry="3" style="stroke:#038048;stroke-width:1.0;"/><text fill="#000000" font-family="Segoe UI" font-size="13" lengthAdjust="spacing" textLength="149.8809" x="786.76" y="453.8115">venue(): VenueResponse</text><ellipse cx="778.76" cy="467.2197" fill="#84BE84" rx="3" ry="3" style="stroke:#038048;stroke-width:1.0;"/><text fill="#000000" font-family="Segoe UI" font-size="13" lengthAdjust="spacing" textLength="183.4282" x="786.76" y="471.1025">category(): CategoryResponse</text></g></a><!--class VenueRequest--><a href="file:/C:/Users/loris/Documents/Programming/Github/event-booking-api/target/reports/apidocs/com/monacoevents/eventbooking/dto/VenueRequest.html" target="_top" title="file:/C:/Users/loris/Documents/Programming/Github/event-booking-api/target/reports/apidocs/com/monacoevents/eventbooking/dto/VenueRequest.html" xlink:actuate="onRequest" xlink:href="file:/C:/Users/loris/Documents/Programming/Github/event-booking-api/target/reports/apidocs/com/monacoevents/eventbooking/dto/VenueRequest.html" xlink:show="new" xlink:title="file:/C:/Users/loris/Documents/Programming/Github/event-booking-api/target/reports/apidocs/com/monacoevents/eventbooking/dto/VenueRequest.html" xlink:type="simple"><g id="elem_VenueRequest"><rect codeLine="75" fill="#F4F8FB" height="167.0371" id="VenueRequest" rx="4" ry="4" style="stroke:#2C6E8C;stroke-width:0.5;" width="247.9106" x="1497.04" y="242.16"/><ellipse cx="1573.1394" cy="257.16" fill="#ADD1B2" rx="10" ry="10" style="stroke:#181818;stroke-width:1.0;"/><path d="M1574.0769,253.8006 Q1574.2019,253.6287 1574.3425,253.5506 Q1574.4831,253.4725 1574.655,253.4725 Q1574.9362,253.4725 1575.1081,253.6756 Q1575.2956,253.8631 1575.2956,254.3319 L1575.2956,255.4412 Q1575.2956,255.91 1575.1081,256.1131 Q1574.9362,256.3006 1574.655,256.3006 Q1574.3894,256.3006 1574.2331,256.16 Q1574.0769,256.0194 1573.9987,255.6131 Q1573.9519,255.3475 1573.8269,255.2069 Q1573.5612,254.91 1573.0925,254.7381 Q1572.6237,254.5662 1572.155,254.5662 Q1571.5769,254.5662 1571.0769,254.8319 Q1570.5925,255.0819 1570.2175,255.66 Q1569.8425,256.2225 1569.8425,257.0037 L1569.8425,257.8475 Q1569.8425,258.785 1570.53,259.4256 Q1571.2175,260.0506 1572.4206,260.0506 Q1573.155,260.0506 1573.655,259.8475 Q1573.9362,259.7381 1574.2644,259.3944 Q1574.4675,259.1912 1574.5769,259.1444 Q1574.7019,259.0819 1574.8425,259.0819 Q1575.1081,259.0819 1575.2956,259.285 Q1575.4987,259.4725 1575.4987,259.7381 Q1575.4987,260.0037 1575.2331,260.3162 Q1574.8425,260.7537 1574.2331,261.0037 Q1573.4206,261.3475 1572.4362,261.3475 Q1571.28,261.3475 1570.3425,260.8787 Q1569.5925,260.4881 1569.0612,259.6756 Q1568.5456,258.8475 1568.5456,257.8787 L1568.5456,256.9881 Q1568.5456,255.9725 1569.0144,255.0975 Q1569.4987,254.2225 1570.3269,253.7537 Q1571.1706,253.2694 1572.1081,253.2694 Q1572.6706,253.2694 1573.155,253.41 Q1573.655,253.535 1574.0769,253.8006 Z " fill="#000000"/><text fill="#14324A" font-family="Segoe UI" font-size="13" lengthAdjust="spacing" textLength="87.7119" x="1592.1394" y="262.5428">VenueRequest</text><line style="stroke:#2C6E8C;stroke-width:0.5;" x1="1498.04" x2="1743.9506" y1="272.16" y2="272.16"/><rect fill="none" height="6" style="stroke:#C82930;stroke-width:1.0;" width="6" x="1505.04" y="283.3055"/><text fill="#000000" font-family="Segoe UI" font-size="13" lengthAdjust="spacing" textLength="78.0381" x="1516.04" y="290.1883">name: String</text><rect fill="none" height="6" style="stroke:#C82930;stroke-width:1.0;" width="6" x="1505.04" y="300.5965"/><text fill="#000000" font-family="Segoe UI" font-size="13" lengthAdjust="spacing" textLength="90.9746" x="1516.04" y="307.4793">address: String</text><rect fill="none" height="6" style="stroke:#C82930;stroke-width:1.0;" width="6" x="1505.04" y="317.8875"/><text fill="#000000" font-family="Segoe UI" font-size="13" lengthAdjust="spacing" textLength="66.2251" x="1516.04" y="324.7704">city: String</text><line style="stroke:#2C6E8C;stroke-width:0.5;" x1="1498.04" x2="1743.9506" y1="332.033" y2="332.033"/><ellipse cx="1508.04" cy="346.1786" fill="#84BE84" rx="3" ry="3" style="stroke:#038048;stroke-width:1.0;"/><text fill="#000000" font-family="Segoe UI" font-size="13" lengthAdjust="spacing" textLength="222.9106" x="1516.04" y="350.0614">VenueRequest(String, String, String)</text><ellipse cx="1508.04" cy="363.4696" fill="#84BE84" rx="3" ry="3" style="stroke:#038048;stroke-width:1.0;"/><text fill="#000000" font-family="Segoe UI" font-size="13" lengthAdjust="spacing" textLength="87.6357" x="1516.04" y="367.3524">name(): String</text><ellipse cx="1508.04" cy="380.7606" fill="#84BE84" rx="3" ry="3" style="stroke:#038048;stroke-width:1.0;"/><text fill="#000000" font-family="Segoe UI" font-size="13" lengthAdjust="spacing" textLength="100.5723" x="1516.04" y="384.6434">address(): String</text><ellipse cx="1508.04" cy="398.0516" fill="#84BE84" rx="3" ry="3" style="stroke:#038048;stroke-width:1.0;"/><text fill="#000000" font-family="Segoe UI" font-size="13" lengthAdjust="spacing" textLength="75.8228" x="1516.04" y="401.9344">city(): String</text></g></a><!--class VenueResponse--><a href="file:/C:/Users/loris/Documents/Programming/Github/event-booking-api/target/reports/apidocs/com/monacoevents/eventbooking/dto/VenueResponse.html" target="_top" title="file:/C:/Users/loris/Documents/Programming/Github/event-booking-api/target/reports/apidocs/com/monacoevents/eventbooking/dto/VenueResponse.html" xlink:actuate="onRequest" xlink:href="file:/C:/Users/loris/Documents/Programming/Github/event-booking-api/target/reports/apidocs/com/monacoevents/eventbooking/dto/VenueResponse.html" xlink:show="new" xlink:title="file:/C:/Users/loris/Documents/Programming/Github/event-booking-api/target/reports/apidocs/com/monacoevents/eventbooking/dto/VenueResponse.html" xlink:type="simple"><g id="elem_VenueResponse"><rect codeLine="85" fill="#F4F8FB" height="201.6191" id="VenueResponse" rx="4" ry="4" style="stroke:#2C6E8C;stroke-width:0.5;" width="294.147" x="1355.93" y="557.36"/><ellipse cx="1450.8375" cy="572.36" fill="#ADD1B2" rx="10" ry="10" style="stroke:#181818;stroke-width:1.0;"/><path d="M1451.775,569.0006 Q1451.9,568.8288 1452.0406,568.7506 Q1452.1812,568.6725 1452.3531,568.6725 Q1452.6343,568.6725 1452.8062,568.8756 Q1452.9937,569.0631 1452.9937,569.5319 L1452.9937,570.6413 Q1452.9937,571.11 1452.8062,571.3131 Q1452.6343,571.5006 1452.3531,571.5006 Q1452.0875,571.5006 1451.9312,571.36 Q1451.775,571.2194 1451.6968,570.8131 Q1451.65,570.5475 1451.525,570.4069 Q1451.2593,570.11 1450.7906,569.9381 Q1450.3218,569.7663 1449.8531,569.7663 Q1449.275,569.7663 1448.775,570.0319 Q1448.2906,570.2819 1447.9156,570.86 Q1447.5406,571.4225 1447.5406,572.2038 L1447.5406,573.0475 Q1447.5406,573.985 1448.2281,574.6256 Q1448.9156,575.2506 1450.1187,575.2506 Q1450.8531,575.2506 1451.3531,575.0475 Q1451.6343,574.9381 1451.9625,574.5944 Q1452.1656,574.3913 1452.275,574.3444 Q1452.4,574.2819 1452.5406,574.2819 Q1452.8062,574.2819 1452.9937,574.485 Q1453.1968,574.6725 1453.1968,574.9381 Q1453.1968,575.2038 1452.9312,575.5163 Q1452.5406,575.9538 1451.9312,576.2038 Q1451.1187,576.5475 1450.1343,576.5475 Q1448.9781,576.5475 1448.0406,576.0788 Q1447.2906,575.6881 1446.7593,574.8756 Q1446.2437,574.0475 1446.2437,573.0788 L1446.2437,572.1881 Q1446.2437,571.1725 1446.7125,570.2975 Q1447.1968,569.4225 1448.025,568.9538 Q1448.8687,568.4694 1449.8062,568.4694 Q1450.3687,568.4694 1450.8531,568.61 Q1451.3531,568.735 1451.775,569.0006 Z " fill="#000000"/><text fill="#14324A" font-family="Segoe UI" font-size="13" lengthAdjust="spacing" textLength="96.332" x="1469.8375" y="577.7428">VenueResponse</text><line style="stroke:#2C6E8C;stroke-width:0.5;" x1="1356.93" x2="1649.077" y1="587.36" y2="587.36"/><rect fill="none" height="6" style="stroke:#C82930;stroke-width:1.0;" width="6" x="1363.93" y="598.5055"/><text fill="#000000" font-family="Segoe UI" font-size="13" lengthAdjust="spacing" textLength="49.3594" x="1374.93" y="605.3883">id: Long</text><rect fill="none" height="6" style="stroke:#C82930;stroke-width:1.0;" width="6" x="1363.93" y="615.7965"/><text fill="#000000" font-family="Segoe UI" font-size="13" lengthAdjust="spacing" textLength="78.0381" x="1374.93" y="622.6793">name: String</text><rect fill="none" height="6" style="stroke:#C82930;stroke-width:1.0;" width="6" x="1363.93" y="633.0875"/><text fill="#000000" font-family="Segoe UI" font-size="13" lengthAdjust="spacing" textLength="90.9746" x="1374.93" y="639.9704">address: String</text><rect fill="none" height="6" style="stroke:#C82930;stroke-width:1.0;" width="6" x="1363.93" y="650.3786"/><text fill="#000000" font-family="Segoe UI" font-size="13" lengthAdjust="spacing" textLength="66.2251" x="1374.93" y="657.2614">city: String</text><line style="stroke:#2C6E8C;stroke-width:0.5;" x1="1356.93" x2="1649.077" y1="664.5241" y2="664.5241"/><ellipse cx="1366.93" cy="678.6696" fill="#84BE84" rx="3" ry="3" style="stroke:#038048;stroke-width:1.0;"/><text fill="#000000" font-family="Segoe UI" font-size="13" lengthAdjust="spacing" textLength="269.147" x="1374.93" y="682.5524">VenueResponse(Long, String, String, String)</text><ellipse cx="1366.93" cy="695.9606" fill="#84BE84" rx="3" ry="3" style="stroke:#038048;stroke-width:1.0;"/><text fill="#000000" font-family="Segoe UI" font-size="13" lengthAdjust="spacing" textLength="58.957" x="1374.93" y="699.8434">id(): Long</text><ellipse cx="1366.93" cy="713.2516" fill="#84BE84" rx="3" ry="3" style="stroke:#038048;stroke-width:1.0;"/><text fill="#000000" font-family="Segoe UI" font-size="13" lengthAdjust="spacing" textLength="87.6357" x="1374.93" y="717.1344">name(): String</text><ellipse cx="1366.93" cy="730.5426" fill="#84BE84" rx="3" ry="3" style="stroke:#038048;stroke-width:1.0;"/><text fill="#000000" font-family="Segoe UI" font-size="13" lengthAdjust="spacing" textLength="100.5723" x="1374.93" y="734.4254">address(): String</text><ellipse cx="1366.93" cy="747.8336" fill="#84BE84" rx="3" ry="3" style="stroke:#038048;stroke-width:1.0;"/><text fill="#000000" font-family="Segoe UI" font-size="13" lengthAdjust="spacing" textLength="75.8228" x="1374.93" y="751.7164">city(): String</text></g></a><!--class Record--><g id="elem_Record"><rect codeLine="100" fill="#F4F8FB" height="46" id="Record" rx="4" ry="4" style="stroke:#2C6E8C;stroke-width:0.5;" width="68.1812" x="1285.91" y="42"/><ellipse cx="1299.91" cy="57" fill="#A9DCDF" rx="10" ry="10" style="stroke:#181818;stroke-width:1.0;"/><path d="M1301.8944,58.1563 L1298.7381,58.1563 L1298.4256,58.9531 L1298.7381,58.9531 Q1299.2069,58.9531 1299.41,59.1406 Q1299.6131,59.3125 1299.6131,59.6094 Q1299.6131,59.8906 1299.41,60.0781 Q1299.2069,60.25 1298.7381,60.25 L1296.9881,60.25 Q1296.5194,60.25 1296.3163,60.0781 Q1296.1131,59.8906 1296.1131,59.5938 Q1296.1131,59.2969 1296.3319,59.125 Q1296.535,58.9375 1297.0194,58.9531 L1299.0663,53.8594 L1298.2069,53.8594 Q1297.7381,53.8594 1297.535,53.6875 Q1297.3475,53.5 1297.3475,53.2031 Q1297.3475,52.9063 1297.535,52.7344 Q1297.7381,52.5469 1298.2069,52.5469 L1301.0194,52.5625 L1303.6131,58.9531 Q1304.0663,58.9531 1304.2225,59.0469 Q1304.5038,59.2656 1304.5038,59.6094 Q1304.5038,59.8906 1304.3006,60.0781 Q1304.1131,60.25 1303.6444,60.25 L1301.8944,60.25 Q1301.4256,60.25 1301.2225,60.0781 Q1301.0194,59.8906 1301.0194,59.5938 Q1301.0194,59.3125 1301.2225,59.1406 Q1301.4256,58.9531 1301.8944,58.9531 L1302.2069,58.9531 L1301.8944,58.1563 Z M1301.3631,56.8594 L1300.3163,54.2813 L1299.2538,56.8594 L1301.3631,56.8594 Z " fill="#000000"/><text fill="#14324A" font-family="Segoe UI" font-size="13" font-style="italic" lengthAdjust="spacing" textLength="38.1812" x="1312.91" y="62.3828">Record</text><line style="stroke:#2C6E8C;stroke-width:0.5;" x1="1286.91" x2="1353.0912" y1="72" y2="72"/><line style="stroke:#2C6E8C;stroke-width:0.5;" x1="1286.91" x2="1353.0912" y1="80" y2="80"/></g><!--reverse link Record to CategoryRequest--><g id="link_Record_CategoryRequest"><path codeLine="103" d="M1267.43,66.0124 C1090.39,66.2324 308.18,70.47 216,129 C163.97,162.03 135.63,229.86 121.65,276.31 " fill="none" id="Record-backto-CategoryRequest" style="stroke:#2C6E8C;stroke-width:1.0;"/><polygon fill="none" points="1285.43,65.99,1267.4226,60.0124,1267.4375,72.0124,1285.43,65.99" style="stroke:#2C6E8C;stroke-width:1.0;"/></g><!--reverse link Record to CategoryResponse--><g id="link_Record_CategoryResponse"><path codeLine="104" d="M1372.5293,65.2321 C1467.1593,64.4021 1709.05,67.96 1762,129 C1863.75,246.28 1861.23,358.93 1762,478.36 C1639.5,625.8 1517.98,491.4 1338,557.36 C1313.37,566.39 1288.15,578.69 1264.8,591.58 " fill="none" id="Record-backto-CategoryResponse" style="stroke:#2C6E8C;stroke-width:1.0;"/><polygon fill="none" points="1354.53,65.39,1372.5819,71.2319,1372.4767,59.2324,1354.53,65.39" style="stroke:#2C6E8C;stroke-width:1.0;"/></g><!--reverse link Record to EventRequest--><g id="link_Record_EventRequest"><path codeLine="105" d="M1267.5393,68.3029 C1159.8093,73.2929 848.81,90.53 750,129 C720.95,140.31 692.22,155.61 664.98,172.71 " fill="none" id="Record-backto-EventRequest" style="stroke:#2C6E8C;stroke-width:1.0;"/><polygon fill="none" points="1285.52,67.47,1267.2617,62.3093,1267.8169,74.2964,1285.52,67.47" style="stroke:#2C6E8C;stroke-width:1.0;"/></g><!--reverse link Record to EventResponse--><g id="link_Record_EventResponse"><path codeLine="106" d="M1291.3419,102.1585 C1275.5119,122.1385 1261.85,139.38 1235.36,172.8 " fill="none" id="Record-backto-EventResponse" style="stroke:#2C6E8C;stroke-width:1.0;"/><polygon fill="none" points="1302.52,88.05,1286.6391,98.4325,1296.0448,105.8846,1302.52,88.05" style="stroke:#2C6E8C;stroke-width:1.0;"/></g><!--link EventResponse to VenueResponse--><g id="link_EventResponse_VenueResponse"><path codeLine="107" d="M1293.39,478.62 C1324.64,505.24 1351.8615,528.4404 1380.9315,553.1904 " fill="none" id="EventResponse-to-VenueResponse" style="stroke:#2C6E8C;stroke-width:1.0;"/><polygon fill="#2C6E8C" points="1385.5,557.08,1381.2403,548.2,1381.6929,553.8387,1376.0542,554.2913,1385.5,557.08" style="stroke:#2C6E8C;stroke-width:1.0;"/><text fill="#000000" font-family="Segoe UI" font-size="13" lengthAdjust="spacing" textLength="36.8418" x="1344.75" y="523.3883">venue</text></g><!--link EventResponse to CategoryResponse--><g id="link_EventResponse_CategoryResponse"><path codeLine="108" d="M1137.03,478.38 C1142.82,518.26 1147.9072,553.2624 1152.6472,585.8824 " fill="none" id="EventResponse-to-CategoryResponse" style="stroke:#2C6E8C;stroke-width:1.0;"/><polygon fill="#2C6E8C" points="1153.51,591.82,1156.1742,582.3383,1152.791,586.872,1148.2574,583.4887,1153.51,591.82" style="stroke:#2C6E8C;stroke-width:1.0;"/><text fill="#000000" font-family="Segoe UI" font-size="13" lengthAdjust="spacing" textLength="53.4917" x="1144.3" y="523.3883">category</text></g><!--reverse link Record to VenueRequest--><g id="link_Record_VenueRequest"><path codeLine="109" d="M1371.83,77.9348 C1406.32,86.7448 1442.17,99.59 1480,129 C1519.01,159.32 1552.02,203.26 1576.26,241.83 " fill="none" id="Record-backto-VenueRequest" style="stroke:#2C6E8C;stroke-width:1.0;"/><polygon fill="none" points="1354.39,73.48,1370.3451,83.7482,1373.315,72.1215,1354.39,73.48" style="stroke:#2C6E8C;stroke-width:1.0;"/></g><!--reverse link Record to VenueResponse--><g id="link_Record_VenueResponse"><path codeLine="110" d="M1372.3076,68.4976 C1481.2676,73.9376 1795.86,92.54 1826,129 C1924.93,248.67 1902.26,343.1 1826,478.36 C1788.7,544.52 1716.72,587.75 1650.16,615.09 " fill="none" id="Record-backto-VenueResponse" style="stroke:#2C6E8C;stroke-width:1.0;"/><polygon fill="none" points="1354.33,67.6,1372.0084,74.4901,1372.6068,62.505,1354.33,67.6" style="stroke:#2C6E8C;stroke-width:1.0;"/></g><text fill="#888888" font-family="Segoe UI" font-size="10" lengthAdjust="spacing" textLength="2.7588" x="957.5856" y="791.771">&#160;</text><a href="https://github.com/talsma-ict/umldoclet" target="_top" title="https://github.com/talsma-ict/umldoclet" xlink:actuate="onRequest" xlink:href="https://github.com/talsma-ict/umldoclet" xlink:show="new" xlink:title="https://github.com/talsma-ict/umldoclet" xlink:type="simple"><text fill="#888888" font-family="Segoe UI" font-size="10" lengthAdjust="spacing" textLength="77.7783" x="920.0758" y="805.0718">UMLDoclet 2.2.1</text></a><!--SRC=[rLXTK-Cs57tVNt4xVIXCue-4489dPsT2IBPqQ8U1q1VAWs8hZefjUIKP9cttl_VATbZPiGkKT2ODCmd9_JewEhgM103m0qnukXOiN2bG7DIAIRZz-H984a184og8eW6mc8HKme96F0bbuKY1P6h51V1b_itdGb2PyYHWIGW_aKS2acV2fzB-y07oKlDDzYSYZUoBjVxndFiHLN0mEJGWzTtUqEgx_I7CIIHZ0XUJkLrc-nRJj_js3p1tn7oQI4oP9G4LEQnnIdpyk2miNNYaGZAUO8nRvj53zNcY24iaf4GegOTq5P54QQmz6-iFx1Cu6DzSLh6vfpcsBen5Gh80hlcNx7cuye4bc8t485Sau4-QbIKEWjQiWYFO2HV81engje0kIHQf6QBxXSGKRcZ8ATnUjBlTi3yez8vg3dv4f3mZ_aDOLejmthwV3MQZsLcZAnV8N-dMdmodeqcJsrW8_lIYbuPLElK6H_t1kER44aN5alXq2-1qF1lEt5Rt2iZfwNHOBuzJ_u32tHxu6VwTjpYRMSz6ay6vs-ne3EleQ71oN13vNIf8Y3gDo9fd2WAkYcXKgQGwNc60vnKIAJEX-c8xvWdnENsaYP9s_h7W76k6Te3BxSyYGBzoJc62AoVaOdrDjUGKtDqjMKGzP-8vjn8bxY0m9XrS85ciKpfNWeU8FiQCpcUcLjd2oQjOPHcBfCnHH8HKEOAc79U1Wpy5t9SEudDCV8w9pq5yJWsElL9nT7-FiC5uMGbgs8CR9J2iOkdKuWyAdyEgamu_EDnAyBMT6zsE9DqVSWeyBUomm8DBNcFcLPmLQGzqS1SQgME19cuh-wifdUenxOdMJ2mjL2gcecRMh81ANx1KuJEWsI6lTuxSQhvy4kb_voocLI-VuE9bQkt11VQZa8ggEHNulF7WZ8NdrCUdPrGrOucCNZJEjr_EQgErOuwzN2IR6UzMuNOtmBe6YYuK6j7lDONab3L88JSQfBMvFDDM2AsDkCw6EEtMH5qdfqvRMyZhbEGr2_eRVLlsDb7lHvEeW7bJXzXpiNSg8wiqgRT9zrSzxviytQqk_ygEzp_JkNQe3BnPxjgjJaYxyCk4Uz7DJInltJPO90Zmp26RZOLYc-RGhBdLHT-ozSXj9OWsyqO4BprYAxEy9xEoo_tAEoVh7zl7BlOyxv_BhzLT_Uzu1BRn51aQn965L8BugfppQugdvi0CVWxolC887_-oh9TF29vNsqBlB9lHJFvzEdFVifjK1got1e5bVNfDK4Lv7kJz-3yjM2VTWqr_VoTdPiFRJQgI_ZpPHwdM4VtqBF8bvtX4hxMB7zSf5PSiUIZFpADcwws-k8bOGkShvZyak1R1DTPPNiunwfMrValkxbPAfT9pd33lXhPkSYg_DBAOhvmiZeBYjgXsRtH_Nzu3VNw-aDANEfPxOhd3UM_W3Owz_i3kZqvFUiSzr-suVSzrxwQPu2brhWYsvVk_0G00]--></g></svg>