<svg xmlns="http://www.w3.org/2000/svg" xmlns:xlink="http://www.w3.org/1999/xlink" contentStyleType="text/css" height="234px" preserveAspectRatio="none" style="width:266px;height:234px;background:#FFFFFF;" version="1.1" viewBox="0 0 266 234" width="266px" zoomAndPan="magnify"><defs/><g><!--class com.monacoevents.eventbooking.dto.VenueRequest--><a href="..\..\..\..\..\..\target\reports\apidocs\com\monacoevents\eventbooking\dto\VenueRequest.html" target="_top" title="..\..\..\..\..\..\target\reports\apidocs\com\monacoevents\eventbooking\dto\VenueRequest.html" xlink:actuate="onRequest" xlink:href="..\..\..\..\..\..\target\reports\apidocs\com\monacoevents\eventbooking\dto\VenueRequest.html" xlink:show="new" xlink:title="..\..\..\..\..\..\target\reports\apidocs\com\monacoevents\eventbooking\dto\VenueRequest.html" xlink:type="simple"><g id="elem_com.monacoevents.eventbooking.dto.VenueRequest"><rect codeLine="13" fill="#F1F1F1" height="118.625" id="com.monacoevents.eventbooking.dto.VenueRequest" rx="2.5" ry="2.5" style="stroke:#181818;stroke-width:0.5;" width="253.2266" x="6" y="88"/><ellipse cx="46.0053" cy="108.0938" fill="#ADD1B2" rx="11" ry="11" style="stroke:#181818;stroke-width:1.0;"/><path d="M48.7709,103.9688 Q48.9272,103.75 49.1147,103.6406 Q49.3022,103.5313 49.5209,103.5313 Q49.8959,103.5313 50.1303,103.7969 Q50.3647,104.0469 50.3647,104.6563 L50.3647,106.1094 Q50.3647,106.7188 50.1303,106.9844 Q49.8959,107.25 49.5209,107.25 Q49.1772,107.25 48.9741,107.0469 Q48.7709,106.8594 48.6616,106.3438 Q48.6147,105.9844 48.4272,105.7969 Q48.0991,105.4219 47.4897,105.2031 Q46.8803,104.9844 46.2553,104.9844 Q45.4897,104.9844 44.8491,105.3125 Q44.2241,105.6406 43.7241,106.3906 Q43.2397,107.1406 43.2397,108.1719 L43.2397,109.2656 Q43.2397,110.5 44.1303,111.3281 Q45.0209,112.1406 46.6147,112.1406 Q47.5522,112.1406 48.2084,111.8906 Q48.5991,111.7344 49.0209,111.2969 Q49.2866,111.0313 49.4272,110.9531 Q49.5834,110.875 49.7866,110.875 Q50.1147,110.875 50.3647,111.1406 Q50.6303,111.3906 50.6303,111.7344 Q50.6303,112.0781 50.2866,112.4844 Q49.7866,113.0625 48.9897,113.3906 Q47.9116,113.8438 46.6147,113.8438 Q45.0991,113.8438 43.8959,113.2188 Q42.9116,112.7188 42.2241,111.6563 Q41.5366,110.5781 41.5366,109.2969 L41.5366,108.1406 Q41.5366,106.8125 42.1459,105.6719 Q42.7709,104.5156 43.8647,103.9063 Q44.9584,103.2813 46.1928,103.2813 Q46.9272,103.2813 47.5678,103.4531 Q48.2241,103.6094 48.7709,103.9688 Z " fill="#000000"/><text fill="#000000" font-family="sans-serif" font-size="14" lengthAdjust="spacing" textLength="92.627" x="102.0782" y="107.5332">VenueRequest</text><text fill="#000000" font-family="sans-serif" font-size="10" lengthAdjust="spacing" textLength="165.6592" x="65.5621" y="120.9902">com.monacoevents.eventbooking.dto</text><line style="stroke:#181818;stroke-width:0.5;" x1="7" x2="258.2266" y1="128.1875" y2="128.1875"/><ellipse cx="17" cy="142.4922" fill="#84BE84" rx="3" ry="3" style="stroke:#038048;stroke-width:1.0;"/><text fill="#000000" font-family="sans-serif" font-size="14" lengthAdjust="spacing" textLength="227.2266" x="26" y="146.7207">VenueRequest(String, String, String)</text><ellipse cx="17" cy="160.1016" fill="#84BE84" rx="3" ry="3" style="stroke:#038048;stroke-width:1.0;"/><text fill="#000000" font-family="sans-serif" font-size="14" lengthAdjust="spacing" textLength="88.6963" x="26" y="164.3301">name(): String</text><ellipse cx="17" cy="177.7109" fill="#84BE84" rx="3" ry="3" style="stroke:#038048;stroke-width:1.0;"/><text fill="#000000" font-family="sans-serif" font-size="14" lengthAdjust="spacing" textLength="103.4824" x="26" y="181.9395">address(): String</text><ellipse cx="17" cy="195.3203" fill="#84BE84" rx="3" ry="3" style="stroke:#038048;stroke-width:1.0;"/><text fill="#000000" font-family="sans-serif" font-size="14" lengthAdjust="spacing" textLength="74.6758" x="26" y="199.5488">city(): String</text></g></a><!--class java.lang.Record--><g id="elem_java.lang.Record"><rect codeLine="20" fill="#F1F1F1" height="40.1875" id="java.lang.Record" rx="2.5" ry="2.5" style="stroke:#181818;stroke-width:0.5;" width="77.1309" x="94" y="12"/><ellipse cx="109" cy="32.0938" fill="#A9DCDF" rx="11" ry="11" style="stroke:#181818;stroke-width:1.0;"/><path d="M111.1875,33.8594 L107.0469,33.8594 L106.625,34.8906 L107.0469,34.8906 Q107.6563,34.8906 107.9219,35.125 Q108.1875,35.3594 108.1875,35.75 Q108.1875,36.125 107.9219,36.3594 Q107.6563,36.5938 107.0469,36.5938 L104.75,36.5938 Q104.1406,36.5938 103.8906,36.3594 Q103.625,36.125 103.625,35.7344 Q103.625,35.3594 103.9063,35.125 Q104.1719,34.875 104.7969,34.8906 L107.4688,28.2344 L106.3594,28.2344 Q105.75,28.2344 105.4844,28 Q105.2188,27.7656 105.2188,27.375 Q105.2188,27 105.4844,26.7656 Q105.75,26.5313 106.3594,26.5313 L110.0313,26.5313 L113.4219,34.8906 Q114.0156,34.8906 114.2031,35.0313 Q114.5938,35.2969 114.5938,35.75 Q114.5938,36.125 114.3281,36.3594 Q114.0781,36.5938 113.4688,36.5938 L111.1719,36.5938 Q110.5625,36.5938 110.2969,36.3594 Q110.0313,36.125 110.0313,35.7344 Q110.0313,35.3594 110.2969,35.125 Q110.5625,34.8906 111.1719,34.8906 L111.5938,34.8906 L111.1875,33.8594 Z M110.4688,32.1563 L109.1094,28.7813 L107.7344,32.1563 L110.4688,32.1563 Z " fill="#000000"/><text fill="#000000" font-family="sans-serif" font-size="14" font-style="italic" lengthAdjust="spacing" textLength="45.1309" x="123" y="31.5332">Record</text><text fill="#000000" font-family="sans-serif" font-size="10" font-style="italic" lengthAdjust="spacing" textLength="40.0293" x="125.5508" y="44.9902">java.lang</text></g><polygon fill="none" points="132.5,52.2537,126.5,70.2537,138.5,70.2537,132.5,52.2537" style="stroke:#181818;stroke-width:1.0;"/><path d="M132.5,70.2537 C132.5,80.2466 132.5,75.0471 132.5,87.9708 " fill="none" style="stroke:#181818;stroke-width:1.0;"/><text fill="#888888" font-family="sans-serif" font-size="10" lengthAdjust="spacing" textLength="2.7783" x="127.6108" y="211.3809">&#160;</text><a href="https://github.com/talsma-ict/umldoclet" target="_top" title="https://github.com/talsma-ict/umldoclet" xlink:actuate="onRequest" xlink:href="https://github.com/talsma-ict/umldoclet" xlink:show="new" xlink:title="https://github.com/talsma-ict/umldoclet" xlink:type="simple"><text fill="#888888" font-family="sans-serif" font-size="10" lengthAdjust="spacing" textLength="74.4775" x="91.7612" y="223.959">UMLDoclet 2.2.1</text></a><!--SRC=[bLHHJzim47xdLzpOmugWRb9OeHL2GjqqDdKIWhANfWzNvqWy4ZkpBqpPnd-VatHjw92cMP4itvs_- -xpNG00ti3K59LLISh01ZXL3ku-pm1r30bfiiWKWyen8GShoenEN1j8W2MdneAvRqxIM4kkC3fMEe5F-8ZWJ6abER6t1qsg-H_qx-WwwAkgDhupCYE6tlIWGsaOXAF-C1YEO8wPon4-JkTYZRQzCnH34OB7pfGaxJnagMEo3QtB0gNVPgtd21x9EcMqlnEiSUfIfT6CIZieqBAhIxhEK7FDDHG-_uauXTxbxUmvjs3SS3k2IwknZE76V2itvRugB2QUSOQLAHbSJemQMv_pf3NcNYwKT4i-AR9NKXjDZJzLCG7b1LTmhoYBtQxLWwN6cnkxpD0vs3ztwWTDmfEBBwHBkg6Q2qTwRGukfCb5RZHAGu-asObcMndpu1zCn6psmJ_BFwD45nuM2o6YdO_H9iIHfS9uCICiL6oaYpnor4MEkiYHHuwwo2BbF5ikuMTJOhqEk-xUBLj_xGYUxmVRw5hVti5axTZQCOvzdxgNN59njMD_QYN6bMEBal_I-ePytySTbR_wnXU-Tv96pSr9j84jsguLpd_r-_-fV8jqxhZAw69Jmhqnx1j_Argzhgg2x4pfXwd9V9UzFdlPUrVFJAOq-J6L3zfh1C4cygbDD-ZaM-UAz6AHCXTkCXWaYjDo9Nmb0sxcjQya3yeyYzj1tHdPvN8zWXys_u9wdlh1QJyOpSDW4XvFmhVY-EnuD1wFW-0m64w2OF6-jAQWmJLQvPQ_0G00]--></g></svg>