<svg xmlns="http://www.w3.org/2000/svg" xmlns:xlink="http://www.w3.org/1999/xlink" contentStyleType="text/css" height="100%" preserveAspectRatio="none" style="width:100%;height:100%;background:#FFFFFF;" version="1.1" viewBox="0 0 261 328" width="100%" zoomAndPan="magnify"><defs/><g><!--class com.monacoevents.eventbooking.dto.VenueRequest--><a href="..\..\..\..\..\..\target\reports\apidocs\com\monacoevents\eventbooking\dto\VenueRequest.html" target="_top" title="..\..\..\..\..\..\target\reports\apidocs\com\monacoevents\eventbooking\dto\VenueRequest.html" xlink:actuate="onRequest" xlink:href="..\..\..\..\..\..\target\reports\apidocs\com\monacoevents\eventbooking\dto\VenueRequest.html" xlink:show="new" xlink:title="..\..\..\..\..\..\target\reports\apidocs\com\monacoevents\eventbooking\dto\VenueRequest.html" xlink:type="simple"><g id="elem_com.monacoevents.eventbooking.dto.VenueRequest"><rect codeLine="26" fill="#F4F8FB" height="178.959" id="com.monacoevents.eventbooking.dto.VenueRequest" rx="4" ry="4" style="stroke:#2C6E8C;stroke-width:0.5;" width="247.9106" x="7" y="108.92"/><ellipse cx="39.0134" cy="129.8809" fill="#ADD1B2" rx="10" ry="10" style="stroke:#181818;stroke-width:1.0;"/><path d="M39.9509,126.5216 Q40.0759,126.3497 40.2165,126.2716 Q40.3572,126.1934 40.529,126.1934 Q40.8103,126.1934 40.9822,126.3966 Q41.1697,126.5841 41.1697,127.0528 L41.1697,128.1622 Q41.1697,128.6309 40.9822,128.8341 Q40.8103,129.0216 40.529,129.0216 Q40.2634,129.0216 40.1072,128.8809 Q39.9509,128.7403 39.8728,128.3341 Q39.8259,128.0684 39.7009,127.9278 Q39.4353,127.6309 38.9665,127.4591 Q38.4978,127.2872 38.029,127.2872 Q37.4509,127.2872 36.9509,127.5528 Q36.4665,127.8028 36.0915,128.3809 Q35.7165,128.9434 35.7165,129.7247 L35.7165,130.5684 Q35.7165,131.5059 36.404,132.1466 Q37.0915,132.7716 38.2947,132.7716 Q39.029,132.7716 39.529,132.5684 Q39.8103,132.4591 40.1384,132.1153 Q40.3415,131.9122 40.4509,131.8653 Q40.5759,131.8028 40.7165,131.8028 Q40.9822,131.8028 41.1697,132.0059 Q41.3728,132.1934 41.3728,132.4591 Q41.3728,132.7247 41.1072,133.0372 Q40.7165,133.4747 40.1072,133.7247 Q39.2947,134.0684 38.3103,134.0684 Q37.154,134.0684 36.2165,133.5997 Q35.4665,133.2091 34.9353,132.3966 Q34.4197,131.5684 34.4197,130.5997 L34.4197,129.7091 Q34.4197,128.6934 34.8884,127.8184 Q35.3728,126.9434 36.2009,126.4747 Q37.0447,125.9903 37.9822,125.9903 Q38.5447,125.9903 39.029,126.1309 Q39.529,126.2559 39.9509,126.5216 Z " fill="#000000"/><text fill="#14324A" font-family="Segoe UI" font-size="14" lengthAdjust="spacing" textLength="94.459" x="97.7273" y="129.0274">VenueRequest</text><text fill="#14324A" font-family="Segoe UI" font-size="10" lengthAdjust="spacing" textLength="177.8809" x="56.0164" y="143.3321">com.monacoevents.eventbooking.dto</text><line style="stroke:#2C6E8C;stroke-width:0.5;" x1="8" x2="253.9106" y1="150.8419" y2="150.8419"/><rect fill="none" height="6" style="stroke:#C82930;stroke-width:1.0;" width="6" x="15" y="161.9874"/><text fill="#000000" font-family="Segoe UI" font-size="13" lengthAdjust="spacing" textLength="78.0381" x="26" y="168.8702">name: String</text><rect fill="none" height="6" style="stroke:#C82930;stroke-width:1.0;" width="6" x="15" y="179.2784"/><text fill="#000000" font-family="Segoe UI" font-size="13" lengthAdjust="spacing" textLength="90.9746" x="26" y="186.1612">address: String</text><rect fill="none" height="6" style="stroke:#C82930;stroke-width:1.0;" width="6" x="15" y="196.5694"/><text fill="#000000" font-family="Segoe UI" font-size="13" lengthAdjust="spacing" textLength="66.2251" x="26" y="203.4522">city: String</text><line style="stroke:#2C6E8C;stroke-width:0.5;" x1="8" x2="253.9106" y1="210.7149" y2="210.7149"/><ellipse cx="18" cy="224.8604" fill="#84BE84" rx="3" ry="3" style="stroke:#038048;stroke-width:1.0;"/><text fill="#000000" font-family="Segoe UI" font-size="13" lengthAdjust="spacing" textLength="222.9106" x="26" y="228.7432">VenueRequest(String, String, String)</text><ellipse cx="18" cy="242.1514" fill="#84BE84" rx="3" ry="3" style="stroke:#038048;stroke-width:1.0;"/><text fill="#000000" font-family="Segoe UI" font-size="13" lengthAdjust="spacing" textLength="87.6357" x="26" y="246.0343">name(): String</text><ellipse cx="18" cy="259.4425" fill="#84BE84" rx="3" ry="3" style="stroke:#038048;stroke-width:1.0;"/><text fill="#000000" font-family="Segoe UI" font-size="13" lengthAdjust="spacing" textLength="100.5723" x="26" y="263.3253">address(): String</text><ellipse cx="18" cy="276.7335" fill="#84BE84" rx="3" ry="3" style="stroke:#038048;stroke-width:1.0;"/><text fill="#000000" font-family="Segoe UI" font-size="13" lengthAdjust="spacing" textLength="75.8228" x="26" y="280.6163">city(): String</text></g></a><!--class java.lang.Record--><g id="elem_java.lang.Record"><rect codeLine="36" fill="#F4F8FB" height="41.9219" id="java.lang.Record" rx="4" ry="4" style="stroke:#2C6E8C;stroke-width:0.5;" width="71.1182" x="95.4" y="7"/><ellipse cx="109.4" cy="27.9609" fill="#A9DCDF" rx="10" ry="10" style="stroke:#181818;stroke-width:1.0;"/><path d="M111.3844,29.1172 L108.2281,29.1172 L107.9156,29.9141 L108.2281,29.9141 Q108.6969,29.9141 108.9,30.1016 Q109.1031,30.2734 109.1031,30.5703 Q109.1031,30.8516 108.9,31.0391 Q108.6969,31.2109 108.2281,31.2109 L106.4781,31.2109 Q106.0094,31.2109 105.8063,31.0391 Q105.6031,30.8516 105.6031,30.5547 Q105.6031,30.2578 105.8219,30.0859 Q106.025,29.8984 106.5094,29.9141 L108.5563,24.8203 L107.6969,24.8203 Q107.2281,24.8203 107.025,24.6484 Q106.8375,24.4609 106.8375,24.1641 Q106.8375,23.8672 107.025,23.6953 Q107.2281,23.5078 107.6969,23.5078 L110.5094,23.5234 L113.1031,29.9141 Q113.5563,29.9141 113.7125,30.0078 Q113.9938,30.2266 113.9938,30.5703 Q113.9938,30.8516 113.7906,31.0391 Q113.6031,31.2109 113.1344,31.2109 L111.3844,31.2109 Q110.9156,31.2109 110.7125,31.0391 Q110.5094,30.8516 110.5094,30.5547 Q110.5094,30.2734 110.7125,30.1016 Q110.9156,29.9141 111.3844,29.9141 L111.6969,29.9141 L111.3844,29.1172 Z M110.8531,27.8203 L109.8063,25.2422 L108.7438,27.8203 L110.8531,27.8203 Z " fill="#000000"/><text fill="#14324A" font-family="Segoe UI" font-size="14" font-style="italic" lengthAdjust="spacing" textLength="41.1182" x="122.4" y="27.1074">Record</text><text fill="#14324A" font-family="Segoe UI" font-size="10" font-style="italic" lengthAdjust="spacing" textLength="39.1992" x="123.3595" y="41.4121">java.lang</text></g><!--reverse link java.lang.Record to com.monacoevents.eventbooking.dto.VenueRequest--><g id="link_java.lang.Record_com.monacoevents.eventbooking.dto.VenueRequest"><path codeLine="38" d="M130.96,67.28 C130.96,82.42 130.96,86.23 130.96,108.49 " fill="none" id="java.lang.Record-backto-com.monacoevents.eventbooking.dto.VenueRequest" style="stroke:#2C6E8C;stroke-width:1.0;"/><polygon fill="none" points="130.96,49.28,124.96,67.28,136.96,67.28,130.96,49.28" style="stroke:#2C6E8C;stroke-width:1.0;"/></g><text fill="#888888" font-family="Segoe UI" font-size="10" lengthAdjust="spacing" textLength="2.7588" x="122.5759" y="304.67">&#160;</text><a href="https://github.com/talsma-ict/umldoclet" target="_top" title="https://github.com/talsma-ict/umldoclet" xlink:actuate="onRequest" xlink:href="https://github.com/talsma-ict/umldoclet" xlink:show="new" xlink:title="https://github.com/talsma-ict/umldoclet" xlink:type="simple"><text fill="#888888" font-family="Segoe UI" font-size="10" lengthAdjust="spacing" textLength="77.7783" x="85.0662" y="317.9708">UMLDoclet 2.2.1</text></a><!--SRC=[bLNRRjf047tlLqpRXoPAM8pZ48gYI8H0cogjga3wWdbOxC5iiNVTtNKYskRVExwKE8Qega5QUURicViO0E0T35MwqI9QMR0Ax4eOkFjy0ro64A54pIs6818UeO45naf6fWGYyCokb0QrBDu2fJMQLCbGo0W-yNiEHcKwGCDUlOB2rFGl-mCtDVR59XTUgI162mV3mvfBhjFfjbp7xSAKnoRXS3sSiehjwOxBNDO1uev5WD8GPIP3r8LRWvG7TDoKccEuHss4adJ7gNZoK0CbBHVIGCgrDNb8NsCkRUvhXv5zZvt1mM1oyzmtvttXsp4CjEHP2BVgHxODrwo593QUW5dnK3taMLbI4DZGQaNE3fMcR42leGjnoRFOZicxBpn1c62a4EwkNuPDn4-4paa34CJSc4iUhAFAManrUplsnhtnvLweqfI_2kOEkwFUS1zieBLw-2SgTwi2TRmJrniqG49Qr4iUu8w3ey6uEtPUX3zpSlH-r6sQfzAlgN5t0x-atzKBu3hhPM_eNJdxWRMmJawyizCoaQzJpIFgqvXlL6OXLBRg1cfJIIKqT1idc3DPkYgLBFjX9K84J5AxWQN0E3HDQO8qR2Gkv4LUuSsveMhtEzx5DvGPtcBUVTQNbTYv25J24YLveF0UfJMiE1PAKImH2wrw0pI8_qInEZtCPepvZR_bEaBhQqmLZO_FKn6gmFZ4xDUP_JgpJyn-dPcjR1BFv_2h235_Mdd6-Z2ncl1FKXw6j6dChY8GThCZFQhRE2YLn_3yF7n2voOF3dTPAgFxLBdPXlonh1DV6AjvO7SATekqBiDQgRxJlcIqSgAY9DitLW9BjgOKpd-tMlzPlfBftDXDZ1VR49PAqL3LCfy_7pSfwXiXrrMNz_Phx_9L6mk9jDs3jQGSWRD5FfRcsZLxbIrVpcOhQrFJRxSZOLVPWb4aRLki-PO8R3jBuh3SxurDFvzNc_l3zXEIh-6MSzPokjEEr_TE- -ufEtNSV2uTvyXn-uup6sLQfTZ-ohKmypy0]--></g></svg>