<svg xmlns="http://www.w3.org/2000/svg" xmlns:xlink="http://www.w3.org/1999/xlink" contentStyleType="text/css" height="330px" preserveAspectRatio="none" style="width:316px;height:330px;background:#FFFFFF;" version="1.1" viewBox="0 0 316 330" width="316px" zoomAndPan="magnify"><defs/><g><!--class com.monacoevents.eventbooking.dto.VenueResponse--><a href="..\..\..\..\..\..\target\reports\apidocs\com\monacoevents\eventbooking\dto\VenueResponse.html" target="_top" title="..\..\..\..\..\..\target\reports\apidocs\com\monacoevents\eventbooking\dto\VenueResponse.html" xlink:actuate="onRequest" xlink:href="..\..\..\..\..\..\target\reports\apidocs\com\monacoevents\eventbooking\dto\VenueResponse.html" xlink:show="new" xlink:title="..\..\..\..\..\..\target\reports\apidocs\com\monacoevents\eventbooking\dto\VenueResponse.html" xlink:type="simple"><g id="elem_com.monacoevents.eventbooking.dto.VenueResponse"><rect codeLine="13" fill="#F1F1F1" height="214.6719" id="com.monacoevents.eventbooking.dto.VenueResponse" rx="2.5" ry="2.5" style="stroke:#181818;stroke-width:0.5;" width="303.0469" x="6" y="88"/><ellipse cx="70.4438" cy="108.0938" fill="#ADD1B2" rx="11" ry="11" style="stroke:#181818;stroke-width:1.0;"/><path d="M73.2095,103.9688 Q73.3657,103.75 73.5532,103.6406 Q73.7407,103.5313 73.9595,103.5313 Q74.3345,103.5313 74.5688,103.7969 Q74.8032,104.0469 74.8032,104.6563 L74.8032,106.1094 Q74.8032,106.7188 74.5688,106.9844 Q74.3345,107.25 73.9595,107.25 Q73.6157,107.25 73.4126,107.0469 Q73.2095,106.8594 73.1001,106.3438 Q73.0532,105.9844 72.8657,105.7969 Q72.5376,105.4219 71.9282,105.2031 Q71.3188,104.9844 70.6938,104.9844 Q69.9282,104.9844 69.2876,105.3125 Q68.6626,105.6406 68.1626,106.3906 Q67.6782,107.1406 67.6782,108.1719 L67.6782,109.2656 Q67.6782,110.5 68.5688,111.3281 Q69.4595,112.1406 71.0532,112.1406 Q71.9907,112.1406 72.647,111.8906 Q73.0376,111.7344 73.4595,111.2969 Q73.7251,111.0313 73.8657,110.9531 Q74.022,110.875 74.2251,110.875 Q74.5532,110.875 74.8032,111.1406 Q75.0688,111.3906 75.0688,111.7344 Q75.0688,112.0781 74.7251,112.4844 Q74.2251,113.0625 73.4282,113.3906 Q72.3501,113.8438 71.0532,113.8438 Q69.5376,113.8438 68.3345,113.2188 Q67.3501,112.7188 66.6626,111.6563 Q65.9751,110.5781 65.9751,109.2969 L65.9751,108.1406 Q65.9751,106.8125 66.5845,105.6719 Q67.2095,104.5156 68.3032,103.9063 Q69.397,103.2813 70.6313,103.2813 Q71.3657,103.2813 72.0063,103.4531 Q72.6626,103.6094 73.2095,103.9688 Z " fill="#000000"/><text fill="#000000" font-family="sans-serif" font-size="14" lengthAdjust="spacing" textLength="103.5234" x="122.0117" y="107.5332">VenueResponse</text><text fill="#000000" font-family="sans-serif" font-size="10" lengthAdjust="spacing" textLength="165.6592" x="90.9438" y="120.9902">com.monacoevents.eventbooking.dto</text><line style="stroke:#181818;stroke-width:0.5;" x1="7" x2="308.0469" y1="128.1875" y2="128.1875"/><rect fill="none" height="6" style="stroke:#C82930;stroke-width:1.0;" width="6" x="14" y="139.4922"/><text fill="#000000" font-family="sans-serif" font-size="14" lengthAdjust="spacing" textLength="49.8203" x="26" y="146.7207">id: Long</text><rect fill="none" height="6" style="stroke:#C82930;stroke-width:1.0;" width="6" x="14" y="157.1016"/><text fill="#000000" font-family="sans-serif" font-size="14" lengthAdjust="spacing" textLength="79.3721" x="26" y="164.3301">name: String</text><rect fill="none" height="6" style="stroke:#C82930;stroke-width:1.0;" width="6" x="14" y="174.7109"/><text fill="#000000" font-family="sans-serif" font-size="14" lengthAdjust="spacing" textLength="94.1582" x="26" y="181.9395">address: String</text><rect fill="none" height="6" style="stroke:#C82930;stroke-width:1.0;" width="6" x="14" y="192.3203"/><text fill="#000000" font-family="sans-serif" font-size="14" lengthAdjust="spacing" textLength="65.3516" x="26" y="199.5488">city: String</text><line style="stroke:#181818;stroke-width:0.5;" x1="7" x2="308.0469" y1="206.625" y2="206.625"/><ellipse cx="17" cy="220.9297" fill="#84BE84" rx="3" ry="3" style="stroke:#038048;stroke-width:1.0;"/><text fill="#000000" font-family="sans-serif" font-size="14" lengthAdjust="spacing" textLength="277.0469" x="26" y="225.1582">VenueResponse(Long, String, String, String)</text><ellipse cx="17" cy="238.5391" fill="#84BE84" rx="3" ry="3" style="stroke:#038048;stroke-width:1.0;"/><text fill="#000000" font-family="sans-serif" font-size="14" lengthAdjust="spacing" textLength="59.1445" x="26" y="242.7676">id(): Long</text><ellipse cx="17" cy="256.1484" fill="#84BE84" rx="3" ry="3" style="stroke:#038048;stroke-width:1.0;"/><text fill="#000000" font-family="sans-serif" font-size="14" lengthAdjust="spacing" textLength="88.6963" x="26" y="260.377">name(): String</text><ellipse cx="17" cy="273.7578" fill="#84BE84" rx="3" ry="3" style="stroke:#038048;stroke-width:1.0;"/><text fill="#000000" font-family="sans-serif" font-size="14" lengthAdjust="spacing" textLength="103.4824" x="26" y="277.9863">address(): String</text><ellipse cx="17" cy="291.3672" fill="#84BE84" rx="3" ry="3" style="stroke:#038048;stroke-width:1.0;"/><text fill="#000000" font-family="sans-serif" font-size="14" lengthAdjust="spacing" textLength="74.6758" x="26" y="295.5957">city(): String</text></g></a><!--class java.lang.Record--><g id="elem_java.lang.Record"><rect codeLine="25" fill="#F1F1F1" height="40.1875" id="java.lang.Record" rx="2.5" ry="2.5" style="stroke:#181818;stroke-width:0.5;" width="77.1309" x="119" y="12"/><ellipse cx="134" cy="32.0938" fill="#A9DCDF" rx="11" ry="11" style="stroke:#181818;stroke-width:1.0;"/><path d="M136.1875,33.8594 L132.0469,33.8594 L131.625,34.8906 L132.0469,34.8906 Q132.6563,34.8906 132.9219,35.125 Q133.1875,35.3594 133.1875,35.75 Q133.1875,36.125 132.9219,36.3594 Q132.6563,36.5938 132.0469,36.5938 L129.75,36.5938 Q129.1406,36.5938 128.8906,36.3594 Q128.625,36.125 128.625,35.7344 Q128.625,35.3594 128.9063,35.125 Q129.1719,34.875 129.7969,34.8906 L132.4688,28.2344 L131.3594,28.2344 Q130.75,28.2344 130.4844,28 Q130.2188,27.7656 130.2188,27.375 Q130.2188,27 130.4844,26.7656 Q130.75,26.5313 131.3594,26.5313 L135.0313,26.5313 L138.4219,34.8906 Q139.0156,34.8906 139.2031,35.0313 Q139.5938,35.2969 139.5938,35.75 Q139.5938,36.125 139.3281,36.3594 Q139.0781,36.5938 138.4688,36.5938 L136.1719,36.5938 Q135.5625,36.5938 135.2969,36.3594 Q135.0313,36.125 135.0313,35.7344 Q135.0313,35.3594 135.2969,35.125 Q135.5625,34.8906 136.1719,34.8906 L136.5938,34.8906 L136.1875,33.8594 Z M135.4688,32.1563 L134.1094,28.7813 L132.7344,32.1563 L135.4688,32.1563 Z " fill="#000000"/><text fill="#000000" font-family="sans-serif" font-size="14" font-style="italic" lengthAdjust="spacing" textLength="45.1309" x="148" y="31.5332">Record</text><text fill="#000000" font-family="sans-serif" font-size="10" font-style="italic" lengthAdjust="spacing" textLength="40.0293" x="150.5508" y="44.9902">java.lang</text></g><polygon fill="none" points="157.5,52.1604,151.5,70.1604,163.5,70.1604,157.5,52.1604" style="stroke:#181818;stroke-width:1.0;"/><path d="M157.5,70.1604 C157.5,79.7691 157.5,74.2423 157.5,87.8086 " fill="none" style="stroke:#181818;stroke-width:1.0;"/><text fill="#888888" font-family="sans-serif" font-size="10" lengthAdjust="spacing" textLength="2.7783" x="152.6108" y="307.3809">&#160;</text><a href="https://github.com/talsma-ict/umldoclet" target="_top" title="https://github.com/talsma-ict/umldoclet" xlink:actuate="onRequest" xlink:href="https://github.com/talsma-ict/umldoclet" xlink:show="new" xlink:title="https://github.com/talsma-ict/umldoclet" xlink:type="simple"><text fill="#888888" font-family="sans-serif" font-size="10" lengthAdjust="spacing" textLength="74.4775" x="116.7612" y="319.959">UMLDoclet 2.2.1</text></a><!--SRC=[bLHjJzim4FxEhxYn3ok2kcvX52A4XBffB-ea16LVcdwusaVYaTYPxJ1b6_zzJjBr9I1DYo9PViv-xhaxtm40l869AIghajI3D-1JvU3konHGIqX8aqLF4bIE2JbOKcPqujg315Zwr5WmzyrE66l95KPBfHFuZ8y8pfHMa6DxUz2uclrb_u5kYtrPrU0x8pBoq9iSR4aQyU5fVyH7fp33pEK8doOpjcBRt1cn4Hj2uCwK8Eq2PQabsKRMLO4YBDFMSWIFP9qoEjpXAvuwL66qHwKT56YzgqEwpb3xMkkG1VydR0ozgzlfhZP-tcWxWYkhiPHmOxwNwt1V5HQJe3Z3ofGUN4uUDROs5qHhp4EwKD0j1QVeGoQrqTJOKoK9A2zy1VUACkcwQ21BJO0RN6Je7EnVEFMJek79vLVI9TqqjN0KwnNEBuN9MMuq2aEFfBrZpR8qvY5KZ4blzY7KvP-ds0u_pEUCnPtVeqt8nvOA4z8POw6a4IuErF4sTRnD7GVgU8UQfJxF5WlurKHPVtqb8vY6DxX1wZH6SEkjsaPHol0OtNE3KBvwXXxkkEtL3evMPxhhmUQIahs3Zfh3MasDTXsizBnagXLryAUshhXqtgBmpmfyGw7Pv5PbluLkO-719aq5rplM7cpPkYXS_Ext_xVQBTM5yrL6b-iOxetneTqsTQg_ZrL1TghqmyHauMs_FdlPUbTtQgOqXU4W7dH84l3roQVMtM3BtyfNhEVprFl2HOD1ednQBba8PU2RAT5NmW_AF9FjUEWCYiLYrVWVrXEexk8-7_VvwMnu7BqTHdpCnlpuxFnioFaX7qMSpz-NrXGqk4QhtE8F]--></g></svg>