<svg xmlns="http://www.w3.org/2000/svg" xmlns:xlink="http://www.w3.org/1999/xlink" contentStyleType="text/css" height="100%" preserveAspectRatio="none" style="width:100%;height:100%;background:#FFFFFF;" version="1.1" viewBox="0 0 308 363" width="100%" zoomAndPan="magnify"><defs/><g><!--class com.monacoevents.eventbooking.dto.VenueResponse--><a href="..\..\..\..\..\..\target\reports\apidocs\com\monacoevents\eventbooking\dto\VenueResponse.html" target="_top" title="..\..\..\..\..\..\target\reports\apidocs\com\monacoevents\eventbooking\dto\VenueResponse.html" xlink:actuate="onRequest" xlink:href="..\..\..\..\..\..\target\reports\apidocs\com\monacoevents\eventbooking\dto\VenueResponse.html" xlink:show="new" xlink:title="..\..\..\..\..\..\target\reports\apidocs\com\monacoevents\eventbooking\dto\VenueResponse.html" xlink:type="simple"><g id="elem_com.monacoevents.eventbooking.dto.VenueResponse"><rect codeLine="26" fill="#F4F8FB" height="213.541" id="com.monacoevents.eventbooking.dto.VenueResponse" rx="4" ry="4" style="stroke:#2C6E8C;stroke-width:0.5;" width="294.147" x="7" y="108.92"/><ellipse cx="61.1331" cy="129.8809" fill="#ADD1B2" rx="10" ry="10" style="stroke:#181818;stroke-width:1.0;"/><path d="M62.0706,126.5216 Q62.1956,126.3497 62.3362,126.2716 Q62.4768,126.1934 62.6487,126.1934 Q62.9299,126.1934 63.1018,126.3966 Q63.2893,126.5841 63.2893,127.0528 L63.2893,128.1622 Q63.2893,128.6309 63.1018,128.8341 Q62.9299,129.0216 62.6487,129.0216 Q62.3831,129.0216 62.2268,128.8809 Q62.0706,128.7403 61.9924,128.3341 Q61.9456,128.0684 61.8206,127.9278 Q61.5549,127.6309 61.0862,127.4591 Q60.6174,127.2872 60.1487,127.2872 Q59.5706,127.2872 59.0706,127.5528 Q58.5862,127.8028 58.2112,128.3809 Q57.8362,128.9434 57.8362,129.7247 L57.8362,130.5684 Q57.8362,131.5059 58.5237,132.1466 Q59.2112,132.7716 60.4143,132.7716 Q61.1487,132.7716 61.6487,132.5684 Q61.9299,132.4591 62.2581,132.1153 Q62.4612,131.9122 62.5706,131.8653 Q62.6956,131.8028 62.8362,131.8028 Q63.1018,131.8028 63.2893,132.0059 Q63.4924,132.1934 63.4924,132.4591 Q63.4924,132.7247 63.2268,133.0372 Q62.8362,133.4747 62.2268,133.7247 Q61.4143,134.0684 60.4299,134.0684 Q59.2737,134.0684 58.3362,133.5997 Q57.5862,133.2091 57.0549,132.3966 Q56.5393,131.5684 56.5393,130.5997 L56.5393,129.7091 Q56.5393,128.6934 57.0081,127.8184 Q57.4924,126.9434 58.3206,126.4747 Q59.1643,125.9903 60.1018,125.9903 Q60.6643,125.9903 61.1487,126.1309 Q61.6487,126.2559 62.0706,126.5216 Z " fill="#000000"/><text fill="#14324A" font-family="Segoe UI" font-size="14" lengthAdjust="spacing" textLength="103.7422" x="117.2024" y="129.0274">VenueResponse</text><text fill="#14324A" font-family="Segoe UI" font-size="10" lengthAdjust="spacing" textLength="177.8809" x="80.1331" y="143.3321">com.monacoevents.eventbooking.dto</text><line style="stroke:#2C6E8C;stroke-width:0.5;" x1="8" x2="300.147" y1="150.8419" y2="150.8419"/><rect fill="none" height="6" style="stroke:#C82930;stroke-width:1.0;" width="6" x="15" y="161.9874"/><text fill="#000000" font-family="Segoe UI" font-size="13" lengthAdjust="spacing" textLength="49.3594" x="26" y="168.8702">id: Long</text><rect fill="none" height="6" style="stroke:#C82930;stroke-width:1.0;" width="6" x="15" y="179.2784"/><text fill="#000000" font-family="Segoe UI" font-size="13" lengthAdjust="spacing" textLength="78.0381" x="26" y="186.1612">name: String</text><rect fill="none" height="6" style="stroke:#C82930;stroke-width:1.0;" width="6" x="15" y="196.5694"/><text fill="#000000" font-family="Segoe UI" font-size="13" lengthAdjust="spacing" textLength="90.9746" x="26" y="203.4522">address: String</text><rect fill="none" height="6" style="stroke:#C82930;stroke-width:1.0;" width="6" x="15" y="213.8604"/><text fill="#000000" font-family="Segoe UI" font-size="13" lengthAdjust="spacing" textLength="66.2251" x="26" y="220.7432">city: String</text><line style="stroke:#2C6E8C;stroke-width:0.5;" x1="8" x2="300.147" y1="228.0059" y2="228.0059"/><ellipse cx="18" cy="242.1514" fill="#84BE84" rx="3" ry="3" style="stroke:#038048;stroke-width:1.0;"/><text fill="#000000" font-family="Segoe UI" font-size="13" lengthAdjust="spacing" textLength="269.147" x="26" y="246.0343">VenueResponse(Long, String, String, String)</text><ellipse cx="18" cy="259.4425" fill="#84BE84" rx="3" ry="3" style="stroke:#038048;stroke-width:1.0;"/><text fill="#000000" font-family="Segoe UI" font-size="13" lengthAdjust="spacing" textLength="58.957" x="26" y="263.3253">id(): Long</text><ellipse cx="18" cy="276.7335" fill="#84BE84" rx="3" ry="3" style="stroke:#038048;stroke-width:1.0;"/><text fill="#000000" font-family="Segoe UI" font-size="13" lengthAdjust="spacing" textLength="87.6357" x="26" y="280.6163">name(): String</text><ellipse cx="18" cy="294.0245" fill="#84BE84" rx="3" ry="3" style="stroke:#038048;stroke-width:1.0;"/><text fill="#000000" font-family="Segoe UI" font-size="13" lengthAdjust="spacing" textLength="100.5723" x="26" y="297.9073">address(): String</text><ellipse cx="18" cy="311.3155" fill="#84BE84" rx="3" ry="3" style="stroke:#038048;stroke-width:1.0;"/><text fill="#000000" font-family="Segoe UI" font-size="13" lengthAdjust="spacing" textLength="75.8228" x="26" y="315.1983">city(): String</text></g></a><!--class java.lang.Record--><g id="elem_java.lang.Record"><rect codeLine="38" fill="#F4F8FB" height="41.9219" id="java.lang.Record" rx="4" ry="4" style="stroke:#2C6E8C;stroke-width:0.5;" width="71.1182" x="118.51" y="7"/><ellipse cx="132.51" cy="27.9609" fill="#A9DCDF" rx="10" ry="10" style="stroke:#181818;stroke-width:1.0;"/><path d="M134.4944,29.1172 L131.3381,29.1172 L131.0256,29.9141 L131.3381,29.9141 Q131.8069,29.9141 132.01,30.1016 Q132.2131,30.2734 132.2131,30.5703 Q132.2131,30.8516 132.01,31.0391 Q131.8069,31.2109 131.3381,31.2109 L129.5881,31.2109 Q129.1194,31.2109 128.9163,31.0391 Q128.7131,30.8516 128.7131,30.5547 Q128.7131,30.2578 128.9319,30.0859 Q129.135,29.8984 129.6194,29.9141 L131.6663,24.8203 L130.8069,24.8203 Q130.3381,24.8203 130.135,24.6484 Q129.9475,24.4609 129.9475,24.1641 Q129.9475,23.8672 130.135,23.6953 Q130.3381,23.5078 130.8069,23.5078 L133.6194,23.5234 L136.2131,29.9141 Q136.6663,29.9141 136.8225,30.0078 Q137.1038,30.2266 137.1038,30.5703 Q137.1038,30.8516 136.9006,31.0391 Q136.7131,31.2109 136.2444,31.2109 L134.4944,31.2109 Q134.0256,31.2109 133.8225,31.0391 Q133.6194,30.8516 133.6194,30.5547 Q133.6194,30.2734 133.8225,30.1016 Q134.0256,29.9141 134.4944,29.9141 L134.8069,29.9141 L134.4944,29.1172 Z M133.9631,27.8203 L132.9163,25.2422 L131.8538,27.8203 L133.9631,27.8203 Z " fill="#000000"/><text fill="#14324A" font-family="Segoe UI" font-size="14" font-style="italic" lengthAdjust="spacing" textLength="41.1182" x="145.51" y="27.1074">Record</text><text fill="#14324A" font-family="Segoe UI" font-size="10" font-style="italic" lengthAdjust="spacing" textLength="39.1992" x="146.4695" y="41.4121">java.lang</text></g><!--reverse link java.lang.Record to com.monacoevents.eventbooking.dto.VenueResponse--><g id="link_java.lang.Record_com.monacoevents.eventbooking.dto.VenueResponse"><path codeLine="40" d="M154.07,67.19 C154.07,82.14 154.07,85.76 154.07,108.48 " fill="none" id="java.lang.Record-backto-com.monacoevents.eventbooking.dto.VenueResponse" style="stroke:#2C6E8C;stroke-width:1.0;"/><polygon fill="none" points="154.07,49.19,148.07,67.19,160.07,67.19,154.07,49.19" style="stroke:#2C6E8C;stroke-width:1.0;"/></g><text fill="#888888" font-family="Segoe UI" font-size="10" lengthAdjust="spacing" textLength="2.7588" x="145.6941" y="339.252">&#160;</text><a href="https://github.com/talsma-ict/umldoclet" target="_top" title="https://github.com/talsma-ict/umldoclet" xlink:actuate="onRequest" xlink:href="https://github.com/talsma-ict/umldoclet" xlink:show="new" xlink:title="https://github.com/talsma-ict/umldoclet" xlink:type="simple"><text fill="#888888" font-family="Segoe UI" font-size="10" lengthAdjust="spacing" textLength="77.7783" x="108.1843" y="352.5528">UMLDoclet 2.2.1</text></a><!--SRC=[bLLjR-8u4Fw-lsAk-s5RjOIG1igYgXAbSBShxbILThyGFfXu23uIEsixhTYN_twJbwCXKAqs84KPFtxccHdF603W0unKkjKYMbkm2knQ67ZwUmfCSeXGecOMEOY4HMXWYR6IaIc122opQwL1hOglK6cD9bMI2nd1P_RCmAXCXsYST- -WSFNuF_iBCpNsvJOttgamHWkdexEQ9C_jz5gUw_NWaSKcOV1fzEXKRAzxFCTpEa3SiGXH6gBC94TTo1gcBAJNj5ovW6VKHYX9UzoA9myrLD8o8GsaJ5kJXtGVCsbphHs7_FlE5PmEPzDzRUx7Gji53BLa6OS7zJNRXMisGX8RIy2i6LSlULPM50GsLhKYiIEbAHlGRwnnNB4ijXDIzmzB46OOAOIdJs_3Pk8RGkUo0GXZPimj2pTHvIsckhsV-9F-vFOeL6dANmNpHhrnVtGCDjHQlVmIbSkgG1t_qlE73P2G5lMAXNWWS3oSz2Rkc_0zaUEFurxJFPL-GmVtCF1R-jsz0QwptlP7_frx75WBw_BIl-gMYVmZrIoYSngphSeiS6Mhqq37L5893Ut66UPCbhPA9Slpi1OS0PFKRc4bCEQcQKsGcetCXRt8AvnS6whseEFVV46PuKFHVGO3MTdTcr0bJg8a2nK-exJ6ALvBfIYOoE5MdG1ruYzHpXu_pEUE4pJ-bka8RQ0nLTH00Ki5Lw49Y3geKmTrwe2eWprgPssJUB60xqMK-TCIV01JcZglbZoD0vXPBUfMnZcD7tEu40gxFR2UxxazpHrSL9Zc- -nra-2dPmqrvxcQtDfqKEavjfGhQjX_bdLbIsCr2-r1WH-GnYklLVPVcgyEZQYegE3kooc19LlJ2jS_MgtVhNP9TMtiDiQRNGmhfQWBQtNAdx-sAUgfa9kgBVh7Lv_osHmBYNGTX1j9IG9tX_nPkclN_5M-0ZcVhwrDpQ3TZeHTPqk7GcdRubveYT2sioJcvONGk1eMYshK_xcxS_AvtNAlMcxliUCF_Ex0wphTNh_JwtTTzzpr1gux7sTQfTY-PrgOnNy0]--></g></svg>