<svg xmlns="http://www.w3.org/2000/svg" xmlns:xlink="http://www.w3.org/1999/xlink" contentStyleType="text/css" height="175px" preserveAspectRatio="none" style="width:481px;height:175px;background:#FFFFFF;" version="1.1" viewBox="0 0 481 175" width="481px" zoomAndPan="magnify"><defs/><g><!--class com.monacoevents.eventbooking.controller.CategoryController--><a href="..\..\..\..\..\..\target\reports\apidocs\com\monacoevents\eventbooking\controller\CategoryController.html" target="_top" title="..\..\..\..\..\..\target\reports\apidocs\com\monacoevents\eventbooking\controller\CategoryController.html" xlink:actuate="onRequest" xlink:href="..\..\..\..\..\..\target\reports\apidocs\com\monacoevents\eventbooking\controller\CategoryController.html" xlink:show="new" xlink:title="..\..\..\..\..\..\target\reports\apidocs\com\monacoevents\eventbooking\controller\CategoryController.html" xlink:type="simple"><g id="elem_com.monacoevents.eventbooking.controller.CategoryController"><rect codeLine="13" fill="#F1F1F1" height="136.2344" id="com.monacoevents.eventbooking.controller.CategoryController" rx="2.5" ry="2.5" style="stroke:#181818;stroke-width:0.5;" width="468.0527" x="6" y="12"/><ellipse cx="139.3335" cy="32.0938" fill="#ADD1B2" rx="11" ry="11" style="stroke:#181818;stroke-width:1.0;"/><path d="M142.0991,27.9688 Q142.2554,27.75 142.4429,27.6406 Q142.6304,27.5313 142.8491,27.5313 Q143.2241,27.5313 143.4585,27.7969 Q143.6929,28.0469 143.6929,28.6563 L143.6929,30.1094 Q143.6929,30.7188 143.4585,30.9844 Q143.2241,31.25 142.8491,31.25 Q142.5054,31.25 142.3022,31.0469 Q142.0991,30.8594 141.9897,30.3438 Q141.9429,29.9844 141.7554,29.7969 Q141.4272,29.4219 140.8179,29.2031 Q140.2085,28.9844 139.5835,28.9844 Q138.8179,28.9844 138.1772,29.3125 Q137.5522,29.6406 137.0522,30.3906 Q136.5679,31.1406 136.5679,32.1719 L136.5679,33.2656 Q136.5679,34.5 137.4585,35.3281 Q138.3491,36.1406 139.9429,36.1406 Q140.8804,36.1406 141.5366,35.8906 Q141.9272,35.7344 142.3491,35.2969 Q142.6147,35.0313 142.7554,34.9531 Q142.9116,34.875 143.1147,34.875 Q143.4429,34.875 143.6929,35.1406 Q143.9585,35.3906 143.9585,35.7344 Q143.9585,36.0781 143.6147,36.4844 Q143.1147,37.0625 142.3179,37.3906 Q141.2397,37.8438 139.9429,37.8438 Q138.4272,37.8438 137.2241,37.2188 Q136.2397,36.7188 135.5522,35.6563 Q134.8647,34.5781 134.8647,33.2969 L134.8647,32.1406 Q134.8647,30.8125 135.4741,29.6719 Q136.0991,28.5156 137.1929,27.9063 Q138.2866,27.2813 139.521,27.2813 Q140.2554,27.2813 140.896,27.4531 Q141.5522,27.6094 142.0991,27.9688 Z " fill="#000000"/><text fill="#000000" font-family="sans-serif" font-size="14" lengthAdjust="spacing" textLength="117.4961" x="197.5283" y="31.5332">CategoryController</text><text fill="#000000" font-family="sans-serif" font-size="10" lengthAdjust="spacing" textLength="192.8857" x="159.8335" y="44.9902">com.monacoevents.eventbooking.controller</text><line style="stroke:#181818;stroke-width:0.5;" x1="7" x2="473.0527" y1="52.1875" y2="52.1875"/><ellipse cx="17" cy="66.4922" fill="#84BE84" rx="3" ry="3" style="stroke:#038048;stroke-width:1.0;"/><text fill="#000000" font-family="sans-serif" font-size="14" lengthAdjust="spacing" textLength="399.2188" x="26" y="70.7207">create(CategoryRequest): ResponseEntity&lt;CategoryResponse&gt;</text><ellipse cx="17" cy="84.1016" fill="#84BE84" rx="3" ry="3" style="stroke:#038048;stroke-width:1.0;"/><text fill="#000000" font-family="sans-serif" font-size="14" lengthAdjust="spacing" textLength="333.0879" x="26" y="88.3301">findById(Long): ResponseEntity&lt;CategoryResponse&gt;</text><ellipse cx="17" cy="101.7109" fill="#84BE84" rx="3" ry="3" style="stroke:#038048;stroke-width:1.0;"/><text fill="#000000" font-family="sans-serif" font-size="14" lengthAdjust="spacing" textLength="327.626" x="26" y="105.9395">findAll(): ResponseEntity&lt;List&lt;CategoryResponse&gt;&gt;</text><ellipse cx="17" cy="119.3203" fill="#84BE84" rx="3" ry="3" style="stroke:#038048;stroke-width:1.0;"/><text fill="#000000" font-family="sans-serif" font-size="14" lengthAdjust="spacing" textLength="442.0527" x="26" y="123.5488">update(Long, CategoryRequest): ResponseEntity&lt;CategoryResponse&gt;</text><ellipse cx="17" cy="136.9297" fill="#84BE84" rx="3" ry="3" style="stroke:#038048;stroke-width:1.0;"/><text fill="#000000" font-family="sans-serif" font-size="14" lengthAdjust="spacing" textLength="228.8193" x="26" y="141.1582">delete(Long): ResponseEntity&lt;Void&gt;</text></g></a><text fill="#888888" font-family="sans-serif" font-size="10" lengthAdjust="spacing" textLength="2.7783" x="235.1108" y="152.3809">&#160;</text><a href="https://github.com/talsma-ict/umldoclet" target="_top" title="https://github.com/talsma-ict/umldoclet" xlink:actuate="onRequest" xlink:href="https://github.com/talsma-ict/umldoclet" xlink:show="new" xlink:title="https://github.com/talsma-ict/umldoclet" xlink:type="simple"><text fill="#888888" font-family="sans-serif" font-size="10" lengthAdjust="spacing" textLength="74.4775" x="199.2612" y="164.959">UMLDoclet 2.2.1</text></a><!--SRC=[fLHHJzim47xdLzpOmugWQP91WGeXTHtQc3e9GTbBqmVNlYOMZY-p7QPiuh_FIKgRqKtQD2jIbBlxxllkV1S0W3SmeQ8oCiqSE0ANIGltdwV0j80KDHhcK83CMOeMbgX8fxODH62boyW0hPelJiQWBKWBgLFun1uPM2eDHnlixK53DNlE_etPJlPbLHlV4rVee3Svw4YAmsZOZyDu23EcRCxWUZ8Brjcsc3Y8WmXyRYKvQkjJbbgWQMID2yRzQzfwZk0HZPMaFIPSvwbBvQGTazf2mOopTKatYcbNQuq2ptySd49lV3VzLLjutcWxWh7Hh1HmIr_BJRcl2iDIhrYnYae7DaV7D6jzrelMBFVjOXplq9CovpkfIMFZpwH0mBnm5QmaAc5VMdsoZBoviNF5h8Nz2ok_uoWwlfpuhgPagealof1IQ1AzTeQNdF8W9yquuIDgPuFcjIHwyDSMy0ra7_mT_Mrmi4i9ytaG92yUnqoABZ5Oa6zpmWefYDl4qoHTcgHBasnfabsQ87EvMYpWHzE9-XnoWpwiznnxY_Mbk8CHt3RZQV5AE-cgYsr0QxxSfbX9BTvLrw8tzVF-pyYnKhrTq5HQjuliGCj2rBfhoYFu7_K2_LBW7xH_8IdQsATsUYwigrG7lY9o_lgs3QtFnwf0CvNwOKBA3-hhizzxx-krKrAZttJ-eD6FPRY9V6hf1Xs-DLUYv_FCkSAE1eDKkgnS-jdA1wvP-RxaRb3cIhIx_cBh5ulr5d_O_4xgbUo7f_rmE8l2KVHs59q4yVdfoV1i68Q7OJmAm_bLQQZ0mGqpqYv-0W00]--></g></svg>