<svg xmlns="http://www.w3.org/2000/svg" xmlns:xlink="http://www.w3.org/1999/xlink" contentStyleType="text/css" height="100%" preserveAspectRatio="none" style="width:100%;height:100%;background:#FFFFFF;" version="1.1" viewBox="0 0 430 210" width="100%" zoomAndPan="magnify"><defs/><g><!--class com.monacoevents.eventbooking.controller.EventController--><a href="..\..\..\..\..\..\target\reports\apidocs\com\monacoevents\eventbooking\controller\EventController.html" target="_top" title="..\..\..\..\..\..\target\reports\apidocs\com\monacoevents\eventbooking\controller\EventController.html" xlink:actuate="onRequest" xlink:href="..\..\..\..\..\..\target\reports\apidocs\com\monacoevents\eventbooking\controller\EventController.html" xlink:show="new" xlink:title="..\..\..\..\..\..\target\reports\apidocs\com\monacoevents\eventbooking\controller\EventController.html" xlink:type="simple"><g id="elem_com.monacoevents.eventbooking.controller.EventController"><rect codeLine="26" fill="#F4F8FB" height="161.668" id="com.monacoevents.eventbooking.controller.EventController" rx="4" ry="4" style="stroke:#2C6E8C;stroke-width:0.5;" width="409.1792" x="7" y="7"/><ellipse cx="103.7371" cy="27.9609" fill="#ADD1B2" rx="10" ry="10" style="stroke:#181818;stroke-width:1.0;"/><path d="M104.6746,24.6016 Q104.7996,24.4297 104.9402,24.3516 Q105.0808,24.2734 105.2527,24.2734 Q105.5339,24.2734 105.7058,24.4766 Q105.8933,24.6641 105.8933,25.1328 L105.8933,26.2422 Q105.8933,26.7109 105.7058,26.9141 Q105.5339,27.1016 105.2527,27.1016 Q104.9871,27.1016 104.8308,26.9609 Q104.6746,26.8203 104.5964,26.4141 Q104.5496,26.1484 104.4246,26.0078 Q104.1589,25.7109 103.6902,25.5391 Q103.2214,25.3672 102.7527,25.3672 Q102.1746,25.3672 101.6746,25.6328 Q101.1902,25.8828 100.8152,26.4609 Q100.4402,27.0234 100.4402,27.8047 L100.4402,28.6484 Q100.4402,29.5859 101.1277,30.2266 Q101.8152,30.8516 103.0183,30.8516 Q103.7527,30.8516 104.2527,30.6484 Q104.5339,30.5391 104.8621,30.1953 Q105.0652,29.9922 105.1746,29.9453 Q105.2996,29.8828 105.4402,29.8828 Q105.7058,29.8828 105.8933,30.0859 Q106.0964,30.2734 106.0964,30.5391 Q106.0964,30.8047 105.8308,31.1172 Q105.4402,31.5547 104.8308,31.8047 Q104.0183,32.1484 103.0339,32.1484 Q101.8777,32.1484 100.9402,31.6797 Q100.1902,31.2891 99.6589,30.4766 Q99.1433,29.6484 99.1433,28.6797 L99.1433,27.7891 Q99.1433,26.7734 99.6121,25.8984 Q100.0964,25.0234 100.9246,24.5547 Q101.7683,24.0703 102.7058,24.0703 Q103.2683,24.0703 103.7527,24.2109 Q104.2527,24.3359 104.6746,24.6016 Z " fill="#000000"/><text fill="#14324A" font-family="Segoe UI" font-size="14" lengthAdjust="spacing" textLength="102.9766" x="175.1013" y="27.1074">EventController</text><text fill="#14324A" font-family="Segoe UI" font-size="10" lengthAdjust="spacing" textLength="207.7051" x="122.7371" y="41.4121">com.monacoevents.eventbooking.controller</text><line style="stroke:#2C6E8C;stroke-width:0.5;" x1="8" x2="415.1792" y1="48.9219" y2="48.9219"/><rect fill="none" height="6" style="stroke:#C82930;stroke-width:1.0;" width="6" x="15" y="60.0674"/><text fill="#000000" font-family="Segoe UI" font-size="13" lengthAdjust="spacing" textLength="162.0811" x="26" y="66.9502">eventService: EventService</text><line style="stroke:#2C6E8C;stroke-width:0.5;" x1="8" x2="415.1792" y1="74.2129" y2="74.2129"/><ellipse cx="18" cy="88.3584" fill="#84BE84" rx="3" ry="3" style="stroke:#038048;stroke-width:1.0;"/><text fill="#000000" font-family="Segoe UI" font-size="13" lengthAdjust="spacing" textLength="341.0342" x="26" y="92.2412">create(EventRequest): ResponseEntity&lt;EventResponse&gt;</text><ellipse cx="18" cy="105.6494" fill="#84BE84" rx="3" ry="3" style="stroke:#038048;stroke-width:1.0;"/><text fill="#000000" font-family="Segoe UI" font-size="13" lengthAdjust="spacing" textLength="302.9292" x="26" y="109.5322">findById(Long): ResponseEntity&lt;EventResponse&gt;</text><ellipse cx="18" cy="122.9404" fill="#84BE84" rx="3" ry="3" style="stroke:#038048;stroke-width:1.0;"/><text fill="#000000" font-family="Segoe UI" font-size="13" lengthAdjust="spacing" textLength="365.7456" x="26" y="126.8232">findAll(Pageable): ResponseEntity&lt;Page&lt;EventResponse&gt;&gt;</text><ellipse cx="18" cy="140.2314" fill="#84BE84" rx="3" ry="3" style="stroke:#038048;stroke-width:1.0;"/><text fill="#000000" font-family="Segoe UI" font-size="13" lengthAdjust="spacing" textLength="384.1792" x="26" y="144.1143">update(Long, EventRequest): ResponseEntity&lt;EventResponse&gt;</text><ellipse cx="18" cy="157.5225" fill="#84BE84" rx="3" ry="3" style="stroke:#038048;stroke-width:1.0;"/><text fill="#000000" font-family="Segoe UI" font-size="13" lengthAdjust="spacing" textLength="225.3164" x="26" y="161.4053">delete(Long): ResponseEntity&lt;Void&gt;</text></g></a><text fill="#888888" font-family="Segoe UI" font-size="10" lengthAdjust="spacing" textLength="2.7588" x="209.7102" y="186.459">&#160;</text><a href="https://github.com/talsma-ict/umldoclet" target="_top" title="https://github.com/talsma-ict/umldoclet" xlink:actuate="onRequest" xlink:href="https://github.com/talsma-ict/umldoclet" xlink:show="new" xlink:title="https://github.com/talsma-ict/umldoclet" xlink:type="simple"><text fill="#888888" font-family="Segoe UI" font-size="10" lengthAdjust="spacing" textLength="77.7783" x="172.2004" y="199.7598">UMLDoclet 2.2.1</text></a><!--SRC=[dLNVRzf847xlNp5j7qhKO6pZ48gYI42WbuexHI6v5yp3OWzcnNhNtLqdugh-xpV-SSHr4hLNGBAyyyrytypE30007s2gieFcoSw2LM1ttC3zdmjWCeO49MfcCGQUiWGDR50ecPWAYC1okrCQrBPyYvJMQ38bOouJ-C8U61YLwmYDy-ODb5Ht_qL_PAOHVNCe3gzK9D12PthIaEIxtg3hk_u0xfWmAOFhwPrJHtloyHtVyO1Y2nwXD1Gobp7gKjOuOn4z5fNb51vG6wua-RXrd2BLI4dBk3IGCMrDaTADOD8MMZs7-0Fd73hZvU97RUwdKjifZBLaUGotwcj-JDVikQHeB0MpOx5wBAgofIImPTMAn4wLfch0i6MBSSjoOUUaxY-M8YmnKGZtrw_3blmV1A_V0aI26JDXqJwfsGJTs_jvC1_E9oz2bQRwrJ1_EfWDfo_1nbghnv-Y2baro0lwVZ1kWRYqgBSimcS2P-FvOEw-2lz1vEpJRD2cfwlVK-C-Jtn2twjNmCsea-4qk79V1ZRIwlU3yxEga6yppHBgKy4EAhSGArjt0xMff2iqv8rBB29PSfLALlsmup42ffazm9QZY4txD4KQDZekpykwmhiBGxSzyeBBsGCMOgJLIWZKeQmjxcMaKYTLaaKA2unnoiT6AKedSQAZopkWaVnLiDFYWzNASSBMppATe0qrPef6AcGPZrLaGk88cnnXaoDyuWXR7CxEfcAzXczb0OfFj_HSedwWsHx1hF5sn7oCDDAEwPJ6Mop6qvwCuBPSL0Pdqd9xkAYjrTdba_EMotXok8ux2rfx_yzjB4JdXhg4RGG-zomiBVU6Vvx5XUQ2z1H-JtcCj1Vn5Tr_AnvNsEzLErqOUn0DzwrID6EDKXUVFmuPwWMN-xhfXozRxulDAxX4MlRHNYBrgNj4Vg_eUWs-cYkKgzNEsioCUhs4srs-eNvBUxRS-bqUsLwUYhXQzwt5lrxNY_ppyH-bsCfTzxph3kwyO1ISZVmpn-lxthdRTzsFhZzotTKiroh3tWtJtAp_1G00]--></g></svg>