<svg xmlns="http://www.w3.org/2000/svg" xmlns:xlink="http://www.w3.org/1999/xlink" contentStyleType="text/css" height="419px" preserveAspectRatio="none" style="width:949px;height:419px;background:#FFFFFF;" version="1.1" viewBox="0 0 949 419" width="949px" zoomAndPan="magnify"><defs/><g><!--cluster com.monacoevents.eventbooking.controller--><g id="cluster_com.monacoevents.eventbooking.controller"><path d="M16.5,4 L311.5615,4 A3.75,3.75 0 0 1 314.0615,6.5 L321.0615,27.6094 L939.5,27.6094 A2.5,2.5 0 0 1 942,30.1094 L942,381.5 A2.5,2.5 0 0 1 939.5,384 L16.5,384 A2.5,2.5 0 0 1 14,381.5 L14,6.5 A2.5,2.5 0 0 1 16.5,4 " fill="none" style="stroke:#000000;stroke-width:1.5;"/><line style="stroke:#000000;stroke-width:1.5;" x1="14" x2="321.0615" y1="27.6094" y2="27.6094"/><text fill="#000000" font-family="sans-serif" font-size="14" font-weight="bold" lengthAdjust="spacing" textLength="294.0615" x="18" y="20.5332">com.monacoevents.eventbooking.controller</text></g><!--class CategoryController--><a href="file:/C:/Users/loris/Documents/Programming/Github/event-booking-api/target/reports/apidocs/com/monacoevents/eventbooking/controller/CategoryController.html" target="_top" title="file:/C:/Users/loris/Documents/Programming/Github/event-booking-api/target/reports/apidocs/com/monacoevents/eventbooking/controller/CategoryController.html" xlink:actuate="onRequest" xlink:href="file:/C:/Users/loris/Documents/Programming/Github/event-booking-api/target/reports/apidocs/com/monacoevents/eventbooking/controller/CategoryController.html" xlink:show="new" xlink:title="file:/C:/Users/loris/Documents/Programming/Github/event-booking-api/target/reports/apidocs/com/monacoevents/eventbooking/controller/CategoryController.html" xlink:type="simple"><g id="elem_CategoryController"><rect codeLine="12" fill="#F1F1F1" height="153.6563" id="CategoryController" rx="2.5" ry="2.5" style="stroke:#181818;stroke-width:0.5;" width="468.0527" x="22" y="32"/><ellipse cx="193.0283" cy="48" fill="#ADD1B2" rx="11" ry="11" style="stroke:#181818;stroke-width:1.0;"/><path d="M195.7939,43.875 Q195.9502,43.6563 196.1377,43.5469 Q196.3252,43.4375 196.5439,43.4375 Q196.9189,43.4375 197.1533,43.7031 Q197.3877,43.9531 197.3877,44.5625 L197.3877,46.0156 Q197.3877,46.625 197.1533,46.8906 Q196.9189,47.1563 196.5439,47.1563 Q196.2002,47.1563 195.9971,46.9531 Q195.7939,46.7656 195.6846,46.25 Q195.6377,45.8906 195.4502,45.7031 Q195.1221,45.3281 194.5127,45.1094 Q193.9033,44.8906 193.2783,44.8906 Q192.5127,44.8906 191.8721,45.2188 Q191.2471,45.5469 190.7471,46.2969 Q190.2627,47.0469 190.2627,48.0781 L190.2627,49.1719 Q190.2627,50.4063 191.1533,51.2344 Q192.0439,52.0469 193.6377,52.0469 Q194.5752,52.0469 195.2314,51.7969 Q195.6221,51.6406 196.0439,51.2031 Q196.3096,50.9375 196.4502,50.8594 Q196.6064,50.7813 196.8096,50.7813 Q197.1377,50.7813 197.3877,51.0469 Q197.6533,51.2969 197.6533,51.6406 Q197.6533,51.9844 197.3096,52.3906 Q196.8096,52.9688 196.0127,53.2969 Q194.9346,53.75 193.6377,53.75 Q192.1221,53.75 190.9189,53.125 Q189.9346,52.625 189.2471,51.5625 Q188.5596,50.4844 188.5596,49.2031 L188.5596,48.0469 Q188.5596,46.7188 189.1689,45.5781 Q189.7939,44.4219 190.8877,43.8125 Q191.9814,43.1875 193.2158,43.1875 Q193.9502,43.1875 194.5908,43.3594 Q195.2471,43.5156 195.7939,43.875 Z " fill="#000000"/><text fill="#000000" font-family="sans-serif" font-size="14" lengthAdjust="spacing" textLength="117.4961" x="213.5283" y="53.7285">CategoryController</text><line style="stroke:#181818;stroke-width:0.5;" x1="23" x2="489.0527" y1="64" y2="64"/><rect fill="none" height="6" style="stroke:#C82930;stroke-width:1.0;" width="6" x="30" y="75.3047"/><text fill="#000000" font-family="sans-serif" font-size="14" lengthAdjust="spacing" textLength="211.6475" x="42" y="82.5332">categoryService: CategoryService</text><line style="stroke:#181818;stroke-width:0.5;" x1="23" x2="489.0527" y1="89.6094" y2="89.6094"/><ellipse cx="33" cy="103.9141" fill="#84BE84" rx="3" ry="3" style="stroke:#038048;stroke-width:1.0;"/><text fill="#000000" font-family="sans-serif" font-size="14" lengthAdjust="spacing" textLength="399.2188" x="42" y="108.1426">create(CategoryRequest): ResponseEntity&lt;CategoryResponse&gt;</text><ellipse cx="33" cy="121.5234" fill="#84BE84" rx="3" ry="3" style="stroke:#038048;stroke-width:1.0;"/><text fill="#000000" font-family="sans-serif" font-size="14" lengthAdjust="spacing" textLength="333.0879" x="42" y="125.752">findById(Long): ResponseEntity&lt;CategoryResponse&gt;</text><ellipse cx="33" cy="139.1328" fill="#84BE84" rx="3" ry="3" style="stroke:#038048;stroke-width:1.0;"/><text fill="#000000" font-family="sans-serif" font-size="14" lengthAdjust="spacing" textLength="397.7012" x="42" y="143.3613">findAll(Pageable): ResponseEntity&lt;Page&lt;CategoryResponse&gt;&gt;</text><ellipse cx="33" cy="156.7422" fill="#84BE84" rx="3" ry="3" style="stroke:#038048;stroke-width:1.0;"/><text fill="#000000" font-family="sans-serif" font-size="14" lengthAdjust="spacing" textLength="442.0527" x="42" y="160.9707">update(Long, CategoryRequest): ResponseEntity&lt;CategoryResponse&gt;</text><ellipse cx="33" cy="174.3516" fill="#84BE84" rx="3" ry="3" style="stroke:#038048;stroke-width:1.0;"/><text fill="#000000" font-family="sans-serif" font-size="14" lengthAdjust="spacing" textLength="228.8193" x="42" y="178.5801">delete(Long): ResponseEntity&lt;Void&gt;</text></g></a><!--class EventController--><a href="file:/C:/Users/loris/Documents/Programming/Github/event-booking-api/target/reports/apidocs/com/monacoevents/eventbooking/controller/EventController.html" target="_top" title="file:/C:/Users/loris/Documents/Programming/Github/event-booking-api/target/reports/apidocs/com/monacoevents/eventbooking/controller/EventController.html" xlink:actuate="onRequest" xlink:href="file:/C:/Users/loris/Documents/Programming/Github/event-booking-api/target/reports/apidocs/com/monacoevents/eventbooking/controller/EventController.html" xlink:show="new" xlink:title="file:/C:/Users/loris/Documents/Programming/Github/event-booking-api/target/reports/apidocs/com/monacoevents/eventbooking/controller/EventController.html" xlink:type="simple"><g id="elem_EventController"><rect codeLine="21" fill="#F1F1F1" height="153.6563" id="EventController" rx="2.5" ry="2.5" style="stroke:#181818;stroke-width:0.5;" width="426.0391" x="508" y="32"/><ellipse cx="668.5249" cy="48" fill="#ADD1B2" rx="11" ry="11" style="stroke:#181818;stroke-width:1.0;"/><path d="M671.2905,43.875 Q671.4468,43.6563 671.6343,43.5469 Q671.8218,43.4375 672.0405,43.4375 Q672.4155,43.4375 672.6499,43.7031 Q672.8843,43.9531 672.8843,44.5625 L672.8843,46.0156 Q672.8843,46.625 672.6499,46.8906 Q672.4155,47.1563 672.0405,47.1563 Q671.6968,47.1563 671.4937,46.9531 Q671.2905,46.7656 671.1812,46.25 Q671.1343,45.8906 670.9468,45.7031 Q670.6187,45.3281 670.0093,45.1094 Q669.3999,44.8906 668.7749,44.8906 Q668.0093,44.8906 667.3687,45.2188 Q666.7437,45.5469 666.2437,46.2969 Q665.7593,47.0469 665.7593,48.0781 L665.7593,49.1719 Q665.7593,50.4063 666.6499,51.2344 Q667.5405,52.0469 669.1343,52.0469 Q670.0718,52.0469 670.728,51.7969 Q671.1187,51.6406 671.5405,51.2031 Q671.8062,50.9375 671.9468,50.8594 Q672.103,50.7813 672.3062,50.7813 Q672.6343,50.7813 672.8843,51.0469 Q673.1499,51.2969 673.1499,51.6406 Q673.1499,51.9844 672.8062,52.3906 Q672.3062,52.9688 671.5093,53.2969 Q670.4312,53.75 669.1343,53.75 Q667.6187,53.75 666.4155,53.125 Q665.4312,52.625 664.7437,51.5625 Q664.0562,50.4844 664.0562,49.2031 L664.0562,48.0469 Q664.0562,46.7188 664.6655,45.5781 Q665.2905,44.4219 666.3843,43.8125 Q667.478,43.1875 668.7124,43.1875 Q669.4468,43.1875 670.0874,43.3594 Q670.7437,43.5156 671.2905,43.875 Z " fill="#000000"/><text fill="#000000" font-family="sans-serif" font-size="14" lengthAdjust="spacing" textLength="96.4893" x="689.0249" y="53.7285">EventController</text><line style="stroke:#181818;stroke-width:0.5;" x1="509" x2="933.0391" y1="64" y2="64"/><rect fill="none" height="6" style="stroke:#C82930;stroke-width:1.0;" width="6" x="516" y="75.3047"/><text fill="#000000" font-family="sans-serif" font-size="14" lengthAdjust="spacing" textLength="171.1924" x="528" y="82.5332">eventService: EventService</text><line style="stroke:#181818;stroke-width:0.5;" x1="509" x2="933.0391" y1="89.6094" y2="89.6094"/><ellipse cx="519" cy="103.9141" fill="#84BE84" rx="3" ry="3" style="stroke:#038048;stroke-width:1.0;"/><text fill="#000000" font-family="sans-serif" font-size="14" lengthAdjust="spacing" textLength="357.2051" x="528" y="108.1426">create(EventRequest): ResponseEntity&lt;EventResponse&gt;</text><ellipse cx="519" cy="121.5234" fill="#84BE84" rx="3" ry="3" style="stroke:#038048;stroke-width:1.0;"/><text fill="#000000" font-family="sans-serif" font-size="14" lengthAdjust="spacing" textLength="312.0811" x="528" y="125.752">findById(Long): ResponseEntity&lt;EventResponse&gt;</text><ellipse cx="519" cy="139.1328" fill="#84BE84" rx="3" ry="3" style="stroke:#038048;stroke-width:1.0;"/><text fill="#000000" font-family="sans-serif" font-size="14" lengthAdjust="spacing" textLength="376.6943" x="528" y="143.3613">findAll(Pageable): ResponseEntity&lt;Page&lt;EventResponse&gt;&gt;</text><ellipse cx="519" cy="156.7422" fill="#84BE84" rx="3" ry="3" style="stroke:#038048;stroke-width:1.0;"/><text fill="#000000" font-family="sans-serif" font-size="14" lengthAdjust="spacing" textLength="400.0391" x="528" y="160.9707">update(Long, EventRequest): ResponseEntity&lt;EventResponse&gt;</text><ellipse cx="519" cy="174.3516" fill="#84BE84" rx="3" ry="3" style="stroke:#038048;stroke-width:1.0;"/><text fill="#000000" font-family="sans-serif" font-size="14" lengthAdjust="spacing" textLength="228.8193" x="528" y="178.5801">delete(Long): ResponseEntity&lt;Void&gt;</text></g></a><!--class VenueController--><a href="file:/C:/Users/loris/Documents/Programming/Github/event-booking-api/target/reports/apidocs/com/monacoevents/eventbooking/controller/VenueController.html" target="_top" title="file:/C:/Users/loris/Documents/Programming/Github/event-booking-api/target/reports/apidocs/com/monacoevents/eventbooking/controller/VenueController.html" xlink:actuate="onRequest" xlink:href="file:/C:/Users/loris/Documents/Programming/Github/event-booking-api/target/reports/apidocs/com/monacoevents/eventbooking/controller/VenueController.html" xlink:show="new" xlink:title="file:/C:/Users/loris/Documents/Programming/Github/event-booking-api/target/reports/apidocs/com/monacoevents/eventbooking/controller/VenueController.html" xlink:type="simple"><g id="elem_VenueController"><rect codeLine="30" fill="#F1F1F1" height="153.6563" id="VenueController" rx="2.5" ry="2.5" style="stroke:#181818;stroke-width:0.5;" width="435.4043" x="38.5" y="222"/><ellipse cx="201.3662" cy="238" fill="#ADD1B2" rx="11" ry="11" style="stroke:#181818;stroke-width:1.0;"/><path d="M204.1318,233.875 Q204.2881,233.6563 204.4756,233.5469 Q204.6631,233.4375 204.8818,233.4375 Q205.2568,233.4375 205.4912,233.7031 Q205.7256,233.9531 205.7256,234.5625 L205.7256,236.0156 Q205.7256,236.625 205.4912,236.8906 Q205.2568,237.1563 204.8818,237.1563 Q204.5381,237.1563 204.335,236.9531 Q204.1318,236.7656 204.0225,236.25 Q203.9756,235.8906 203.7881,235.7031 Q203.46,235.3281 202.8506,235.1094 Q202.2412,234.8906 201.6162,234.8906 Q200.8506,234.8906 200.21,235.2188 Q199.585,235.5469 199.085,236.2969 Q198.6006,237.0469 198.6006,238.0781 L198.6006,239.1719 Q198.6006,240.4063 199.4912,241.2344 Q200.3818,242.0469 201.9756,242.0469 Q202.9131,242.0469 203.5693,241.7969 Q203.96,241.6406 204.3818,241.2031 Q204.6475,240.9375 204.7881,240.8594 Q204.9443,240.7813 205.1475,240.7813 Q205.4756,240.7813 205.7256,241.0469 Q205.9912,241.2969 205.9912,241.6406 Q205.9912,241.9844 205.6475,242.3906 Q205.1475,242.9688 204.3506,243.2969 Q203.2725,243.75 201.9756,243.75 Q200.46,243.75 199.2568,243.125 Q198.2725,242.625 197.585,241.5625 Q196.8975,240.4844 196.8975,239.2031 L196.8975,238.0469 Q196.8975,236.7188 197.5068,235.5781 Q198.1318,234.4219 199.2256,233.8125 Q200.3193,233.1875 201.5537,233.1875 Q202.2881,233.1875 202.9287,233.3594 Q203.585,233.5156 204.1318,233.875 Z " fill="#000000"/><text fill="#000000" font-family="sans-serif" font-size="14" lengthAdjust="spacing" textLength="101.1719" x="221.8662" y="243.7285">VenueController</text><line style="stroke:#181818;stroke-width:0.5;" x1="39.5" x2="472.9043" y1="254" y2="254"/><rect fill="none" height="6" style="stroke:#C82930;stroke-width:1.0;" width="6" x="46.5" y="265.3047"/><text fill="#000000" font-family="sans-serif" font-size="14" lengthAdjust="spacing" textLength="179.7715" x="58.5" y="272.5332">venueService: VenueService</text><line style="stroke:#181818;stroke-width:0.5;" x1="39.5" x2="472.9043" y1="279.6094" y2="279.6094"/><ellipse cx="49.5" cy="293.9141" fill="#84BE84" rx="3" ry="3" style="stroke:#038048;stroke-width:1.0;"/><text fill="#000000" font-family="sans-serif" font-size="14" lengthAdjust="spacing" textLength="366.5703" x="58.5" y="298.1426">create(VenueRequest): ResponseEntity&lt;VenueResponse&gt;</text><ellipse cx="49.5" cy="311.5234" fill="#84BE84" rx="3" ry="3" style="stroke:#038048;stroke-width:1.0;"/><text fill="#000000" font-family="sans-serif" font-size="14" lengthAdjust="spacing" textLength="316.7637" x="58.5" y="315.752">findById(Long): ResponseEntity&lt;VenueResponse&gt;</text><ellipse cx="49.5" cy="329.1328" fill="#84BE84" rx="3" ry="3" style="stroke:#038048;stroke-width:1.0;"/><text fill="#000000" font-family="sans-serif" font-size="14" lengthAdjust="spacing" textLength="381.377" x="58.5" y="333.3613">findAll(Pageable): ResponseEntity&lt;Page&lt;VenueResponse&gt;&gt;</text><ellipse cx="49.5" cy="346.7422" fill="#84BE84" rx="3" ry="3" style="stroke:#038048;stroke-width:1.0;"/><text fill="#000000" font-family="sans-serif" font-size="14" lengthAdjust="spacing" textLength="409.4043" x="58.5" y="350.9707">update(Long, VenueRequest): ResponseEntity&lt;VenueResponse&gt;</text><ellipse cx="49.5" cy="364.3516" fill="#84BE84" rx="3" ry="3" style="stroke:#038048;stroke-width:1.0;"/><text fill="#000000" font-family="sans-serif" font-size="14" lengthAdjust="spacing" textLength="228.8193" x="58.5" y="368.5801">delete(Long): ResponseEntity&lt;Void&gt;</text></g></a><text fill="#888888" font-family="sans-serif" font-size="10" lengthAdjust="spacing" textLength="2.7783" x="465.1108" y="396.3809">&#160;</text><a href="https://github.com/talsma-ict/umldoclet" target="_top" title="https://github.com/talsma-ict/umldoclet" xlink:actuate="onRequest" xlink:href="https://github.com/talsma-ict/umldoclet" xlink:show="new" xlink:title="https://github.com/talsma-ict/umldoclet" xlink:type="simple"><text fill="#888888" font-family="sans-serif" font-size="10" lengthAdjust="spacing" textLength="74.4775" x="429.2612" y="408.959">UMLDoclet 2.2.1</text></a><!--SRC=[pLPHRzem47xlhxXf3wDgYKFMqJMg9Z66savCGYtj2-F194UmSEpCTfYYQVzzTaWXqD9szALviUox- -wxynVv000-G5TcXMB9p82HO6PCm-sFFb0HGu825JKO0qjfWXecoAL8zD8HWUPc9XN8QRcBf5AeCobY9XBuJXSKjCnLXDexE80orV0U_JVLDVH9uGw_oOYZWKRti4Ofy5ljPk07RHXIhbCALzsXLw6jOm8ly5fWiJcBK6WBcOiOLKchaz78BlsbvHWMg3IJmiRu5OuhDPB2K2OqP5GPxKeQS2gCuzhoRFuJxnGQdPl-9ZV_hEHs31qbQ1x3jVoLhyfzbocQMCQS5Z8te5CqLD3If2rdZJOLDRP_ORWCi4JdjisMI-gbKj18uWA5qLwvJAISsyPwZgcIdDlo_YpZt1TngZLqRJiJgOhkscSqcZAE8Uc6v5RRqWcNYcbY6vUd3fmCb4mKJLEBJIwOcUKJKkPhLWcRD6F4K9MW8GepQTj3x54i8qqiKr9dIkfCoPefUKZCcvcKZyUs1gXzpQXol46ri3SMhagg3ZQyZoA5rjouzxb6rtvp6C9rAKIDFM6OASxN3ilZBvimKoRYhyLLtEXRTUyLtU6yCR1tHoSS7m8uoqEKBPWyYrqjZi8nlBQY6ErlWJlgkPCiNll_tHPHpztXcrFG5giTyYcZLzhfrNQF2gTqsDdZohgFP9uBVO5UDY6U4il-LRn69dSeSdnpCjbYjKCc2-UraibTRVUeJ4g7dGskhFl8vBdG5yXa4-8fcUnVnV_Bf5hEjIbu3MqgfIdVhJhyPP6XwZCnxqeh6NZ_-N7hhNlHEHDeXuXeBj1AqA-bBTEHMhugrqyn6isCoNH8I5AgpdDYCkKqqMIH8NdAu-KOiJLGZCVLW72ncbJSQz_qJvj-UzZw67vgXNxRQv-T1UtWnFUF_23q_L4lLp93Cg1M_kD_]--></g></svg>