<svg xmlns="http://www.w3.org/2000/svg" xmlns:xlink="http://www.w3.org/1999/xlink" contentStyleType="text/css" height="211px" preserveAspectRatio="none" style="width:505px;height:211px;background:#FFFFFF;" version="1.1" viewBox="0 0 505 211" width="505px" zoomAndPan="magnify"><defs/><g><!--cluster com.monacoevents.eventbooking.controller--><g id="cluster_com.monacoevents.eventbooking.controller"><path d="M16.5,4 L311.5615,4 A3.75,3.75 0 0 1 314.0615,6.5 L321.0615,27.6094 L495.5,27.6094 A2.5,2.5 0 0 1 498,30.1094 L498,173.5 A2.5,2.5 0 0 1 495.5,176 L16.5,176 A2.5,2.5 0 0 1 14,173.5 L14,6.5 A2.5,2.5 0 0 1 16.5,4 " fill="none" style="stroke:#000000;stroke-width:1.5;"/><line style="stroke:#000000;stroke-width:1.5;" x1="14" x2="321.0615" y1="27.6094" y2="27.6094"/><text fill="#000000" font-family="sans-serif" font-size="14" font-weight="bold" lengthAdjust="spacing" textLength="294.0615" x="18" y="20.5332">com.monacoevents.eventbooking.controller</text></g><!--class CategoryController--><a href="file:/C:/Users/loris/Documents/Programming/Github/event-booking-api/target/reports/apidocs/com/monacoevents/eventbooking/controller/CategoryController.html" target="_top" title="file:/C:/Users/loris/Documents/Programming/Github/event-booking-api/target/reports/apidocs/com/monacoevents/eventbooking/controller/CategoryController.html" xlink:actuate="onRequest" xlink:href="file:/C:/Users/loris/Documents/Programming/Github/event-booking-api/target/reports/apidocs/com/monacoevents/eventbooking/controller/CategoryController.html" xlink:show="new" xlink:title="file:/C:/Users/loris/Documents/Programming/Github/event-booking-api/target/reports/apidocs/com/monacoevents/eventbooking/controller/CategoryController.html" xlink:type="simple"><g id="elem_CategoryController"><rect codeLine="12" fill="#F1F1F1" height="136.0469" id="CategoryController" rx="2.5" ry="2.5" style="stroke:#181818;stroke-width:0.5;" width="468.0527" x="22" y="32"/><ellipse cx="193.0283" cy="48" fill="#ADD1B2" rx="11" ry="11" style="stroke:#181818;stroke-width:1.0;"/><path d="M195.7939,43.875 Q195.9502,43.6563 196.1377,43.5469 Q196.3252,43.4375 196.5439,43.4375 Q196.9189,43.4375 197.1533,43.7031 Q197.3877,43.9531 197.3877,44.5625 L197.3877,46.0156 Q197.3877,46.625 197.1533,46.8906 Q196.9189,47.1563 196.5439,47.1563 Q196.2002,47.1563 195.9971,46.9531 Q195.7939,46.7656 195.6846,46.25 Q195.6377,45.8906 195.4502,45.7031 Q195.1221,45.3281 194.5127,45.1094 Q193.9033,44.8906 193.2783,44.8906 Q192.5127,44.8906 191.8721,45.2188 Q191.2471,45.5469 190.7471,46.2969 Q190.2627,47.0469 190.2627,48.0781 L190.2627,49.1719 Q190.2627,50.4063 191.1533,51.2344 Q192.0439,52.0469 193.6377,52.0469 Q194.5752,52.0469 195.2314,51.7969 Q195.6221,51.6406 196.0439,51.2031 Q196.3096,50.9375 196.4502,50.8594 Q196.6064,50.7813 196.8096,50.7813 Q197.1377,50.7813 197.3877,51.0469 Q197.6533,51.2969 197.6533,51.6406 Q197.6533,51.9844 197.3096,52.3906 Q196.8096,52.9688 196.0127,53.2969 Q194.9346,53.75 193.6377,53.75 Q192.1221,53.75 190.9189,53.125 Q189.9346,52.625 189.2471,51.5625 Q188.5596,50.4844 188.5596,49.2031 L188.5596,48.0469 Q188.5596,46.7188 189.1689,45.5781 Q189.7939,44.4219 190.8877,43.8125 Q191.9814,43.1875 193.2158,43.1875 Q193.9502,43.1875 194.5908,43.3594 Q195.2471,43.5156 195.7939,43.875 Z " fill="#000000"/><text fill="#000000" font-family="sans-serif" font-size="14" lengthAdjust="spacing" textLength="117.4961" x="213.5283" y="53.7285">CategoryController</text><line style="stroke:#181818;stroke-width:0.5;" x1="23" x2="489.0527" y1="64" y2="64"/><line style="stroke:#181818;stroke-width:0.5;" x1="23" x2="489.0527" y1="72" y2="72"/><ellipse cx="33" cy="86.3047" fill="#84BE84" rx="3" ry="3" style="stroke:#038048;stroke-width:1.0;"/><text fill="#000000" font-family="sans-serif" font-size="14" lengthAdjust="spacing" textLength="399.2188" x="42" y="90.5332">create(CategoryRequest): ResponseEntity&lt;CategoryResponse&gt;</text><ellipse cx="33" cy="103.9141" fill="#84BE84" rx="3" ry="3" style="stroke:#038048;stroke-width:1.0;"/><text fill="#000000" font-family="sans-serif" font-size="14" lengthAdjust="spacing" textLength="333.0879" x="42" y="108.1426">findById(Long): ResponseEntity&lt;CategoryResponse&gt;</text><ellipse cx="33" cy="121.5234" fill="#84BE84" rx="3" ry="3" style="stroke:#038048;stroke-width:1.0;"/><text fill="#000000" font-family="sans-serif" font-size="14" lengthAdjust="spacing" textLength="327.626" x="42" y="125.752">findAll(): ResponseEntity&lt;List&lt;CategoryResponse&gt;&gt;</text><ellipse cx="33" cy="139.1328" fill="#84BE84" rx="3" ry="3" style="stroke:#038048;stroke-width:1.0;"/><text fill="#000000" font-family="sans-serif" font-size="14" lengthAdjust="spacing" textLength="442.0527" x="42" y="143.3613">update(Long, CategoryRequest): ResponseEntity&lt;CategoryResponse&gt;</text><ellipse cx="33" cy="156.7422" fill="#84BE84" rx="3" ry="3" style="stroke:#038048;stroke-width:1.0;"/><text fill="#000000" font-family="sans-serif" font-size="14" lengthAdjust="spacing" textLength="228.8193" x="42" y="160.9707">delete(Long): ResponseEntity&lt;Void&gt;</text></g></a><text fill="#888888" font-family="sans-serif" font-size="10" lengthAdjust="spacing" textLength="2.7783" x="243.1108" y="188.3809">&#160;</text><a href="https://github.com/talsma-ict/umldoclet" target="_top" title="https://github.com/talsma-ict/umldoclet" xlink:actuate="onRequest" xlink:href="https://github.com/talsma-ict/umldoclet" xlink:show="new" xlink:title="https://github.com/talsma-ict/umldoclet" xlink:type="simple"><text fill="#888888" font-family="sans-serif" font-size="10" lengthAdjust="spacing" textLength="74.4775" x="207.2612" y="200.959">UMLDoclet 2.2.1</text></a><!--SRC=[fLHDRzD04BttLmpYGAesNiUKjBKgf62gjYX8LKcvX1msziHPPRrZTjT15kA_CxRJnctX0hwiiZlpFaPl0W3m1X8gQwlojGTFuDVAmVtdAKYJGOu6hVIOWIfaZWwMgCdahYj4a9LVamLQjRzIiXPTIIPJ9eTFSYl1KMLJTC710RHKimVq7zBrq9TrS_cHKeqU1ibXJr8KZiR3A8p6C9FQ5H9kabcmGzltH44KZ82njKhHE8QiJ8QsbJKfPSh7j7ivXYrQfyXmJxZ3QQocPBnKna4fhNUDfLijZM-qZWBcFmbEOJ3vCdsgBJnljHt3n1fPPN17twj7kwzAAtDMh6LDbGTNe9T6ja-EDJjaAkbvVd7SDR3G3O-PjHH1GKQcX5iqtWNjiIJQy623HgabhTdUpwwl-L8jdOE4nvcJhPDzpNo-KXfZaSJYth5reSag9tXmLT60YrjBkPL5mTZYIlbrjHGjtt17E9Ib4bxQ7BsmM1AFH_1LHgaJh5JqbOg-Kh5NAbuA2zQ-q8i5Uu3UTvHQvDB1G_qTDWFrXp7SjT5oU6cyylN5lg2xVlyKPgLCzg6-oGPJpki_TK-q7hnid2hdNtO_Qw_AhF7GK1_3_ph9a0EEV_7nbLIsh__LnM5tN3XVwnxQYiYtcUd3NzSbsgaocuGu5_3wxC-lzyqsQMMG5pZT6EIeXJtQbaxq-7PStynyllQ-TB4GUHkje4cCRpTvg58lga9dtGe_M-R5OhUSLu__4isc3SFJOJYUZS9uz3OUdGJlpiPdu-Wy38_2A0x3-MLbgKHnApdZYzy0]--></g></svg>