<svg xmlns="http://www.w3.org/2000/svg" xmlns:xlink="http://www.w3.org/1999/xlink" contentStyleType="text/css" height="100%" preserveAspectRatio="none" style="width:100%;height:100%;background:#FFFFFF;" version="1.1" viewBox="0 0 942 458" width="100%" zoomAndPan="magnify"><defs/><g><!--cluster com.monacoevents.eventbooking.controller--><g id="cluster_com.monacoevents.eventbooking.controller"><path d="M10,6 L278.0166,6 A6,6 0 0 1 282.0166,10 L289.0166,29.291 L931,29.291 A4,4 0 0 1 935,33.291 L935,413.49 A4,4 0 0 1 931,417.49 L10,417.49 A4,4 0 0 1 6,413.49 L6,10 A4,4 0 0 1 10,6 " fill="#FBFBFD" style="stroke:#B8C4D0;stroke-width:1.5;"/><line style="stroke:#B8C4D0;stroke-width:1.5;" x1="6" x2="289.0166" y1="29.291" y2="29.291"/><text fill="#33475B" font-family="Segoe UI" font-size="13" font-weight="bold" lengthAdjust="spacing" textLength="270.0166" x="10" y="22.0283">com.monacoevents.eventbooking.controller</text></g><!--class CategoryController--><a href="file:/C:/Users/loris/Documents/Programming/Github/event-booking-api/target/reports/apidocs/com/monacoevents/eventbooking/controller/CategoryController.html" target="_top" title="file:/C:/Users/loris/Documents/Programming/Github/event-booking-api/target/reports/apidocs/com/monacoevents/eventbooking/controller/CategoryController.html" xlink:actuate="onRequest" xlink:href="file:/C:/Users/loris/Documents/Programming/Github/event-booking-api/target/reports/apidocs/com/monacoevents/eventbooking/controller/CategoryController.html" xlink:show="new" xlink:title="file:/C:/Users/loris/Documents/Programming/Github/event-booking-api/target/reports/apidocs/com/monacoevents/eventbooking/controller/CategoryController.html" xlink:type="simple"><g id="elem_CategoryController"><rect codeLine="25" fill="#F4F8FB" height="149.7461" id="CategoryController" rx="4" ry="4" style="stroke:#2C6E8C;stroke-width:0.5;" width="452.064" x="21.97" y="42"/><ellipse cx="185.4702" cy="57" fill="#ADD1B2" rx="10" ry="10" style="stroke:#181818;stroke-width:1.0;"/><path d="M186.4077,53.6406 Q186.5327,53.4688 186.6734,53.3906 Q186.814,53.3125 186.9859,53.3125 Q187.2671,53.3125 187.439,53.5156 Q187.6265,53.7031 187.6265,54.1719 L187.6265,55.2813 Q187.6265,55.75 187.439,55.9531 Q187.2671,56.1406 186.9859,56.1406 Q186.7202,56.1406 186.564,56 Q186.4077,55.8594 186.3296,55.4531 Q186.2827,55.1875 186.1577,55.0469 Q185.8921,54.75 185.4234,54.5781 Q184.9546,54.4063 184.4859,54.4063 Q183.9077,54.4063 183.4077,54.6719 Q182.9234,54.9219 182.5484,55.5 Q182.1734,56.0625 182.1734,56.8438 L182.1734,57.6875 Q182.1734,58.625 182.8609,59.2656 Q183.5484,59.8906 184.7515,59.8906 Q185.4859,59.8906 185.9859,59.6875 Q186.2671,59.5781 186.5952,59.2344 Q186.7984,59.0313 186.9077,58.9844 Q187.0327,58.9219 187.1734,58.9219 Q187.439,58.9219 187.6265,59.125 Q187.8296,59.3125 187.8296,59.5781 Q187.8296,59.8438 187.564,60.1563 Q187.1734,60.5938 186.564,60.8438 Q185.7515,61.1875 184.7671,61.1875 Q183.6109,61.1875 182.6734,60.7188 Q181.9234,60.3281 181.3921,59.5156 Q180.8765,58.6875 180.8765,57.7188 L180.8765,56.8281 Q180.8765,55.8125 181.3452,54.9375 Q181.8296,54.0625 182.6577,53.5938 Q183.5015,53.1094 184.439,53.1094 Q185.0015,53.1094 185.4859,53.25 Q185.9859,53.375 186.4077,53.6406 Z " fill="#000000"/><text fill="#14324A" font-family="Segoe UI" font-size="13" lengthAdjust="spacing" textLength="117.0635" x="204.4702" y="62.3828">CategoryController</text><line style="stroke:#2C6E8C;stroke-width:0.5;" x1="22.97" x2="473.034" y1="72" y2="72"/><rect fill="none" height="6" style="stroke:#C82930;stroke-width:1.0;" width="6" x="29.97" y="83.1455"/><text fill="#000000" font-family="Segoe UI" font-size="13" lengthAdjust="spacing" textLength="202.979" x="40.97" y="90.0283">categoryService: CategoryService</text><line style="stroke:#2C6E8C;stroke-width:0.5;" x1="22.97" x2="473.034" y1="97.291" y2="97.291"/><ellipse cx="32.97" cy="111.4365" fill="#84BE84" rx="3" ry="3" style="stroke:#038048;stroke-width:1.0;"/><text fill="#000000" font-family="Segoe UI" font-size="13" lengthAdjust="spacing" textLength="383.9189" x="40.97" y="115.3193">create(CategoryRequest): ResponseEntity&lt;CategoryResponse&gt;</text><ellipse cx="32.97" cy="128.7275" fill="#84BE84" rx="3" ry="3" style="stroke:#038048;stroke-width:1.0;"/><text fill="#000000" font-family="Segoe UI" font-size="13" lengthAdjust="spacing" textLength="324.3716" x="40.97" y="132.6104">findById(Long): ResponseEntity&lt;CategoryResponse&gt;</text><ellipse cx="32.97" cy="146.0186" fill="#84BE84" rx="3" ry="3" style="stroke:#038048;stroke-width:1.0;"/><text fill="#000000" font-family="Segoe UI" font-size="13" lengthAdjust="spacing" textLength="387.188" x="40.97" y="149.9014">findAll(Pageable): ResponseEntity&lt;Page&lt;CategoryResponse&gt;&gt;</text><ellipse cx="32.97" cy="163.3096" fill="#84BE84" rx="3" ry="3" style="stroke:#038048;stroke-width:1.0;"/><text fill="#000000" font-family="Segoe UI" font-size="13" lengthAdjust="spacing" textLength="427.064" x="40.97" y="167.1924">update(Long, CategoryRequest): ResponseEntity&lt;CategoryResponse&gt;</text><ellipse cx="32.97" cy="180.6006" fill="#84BE84" rx="3" ry="3" style="stroke:#038048;stroke-width:1.0;"/><text fill="#000000" font-family="Segoe UI" font-size="13" lengthAdjust="spacing" textLength="225.3164" x="40.97" y="184.4834">delete(Long): ResponseEntity&lt;Void&gt;</text></g></a><!--class EventController--><a href="file:/C:/Users/loris/Documents/Programming/Github/event-booking-api/target/reports/apidocs/com/monacoevents/eventbooking/controller/EventController.html" target="_top" title="file:/C:/Users/loris/Documents/Programming/Github/event-booking-api/target/reports/apidocs/com/monacoevents/eventbooking/controller/EventController.html" xlink:actuate="onRequest" xlink:href="file:/C:/Users/loris/Documents/Programming/Github/event-booking-api/target/reports/apidocs/com/monacoevents/eventbooking/controller/EventController.html" xlink:show="new" xlink:title="file:/C:/Users/loris/Documents/Programming/Github/event-booking-api/target/reports/apidocs/com/monacoevents/eventbooking/controller/EventController.html" xlink:type="simple"><g id="elem_EventController"><rect codeLine="34" fill="#F4F8FB" height="149.7461" id="EventController" rx="4" ry="4" style="stroke:#2C6E8C;stroke-width:0.5;" width="409.1792" x="509.41" y="42"/><ellipse cx="662.1891" cy="57" fill="#ADD1B2" rx="10" ry="10" style="stroke:#181818;stroke-width:1.0;"/><path d="M663.1266,53.6406 Q663.2516,53.4688 663.3922,53.3906 Q663.5328,53.3125 663.7047,53.3125 Q663.9859,53.3125 664.1578,53.5156 Q664.3453,53.7031 664.3453,54.1719 L664.3453,55.2813 Q664.3453,55.75 664.1578,55.9531 Q663.9859,56.1406 663.7047,56.1406 Q663.4391,56.1406 663.2828,56 Q663.1266,55.8594 663.0484,55.4531 Q663.0016,55.1875 662.8766,55.0469 Q662.6109,54.75 662.1422,54.5781 Q661.6734,54.4063 661.2047,54.4063 Q660.6266,54.4063 660.1266,54.6719 Q659.6422,54.9219 659.2672,55.5 Q658.8922,56.0625 658.8922,56.8438 L658.8922,57.6875 Q658.8922,58.625 659.5797,59.2656 Q660.2672,59.8906 661.4703,59.8906 Q662.2047,59.8906 662.7047,59.6875 Q662.9859,59.5781 663.3141,59.2344 Q663.5172,59.0313 663.6266,58.9844 Q663.7516,58.9219 663.8922,58.9219 Q664.1578,58.9219 664.3453,59.125 Q664.5484,59.3125 664.5484,59.5781 Q664.5484,59.8438 664.2828,60.1563 Q663.8922,60.5938 663.2828,60.8438 Q662.4703,61.1875 661.4859,61.1875 Q660.3297,61.1875 659.3922,60.7188 Q658.6422,60.3281 658.1109,59.5156 Q657.5953,58.6875 657.5953,57.7188 L657.5953,56.8281 Q657.5953,55.8125 658.0641,54.9375 Q658.5484,54.0625 659.3766,53.5938 Q660.2203,53.1094 661.1578,53.1094 Q661.7203,53.1094 662.2047,53.25 Q662.7047,53.375 663.1266,53.6406 Z " fill="#000000"/><text fill="#14324A" font-family="Segoe UI" font-size="13" lengthAdjust="spacing" textLength="95.6211" x="681.1891" y="62.3828">EventController</text><line style="stroke:#2C6E8C;stroke-width:0.5;" x1="510.41" x2="917.5892" y1="72" y2="72"/><rect fill="none" height="6" style="stroke:#C82930;stroke-width:1.0;" width="6" x="517.41" y="83.1455"/><text fill="#000000" font-family="Segoe UI" font-size="13" lengthAdjust="spacing" textLength="162.0811" x="528.41" y="90.0283">eventService: EventService</text><line style="stroke:#2C6E8C;stroke-width:0.5;" x1="510.41" x2="917.5892" y1="97.291" y2="97.291"/><ellipse cx="520.41" cy="111.4365" fill="#84BE84" rx="3" ry="3" style="stroke:#038048;stroke-width:1.0;"/><text fill="#000000" font-family="Segoe UI" font-size="13" lengthAdjust="spacing" textLength="341.0342" x="528.41" y="115.3193">create(EventRequest): ResponseEntity&lt;EventResponse&gt;</text><ellipse cx="520.41" cy="128.7275" fill="#84BE84" rx="3" ry="3" style="stroke:#038048;stroke-width:1.0;"/><text fill="#000000" font-family="Segoe UI" font-size="13" lengthAdjust="spacing" textLength="302.9292" x="528.41" y="132.6104">findById(Long): ResponseEntity&lt;EventResponse&gt;</text><ellipse cx="520.41" cy="146.0186" fill="#84BE84" rx="3" ry="3" style="stroke:#038048;stroke-width:1.0;"/><text fill="#000000" font-family="Segoe UI" font-size="13" lengthAdjust="spacing" textLength="365.7456" x="528.41" y="149.9014">findAll(Pageable): ResponseEntity&lt;Page&lt;EventResponse&gt;&gt;</text><ellipse cx="520.41" cy="163.3096" fill="#84BE84" rx="3" ry="3" style="stroke:#038048;stroke-width:1.0;"/><text fill="#000000" font-family="Segoe UI" font-size="13" lengthAdjust="spacing" textLength="384.1792" x="528.41" y="167.1924">update(Long, EventRequest): ResponseEntity&lt;EventResponse&gt;</text><ellipse cx="520.41" cy="180.6006" fill="#84BE84" rx="3" ry="3" style="stroke:#038048;stroke-width:1.0;"/><text fill="#000000" font-family="Segoe UI" font-size="13" lengthAdjust="spacing" textLength="225.3164" x="528.41" y="184.4834">delete(Long): ResponseEntity&lt;Void&gt;</text></g></a><!--class VenueController--><a href="file:/C:/Users/loris/Documents/Programming/Github/event-booking-api/target/reports/apidocs/com/monacoevents/eventbooking/controller/VenueController.html" target="_top" title="file:/C:/Users/loris/Documents/Programming/Github/event-booking-api/target/reports/apidocs/com/monacoevents/eventbooking/controller/VenueController.html" xlink:actuate="onRequest" xlink:href="file:/C:/Users/loris/Documents/Programming/Github/event-booking-api/target/reports/apidocs/com/monacoevents/eventbooking/controller/VenueController.html" xlink:show="new" xlink:title="file:/C:/Users/loris/Documents/Programming/Github/event-booking-api/target/reports/apidocs/com/monacoevents/eventbooking/controller/VenueController.html" xlink:type="simple"><g id="elem_VenueController"><rect codeLine="43" fill="#F4F8FB" height="149.7461" id="VenueController" rx="4" ry="4" style="stroke:#2C6E8C;stroke-width:0.5;" width="418.269" x="38.87" y="251.74"/><ellipse cx="193.9215" cy="266.74" fill="#ADD1B2" rx="10" ry="10" style="stroke:#181818;stroke-width:1.0;"/><path d="M194.859,263.3806 Q194.984,263.2088 195.1246,263.1306 Q195.2653,263.0525 195.4371,263.0525 Q195.7184,263.0525 195.8903,263.2556 Q196.0778,263.4431 196.0778,263.9119 L196.0778,265.0213 Q196.0778,265.49 195.8903,265.6931 Q195.7184,265.8806 195.4371,265.8806 Q195.1715,265.8806 195.0153,265.74 Q194.859,265.5994 194.7809,265.1931 Q194.734,264.9275 194.609,264.7869 Q194.3434,264.49 193.8746,264.3181 Q193.4059,264.1463 192.9371,264.1463 Q192.359,264.1463 191.859,264.4119 Q191.3746,264.6619 190.9996,265.24 Q190.6246,265.8025 190.6246,266.5838 L190.6246,267.4275 Q190.6246,268.365 191.3121,269.0056 Q191.9996,269.6306 193.2028,269.6306 Q193.9371,269.6306 194.4371,269.4275 Q194.7184,269.3181 195.0465,268.9744 Q195.2496,268.7713 195.359,268.7244 Q195.484,268.6619 195.6246,268.6619 Q195.8903,268.6619 196.0778,268.865 Q196.2809,269.0525 196.2809,269.3181 Q196.2809,269.5838 196.0153,269.8963 Q195.6246,270.3338 195.0153,270.5838 Q194.2028,270.9275 193.2184,270.9275 Q192.0621,270.9275 191.1246,270.4588 Q190.3746,270.0681 189.8434,269.2556 Q189.3278,268.4275 189.3278,267.4588 L189.3278,266.5681 Q189.3278,265.5525 189.7965,264.6775 Q190.2809,263.8025 191.109,263.3338 Q191.9528,262.8494 192.8903,262.8494 Q193.4528,262.8494 193.9371,262.99 Q194.4371,263.115 194.859,263.3806 Z " fill="#000000"/><text fill="#14324A" font-family="Segoe UI" font-size="13" lengthAdjust="spacing" textLength="100.166" x="212.9215" y="272.1228">VenueController</text><line style="stroke:#2C6E8C;stroke-width:0.5;" x1="39.87" x2="456.139" y1="281.74" y2="281.74"/><rect fill="none" height="6" style="stroke:#C82930;stroke-width:1.0;" width="6" x="46.87" y="292.8855"/><text fill="#000000" font-family="Segoe UI" font-size="13" lengthAdjust="spacing" textLength="169.4316" x="57.87" y="299.7683">venueService: VenueService</text><line style="stroke:#2C6E8C;stroke-width:0.5;" x1="39.87" x2="456.139" y1="307.031" y2="307.031"/><ellipse cx="49.87" cy="321.1765" fill="#84BE84" rx="3" ry="3" style="stroke:#038048;stroke-width:1.0;"/><text fill="#000000" font-family="Segoe UI" font-size="13" lengthAdjust="spacing" textLength="350.124" x="57.87" y="325.0593">create(VenueRequest): ResponseEntity&lt;VenueResponse&gt;</text><ellipse cx="49.87" cy="338.4675" fill="#84BE84" rx="3" ry="3" style="stroke:#038048;stroke-width:1.0;"/><text fill="#000000" font-family="Segoe UI" font-size="13" lengthAdjust="spacing" textLength="307.4741" x="57.87" y="342.3504">findById(Long): ResponseEntity&lt;VenueResponse&gt;</text><ellipse cx="49.87" cy="355.7586" fill="#84BE84" rx="3" ry="3" style="stroke:#038048;stroke-width:1.0;"/><text fill="#000000" font-family="Segoe UI" font-size="13" lengthAdjust="spacing" textLength="370.2905" x="57.87" y="359.6414">findAll(Pageable): ResponseEntity&lt;Page&lt;VenueResponse&gt;&gt;</text><ellipse cx="49.87" cy="373.0496" fill="#84BE84" rx="3" ry="3" style="stroke:#038048;stroke-width:1.0;"/><text fill="#000000" font-family="Segoe UI" font-size="13" lengthAdjust="spacing" textLength="393.269" x="57.87" y="376.9324">update(Long, VenueRequest): ResponseEntity&lt;VenueResponse&gt;</text><ellipse cx="49.87" cy="390.3406" fill="#84BE84" rx="3" ry="3" style="stroke:#038048;stroke-width:1.0;"/><text fill="#000000" font-family="Segoe UI" font-size="13" lengthAdjust="spacing" textLength="225.3164" x="57.87" y="394.2234">delete(Long): ResponseEntity&lt;Void&gt;</text></g></a><text fill="#888888" font-family="Segoe UI" font-size="10" lengthAdjust="spacing" textLength="2.7588" x="462.6206" y="434.281">&#160;</text><a href="https://github.com/talsma-ict/umldoclet" target="_top" title="https://github.com/talsma-ict/umldoclet" xlink:actuate="onRequest" xlink:href="https://github.com/talsma-ict/umldoclet" xlink:show="new" xlink:title="https://github.com/talsma-ict/umldoclet" xlink:type="simple"><text fill="#888888" font-family="Segoe UI" font-size="10" lengthAdjust="spacing" textLength="77.7783" x="425.1108" y="447.5818">UMLDoclet 2.2.1</text></a><!--SRC=[pLPDa-8s4Btlhr0gXx2rWsK-bc5TMwa23-nEYgIcvkj2E0YxCIfaoP5afaWg_pqjumLZO6V3NXOEBgjVltujFzbD226_a51b6ysJfILM4RlaXZpzFY5CnYG12PfPY0bFMGA6p44ecPWj40ZBxL9feXR5NQIq1fCf6NEPaD_OcX6ZSXs1yTwy8KMfno_iBynKsESRjtYZ8W6MDCAt5KbjlzLhjlrsZpmoOL96RiD7hsJRvxIzjjSYo2ru1D8WPIvZq8MiGSOYl4osaIko1csuafZZbpokrKX9oxWq96FQ6jVIdM3IEgqj3-jtlMlI63nC3hNv7mfjLsIW9SjZSg_-odVjcXMNoCPIOfOiLYzkLnRO1DIYMg7OK6dS3TAlnM9Oi5pOCQhxWwL07Y1HG9vkpyCU-Dz0MfqQ81BCc26BLabPJU1p-tdS7VV7mvDGfN7_IbWxx8twuIdOG6lryYhAoIf1hMwdtHtKG5nQq0iMmP70qM3S6_jduGSYHnz6lNfvVFGhDEvnuqFytvm1Lrc7_R1xuvy6LjhgTBhNxxSR-LEcMO8-5MoZSajYPRVPw583BjzYGX1iBL8oeVjIBrMIHGhM8AtnYijSAQoPUCwRMWc1_lXdc-T-nTQI40zGelGct6EcqmKN4D0me4y6pKvH8ZSKZqgUEd9wfrM2VQJ8JJznkypdjAZNB0isMSQfPJe1IpLa2Wy4nQLOHOQYKbfLIgjAwLufFHRcBMqgPZFiWLH-pQW4Fe1UunaDTYsL2mVeTv4633U-OEx17JZxDY3tnQl7m4XQRZSVzu3jyg-7D0iku-7cDcvCy7rsKVP0YCOTFZis5t1Cu2B7B3MQF8jTBqx25VdUZcB05o6SwUTPyNYF_xTkef5xXZ-SWsggpjYdoDvvPrIvEscS0d1sZyle9PPvBVKR_798yJMpNDx5zzZa6MGEFvnDQghEs6JjK3kRF5VkJjga09pTu39wYKrUI_q6cnnIVCqcbtVn_srINZuQkn4LjeLIjlXkLUa_RpBG4ovNvUUpVphwv6OumINWs1Yj9A05_KhPeXojr2jh_IcdqwMrcGaeJGhNUSvCjfWVcpooD4z5l1qSQoFaR5QEX9zsiwcRxvh-TTFlFRQwGVTzqEvurtwls-jrVF-TtmvyVphAjSg0tZ6q_-m_]--></g></svg>