<svg xmlns="http://www.w3.org/2000/svg" xmlns:xlink="http://www.w3.org/1999/xlink" contentStyleType="text/css" height="100%" preserveAspectRatio="none" style="width:100%;height:100%;background:#FFFFFF;" version="1.1" viewBox="0 0 439 210" width="100%" zoomAndPan="magnify"><defs/><g><!--class com.monacoevents.eventbooking.controller.VenueController--><a href="..\..\..\..\..\..\target\reports\apidocs\com\monacoevents\eventbooking\controller\VenueController.html" target="_top" title="..\..\..\..\..\..\target\reports\apidocs\com\monacoevents\eventbooking\controller\VenueController.html" xlink:actuate="onRequest" xlink:href="..\..\..\..\..\..\target\reports\apidocs\com\monacoevents\eventbooking\controller\VenueController.html" xlink:show="new" xlink:title="..\..\..\..\..\..\target\reports\apidocs\com\monacoevents\eventbooking\controller\VenueController.html" xlink:type="simple"><g id="elem_com.monacoevents.eventbooking.controller.VenueController"><rect codeLine="26" fill="#F4F8FB" height="161.668" id="com.monacoevents.eventbooking.controller.VenueController" rx="4" ry="4" style="stroke:#2C6E8C;stroke-width:0.5;" width="418.269" x="7" y="7"/><ellipse cx="108.282" cy="27.9609" fill="#ADD1B2" rx="10" ry="10" style="stroke:#181818;stroke-width:1.0;"/><path d="M109.2195,24.6016 Q109.3445,24.4297 109.4851,24.3516 Q109.6257,24.2734 109.7976,24.2734 Q110.0789,24.2734 110.2507,24.4766 Q110.4382,24.6641 110.4382,25.1328 L110.4382,26.2422 Q110.4382,26.7109 110.2507,26.9141 Q110.0789,27.1016 109.7976,27.1016 Q109.532,27.1016 109.3757,26.9609 Q109.2195,26.8203 109.1414,26.4141 Q109.0945,26.1484 108.9695,26.0078 Q108.7039,25.7109 108.2351,25.5391 Q107.7664,25.3672 107.2976,25.3672 Q106.7195,25.3672 106.2195,25.6328 Q105.7351,25.8828 105.3601,26.4609 Q104.9851,27.0234 104.9851,27.8047 L104.9851,28.6484 Q104.9851,29.5859 105.6726,30.2266 Q106.3601,30.8516 107.5632,30.8516 Q108.2976,30.8516 108.7976,30.6484 Q109.0789,30.5391 109.407,30.1953 Q109.6101,29.9922 109.7195,29.9453 Q109.8445,29.8828 109.9851,29.8828 Q110.2507,29.8828 110.4382,30.0859 Q110.6414,30.2734 110.6414,30.5391 Q110.6414,30.8047 110.3757,31.1172 Q109.9851,31.5547 109.3757,31.8047 Q108.5632,32.1484 107.5789,32.1484 Q106.4226,32.1484 105.4851,31.6797 Q104.7351,31.2891 104.2039,30.4766 Q103.6882,29.6484 103.6882,28.6797 L103.6882,27.7891 Q103.6882,26.7734 104.157,25.8984 Q104.6414,25.0234 105.4695,24.5547 Q106.3132,24.0703 107.2507,24.0703 Q107.8132,24.0703 108.2976,24.2109 Q108.7976,24.3359 109.2195,24.6016 Z " fill="#000000"/><text fill="#14324A" font-family="Segoe UI" font-size="14" lengthAdjust="spacing" textLength="107.8711" x="177.199" y="27.1074">VenueController</text><text fill="#14324A" font-family="Segoe UI" font-size="10" lengthAdjust="spacing" textLength="207.7051" x="127.282" y="41.4121">com.monacoevents.eventbooking.controller</text><line style="stroke:#2C6E8C;stroke-width:0.5;" x1="8" x2="424.269" y1="48.9219" y2="48.9219"/><rect fill="none" height="6" style="stroke:#C82930;stroke-width:1.0;" width="6" x="15" y="60.0674"/><text fill="#000000" font-family="Segoe UI" font-size="13" lengthAdjust="spacing" textLength="169.4316" x="26" y="66.9502">venueService: VenueService</text><line style="stroke:#2C6E8C;stroke-width:0.5;" x1="8" x2="424.269" y1="74.2129" y2="74.2129"/><ellipse cx="18" cy="88.3584" fill="#84BE84" rx="3" ry="3" style="stroke:#038048;stroke-width:1.0;"/><text fill="#000000" font-family="Segoe UI" font-size="13" lengthAdjust="spacing" textLength="350.124" x="26" y="92.2412">create(VenueRequest): ResponseEntity&lt;VenueResponse&gt;</text><ellipse cx="18" cy="105.6494" fill="#84BE84" rx="3" ry="3" style="stroke:#038048;stroke-width:1.0;"/><text fill="#000000" font-family="Segoe UI" font-size="13" lengthAdjust="spacing" textLength="307.4741" x="26" y="109.5322">findById(Long): ResponseEntity&lt;VenueResponse&gt;</text><ellipse cx="18" cy="122.9404" fill="#84BE84" rx="3" ry="3" style="stroke:#038048;stroke-width:1.0;"/><text fill="#000000" font-family="Segoe UI" font-size="13" lengthAdjust="spacing" textLength="370.2905" x="26" y="126.8232">findAll(Pageable): ResponseEntity&lt;Page&lt;VenueResponse&gt;&gt;</text><ellipse cx="18" cy="140.2314" fill="#84BE84" rx="3" ry="3" style="stroke:#038048;stroke-width:1.0;"/><text fill="#000000" font-family="Segoe UI" font-size="13" lengthAdjust="spacing" textLength="393.269" x="26" y="144.1143">update(Long, VenueRequest): ResponseEntity&lt;VenueResponse&gt;</text><ellipse cx="18" cy="157.5225" fill="#84BE84" rx="3" ry="3" style="stroke:#038048;stroke-width:1.0;"/><text fill="#000000" font-family="Segoe UI" font-size="13" lengthAdjust="spacing" textLength="225.3164" x="26" y="161.4053">delete(Long): ResponseEntity&lt;Void&gt;</text></g></a><text fill="#888888" font-family="Segoe UI" font-size="10" lengthAdjust="spacing" textLength="2.7588" x="214.2551" y="186.459">&#160;</text><a href="https://github.com/talsma-ict/umldoclet" target="_top" title="https://github.com/talsma-ict/umldoclet" xlink:actuate="onRequest" xlink:href="https://github.com/talsma-ict/umldoclet" xlink:show="new" xlink:title="https://github.com/talsma-ict/umldoclet" xlink:type="simple"><text fill="#888888" font-family="Segoe UI" font-size="10" lengthAdjust="spacing" textLength="77.7783" x="176.7454" y="199.7598">UMLDoclet 2.2.1</text></a><!--SRC=[dLLTRzfA47tlhvZcFfIemHZZ48gYI42WJKMhA2HzmJmizc1Mh7VTtJKHzwh_lUEFInmdqVq09CixP-QScPqP000-m4Ib1ytZhGMhm6wvWOTlSs0oWXWbQcOn0fwm60siKIWPcnA8m3AxLHhKfdWBbTPeKYKZBcFuolOCZCfqYCPvzmuAglk_epyoKuk-FkI7roeKQA4rEQr9yjnkl-svNX_kcJ09Wvl9lLD5U_Bn7C_f0iKMF4HfA6Gc8zI5h57AGdhCIyiPx54RhYJvk5MSFDLGISkuD90oRKsUqgrWqkPQkmxn-yu5j4QB-NDjxgT2sncCj6HP17VgPtPCr-ouf6Wi0RDbaNhCgxAX9B1XrOh4JfIcQi2WOOjmmp9XPwJkEqiG5XWhX8URjs4B_YT2jzS0X88PCsRXBgxO1DtR7pD_DfYDNuKgJVMhODwaFnrCNeEDj5QF_uZAPLMWhj_p_543nAL5lM4XlX0u7StwC_TD-3EHqq_JVfEUhdv7ZVioyJ5zhzy0rwEE1nF_sdqTM4khr_Clpij2layrYwbF1Jkep4AaRDKDrAQIhj2GDoumZsJ9LIfPziEMHmYOfFO06uuYCitJ16dOwBWuB-eA9vU6RdlOzQz-eCnmGeAq4W9r82kBUnMgn4cKPA72FKfhdEAnLehIYPtmw782D9B_5kmq-62vT9oWyRDCnsW3ZQcYaGfOoYCLce0uWZf7KES8dZY21eUpjObOhU2leW3vfxtF4GlKUvhj8VoelHqn7qEDj6DQXV4Ey_6qfqEuAnQLmQcqt1ukAsjvTlNalE4o6XzkejQSrjv_Sni9qRgbBc5hWIyzSql3lUQVfL6kEISzW_-dF4BQY_YMRiMZ4lkhRATBOm-YvhvHYcQiLkhyy-MGefvpkQkQVl2wzI7Vl89Bf6KVxYHIdxf7vA-IhbFZgxW2kLnkhKtDiDE9kTrcQ-gtf6EBhT_ceUraYOZATTzO_AjLjSW_7_zHygtSTY_QRl- -wm_zyw5txdGlUguxeANzqVM6hhkSPbgbsBbbcflLRm00]--></g></svg>