<svg xmlns="http://www.w3.org/2000/svg" xmlns:xlink="http://www.w3.org/1999/xlink" contentStyleType="text/css" height="201px" preserveAspectRatio="none" style="width:448px;height:201px;background:#FFFFFF;" version="1.1" viewBox="0 0 448 201" width="448px" zoomAndPan="magnify"><defs/><g><!--class com.monacoevents.eventbooking.controller.VenueController--><a href="..\..\..\..\..\..\target\reports\apidocs\com\monacoevents\eventbooking\controller\VenueController.html" target="_top" title="..\..\..\..\..\..\target\reports\apidocs\com\monacoevents\eventbooking\controller\VenueController.html" xlink:actuate="onRequest" xlink:href="..\..\..\..\..\..\target\reports\apidocs\com\monacoevents\eventbooking\controller\VenueController.html" xlink:show="new" xlink:title="..\..\..\..\..\..\target\reports\apidocs\com\monacoevents\eventbooking\controller\VenueController.html" xlink:type="simple"><g id="elem_com.monacoevents.eventbooking.controller.VenueController"><rect codeLine="13" fill="#F1F1F1" height="161.8438" id="com.monacoevents.eventbooking.controller.VenueController" rx="2.5" ry="2.5" style="stroke:#181818;stroke-width:0.5;" width="435.4043" x="6" y="12"/><ellipse cx="123.0093" cy="32.0938" fill="#ADD1B2" rx="11" ry="11" style="stroke:#181818;stroke-width:1.0;"/><path d="M125.7749,27.9688 Q125.9312,27.75 126.1187,27.6406 Q126.3062,27.5313 126.5249,27.5313 Q126.8999,27.5313 127.1343,27.7969 Q127.3687,28.0469 127.3687,28.6563 L127.3687,30.1094 Q127.3687,30.7188 127.1343,30.9844 Q126.8999,31.25 126.5249,31.25 Q126.1812,31.25 125.978,31.0469 Q125.7749,30.8594 125.6655,30.3438 Q125.6187,29.9844 125.4312,29.7969 Q125.103,29.4219 124.4937,29.2031 Q123.8843,28.9844 123.2593,28.9844 Q122.4937,28.9844 121.853,29.3125 Q121.228,29.6406 120.728,30.3906 Q120.2437,31.1406 120.2437,32.1719 L120.2437,33.2656 Q120.2437,34.5 121.1343,35.3281 Q122.0249,36.1406 123.6187,36.1406 Q124.5562,36.1406 125.2124,35.8906 Q125.603,35.7344 126.0249,35.2969 Q126.2905,35.0313 126.4312,34.9531 Q126.5874,34.875 126.7905,34.875 Q127.1187,34.875 127.3687,35.1406 Q127.6343,35.3906 127.6343,35.7344 Q127.6343,36.0781 127.2905,36.4844 Q126.7905,37.0625 125.9937,37.3906 Q124.9155,37.8438 123.6187,37.8438 Q122.103,37.8438 120.8999,37.2188 Q119.9155,36.7188 119.228,35.6563 Q118.5405,34.5781 118.5405,33.2969 L118.5405,32.1406 Q118.5405,30.8125 119.1499,29.6719 Q119.7749,28.5156 120.8687,27.9063 Q121.9624,27.2813 123.1968,27.2813 Q123.9312,27.2813 124.5718,27.4531 Q125.228,27.6094 125.7749,27.9688 Z " fill="#000000"/><text fill="#000000" font-family="sans-serif" font-size="14" lengthAdjust="spacing" textLength="101.1719" x="189.3662" y="31.5332">VenueController</text><text fill="#000000" font-family="sans-serif" font-size="10" lengthAdjust="spacing" textLength="192.8857" x="143.5093" y="44.9902">com.monacoevents.eventbooking.controller</text><line style="stroke:#181818;stroke-width:0.5;" x1="7" x2="440.4043" y1="52.1875" y2="52.1875"/><rect fill="none" height="6" style="stroke:#C82930;stroke-width:1.0;" width="6" x="14" y="63.4922"/><text fill="#000000" font-family="sans-serif" font-size="14" lengthAdjust="spacing" textLength="179.7715" x="26" y="70.7207">venueService: VenueService</text><line style="stroke:#181818;stroke-width:0.5;" x1="7" x2="440.4043" y1="77.7969" y2="77.7969"/><ellipse cx="17" cy="92.1016" fill="#84BE84" rx="3" ry="3" style="stroke:#038048;stroke-width:1.0;"/><text fill="#000000" font-family="sans-serif" font-size="14" lengthAdjust="spacing" textLength="366.5703" x="26" y="96.3301">create(VenueRequest): ResponseEntity&lt;VenueResponse&gt;</text><ellipse cx="17" cy="109.7109" fill="#84BE84" rx="3" ry="3" style="stroke:#038048;stroke-width:1.0;"/><text fill="#000000" font-family="sans-serif" font-size="14" lengthAdjust="spacing" textLength="316.7637" x="26" y="113.9395">findById(Long): ResponseEntity&lt;VenueResponse&gt;</text><ellipse cx="17" cy="127.3203" fill="#84BE84" rx="3" ry="3" style="stroke:#038048;stroke-width:1.0;"/><text fill="#000000" font-family="sans-serif" font-size="14" lengthAdjust="spacing" textLength="381.377" x="26" y="131.5488">findAll(Pageable): ResponseEntity&lt;Page&lt;VenueResponse&gt;&gt;</text><ellipse cx="17" cy="144.9297" fill="#84BE84" rx="3" ry="3" style="stroke:#038048;stroke-width:1.0;"/><text fill="#000000" font-family="sans-serif" font-size="14" lengthAdjust="spacing" textLength="409.4043" x="26" y="149.1582">update(Long, VenueRequest): ResponseEntity&lt;VenueResponse&gt;</text><ellipse cx="17" cy="162.5391" fill="#84BE84" rx="3" ry="3" style="stroke:#038048;stroke-width:1.0;"/><text fill="#000000" font-family="sans-serif" font-size="14" lengthAdjust="spacing" textLength="228.8193" x="26" y="166.7676">delete(Long): ResponseEntity&lt;Void&gt;</text></g></a><text fill="#888888" font-family="sans-serif" font-size="10" lengthAdjust="spacing" textLength="2.7783" x="218.6108" y="178.3809">&#160;</text><a href="https://github.com/talsma-ict/umldoclet" target="_top" title="https://github.com/talsma-ict/umldoclet" xlink:actuate="onRequest" xlink:href="https://github.com/talsma-ict/umldoclet" xlink:show="new" xlink:title="https://github.com/talsma-ict/umldoclet" xlink:type="simple"><text fill="#888888" font-family="sans-serif" font-size="10" lengthAdjust="spacing" textLength="74.4775" x="182.7612" y="190.959">UMLDoclet 2.2.1</text></a><!--SRC=[dLJVRzCm47xVNt6C1pfjTPtGjIEQ9fKomL2HfgtRIzC7rxacrXmxs4vHGFlVSPBIXW8I44MASdVVVP_lXm40Ni5K5vKHQUR0QN2PiF3mQGPC9P2YGiCS9Y1obgA55KgjKji68h3IPTg0NZT_N1k3jj0g4Ig5Zsp3mEhISBJaw0WQglcFx5-OxMHVLRNndUOI7VIc9nr98Gr6_P268vWpQNC6DzCvsMRROq8IaW1yRYauAkjJbYf1qyYQ58pxpwprdC46ZHLQUGpTvgcFohLoJ2WB1JFEraUwbKovMcj0FF-GZA4tkP_zh8s-QRITmSGeLYPmfp-Nk-E-A0nBlMB9Abqwi3awfbZhirwqOhal5-DuZvwKELz9fHKs_ama29WNheArG9dOGwjFbcblRknSCclX-DAAhnW5mwj7L2LE_OcCbX9DhBOUUiLrJdAj6DUuGUKiQJuhhPzypmZVGOx1D-XlWya17omMXCG7hsCcHHSRBBGlSCmAaMXkOyyHTpdYBaUyvuWFE4ZcShbSmhUc0FNJtzGHzsWsljCHF7R-TZ6dtA2Vk5xZlCEwMUuaWhjcR2rUAoTSTRdrjhQhFNWjLFAskabwCxy4_mQRIDcxzIl4LX9_HTQU0tW7NnP9hRacFOF_KvwWtnByasujaZRskHsdI-igsO6ljNQ-g_jIry-7ga0p4-ffggMVt9SNl_S-r7ieXKA_-ln9ePzJkejyRka67RujLwmMYyovmaQ3GIfSLgxylEK3rzm1VS7TeCnbqYx_mJMmN6xN-ltkVgbtj4_7VJgQ1w-Zyo2YOt9-CGn7mPZIKnf6b2wkIwCB7Dmo8-poEm00]--></g></svg>