<svg xmlns="http://www.w3.org/2000/svg" xmlns:xlink="http://www.w3.org/1999/xlink" contentStyleType="text/css" height="357px" preserveAspectRatio="none" style="width:414px;height:357px;background:#FFFFFF;" version="1.1" viewBox="0 0 414 357" width="414px" zoomAndPan="magnify"><defs/><g><!--class com.monacoevents.eventbooking.repository.CategoryRepository--><a href="..\..\..\..\..\..\target\reports\apidocs\com\monacoevents\eventbooking\repository\CategoryRepository.html" target="_top" title="..\..\..\..\..\..\target\reports\apidocs\com\monacoevents\eventbooking\repository\CategoryRepository.html" xlink:actuate="onRequest" xlink:href="..\..\..\..\..\..\target\reports\apidocs\com\monacoevents\eventbooking\repository\CategoryRepository.html" xlink:show="new" xlink:title="..\..\..\..\..\..\target\reports\apidocs\com\monacoevents\eventbooking\repository\CategoryRepository.html" xlink:type="simple"><g id="elem_com.monacoevents.eventbooking.repository.CategoryRepository"><rect codeLine="13" fill="#F1F1F1" height="40.1875" id="com.monacoevents.eventbooking.repository.CategoryRepository" rx="2.5" ry="2.5" style="stroke:#181818;stroke-width:0.5;" width="227.6641" x="91" y="290"/><ellipse cx="106" cy="310.0938" fill="#B4A7E5" rx="11" ry="11" style="stroke:#181818;stroke-width:1.0;"/><path d="M106.9531,306.7344 L106.9531,313.3906 L108.6719,313.3906 Q109.2813,313.3906 109.5469,313.625 Q109.8125,313.8594 109.8125,314.25 Q109.8125,314.625 109.5469,314.8594 Q109.2813,315.0938 108.6719,315.0938 L103.5313,315.0938 Q102.9219,315.0938 102.6563,314.8594 Q102.3906,314.625 102.3906,314.2344 Q102.3906,313.8594 102.6563,313.625 Q102.9219,313.3906 103.5313,313.3906 L105.25,313.3906 L105.25,306.7344 L103.5313,306.7344 Q102.9219,306.7344 102.6563,306.5 Q102.3906,306.2656 102.3906,305.875 Q102.3906,305.5 102.6563,305.2656 Q102.9219,305.0313 103.5313,305.0313 L108.6719,305.0313 Q109.2813,305.0313 109.5469,305.2656 Q109.8125,305.5 109.8125,305.875 Q109.8125,306.2656 109.5469,306.5 Q109.2813,306.7344 108.6719,306.7344 L106.9531,306.7344 Z " fill="#000000"/><text fill="#000000" font-family="sans-serif" font-size="14" font-style="italic" lengthAdjust="spacing" textLength="123.7236" x="155.9702" y="309.5332">CategoryRepository</text><text fill="#000000" font-family="sans-serif" font-size="10" font-style="italic" lengthAdjust="spacing" textLength="195.6641" x="120" y="322.9902">com.monacoevents.eventbooking.repository</text></g></a><!--class org.springframework.data.jpa.repository.JpaRepository--><g id="elem_org.springframework.data.jpa.repository.JpaRepository"><rect codeLine="15" fill="#F1F1F1" height="241.8906" id="org.springframework.data.jpa.repository.JpaRepository" rx="2.5" ry="2.5" style="stroke:#181818;stroke-width:0.5;" width="397.9707" x="6" y="12"/><ellipse cx="69.6123" cy="32.0938" fill="#B4A7E5" rx="11" ry="11" style="stroke:#181818;stroke-width:1.0;"/><path d="M70.5654,28.7344 L70.5654,35.3906 L72.2842,35.3906 Q72.8936,35.3906 73.1592,35.625 Q73.4248,35.8594 73.4248,36.25 Q73.4248,36.625 73.1592,36.8594 Q72.8936,37.0938 72.2842,37.0938 L67.1436,37.0938 Q66.5342,37.0938 66.2686,36.8594 Q66.0029,36.625 66.0029,36.2344 Q66.0029,35.8594 66.2686,35.625 Q66.5342,35.3906 67.1436,35.3906 L68.8623,35.3906 L68.8623,28.7344 L67.1436,28.7344 Q66.5342,28.7344 66.2686,28.5 Q66.0029,28.2656 66.0029,27.875 Q66.0029,27.5 66.2686,27.2656 Q66.5342,27.0313 67.1436,27.0313 L72.2842,27.0313 Q72.8936,27.0313 73.1592,27.2656 Q73.4248,27.5 73.4248,27.875 Q73.4248,28.2656 73.1592,28.5 Q72.8936,28.7344 72.2842,28.7344 L70.5654,28.7344 Z " fill="#000000"/><text fill="#000000" font-family="sans-serif" font-size="14" font-style="italic" lengthAdjust="spacing" textLength="89.4893" x="133.4634" y="31.5332">JpaRepository</text><text fill="#000000" font-family="sans-serif" font-size="10" font-style="italic" lengthAdjust="spacing" textLength="176.1914" x="90.1123" y="44.9902">org.springframework.data.jpa.repository</text><rect fill="#FFFFFF" height="17.0938" style="stroke:#181818;stroke-width:1.0;stroke-dasharray:2.0,2.0;" width="84.0547" x="322.916" y="9"/><text fill="#000000" font-family="sans-serif" font-size="12" font-style="italic" lengthAdjust="spacing" textLength="82.0547" x="323.916" y="22.457">Category, Long</text><line style="stroke:#181818;stroke-width:0.5;" x1="7" x2="402.9707" y1="52.1875" y2="52.1875"/><ellipse cx="17" cy="66.4922" fill="#84BE84" rx="3" ry="3" style="stroke:#038048;stroke-width:1.0;"/><text fill="#000000" font-family="sans-serif" font-size="14" font-style="italic" lengthAdjust="spacing" textLength="72.3584" x="26" y="70.7207">flush(): void</text><ellipse cx="17" cy="84.1016" fill="#84BE84" rx="3" ry="3" style="stroke:#038048;stroke-width:1.0;"/><text fill="#000000" font-family="sans-serif" font-size="14" font-style="italic" lengthAdjust="spacing" textLength="255.2266" x="26" y="88.3301">saveAndFlush(S extends T): S extends T</text><ellipse cx="17" cy="101.7109" fill="#84BE84" rx="3" ry="3" style="stroke:#038048;stroke-width:1.0;"/><text fill="#000000" font-family="sans-serif" font-size="14" font-style="italic" lengthAdjust="spacing" textLength="371.9707" x="26" y="105.9395">saveAllAndFlush(Iterable&lt;S extends T&gt;): List&lt;S extends T&gt;</text><ellipse cx="17" cy="119.3203" fill="#84BE84" rx="3" ry="3" style="stroke:#038048;stroke-width:1.0;"/><text fill="#000000" font-family="sans-serif" font-size="14" font-style="italic" lengthAdjust="spacing" textLength="215.5645" x="26" y="123.5488">deleteAllInBatch(Iterable&lt;T&gt;): void</text><ellipse cx="17" cy="136.9297" fill="#84BE84" rx="3" ry="3" style="stroke:#038048;stroke-width:1.0;"/><text fill="#000000" font-family="sans-serif" font-size="14" font-style="italic" lengthAdjust="spacing" textLength="249.0264" x="26" y="141.1582">deleteAllByIdInBatch(Iterable&lt;ID&gt;): void</text><ellipse cx="17" cy="154.5391" fill="#84BE84" rx="3" ry="3" style="stroke:#038048;stroke-width:1.0;"/><text fill="#000000" font-family="sans-serif" font-size="14" font-style="italic" lengthAdjust="spacing" textLength="143.9648" x="26" y="158.7676">deleteAllInBatch(): void</text><ellipse cx="17" cy="172.1484" fill="#84BE84" rx="3" ry="3" style="stroke:#038048;stroke-width:1.0;"/><text fill="#000000" font-family="sans-serif" font-size="14" font-style="italic" lengthAdjust="spacing" text-decoration="line-through" textLength="45.9238" x="26" y="176.377">getOne</text><text fill="#000000" font-family="sans-serif" font-size="14" font-style="italic" lengthAdjust="spacing" textLength="105.0547" x="71.9238" y="176.377">(Long): Category</text><ellipse cx="17" cy="189.7578" fill="#84BE84" rx="3" ry="3" style="stroke:#038048;stroke-width:1.0;"/><text fill="#000000" font-family="sans-serif" font-size="14" font-style="italic" lengthAdjust="spacing" text-decoration="line-through" textLength="47.4756" x="26" y="193.9863">getById</text><text fill="#000000" font-family="sans-serif" font-size="14" font-style="italic" lengthAdjust="spacing" textLength="105.0547" x="73.4756" y="193.9863">(Long): Category</text><ellipse cx="17" cy="207.3672" fill="#84BE84" rx="3" ry="3" style="stroke:#038048;stroke-width:1.0;"/><text fill="#000000" font-family="sans-serif" font-size="14" font-style="italic" lengthAdjust="spacing" textLength="217.123" x="26" y="211.5957">getReferenceById(Long): Category</text><ellipse cx="17" cy="224.9766" fill="#84BE84" rx="3" ry="3" style="stroke:#038048;stroke-width:1.0;"/><text fill="#000000" font-family="sans-serif" font-size="14" font-style="italic" lengthAdjust="spacing" textLength="313.5986" x="26" y="229.2051">findAll(Example&lt;S extends T&gt;): List&lt;S extends T&gt;</text><ellipse cx="17" cy="242.5859" fill="#84BE84" rx="3" ry="3" style="stroke:#038048;stroke-width:1.0;"/><text fill="#000000" font-family="sans-serif" font-size="14" font-style="italic" lengthAdjust="spacing" textLength="347.0537" x="26" y="246.8145">findAll(Example&lt;S extends T&gt;, Sort): List&lt;S extends T&gt;</text></g><polygon fill="none" points="205,254.1091,199,272.1091,211,272.1091,205,254.1091" style="stroke:#181818;stroke-width:1.0;"/><path d="M205,272.1091 C205,285.7077 205,280.0801 205,289.6217 " fill="none" style="stroke:#181818;stroke-width:1.0;"/><text fill="#888888" font-family="sans-serif" font-size="10" lengthAdjust="spacing" textLength="2.7783" x="200.1108" y="334.3809">&#160;</text><a href="https://github.com/talsma-ict/umldoclet" target="_top" title="https://github.com/talsma-ict/umldoclet" xlink:actuate="onRequest" xlink:href="https://github.com/talsma-ict/umldoclet" xlink:show="new" xlink:title="https://github.com/talsma-ict/umldoclet" xlink:type="simple"><text fill="#888888" font-family="sans-serif" font-size="10" lengthAdjust="spacing" textLength="74.4775" x="164.2612" y="346.959">UMLDoclet 2.2.1</text></a><!--SRC=[fLNTRzCm47_dhpZ60vssk6dP1bJLfD4Dw5G4sifJiuThSatC4ZlOJY6C_UzSqgxBFZfL8ueKsRxVnvrZ7m30QnZel3GoJXmu3IwH5hv_6G6g269IPD1H13B3c2nCATKgjej00YnSeWteMJqAjJ5aSwqYgM8unJc2rOK9oOeNBw2M6j-m_qBRO9-MrUIn3bDoq1fiDonr_Sw1r_Mx1p36r6O8my5OBDbkCLtH5HrWxbI6f2nJ5YeYKziwoZ7apsYniWjpCbPgnHX_oLEb6chbK2eBEHfdgvI-fQXSvRKZM7zFl8NMqVdehZV_VUrj5uwCmYA2C_spMANxCZSOi-CKIrqui1avLBXOisnQOSRbmf3EYKNHSIMLLbIl9p8Ye2nt9SmafP6zFyjaYURfUbugHsR6JB3Lj_8FzJfxXmEkRAnDUKQvjfB9oq0j5_t3K6SYqmf3JNDIpehwCzNwahTEc1La2tYVDWqM3oLXCX4YkFSwD36ve09ogGFCPQH36x1Cq9G9cZB1hKpmK4OaBailBjONupJ7H-kWJIniRbXWPdWtVcbpAI9qA7xaUByC6yQAErhz6xExCEAJSmXNjSVgkSAfTGP3TmqxixImIMkx1tCjeqSZBCxfI4KVwy1peD-EL6HXp9Z6Q3qqJLVe8TS7fodr6y13vXb9w-xCFSeM4H-uYc-eFg0B6tGroTe4LhWFvJ1wW1qURmQ-0JuLx7dyUtrLv7cjgkOSUhC9wyChKnl6S_GPpSYG2gc2RGIQIHMn_TR9RypovvR-AP9TEEVJj9RgUd4sdlKFG_-lv_tFBR3GxbjNfdIRsKnhtlt6WQYUpsLEPYJLvK2dV1- -UlVuwlVgTa-b8cueuQKYQy5VHLulvDeDlQLMe2QJnBdSzjhjMBgac0fEg-tgpkB9qBMBB8qMBULUS-7RPT4iFgswLdNpU_vRppyOT_nUvqslio_sz_szzmVlV7_7x_PyVt9I69rJ-niQQI_-0G00]--></g></svg>