<svg xmlns="http://www.w3.org/2000/svg" xmlns:xlink="http://www.w3.org/1999/xlink" contentStyleType="text/css" height="357px" preserveAspectRatio="none" style="width:414px;height:357px;background:#FFFFFF;" version="1.1" viewBox="0 0 414 357" width="414px" zoomAndPan="magnify"><defs/><g><!--class com.monacoevents.eventbooking.repository.EventRepository--><a href="..\..\..\..\..\..\target\reports\apidocs\com\monacoevents\eventbooking\repository\EventRepository.html" target="_top" title="..\..\..\..\..\..\target\reports\apidocs\com\monacoevents\eventbooking\repository\EventRepository.html" xlink:actuate="onRequest" xlink:href="..\..\..\..\..\..\target\reports\apidocs\com\monacoevents\eventbooking\repository\EventRepository.html" xlink:show="new" xlink:title="..\..\..\..\..\..\target\reports\apidocs\com\monacoevents\eventbooking\repository\EventRepository.html" xlink:type="simple"><g id="elem_com.monacoevents.eventbooking.repository.EventRepository"><rect codeLine="13" fill="#F1F1F1" height="40.1875" id="com.monacoevents.eventbooking.repository.EventRepository" rx="2.5" ry="2.5" style="stroke:#181818;stroke-width:0.5;" width="227.6641" x="91" y="290"/><ellipse cx="106" cy="310.0938" fill="#B4A7E5" rx="11" ry="11" style="stroke:#181818;stroke-width:1.0;"/><path d="M106.9531,306.7344 L106.9531,313.3906 L108.6719,313.3906 Q109.2813,313.3906 109.5469,313.625 Q109.8125,313.8594 109.8125,314.25 Q109.8125,314.625 109.5469,314.8594 Q109.2813,315.0938 108.6719,315.0938 L103.5313,315.0938 Q102.9219,315.0938 102.6563,314.8594 Q102.3906,314.625 102.3906,314.2344 Q102.3906,313.8594 102.6563,313.625 Q102.9219,313.3906 103.5313,313.3906 L105.25,313.3906 L105.25,306.7344 L103.5313,306.7344 Q102.9219,306.7344 102.6563,306.5 Q102.3906,306.2656 102.3906,305.875 Q102.3906,305.5 102.6563,305.2656 Q102.9219,305.0313 103.5313,305.0313 L108.6719,305.0313 Q109.2813,305.0313 109.5469,305.2656 Q109.8125,305.5 109.8125,305.875 Q109.8125,306.2656 109.5469,306.5 Q109.2813,306.7344 108.6719,306.7344 L106.9531,306.7344 Z " fill="#000000"/><text fill="#000000" font-family="sans-serif" font-size="14" font-style="italic" lengthAdjust="spacing" textLength="102.7168" x="166.4736" y="309.5332">EventRepository</text><text fill="#000000" font-family="sans-serif" font-size="10" font-style="italic" lengthAdjust="spacing" textLength="195.6641" x="120" y="322.9902">com.monacoevents.eventbooking.repository</text></g></a><!--class org.springframework.data.jpa.repository.JpaRepository--><g id="elem_org.springframework.data.jpa.repository.JpaRepository"><rect codeLine="15" fill="#F1F1F1" height="241.8906" id="org.springframework.data.jpa.repository.JpaRepository" rx="2.5" ry="2.5" style="stroke:#181818;stroke-width:0.5;" width="397.9707" x="6" y="12"/><ellipse cx="78.6152" cy="32.0938" fill="#B4A7E5" rx="11" ry="11" style="stroke:#181818;stroke-width:1.0;"/><path d="M79.5684,28.7344 L79.5684,35.3906 L81.2871,35.3906 Q81.8965,35.3906 82.1621,35.625 Q82.4277,35.8594 82.4277,36.25 Q82.4277,36.625 82.1621,36.8594 Q81.8965,37.0938 81.2871,37.0938 L76.1465,37.0938 Q75.5371,37.0938 75.2715,36.8594 Q75.0059,36.625 75.0059,36.2344 Q75.0059,35.8594 75.2715,35.625 Q75.5371,35.3906 76.1465,35.3906 L77.8652,35.3906 L77.8652,28.7344 L76.1465,28.7344 Q75.5371,28.7344 75.2715,28.5 Q75.0059,28.2656 75.0059,27.875 Q75.0059,27.5 75.2715,27.2656 Q75.5371,27.0313 76.1465,27.0313 L81.2871,27.0313 Q81.8965,27.0313 82.1621,27.2656 Q82.4277,27.5 82.4277,27.875 Q82.4277,28.2656 82.1621,28.5 Q81.8965,28.7344 81.2871,28.7344 L79.5684,28.7344 Z " fill="#000000"/><text fill="#000000" font-family="sans-serif" font-size="14" font-style="italic" lengthAdjust="spacing" textLength="89.4893" x="142.4663" y="31.5332">JpaRepository</text><text fill="#000000" font-family="sans-serif" font-size="10" font-style="italic" lengthAdjust="spacing" textLength="176.1914" x="99.1152" y="44.9902">org.springframework.data.jpa.repository</text><rect fill="#FFFFFF" height="17.0938" style="stroke:#181818;stroke-width:1.0;stroke-dasharray:2.0,2.0;" width="66.0488" x="340.9219" y="9"/><text fill="#000000" font-family="sans-serif" font-size="12" font-style="italic" lengthAdjust="spacing" textLength="64.0488" x="341.9219" y="22.457">Event, Long</text><line style="stroke:#181818;stroke-width:0.5;" x1="7" x2="402.9707" y1="52.1875" y2="52.1875"/><ellipse cx="17" cy="66.4922" fill="#84BE84" rx="3" ry="3" style="stroke:#038048;stroke-width:1.0;"/><text fill="#000000" font-family="sans-serif" font-size="14" font-style="italic" lengthAdjust="spacing" textLength="72.3584" x="26" y="70.7207">flush(): void</text><ellipse cx="17" cy="84.1016" fill="#84BE84" rx="3" ry="3" style="stroke:#038048;stroke-width:1.0;"/><text fill="#000000" font-family="sans-serif" font-size="14" font-style="italic" lengthAdjust="spacing" textLength="255.2266" x="26" y="88.3301">saveAndFlush(S extends T): S extends T</text><ellipse cx="17" cy="101.7109" fill="#84BE84" rx="3" ry="3" style="stroke:#038048;stroke-width:1.0;"/><text fill="#000000" font-family="sans-serif" font-size="14" font-style="italic" lengthAdjust="spacing" textLength="371.9707" x="26" y="105.9395">saveAllAndFlush(Iterable&lt;S extends T&gt;): List&lt;S extends T&gt;</text><ellipse cx="17" cy="119.3203" fill="#84BE84" rx="3" ry="3" style="stroke:#038048;stroke-width:1.0;"/><text fill="#000000" font-family="sans-serif" font-size="14" font-style="italic" lengthAdjust="spacing" textLength="215.5645" x="26" y="123.5488">deleteAllInBatch(Iterable&lt;T&gt;): void</text><ellipse cx="17" cy="136.9297" fill="#84BE84" rx="3" ry="3" style="stroke:#038048;stroke-width:1.0;"/><text fill="#000000" font-family="sans-serif" font-size="14" font-style="italic" lengthAdjust="spacing" textLength="249.0264" x="26" y="141.1582">deleteAllByIdInBatch(Iterable&lt;ID&gt;): void</text><ellipse cx="17" cy="154.5391" fill="#84BE84" rx="3" ry="3" style="stroke:#038048;stroke-width:1.0;"/><text fill="#000000" font-family="sans-serif" font-size="14" font-style="italic" lengthAdjust="spacing" textLength="143.9648" x="26" y="158.7676">deleteAllInBatch(): void</text><ellipse cx="17" cy="172.1484" fill="#84BE84" rx="3" ry="3" style="stroke:#038048;stroke-width:1.0;"/><text fill="#000000" font-family="sans-serif" font-size="14" font-style="italic" lengthAdjust="spacing" text-decoration="line-through" textLength="45.9238" x="26" y="176.377">getOne</text><text fill="#000000" font-family="sans-serif" font-size="14" font-style="italic" lengthAdjust="spacing" textLength="84.0479" x="71.9238" y="176.377">(Long): Event</text><ellipse cx="17" cy="189.7578" fill="#84BE84" rx="3" ry="3" style="stroke:#038048;stroke-width:1.0;"/><text fill="#000000" font-family="sans-serif" font-size="14" font-style="italic" lengthAdjust="spacing" text-decoration="line-through" textLength="47.4756" x="26" y="193.9863">getById</text><text fill="#000000" font-family="sans-serif" font-size="14" font-style="italic" lengthAdjust="spacing" textLength="84.0479" x="73.4756" y="193.9863">(Long): Event</text><ellipse cx="17" cy="207.3672" fill="#84BE84" rx="3" ry="3" style="stroke:#038048;stroke-width:1.0;"/><text fill="#000000" font-family="sans-serif" font-size="14" font-style="italic" lengthAdjust="spacing" textLength="196.1162" x="26" y="211.5957">getReferenceById(Long): Event</text><ellipse cx="17" cy="224.9766" fill="#84BE84" rx="3" ry="3" style="stroke:#038048;stroke-width:1.0;"/><text fill="#000000" font-family="sans-serif" font-size="14" font-style="italic" lengthAdjust="spacing" textLength="313.5986" x="26" y="229.2051">findAll(Example&lt;S extends T&gt;): List&lt;S extends T&gt;</text><ellipse cx="17" cy="242.5859" fill="#84BE84" rx="3" ry="3" style="stroke:#038048;stroke-width:1.0;"/><text fill="#000000" font-family="sans-serif" font-size="14" font-style="italic" lengthAdjust="spacing" textLength="347.0537" x="26" y="246.8145">findAll(Example&lt;S extends T&gt;, Sort): List&lt;S extends T&gt;</text></g><polygon fill="none" points="205,254.1091,199,272.1091,211,272.1091,205,254.1091" style="stroke:#181818;stroke-width:1.0;"/><path d="M205,272.1091 C205,285.7077 205,280.0801 205,289.6217 " fill="none" style="stroke:#181818;stroke-width:1.0;"/><text fill="#888888" font-family="sans-serif" font-size="10" lengthAdjust="spacing" textLength="2.7783" x="200.1108" y="334.3809">&#160;</text><a href="https://github.com/talsma-ict/umldoclet" target="_top" title="https://github.com/talsma-ict/umldoclet" xlink:actuate="onRequest" xlink:href="https://github.com/talsma-ict/umldoclet" xlink:show="new" xlink:title="https://github.com/talsma-ict/umldoclet" xlink:type="simple"><text fill="#888888" font-family="sans-serif" font-size="10" lengthAdjust="spacing" textLength="74.4775" x="164.2612" y="346.959">UMLDoclet 2.2.1</text></a><!--SRC=[dLNTJzim47_dhxYnXnL1tBJZOwig9Bws5NKQWlBKy71Dheb7OcUsK-WO__ikAPJGKLOHLQfY_pxkpZaV0C07EDBvrCWuSU0qk4HQkFpU1rGHnAJ8eAC8P8OnMHXHgbLiPq02B5oY3UXnzHPgOyZcMaLInN2A4mIh2nEI5MjhK5aD7jLlqDRKHzDoyLY7AJbe76tKGchxhLslxRTtOO2fpH1wHmFneFR4QOksQ05hfp8aPLcoK16PAgo374F-wyzsjc12nagjcEC_w9IfXbevbCf2ZiRPCgMp59KhOsq9zjyMUz0ukEW_Zyt_NCMs1GT6OH71kVvLpDDzbnkCEU8KfxfmO3Dog72sPpbeXHcN2qEw83P5nvLKMb6rdyY8WBBSJM4iAOtiuYgB9PgNgtMf79anAy5wryhVr6bjxvzCIBbpohMLh3mDrCEEln_gJ6HQOQYfn5XH_OsqlkPp4sPEMGS-f5N1Oi4FXaCXWeMVGnEJ2qeM5pd0N4Owj05x17MFeEuHF7a42nuYSLbwTRMy1gSvlbW1RM9XSyFgOyE7SAFDjOZGeVYPus81LiIAPrxTAj8jw7EtxCDT5M3vtE78EeEXkuVDSLhOfB7HWOcMqOi8YnCwKD6N2dW1TEj8HHO6pAczBQUcwPpTu-BWAALkZRZFEdrftREr5zKYuYOhzNhg45rOawj4bYOmvnrEUz4_tDxnQkH7ucjWp-CFwuSYpskKDMTeTGBBiML4gu0PUavZCgH2AZd_PuobYZZgniajPlbRA_wQo1PSSFiibRgVzSERlble_l6yD_VypBXhtJIbfxJ6MlE9rvgWVBvDSp9zgQwFTChttljFB-zUbhTuAXNnu0Yl5LaB_XnvFxDhrlmUl08r72REvRRJRCRI9SL8S4vDLqqGJuQkMMHfD1iT2qE4hvFPKFWwdqxb3U_vUvw_EsZvdTR7Jcj7xEpvkpjxExw_wRSxlZyyAOpEgNc6Hjghlm00]--></g></svg>