<svg xmlns="http://www.w3.org/2000/svg" xmlns:xlink="http://www.w3.org/1999/xlink" contentStyleType="text/css" height="100%" preserveAspectRatio="none" style="width:100%;height:100%;background:#FFFFFF;" version="1.1" viewBox="0 0 338 250" width="100%" zoomAndPan="magnify"><defs/><g><!--cluster com.monacoevents.eventbooking.repository--><g id="cluster_com.monacoevents.eventbooking.repository"><path d="M10,6 L280.9937,6 A6,6 0 0 1 284.9937,10 L291.9937,29.291 L327,29.291 A4,4 0 0 1 331,33.291 L331,206 A4,4 0 0 1 327,210 L10,210 A4,4 0 0 1 6,206 L6,10 A4,4 0 0 1 10,6 " fill="#FBFBFD" style="stroke:#B8C4D0;stroke-width:1.5;"/><line style="stroke:#B8C4D0;stroke-width:1.5;" x1="6" x2="291.9937" y1="29.291" y2="29.291"/><text fill="#33475B" font-family="Segoe UI" font-size="13" font-weight="bold" lengthAdjust="spacing" textLength="272.9937" x="10" y="22.0283">com.monacoevents.eventbooking.repository</text></g><!--class CategoryRepository--><a href="file:/C:/Users/loris/Documents/Programming/Github/event-booking-api/target/reports/apidocs/com/monacoevents/eventbooking/repository/CategoryRepository.html" target="_top" title="file:/C:/Users/loris/Documents/Programming/Github/event-booking-api/target/reports/apidocs/com/monacoevents/eventbooking/repository/CategoryRepository.html" xlink:actuate="onRequest" xlink:href="file:/C:/Users/loris/Documents/Programming/Github/event-booking-api/target/reports/apidocs/com/monacoevents/eventbooking/repository/CategoryRepository.html" xlink:show="new" xlink:title="file:/C:/Users/loris/Documents/Programming/Github/event-booking-api/target/reports/apidocs/com/monacoevents/eventbooking/repository/CategoryRepository.html" xlink:type="simple"><g id="elem_CategoryRepository"><rect codeLine="25" fill="#F4F8FB" height="46" id="CategoryRepository" rx="4" ry="4" style="stroke:#2C6E8C;stroke-width:0.5;" width="139.2559" x="22.37" y="42"/><ellipse cx="36.37" cy="57" fill="#B4A7E5" rx="10" ry="10" style="stroke:#181818;stroke-width:1.0;"/><path d="M36.9169,54.6094 L36.9169,59.7031 L38.2294,59.7031 Q38.6981,59.7031 38.9013,59.8906 Q39.1044,60.0625 39.1044,60.3594 Q39.1044,60.6406 38.9013,60.8281 Q38.6981,61 38.2294,61 L34.3075,61 Q33.8388,61 33.6356,60.8281 Q33.4325,60.6406 33.4325,60.3438 Q33.4325,60.0625 33.6356,59.8906 Q33.8388,59.7031 34.3075,59.7031 L35.62,59.7031 L35.62,54.6094 L34.3075,54.6094 Q33.8388,54.6094 33.6356,54.4375 Q33.4325,54.25 33.4325,53.9531 Q33.4325,53.6563 33.6356,53.4844 Q33.8388,53.2969 34.3075,53.2969 L38.2294,53.3125 Q38.6981,53.3125 38.9013,53.4844 Q39.1044,53.6563 39.1044,53.9531 Q39.1044,54.25 38.9013,54.4375 Q38.6981,54.6094 38.2294,54.6094 L36.9169,54.6094 Z " fill="#000000"/><text fill="#14324A" font-family="Segoe UI" font-size="13" font-style="italic" lengthAdjust="spacing" textLength="109.2559" x="49.37" y="62.3828">CategoryRepository</text><line style="stroke:#2C6E8C;stroke-width:0.5;" x1="23.37" x2="160.6259" y1="72" y2="72"/><line style="stroke:#2C6E8C;stroke-width:0.5;" x1="23.37" x2="160.6259" y1="80" y2="80"/></g></a><!--class EventRepository--><a href="file:/C:/Users/loris/Documents/Programming/Github/event-booking-api/target/reports/apidocs/com/monacoevents/eventbooking/repository/EventRepository.html" target="_top" title="file:/C:/Users/loris/Documents/Programming/Github/event-booking-api/target/reports/apidocs/com/monacoevents/eventbooking/repository/EventRepository.html" xlink:actuate="onRequest" xlink:href="file:/C:/Users/loris/Documents/Programming/Github/event-booking-api/target/reports/apidocs/com/monacoevents/eventbooking/repository/EventRepository.html" xlink:show="new" xlink:title="file:/C:/Users/loris/Documents/Programming/Github/event-booking-api/target/reports/apidocs/com/monacoevents/eventbooking/repository/EventRepository.html" xlink:type="simple"><g id="elem_EventRepository"><rect codeLine="27" fill="#F4F8FB" height="46" id="EventRepository" rx="4" ry="4" style="stroke:#2C6E8C;stroke-width:0.5;" width="118.937" x="196.53" y="42"/><ellipse cx="210.53" cy="57" fill="#B4A7E5" rx="10" ry="10" style="stroke:#181818;stroke-width:1.0;"/><path d="M211.0769,54.6094 L211.0769,59.7031 L212.3894,59.7031 Q212.8581,59.7031 213.0613,59.8906 Q213.2644,60.0625 213.2644,60.3594 Q213.2644,60.6406 213.0613,60.8281 Q212.8581,61 212.3894,61 L208.4675,61 Q207.9988,61 207.7956,60.8281 Q207.5925,60.6406 207.5925,60.3438 Q207.5925,60.0625 207.7956,59.8906 Q207.9988,59.7031 208.4675,59.7031 L209.78,59.7031 L209.78,54.6094 L208.4675,54.6094 Q207.9988,54.6094 207.7956,54.4375 Q207.5925,54.25 207.5925,53.9531 Q207.5925,53.6563 207.7956,53.4844 Q207.9988,53.2969 208.4675,53.2969 L212.3894,53.3125 Q212.8581,53.3125 213.0613,53.4844 Q213.2644,53.6563 213.2644,53.9531 Q213.2644,54.25 213.0613,54.4375 Q212.8581,54.6094 212.3894,54.6094 L211.0769,54.6094 Z " fill="#000000"/><text fill="#14324A" font-family="Segoe UI" font-size="13" font-style="italic" lengthAdjust="spacing" textLength="88.937" x="223.53" y="62.3828">EventRepository</text><line style="stroke:#2C6E8C;stroke-width:0.5;" x1="197.53" x2="314.467" y1="72" y2="72"/><line style="stroke:#2C6E8C;stroke-width:0.5;" x1="197.53" x2="314.467" y1="80" y2="80"/></g></a><!--class VenueRepository--><a href="file:/C:/Users/loris/Documents/Programming/Github/event-booking-api/target/reports/apidocs/com/monacoevents/eventbooking/repository/VenueRepository.html" target="_top" title="file:/C:/Users/loris/Documents/Programming/Github/event-booking-api/target/reports/apidocs/com/monacoevents/eventbooking/repository/VenueRepository.html" xlink:actuate="onRequest" xlink:href="file:/C:/Users/loris/Documents/Programming/Github/event-booking-api/target/reports/apidocs/com/monacoevents/eventbooking/repository/VenueRepository.html" xlink:show="new" xlink:title="file:/C:/Users/loris/Documents/Programming/Github/event-booking-api/target/reports/apidocs/com/monacoevents/eventbooking/repository/VenueRepository.html" xlink:type="simple"><g id="elem_VenueRepository"><rect codeLine="29" fill="#F4F8FB" height="46" id="VenueRepository" rx="4" ry="4" style="stroke:#2C6E8C;stroke-width:0.5;" width="123.8438" x="30.08" y="148"/><ellipse cx="44.08" cy="163" fill="#B4A7E5" rx="10" ry="10" style="stroke:#181818;stroke-width:1.0;"/><path d="M44.6269,160.6094 L44.6269,165.7031 L45.9394,165.7031 Q46.4081,165.7031 46.6113,165.8906 Q46.8144,166.0625 46.8144,166.3594 Q46.8144,166.6406 46.6113,166.8281 Q46.4081,167 45.9394,167 L42.0175,167 Q41.5488,167 41.3456,166.8281 Q41.1425,166.6406 41.1425,166.3438 Q41.1425,166.0625 41.3456,165.8906 Q41.5488,165.7031 42.0175,165.7031 L43.33,165.7031 L43.33,160.6094 L42.0175,160.6094 Q41.5488,160.6094 41.3456,160.4375 Q41.1425,160.25 41.1425,159.9531 Q41.1425,159.6563 41.3456,159.4844 Q41.5488,159.2969 42.0175,159.2969 L45.9394,159.3125 Q46.4081,159.3125 46.6113,159.4844 Q46.8144,159.6563 46.8144,159.9531 Q46.8144,160.25 46.6113,160.4375 Q46.4081,160.6094 45.9394,160.6094 L44.6269,160.6094 Z " fill="#000000"/><text fill="#14324A" font-family="Segoe UI" font-size="13" font-style="italic" lengthAdjust="spacing" textLength="93.8438" x="57.08" y="168.3828">VenueRepository</text><line style="stroke:#2C6E8C;stroke-width:0.5;" x1="31.08" x2="152.9237" y1="178" y2="178"/><line style="stroke:#2C6E8C;stroke-width:0.5;" x1="31.08" x2="152.9237" y1="186" y2="186"/></g></a><text fill="#888888" font-family="Segoe UI" font-size="10" lengthAdjust="spacing" textLength="2.7588" x="160.6206" y="226.791">&#160;</text><a href="https://github.com/talsma-ict/umldoclet" target="_top" title="https://github.com/talsma-ict/umldoclet" xlink:actuate="onRequest" xlink:href="https://github.com/talsma-ict/umldoclet" xlink:show="new" xlink:title="https://github.com/talsma-ict/umldoclet" xlink:type="simple"><text fill="#888888" font-family="Segoe UI" font-size="10" lengthAdjust="spacing" textLength="77.7783" x="123.1108" y="240.0918">UMLDoclet 2.2.1</text></a><!--SRC=[pLN1Jjj04Btp5LFrKAeIh-EO4AogKZ09fKeh14alAOUDFN5MiNVTtJKehVZtZcCt61FQAyvX5U-RUU_Dpeu10Dv1gFAD5idAWbLWLyB0xEi4k8mXGOcQMun1P3n10mjCbKnC1KJWXLqf3Mgv_HSfhT7aIiP29l25tt4mgj0H6kVW0BPKqx_PxxbfP5ziofVdAahHmc7ulY79SxlzZkTwVPZor6GSBiEfKsTxZF4Sp-a2vKv5XD9GoaB6gBUoXZcFQ9bKEqTmXze89Id6hVEKLYCbBHVIGCwrDQMbgvHBMshjEiJlEoTmEBoPFDNcdcwr7S5GIrx4SAr-5ZkxPYqaPUCPc1MFrNrPbIMPmDQkLYGsL9gg0OFMNenBNgHsJEg-yGpX1XE5CBjy6NOZVY5qUor0b79ZpdYqJcgsbCxjxTWV3yPdUw5AK_rgc1VsHuDm7soejRh_BwgKLOEwVi_pXosGa1RraaVuJE1eEEwFtHVXJqIEJaVzDZqT_PeQzxdnC_gTlm1kPZqRXFwvkn_OiDNh-IV7LI7Vv9edrASftwZ2Ggni5KrTQh2CjnGG15MBr9ce-p8dKv972kzGMkDibuLIn9au6dDb1CLju7SLLpwxCa18boYXtUj7t7o-52a6B0pOp533Cv8f3AFhKcGb0RlIAY4l6ULd5yAkYWNRSdPgqWxF1RDS9sXPoK-NWj6hM4M6aLhMLCkQQjcZMlPScBEoMNfxky_5g4powYoqLFr3_tUK1Ruw_IrLJ_G_LCj7OpSfVjfPMYf5dgZLeF5ytkIe9qAkwuuVxD-TbMCt5H9fqaThYSQ0kqC-L7IimLTp_P3p-ShQt0IC9TjIEAL3kntv7H5PLcHfNCtwrjGdCzKKlzXzJigHt75FEcv_slK3_pYWwJtmZZtVxRdk1zSBN7S-AhJAaLrnEfFRFm00]--></g></svg>