<svg xmlns="http://www.w3.org/2000/svg" xmlns:xlink="http://www.w3.org/1999/xlink" contentStyleType="text/css" height="426px" preserveAspectRatio="none" style="width:504px;height:426px;background:#FFFFFF;" version="1.1" viewBox="0 0 504 426" width="504px" zoomAndPan="magnify"><defs/><g><!--cluster com.monacoevents.eventbooking.repository--><g id="cluster_com.monacoevents.eventbooking.repository"><path d="M16.5,307 L315.458,307 A3.75,3.75 0 0 1 317.958,309.5 L324.958,330.6094 L494.5,330.6094 A2.5,2.5 0 0 1 497,333.1094 L497,388.5 A2.5,2.5 0 0 1 494.5,391 L16.5,391 A2.5,2.5 0 0 1 14,388.5 L14,309.5 A2.5,2.5 0 0 1 16.5,307 " fill="none" style="stroke:#000000;stroke-width:1.5;"/><line style="stroke:#000000;stroke-width:1.5;" x1="14" x2="324.958" y1="330.6094" y2="330.6094"/><text fill="#000000" font-family="sans-serif" font-size="14" font-weight="bold" lengthAdjust="spacing" textLength="297.958" x="18" y="323.5332">com.monacoevents.eventbooking.repository</text></g><!--cluster org.springframework.data.jpa.repository--><g id="cluster_org.springframework.data.jpa.repository"><path d="M42.5,4 L312.6719,4 A3.75,3.75 0 0 1 315.1719,6.5 L322.1719,27.6094 L451.5,27.6094 A2.5,2.5 0 0 1 454,30.1094 L454,296.5 A2.5,2.5 0 0 1 451.5,299 L42.5,299 A2.5,2.5 0 0 1 40,296.5 L40,6.5 A2.5,2.5 0 0 1 42.5,4 " fill="none" style="stroke:#000000;stroke-width:1.5;"/><line style="stroke:#000000;stroke-width:1.5;" x1="40" x2="322.1719" y1="27.6094" y2="27.6094"/><text fill="#000000" font-family="sans-serif" font-size="14" font-weight="bold" lengthAdjust="spacing" textLength="269.1719" x="44" y="20.5332">org.springframework.data.jpa.repository</text></g><!--class CategoryRepository--><a href="file:/C:/Users/loris/Documents/Programming/Github/event-booking-api/target/reports/apidocs/com/monacoevents/eventbooking/repository/CategoryRepository.html" target="_top" title="file:/C:/Users/loris/Documents/Programming/Github/event-booking-api/target/reports/apidocs/com/monacoevents/eventbooking/repository/CategoryRepository.html" xlink:actuate="onRequest" xlink:href="file:/C:/Users/loris/Documents/Programming/Github/event-booking-api/target/reports/apidocs/com/monacoevents/eventbooking/repository/CategoryRepository.html" xlink:show="new" xlink:title="file:/C:/Users/loris/Documents/Programming/Github/event-booking-api/target/reports/apidocs/com/monacoevents/eventbooking/repository/CategoryRepository.html" xlink:type="simple"><g id="elem_CategoryRepository"><rect codeLine="12" fill="#F1F1F1" height="48" id="CategoryRepository" rx="2.5" ry="2.5" style="stroke:#181818;stroke-width:0.5;" width="155.7236" x="333" y="335"/><ellipse cx="348" cy="351" fill="#B4A7E5" rx="11" ry="11" style="stroke:#181818;stroke-width:1.0;"/><path d="M348.9531,347.6406 L348.9531,354.2969 L350.6719,354.2969 Q351.2813,354.2969 351.5469,354.5313 Q351.8125,354.7656 351.8125,355.1563 Q351.8125,355.5313 351.5469,355.7656 Q351.2813,356 350.6719,356 L345.5313,356 Q344.9219,356 344.6563,355.7656 Q344.3906,355.5313 344.3906,355.1406 Q344.3906,354.7656 344.6563,354.5313 Q344.9219,354.2969 345.5313,354.2969 L347.25,354.2969 L347.25,347.6406 L345.5313,347.6406 Q344.9219,347.6406 344.6563,347.4063 Q344.3906,347.1719 344.3906,346.7813 Q344.3906,346.4063 344.6563,346.1719 Q344.9219,345.9375 345.5313,345.9375 L350.6719,345.9375 Q351.2813,345.9375 351.5469,346.1719 Q351.8125,346.4063 351.8125,346.7813 Q351.8125,347.1719 351.5469,347.4063 Q351.2813,347.6406 350.6719,347.6406 L348.9531,347.6406 Z " fill="#000000"/><text fill="#000000" font-family="sans-serif" font-size="14" font-style="italic" lengthAdjust="spacing" textLength="123.7236" x="362" y="356.7285">CategoryRepository</text><line style="stroke:#181818;stroke-width:0.5;" x1="334" x2="487.7236" y1="367" y2="367"/><line style="stroke:#181818;stroke-width:0.5;" x1="334" x2="487.7236" y1="375" y2="375"/></g></a><!--class EventRepository--><a href="file:/C:/Users/loris/Documents/Programming/Github/event-booking-api/target/reports/apidocs/com/monacoevents/eventbooking/repository/EventRepository.html" target="_top" title="file:/C:/Users/loris/Documents/Programming/Github/event-booking-api/target/reports/apidocs/com/monacoevents/eventbooking/repository/EventRepository.html" xlink:actuate="onRequest" xlink:href="file:/C:/Users/loris/Documents/Programming/Github/event-booking-api/target/reports/apidocs/com/monacoevents/eventbooking/repository/EventRepository.html" xlink:show="new" xlink:title="file:/C:/Users/loris/Documents/Programming/Github/event-booking-api/target/reports/apidocs/com/monacoevents/eventbooking/repository/EventRepository.html" xlink:type="simple"><g id="elem_EventRepository"><rect codeLine="14" fill="#F1F1F1" height="48" id="EventRepository" rx="2.5" ry="2.5" style="stroke:#181818;stroke-width:0.5;" width="134.7168" x="179.5" y="335"/><ellipse cx="194.5" cy="351" fill="#B4A7E5" rx="11" ry="11" style="stroke:#181818;stroke-width:1.0;"/><path d="M195.4531,347.6406 L195.4531,354.2969 L197.1719,354.2969 Q197.7813,354.2969 198.0469,354.5313 Q198.3125,354.7656 198.3125,355.1563 Q198.3125,355.5313 198.0469,355.7656 Q197.7813,356 197.1719,356 L192.0313,356 Q191.4219,356 191.1563,355.7656 Q190.8906,355.5313 190.8906,355.1406 Q190.8906,354.7656 191.1563,354.5313 Q191.4219,354.2969 192.0313,354.2969 L193.75,354.2969 L193.75,347.6406 L192.0313,347.6406 Q191.4219,347.6406 191.1563,347.4063 Q190.8906,347.1719 190.8906,346.7813 Q190.8906,346.4063 191.1563,346.1719 Q191.4219,345.9375 192.0313,345.9375 L197.1719,345.9375 Q197.7813,345.9375 198.0469,346.1719 Q198.3125,346.4063 198.3125,346.7813 Q198.3125,347.1719 198.0469,347.4063 Q197.7813,347.6406 197.1719,347.6406 L195.4531,347.6406 Z " fill="#000000"/><text fill="#000000" font-family="sans-serif" font-size="14" font-style="italic" lengthAdjust="spacing" textLength="102.7168" x="208.5" y="356.7285">EventRepository</text><line style="stroke:#181818;stroke-width:0.5;" x1="180.5" x2="313.2168" y1="367" y2="367"/><line style="stroke:#181818;stroke-width:0.5;" x1="180.5" x2="313.2168" y1="375" y2="375"/></g></a><!--class VenueRepository--><a href="file:/C:/Users/loris/Documents/Programming/Github/event-booking-api/target/reports/apidocs/com/monacoevents/eventbooking/repository/VenueRepository.html" target="_top" title="file:/C:/Users/loris/Documents/Programming/Github/event-booking-api/target/reports/apidocs/com/monacoevents/eventbooking/repository/VenueRepository.html" xlink:actuate="onRequest" xlink:href="file:/C:/Users/loris/Documents/Programming/Github/event-booking-api/target/reports/apidocs/com/monacoevents/eventbooking/repository/VenueRepository.html" xlink:show="new" xlink:title="file:/C:/Users/loris/Documents/Programming/Github/event-booking-api/target/reports/apidocs/com/monacoevents/eventbooking/repository/VenueRepository.html" xlink:type="simple"><g id="elem_VenueRepository"><rect codeLine="16" fill="#F1F1F1" height="48" id="VenueRepository" rx="2.5" ry="2.5" style="stroke:#181818;stroke-width:0.5;" width="139.3994" x="22.5" y="335"/><ellipse cx="37.5" cy="351" fill="#B4A7E5" rx="11" ry="11" style="stroke:#181818;stroke-width:1.0;"/><path d="M38.4531,347.6406 L38.4531,354.2969 L40.1719,354.2969 Q40.7813,354.2969 41.0469,354.5313 Q41.3125,354.7656 41.3125,355.1563 Q41.3125,355.5313 41.0469,355.7656 Q40.7813,356 40.1719,356 L35.0313,356 Q34.4219,356 34.1563,355.7656 Q33.8906,355.5313 33.8906,355.1406 Q33.8906,354.7656 34.1563,354.5313 Q34.4219,354.2969 35.0313,354.2969 L36.75,354.2969 L36.75,347.6406 L35.0313,347.6406 Q34.4219,347.6406 34.1563,347.4063 Q33.8906,347.1719 33.8906,346.7813 Q33.8906,346.4063 34.1563,346.1719 Q34.4219,345.9375 35.0313,345.9375 L40.1719,345.9375 Q40.7813,345.9375 41.0469,346.1719 Q41.3125,346.4063 41.3125,346.7813 Q41.3125,347.1719 41.0469,347.4063 Q40.7813,347.6406 40.1719,347.6406 L38.4531,347.6406 Z " fill="#000000"/><text fill="#000000" font-family="sans-serif" font-size="14" font-style="italic" lengthAdjust="spacing" textLength="107.3994" x="51.5" y="356.7285">VenueRepository</text><line style="stroke:#181818;stroke-width:0.5;" x1="23.5" x2="160.8994" y1="367" y2="367"/><line style="stroke:#181818;stroke-width:0.5;" x1="23.5" x2="160.8994" y1="375" y2="375"/></g></a><!--class JpaRepository--><g id="elem_JpaRepository"><rect codeLine="21" fill="#F1F1F1" height="259.3125" id="JpaRepository" rx="2.5" ry="2.5" style="stroke:#181818;stroke-width:0.5;" width="397.9707" x="48" y="32"/><ellipse cx="182.9917" cy="48" fill="#B4A7E5" rx="11" ry="11" style="stroke:#181818;stroke-width:1.0;"/><path d="M183.9448,44.6406 L183.9448,51.2969 L185.6636,51.2969 Q186.2729,51.2969 186.5386,51.5313 Q186.8042,51.7656 186.8042,52.1563 Q186.8042,52.5313 186.5386,52.7656 Q186.2729,53 185.6636,53 L180.5229,53 Q179.9136,53 179.6479,52.7656 Q179.3823,52.5313 179.3823,52.1406 Q179.3823,51.7656 179.6479,51.5313 Q179.9136,51.2969 180.5229,51.2969 L182.2417,51.2969 L182.2417,44.6406 L180.5229,44.6406 Q179.9136,44.6406 179.6479,44.4063 Q179.3823,44.1719 179.3823,43.7813 Q179.3823,43.4063 179.6479,43.1719 Q179.9136,42.9375 180.5229,42.9375 L185.6636,42.9375 Q186.2729,42.9375 186.5386,43.1719 Q186.8042,43.4063 186.8042,43.7813 Q186.8042,44.1719 186.5386,44.4063 Q186.2729,44.6406 185.6636,44.6406 L183.9448,44.6406 Z " fill="#000000"/><text fill="#000000" font-family="sans-serif" font-size="14" font-style="italic" lengthAdjust="spacing" textLength="89.4893" x="203.4917" y="53.7285">JpaRepository</text><rect fill="#FFFFFF" height="17.0938" style="stroke:#181818;stroke-width:1.0;stroke-dasharray:2.0,2.0;" width="27.998" x="420.9727" y="29"/><text fill="#000000" font-family="sans-serif" font-size="12" font-style="italic" lengthAdjust="spacing" textLength="25.998" x="421.9727" y="42.457">T, ID</text><line style="stroke:#181818;stroke-width:0.5;" x1="49" x2="444.9707" y1="64" y2="64"/><line style="stroke:#181818;stroke-width:0.5;" x1="49" x2="444.9707" y1="72" y2="72"/><ellipse cx="59" cy="86.3047" fill="#84BE84" rx="3" ry="3" style="stroke:#038048;stroke-width:1.0;"/><text fill="#000000" font-family="sans-serif" font-size="14" font-style="italic" lengthAdjust="spacing" textLength="72.3584" x="68" y="90.5332">flush(): void</text><ellipse cx="59" cy="103.9141" fill="#84BE84" rx="3" ry="3" style="stroke:#038048;stroke-width:1.0;"/><text fill="#000000" font-family="sans-serif" font-size="14" font-style="italic" lengthAdjust="spacing" textLength="255.2266" x="68" y="108.1426">saveAndFlush(S extends T): S extends T</text><ellipse cx="59" cy="121.5234" fill="#84BE84" rx="3" ry="3" style="stroke:#038048;stroke-width:1.0;"/><text fill="#000000" font-family="sans-serif" font-size="14" font-style="italic" lengthAdjust="spacing" textLength="371.9707" x="68" y="125.752">saveAllAndFlush(Iterable&lt;S extends T&gt;): List&lt;S extends T&gt;</text><ellipse cx="59" cy="139.1328" fill="#84BE84" rx="3" ry="3" style="stroke:#038048;stroke-width:1.0;"/><text fill="#000000" font-family="sans-serif" font-size="14" lengthAdjust="spacing" text-decoration="line-through" textLength="85.6201" x="68" y="143.3613">deleteInBatch</text><text fill="#000000" font-family="sans-serif" font-size="14" lengthAdjust="spacing" textLength="114.3857" x="153.6201" y="143.3613">(Iterable&lt;T&gt;): void</text><ellipse cx="59" cy="156.7422" fill="#84BE84" rx="3" ry="3" style="stroke:#038048;stroke-width:1.0;"/><text fill="#000000" font-family="sans-serif" font-size="14" font-style="italic" lengthAdjust="spacing" textLength="215.5645" x="68" y="160.9707">deleteAllInBatch(Iterable&lt;T&gt;): void</text><ellipse cx="59" cy="174.3516" fill="#84BE84" rx="3" ry="3" style="stroke:#038048;stroke-width:1.0;"/><text fill="#000000" font-family="sans-serif" font-size="14" font-style="italic" lengthAdjust="spacing" textLength="249.0264" x="68" y="178.5801">deleteAllByIdInBatch(Iterable&lt;ID&gt;): void</text><ellipse cx="59" cy="191.9609" fill="#84BE84" rx="3" ry="3" style="stroke:#038048;stroke-width:1.0;"/><text fill="#000000" font-family="sans-serif" font-size="14" font-style="italic" lengthAdjust="spacing" textLength="143.9648" x="68" y="196.1895">deleteAllInBatch(): void</text><ellipse cx="59" cy="209.5703" fill="#84BE84" rx="3" ry="3" style="stroke:#038048;stroke-width:1.0;"/><text fill="#000000" font-family="sans-serif" font-size="14" font-style="italic" lengthAdjust="spacing" text-decoration="line-through" textLength="45.9238" x="68" y="213.7988">getOne</text><text fill="#000000" font-family="sans-serif" font-size="14" font-style="italic" lengthAdjust="spacing" textLength="39.6553" x="113.9238" y="213.7988">(ID): T</text><ellipse cx="59" cy="227.1797" fill="#84BE84" rx="3" ry="3" style="stroke:#038048;stroke-width:1.0;"/><text fill="#000000" font-family="sans-serif" font-size="14" font-style="italic" lengthAdjust="spacing" text-decoration="line-through" textLength="47.4756" x="68" y="231.4082">getById</text><text fill="#000000" font-family="sans-serif" font-size="14" font-style="italic" lengthAdjust="spacing" textLength="39.6553" x="115.4756" y="231.4082">(ID): T</text><ellipse cx="59" cy="244.7891" fill="#84BE84" rx="3" ry="3" style="stroke:#038048;stroke-width:1.0;"/><text fill="#000000" font-family="sans-serif" font-size="14" font-style="italic" lengthAdjust="spacing" textLength="151.7236" x="68" y="249.0176">getReferenceById(ID): T</text><ellipse cx="59" cy="262.3984" fill="#84BE84" rx="3" ry="3" style="stroke:#038048;stroke-width:1.0;"/><text fill="#000000" font-family="sans-serif" font-size="14" font-style="italic" lengthAdjust="spacing" textLength="313.5986" x="68" y="266.627">findAll(Example&lt;S extends T&gt;): List&lt;S extends T&gt;</text><ellipse cx="59" cy="280.0078" fill="#84BE84" rx="3" ry="3" style="stroke:#038048;stroke-width:1.0;"/><text fill="#000000" font-family="sans-serif" font-size="14" font-style="italic" lengthAdjust="spacing" textLength="347.0537" x="68" y="284.2363">findAll(Example&lt;S extends T&gt;, Sort): List&lt;S extends T&gt;</text></g><polygon fill="none" points="355.0192,291.2668,361.9908,308.9132,371.1843,301.201,355.0192,291.2668" style="stroke:#181818;stroke-width:1.0;"/><path d="M366.5876,305.0571 C380.501,321.6429 381.7311,323.1094 391.5684,334.8361 " fill="none" style="stroke:#181818;stroke-width:1.0;"/><polygon fill="none" points="247,291.2668,241,309.2668,253,309.2668,247,291.2668" style="stroke:#181818;stroke-width:1.0;"/><path d="M247,309.2668 C247,325.8526 247,323.1094 247,334.8361 " fill="none" style="stroke:#181818;stroke-width:1.0;"/><polygon fill="none" points="144.9087,291.2668,129.0243,301.644,138.4275,309.0992,144.9087,291.2668" style="stroke:#181818;stroke-width:1.0;"/><path d="M133.7259,305.3716 C120.576,321.9574 119.6627,323.1094 110.3653,334.8361 " fill="none" style="stroke:#181818;stroke-width:1.0;"/><text fill="#888888" font-family="sans-serif" font-size="10" lengthAdjust="spacing" textLength="2.7783" x="242.6108" y="403.3809">&#160;</text><a href="https://github.com/talsma-ict/umldoclet" target="_top" title="https://github.com/talsma-ict/umldoclet" xlink:actuate="onRequest" xlink:href="https://github.com/talsma-ict/umldoclet" xlink:show="new" xlink:title="https://github.com/talsma-ict/umldoclet" xlink:type="simple"><text fill="#888888" font-family="sans-serif" font-size="10" lengthAdjust="spacing" textLength="74.4775" x="206.7612" y="415.959">UMLDoclet 2.2.1</text></a><!--SRC=[pLPVKzD047_tKwpZWpYGN5eBIARZ31RKCdLaeFXIUTWcs_HiSXVlBfKEyjtTf9Mc1Gluu9YNJ7Bx-xERkyq20Bo4ZivdHYPZ1qw36qiB5vzwW2g6X1GPT1I3p30X2qDAjKhiF9002pVM1lIeUegqCMHphMAf4ZZ1AOBLXOd8-i-UGINL_yt-0ssDVJWhNnxfA2K7MvrNDKlDeB7dDOFc7lGnjHb2jzFt5snBJDDl-WrWxbH6f2nJ5YecKzawp37YMs- -iWDJCbPgnPXWmLEc6cdbK2eBEHfdovHEKrIkzDhmMR_bxyFMuNblrLjmK7dRWKEZi8ZXJ7ylRjDzdXjCs76ACrqui1avL5WjMVPiYQNGSVt2S0vWenCkCtl9_4mhZ3HDIJdhLxUXrXCkh6yerrOoRWRNSrnvIUN8Z30Yw7194ruzMyOD1YEPKYWweRYmdBv8jP5MSF6Ah1GGfqOd1hEC-SK7wSR5K5IQtaBKmrmAXoOX9qfzBf7WLx6Eh62tekvMrDsAfLjnrvW_TbbwUNbV5iSboN-Nmfgh3Vw_a2hel_E_vch5_ytg9jGcyMrkc634jkY7DXC_HeV-jnnNz-3Tv4zoN8gq-plGFNfR2oolQnnQPp1oDx0zIWixtdeLmbJB-8zH5gTqgEBtLV0vq9KZ5LleCwxsj1cUfhSCNJQBmvJQDV1Rvkf9wrRUhJ1kUrvCt76egzwXYyQUjoIgu1jJc4FPnGBzLzXtisvy1yy5VhBuGm3FuxtsML6Pun47zpT7bhuU3kN0CngH8HLHYNWeVYHLp9wtZgymov_wjHvBj0FdV9usqjtKpyWZpqOOhXm4QF_ql4Stzp2yso__eVXQf_k7ocizQbxnjdMpb9QVOwGrR_srdl9nbfFfIJNfQEwkyEBD_QiNvMYGIaKyZKGJHTP2iFQTswAcjz3wgWQ3iNEv3OL8gWRjbttNLME99oCdYYoDv_F8scJ2BNO-QNou7NdAiS4BzhrWhzzu7Uusmc3VRxLsTmzQhI3O3ffX40oE2wDp4gV8VuhBNm00]--></g></svg>