<svg xmlns="http://www.w3.org/2000/svg" xmlns:xlink="http://www.w3.org/1999/xlink" contentStyleType="text/css" height="357px" preserveAspectRatio="none" style="width:414px;height:357px;background:#FFFFFF;" version="1.1" viewBox="0 0 414 357" width="414px" zoomAndPan="magnify"><defs/><g><!--class com.monacoevents.eventbooking.repository.VenueRepository--><a href="..\..\..\..\..\..\target\reports\apidocs\com\monacoevents\eventbooking\repository\VenueRepository.html" target="_top" title="..\..\..\..\..\..\target\reports\apidocs\com\monacoevents\eventbooking\repository\VenueRepository.html" xlink:actuate="onRequest" xlink:href="..\..\..\..\..\..\target\reports\apidocs\com\monacoevents\eventbooking\repository\VenueRepository.html" xlink:show="new" xlink:title="..\..\..\..\..\..\target\reports\apidocs\com\monacoevents\eventbooking\repository\VenueRepository.html" xlink:type="simple"><g id="elem_com.monacoevents.eventbooking.repository.VenueRepository"><rect codeLine="13" fill="#F1F1F1" height="40.1875" id="com.monacoevents.eventbooking.repository.VenueRepository" rx="2.5" ry="2.5" style="stroke:#181818;stroke-width:0.5;" width="227.6641" x="91" y="290"/><ellipse cx="106" cy="310.0938" fill="#B4A7E5" rx="11" ry="11" style="stroke:#181818;stroke-width:1.0;"/><path d="M106.9531,306.7344 L106.9531,313.3906 L108.6719,313.3906 Q109.2813,313.3906 109.5469,313.625 Q109.8125,313.8594 109.8125,314.25 Q109.8125,314.625 109.5469,314.8594 Q109.2813,315.0938 108.6719,315.0938 L103.5313,315.0938 Q102.9219,315.0938 102.6563,314.8594 Q102.3906,314.625 102.3906,314.2344 Q102.3906,313.8594 102.6563,313.625 Q102.9219,313.3906 103.5313,313.3906 L105.25,313.3906 L105.25,306.7344 L103.5313,306.7344 Q102.9219,306.7344 102.6563,306.5 Q102.3906,306.2656 102.3906,305.875 Q102.3906,305.5 102.6563,305.2656 Q102.9219,305.0313 103.5313,305.0313 L108.6719,305.0313 Q109.2813,305.0313 109.5469,305.2656 Q109.8125,305.5 109.8125,305.875 Q109.8125,306.2656 109.5469,306.5 Q109.2813,306.7344 108.6719,306.7344 L106.9531,306.7344 Z " fill="#000000"/><text fill="#000000" font-family="sans-serif" font-size="14" font-style="italic" lengthAdjust="spacing" textLength="107.3994" x="164.1323" y="309.5332">VenueRepository</text><text fill="#000000" font-family="sans-serif" font-size="10" font-style="italic" lengthAdjust="spacing" textLength="195.6641" x="120" y="322.9902">com.monacoevents.eventbooking.repository</text></g></a><!--class org.springframework.data.jpa.repository.JpaRepository--><g id="elem_org.springframework.data.jpa.repository.JpaRepository"><rect codeLine="15" fill="#F1F1F1" height="241.8906" id="org.springframework.data.jpa.repository.JpaRepository" rx="2.5" ry="2.5" style="stroke:#181818;stroke-width:0.5;" width="397.9707" x="6" y="12"/><ellipse cx="76.6084" cy="32.0938" fill="#B4A7E5" rx="11" ry="11" style="stroke:#181818;stroke-width:1.0;"/><path d="M77.5615,28.7344 L77.5615,35.3906 L79.2803,35.3906 Q79.8896,35.3906 80.1553,35.625 Q80.4209,35.8594 80.4209,36.25 Q80.4209,36.625 80.1553,36.8594 Q79.8896,37.0938 79.2803,37.0938 L74.1396,37.0938 Q73.5303,37.0938 73.2646,36.8594 Q72.999,36.625 72.999,36.2344 Q72.999,35.8594 73.2646,35.625 Q73.5303,35.3906 74.1396,35.3906 L75.8584,35.3906 L75.8584,28.7344 L74.1396,28.7344 Q73.5303,28.7344 73.2646,28.5 Q72.999,28.2656 72.999,27.875 Q72.999,27.5 73.2646,27.2656 Q73.5303,27.0313 74.1396,27.0313 L79.2803,27.0313 Q79.8896,27.0313 80.1553,27.2656 Q80.4209,27.5 80.4209,27.875 Q80.4209,28.2656 80.1553,28.5 Q79.8896,28.7344 79.2803,28.7344 L77.5615,28.7344 Z " fill="#000000"/><text fill="#000000" font-family="sans-serif" font-size="14" font-style="italic" lengthAdjust="spacing" textLength="89.4893" x="140.4595" y="31.5332">JpaRepository</text><text fill="#000000" font-family="sans-serif" font-size="10" font-style="italic" lengthAdjust="spacing" textLength="176.1914" x="97.1084" y="44.9902">org.springframework.data.jpa.repository</text><rect fill="#FFFFFF" height="17.0938" style="stroke:#181818;stroke-width:1.0;stroke-dasharray:2.0,2.0;" width="70.0625" x="336.9082" y="9"/><text fill="#000000" font-family="sans-serif" font-size="12" font-style="italic" lengthAdjust="spacing" textLength="68.0625" x="337.9082" y="22.457">Venue, Long</text><line style="stroke:#181818;stroke-width:0.5;" x1="7" x2="402.9707" y1="52.1875" y2="52.1875"/><ellipse cx="17" cy="66.4922" fill="#84BE84" rx="3" ry="3" style="stroke:#038048;stroke-width:1.0;"/><text fill="#000000" font-family="sans-serif" font-size="14" font-style="italic" lengthAdjust="spacing" textLength="72.3584" x="26" y="70.7207">flush(): void</text><ellipse cx="17" cy="84.1016" fill="#84BE84" rx="3" ry="3" style="stroke:#038048;stroke-width:1.0;"/><text fill="#000000" font-family="sans-serif" font-size="14" font-style="italic" lengthAdjust="spacing" textLength="255.2266" x="26" y="88.3301">saveAndFlush(S extends T): S extends T</text><ellipse cx="17" cy="101.7109" fill="#84BE84" rx="3" ry="3" style="stroke:#038048;stroke-width:1.0;"/><text fill="#000000" font-family="sans-serif" font-size="14" font-style="italic" lengthAdjust="spacing" textLength="371.9707" x="26" y="105.9395">saveAllAndFlush(Iterable&lt;S extends T&gt;): List&lt;S extends T&gt;</text><ellipse cx="17" cy="119.3203" fill="#84BE84" rx="3" ry="3" style="stroke:#038048;stroke-width:1.0;"/><text fill="#000000" font-family="sans-serif" font-size="14" font-style="italic" lengthAdjust="spacing" textLength="215.5645" x="26" y="123.5488">deleteAllInBatch(Iterable&lt;T&gt;): void</text><ellipse cx="17" cy="136.9297" fill="#84BE84" rx="3" ry="3" style="stroke:#038048;stroke-width:1.0;"/><text fill="#000000" font-family="sans-serif" font-size="14" font-style="italic" lengthAdjust="spacing" textLength="249.0264" x="26" y="141.1582">deleteAllByIdInBatch(Iterable&lt;ID&gt;): void</text><ellipse cx="17" cy="154.5391" fill="#84BE84" rx="3" ry="3" style="stroke:#038048;stroke-width:1.0;"/><text fill="#000000" font-family="sans-serif" font-size="14" font-style="italic" lengthAdjust="spacing" textLength="143.9648" x="26" y="158.7676">deleteAllInBatch(): void</text><ellipse cx="17" cy="172.1484" fill="#84BE84" rx="3" ry="3" style="stroke:#038048;stroke-width:1.0;"/><text fill="#000000" font-family="sans-serif" font-size="14" font-style="italic" lengthAdjust="spacing" text-decoration="line-through" textLength="45.9238" x="26" y="176.377">getOne</text><text fill="#000000" font-family="sans-serif" font-size="14" font-style="italic" lengthAdjust="spacing" textLength="88.7305" x="71.9238" y="176.377">(Long): Venue</text><ellipse cx="17" cy="189.7578" fill="#84BE84" rx="3" ry="3" style="stroke:#038048;stroke-width:1.0;"/><text fill="#000000" font-family="sans-serif" font-size="14" font-style="italic" lengthAdjust="spacing" text-decoration="line-through" textLength="47.4756" x="26" y="193.9863">getById</text><text fill="#000000" font-family="sans-serif" font-size="14" font-style="italic" lengthAdjust="spacing" textLength="88.7305" x="73.4756" y="193.9863">(Long): Venue</text><ellipse cx="17" cy="207.3672" fill="#84BE84" rx="3" ry="3" style="stroke:#038048;stroke-width:1.0;"/><text fill="#000000" font-family="sans-serif" font-size="14" font-style="italic" lengthAdjust="spacing" textLength="200.7988" x="26" y="211.5957">getReferenceById(Long): Venue</text><ellipse cx="17" cy="224.9766" fill="#84BE84" rx="3" ry="3" style="stroke:#038048;stroke-width:1.0;"/><text fill="#000000" font-family="sans-serif" font-size="14" font-style="italic" lengthAdjust="spacing" textLength="313.5986" x="26" y="229.2051">findAll(Example&lt;S extends T&gt;): List&lt;S extends T&gt;</text><ellipse cx="17" cy="242.5859" fill="#84BE84" rx="3" ry="3" style="stroke:#038048;stroke-width:1.0;"/><text fill="#000000" font-family="sans-serif" font-size="14" font-style="italic" lengthAdjust="spacing" textLength="347.0537" x="26" y="246.8145">findAll(Example&lt;S extends T&gt;, Sort): List&lt;S extends T&gt;</text></g><polygon fill="none" points="205,254.1091,199,272.1091,211,272.1091,205,254.1091" style="stroke:#181818;stroke-width:1.0;"/><path d="M205,272.1091 C205,285.7077 205,280.0801 205,289.6217 " fill="none" style="stroke:#181818;stroke-width:1.0;"/><text fill="#888888" font-family="sans-serif" font-size="10" lengthAdjust="spacing" textLength="2.7783" x="200.1108" y="334.3809">&#160;</text><a href="https://github.com/talsma-ict/umldoclet" target="_top" title="https://github.com/talsma-ict/umldoclet" xlink:actuate="onRequest" xlink:href="https://github.com/talsma-ict/umldoclet" xlink:show="new" xlink:title="https://github.com/talsma-ict/umldoclet" xlink:type="simple"><text fill="#888888" font-family="sans-serif" font-size="10" lengthAdjust="spacing" textLength="74.4775" x="164.2612" y="346.959">UMLDoclet 2.2.1</text></a><!--SRC=[dLNTJzim47_VNt5Z3ok2k6dvN5KXyRMjgDCGbBqqF5oJQ-AHs9dj53h6_xvB2YLqb26YIbNi-ttSEUS30FW8XpgV6Xad3fm6bqWB5z_wW2g2c1GPT1I1p30c2oDAjOhjB9002vTe0tfSlONQ6BAvLf5KCPpW1C7gmeHanRjtK4aD7jYlqTROHzDoyKY7AJbe7AxMBBNzrhRNzjlRCC3KPWYzmu6uPtl4j4LRj82vKncIianPg8XCPMi_nv3_-hETTPYGiL8hnlZtF6MgeLOEfRAGet6sJEaqHULAhot1-fjY1nhxv_sdtlnFbRTrs3SAYmZEzAzYdkxxt63CZbESwiA1pSYXmjcUPTCACouNXdHEB8gEAwcqece_aH41PRcRmbXI6jd5LIPBD2zNwr8vCcDcWfMkbR-fqzhS-q6ge3FAjPNCF0tK_Ow_5-fCP5fXg6b2obbH_Osqlk9p4sOEMG4-fDS6YmKz60w521P-3arCBYXHNEG0Sndfq0Qi4TGrWhf6yAWHB6Y8n6NfvUNo6fpa-6m5j8c5pGspZmqVmhKsLo92X-9dZei5U6MiUABLhPokGv-xPGzkAuFbSuiZwmo6xWxMncbXayPg1oPQHiz6M9pGlee-Lu7dG3UEL6HXm9ZQst9ecixHFIuEZbBgre1xpDENrZrPUvOj8cwoag-d3j25DRgAP6a2Szp1j1VzW-qTlGxy07mfsFFum_gkoFCQPSqvj3g1vR6bezS4S-WPZScG2gd4_1ynbYfYrutZ6ypojrRy9P9rEEVsMKfrD-k7DtstqFtZUM_k-PbmrxffIezfZRNc4wyrGVbydUPa-b9T7UgKxxqFky_lNfItU2eLyU08hnHP2_uyycucrwpftMi5QZXCdCjjfzcCfKkAaU2ScgwQ89uCNRF8qcWsEXQ625ydiw7mPJwToXlUytSyVtlGskXijJh-ZjZTtTZPtk81iEQtExu_F2wCpgbvYaRQoxy0]--></g></svg>