<svg xmlns="http://www.w3.org/2000/svg" xmlns:xlink="http://www.w3.org/1999/xlink" contentStyleType="text/css" height="100%" preserveAspectRatio="none" style="width:100%;height:100%;background:#FFFFFF;" version="1.1" viewBox="0 0 354 440" width="100%" zoomAndPan="magnify"><defs/><g><!--class com.monacoevents.eventbooking.service.CategoryServiceImpl--><a href="..\..\..\..\..\..\target\reports\apidocs\com\monacoevents\eventbooking\service\CategoryServiceImpl.html" target="_top" title="..\..\..\..\..\..\target\reports\apidocs\com\monacoevents\eventbooking\service\CategoryServiceImpl.html" xlink:actuate="onRequest" xlink:href="..\..\..\..\..\..\target\reports\apidocs\com\monacoevents\eventbooking\service\CategoryServiceImpl.html" xlink:show="new" xlink:title="..\..\..\..\..\..\target\reports\apidocs\com\monacoevents\eventbooking\service\CategoryServiceImpl.html" xlink:type="simple"><g id="elem_com.monacoevents.eventbooking.service.CategoryServiceImpl"><rect codeLine="26" fill="#F4F8FB" height="196.25" id="com.monacoevents.eventbooking.service.CategoryServiceImpl" rx="4" ry="4" style="stroke:#2C6E8C;stroke-width:0.5;" width="340.2246" x="7" y="203.38"/><ellipse cx="76.1396" cy="224.3409" fill="#ADD1B2" rx="10" ry="10" style="stroke:#181818;stroke-width:1.0;"/><path d="M77.0771,220.9816 Q77.2021,220.8097 77.3428,220.7316 Q77.4834,220.6534 77.6553,220.6534 Q77.9365,220.6534 78.1084,220.8566 Q78.2959,221.0441 78.2959,221.5128 L78.2959,222.6222 Q78.2959,223.0909 78.1084,223.2941 Q77.9365,223.4816 77.6553,223.4816 Q77.3896,223.4816 77.2334,223.3409 Q77.0771,223.2003 76.999,222.7941 Q76.9521,222.5284 76.8271,222.3878 Q76.5615,222.0909 76.0928,221.9191 Q75.624,221.7472 75.1553,221.7472 Q74.5771,221.7472 74.0771,222.0128 Q73.5928,222.2628 73.2178,222.8409 Q72.8428,223.4034 72.8428,224.1847 L72.8428,225.0284 Q72.8428,225.9659 73.5303,226.6066 Q74.2178,227.2316 75.4209,227.2316 Q76.1553,227.2316 76.6553,227.0284 Q76.9365,226.9191 77.2646,226.5753 Q77.4678,226.3722 77.5771,226.3253 Q77.7021,226.2628 77.8428,226.2628 Q78.1084,226.2628 78.2959,226.4659 Q78.499,226.6534 78.499,226.9191 Q78.499,227.1847 78.2334,227.4972 Q77.8428,227.9347 77.2334,228.1847 Q76.4209,228.5284 75.4365,228.5284 Q74.2803,228.5284 73.3428,228.0597 Q72.5928,227.6691 72.0615,226.8566 Q71.5459,226.0284 71.5459,225.0597 L71.5459,224.1691 Q71.5459,223.1534 72.0146,222.2784 Q72.499,221.4034 73.3271,220.9347 Q74.1709,220.4503 75.1084,220.4503 Q75.6709,220.4503 76.1553,220.5909 Q76.6553,220.7159 77.0771,220.9816 Z " fill="#000000"/><text fill="#14324A" font-family="Segoe UI" font-size="14" lengthAdjust="spacing" textLength="136.3975" x="123.9136" y="223.4874">CategoryServiceImpl</text><text fill="#14324A" font-family="Segoe UI" font-size="10" lengthAdjust="spacing" textLength="193.9453" x="95.1396" y="237.7921">com.monacoevents.eventbooking.service</text><line style="stroke:#2C6E8C;stroke-width:0.5;" x1="8" x2="346.2246" y1="245.3019" y2="245.3019"/><rect fill="none" height="6" style="stroke:#C82930;stroke-width:1.0;" width="6" x="15" y="256.4474"/><text fill="#000000" font-family="Segoe UI" font-size="13" lengthAdjust="spacing" textLength="248.1997" x="26" y="263.3302">categoryRepository: CategoryRepository</text><rect fill="none" height="6" style="stroke:#C82930;stroke-width:1.0;" width="6" x="15" y="273.7384"/><text fill="#000000" font-family="Segoe UI" font-size="13" lengthAdjust="spacing" textLength="211.4976" x="26" y="280.6212">categoryMapper: CategoryMapper</text><line style="stroke:#2C6E8C;stroke-width:0.5;" x1="8" x2="346.2246" y1="287.8839" y2="287.8839"/><ellipse cx="18" cy="302.0294" fill="#84BE84" rx="3" ry="3" style="stroke:#038048;stroke-width:1.0;"/><text fill="#000000" font-family="Segoe UI" font-size="13" lengthAdjust="spacing" textLength="272.0796" x="26" y="305.9122">create(CategoryRequest): CategoryResponse</text><ellipse cx="18" cy="319.3204" fill="#84BE84" rx="3" ry="3" style="stroke:#038048;stroke-width:1.0;"/><text fill="#000000" font-family="Segoe UI" font-size="13" lengthAdjust="spacing" textLength="212.5322" x="26" y="323.2032">findById(Long): CategoryResponse</text><ellipse cx="18" cy="336.6114" fill="#84BE84" rx="3" ry="3" style="stroke:#038048;stroke-width:1.0;"/><text fill="#000000" font-family="Segoe UI" font-size="13" lengthAdjust="spacing" textLength="275.3486" x="26" y="340.4943">findAll(Pageable): Page&lt;CategoryResponse&gt;</text><ellipse cx="18" cy="353.9025" fill="#84BE84" rx="3" ry="3" style="stroke:#038048;stroke-width:1.0;"/><text fill="#000000" font-family="Segoe UI" font-size="13" lengthAdjust="spacing" textLength="315.2246" x="26" y="357.7853">update(Long, CategoryRequest): CategoryResponse</text><ellipse cx="18" cy="371.1935" fill="#84BE84" rx="3" ry="3" style="stroke:#038048;stroke-width:1.0;"/><text fill="#000000" font-family="Segoe UI" font-size="13" lengthAdjust="spacing" textLength="111.8521" x="26" y="375.0763">delete(Long): void</text><rect fill="#F24D5C" height="6" style="stroke:#C82930;stroke-width:1.0;" width="6" x="15" y="385.4845"/><text fill="#000000" font-family="Segoe UI" font-size="13" lengthAdjust="spacing" textLength="236.4946" x="26" y="392.3673">findCategoryOrThrow(Long): Category</text></g></a><!--class com.monacoevents.eventbooking.service.CategoryService--><a href="..\..\..\..\..\..\target\reports\apidocs\com\monacoevents\eventbooking\service\CategoryService.html" target="_top" title="..\..\..\..\..\..\target\reports\apidocs\com\monacoevents\eventbooking\service\CategoryService.html" xlink:actuate="onRequest" xlink:href="..\..\..\..\..\..\target\reports\apidocs\com\monacoevents\eventbooking\service\CategoryService.html" xlink:show="new" xlink:title="..\..\..\..\..\..\target\reports\apidocs\com\monacoevents\eventbooking\service\CategoryService.html" xlink:type="simple"><g id="elem_com.monacoevents.eventbooking.service.CategoryService"><rect codeLine="37" fill="#F4F8FB" height="136.377" id="com.monacoevents.eventbooking.service.CategoryService" rx="4" ry="4" style="stroke:#2C6E8C;stroke-width:0.5;" width="309.2227" x="22.5" y="7"/><ellipse cx="86.2778" cy="27.9609" fill="#B4A7E5" rx="10" ry="10" style="stroke:#181818;stroke-width:1.0;"/><path d="M86.8247,25.5703 L86.8247,30.6641 L88.1372,30.6641 Q88.606,30.6641 88.8091,30.8516 Q89.0122,31.0234 89.0122,31.3203 Q89.0122,31.6016 88.8091,31.7891 Q88.606,31.9609 88.1372,31.9609 L84.2153,31.9609 Q83.7466,31.9609 83.5435,31.7891 Q83.3403,31.6016 83.3403,31.3047 Q83.3403,31.0234 83.5435,30.8516 Q83.7466,30.6641 84.2153,30.6641 L85.5278,30.6641 L85.5278,25.5703 L84.2153,25.5703 Q83.7466,25.5703 83.5435,25.3984 Q83.3403,25.2109 83.3403,24.9141 Q83.3403,24.6172 83.5435,24.4453 Q83.7466,24.2578 84.2153,24.2578 L88.1372,24.2734 Q88.606,24.2734 88.8091,24.4453 Q89.0122,24.6172 89.0122,24.9141 Q89.0122,25.2109 88.8091,25.3984 Q88.606,25.5703 88.1372,25.5703 L86.8247,25.5703 Z " fill="#000000"/><text fill="#14324A" font-family="Segoe UI" font-size="14" font-style="italic" lengthAdjust="spacing" textLength="96.6123" x="143.8052" y="27.1074">CategoryService</text><text fill="#14324A" font-family="Segoe UI" font-size="10" font-style="italic" lengthAdjust="spacing" textLength="173.667" x="105.2778" y="41.4121">com.monacoevents.eventbooking.service</text><line style="stroke:#2C6E8C;stroke-width:0.5;" x1="23.5" x2="330.7227" y1="48.9219" y2="48.9219"/><ellipse cx="33.5" cy="63.0674" fill="#84BE84" rx="3" ry="3" style="stroke:#038048;stroke-width:1.0;"/><text fill="#000000" font-family="Segoe UI" font-size="13" font-style="italic" lengthAdjust="spacing" textLength="245.7559" x="41.5" y="66.9502">create(CategoryRequest): CategoryResponse</text><ellipse cx="33.5" cy="80.3584" fill="#84BE84" rx="3" ry="3" style="stroke:#038048;stroke-width:1.0;"/><text fill="#000000" font-family="Segoe UI" font-size="13" font-style="italic" lengthAdjust="spacing" textLength="190.0361" x="41.5" y="84.2412">findById(Long): CategoryResponse</text><ellipse cx="33.5" cy="97.6494" fill="#84BE84" rx="3" ry="3" style="stroke:#038048;stroke-width:1.0;"/><text fill="#000000" font-family="Segoe UI" font-size="13" font-style="italic" lengthAdjust="spacing" textLength="250.7959" x="41.5" y="101.5322">findAll(Pageable): Page&lt;CategoryResponse&gt;</text><ellipse cx="33.5" cy="114.9404" fill="#84BE84" rx="3" ry="3" style="stroke:#038048;stroke-width:1.0;"/><text fill="#000000" font-family="Segoe UI" font-size="13" font-style="italic" lengthAdjust="spacing" textLength="284.2227" x="41.5" y="118.8232">update(Long, CategoryRequest): CategoryResponse</text><ellipse cx="33.5" cy="132.2314" fill="#84BE84" rx="3" ry="3" style="stroke:#038048;stroke-width:1.0;"/><text fill="#000000" font-family="Segoe UI" font-size="13" font-style="italic" lengthAdjust="spacing" textLength="98.7568" x="41.5" y="136.1143">delete(Long): void</text></g></a><!--reverse link com.monacoevents.eventbooking.service.CategoryService to com.monacoevents.eventbooking.service.CategoryServiceImpl--><g id="link_com.monacoevents.eventbooking.service.CategoryService_com.monacoevents.eventbooking.service.CategoryServiceImpl"><path codeLine="45" d="M177.11,161.8 C177.11,180.5 177.11,183.18 177.11,203.22 " fill="none" id="com.monacoevents.eventbooking.service.CategoryService-backto-com.monacoevents.eventbooking.service.CategoryServiceImpl" style="stroke:#2C6E8C;stroke-width:1.0;stroke-dasharray:7.0,7.0;"/><polygon fill="none" points="177.11,143.8,171.11,161.8,183.11,161.8,177.11,143.8" style="stroke:#2C6E8C;stroke-width:1.0;"/></g><text fill="#888888" font-family="Segoe UI" font-size="10" lengthAdjust="spacing" textLength="2.7588" x="168.7329" y="416.421">&#160;</text><a href="https://github.com/talsma-ict/umldoclet" target="_top" title="https://github.com/talsma-ict/umldoclet" xlink:actuate="onRequest" xlink:href="https://github.com/talsma-ict/umldoclet" xlink:show="new" xlink:title="https://github.com/talsma-ict/umldoclet" xlink:type="simple"><text fill="#888888" font-family="Segoe UI" font-size="10" lengthAdjust="spacing" textLength="77.7783" x="131.2231" y="429.7218">UMLDoclet 2.2.1</text></a><!--SRC=[lLRVRzf847xlNp7NFXnLWp664eAYI43WBXNjHOKyOHuMUp0hx5tVxfg8Q_E_T_mZu1fGsqXNG3BU_MQ-cTblLWC0y2SCPRnJF5WRC1BCccju-3W19dm8KA1Y1dtW4GjGmn93AGAT0n5OOjPIWLnbRvvK2dKiXSz501_Obe6MYV9GMwzUGKOrU_R-o7J9-tANBjvABqG3jU7RKaYEtUpK7Tlfm8o5Ec9mDvnPXRU3ZMCvLXF8TyWz59fS9i97bONLZvb7Zqc-Sm5RL9fBGJPsuITDrPF2C2uqn4mPdQPq7p9XqbYR5l6thKkezQUJxsEphxBOBg2l14jy-2p_JVRfwWqNv8r5eDVCbuzfLLQK15PsbQHWXr9HDQ1RsVDnnPBGZ2cwJon2c68W4HxkpiEc_3-4Pgi2y4AczO1vcw1W2-dStepRu-vuS18g5TMlW3d3pgWxF0NhAoKVVuXAmof0pNRBQVSh82uCgXNpy2Z0KN_S6TjduTy5EReQTQhqTFGR4kvnuWFwtfu1bxqEkiFshNqQM4ghrMfVliyB-KUiM40w3TbE9WPyQGera4m57Q4cQvnYwicGgP0YryEQ-mWOnMO7AuwXhwkh4LApqNAsdjKLNbzhEkrUitqpf3uAfDfDKMr9w7TH7BgYsBLlF1bPaHJCaxX5ORILFPPIKag1fNERrq0z-LD8wmGRpEUMvLP-Xga0ZQimbjHKBekvBptj4ebR9d7B96v1ufuWiTOc2XSB-9BL8FtKlGBrcJWqfuhkUZ0yMZl6VsHnZEg0pT_tk7UUGjgf7LobZMtUbfsdLrtHp9d9YWj_iBlpQnEw8t-8x8TXxPvKn9OX4ZZzUrsrk3cO9B6VnfEwle1VYSf7kY3nEQQjvFwX66aSpvR_gDcQchaQV0P-oaMtRxppmljzellV1NSijYzigOrYddbwYJxArZyjbQhHhwccRFrI0PLzdD5I8O-N7UFrLyjw-RMJCrzhimjBUQ-a9AMMJYxz_BsZ1fzmiIdkxExftOTqS0YvG9fLl8r0kcRjFV8ffskK-0ekLypdQsDYtMiq0cxMoTAYf1ec6rhgt3ED90hzV5gfp2sBHJ67_BKVYDAXecvVrktEhDdkjT_td8vbTwwwThDbs-zifsVRyr6YP8oDUwQuNdm3]--></g></svg>