<svg xmlns="http://www.w3.org/2000/svg" xmlns:xlink="http://www.w3.org/1999/xlink" contentStyleType="text/css" height="175px" preserveAspectRatio="none" style="width:366px;height:175px;background:#FFFFFF;" version="1.1" viewBox="0 0 366 175" width="366px" zoomAndPan="magnify"><defs/><g><!--class com.monacoevents.eventbooking.service.CategoryService--><a href="..\..\..\..\..\..\target\reports\apidocs\com\monacoevents\eventbooking\service\CategoryService.html" target="_top" title="..\..\..\..\..\..\target\reports\apidocs\com\monacoevents\eventbooking\service\CategoryService.html" xlink:actuate="onRequest" xlink:href="..\..\..\..\..\..\target\reports\apidocs\com\monacoevents\eventbooking\service\CategoryService.html" xlink:show="new" xlink:title="..\..\..\..\..\..\target\reports\apidocs\com\monacoevents\eventbooking\service\CategoryService.html" xlink:type="simple"><g id="elem_com.monacoevents.eventbooking.service.CategoryService"><rect codeLine="13" fill="#F1F1F1" height="136.2344" id="com.monacoevents.eventbooking.service.CategoryService" rx="2.5" ry="2.5" style="stroke:#181818;stroke-width:0.5;" width="353.6465" x="6" y="12"/><ellipse cx="86.8569" cy="32.0938" fill="#B4A7E5" rx="11" ry="11" style="stroke:#181818;stroke-width:1.0;"/><path d="M87.8101,28.7344 L87.8101,35.3906 L89.5288,35.3906 Q90.1382,35.3906 90.4038,35.625 Q90.6694,35.8594 90.6694,36.25 Q90.6694,36.625 90.4038,36.8594 Q90.1382,37.0938 89.5288,37.0938 L84.3882,37.0938 Q83.7788,37.0938 83.5132,36.8594 Q83.2476,36.625 83.2476,36.2344 Q83.2476,35.8594 83.5132,35.625 Q83.7788,35.3906 84.3882,35.3906 L86.1069,35.3906 L86.1069,28.7344 L84.3882,28.7344 Q83.7788,28.7344 83.5132,28.5 Q83.2476,28.2656 83.2476,27.875 Q83.2476,27.5 83.5132,27.2656 Q83.7788,27.0313 84.3882,27.0313 L89.5288,27.0313 Q90.1382,27.0313 90.4038,27.2656 Q90.6694,27.5 90.6694,27.875 Q90.6694,28.2656 90.4038,28.5 Q90.1382,28.7344 89.5288,28.7344 L87.8101,28.7344 Z " fill="#000000"/><text fill="#000000" font-family="sans-serif" font-size="14" font-style="italic" lengthAdjust="spacing" textLength="103.4893" x="147.3286" y="31.5332">CategoryService</text><text fill="#000000" font-family="sans-serif" font-size="10" font-style="italic" lengthAdjust="spacing" textLength="183.4326" x="107.3569" y="44.9902">com.monacoevents.eventbooking.service</text><line style="stroke:#181818;stroke-width:0.5;" x1="7" x2="358.6465" y1="52.1875" y2="52.1875"/><ellipse cx="17" cy="66.4922" fill="#84BE84" rx="3" ry="3" style="stroke:#038048;stroke-width:1.0;"/><text fill="#000000" font-family="sans-serif" font-size="14" font-style="italic" lengthAdjust="spacing" textLength="284.8125" x="26" y="70.7207">create(CategoryRequest): CategoryResponse</text><ellipse cx="17" cy="84.1016" fill="#84BE84" rx="3" ry="3" style="stroke:#038048;stroke-width:1.0;"/><text fill="#000000" font-family="sans-serif" font-size="14" font-style="italic" lengthAdjust="spacing" textLength="218.6816" x="26" y="88.3301">findById(Long): CategoryResponse</text><ellipse cx="17" cy="101.7109" fill="#84BE84" rx="3" ry="3" style="stroke:#038048;stroke-width:1.0;"/><text fill="#000000" font-family="sans-serif" font-size="14" font-style="italic" lengthAdjust="spacing" textLength="213.2197" x="26" y="105.9395">findAll(): List&lt;CategoryResponse&gt;</text><ellipse cx="17" cy="119.3203" fill="#84BE84" rx="3" ry="3" style="stroke:#038048;stroke-width:1.0;"/><text fill="#000000" font-family="sans-serif" font-size="14" font-style="italic" lengthAdjust="spacing" textLength="327.6465" x="26" y="123.5488">update(Long, CategoryRequest): CategoryResponse</text><ellipse cx="17" cy="136.9297" fill="#84BE84" rx="3" ry="3" style="stroke:#038048;stroke-width:1.0;"/><text fill="#000000" font-family="sans-serif" font-size="14" font-style="italic" lengthAdjust="spacing" textLength="112.0752" x="26" y="141.1582">delete(Long): void</text></g></a><text fill="#888888" font-family="sans-serif" font-size="10" lengthAdjust="spacing" textLength="2.7783" x="178.1108" y="152.3809">&#160;</text><a href="https://github.com/talsma-ict/umldoclet" target="_top" title="https://github.com/talsma-ict/umldoclet" xlink:actuate="onRequest" xlink:href="https://github.com/talsma-ict/umldoclet" xlink:show="new" xlink:title="https://github.com/talsma-ict/umldoclet" xlink:type="simple"><text fill="#888888" font-family="sans-serif" font-size="10" lengthAdjust="spacing" textLength="74.4775" x="142.2612" y="164.959">UMLDoclet 2.2.1</text></a><!--SRC=[dLJVRzCm47xVNt6C1pfjTPqmEbPDaqf1C5IaQIjFJHzSvvfOS-nWNuh2jFyT9-csKEq1i295kH_VzztvBW00Rs1cozgfB2SW2vGh3z-_pK6O538qw0HX2geG6NfOexOcyrqWWgWejmxiflsIrZdqfJMfCXby5Li1tbPEecS71z1IBHxHVmhVGr_NZV6ZbHe91hEZdgIOH-DXpECnB8JsXO2hsOBjq9vpOXQp20AsLXAD3v2LIT6rigQbaE4rxpmdi4NdbJKXX-zmcbAbDIIKyL0AHxufwLeBGutMY0N-KtO6W-dj_4zj_BpLTW9JPqILmetzKJsL-wfq8WkAjQXjHU0B9654v_D1j155Q9UGU8k1L53efB46Mt-kKWGiIgfXer2dVjyQm78RpArT6KAt2KXmUE7LBvn4fvUpqDdCkleMtJQKdfYTXrzAMx326Y4jRj6GP-rhRUrTk3Vck_X323VqLv5iZmcMIyQIlOU4ov0IXwKDxKr4gL8hVH88aZv1qYT8TWJ97W7BgT2h5TotjJVdNgmzEI7f0Owbmn0-UCovmUP6w6W2pvPcHZs-cBrH9lrGNwM3UPZpVqcQQZq8yNFbwM8_wVB5hAfC6w4DqGdyfzmKm_JZezYjLMaRzj2DnOMdMlVODzQ6EUdrhJbVwXBTN9cxcTLX0b-_VzdxlTadhGo65PPt1hq7_XJvqD6DUdmxhiGibpbHwIUZKQOehzOitFc8sbqUAacZgj1fjyHxwxnQxTRpyzD_ejcr8JyRyl4YufFexIHwnyPyV1x7fvmVytZ2-V9JvMo9eslXb5_z1W00]--></g></svg>