<svg xmlns="http://www.w3.org/2000/svg" xmlns:xlink="http://www.w3.org/1999/xlink" contentStyleType="text/css" height="408px" preserveAspectRatio="none" style="width:366px;height:408px;background:#FFFFFF;" version="1.1" viewBox="0 0 366 408" width="366px" zoomAndPan="magnify"><defs/><g><!--class com.monacoevents.eventbooking.service.CategoryServiceImpl--><a href="..\..\..\..\..\..\target\reports\apidocs\com\monacoevents\eventbooking\service\CategoryServiceImpl.html" target="_top" title="..\..\..\..\..\..\target\reports\apidocs\com\monacoevents\eventbooking\service\CategoryServiceImpl.html" xlink:actuate="onRequest" xlink:href="..\..\..\..\..\..\target\reports\apidocs\com\monacoevents\eventbooking\service\CategoryServiceImpl.html" xlink:show="new" xlink:title="..\..\..\..\..\..\target\reports\apidocs\com\monacoevents\eventbooking\service\CategoryServiceImpl.html" xlink:type="simple"><g id="elem_com.monacoevents.eventbooking.service.CategoryServiceImpl"><rect codeLine="13" fill="#F1F1F1" height="197.0625" id="com.monacoevents.eventbooking.service.CategoryServiceImpl" rx="2.5" ry="2.5" style="stroke:#181818;stroke-width:0.5;" width="353.6465" x="6" y="184"/><ellipse cx="86.8569" cy="204.0938" fill="#ADD1B2" rx="11" ry="11" style="stroke:#181818;stroke-width:1.0;"/><path d="M89.6226,199.9688 Q89.7788,199.75 89.9663,199.6406 Q90.1538,199.5313 90.3726,199.5313 Q90.7476,199.5313 90.9819,199.7969 Q91.2163,200.0469 91.2163,200.6563 L91.2163,202.1094 Q91.2163,202.7188 90.9819,202.9844 Q90.7476,203.25 90.3726,203.25 Q90.0288,203.25 89.8257,203.0469 Q89.6226,202.8594 89.5132,202.3438 Q89.4663,201.9844 89.2788,201.7969 Q88.9507,201.4219 88.3413,201.2031 Q87.7319,200.9844 87.1069,200.9844 Q86.3413,200.9844 85.7007,201.3125 Q85.0757,201.6406 84.5757,202.3906 Q84.0913,203.1406 84.0913,204.1719 L84.0913,205.2656 Q84.0913,206.5 84.9819,207.3281 Q85.8726,208.1406 87.4663,208.1406 Q88.4038,208.1406 89.0601,207.8906 Q89.4507,207.7344 89.8726,207.2969 Q90.1382,207.0313 90.2788,206.9531 Q90.4351,206.875 90.6382,206.875 Q90.9663,206.875 91.2163,207.1406 Q91.4819,207.3906 91.4819,207.7344 Q91.4819,208.0781 91.1382,208.4844 Q90.6382,209.0625 89.8413,209.3906 Q88.7632,209.8438 87.4663,209.8438 Q85.9507,209.8438 84.7476,209.2188 Q83.7632,208.7188 83.0757,207.6563 Q82.3882,206.5781 82.3882,205.2969 L82.3882,204.1406 Q82.3882,202.8125 82.9976,201.6719 Q83.6226,200.5156 84.7163,199.9063 Q85.8101,199.2813 87.0444,199.2813 Q87.7788,199.2813 88.4194,199.4531 Q89.0757,199.6094 89.6226,199.9688 Z " fill="#000000"/><text fill="#000000" font-family="sans-serif" font-size="14" lengthAdjust="spacing" textLength="129.9375" x="134.1045" y="203.5332">CategoryServiceImpl</text><text fill="#000000" font-family="sans-serif" font-size="10" lengthAdjust="spacing" textLength="183.4326" x="107.3569" y="216.9902">com.monacoevents.eventbooking.service</text><line style="stroke:#181818;stroke-width:0.5;" x1="7" x2="358.6465" y1="224.1875" y2="224.1875"/><rect fill="none" height="6" style="stroke:#C82930;stroke-width:1.0;" width="6" x="14" y="235.4922"/><text fill="#000000" font-family="sans-serif" font-size="14" lengthAdjust="spacing" textLength="252.1162" x="26" y="242.7207">categoryRepository: CategoryRepository</text><rect fill="none" height="6" style="stroke:#C82930;stroke-width:1.0;" width="6" x="14" y="253.1016"/><text fill="#000000" font-family="sans-serif" font-size="14" lengthAdjust="spacing" textLength="213.2197" x="26" y="260.3301">categoryMapper: CategoryMapper</text><line style="stroke:#181818;stroke-width:0.5;" x1="7" x2="358.6465" y1="267.4063" y2="267.4063"/><ellipse cx="17" cy="281.7109" fill="#84BE84" rx="3" ry="3" style="stroke:#038048;stroke-width:1.0;"/><text fill="#000000" font-family="sans-serif" font-size="14" lengthAdjust="spacing" textLength="284.8125" x="26" y="285.9395">create(CategoryRequest): CategoryResponse</text><ellipse cx="17" cy="299.3203" fill="#84BE84" rx="3" ry="3" style="stroke:#038048;stroke-width:1.0;"/><text fill="#000000" font-family="sans-serif" font-size="14" lengthAdjust="spacing" textLength="218.6816" x="26" y="303.5488">findById(Long): CategoryResponse</text><ellipse cx="17" cy="316.9297" fill="#84BE84" rx="3" ry="3" style="stroke:#038048;stroke-width:1.0;"/><text fill="#000000" font-family="sans-serif" font-size="14" lengthAdjust="spacing" textLength="283.2949" x="26" y="321.1582">findAll(Pageable): Page&lt;CategoryResponse&gt;</text><ellipse cx="17" cy="334.5391" fill="#84BE84" rx="3" ry="3" style="stroke:#038048;stroke-width:1.0;"/><text fill="#000000" font-family="sans-serif" font-size="14" lengthAdjust="spacing" textLength="327.6465" x="26" y="338.7676">update(Long, CategoryRequest): CategoryResponse</text><ellipse cx="17" cy="352.1484" fill="#84BE84" rx="3" ry="3" style="stroke:#038048;stroke-width:1.0;"/><text fill="#000000" font-family="sans-serif" font-size="14" lengthAdjust="spacing" textLength="112.0752" x="26" y="356.377">delete(Long): void</text><rect fill="#F24D5C" height="6" style="stroke:#C82930;stroke-width:1.0;" width="6" x="14" y="366.7578"/><text fill="#000000" font-family="sans-serif" font-size="14" lengthAdjust="spacing" textLength="238.8818" x="26" y="373.9863">findCategoryOrThrow(Long): Category</text></g></a><!--class com.monacoevents.eventbooking.service.CategoryService--><a href="..\..\..\..\..\..\target\reports\apidocs\com\monacoevents\eventbooking\service\CategoryService.html" target="_top" title="..\..\..\..\..\..\target\reports\apidocs\com\monacoevents\eventbooking\service\CategoryService.html" xlink:actuate="onRequest" xlink:href="..\..\..\..\..\..\target\reports\apidocs\com\monacoevents\eventbooking\service\CategoryService.html" xlink:show="new" xlink:title="..\..\..\..\..\..\target\reports\apidocs\com\monacoevents\eventbooking\service\CategoryService.html" xlink:type="simple"><g id="elem_com.monacoevents.eventbooking.service.CategoryService"><rect codeLine="24" fill="#F1F1F1" height="136.2344" id="com.monacoevents.eventbooking.service.CategoryService" rx="2.5" ry="2.5" style="stroke:#181818;stroke-width:0.5;" width="353.6465" x="6" y="12"/><ellipse cx="86.8569" cy="32.0938" fill="#B4A7E5" rx="11" ry="11" style="stroke:#181818;stroke-width:1.0;"/><path d="M87.8101,28.7344 L87.8101,35.3906 L89.5288,35.3906 Q90.1382,35.3906 90.4038,35.625 Q90.6694,35.8594 90.6694,36.25 Q90.6694,36.625 90.4038,36.8594 Q90.1382,37.0938 89.5288,37.0938 L84.3882,37.0938 Q83.7788,37.0938 83.5132,36.8594 Q83.2476,36.625 83.2476,36.2344 Q83.2476,35.8594 83.5132,35.625 Q83.7788,35.3906 84.3882,35.3906 L86.1069,35.3906 L86.1069,28.7344 L84.3882,28.7344 Q83.7788,28.7344 83.5132,28.5 Q83.2476,28.2656 83.2476,27.875 Q83.2476,27.5 83.5132,27.2656 Q83.7788,27.0313 84.3882,27.0313 L89.5288,27.0313 Q90.1382,27.0313 90.4038,27.2656 Q90.6694,27.5 90.6694,27.875 Q90.6694,28.2656 90.4038,28.5 Q90.1382,28.7344 89.5288,28.7344 L87.8101,28.7344 Z " fill="#000000"/><text fill="#000000" font-family="sans-serif" font-size="14" font-style="italic" lengthAdjust="spacing" textLength="103.4893" x="147.3286" y="31.5332">CategoryService</text><text fill="#000000" font-family="sans-serif" font-size="10" font-style="italic" lengthAdjust="spacing" textLength="183.4326" x="107.3569" y="44.9902">com.monacoevents.eventbooking.service</text><line style="stroke:#181818;stroke-width:0.5;" x1="7" x2="358.6465" y1="52.1875" y2="52.1875"/><ellipse cx="17" cy="66.4922" fill="#84BE84" rx="3" ry="3" style="stroke:#038048;stroke-width:1.0;"/><text fill="#000000" font-family="sans-serif" font-size="14" font-style="italic" lengthAdjust="spacing" textLength="284.8125" x="26" y="70.7207">create(CategoryRequest): CategoryResponse</text><ellipse cx="17" cy="84.1016" fill="#84BE84" rx="3" ry="3" style="stroke:#038048;stroke-width:1.0;"/><text fill="#000000" font-family="sans-serif" font-size="14" font-style="italic" lengthAdjust="spacing" textLength="218.6816" x="26" y="88.3301">findById(Long): CategoryResponse</text><ellipse cx="17" cy="101.7109" fill="#84BE84" rx="3" ry="3" style="stroke:#038048;stroke-width:1.0;"/><text fill="#000000" font-family="sans-serif" font-size="14" font-style="italic" lengthAdjust="spacing" textLength="283.2949" x="26" y="105.9395">findAll(Pageable): Page&lt;CategoryResponse&gt;</text><ellipse cx="17" cy="119.3203" fill="#84BE84" rx="3" ry="3" style="stroke:#038048;stroke-width:1.0;"/><text fill="#000000" font-family="sans-serif" font-size="14" font-style="italic" lengthAdjust="spacing" textLength="327.6465" x="26" y="123.5488">update(Long, CategoryRequest): CategoryResponse</text><ellipse cx="17" cy="136.9297" fill="#84BE84" rx="3" ry="3" style="stroke:#038048;stroke-width:1.0;"/><text fill="#000000" font-family="sans-serif" font-size="14" font-style="italic" lengthAdjust="spacing" textLength="112.0752" x="26" y="141.1582">delete(Long): void</text></g></a><polygon fill="none" points="183,148.0424,177,166.0424,189,166.0424,183,148.0424" style="stroke:#181818;stroke-width:1.0;"/><path d="M183,166.0424 C183,177.5403 183,171.6953 183,183.8007 " fill="none" style="stroke:#181818;stroke-width:1.0;stroke-dasharray:7.0,7.0;"/><text fill="#888888" font-family="sans-serif" font-size="10" lengthAdjust="spacing" textLength="2.7783" x="178.1108" y="385.3809">&#160;</text><a href="https://github.com/talsma-ict/umldoclet" target="_top" title="https://github.com/talsma-ict/umldoclet" xlink:actuate="onRequest" xlink:href="https://github.com/talsma-ict/umldoclet" xlink:show="new" xlink:title="https://github.com/talsma-ict/umldoclet" xlink:type="simple"><text fill="#888888" font-family="sans-serif" font-size="10" lengthAdjust="spacing" textLength="74.4775" x="142.2612" y="397.959">UMLDoclet 2.2.1</text></a><!--SRC=[lLNVJzim47xVNt5Z3ok2kca75AeAgUkcZQbe2CfJqmStkIOMZftPJb76-DztIKgR5T2WqXPLIkFxyNrt_km307WFGvtcHaIn0wV1nSB2zVa8k0eXGeM6Emn193n22pEKMaMsSaJWcOkr0Jqllm9j3DfKgr2e2Bxn1GUhCnEWPM_UG0arViX-osqj-oml5Z_fGAA3nd2tHgdZjO-Q7Qzp16CkRSBXR3Xcosphc0xhi3PGRYa2L9PIPYf4Kz8Qf3oWrwYoxCC2ZHLQKOotp5EK6cZbk50MKcwSBKgwa5ovWckR4Vu1wq9ZS3NwavjtKdBRXu5HF0lXKl_8LkM-JGsFYB7akSuSs0GTLxooMIAjU4BjuW5U8O5oHvrKMc5fZqM8W4dgSfWBbA7TNALaiQRbSZsGt5hOwLln4tljWzCXTJNI9hz2iw2opv9K-cffzKu3dR14AnveNA1obfMlcTOtj6_CLZ4xG3lq8a_s11fC9epv6p_7JOJEDvXgQh7FKn7gmFe4ujT1_3g8lmJndm1XiKlaT0ftPG-AfnailIu9mmhgQDw3uQErn_xdF4tHh7shxvNVNc2GB8rrgcARtMuzUI5yY-kGkL3Xn_miR8penFpLSo1buuAE69z99EVYRtypudGTagLXmQT8lG-lOHKY7HTyuBJG8bmte-3n4FdTZ6EZRpV9byxtbUY4ScZc9D_dXVV_HFVF1VTOR7TyPftXWRlVHX_rw1TBPJFeTQgfHsyhe7gEPxIqbCTsszZ_nTZsrqw5tBSkbxMwvrgJKcixLpnVSphW8w5kXbhInVlk-6dhTJ56f518aokuKKZNhBVolA_WMZMy9PQl9fFOkTJsMgr8k3YRCIggvSeHrXI1QsM93AlPjJ75fjFbLFgo6e_5Y6bwtQPtD6v_w1ssUrwNdNZTayFZOy_RypezpvjypenEiNN1ZR3Jtm00]--></g></svg>