<svg xmlns="http://www.w3.org/2000/svg" xmlns:xlink="http://www.w3.org/1999/xlink" contentStyleType="text/css" height="479px" preserveAspectRatio="none" style="width:324px;height:479px;background:#FFFFFF;" version="1.1" viewBox="0 0 324 479" width="324px" zoomAndPan="magnify"><defs/><g><!--class com.monacoevents.eventbooking.service.EventServiceImpl--><a href="..\..\..\..\..\..\target\reports\apidocs\com\monacoevents\eventbooking\service\EventServiceImpl.html" target="_top" title="..\..\..\..\..\..\target\reports\apidocs\com\monacoevents\eventbooking\service\EventServiceImpl.html" xlink:actuate="onRequest" xlink:href="..\..\..\..\..\..\target\reports\apidocs\com\monacoevents\eventbooking\service\EventServiceImpl.html" xlink:show="new" xlink:title="..\..\..\..\..\..\target\reports\apidocs\com\monacoevents\eventbooking\service\EventServiceImpl.html" xlink:type="simple"><g id="elem_com.monacoevents.eventbooking.service.EventServiceImpl"><rect codeLine="13" fill="#F1F1F1" height="267.5" id="com.monacoevents.eventbooking.service.EventServiceImpl" rx="2.5" ry="2.5" style="stroke:#181818;stroke-width:0.5;" width="311.6328" x="6" y="184"/><ellipse cx="65.8501" cy="204.0938" fill="#ADD1B2" rx="11" ry="11" style="stroke:#181818;stroke-width:1.0;"/><path d="M68.6157,199.9688 Q68.772,199.75 68.9595,199.6406 Q69.147,199.5313 69.3657,199.5313 Q69.7407,199.5313 69.9751,199.7969 Q70.2095,200.0469 70.2095,200.6563 L70.2095,202.1094 Q70.2095,202.7188 69.9751,202.9844 Q69.7407,203.25 69.3657,203.25 Q69.022,203.25 68.8188,203.0469 Q68.6157,202.8594 68.5063,202.3438 Q68.4595,201.9844 68.272,201.7969 Q67.9438,201.4219 67.3345,201.2031 Q66.7251,200.9844 66.1001,200.9844 Q65.3345,200.9844 64.6938,201.3125 Q64.0688,201.6406 63.5688,202.3906 Q63.0845,203.1406 63.0845,204.1719 L63.0845,205.2656 Q63.0845,206.5 63.9751,207.3281 Q64.8657,208.1406 66.4595,208.1406 Q67.397,208.1406 68.0532,207.8906 Q68.4438,207.7344 68.8657,207.2969 Q69.1313,207.0313 69.272,206.9531 Q69.4282,206.875 69.6313,206.875 Q69.9595,206.875 70.2095,207.1406 Q70.4751,207.3906 70.4751,207.7344 Q70.4751,208.0781 70.1313,208.4844 Q69.6313,209.0625 68.8345,209.3906 Q67.7563,209.8438 66.4595,209.8438 Q64.9438,209.8438 63.7407,209.2188 Q62.7563,208.7188 62.0688,207.6563 Q61.3813,206.5781 61.3813,205.2969 L61.3813,204.1406 Q61.3813,202.8125 61.9907,201.6719 Q62.6157,200.5156 63.7095,199.9063 Q64.8032,199.2813 66.0376,199.2813 Q66.772,199.2813 67.4126,199.4531 Q68.0688,199.6094 68.6157,199.9688 Z " fill="#000000"/><text fill="#000000" font-family="sans-serif" font-size="14" lengthAdjust="spacing" textLength="108.9307" x="123.6011" y="203.5332">EventServiceImpl</text><text fill="#000000" font-family="sans-serif" font-size="10" lengthAdjust="spacing" textLength="183.4326" x="86.3501" y="216.9902">com.monacoevents.eventbooking.service</text><line style="stroke:#181818;stroke-width:0.5;" x1="7" x2="316.6328" y1="224.1875" y2="224.1875"/><rect fill="none" height="6" style="stroke:#C82930;stroke-width:1.0;" width="6" x="14" y="235.4922"/><text fill="#000000" font-family="sans-serif" font-size="14" lengthAdjust="spacing" textLength="211.6611" x="26" y="242.7207">eventRepository: EventRepository</text><rect fill="none" height="6" style="stroke:#C82930;stroke-width:1.0;" width="6" x="14" y="253.1016"/><text fill="#000000" font-family="sans-serif" font-size="14" lengthAdjust="spacing" textLength="220.2402" x="26" y="260.3301">venueRepository: VenueRepository</text><rect fill="none" height="6" style="stroke:#C82930;stroke-width:1.0;" width="6" x="14" y="270.7109"/><text fill="#000000" font-family="sans-serif" font-size="14" lengthAdjust="spacing" textLength="252.1162" x="26" y="277.9395">categoryRepository: CategoryRepository</text><rect fill="none" height="6" style="stroke:#C82930;stroke-width:1.0;" width="6" x="14" y="288.3203"/><text fill="#000000" font-family="sans-serif" font-size="14" lengthAdjust="spacing" textLength="172.7646" x="26" y="295.5488">eventMapper: EventMapper</text><line style="stroke:#181818;stroke-width:0.5;" x1="7" x2="316.6328" y1="302.625" y2="302.625"/><ellipse cx="17" cy="316.9297" fill="#84BE84" rx="3" ry="3" style="stroke:#038048;stroke-width:1.0;"/><text fill="#000000" font-family="sans-serif" font-size="14" lengthAdjust="spacing" textLength="242.7988" x="26" y="321.1582">create(EventRequest): EventResponse</text><ellipse cx="17" cy="334.5391" fill="#84BE84" rx="3" ry="3" style="stroke:#038048;stroke-width:1.0;"/><text fill="#000000" font-family="sans-serif" font-size="14" lengthAdjust="spacing" textLength="197.6748" x="26" y="338.7676">findById(Long): EventResponse</text><ellipse cx="17" cy="352.1484" fill="#84BE84" rx="3" ry="3" style="stroke:#038048;stroke-width:1.0;"/><text fill="#000000" font-family="sans-serif" font-size="14" lengthAdjust="spacing" textLength="262.2881" x="26" y="356.377">findAll(Pageable): Page&lt;EventResponse&gt;</text><ellipse cx="17" cy="369.7578" fill="#84BE84" rx="3" ry="3" style="stroke:#038048;stroke-width:1.0;"/><text fill="#000000" font-family="sans-serif" font-size="14" lengthAdjust="spacing" textLength="285.6328" x="26" y="373.9863">update(Long, EventRequest): EventResponse</text><ellipse cx="17" cy="387.3672" fill="#84BE84" rx="3" ry="3" style="stroke:#038048;stroke-width:1.0;"/><text fill="#000000" font-family="sans-serif" font-size="14" lengthAdjust="spacing" textLength="112.0752" x="26" y="391.5957">delete(Long): void</text><rect fill="#F24D5C" height="6" style="stroke:#C82930;stroke-width:1.0;" width="6" x="14" y="401.9766"/><text fill="#000000" font-family="sans-serif" font-size="14" lengthAdjust="spacing" textLength="196.8682" x="26" y="409.2051">findEventOrThrow(Long): Event</text><rect fill="#F24D5C" height="6" style="stroke:#C82930;stroke-width:1.0;" width="6" x="14" y="419.5859"/><text fill="#000000" font-family="sans-serif" font-size="14" lengthAdjust="spacing" textLength="206.2334" x="26" y="426.8145">findVenueOrThrow(Long): Venue</text><rect fill="#F24D5C" height="6" style="stroke:#C82930;stroke-width:1.0;" width="6" x="14" y="437.1953"/><text fill="#000000" font-family="sans-serif" font-size="14" lengthAdjust="spacing" textLength="238.8818" x="26" y="444.4238">findCategoryOrThrow(Long): Category</text></g></a><!--class com.monacoevents.eventbooking.service.EventService--><a href="..\..\..\..\..\..\target\reports\apidocs\com\monacoevents\eventbooking\service\EventService.html" target="_top" title="..\..\..\..\..\..\target\reports\apidocs\com\monacoevents\eventbooking\service\EventService.html" xlink:actuate="onRequest" xlink:href="..\..\..\..\..\..\target\reports\apidocs\com\monacoevents\eventbooking\service\EventService.html" xlink:show="new" xlink:title="..\..\..\..\..\..\target\reports\apidocs\com\monacoevents\eventbooking\service\EventService.html" xlink:type="simple"><g id="elem_com.monacoevents.eventbooking.service.EventService"><rect codeLine="28" fill="#F1F1F1" height="136.2344" id="com.monacoevents.eventbooking.service.EventService" rx="2.5" ry="2.5" style="stroke:#181818;stroke-width:0.5;" width="311.6328" x="6" y="12"/><ellipse cx="65.8501" cy="32.0938" fill="#B4A7E5" rx="11" ry="11" style="stroke:#181818;stroke-width:1.0;"/><path d="M66.8032,28.7344 L66.8032,35.3906 L68.522,35.3906 Q69.1313,35.3906 69.397,35.625 Q69.6626,35.8594 69.6626,36.25 Q69.6626,36.625 69.397,36.8594 Q69.1313,37.0938 68.522,37.0938 L63.3813,37.0938 Q62.772,37.0938 62.5063,36.8594 Q62.2407,36.625 62.2407,36.2344 Q62.2407,35.8594 62.5063,35.625 Q62.772,35.3906 63.3813,35.3906 L65.1001,35.3906 L65.1001,28.7344 L63.3813,28.7344 Q62.772,28.7344 62.5063,28.5 Q62.2407,28.2656 62.2407,27.875 Q62.2407,27.5 62.5063,27.2656 Q62.772,27.0313 63.3813,27.0313 L68.522,27.0313 Q69.1313,27.0313 69.397,27.2656 Q69.6626,27.5 69.6626,27.875 Q69.6626,28.2656 69.397,28.5 Q69.1313,28.7344 68.522,28.7344 L66.8032,28.7344 Z " fill="#000000"/><text fill="#000000" font-family="sans-serif" font-size="14" font-style="italic" lengthAdjust="spacing" textLength="82.4824" x="136.8252" y="31.5332">EventService</text><text fill="#000000" font-family="sans-serif" font-size="10" font-style="italic" lengthAdjust="spacing" textLength="183.4326" x="86.3501" y="44.9902">com.monacoevents.eventbooking.service</text><line style="stroke:#181818;stroke-width:0.5;" x1="7" x2="316.6328" y1="52.1875" y2="52.1875"/><ellipse cx="17" cy="66.4922" fill="#84BE84" rx="3" ry="3" style="stroke:#038048;stroke-width:1.0;"/><text fill="#000000" font-family="sans-serif" font-size="14" font-style="italic" lengthAdjust="spacing" textLength="242.7988" x="26" y="70.7207">create(EventRequest): EventResponse</text><ellipse cx="17" cy="84.1016" fill="#84BE84" rx="3" ry="3" style="stroke:#038048;stroke-width:1.0;"/><text fill="#000000" font-family="sans-serif" font-size="14" font-style="italic" lengthAdjust="spacing" textLength="197.6748" x="26" y="88.3301">findById(Long): EventResponse</text><ellipse cx="17" cy="101.7109" fill="#84BE84" rx="3" ry="3" style="stroke:#038048;stroke-width:1.0;"/><text fill="#000000" font-family="sans-serif" font-size="14" font-style="italic" lengthAdjust="spacing" textLength="262.2881" x="26" y="105.9395">findAll(Pageable): Page&lt;EventResponse&gt;</text><ellipse cx="17" cy="119.3203" fill="#84BE84" rx="3" ry="3" style="stroke:#038048;stroke-width:1.0;"/><text fill="#000000" font-family="sans-serif" font-size="14" font-style="italic" lengthAdjust="spacing" textLength="285.6328" x="26" y="123.5488">update(Long, EventRequest): EventResponse</text><ellipse cx="17" cy="136.9297" fill="#84BE84" rx="3" ry="3" style="stroke:#038048;stroke-width:1.0;"/><text fill="#000000" font-family="sans-serif" font-size="14" font-style="italic" lengthAdjust="spacing" textLength="112.0752" x="26" y="141.1582">delete(Long): void</text></g></a><polygon fill="none" points="162,148.3123,156,166.3123,168,166.3123,162,148.3123" style="stroke:#181818;stroke-width:1.0;"/><path d="M162,166.3123 C162,177.6203 162,171.695 162,183.9907 " fill="none" style="stroke:#181818;stroke-width:1.0;stroke-dasharray:7.0,7.0;"/><text fill="#888888" font-family="sans-serif" font-size="10" lengthAdjust="spacing" textLength="2.7783" x="157.1108" y="456.3809">&#160;</text><a href="https://github.com/talsma-ict/umldoclet" target="_top" title="https://github.com/talsma-ict/umldoclet" xlink:actuate="onRequest" xlink:href="https://github.com/talsma-ict/umldoclet" xlink:show="new" xlink:title="https://github.com/talsma-ict/umldoclet" xlink:type="simple"><text fill="#888888" font-family="sans-serif" font-size="10" lengthAdjust="spacing" textLength="74.4775" x="121.2612" y="468.959">UMLDoclet 2.2.1</text></a><!--SRC=[lLNlJzim4FtENt5Z7rO4TTF2O5G8YNLeOoeQWh8lJJ-uoJMnSEpCTeewnl- -om_QD8m9aBQeKfhpktlldESS0C0x6EXqOKGKEt0QN2miN9yFWQiG8bHekCCGHC8Zj315gLLaIo02proi3UXPyHHeOz2cMeL2HV2LppbOdPa0BTlOW89gz53zbjjQzUaY3txIWKG7hS5MJLBFw-wtUrvl7qPSseJ3sM34gcghd1xhiIvGRIa2L9PAPYf4KyWwINb0js6viWDpD5PeHJbULITlDT3ASQ4ifDmucxTq8RbokTOk8_uzTW2jawlXkZRliD2s0oT6yIo4I_qZMxRx9ZKy8iMIBtJcm2RekEBbcYNHYYUqNJp0AoHIxcWdbLPOhCSYHC0aTGkO2PIXRKQfMAmfNCG3oQs5pIChVcA_ktTyEaVbhj3CgUUp99M-gfQyuq0dBD6A1nfpa6N5RQhr3RqqPikSJQ3NyomaQrB1UCoOt_WvRY9qli5Kq-RwF1MX3gnF37wTmQyp-1M3tsHWiKlaP09tHUlvrIxoBgcw5RIBYpwShWTMI8fdM4T-Nm-ia04vCw987Jnu56jeEETfYgRYBn-MYEt08EMtAcsvKTpMKcf-RYokm3EXme-Bix0rf0FtTzY9bAqBEfvyAf6G-T-ZDVZn2f-bOQuXBxe3prCI8fqmVD0nro9SDPtJ5sdVp2Ws-dPDxJgisEW6h8Yjmnwsk85y21VW-zBrGZaqCpe_JpZ_Fxd-tph-iTll-DGwmmDt_p9BrVEUvwvcnWkCLazzkUVgsK_Oh_B0ArxNqI_6NlbnApcFh5l8MgyphSc8jJUKNryMTFQ7GjqCjAGF-ziFVrwzpiUK50ffCWOt2kapxYsHzoLTfyPNSVbgF8wTIss_quc4YxCfeuuwhXYHRH6uJfR8i9oDZIavcLHJx_Do_EOZhEqTjBtzKNUt_xxRzmxOuUx1eTVRzdfzpnkVPaQdsBdWHjZ9Rm00]--></g></svg>