<svg xmlns="http://www.w3.org/2000/svg" xmlns:xlink="http://www.w3.org/1999/xlink" contentStyleType="text/css" height="100%" preserveAspectRatio="none" style="width:100%;height:100%;background:#FFFFFF;" version="1.1" viewBox="0 0 311 509" width="100%" zoomAndPan="magnify"><defs/><g><!--class com.monacoevents.eventbooking.service.EventServiceImpl--><a href="..\..\..\..\..\..\target\reports\apidocs\com\monacoevents\eventbooking\service\EventServiceImpl.html" target="_top" title="..\..\..\..\..\..\target\reports\apidocs\com\monacoevents\eventbooking\service\EventServiceImpl.html" xlink:actuate="onRequest" xlink:href="..\..\..\..\..\..\target\reports\apidocs\com\monacoevents\eventbooking\service\EventServiceImpl.html" xlink:show="new" xlink:title="..\..\..\..\..\..\target\reports\apidocs\com\monacoevents\eventbooking\service\EventServiceImpl.html" xlink:type="simple"><g id="elem_com.monacoevents.eventbooking.service.EventServiceImpl"><rect codeLine="26" fill="#F4F8FB" height="265.4141" id="com.monacoevents.eventbooking.service.EventServiceImpl" rx="4" ry="4" style="stroke:#2C6E8C;stroke-width:0.5;" width="297.3398" x="7" y="203.38"/><ellipse cx="54.6973" cy="224.3409" fill="#ADD1B2" rx="10" ry="10" style="stroke:#181818;stroke-width:1.0;"/><path d="M55.6348,220.9816 Q55.7598,220.8097 55.9004,220.7316 Q56.041,220.6534 56.2129,220.6534 Q56.4941,220.6534 56.666,220.8566 Q56.8535,221.0441 56.8535,221.5128 L56.8535,222.6222 Q56.8535,223.0909 56.666,223.2941 Q56.4941,223.4816 56.2129,223.4816 Q55.9473,223.4816 55.791,223.3409 Q55.6348,223.2003 55.5566,222.7941 Q55.5098,222.5284 55.3848,222.3878 Q55.1191,222.0909 54.6504,221.9191 Q54.1816,221.7472 53.7129,221.7472 Q53.1348,221.7472 52.6348,222.0128 Q52.1504,222.2628 51.7754,222.8409 Q51.4004,223.4034 51.4004,224.1847 L51.4004,225.0284 Q51.4004,225.9659 52.0879,226.6066 Q52.7754,227.2316 53.9785,227.2316 Q54.7129,227.2316 55.2129,227.0284 Q55.4941,226.9191 55.8223,226.5753 Q56.0254,226.3722 56.1348,226.3253 Q56.2598,226.2628 56.4004,226.2628 Q56.666,226.2628 56.8535,226.4659 Q57.0566,226.6534 57.0566,226.9191 Q57.0566,227.1847 56.791,227.4972 Q56.4004,227.9347 55.791,228.1847 Q54.9785,228.5284 53.9941,228.5284 Q52.8379,228.5284 51.9004,228.0597 Q51.1504,227.6691 50.6191,226.8566 Q50.1035,226.0284 50.1035,225.0597 L50.1035,224.1691 Q50.1035,223.1534 50.5723,222.2784 Q51.0566,221.4034 51.8848,220.9347 Q52.7285,220.4503 53.666,220.4503 Q54.2285,220.4503 54.7129,220.5909 Q55.2129,220.7159 55.6348,220.9816 Z " fill="#000000"/><text fill="#14324A" font-family="Segoe UI" font-size="14" lengthAdjust="spacing" textLength="113.3057" x="114.0171" y="223.4874">EventServiceImpl</text><text fill="#14324A" font-family="Segoe UI" font-size="10" lengthAdjust="spacing" textLength="193.9453" x="73.6973" y="237.7921">com.monacoevents.eventbooking.service</text><line style="stroke:#2C6E8C;stroke-width:0.5;" x1="8" x2="303.3398" y1="245.3019" y2="245.3019"/><rect fill="none" height="6" style="stroke:#C82930;stroke-width:1.0;" width="6" x="15" y="256.4474"/><text fill="#000000" font-family="Segoe UI" font-size="13" lengthAdjust="spacing" textLength="207.3018" x="26" y="263.3302">eventRepository: EventRepository</text><rect fill="none" height="6" style="stroke:#C82930;stroke-width:1.0;" width="6" x="15" y="273.7384"/><text fill="#000000" font-family="Segoe UI" font-size="13" lengthAdjust="spacing" textLength="214.6523" x="26" y="280.6212">venueRepository: VenueRepository</text><rect fill="none" height="6" style="stroke:#C82930;stroke-width:1.0;" width="6" x="15" y="291.0294"/><text fill="#000000" font-family="Segoe UI" font-size="13" lengthAdjust="spacing" textLength="248.1997" x="26" y="297.9122">categoryRepository: CategoryRepository</text><rect fill="none" height="6" style="stroke:#C82930;stroke-width:1.0;" width="6" x="15" y="308.3204"/><text fill="#000000" font-family="Segoe UI" font-size="13" lengthAdjust="spacing" textLength="170.5996" x="26" y="315.2032">eventMapper: EventMapper</text><line style="stroke:#2C6E8C;stroke-width:0.5;" x1="8" x2="303.3398" y1="322.4659" y2="322.4659"/><ellipse cx="18" cy="336.6114" fill="#84BE84" rx="3" ry="3" style="stroke:#038048;stroke-width:1.0;"/><text fill="#000000" font-family="Segoe UI" font-size="13" lengthAdjust="spacing" textLength="229.1948" x="26" y="340.4943">create(EventRequest): EventResponse</text><ellipse cx="18" cy="353.9025" fill="#84BE84" rx="3" ry="3" style="stroke:#038048;stroke-width:1.0;"/><text fill="#000000" font-family="Segoe UI" font-size="13" lengthAdjust="spacing" textLength="191.0898" x="26" y="357.7853">findById(Long): EventResponse</text><ellipse cx="18" cy="371.1935" fill="#84BE84" rx="3" ry="3" style="stroke:#038048;stroke-width:1.0;"/><text fill="#000000" font-family="Segoe UI" font-size="13" lengthAdjust="spacing" textLength="253.9063" x="26" y="375.0763">findAll(Pageable): Page&lt;EventResponse&gt;</text><ellipse cx="18" cy="388.4845" fill="#84BE84" rx="3" ry="3" style="stroke:#038048;stroke-width:1.0;"/><text fill="#000000" font-family="Segoe UI" font-size="13" lengthAdjust="spacing" textLength="272.3398" x="26" y="392.3673">update(Long, EventRequest): EventResponse</text><ellipse cx="18" cy="405.7755" fill="#84BE84" rx="3" ry="3" style="stroke:#038048;stroke-width:1.0;"/><text fill="#000000" font-family="Segoe UI" font-size="13" lengthAdjust="spacing" textLength="111.8521" x="26" y="409.6583">delete(Long): void</text><rect fill="#F24D5C" height="6" style="stroke:#C82930;stroke-width:1.0;" width="6" x="15" y="420.0665"/><text fill="#000000" font-family="Segoe UI" font-size="13" lengthAdjust="spacing" textLength="193.6099" x="26" y="426.9493">findEventOrThrow(Long): Event</text><rect fill="#F24D5C" height="6" style="stroke:#C82930;stroke-width:1.0;" width="6" x="15" y="437.3575"/><text fill="#000000" font-family="Segoe UI" font-size="13" lengthAdjust="spacing" textLength="202.6997" x="26" y="444.2404">findVenueOrThrow(Long): Venue</text><rect fill="#F24D5C" height="6" style="stroke:#C82930;stroke-width:1.0;" width="6" x="15" y="454.6486"/><text fill="#000000" font-family="Segoe UI" font-size="13" lengthAdjust="spacing" textLength="236.4946" x="26" y="461.5314">findCategoryOrThrow(Long): Category</text></g></a><!--class com.monacoevents.eventbooking.service.EventService--><a href="..\..\..\..\..\..\target\reports\apidocs\com\monacoevents\eventbooking\service\EventService.html" target="_top" title="..\..\..\..\..\..\target\reports\apidocs\com\monacoevents\eventbooking\service\EventService.html" xlink:actuate="onRequest" xlink:href="..\..\..\..\..\..\target\reports\apidocs\com\monacoevents\eventbooking\service\EventService.html" xlink:show="new" xlink:title="..\..\..\..\..\..\target\reports\apidocs\com\monacoevents\eventbooking\service\EventService.html" xlink:type="simple"><g id="elem_com.monacoevents.eventbooking.service.EventService"><rect codeLine="41" fill="#F4F8FB" height="136.377" id="com.monacoevents.eventbooking.service.EventService" rx="4" ry="4" style="stroke:#2C6E8C;stroke-width:0.5;" width="268.585" x="21.38" y="7"/><ellipse cx="64.839" cy="27.9609" fill="#B4A7E5" rx="10" ry="10" style="stroke:#181818;stroke-width:1.0;"/><path d="M65.3859,25.5703 L65.3859,30.6641 L66.6984,30.6641 Q67.1671,30.6641 67.3702,30.8516 Q67.5734,31.0234 67.5734,31.3203 Q67.5734,31.6016 67.3702,31.7891 Q67.1671,31.9609 66.6984,31.9609 L62.7765,31.9609 Q62.3077,31.9609 62.1046,31.7891 Q61.9015,31.6016 61.9015,31.3047 Q61.9015,31.0234 62.1046,30.8516 Q62.3077,30.6641 62.7765,30.6641 L64.089,30.6641 L64.089,25.5703 L62.7765,25.5703 Q62.3077,25.5703 62.1046,25.3984 Q61.9015,25.2109 61.9015,24.9141 Q61.9015,24.6172 62.1046,24.4453 Q62.3077,24.2578 62.7765,24.2578 L66.6984,24.2734 Q67.1671,24.2734 67.3702,24.4453 Q67.5734,24.6172 67.5734,24.9141 Q67.5734,25.2109 67.3702,25.3984 Q67.1671,25.5703 66.6984,25.5703 L65.3859,25.5703 Z " fill="#000000"/><text fill="#14324A" font-family="Segoe UI" font-size="14" font-style="italic" lengthAdjust="spacing" textLength="74.7305" x="133.3072" y="27.1074">EventService</text><text fill="#14324A" font-family="Segoe UI" font-size="10" font-style="italic" lengthAdjust="spacing" textLength="173.667" x="83.839" y="41.4121">com.monacoevents.eventbooking.service</text><line style="stroke:#2C6E8C;stroke-width:0.5;" x1="22.38" x2="288.965" y1="48.9219" y2="48.9219"/><ellipse cx="32.38" cy="63.0674" fill="#84BE84" rx="3" ry="3" style="stroke:#038048;stroke-width:1.0;"/><text fill="#000000" font-family="Segoe UI" font-size="13" font-style="italic" lengthAdjust="spacing" textLength="205.1182" x="40.38" y="66.9502">create(EventRequest): EventResponse</text><ellipse cx="32.38" cy="80.3584" fill="#84BE84" rx="3" ry="3" style="stroke:#038048;stroke-width:1.0;"/><text fill="#000000" font-family="Segoe UI" font-size="13" font-style="italic" lengthAdjust="spacing" textLength="169.7173" x="40.38" y="84.2412">findById(Long): EventResponse</text><ellipse cx="32.38" cy="97.6494" fill="#84BE84" rx="3" ry="3" style="stroke:#038048;stroke-width:1.0;"/><text fill="#000000" font-family="Segoe UI" font-size="13" font-style="italic" lengthAdjust="spacing" textLength="230.4771" x="40.38" y="101.5322">findAll(Pageable): Page&lt;EventResponse&gt;</text><ellipse cx="32.38" cy="114.9404" fill="#84BE84" rx="3" ry="3" style="stroke:#038048;stroke-width:1.0;"/><text fill="#000000" font-family="Segoe UI" font-size="13" font-style="italic" lengthAdjust="spacing" textLength="243.585" x="40.38" y="118.8232">update(Long, EventRequest): EventResponse</text><ellipse cx="32.38" cy="132.2314" fill="#84BE84" rx="3" ry="3" style="stroke:#038048;stroke-width:1.0;"/><text fill="#000000" font-family="Segoe UI" font-size="13" font-style="italic" lengthAdjust="spacing" textLength="98.7568" x="40.38" y="136.1143">delete(Long): void</text></g></a><!--reverse link com.monacoevents.eventbooking.service.EventService to com.monacoevents.eventbooking.service.EventServiceImpl--><g id="link_com.monacoevents.eventbooking.service.EventService_com.monacoevents.eventbooking.service.EventServiceImpl"><path codeLine="49" d="M155.67,161.87 C155.67,180.15 155.67,182.57 155.67,203.08 " fill="none" id="com.monacoevents.eventbooking.service.EventService-backto-com.monacoevents.eventbooking.service.EventServiceImpl" style="stroke:#2C6E8C;stroke-width:1.0;stroke-dasharray:7.0,7.0;"/><polygon fill="none" points="155.67,143.87,149.67,161.87,161.67,161.87,155.67,143.87" style="stroke:#2C6E8C;stroke-width:1.0;"/></g><text fill="#888888" font-family="Segoe UI" font-size="10" lengthAdjust="spacing" textLength="2.7588" x="147.2905" y="485.5851">&#160;</text><a href="https://github.com/talsma-ict/umldoclet" target="_top" title="https://github.com/talsma-ict/umldoclet" xlink:actuate="onRequest" xlink:href="https://github.com/talsma-ict/umldoclet" xlink:show="new" xlink:title="https://github.com/talsma-ict/umldoclet" xlink:type="simple"><text fill="#888888" font-family="Segoe UI" font-size="10" lengthAdjust="spacing" textLength="77.7783" x="109.7808" y="498.8859">UMLDoclet 2.2.1</text></a><!--SRC=[lLRVRzf847xlNp7jFPIemHZ79HH5aO30NKxqBch8lM0U5dimA-nTTtTDnBNvtpl-4J1Ek4igtG6IOVQRcMzslnq60E0z36MoLJnS6J0Ip8fhkFiy0IO2256WOWO3u34BKSC28ob2NG0HM6fMKe5SvhzygHJgH8g0Yn1-Pni6MgRAHsszUGDvgkbZz7kcAz4Nsynu9Vq83JI69nLAZjtkD1tRwS2KHJfcS3sSMcMqlOzZELORA7R4VHIQGgOYG9NJwYVCfyUaM3c53IhDfI0VkuoJbUfBOHWN6XAcZCvAkecOC1dNjaNvNUiS6ltRoI4t-rFExHJwIh0qW2_oQxehLw-ve6Wi1hrYWRpFTcL9HM1jLKaYEvIATWEwjRK0booDp9ZO_S5YX5iC9SBTzN7OBVyReNrM0_WHqth0_7LOPelet7uPk-FkUF0iL2hQlnBc33kZxl0vM5yfUV-lg8nM2MgxPuxRhu6uCAYMpCSd14VzSMTi7uKVa1nz6dNgwUderoJSfuKFw7rr15oDEkWEtIlxUM2bhBCpz_nZiP5l4yL2qcd4jZ8r44XJge5aAkW8DNdZBMQH3BaAAGezh7Y0W75Yjh3a60MwResHBXkPStk-h_3kGjDfzzhkvMY3TFIeDgJowpY9F54ksPU-ZArO2kPBp43QoXyBAQcUqDA5ppkW2_aYf5LF1REPPNcrZs4gHECfJ2HT9uybF92-zYY3LytWLJDuPGQldi5QcJYQp-5RNdhsQkP-NoYwvhIBsnwC3Wrx9DbJh2B_EZJiaJxref0iLV3mYQt6uJDB4bHb_kB73l71LqZ-ZP9RrXhCoOvgrYdBNf23brm4W-rrq9XGY_rdM3-A6ZUaGBQ8a93Prui3-EKUdoP1nY4BUWelOn8WzLHyvB6HFDWNdQNFtVvKqnLT_WEsXx1yeskmt7O8UzpY6lBHd8CV2jNlRluHvVzFglzl5VzKxT_OGXl5VFFmEabL_Lwchhh7AuHMTNszvghUH-HNQk0dZklYksNzP7ChSbveiuqgjIwb925MJYXx_RQbkp_XObt-9tIVNxtB1fE82wHPo5yBf3Pkxv0FHRfM9L-PonEpsSgOHFTQhP2RLRgmgAAMoOUY9lTDAusZe9Y6QdFHV5xEER_k1gviQ6dQvqsxCssxFVTZp-bOxNEtssb_i9sURSz6gP89jcwOudh-0m00]--></g></svg>