<svg xmlns="http://www.w3.org/2000/svg" xmlns:xlink="http://www.w3.org/1999/xlink" contentStyleType="text/css" height="100%" preserveAspectRatio="none" style="width:100%;height:100%;background:#FFFFFF;" version="1.1" viewBox="0 0 289 184" width="100%" zoomAndPan="magnify"><defs/><g><!--class com.monacoevents.eventbooking.service.EventService--><a href="..\..\..\..\..\..\target\reports\apidocs\com\monacoevents\eventbooking\service\EventService.html" target="_top" title="..\..\..\..\..\..\target\reports\apidocs\com\monacoevents\eventbooking\service\EventService.html" xlink:actuate="onRequest" xlink:href="..\..\..\..\..\..\target\reports\apidocs\com\monacoevents\eventbooking\service\EventService.html" xlink:show="new" xlink:title="..\..\..\..\..\..\target\reports\apidocs\com\monacoevents\eventbooking\service\EventService.html" xlink:type="simple"><g id="elem_com.monacoevents.eventbooking.service.EventService"><rect codeLine="26" fill="#F4F8FB" height="136.377" id="com.monacoevents.eventbooking.service.EventService" rx="4" ry="4" style="stroke:#2C6E8C;stroke-width:0.5;" width="268.585" x="7" y="7"/><ellipse cx="50.459" cy="27.9609" fill="#B4A7E5" rx="10" ry="10" style="stroke:#181818;stroke-width:1.0;"/><path d="M51.0059,25.5703 L51.0059,30.6641 L52.3184,30.6641 Q52.7871,30.6641 52.9902,30.8516 Q53.1934,31.0234 53.1934,31.3203 Q53.1934,31.6016 52.9902,31.7891 Q52.7871,31.9609 52.3184,31.9609 L48.3965,31.9609 Q47.9277,31.9609 47.7246,31.7891 Q47.5215,31.6016 47.5215,31.3047 Q47.5215,31.0234 47.7246,30.8516 Q47.9277,30.6641 48.3965,30.6641 L49.709,30.6641 L49.709,25.5703 L48.3965,25.5703 Q47.9277,25.5703 47.7246,25.3984 Q47.5215,25.2109 47.5215,24.9141 Q47.5215,24.6172 47.7246,24.4453 Q47.9277,24.2578 48.3965,24.2578 L52.3184,24.2734 Q52.7871,24.2734 52.9902,24.4453 Q53.1934,24.6172 53.1934,24.9141 Q53.1934,25.2109 52.9902,25.3984 Q52.7871,25.5703 52.3184,25.5703 L51.0059,25.5703 Z " fill="#000000"/><text fill="#14324A" font-family="Segoe UI" font-size="14" font-style="italic" lengthAdjust="spacing" textLength="74.7305" x="118.9272" y="27.1074">EventService</text><text fill="#14324A" font-family="Segoe UI" font-size="10" font-style="italic" lengthAdjust="spacing" textLength="173.667" x="69.459" y="41.4121">com.monacoevents.eventbooking.service</text><line style="stroke:#2C6E8C;stroke-width:0.5;" x1="8" x2="274.585" y1="48.9219" y2="48.9219"/><ellipse cx="18" cy="63.0674" fill="#84BE84" rx="3" ry="3" style="stroke:#038048;stroke-width:1.0;"/><text fill="#000000" font-family="Segoe UI" font-size="13" font-style="italic" lengthAdjust="spacing" textLength="205.1182" x="26" y="66.9502">create(EventRequest): EventResponse</text><ellipse cx="18" cy="80.3584" fill="#84BE84" rx="3" ry="3" style="stroke:#038048;stroke-width:1.0;"/><text fill="#000000" font-family="Segoe UI" font-size="13" font-style="italic" lengthAdjust="spacing" textLength="169.7173" x="26" y="84.2412">findById(Long): EventResponse</text><ellipse cx="18" cy="97.6494" fill="#84BE84" rx="3" ry="3" style="stroke:#038048;stroke-width:1.0;"/><text fill="#000000" font-family="Segoe UI" font-size="13" font-style="italic" lengthAdjust="spacing" textLength="230.4771" x="26" y="101.5322">findAll(Pageable): Page&lt;EventResponse&gt;</text><ellipse cx="18" cy="114.9404" fill="#84BE84" rx="3" ry="3" style="stroke:#038048;stroke-width:1.0;"/><text fill="#000000" font-family="Segoe UI" font-size="13" font-style="italic" lengthAdjust="spacing" textLength="243.585" x="26" y="118.8232">update(Long, EventRequest): EventResponse</text><ellipse cx="18" cy="132.2314" fill="#84BE84" rx="3" ry="3" style="stroke:#038048;stroke-width:1.0;"/><text fill="#000000" font-family="Segoe UI" font-size="13" font-style="italic" lengthAdjust="spacing" textLength="98.7568" x="26" y="136.1143">delete(Long): void</text></g></a><text fill="#888888" font-family="Segoe UI" font-size="10" lengthAdjust="spacing" textLength="2.7588" x="139.4131" y="161.168">&#160;</text><a href="https://github.com/talsma-ict/umldoclet" target="_top" title="https://github.com/talsma-ict/umldoclet" xlink:actuate="onRequest" xlink:href="https://github.com/talsma-ict/umldoclet" xlink:show="new" xlink:title="https://github.com/talsma-ict/umldoclet" xlink:type="simple"><text fill="#888888" font-family="Segoe UI" font-size="10" lengthAdjust="spacing" textLength="77.7783" x="101.9033" y="174.4688">UMLDoclet 2.2.1</text></a><!--SRC=[bLNVRzis47xlNt7h7kQYYImfgkCQGG3RiRSCtX0qoPFb1reyouGfKYCf1rwH_tr7MSqKrS4wIO0iyhlllll1Cm30Bp3LvS68VEl0QN1ROU7nZmKmnI57XOOvv20AbgE5DKgjSdi48h3ARRK1lQc_CcqCsb8hBbGElxCz0wihaw4Dths3sjN3D_OdPbliwuDVlD6PH0UzwOUMf3YC1kTn60_WWKbRCBYTFWGDsxysSH074H2t51agIvILucXgMUEIPVHQ77VEO8_62gt89cnuVAYPLeu9PQ5anbaVqfraodcjKK3-a-0IUkFxnMjjuUTQsncCZM8LXo_wh-ebNBiJYjXO0NRBk7xoMTbG4DZPDPh4JhMXRC2miyTnmohfvgJkJrOWt6Ek4HvltuRTYxyHeeiE89FCsWdBTddZJLBTVfudy-5ySXAg3UMlWSNJmMmuFGKR6wEV_XFbPJMWABc8at4799H3is4PVYTmDfuFvk6Ry5SYPvzdWwvxAlsE6lVxm2Tqtxm1RhDEXjFa9ZmDR8LrSP5SVZecygVIi9pwLBA3hXnmxPfke3PLL49BrdYFdicHgTBgs0zRmH6mADq1DW8bjztL0kcmqNAz_f83U7zbgUAZABcUxP7AZsPFdPwgPZcypdGH55gnJAC7sA1-hRMcUFB07l7lWGxa3o63jXjOBeCWxJoEcHnTQh3KT9HILWgkCviIUzfcJzliQSEUjjc3hIlaQWLVwv3zzPMjhJCiSy_mCJD8mwDN6tn1V-xSXn4qdtuCDGUjQxSHYayEjxote57smnPZANjtL7IsbaX6_kVLAylhawPLoRr8x-eC_hTKZZJSy9lGlHQyXZqVU-3AkeDi-TreJKtHofQ_VZkKQ1P2xPfE7PxUVVJZKWg5DA6pdK9h8Nn1FX_TzLl-6b-fMYwtpfLsrE_dmcshTK1bxhjwL9-BpFMhGlBZZEvCwzMgcRw_llmD-55w7bwUXuE7A1abdqRn88YIC8aZchGVmtWKXijPPNI9_JjcX5tz0m00]--></g></svg>