<svg xmlns="http://www.w3.org/2000/svg" xmlns:xlink="http://www.w3.org/1999/xlink" contentStyleType="text/css" height="100%" preserveAspectRatio="none" style="width:100%;height:100%;background:#FFFFFF;" version="1.1" viewBox="0 0 1059 544" width="100%" zoomAndPan="magnify"><defs/><g><!--cluster com.monacoevents.eventbooking.service--><g id="cluster_com.monacoevents.eventbooking.service"><path d="M10,6 L260.1289,6 A6,6 0 0 1 264.1289,10 L271.1289,29.291 L1048,29.291 A4,4 0 0 1 1052,33.291 L1052,499.95 A4,4 0 0 1 1048,503.95 L10,503.95 A4,4 0 0 1 6,499.95 L6,10 A4,4 0 0 1 10,6 " fill="#FBFBFD" style="stroke:#B8C4D0;stroke-width:1.5;"/><line style="stroke:#B8C4D0;stroke-width:1.5;" x1="6" x2="271.1289" y1="29.291" y2="29.291"/><text fill="#33475B" font-family="Segoe UI" font-size="13" font-weight="bold" lengthAdjust="spacing" textLength="252.1289" x="10" y="22.0283">com.monacoevents.eventbooking.service</text></g><!--class CategoryService--><a href="file:/C:/Users/loris/Documents/Programming/Github/event-booking-api/target/reports/apidocs/com/monacoevents/eventbooking/service/CategoryService.html" target="_top" title="file:/C:/Users/loris/Documents/Programming/Github/event-booking-api/target/reports/apidocs/com/monacoevents/eventbooking/service/CategoryService.html" xlink:actuate="onRequest" xlink:href="file:/C:/Users/loris/Documents/Programming/Github/event-booking-api/target/reports/apidocs/com/monacoevents/eventbooking/service/CategoryService.html" xlink:show="new" xlink:title="file:/C:/Users/loris/Documents/Programming/Github/event-booking-api/target/reports/apidocs/com/monacoevents/eventbooking/service/CategoryService.html" xlink:type="simple"><g id="elem_CategoryService"><rect codeLine="25" fill="#F4F8FB" height="132.4551" id="CategoryService" rx="4" ry="4" style="stroke:#2C6E8C;stroke-width:0.5;" width="309.2227" x="37.39" y="42"/><ellipse cx="143.1456" cy="57" fill="#B4A7E5" rx="10" ry="10" style="stroke:#181818;stroke-width:1.0;"/><path d="M143.6925,54.6094 L143.6925,59.7031 L145.005,59.7031 Q145.4737,59.7031 145.6769,59.8906 Q145.88,60.0625 145.88,60.3594 Q145.88,60.6406 145.6769,60.8281 Q145.4737,61 145.005,61 L141.0831,61 Q140.6144,61 140.4112,60.8281 Q140.2081,60.6406 140.2081,60.3438 Q140.2081,60.0625 140.4112,59.8906 Q140.6144,59.7031 141.0831,59.7031 L142.3956,59.7031 L142.3956,54.6094 L141.0831,54.6094 Q140.6144,54.6094 140.4112,54.4375 Q140.2081,54.25 140.2081,53.9531 Q140.2081,53.6563 140.4112,53.4844 Q140.6144,53.2969 141.0831,53.2969 L145.005,53.3125 Q145.4737,53.3125 145.6769,53.4844 Q145.88,53.6563 145.88,53.9531 Q145.88,54.25 145.6769,54.4375 Q145.4737,54.6094 145.005,54.6094 L143.6925,54.6094 Z " fill="#000000"/><text fill="#14324A" font-family="Segoe UI" font-size="13" font-style="italic" lengthAdjust="spacing" textLength="89.7114" x="162.1456" y="62.3828">CategoryService</text><line style="stroke:#2C6E8C;stroke-width:0.5;" x1="38.39" x2="345.6127" y1="72" y2="72"/><line style="stroke:#2C6E8C;stroke-width:0.5;" x1="38.39" x2="345.6127" y1="80" y2="80"/><ellipse cx="48.39" cy="94.1455" fill="#84BE84" rx="3" ry="3" style="stroke:#038048;stroke-width:1.0;"/><text fill="#000000" font-family="Segoe UI" font-size="13" font-style="italic" lengthAdjust="spacing" textLength="245.7559" x="56.39" y="98.0283">create(CategoryRequest): CategoryResponse</text><ellipse cx="48.39" cy="111.4365" fill="#84BE84" rx="3" ry="3" style="stroke:#038048;stroke-width:1.0;"/><text fill="#000000" font-family="Segoe UI" font-size="13" font-style="italic" lengthAdjust="spacing" textLength="190.0361" x="56.39" y="115.3193">findById(Long): CategoryResponse</text><ellipse cx="48.39" cy="128.7275" fill="#84BE84" rx="3" ry="3" style="stroke:#038048;stroke-width:1.0;"/><text fill="#000000" font-family="Segoe UI" font-size="13" font-style="italic" lengthAdjust="spacing" textLength="250.7959" x="56.39" y="132.6104">findAll(Pageable): Page&lt;CategoryResponse&gt;</text><ellipse cx="48.39" cy="146.0186" fill="#84BE84" rx="3" ry="3" style="stroke:#038048;stroke-width:1.0;"/><text fill="#000000" font-family="Segoe UI" font-size="13" font-style="italic" lengthAdjust="spacing" textLength="284.2227" x="56.39" y="149.9014">update(Long, CategoryRequest): CategoryResponse</text><ellipse cx="48.39" cy="163.3096" fill="#84BE84" rx="3" ry="3" style="stroke:#038048;stroke-width:1.0;"/><text fill="#000000" font-family="Segoe UI" font-size="13" font-style="italic" lengthAdjust="spacing" textLength="98.7568" x="56.39" y="167.1924">delete(Long): void</text></g></a><!--class CategoryServiceImpl--><a href="file:/C:/Users/loris/Documents/Programming/Github/event-booking-api/target/reports/apidocs/com/monacoevents/eventbooking/service/CategoryServiceImpl.html" target="_top" title="file:/C:/Users/loris/Documents/Programming/Github/event-booking-api/target/reports/apidocs/com/monacoevents/eventbooking/service/CategoryServiceImpl.html" xlink:actuate="onRequest" xlink:href="file:/C:/Users/loris/Documents/Programming/Github/event-booking-api/target/reports/apidocs/com/monacoevents/eventbooking/service/CategoryServiceImpl.html" xlink:show="new" xlink:title="file:/C:/Users/loris/Documents/Programming/Github/event-booking-api/target/reports/apidocs/com/monacoevents/eventbooking/service/CategoryServiceImpl.html" xlink:type="simple"><g id="elem_CategoryServiceImpl"><rect codeLine="33" fill="#F4F8FB" height="184.3281" id="CategoryServiceImpl" rx="4" ry="4" style="stroke:#2C6E8C;stroke-width:0.5;" width="340.2246" x="21.89" y="269.04"/><ellipse cx="124.6749" cy="284.04" fill="#ADD1B2" rx="10" ry="10" style="stroke:#181818;stroke-width:1.0;"/><path d="M125.6124,280.6806 Q125.7374,280.5088 125.878,280.4306 Q126.0187,280.3525 126.1905,280.3525 Q126.4718,280.3525 126.6437,280.5556 Q126.8312,280.7431 126.8312,281.2119 L126.8312,282.3213 Q126.8312,282.79 126.6437,282.9931 Q126.4718,283.1806 126.1905,283.1806 Q125.9249,283.1806 125.7687,283.04 Q125.6124,282.8994 125.5343,282.4931 Q125.4874,282.2275 125.3624,282.0869 Q125.0968,281.79 124.628,281.6181 Q124.1593,281.4463 123.6905,281.4463 Q123.1124,281.4463 122.6124,281.7119 Q122.128,281.9619 121.753,282.54 Q121.378,283.1025 121.378,283.8838 L121.378,284.7275 Q121.378,285.665 122.0655,286.3056 Q122.753,286.9306 123.9562,286.9306 Q124.6905,286.9306 125.1905,286.7275 Q125.4718,286.6181 125.7999,286.2744 Q126.003,286.0713 126.1124,286.0244 Q126.2374,285.9619 126.378,285.9619 Q126.6437,285.9619 126.8312,286.165 Q127.0343,286.3525 127.0343,286.6181 Q127.0343,286.8838 126.7687,287.1963 Q126.378,287.6338 125.7687,287.8838 Q124.9562,288.2275 123.9718,288.2275 Q122.8155,288.2275 121.878,287.7588 Q121.128,287.3681 120.5968,286.5556 Q120.0812,285.7275 120.0812,284.7588 L120.0812,283.8681 Q120.0812,282.8525 120.5499,281.9775 Q121.0343,281.1025 121.8624,280.6338 Q122.7062,280.1494 123.6437,280.1494 Q124.2062,280.1494 124.6905,280.29 Q125.1905,280.415 125.6124,280.6806 Z " fill="#000000"/><text fill="#14324A" font-family="Segoe UI" font-size="13" lengthAdjust="spacing" textLength="126.6548" x="143.6749" y="289.4228">CategoryServiceImpl</text><line style="stroke:#2C6E8C;stroke-width:0.5;" x1="22.89" x2="361.1146" y1="299.04" y2="299.04"/><rect fill="none" height="6" style="stroke:#C82930;stroke-width:1.0;" width="6" x="29.89" y="310.1855"/><text fill="#000000" font-family="Segoe UI" font-size="13" lengthAdjust="spacing" textLength="248.1997" x="40.89" y="317.0683">categoryRepository: CategoryRepository</text><rect fill="none" height="6" style="stroke:#C82930;stroke-width:1.0;" width="6" x="29.89" y="327.4765"/><text fill="#000000" font-family="Segoe UI" font-size="13" lengthAdjust="spacing" textLength="211.4976" x="40.89" y="334.3593">categoryMapper: CategoryMapper</text><line style="stroke:#2C6E8C;stroke-width:0.5;" x1="22.89" x2="361.1146" y1="341.622" y2="341.622"/><ellipse cx="32.89" cy="355.7675" fill="#84BE84" rx="3" ry="3" style="stroke:#038048;stroke-width:1.0;"/><text fill="#000000" font-family="Segoe UI" font-size="13" lengthAdjust="spacing" textLength="272.0796" x="40.89" y="359.6504">create(CategoryRequest): CategoryResponse</text><ellipse cx="32.89" cy="373.0586" fill="#84BE84" rx="3" ry="3" style="stroke:#038048;stroke-width:1.0;"/><text fill="#000000" font-family="Segoe UI" font-size="13" lengthAdjust="spacing" textLength="212.5322" x="40.89" y="376.9414">findById(Long): CategoryResponse</text><ellipse cx="32.89" cy="390.3496" fill="#84BE84" rx="3" ry="3" style="stroke:#038048;stroke-width:1.0;"/><text fill="#000000" font-family="Segoe UI" font-size="13" lengthAdjust="spacing" textLength="275.3486" x="40.89" y="394.2324">findAll(Pageable): Page&lt;CategoryResponse&gt;</text><ellipse cx="32.89" cy="407.6406" fill="#84BE84" rx="3" ry="3" style="stroke:#038048;stroke-width:1.0;"/><text fill="#000000" font-family="Segoe UI" font-size="13" lengthAdjust="spacing" textLength="315.2246" x="40.89" y="411.5234">update(Long, CategoryRequest): CategoryResponse</text><ellipse cx="32.89" cy="424.9316" fill="#84BE84" rx="3" ry="3" style="stroke:#038048;stroke-width:1.0;"/><text fill="#000000" font-family="Segoe UI" font-size="13" lengthAdjust="spacing" textLength="111.8521" x="40.89" y="428.8144">delete(Long): void</text><rect fill="#F24D5C" height="6" style="stroke:#C82930;stroke-width:1.0;" width="6" x="29.89" y="439.2226"/><text fill="#000000" font-family="Segoe UI" font-size="13" lengthAdjust="spacing" textLength="236.4946" x="40.89" y="446.1054">findCategoryOrThrow(Long): Category</text></g></a><!--class EventService--><a href="file:/C:/Users/loris/Documents/Programming/Github/event-booking-api/target/reports/apidocs/com/monacoevents/eventbooking/service/EventService.html" target="_top" title="file:/C:/Users/loris/Documents/Programming/Github/event-booking-api/target/reports/apidocs/com/monacoevents/eventbooking/service/EventService.html" xlink:actuate="onRequest" xlink:href="file:/C:/Users/loris/Documents/Programming/Github/event-booking-api/target/reports/apidocs/com/monacoevents/eventbooking/service/EventService.html" xlink:show="new" xlink:title="file:/C:/Users/loris/Documents/Programming/Github/event-booking-api/target/reports/apidocs/com/monacoevents/eventbooking/service/EventService.html" xlink:type="simple"><g id="elem_EventService"><rect codeLine="44" fill="#F4F8FB" height="132.4551" id="EventService" rx="4" ry="4" style="stroke:#2C6E8C;stroke-width:0.5;" width="268.585" x="411.71" y="42"/><ellipse cx="507.3062" cy="57" fill="#B4A7E5" rx="10" ry="10" style="stroke:#181818;stroke-width:1.0;"/><path d="M507.8531,54.6094 L507.8531,59.7031 L509.1656,59.7031 Q509.6343,59.7031 509.8374,59.8906 Q510.0406,60.0625 510.0406,60.3594 Q510.0406,60.6406 509.8374,60.8281 Q509.6343,61 509.1656,61 L505.2437,61 Q504.7749,61 504.5718,60.8281 Q504.3687,60.6406 504.3687,60.3438 Q504.3687,60.0625 504.5718,59.8906 Q504.7749,59.7031 505.2437,59.7031 L506.5562,59.7031 L506.5562,54.6094 L505.2437,54.6094 Q504.7749,54.6094 504.5718,54.4375 Q504.3687,54.25 504.3687,53.9531 Q504.3687,53.6563 504.5718,53.4844 Q504.7749,53.2969 505.2437,53.2969 L509.1656,53.3125 Q509.6343,53.3125 509.8374,53.4844 Q510.0406,53.6563 510.0406,53.9531 Q510.0406,54.25 509.8374,54.4375 Q509.6343,54.6094 509.1656,54.6094 L507.8531,54.6094 Z " fill="#000000"/><text fill="#14324A" font-family="Segoe UI" font-size="13" font-style="italic" lengthAdjust="spacing" textLength="69.3926" x="526.3062" y="62.3828">EventService</text><line style="stroke:#2C6E8C;stroke-width:0.5;" x1="412.71" x2="679.295" y1="72" y2="72"/><line style="stroke:#2C6E8C;stroke-width:0.5;" x1="412.71" x2="679.295" y1="80" y2="80"/><ellipse cx="422.71" cy="94.1455" fill="#84BE84" rx="3" ry="3" style="stroke:#038048;stroke-width:1.0;"/><text fill="#000000" font-family="Segoe UI" font-size="13" font-style="italic" lengthAdjust="spacing" textLength="205.1182" x="430.71" y="98.0283">create(EventRequest): EventResponse</text><ellipse cx="422.71" cy="111.4365" fill="#84BE84" rx="3" ry="3" style="stroke:#038048;stroke-width:1.0;"/><text fill="#000000" font-family="Segoe UI" font-size="13" font-style="italic" lengthAdjust="spacing" textLength="169.7173" x="430.71" y="115.3193">findById(Long): EventResponse</text><ellipse cx="422.71" cy="128.7275" fill="#84BE84" rx="3" ry="3" style="stroke:#038048;stroke-width:1.0;"/><text fill="#000000" font-family="Segoe UI" font-size="13" font-style="italic" lengthAdjust="spacing" textLength="230.4771" x="430.71" y="132.6104">findAll(Pageable): Page&lt;EventResponse&gt;</text><ellipse cx="422.71" cy="146.0186" fill="#84BE84" rx="3" ry="3" style="stroke:#038048;stroke-width:1.0;"/><text fill="#000000" font-family="Segoe UI" font-size="13" font-style="italic" lengthAdjust="spacing" textLength="243.585" x="430.71" y="149.9014">update(Long, EventRequest): EventResponse</text><ellipse cx="422.71" cy="163.3096" fill="#84BE84" rx="3" ry="3" style="stroke:#038048;stroke-width:1.0;"/><text fill="#000000" font-family="Segoe UI" font-size="13" font-style="italic" lengthAdjust="spacing" textLength="98.7568" x="430.71" y="167.1924">delete(Long): void</text></g></a><!--class EventServiceImpl--><a href="file:/C:/Users/loris/Documents/Programming/Github/event-booking-api/target/reports/apidocs/com/monacoevents/eventbooking/service/EventServiceImpl.html" target="_top" title="file:/C:/Users/loris/Documents/Programming/Github/event-booking-api/target/reports/apidocs/com/monacoevents/eventbooking/service/EventServiceImpl.html" xlink:actuate="onRequest" xlink:href="file:/C:/Users/loris/Documents/Programming/Github/event-booking-api/target/reports/apidocs/com/monacoevents/eventbooking/service/EventServiceImpl.html" xlink:show="new" xlink:title="file:/C:/Users/loris/Documents/Programming/Github/event-booking-api/target/reports/apidocs/com/monacoevents/eventbooking/service/EventServiceImpl.html" xlink:type="simple"><g id="elem_EventServiceImpl"><rect codeLine="52" fill="#F4F8FB" height="253.4922" id="EventServiceImpl" rx="4" ry="4" style="stroke:#2C6E8C;stroke-width:0.5;" width="297.3398" x="397.33" y="234.46"/><ellipse cx="489.3937" cy="249.46" fill="#ADD1B2" rx="10" ry="10" style="stroke:#181818;stroke-width:1.0;"/><path d="M490.3312,246.1006 Q490.4562,245.9288 490.5968,245.8506 Q490.7375,245.7725 490.9093,245.7725 Q491.1906,245.7725 491.3625,245.9756 Q491.55,246.1631 491.55,246.6319 L491.55,247.7413 Q491.55,248.21 491.3625,248.4131 Q491.1906,248.6006 490.9093,248.6006 Q490.6437,248.6006 490.4875,248.46 Q490.3312,248.3194 490.2531,247.9131 Q490.2062,247.6475 490.0812,247.5069 Q489.8156,247.21 489.3468,247.0381 Q488.8781,246.8663 488.4093,246.8663 Q487.8312,246.8663 487.3312,247.1319 Q486.8468,247.3819 486.4718,247.96 Q486.0968,248.5225 486.0968,249.3038 L486.0968,250.1475 Q486.0968,251.085 486.7843,251.7256 Q487.4718,252.3506 488.675,252.3506 Q489.4093,252.3506 489.9093,252.1475 Q490.1906,252.0381 490.5187,251.6944 Q490.7218,251.4913 490.8312,251.4444 Q490.9562,251.3819 491.0968,251.3819 Q491.3625,251.3819 491.55,251.585 Q491.7531,251.7725 491.7531,252.0381 Q491.7531,252.3038 491.4875,252.6163 Q491.0968,253.0538 490.4875,253.3038 Q489.675,253.6475 488.6906,253.6475 Q487.5343,253.6475 486.5968,253.1788 Q485.8468,252.7881 485.3156,251.9756 Q484.8,251.1475 484.8,250.1788 L484.8,249.2881 Q484.8,248.2725 485.2687,247.3975 Q485.7531,246.5225 486.5812,246.0538 Q487.425,245.5694 488.3625,245.5694 Q488.925,245.5694 489.4093,245.71 Q489.9093,245.835 490.3312,246.1006 Z " fill="#000000"/><text fill="#14324A" font-family="Segoe UI" font-size="13" lengthAdjust="spacing" textLength="105.2124" x="508.3937" y="254.8428">EventServiceImpl</text><line style="stroke:#2C6E8C;stroke-width:0.5;" x1="398.33" x2="693.6698" y1="264.46" y2="264.46"/><rect fill="none" height="6" style="stroke:#C82930;stroke-width:1.0;" width="6" x="405.33" y="275.6055"/><text fill="#000000" font-family="Segoe UI" font-size="13" lengthAdjust="spacing" textLength="207.3018" x="416.33" y="282.4883">eventRepository: EventRepository</text><rect fill="none" height="6" style="stroke:#C82930;stroke-width:1.0;" width="6" x="405.33" y="292.8965"/><text fill="#000000" font-family="Segoe UI" font-size="13" lengthAdjust="spacing" textLength="214.6523" x="416.33" y="299.7793">venueRepository: VenueRepository</text><rect fill="none" height="6" style="stroke:#C82930;stroke-width:1.0;" width="6" x="405.33" y="310.1875"/><text fill="#000000" font-family="Segoe UI" font-size="13" lengthAdjust="spacing" textLength="248.1997" x="416.33" y="317.0704">categoryRepository: CategoryRepository</text><rect fill="none" height="6" style="stroke:#C82930;stroke-width:1.0;" width="6" x="405.33" y="327.4786"/><text fill="#000000" font-family="Segoe UI" font-size="13" lengthAdjust="spacing" textLength="170.5996" x="416.33" y="334.3614">eventMapper: EventMapper</text><line style="stroke:#2C6E8C;stroke-width:0.5;" x1="398.33" x2="693.6698" y1="341.6241" y2="341.6241"/><ellipse cx="408.33" cy="355.7696" fill="#84BE84" rx="3" ry="3" style="stroke:#038048;stroke-width:1.0;"/><text fill="#000000" font-family="Segoe UI" font-size="13" lengthAdjust="spacing" textLength="229.1948" x="416.33" y="359.6524">create(EventRequest): EventResponse</text><ellipse cx="408.33" cy="373.0606" fill="#84BE84" rx="3" ry="3" style="stroke:#038048;stroke-width:1.0;"/><text fill="#000000" font-family="Segoe UI" font-size="13" lengthAdjust="spacing" textLength="191.0898" x="416.33" y="376.9434">findById(Long): EventResponse</text><ellipse cx="408.33" cy="390.3516" fill="#84BE84" rx="3" ry="3" style="stroke:#038048;stroke-width:1.0;"/><text fill="#000000" font-family="Segoe UI" font-size="13" lengthAdjust="spacing" textLength="253.9063" x="416.33" y="394.2344">findAll(Pageable): Page&lt;EventResponse&gt;</text><ellipse cx="408.33" cy="407.6426" fill="#84BE84" rx="3" ry="3" style="stroke:#038048;stroke-width:1.0;"/><text fill="#000000" font-family="Segoe UI" font-size="13" lengthAdjust="spacing" textLength="272.3398" x="416.33" y="411.5254">update(Long, EventRequest): EventResponse</text><ellipse cx="408.33" cy="424.9336" fill="#84BE84" rx="3" ry="3" style="stroke:#038048;stroke-width:1.0;"/><text fill="#000000" font-family="Segoe UI" font-size="13" lengthAdjust="spacing" textLength="111.8521" x="416.33" y="428.8164">delete(Long): void</text><rect fill="#F24D5C" height="6" style="stroke:#C82930;stroke-width:1.0;" width="6" x="405.33" y="439.2246"/><text fill="#000000" font-family="Segoe UI" font-size="13" lengthAdjust="spacing" textLength="193.6099" x="416.33" y="446.1075">findEventOrThrow(Long): Event</text><rect fill="#F24D5C" height="6" style="stroke:#C82930;stroke-width:1.0;" width="6" x="405.33" y="456.5157"/><text fill="#000000" font-family="Segoe UI" font-size="13" lengthAdjust="spacing" textLength="202.6997" x="416.33" y="463.3985">findVenueOrThrow(Long): Venue</text><rect fill="#F24D5C" height="6" style="stroke:#C82930;stroke-width:1.0;" width="6" x="405.33" y="473.8067"/><text fill="#000000" font-family="Segoe UI" font-size="13" lengthAdjust="spacing" textLength="236.4946" x="416.33" y="480.6895">findCategoryOrThrow(Long): Category</text></g></a><!--class VenueService--><a href="file:/C:/Users/loris/Documents/Programming/Github/event-booking-api/target/reports/apidocs/com/monacoevents/eventbooking/service/VenueService.html" target="_top" title="file:/C:/Users/loris/Documents/Programming/Github/event-booking-api/target/reports/apidocs/com/monacoevents/eventbooking/service/VenueService.html" xlink:actuate="onRequest" xlink:href="file:/C:/Users/loris/Documents/Programming/Github/event-booking-api/target/reports/apidocs/com/monacoevents/eventbooking/service/VenueService.html" xlink:show="new" xlink:title="file:/C:/Users/loris/Documents/Programming/Github/event-booking-api/target/reports/apidocs/com/monacoevents/eventbooking/service/VenueService.html" xlink:type="simple"><g id="elem_VenueService"><rect codeLine="67" fill="#F4F8FB" height="132.4551" id="VenueService" rx="4" ry="4" style="stroke:#2C6E8C;stroke-width:0.5;" width="278.3984" x="743.8" y="42"/><ellipse cx="841.8496" cy="57" fill="#B4A7E5" rx="10" ry="10" style="stroke:#181818;stroke-width:1.0;"/><path d="M842.3964,54.6094 L842.3964,59.7031 L843.7089,59.7031 Q844.1777,59.7031 844.3808,59.8906 Q844.5839,60.0625 844.5839,60.3594 Q844.5839,60.6406 844.3808,60.8281 Q844.1777,61 843.7089,61 L839.7871,61 Q839.3183,61 839.1152,60.8281 Q838.9121,60.6406 838.9121,60.3438 Q838.9121,60.0625 839.1152,59.8906 Q839.3183,59.7031 839.7871,59.7031 L841.0996,59.7031 L841.0996,54.6094 L839.7871,54.6094 Q839.3183,54.6094 839.1152,54.4375 Q838.9121,54.25 838.9121,53.9531 Q838.9121,53.6563 839.1152,53.4844 Q839.3183,53.2969 839.7871,53.2969 L843.7089,53.3125 Q844.1777,53.3125 844.3808,53.4844 Q844.5839,53.6563 844.5839,53.9531 Q844.5839,54.25 844.3808,54.4375 Q844.1777,54.6094 843.7089,54.6094 L842.3964,54.6094 Z " fill="#000000"/><text fill="#14324A" font-family="Segoe UI" font-size="13" font-style="italic" lengthAdjust="spacing" textLength="74.2993" x="860.8496" y="62.3828">VenueService</text><line style="stroke:#2C6E8C;stroke-width:0.5;" x1="744.8" x2="1021.1984" y1="72" y2="72"/><line style="stroke:#2C6E8C;stroke-width:0.5;" x1="744.8" x2="1021.1984" y1="80" y2="80"/><ellipse cx="754.8" cy="94.1455" fill="#84BE84" rx="3" ry="3" style="stroke:#038048;stroke-width:1.0;"/><text fill="#000000" font-family="Segoe UI" font-size="13" font-style="italic" lengthAdjust="spacing" textLength="214.9316" x="762.8" y="98.0283">create(VenueRequest): VenueResponse</text><ellipse cx="754.8" cy="111.4365" fill="#84BE84" rx="3" ry="3" style="stroke:#038048;stroke-width:1.0;"/><text fill="#000000" font-family="Segoe UI" font-size="13" font-style="italic" lengthAdjust="spacing" textLength="174.624" x="762.8" y="115.3193">findById(Long): VenueResponse</text><ellipse cx="754.8" cy="128.7275" fill="#84BE84" rx="3" ry="3" style="stroke:#038048;stroke-width:1.0;"/><text fill="#000000" font-family="Segoe UI" font-size="13" font-style="italic" lengthAdjust="spacing" textLength="235.3838" x="762.8" y="132.6104">findAll(Pageable): Page&lt;VenueResponse&gt;</text><ellipse cx="754.8" cy="146.0186" fill="#84BE84" rx="3" ry="3" style="stroke:#038048;stroke-width:1.0;"/><text fill="#000000" font-family="Segoe UI" font-size="13" font-style="italic" lengthAdjust="spacing" textLength="253.3984" x="762.8" y="149.9014">update(Long, VenueRequest): VenueResponse</text><ellipse cx="754.8" cy="163.3096" fill="#84BE84" rx="3" ry="3" style="stroke:#038048;stroke-width:1.0;"/><text fill="#000000" font-family="Segoe UI" font-size="13" font-style="italic" lengthAdjust="spacing" textLength="98.7568" x="762.8" y="167.1924">delete(Long): void</text></g></a><!--class VenueServiceImpl--><a href="file:/C:/Users/loris/Documents/Programming/Github/event-booking-api/target/reports/apidocs/com/monacoevents/eventbooking/service/VenueServiceImpl.html" target="_top" title="file:/C:/Users/loris/Documents/Programming/Github/event-booking-api/target/reports/apidocs/com/monacoevents/eventbooking/service/VenueServiceImpl.html" xlink:actuate="onRequest" xlink:href="file:/C:/Users/loris/Documents/Programming/Github/event-booking-api/target/reports/apidocs/com/monacoevents/eventbooking/service/VenueServiceImpl.html" xlink:show="new" xlink:title="file:/C:/Users/loris/Documents/Programming/Github/event-booking-api/target/reports/apidocs/com/monacoevents/eventbooking/service/VenueServiceImpl.html" xlink:type="simple"><g id="elem_VenueServiceImpl"><rect codeLine="75" fill="#F4F8FB" height="184.3281" id="VenueServiceImpl" rx="4" ry="4" style="stroke:#2C6E8C;stroke-width:0.5;" width="306.4297" x="729.79" y="269.04"/><ellipse cx="824.1262" cy="284.04" fill="#ADD1B2" rx="10" ry="10" style="stroke:#181818;stroke-width:1.0;"/><path d="M825.0637,280.6806 Q825.1887,280.5088 825.3293,280.4306 Q825.4699,280.3525 825.6418,280.3525 Q825.9231,280.3525 826.0949,280.5556 Q826.2824,280.7431 826.2824,281.2119 L826.2824,282.3213 Q826.2824,282.79 826.0949,282.9931 Q825.9231,283.1806 825.6418,283.1806 Q825.3762,283.1806 825.2199,283.04 Q825.0637,282.8994 824.9856,282.4931 Q824.9387,282.2275 824.8137,282.0869 Q824.5481,281.79 824.0793,281.6181 Q823.6106,281.4463 823.1418,281.4463 Q822.5637,281.4463 822.0637,281.7119 Q821.5793,281.9619 821.2043,282.54 Q820.8293,283.1025 820.8293,283.8838 L820.8293,284.7275 Q820.8293,285.665 821.5168,286.3056 Q822.2043,286.9306 823.4074,286.9306 Q824.1418,286.9306 824.6418,286.7275 Q824.9231,286.6181 825.2512,286.2744 Q825.4543,286.0713 825.5637,286.0244 Q825.6887,285.9619 825.8293,285.9619 Q826.0949,285.9619 826.2824,286.165 Q826.4856,286.3525 826.4856,286.6181 Q826.4856,286.8838 826.2199,287.1963 Q825.8293,287.6338 825.2199,287.8838 Q824.4074,288.2275 823.4231,288.2275 Q822.2668,288.2275 821.3293,287.7588 Q820.5793,287.3681 820.0481,286.5556 Q819.5324,285.7275 819.5324,284.7588 L819.5324,283.8681 Q819.5324,282.8525 820.0012,281.9775 Q820.4856,281.1025 821.3137,280.6338 Q822.1574,280.1494 823.0949,280.1494 Q823.6574,280.1494 824.1418,280.29 Q824.6418,280.415 825.0637,280.6806 Z " fill="#000000"/><text fill="#14324A" font-family="Segoe UI" font-size="13" lengthAdjust="spacing" textLength="109.7573" x="843.1262" y="289.4228">VenueServiceImpl</text><line style="stroke:#2C6E8C;stroke-width:0.5;" x1="730.79" x2="1035.2197" y1="299.04" y2="299.04"/><rect fill="none" height="6" style="stroke:#C82930;stroke-width:1.0;" width="6" x="737.79" y="310.1855"/><text fill="#000000" font-family="Segoe UI" font-size="13" lengthAdjust="spacing" textLength="214.6523" x="748.79" y="317.0683">venueRepository: VenueRepository</text><rect fill="none" height="6" style="stroke:#C82930;stroke-width:1.0;" width="6" x="737.79" y="327.4765"/><text fill="#000000" font-family="Segoe UI" font-size="13" lengthAdjust="spacing" textLength="177.9502" x="748.79" y="334.3593">venueMapper: VenueMapper</text><line style="stroke:#2C6E8C;stroke-width:0.5;" x1="730.79" x2="1035.2197" y1="341.622" y2="341.622"/><ellipse cx="740.79" cy="355.7675" fill="#84BE84" rx="3" ry="3" style="stroke:#038048;stroke-width:1.0;"/><text fill="#000000" font-family="Segoe UI" font-size="13" lengthAdjust="spacing" textLength="238.2847" x="748.79" y="359.6504">create(VenueRequest): VenueResponse</text><ellipse cx="740.79" cy="373.0586" fill="#84BE84" rx="3" ry="3" style="stroke:#038048;stroke-width:1.0;"/><text fill="#000000" font-family="Segoe UI" font-size="13" lengthAdjust="spacing" textLength="195.6348" x="748.79" y="376.9414">findById(Long): VenueResponse</text><ellipse cx="740.79" cy="390.3496" fill="#84BE84" rx="3" ry="3" style="stroke:#038048;stroke-width:1.0;"/><text fill="#000000" font-family="Segoe UI" font-size="13" lengthAdjust="spacing" textLength="258.4512" x="748.79" y="394.2324">findAll(Pageable): Page&lt;VenueResponse&gt;</text><ellipse cx="740.79" cy="407.6406" fill="#84BE84" rx="3" ry="3" style="stroke:#038048;stroke-width:1.0;"/><text fill="#000000" font-family="Segoe UI" font-size="13" lengthAdjust="spacing" textLength="281.4297" x="748.79" y="411.5234">update(Long, VenueRequest): VenueResponse</text><ellipse cx="740.79" cy="424.9316" fill="#84BE84" rx="3" ry="3" style="stroke:#038048;stroke-width:1.0;"/><text fill="#000000" font-family="Segoe UI" font-size="13" lengthAdjust="spacing" textLength="111.8521" x="748.79" y="428.8144">delete(Long): void</text><rect fill="#F24D5C" height="6" style="stroke:#C82930;stroke-width:1.0;" width="6" x="737.79" y="439.2226"/><text fill="#000000" font-family="Segoe UI" font-size="13" lengthAdjust="spacing" textLength="202.6997" x="748.79" y="446.1054">findVenueOrThrow(Long): Venue</text></g></a><!--reverse link CategoryService to CategoryServiceImpl--><g id="link_CategoryService_CategoryServiceImpl"><path codeLine="88" d="M192,192.84 C192,221.45 192,237.49 192,268.54 " fill="none" id="CategoryService-backto-CategoryServiceImpl" style="stroke:#2C6E8C;stroke-width:1.0;stroke-dasharray:7.0,7.0;"/><polygon fill="none" points="192,174.84,186,192.84,198,192.84,192,174.84" style="stroke:#2C6E8C;stroke-width:1.0;"/></g><!--reverse link EventService to EventServiceImpl--><g id="link_EventService_EventServiceImpl"><path codeLine="89" d="M546,192.84 C546,211.14 546,213.66 546,234.2 " fill="none" id="EventService-backto-EventServiceImpl" style="stroke:#2C6E8C;stroke-width:1.0;stroke-dasharray:7.0,7.0;"/><polygon fill="none" points="546,174.84,540,192.84,552,192.84,546,174.84" style="stroke:#2C6E8C;stroke-width:1.0;"/></g><!--reverse link VenueService to VenueServiceImpl--><g id="link_VenueService_VenueServiceImpl"><path codeLine="90" d="M883,192.84 C883,221.45 883,237.49 883,268.54 " fill="none" id="VenueService-backto-VenueServiceImpl" style="stroke:#2C6E8C;stroke-width:1.0;stroke-dasharray:7.0,7.0;"/><polygon fill="none" points="883,174.84,877,192.84,889,192.84,883,174.84" style="stroke:#2C6E8C;stroke-width:1.0;"/></g><text fill="#888888" font-family="Segoe UI" font-size="10" lengthAdjust="spacing" textLength="2.7588" x="521.1206" y="520.741">&#160;</text><a href="https://github.com/talsma-ict/umldoclet" target="_top" title="https://github.com/talsma-ict/umldoclet" xlink:actuate="onRequest" xlink:href="https://github.com/talsma-ict/umldoclet" xlink:show="new" xlink:title="https://github.com/talsma-ict/umldoclet" xlink:type="simple"><text fill="#888888" font-family="Segoe UI" font-size="10" lengthAdjust="spacing" textLength="77.7783" x="483.6108" y="534.0418">UMLDoclet 2.2.1</text></a><!--SRC=[pLXTS-8s57tVNw5E7yhE1jiGXn1FfZD0O9iEssOsP5ye3y8MHXDRyaeo6RhT_zuhsu3jcAvD-W0yE9Bknz6zHoTO227q2nhnQ2kelrP8SQJMLAAdJrE4cOTymeZ0YdY8XjWd4Yr9m9alKqE2SApMN22-IaOk5uB8Y3EFCX_zZZSOIHuBbqZZtJkKf9hjehzWcOk-tEh9E-u6HA7Mw7qEKjVgzDfTgzj3Cnp84AFxqSp8eXrykaRNw2287L2NC0aXO-OHaS0QHDY5npHTkK0R8YJb37oiB8xUgikPmfH9566XfDxIGu2PqbWx1kItZMlK6ZnEYzYicmJR1He8XcCFVUPVu_rsvJDb40s7IAwnnrzqLLQm2L9Q5Hp0ZhY0Qg1-QSqZAnm7QWBe_i0XGO_4vmGztHytUwH_4zIvB1cu0PPoYDrdFyiMGDz-djYJ_cHOQSe5r2ypwuvwu_weocmW17_vePM6bHbrxCkkFIWPKQQ8M66Nl08u7anw4-keUG7a-6RSAwU7rZy3SLzlV0ZVkoF6-QZ3_iY-iweDSzkwlBIlhz92_XG9x0DF0xpbiK8ULwati5GIxQ_0mN5IYcIHW7sX4NA6NKusX2bf98ybvv3JDoGH6s0l-fOwwS- -1cW49yZdOlkO6StdAneGnnmvvXCuIXC0Kcd2GOb37Tfy4Do7NOGGsVn8rJfUcacsTfQkZIDgAYnyean18Wx7mOGfZxlI19nc7gUPnsbcECqI96Ejmc2n0FWez_c6br89xAhlw8Ch2BYqTdwVYJv5whs33ZDQLxAJKnLXHPattDvxhIdeKrF7GH2q7g0DU1aGyDL_tfO3_7eqGXnv6hnEV87Ui0MFW9AHtGOsd7fxq- -7nYS7gjpq-p0Aph3n6bPryzlklYeHbnIEn3PVgTrSjSyd74L47EpJSS7sH4Orez69t7aJOVwB9KcHDAPTX3_5R0twNDvC5QqEUZBMZJqZCSdZgQqaYTEXfDcmeORKzweYGS6xfdgS1Bk9RkIBUIwYKSPqH358Meo3N8oB4qLhM8j9tlfBSUBjQfJWsKdH-32erA7QZMr0mbEOToBTQgbEubwId6JkjMdIZ99fClS_QraIyuoqB8-djfPbpDrrAHisrBBwNbMCAdZNrBAJO3VHidmnpqNBofYEQ5apTKgiTqhpvJ2eL9hQPMz0aLDuSI8PQYdDZ-KZ8qlsgFLsvJZbDwdRVmpZH5_T-oQf2p-wckGj__DiahIWZasIbbcULlbMgcsGOy6ASz3X4lL_sm9nfvGzPo_E_UhL9trx4r16PclgFZC2nztADJT9P-RoPRd-OlFvMgb8EgRf9mVSqETM9JT7RUegCmu3BxqoAbqUBHRPPT37_QsKljbfMzTjgpVhs8vzvNHjetzpStLbVx2wZcNDnx7W4J4VCCZCuby0]--></g></svg>