<svg xmlns="http://www.w3.org/2000/svg" xmlns:xlink="http://www.w3.org/1999/xlink" contentStyleType="text/css" height="383px" preserveAspectRatio="none" style="width:391px;height:383px;background:#FFFFFF;" version="1.1" viewBox="0 0 391 383" width="391px" zoomAndPan="magnify"><defs/><g><!--cluster com.monacoevents.eventbooking.service--><g id="cluster_com.monacoevents.eventbooking.service"><path d="M16.5,4 L295.2646,4 A3.75,3.75 0 0 1 297.7646,6.5 L304.7646,27.6094 L381.5,27.6094 A2.5,2.5 0 0 1 384,30.1094 L384,345.5 A2.5,2.5 0 0 1 381.5,348 L16.5,348 A2.5,2.5 0 0 1 14,345.5 L14,6.5 A2.5,2.5 0 0 1 16.5,4 " fill="none" style="stroke:#000000;stroke-width:1.5;"/><line style="stroke:#000000;stroke-width:1.5;" x1="14" x2="304.7646" y1="27.6094" y2="27.6094"/><text fill="#000000" font-family="sans-serif" font-size="14" font-weight="bold" lengthAdjust="spacing" textLength="277.7646" x="18" y="20.5332">com.monacoevents.eventbooking.service</text></g><!--class CategoryService--><a href="file:/C:/Users/loris/Documents/Programming/Github/event-booking-api/target/reports/apidocs/com/monacoevents/eventbooking/service/CategoryService.html" target="_top" title="file:/C:/Users/loris/Documents/Programming/Github/event-booking-api/target/reports/apidocs/com/monacoevents/eventbooking/service/CategoryService.html" xlink:actuate="onRequest" xlink:href="file:/C:/Users/loris/Documents/Programming/Github/event-booking-api/target/reports/apidocs/com/monacoevents/eventbooking/service/CategoryService.html" xlink:show="new" xlink:title="file:/C:/Users/loris/Documents/Programming/Github/event-booking-api/target/reports/apidocs/com/monacoevents/eventbooking/service/CategoryService.html" xlink:type="simple"><g id="elem_CategoryService"><rect codeLine="12" fill="#F1F1F1" height="136.0469" id="CategoryService" rx="2.5" ry="2.5" style="stroke:#181818;stroke-width:0.5;" width="353.6465" x="22" y="32"/><ellipse cx="142.8286" cy="48" fill="#B4A7E5" rx="11" ry="11" style="stroke:#181818;stroke-width:1.0;"/><path d="M143.7817,44.6406 L143.7817,51.2969 L145.5005,51.2969 Q146.1099,51.2969 146.3755,51.5313 Q146.6411,51.7656 146.6411,52.1563 Q146.6411,52.5313 146.3755,52.7656 Q146.1099,53 145.5005,53 L140.3599,53 Q139.7505,53 139.4849,52.7656 Q139.2192,52.5313 139.2192,52.1406 Q139.2192,51.7656 139.4849,51.5313 Q139.7505,51.2969 140.3599,51.2969 L142.0786,51.2969 L142.0786,44.6406 L140.3599,44.6406 Q139.7505,44.6406 139.4849,44.4063 Q139.2192,44.1719 139.2192,43.7813 Q139.2192,43.4063 139.4849,43.1719 Q139.7505,42.9375 140.3599,42.9375 L145.5005,42.9375 Q146.1099,42.9375 146.3755,43.1719 Q146.6411,43.4063 146.6411,43.7813 Q146.6411,44.1719 146.3755,44.4063 Q146.1099,44.6406 145.5005,44.6406 L143.7817,44.6406 Z " fill="#000000"/><text fill="#000000" font-family="sans-serif" font-size="14" font-style="italic" lengthAdjust="spacing" textLength="103.4893" x="163.3286" y="53.7285">CategoryService</text><line style="stroke:#181818;stroke-width:0.5;" x1="23" x2="374.6465" y1="64" y2="64"/><line style="stroke:#181818;stroke-width:0.5;" x1="23" x2="374.6465" y1="72" y2="72"/><ellipse cx="33" cy="86.3047" fill="#84BE84" rx="3" ry="3" style="stroke:#038048;stroke-width:1.0;"/><text fill="#000000" font-family="sans-serif" font-size="14" font-style="italic" lengthAdjust="spacing" textLength="284.8125" x="42" y="90.5332">create(CategoryRequest): CategoryResponse</text><ellipse cx="33" cy="103.9141" fill="#84BE84" rx="3" ry="3" style="stroke:#038048;stroke-width:1.0;"/><text fill="#000000" font-family="sans-serif" font-size="14" font-style="italic" lengthAdjust="spacing" textLength="218.6816" x="42" y="108.1426">findById(Long): CategoryResponse</text><ellipse cx="33" cy="121.5234" fill="#84BE84" rx="3" ry="3" style="stroke:#038048;stroke-width:1.0;"/><text fill="#000000" font-family="sans-serif" font-size="14" font-style="italic" lengthAdjust="spacing" textLength="213.2197" x="42" y="125.752">findAll(): List&lt;CategoryResponse&gt;</text><ellipse cx="33" cy="139.1328" fill="#84BE84" rx="3" ry="3" style="stroke:#038048;stroke-width:1.0;"/><text fill="#000000" font-family="sans-serif" font-size="14" font-style="italic" lengthAdjust="spacing" textLength="327.6465" x="42" y="143.3613">update(Long, CategoryRequest): CategoryResponse</text><ellipse cx="33" cy="156.7422" fill="#84BE84" rx="3" ry="3" style="stroke:#038048;stroke-width:1.0;"/><text fill="#000000" font-family="sans-serif" font-size="14" font-style="italic" lengthAdjust="spacing" textLength="112.0752" x="42" y="160.9707">delete(Long): void</text></g></a><!--class CategoryServiceImpl--><a href="file:/C:/Users/loris/Documents/Programming/Github/event-booking-api/target/reports/apidocs/com/monacoevents/eventbooking/service/CategoryServiceImpl.html" target="_top" title="file:/C:/Users/loris/Documents/Programming/Github/event-booking-api/target/reports/apidocs/com/monacoevents/eventbooking/service/CategoryServiceImpl.html" xlink:actuate="onRequest" xlink:href="file:/C:/Users/loris/Documents/Programming/Github/event-booking-api/target/reports/apidocs/com/monacoevents/eventbooking/service/CategoryServiceImpl.html" xlink:show="new" xlink:title="file:/C:/Users/loris/Documents/Programming/Github/event-booking-api/target/reports/apidocs/com/monacoevents/eventbooking/service/CategoryServiceImpl.html" xlink:type="simple"><g id="elem_CategoryServiceImpl"><rect codeLine="20" fill="#F1F1F1" height="136.0469" id="CategoryServiceImpl" rx="2.5" ry="2.5" style="stroke:#181818;stroke-width:0.5;" width="353.6465" x="22" y="204"/><ellipse cx="129.6045" cy="220" fill="#ADD1B2" rx="11" ry="11" style="stroke:#181818;stroke-width:1.0;"/><path d="M132.3701,215.875 Q132.5264,215.6563 132.7139,215.5469 Q132.9014,215.4375 133.1201,215.4375 Q133.4951,215.4375 133.7295,215.7031 Q133.9639,215.9531 133.9639,216.5625 L133.9639,218.0156 Q133.9639,218.625 133.7295,218.8906 Q133.4951,219.1563 133.1201,219.1563 Q132.7764,219.1563 132.5732,218.9531 Q132.3701,218.7656 132.2607,218.25 Q132.2139,217.8906 132.0264,217.7031 Q131.6982,217.3281 131.0889,217.1094 Q130.4795,216.8906 129.8545,216.8906 Q129.0889,216.8906 128.4482,217.2188 Q127.8232,217.5469 127.3232,218.2969 Q126.8389,219.0469 126.8389,220.0781 L126.8389,221.1719 Q126.8389,222.4063 127.7295,223.2344 Q128.6201,224.0469 130.2139,224.0469 Q131.1514,224.0469 131.8076,223.7969 Q132.1982,223.6406 132.6201,223.2031 Q132.8857,222.9375 133.0264,222.8594 Q133.1826,222.7813 133.3857,222.7813 Q133.7139,222.7813 133.9639,223.0469 Q134.2295,223.2969 134.2295,223.6406 Q134.2295,223.9844 133.8857,224.3906 Q133.3857,224.9688 132.5889,225.2969 Q131.5107,225.75 130.2139,225.75 Q128.6982,225.75 127.4951,225.125 Q126.5107,224.625 125.8232,223.5625 Q125.1357,222.4844 125.1357,221.2031 L125.1357,220.0469 Q125.1357,218.7188 125.7451,217.5781 Q126.3701,216.4219 127.4639,215.8125 Q128.5576,215.1875 129.792,215.1875 Q130.5264,215.1875 131.167,215.3594 Q131.8232,215.5156 132.3701,215.875 Z " fill="#000000"/><text fill="#000000" font-family="sans-serif" font-size="14" lengthAdjust="spacing" textLength="129.9375" x="150.1045" y="225.7285">CategoryServiceImpl</text><line style="stroke:#181818;stroke-width:0.5;" x1="23" x2="374.6465" y1="236" y2="236"/><line style="stroke:#181818;stroke-width:0.5;" x1="23" x2="374.6465" y1="244" y2="244"/><ellipse cx="33" cy="258.3047" fill="#84BE84" rx="3" ry="3" style="stroke:#038048;stroke-width:1.0;"/><text fill="#000000" font-family="sans-serif" font-size="14" lengthAdjust="spacing" textLength="284.8125" x="42" y="262.5332">create(CategoryRequest): CategoryResponse</text><ellipse cx="33" cy="275.9141" fill="#84BE84" rx="3" ry="3" style="stroke:#038048;stroke-width:1.0;"/><text fill="#000000" font-family="sans-serif" font-size="14" lengthAdjust="spacing" textLength="218.6816" x="42" y="280.1426">findById(Long): CategoryResponse</text><ellipse cx="33" cy="293.5234" fill="#84BE84" rx="3" ry="3" style="stroke:#038048;stroke-width:1.0;"/><text fill="#000000" font-family="sans-serif" font-size="14" lengthAdjust="spacing" textLength="213.2197" x="42" y="297.752">findAll(): List&lt;CategoryResponse&gt;</text><ellipse cx="33" cy="311.1328" fill="#84BE84" rx="3" ry="3" style="stroke:#038048;stroke-width:1.0;"/><text fill="#000000" font-family="sans-serif" font-size="14" lengthAdjust="spacing" textLength="327.6465" x="42" y="315.3613">update(Long, CategoryRequest): CategoryResponse</text><ellipse cx="33" cy="328.7422" fill="#84BE84" rx="3" ry="3" style="stroke:#038048;stroke-width:1.0;"/><text fill="#000000" font-family="sans-serif" font-size="14" lengthAdjust="spacing" textLength="112.0752" x="42" y="332.9707">delete(Long): void</text></g></a><polygon fill="none" points="199,168.1885,193,186.1885,205,186.1885,199,168.1885" style="stroke:#181818;stroke-width:1.0;"/><path d="M199,186.1885 C199,197.8824 199,192.0471 199,203.7428 " fill="none" style="stroke:#181818;stroke-width:1.0;stroke-dasharray:7.0,7.0;"/><text fill="#888888" font-family="sans-serif" font-size="10" lengthAdjust="spacing" textLength="2.7783" x="186.1108" y="360.3809">&#160;</text><a href="https://github.com/talsma-ict/umldoclet" target="_top" title="https://github.com/talsma-ict/umldoclet" xlink:actuate="onRequest" xlink:href="https://github.com/talsma-ict/umldoclet" xlink:show="new" xlink:title="https://github.com/talsma-ict/umldoclet" xlink:type="simple"><text fill="#888888" font-family="sans-serif" font-size="10" lengthAdjust="spacing" textLength="74.4775" x="150.2612" y="372.959">UMLDoclet 2.2.1</text></a><!--SRC=[pLNBRjim4BptAxReeGuIaxBQl8IWWEiMQGeN21BdvFf0IskPC4Mg9EL2IFFlNSfAeXe9aCUbkX0cEJkpEyir0C1x69cojZ9VUl06_58wkFen1g4po56Z5Hupa8N8qS4SbT6vsrn449LV6WjcqVnAZRNeIgCpgNFuBjO2dAbiYewzUGCDrUGs-c_XEj7dTTZyObA57dgZdOwaE1eSzECeFe29KAuGS3QQi3RQFIPcCHi0nLOoHUqePAKpj8siOIbIMiQRaprOetNIQC94RPoGQcgq5r8xA8NrBgHqheJsGUk04Vz7TWYzuUNuNstHSQDj3uPMYog32_EhkaltRMb5JegLg4tbmHNeXHRDaIFD3ebAUAfVacm097H5PIOj1IkC5gd1DMhlMBFCZLbHOPb3kwPSu7e32f_K7kr2qEQ8wfaRMr-sbwRJXLIOy572hmZek39MEavbgueGcfzRarjH51IPdqg_hEQyOUktT7rHIkw5pT5pYwMXud3QoapgEEdaNPsygvEtElcM9BRqXPhDI3vqlcinTzwArD_0RcgH8BrRt0M6clgT1EvtGfSvV3J2GkhiStsMzSRKhSy53fNg4MOidJ_P1dvw55cLMH0T2FVW5T8pf7x6M-5h8xExgpVtXgTAEBTjzbbHgl_Gy23hOTDVwFJpx7scfwyoyWdkjSkJddYIR3_dap-ClH0RRDXmdpXVgqxQ2sDeV6nvywqkqOwbNeqCTH2yEthuz2gCMIKrqcHFLngfAwDEoWqTx_2rN3_rTBhqldG9vtdJX2pqbcz6V5-cdbU5oZQpVMlApsRjr3wz-_i88xWV7VQZWyaWIWOVai4-Ym_Ze_tZ_IZQZU8aYgPVAsjAvEU2NiFiBm00]--></g></svg>