<svg xmlns="http://www.w3.org/2000/svg" xmlns:xlink="http://www.w3.org/1999/xlink" contentStyleType="text/css" height="506px" preserveAspectRatio="none" style="width:1061px;height:506px;background:#FFFFFF;" version="1.1" viewBox="0 0 1061 506" width="1061px" zoomAndPan="magnify"><defs/><g><!--cluster com.monacoevents.eventbooking.service--><g id="cluster_com.monacoevents.eventbooking.service"><path d="M16.5,4 L295.2646,4 A3.75,3.75 0 0 1 297.7646,6.5 L304.7646,27.6094 L1051.5,27.6094 A2.5,2.5 0 0 1 1054,30.1094 L1054,468.5 A2.5,2.5 0 0 1 1051.5,471 L16.5,471 A2.5,2.5 0 0 1 14,468.5 L14,6.5 A2.5,2.5 0 0 1 16.5,4 " fill="none" style="stroke:#000000;stroke-width:1.5;"/><line style="stroke:#000000;stroke-width:1.5;" x1="14" x2="304.7646" y1="27.6094" y2="27.6094"/><text fill="#000000" font-family="sans-serif" font-size="14" font-weight="bold" lengthAdjust="spacing" textLength="277.7646" x="18" y="20.5332">com.monacoevents.eventbooking.service</text></g><!--class CategoryService--><a href="file:/C:/Users/loris/Documents/Programming/Github/event-booking-api/target/reports/apidocs/com/monacoevents/eventbooking/service/CategoryService.html" target="_top" title="file:/C:/Users/loris/Documents/Programming/Github/event-booking-api/target/reports/apidocs/com/monacoevents/eventbooking/service/CategoryService.html" xlink:actuate="onRequest" xlink:href="file:/C:/Users/loris/Documents/Programming/Github/event-booking-api/target/reports/apidocs/com/monacoevents/eventbooking/service/CategoryService.html" xlink:show="new" xlink:title="file:/C:/Users/loris/Documents/Programming/Github/event-booking-api/target/reports/apidocs/com/monacoevents/eventbooking/service/CategoryService.html" xlink:type="simple"><g id="elem_CategoryService"><rect codeLine="12" fill="#F1F1F1" height="136.0469" id="CategoryService" rx="2.5" ry="2.5" style="stroke:#181818;stroke-width:0.5;" width="353.6465" x="692" y="32"/><ellipse cx="812.8286" cy="48" fill="#B4A7E5" rx="11" ry="11" style="stroke:#181818;stroke-width:1.0;"/><path d="M813.7817,44.6406 L813.7817,51.2969 L815.5005,51.2969 Q816.1099,51.2969 816.3755,51.5313 Q816.6411,51.7656 816.6411,52.1563 Q816.6411,52.5313 816.3755,52.7656 Q816.1099,53 815.5005,53 L810.3599,53 Q809.7505,53 809.4849,52.7656 Q809.2192,52.5313 809.2192,52.1406 Q809.2192,51.7656 809.4849,51.5313 Q809.7505,51.2969 810.3599,51.2969 L812.0786,51.2969 L812.0786,44.6406 L810.3599,44.6406 Q809.7505,44.6406 809.4849,44.4063 Q809.2192,44.1719 809.2192,43.7813 Q809.2192,43.4063 809.4849,43.1719 Q809.7505,42.9375 810.3599,42.9375 L815.5005,42.9375 Q816.1099,42.9375 816.3755,43.1719 Q816.6411,43.4063 816.6411,43.7813 Q816.6411,44.1719 816.3755,44.4063 Q816.1099,44.6406 815.5005,44.6406 L813.7817,44.6406 Z " fill="#000000"/><text fill="#000000" font-family="sans-serif" font-size="14" font-style="italic" lengthAdjust="spacing" textLength="103.4893" x="833.3286" y="53.7285">CategoryService</text><line style="stroke:#181818;stroke-width:0.5;" x1="693" x2="1044.6465" y1="64" y2="64"/><line style="stroke:#181818;stroke-width:0.5;" x1="693" x2="1044.6465" y1="72" y2="72"/><ellipse cx="703" cy="86.3047" fill="#84BE84" rx="3" ry="3" style="stroke:#038048;stroke-width:1.0;"/><text fill="#000000" font-family="sans-serif" font-size="14" font-style="italic" lengthAdjust="spacing" textLength="284.8125" x="712" y="90.5332">create(CategoryRequest): CategoryResponse</text><ellipse cx="703" cy="103.9141" fill="#84BE84" rx="3" ry="3" style="stroke:#038048;stroke-width:1.0;"/><text fill="#000000" font-family="sans-serif" font-size="14" font-style="italic" lengthAdjust="spacing" textLength="218.6816" x="712" y="108.1426">findById(Long): CategoryResponse</text><ellipse cx="703" cy="121.5234" fill="#84BE84" rx="3" ry="3" style="stroke:#038048;stroke-width:1.0;"/><text fill="#000000" font-family="sans-serif" font-size="14" font-style="italic" lengthAdjust="spacing" textLength="283.2949" x="712" y="125.752">findAll(Pageable): Page&lt;CategoryResponse&gt;</text><ellipse cx="703" cy="139.1328" fill="#84BE84" rx="3" ry="3" style="stroke:#038048;stroke-width:1.0;"/><text fill="#000000" font-family="sans-serif" font-size="14" font-style="italic" lengthAdjust="spacing" textLength="327.6465" x="712" y="143.3613">update(Long, CategoryRequest): CategoryResponse</text><ellipse cx="703" cy="156.7422" fill="#84BE84" rx="3" ry="3" style="stroke:#038048;stroke-width:1.0;"/><text fill="#000000" font-family="sans-serif" font-size="14" font-style="italic" lengthAdjust="spacing" textLength="112.0752" x="712" y="160.9707">delete(Long): void</text></g></a><!--class CategoryServiceImpl--><a href="file:/C:/Users/loris/Documents/Programming/Github/event-booking-api/target/reports/apidocs/com/monacoevents/eventbooking/service/CategoryServiceImpl.html" target="_top" title="file:/C:/Users/loris/Documents/Programming/Github/event-booking-api/target/reports/apidocs/com/monacoevents/eventbooking/service/CategoryServiceImpl.html" xlink:actuate="onRequest" xlink:href="file:/C:/Users/loris/Documents/Programming/Github/event-booking-api/target/reports/apidocs/com/monacoevents/eventbooking/service/CategoryServiceImpl.html" xlink:show="new" xlink:title="file:/C:/Users/loris/Documents/Programming/Github/event-booking-api/target/reports/apidocs/com/monacoevents/eventbooking/service/CategoryServiceImpl.html" xlink:type="simple"><g id="elem_CategoryServiceImpl"><rect codeLine="20" fill="#F1F1F1" height="188.875" id="CategoryServiceImpl" rx="2.5" ry="2.5" style="stroke:#181818;stroke-width:0.5;" width="353.6465" x="692" y="239"/><ellipse cx="799.6045" cy="255" fill="#ADD1B2" rx="11" ry="11" style="stroke:#181818;stroke-width:1.0;"/><path d="M802.3701,250.875 Q802.5264,250.6563 802.7139,250.5469 Q802.9014,250.4375 803.1201,250.4375 Q803.4951,250.4375 803.7295,250.7031 Q803.9639,250.9531 803.9639,251.5625 L803.9639,253.0156 Q803.9639,253.625 803.7295,253.8906 Q803.4951,254.1563 803.1201,254.1563 Q802.7764,254.1563 802.5732,253.9531 Q802.3701,253.7656 802.2607,253.25 Q802.2139,252.8906 802.0264,252.7031 Q801.6982,252.3281 801.0889,252.1094 Q800.4795,251.8906 799.8545,251.8906 Q799.0889,251.8906 798.4482,252.2188 Q797.8232,252.5469 797.3232,253.2969 Q796.8389,254.0469 796.8389,255.0781 L796.8389,256.1719 Q796.8389,257.4063 797.7295,258.2344 Q798.6201,259.0469 800.2139,259.0469 Q801.1514,259.0469 801.8076,258.7969 Q802.1982,258.6406 802.6201,258.2031 Q802.8857,257.9375 803.0264,257.8594 Q803.1826,257.7813 803.3857,257.7813 Q803.7139,257.7813 803.9639,258.0469 Q804.2295,258.2969 804.2295,258.6406 Q804.2295,258.9844 803.8857,259.3906 Q803.3857,259.9688 802.5889,260.2969 Q801.5107,260.75 800.2139,260.75 Q798.6982,260.75 797.4951,260.125 Q796.5107,259.625 795.8232,258.5625 Q795.1357,257.4844 795.1357,256.2031 L795.1357,255.0469 Q795.1357,253.7188 795.7451,252.5781 Q796.3701,251.4219 797.4639,250.8125 Q798.5576,250.1875 799.792,250.1875 Q800.5264,250.1875 801.167,250.3594 Q801.8232,250.5156 802.3701,250.875 Z " fill="#000000"/><text fill="#000000" font-family="sans-serif" font-size="14" lengthAdjust="spacing" textLength="129.9375" x="820.1045" y="260.7285">CategoryServiceImpl</text><line style="stroke:#181818;stroke-width:0.5;" x1="693" x2="1044.6465" y1="271" y2="271"/><rect fill="none" height="6" style="stroke:#C82930;stroke-width:1.0;" width="6" x="700" y="282.3047"/><text fill="#000000" font-family="sans-serif" font-size="14" lengthAdjust="spacing" textLength="252.1162" x="712" y="289.5332">categoryRepository: CategoryRepository</text><rect fill="none" height="6" style="stroke:#C82930;stroke-width:1.0;" width="6" x="700" y="299.9141"/><text fill="#000000" font-family="sans-serif" font-size="14" lengthAdjust="spacing" textLength="213.2197" x="712" y="307.1426">categoryMapper: CategoryMapper</text><line style="stroke:#181818;stroke-width:0.5;" x1="693" x2="1044.6465" y1="314.2188" y2="314.2188"/><ellipse cx="703" cy="328.5234" fill="#84BE84" rx="3" ry="3" style="stroke:#038048;stroke-width:1.0;"/><text fill="#000000" font-family="sans-serif" font-size="14" lengthAdjust="spacing" textLength="284.8125" x="712" y="332.752">create(CategoryRequest): CategoryResponse</text><ellipse cx="703" cy="346.1328" fill="#84BE84" rx="3" ry="3" style="stroke:#038048;stroke-width:1.0;"/><text fill="#000000" font-family="sans-serif" font-size="14" lengthAdjust="spacing" textLength="218.6816" x="712" y="350.3613">findById(Long): CategoryResponse</text><ellipse cx="703" cy="363.7422" fill="#84BE84" rx="3" ry="3" style="stroke:#038048;stroke-width:1.0;"/><text fill="#000000" font-family="sans-serif" font-size="14" lengthAdjust="spacing" textLength="283.2949" x="712" y="367.9707">findAll(Pageable): Page&lt;CategoryResponse&gt;</text><ellipse cx="703" cy="381.3516" fill="#84BE84" rx="3" ry="3" style="stroke:#038048;stroke-width:1.0;"/><text fill="#000000" font-family="sans-serif" font-size="14" lengthAdjust="spacing" textLength="327.6465" x="712" y="385.5801">update(Long, CategoryRequest): CategoryResponse</text><ellipse cx="703" cy="398.9609" fill="#84BE84" rx="3" ry="3" style="stroke:#038048;stroke-width:1.0;"/><text fill="#000000" font-family="sans-serif" font-size="14" lengthAdjust="spacing" textLength="112.0752" x="712" y="403.1895">delete(Long): void</text><rect fill="#F24D5C" height="6" style="stroke:#C82930;stroke-width:1.0;" width="6" x="700" y="413.5703"/><text fill="#000000" font-family="sans-serif" font-size="14" lengthAdjust="spacing" textLength="238.8818" x="712" y="420.7988">findCategoryOrThrow(Long): Category</text></g></a><!--class EventService--><a href="file:/C:/Users/loris/Documents/Programming/Github/event-booking-api/target/reports/apidocs/com/monacoevents/eventbooking/service/EventService.html" target="_top" title="file:/C:/Users/loris/Documents/Programming/Github/event-booking-api/target/reports/apidocs/com/monacoevents/eventbooking/service/EventService.html" xlink:actuate="onRequest" xlink:href="file:/C:/Users/loris/Documents/Programming/Github/event-booking-api/target/reports/apidocs/com/monacoevents/eventbooking/service/EventService.html" xlink:show="new" xlink:title="file:/C:/Users/loris/Documents/Programming/Github/event-booking-api/target/reports/apidocs/com/monacoevents/eventbooking/service/EventService.html" xlink:type="simple"><g id="elem_EventService"><rect codeLine="31" fill="#F1F1F1" height="136.0469" id="EventService" rx="2.5" ry="2.5" style="stroke:#181818;stroke-width:0.5;" width="311.6328" x="362" y="32"/><ellipse cx="472.3252" cy="48" fill="#B4A7E5" rx="11" ry="11" style="stroke:#181818;stroke-width:1.0;"/><path d="M473.2783,44.6406 L473.2783,51.2969 L474.9971,51.2969 Q475.6064,51.2969 475.8721,51.5313 Q476.1377,51.7656 476.1377,52.1563 Q476.1377,52.5313 475.8721,52.7656 Q475.6064,53 474.9971,53 L469.8564,53 Q469.2471,53 468.9814,52.7656 Q468.7158,52.5313 468.7158,52.1406 Q468.7158,51.7656 468.9814,51.5313 Q469.2471,51.2969 469.8564,51.2969 L471.5752,51.2969 L471.5752,44.6406 L469.8564,44.6406 Q469.2471,44.6406 468.9814,44.4063 Q468.7158,44.1719 468.7158,43.7813 Q468.7158,43.4063 468.9814,43.1719 Q469.2471,42.9375 469.8564,42.9375 L474.9971,42.9375 Q475.6064,42.9375 475.8721,43.1719 Q476.1377,43.4063 476.1377,43.7813 Q476.1377,44.1719 475.8721,44.4063 Q475.6064,44.6406 474.9971,44.6406 L473.2783,44.6406 Z " fill="#000000"/><text fill="#000000" font-family="sans-serif" font-size="14" font-style="italic" lengthAdjust="spacing" textLength="82.4824" x="492.8252" y="53.7285">EventService</text><line style="stroke:#181818;stroke-width:0.5;" x1="363" x2="672.6328" y1="64" y2="64"/><line style="stroke:#181818;stroke-width:0.5;" x1="363" x2="672.6328" y1="72" y2="72"/><ellipse cx="373" cy="86.3047" fill="#84BE84" rx="3" ry="3" style="stroke:#038048;stroke-width:1.0;"/><text fill="#000000" font-family="sans-serif" font-size="14" font-style="italic" lengthAdjust="spacing" textLength="242.7988" x="382" y="90.5332">create(EventRequest): EventResponse</text><ellipse cx="373" cy="103.9141" fill="#84BE84" rx="3" ry="3" style="stroke:#038048;stroke-width:1.0;"/><text fill="#000000" font-family="sans-serif" font-size="14" font-style="italic" lengthAdjust="spacing" textLength="197.6748" x="382" y="108.1426">findById(Long): EventResponse</text><ellipse cx="373" cy="121.5234" fill="#84BE84" rx="3" ry="3" style="stroke:#038048;stroke-width:1.0;"/><text fill="#000000" font-family="sans-serif" font-size="14" font-style="italic" lengthAdjust="spacing" textLength="262.2881" x="382" y="125.752">findAll(Pageable): Page&lt;EventResponse&gt;</text><ellipse cx="373" cy="139.1328" fill="#84BE84" rx="3" ry="3" style="stroke:#038048;stroke-width:1.0;"/><text fill="#000000" font-family="sans-serif" font-size="14" font-style="italic" lengthAdjust="spacing" textLength="285.6328" x="382" y="143.3613">update(Long, EventRequest): EventResponse</text><ellipse cx="373" cy="156.7422" fill="#84BE84" rx="3" ry="3" style="stroke:#038048;stroke-width:1.0;"/><text fill="#000000" font-family="sans-serif" font-size="14" font-style="italic" lengthAdjust="spacing" textLength="112.0752" x="382" y="160.9707">delete(Long): void</text></g></a><!--class EventServiceImpl--><a href="file:/C:/Users/loris/Documents/Programming/Github/event-booking-api/target/reports/apidocs/com/monacoevents/eventbooking/service/EventServiceImpl.html" target="_top" title="file:/C:/Users/loris/Documents/Programming/Github/event-booking-api/target/reports/apidocs/com/monacoevents/eventbooking/service/EventServiceImpl.html" xlink:actuate="onRequest" xlink:href="file:/C:/Users/loris/Documents/Programming/Github/event-booking-api/target/reports/apidocs/com/monacoevents/eventbooking/service/EventServiceImpl.html" xlink:show="new" xlink:title="file:/C:/Users/loris/Documents/Programming/Github/event-booking-api/target/reports/apidocs/com/monacoevents/eventbooking/service/EventServiceImpl.html" xlink:type="simple"><g id="elem_EventServiceImpl"><rect codeLine="39" fill="#F1F1F1" height="259.3125" id="EventServiceImpl" rx="2.5" ry="2.5" style="stroke:#181818;stroke-width:0.5;" width="311.6328" x="362" y="204"/><ellipse cx="459.1011" cy="220" fill="#ADD1B2" rx="11" ry="11" style="stroke:#181818;stroke-width:1.0;"/><path d="M461.8667,215.875 Q462.0229,215.6563 462.2104,215.5469 Q462.3979,215.4375 462.6167,215.4375 Q462.9917,215.4375 463.2261,215.7031 Q463.4604,215.9531 463.4604,216.5625 L463.4604,218.0156 Q463.4604,218.625 463.2261,218.8906 Q462.9917,219.1563 462.6167,219.1563 Q462.2729,219.1563 462.0698,218.9531 Q461.8667,218.7656 461.7573,218.25 Q461.7104,217.8906 461.5229,217.7031 Q461.1948,217.3281 460.5854,217.1094 Q459.9761,216.8906 459.3511,216.8906 Q458.5854,216.8906 457.9448,217.2188 Q457.3198,217.5469 456.8198,218.2969 Q456.3354,219.0469 456.3354,220.0781 L456.3354,221.1719 Q456.3354,222.4063 457.2261,223.2344 Q458.1167,224.0469 459.7104,224.0469 Q460.6479,224.0469 461.3042,223.7969 Q461.6948,223.6406 462.1167,223.2031 Q462.3823,222.9375 462.5229,222.8594 Q462.6792,222.7813 462.8823,222.7813 Q463.2104,222.7813 463.4604,223.0469 Q463.7261,223.2969 463.7261,223.6406 Q463.7261,223.9844 463.3823,224.3906 Q462.8823,224.9688 462.0854,225.2969 Q461.0073,225.75 459.7104,225.75 Q458.1948,225.75 456.9917,225.125 Q456.0073,224.625 455.3198,223.5625 Q454.6323,222.4844 454.6323,221.2031 L454.6323,220.0469 Q454.6323,218.7188 455.2417,217.5781 Q455.8667,216.4219 456.9604,215.8125 Q458.0542,215.1875 459.2886,215.1875 Q460.0229,215.1875 460.6636,215.3594 Q461.3198,215.5156 461.8667,215.875 Z " fill="#000000"/><text fill="#000000" font-family="sans-serif" font-size="14" lengthAdjust="spacing" textLength="108.9307" x="479.6011" y="225.7285">EventServiceImpl</text><line style="stroke:#181818;stroke-width:0.5;" x1="363" x2="672.6328" y1="236" y2="236"/><rect fill="none" height="6" style="stroke:#C82930;stroke-width:1.0;" width="6" x="370" y="247.3047"/><text fill="#000000" font-family="sans-serif" font-size="14" lengthAdjust="spacing" textLength="211.6611" x="382" y="254.5332">eventRepository: EventRepository</text><rect fill="none" height="6" style="stroke:#C82930;stroke-width:1.0;" width="6" x="370" y="264.9141"/><text fill="#000000" font-family="sans-serif" font-size="14" lengthAdjust="spacing" textLength="220.2402" x="382" y="272.1426">venueRepository: VenueRepository</text><rect fill="none" height="6" style="stroke:#C82930;stroke-width:1.0;" width="6" x="370" y="282.5234"/><text fill="#000000" font-family="sans-serif" font-size="14" lengthAdjust="spacing" textLength="252.1162" x="382" y="289.752">categoryRepository: CategoryRepository</text><rect fill="none" height="6" style="stroke:#C82930;stroke-width:1.0;" width="6" x="370" y="300.1328"/><text fill="#000000" font-family="sans-serif" font-size="14" lengthAdjust="spacing" textLength="172.7646" x="382" y="307.3613">eventMapper: EventMapper</text><line style="stroke:#181818;stroke-width:0.5;" x1="363" x2="672.6328" y1="314.4375" y2="314.4375"/><ellipse cx="373" cy="328.7422" fill="#84BE84" rx="3" ry="3" style="stroke:#038048;stroke-width:1.0;"/><text fill="#000000" font-family="sans-serif" font-size="14" lengthAdjust="spacing" textLength="242.7988" x="382" y="332.9707">create(EventRequest): EventResponse</text><ellipse cx="373" cy="346.3516" fill="#84BE84" rx="3" ry="3" style="stroke:#038048;stroke-width:1.0;"/><text fill="#000000" font-family="sans-serif" font-size="14" lengthAdjust="spacing" textLength="197.6748" x="382" y="350.5801">findById(Long): EventResponse</text><ellipse cx="373" cy="363.9609" fill="#84BE84" rx="3" ry="3" style="stroke:#038048;stroke-width:1.0;"/><text fill="#000000" font-family="sans-serif" font-size="14" lengthAdjust="spacing" textLength="262.2881" x="382" y="368.1895">findAll(Pageable): Page&lt;EventResponse&gt;</text><ellipse cx="373" cy="381.5703" fill="#84BE84" rx="3" ry="3" style="stroke:#038048;stroke-width:1.0;"/><text fill="#000000" font-family="sans-serif" font-size="14" lengthAdjust="spacing" textLength="285.6328" x="382" y="385.7988">update(Long, EventRequest): EventResponse</text><ellipse cx="373" cy="399.1797" fill="#84BE84" rx="3" ry="3" style="stroke:#038048;stroke-width:1.0;"/><text fill="#000000" font-family="sans-serif" font-size="14" lengthAdjust="spacing" textLength="112.0752" x="382" y="403.4082">delete(Long): void</text><rect fill="#F24D5C" height="6" style="stroke:#C82930;stroke-width:1.0;" width="6" x="370" y="413.7891"/><text fill="#000000" font-family="sans-serif" font-size="14" lengthAdjust="spacing" textLength="196.8682" x="382" y="421.0176">findEventOrThrow(Long): Event</text><rect fill="#F24D5C" height="6" style="stroke:#C82930;stroke-width:1.0;" width="6" x="370" y="431.3984"/><text fill="#000000" font-family="sans-serif" font-size="14" lengthAdjust="spacing" textLength="206.2334" x="382" y="438.627">findVenueOrThrow(Long): Venue</text><rect fill="#F24D5C" height="6" style="stroke:#C82930;stroke-width:1.0;" width="6" x="370" y="449.0078"/><text fill="#000000" font-family="sans-serif" font-size="14" lengthAdjust="spacing" textLength="238.8818" x="382" y="456.2363">findCategoryOrThrow(Long): Category</text></g></a><!--class VenueService--><a href="file:/C:/Users/loris/Documents/Programming/Github/event-booking-api/target/reports/apidocs/com/monacoevents/eventbooking/service/VenueService.html" target="_top" title="file:/C:/Users/loris/Documents/Programming/Github/event-booking-api/target/reports/apidocs/com/monacoevents/eventbooking/service/VenueService.html" xlink:actuate="onRequest" xlink:href="file:/C:/Users/loris/Documents/Programming/Github/event-booking-api/target/reports/apidocs/com/monacoevents/eventbooking/service/VenueService.html" xlink:show="new" xlink:title="file:/C:/Users/loris/Documents/Programming/Github/event-booking-api/target/reports/apidocs/com/monacoevents/eventbooking/service/VenueService.html" xlink:type="simple"><g id="elem_VenueService"><rect codeLine="54" fill="#F1F1F1" height="136.0469" id="VenueService" rx="2.5" ry="2.5" style="stroke:#181818;stroke-width:0.5;" width="320.998" x="22.5" y="32"/><ellipse cx="135.1665" cy="48" fill="#B4A7E5" rx="11" ry="11" style="stroke:#181818;stroke-width:1.0;"/><path d="M136.1196,44.6406 L136.1196,51.2969 L137.8384,51.2969 Q138.4478,51.2969 138.7134,51.5313 Q138.979,51.7656 138.979,52.1563 Q138.979,52.5313 138.7134,52.7656 Q138.4478,53 137.8384,53 L132.6978,53 Q132.0884,53 131.8228,52.7656 Q131.5571,52.5313 131.5571,52.1406 Q131.5571,51.7656 131.8228,51.5313 Q132.0884,51.2969 132.6978,51.2969 L134.4165,51.2969 L134.4165,44.6406 L132.6978,44.6406 Q132.0884,44.6406 131.8228,44.4063 Q131.5571,44.1719 131.5571,43.7813 Q131.5571,43.4063 131.8228,43.1719 Q132.0884,42.9375 132.6978,42.9375 L137.8384,42.9375 Q138.4478,42.9375 138.7134,43.1719 Q138.979,43.4063 138.979,43.7813 Q138.979,44.1719 138.7134,44.4063 Q138.4478,44.6406 137.8384,44.6406 L136.1196,44.6406 Z " fill="#000000"/><text fill="#000000" font-family="sans-serif" font-size="14" font-style="italic" lengthAdjust="spacing" textLength="87.165" x="155.6665" y="53.7285">VenueService</text><line style="stroke:#181818;stroke-width:0.5;" x1="23.5" x2="342.498" y1="64" y2="64"/><line style="stroke:#181818;stroke-width:0.5;" x1="23.5" x2="342.498" y1="72" y2="72"/><ellipse cx="33.5" cy="86.3047" fill="#84BE84" rx="3" ry="3" style="stroke:#038048;stroke-width:1.0;"/><text fill="#000000" font-family="sans-serif" font-size="14" font-style="italic" lengthAdjust="spacing" textLength="252.1641" x="42.5" y="90.5332">create(VenueRequest): VenueResponse</text><ellipse cx="33.5" cy="103.9141" fill="#84BE84" rx="3" ry="3" style="stroke:#038048;stroke-width:1.0;"/><text fill="#000000" font-family="sans-serif" font-size="14" font-style="italic" lengthAdjust="spacing" textLength="202.3574" x="42.5" y="108.1426">findById(Long): VenueResponse</text><ellipse cx="33.5" cy="121.5234" fill="#84BE84" rx="3" ry="3" style="stroke:#038048;stroke-width:1.0;"/><text fill="#000000" font-family="sans-serif" font-size="14" font-style="italic" lengthAdjust="spacing" textLength="266.9707" x="42.5" y="125.752">findAll(Pageable): Page&lt;VenueResponse&gt;</text><ellipse cx="33.5" cy="139.1328" fill="#84BE84" rx="3" ry="3" style="stroke:#038048;stroke-width:1.0;"/><text fill="#000000" font-family="sans-serif" font-size="14" font-style="italic" lengthAdjust="spacing" textLength="294.998" x="42.5" y="143.3613">update(Long, VenueRequest): VenueResponse</text><ellipse cx="33.5" cy="156.7422" fill="#84BE84" rx="3" ry="3" style="stroke:#038048;stroke-width:1.0;"/><text fill="#000000" font-family="sans-serif" font-size="14" font-style="italic" lengthAdjust="spacing" textLength="112.0752" x="42.5" y="160.9707">delete(Long): void</text></g></a><!--class VenueServiceImpl--><a href="file:/C:/Users/loris/Documents/Programming/Github/event-booking-api/target/reports/apidocs/com/monacoevents/eventbooking/service/VenueServiceImpl.html" target="_top" title="file:/C:/Users/loris/Documents/Programming/Github/event-booking-api/target/reports/apidocs/com/monacoevents/eventbooking/service/VenueServiceImpl.html" xlink:actuate="onRequest" xlink:href="file:/C:/Users/loris/Documents/Programming/Github/event-booking-api/target/reports/apidocs/com/monacoevents/eventbooking/service/VenueServiceImpl.html" xlink:show="new" xlink:title="file:/C:/Users/loris/Documents/Programming/Github/event-booking-api/target/reports/apidocs/com/monacoevents/eventbooking/service/VenueServiceImpl.html" xlink:type="simple"><g id="elem_VenueServiceImpl"><rect codeLine="62" fill="#F1F1F1" height="188.875" id="VenueServiceImpl" rx="2.5" ry="2.5" style="stroke:#181818;stroke-width:0.5;" width="320.998" x="22.5" y="239"/><ellipse cx="121.9424" cy="255" fill="#ADD1B2" rx="11" ry="11" style="stroke:#181818;stroke-width:1.0;"/><path d="M124.708,250.875 Q124.8643,250.6563 125.0518,250.5469 Q125.2393,250.4375 125.458,250.4375 Q125.833,250.4375 126.0674,250.7031 Q126.3018,250.9531 126.3018,251.5625 L126.3018,253.0156 Q126.3018,253.625 126.0674,253.8906 Q125.833,254.1563 125.458,254.1563 Q125.1143,254.1563 124.9111,253.9531 Q124.708,253.7656 124.5986,253.25 Q124.5518,252.8906 124.3643,252.7031 Q124.0361,252.3281 123.4268,252.1094 Q122.8174,251.8906 122.1924,251.8906 Q121.4268,251.8906 120.7861,252.2188 Q120.1611,252.5469 119.6611,253.2969 Q119.1768,254.0469 119.1768,255.0781 L119.1768,256.1719 Q119.1768,257.4063 120.0674,258.2344 Q120.958,259.0469 122.5518,259.0469 Q123.4893,259.0469 124.1455,258.7969 Q124.5361,258.6406 124.958,258.2031 Q125.2236,257.9375 125.3643,257.8594 Q125.5205,257.7813 125.7236,257.7813 Q126.0518,257.7813 126.3018,258.0469 Q126.5674,258.2969 126.5674,258.6406 Q126.5674,258.9844 126.2236,259.3906 Q125.7236,259.9688 124.9268,260.2969 Q123.8486,260.75 122.5518,260.75 Q121.0361,260.75 119.833,260.125 Q118.8486,259.625 118.1611,258.5625 Q117.4736,257.4844 117.4736,256.2031 L117.4736,255.0469 Q117.4736,253.7188 118.083,252.5781 Q118.708,251.4219 119.8018,250.8125 Q120.8955,250.1875 122.1299,250.1875 Q122.8643,250.1875 123.5049,250.3594 Q124.1611,250.5156 124.708,250.875 Z " fill="#000000"/><text fill="#000000" font-family="sans-serif" font-size="14" lengthAdjust="spacing" textLength="113.6133" x="142.4424" y="260.7285">VenueServiceImpl</text><line style="stroke:#181818;stroke-width:0.5;" x1="23.5" x2="342.498" y1="271" y2="271"/><rect fill="none" height="6" style="stroke:#C82930;stroke-width:1.0;" width="6" x="30.5" y="282.3047"/><text fill="#000000" font-family="sans-serif" font-size="14" lengthAdjust="spacing" textLength="220.2402" x="42.5" y="289.5332">venueRepository: VenueRepository</text><rect fill="none" height="6" style="stroke:#C82930;stroke-width:1.0;" width="6" x="30.5" y="299.9141"/><text fill="#000000" font-family="sans-serif" font-size="14" lengthAdjust="spacing" textLength="181.3438" x="42.5" y="307.1426">venueMapper: VenueMapper</text><line style="stroke:#181818;stroke-width:0.5;" x1="23.5" x2="342.498" y1="314.2188" y2="314.2188"/><ellipse cx="33.5" cy="328.5234" fill="#84BE84" rx="3" ry="3" style="stroke:#038048;stroke-width:1.0;"/><text fill="#000000" font-family="sans-serif" font-size="14" lengthAdjust="spacing" textLength="252.1641" x="42.5" y="332.752">create(VenueRequest): VenueResponse</text><ellipse cx="33.5" cy="346.1328" fill="#84BE84" rx="3" ry="3" style="stroke:#038048;stroke-width:1.0;"/><text fill="#000000" font-family="sans-serif" font-size="14" lengthAdjust="spacing" textLength="202.3574" x="42.5" y="350.3613">findById(Long): VenueResponse</text><ellipse cx="33.5" cy="363.7422" fill="#84BE84" rx="3" ry="3" style="stroke:#038048;stroke-width:1.0;"/><text fill="#000000" font-family="sans-serif" font-size="14" lengthAdjust="spacing" textLength="266.9707" x="42.5" y="367.9707">findAll(Pageable): Page&lt;VenueResponse&gt;</text><ellipse cx="33.5" cy="381.3516" fill="#84BE84" rx="3" ry="3" style="stroke:#038048;stroke-width:1.0;"/><text fill="#000000" font-family="sans-serif" font-size="14" lengthAdjust="spacing" textLength="294.998" x="42.5" y="385.5801">update(Long, VenueRequest): VenueResponse</text><ellipse cx="33.5" cy="398.9609" fill="#84BE84" rx="3" ry="3" style="stroke:#038048;stroke-width:1.0;"/><text fill="#000000" font-family="sans-serif" font-size="14" lengthAdjust="spacing" textLength="112.0752" x="42.5" y="403.1895">delete(Long): void</text><rect fill="#F24D5C" height="6" style="stroke:#C82930;stroke-width:1.0;" width="6" x="30.5" y="413.5703"/><text fill="#000000" font-family="sans-serif" font-size="14" lengthAdjust="spacing" textLength="206.2334" x="42.5" y="420.7988">findVenueOrThrow(Long): Venue</text></g></a><polygon fill="none" points="869,168.2704,863,186.2704,875,186.2704,869,168.2704" style="stroke:#181818;stroke-width:1.0;"/><path d="M869,186.2704 C869,208.2975 869,215.1836 869,238.7983 " fill="none" style="stroke:#181818;stroke-width:1.0;stroke-dasharray:7.0,7.0;"/><polygon fill="none" points="518,168.2704,512,186.2704,524,186.2704,518,168.2704" style="stroke:#181818;stroke-width:1.0;"/><path d="M518,186.2704 C518,197.4842 518,191.439 518,203.5897 " fill="none" style="stroke:#181818;stroke-width:1.0;stroke-dasharray:7.0,7.0;"/><polygon fill="none" points="183,168.2704,177,186.2704,189,186.2704,183,168.2704" style="stroke:#181818;stroke-width:1.0;"/><path d="M183,186.2704 C183,208.2975 183,215.1836 183,238.7983 " fill="none" style="stroke:#181818;stroke-width:1.0;stroke-dasharray:7.0,7.0;"/><text fill="#888888" font-family="sans-serif" font-size="10" lengthAdjust="spacing" textLength="2.7783" x="521.1108" y="483.3809">&#160;</text><a href="https://github.com/talsma-ict/umldoclet" target="_top" title="https://github.com/talsma-ict/umldoclet" xlink:actuate="onRequest" xlink:href="https://github.com/talsma-ict/umldoclet" xlink:show="new" xlink:title="https://github.com/talsma-ict/umldoclet" xlink:type="simple"><text fill="#888888" font-family="sans-serif" font-size="10" lengthAdjust="spacing" textLength="74.4775" x="485.2612" y="495.959">UMLDoclet 2.2.1</text></a><!--SRC=[pLXTRzCm57tdLnZnG15hd9RHZMX26cM2eI8cw7WfVN0JDxNcsC5sEbN0V-VQJPSFEaWo7jgNrCxzEBxt-BGsGWWzHMEPRXIBLmOPYSoAQNJzSOA8Y51C1LN4q0YnXCHKemNbKiHwQqWHoSnAAYINRXHAfQXEfOYOYD47iYP8oqo5L7kF7Y6NQhgBVajqAVfYOoVVof1JWthZPoL8GtymwW_zuGXD2TS9GPVZgPT7Ato6tj0R88ZDMKY5Xf2PYAXoiCvJ4i9ZidrpXDPKQIO5-FXv7BlKK0f3cD0e9SfekwGhJeInM0SUv3_sJb3l_CkaYir_vR0TeNCbI1QXp_9xThVSnwaYCI3cP2CpWtH23H74lTA0MLD8HGpKBmYs3W3q1ieCM18laOA4agwfCDfpZuMKDr1OJrErXhMW7rid-s72KBKaC3c6UiPIRRxaHhFPad4Qu760hy5HOouLqnZAbYKsDBvICbOaII0oViVCAbjWbwsVf-kJb653L4mDLZILK1mCKv4CDGQSk8mJbt7Y72UkGV9M9k7pES17fSyFij16aT3yGiz3HS6bj_FxJ6rDpRC05JEMPPhU6s79HFHcSndr9i3MjexddFUke0ramIdusgzdzG2lxusGfP45RnCVeGSi8QB0QxfRm5gowCxqLz7ua1Ejwqs_J59-W8stiFOtln_ULIMLci6Ms9GhjPlRx_EHf2bLXVrsNB7joAXsDEh8dGSHvcyiSKMoc7OHFgdfIidR-cBsqQhGamlRs0CIapAUnahYd8gIviEM6jBSQny9AjuDrQCJx3QwKIxceOX67TCzYa6tnIZaug8wKRM6TnajMt-jJZnSZHoUdHHT58EzEjIuiIr8s8Lv7UdMI7MSUqrotDoVfguPDLCtzv-rpCKy82qhusciPJbpTrtAXosrhBdNFaPLl1jgMIVORRIiNCn3qR8wfdkqh9qwEUkTqdmj1dkLfd7PMr2a2oywag6HqlnRFdAov8z6fwiWg9-apdvwNaTVs_isgIj_kjhahVzujabQKSSsIUiitrRvJ9iDBx5WAINeS8twxpT0t0aJDsC9knCzETt_zjgUvJaJTBfYuOsWiDtzKdDTEbpAb-Vw9cQpbJ6f3Z2EtGRtxBurxXwXpqA3iuH7smk4sbN2V9vV3RoxkwEmv_o-VzBtHzF1Y-3b8F1FlEFJuzFHwCJtd_l3mFTd5vcIASLN19Hc_Xi0]--></g></svg>