<svg xmlns="http://www.w3.org/2000/svg" xmlns:xlink="http://www.w3.org/1999/xlink" contentStyleType="text/css" height="100%" preserveAspectRatio="none" style="width:100%;height:100%;background:#FFFFFF;" version="1.1" viewBox="0 0 320 440" width="100%" zoomAndPan="magnify"><defs/><g><!--class com.monacoevents.eventbooking.service.VenueServiceImpl--><a href="..\..\..\..\..\..\target\reports\apidocs\com\monacoevents\eventbooking\service\VenueServiceImpl.html" target="_top" title="..\..\..\..\..\..\target\reports\apidocs\com\monacoevents\eventbooking\service\VenueServiceImpl.html" xlink:actuate="onRequest" xlink:href="..\..\..\..\..\..\target\reports\apidocs\com\monacoevents\eventbooking\service\VenueServiceImpl.html" xlink:show="new" xlink:title="..\..\..\..\..\..\target\reports\apidocs\com\monacoevents\eventbooking\service\VenueServiceImpl.html" xlink:type="simple"><g id="elem_com.monacoevents.eventbooking.service.VenueServiceImpl"><rect codeLine="26" fill="#F4F8FB" height="196.25" id="com.monacoevents.eventbooking.service.VenueServiceImpl" rx="4" ry="4" style="stroke:#2C6E8C;stroke-width:0.5;" width="306.4297" x="7" y="203.38"/><ellipse cx="59.2422" cy="224.3409" fill="#ADD1B2" rx="10" ry="10" style="stroke:#181818;stroke-width:1.0;"/><path d="M60.1797,220.9816 Q60.3047,220.8097 60.4453,220.7316 Q60.5859,220.6534 60.7578,220.6534 Q61.0391,220.6534 61.2109,220.8566 Q61.3984,221.0441 61.3984,221.5128 L61.3984,222.6222 Q61.3984,223.0909 61.2109,223.2941 Q61.0391,223.4816 60.7578,223.4816 Q60.4922,223.4816 60.3359,223.3409 Q60.1797,223.2003 60.1016,222.7941 Q60.0547,222.5284 59.9297,222.3878 Q59.6641,222.0909 59.1953,221.9191 Q58.7266,221.7472 58.2578,221.7472 Q57.6797,221.7472 57.1797,222.0128 Q56.6953,222.2628 56.3203,222.8409 Q55.9453,223.4034 55.9453,224.1847 L55.9453,225.0284 Q55.9453,225.9659 56.6328,226.6066 Q57.3203,227.2316 58.5234,227.2316 Q59.2578,227.2316 59.7578,227.0284 Q60.0391,226.9191 60.3672,226.5753 Q60.5703,226.3722 60.6797,226.3253 Q60.8047,226.2628 60.9453,226.2628 Q61.2109,226.2628 61.3984,226.4659 Q61.6016,226.6534 61.6016,226.9191 Q61.6016,227.1847 61.3359,227.4972 Q60.9453,227.9347 60.3359,228.1847 Q59.5234,228.5284 58.5391,228.5284 Q57.3828,228.5284 56.4453,228.0597 Q55.6953,227.6691 55.1641,226.8566 Q54.6484,226.0284 54.6484,225.0597 L54.6484,224.1691 Q54.6484,223.1534 55.1172,222.2784 Q55.6016,221.4034 56.4297,220.9347 Q57.2734,220.4503 58.2109,220.4503 Q58.7734,220.4503 59.2578,220.5909 Q59.7578,220.7159 60.1797,220.9816 Z " fill="#000000"/><text fill="#14324A" font-family="Segoe UI" font-size="14" lengthAdjust="spacing" textLength="118.2002" x="116.1147" y="223.4874">VenueServiceImpl</text><text fill="#14324A" font-family="Segoe UI" font-size="10" lengthAdjust="spacing" textLength="193.9453" x="78.2422" y="237.7921">com.monacoevents.eventbooking.service</text><line style="stroke:#2C6E8C;stroke-width:0.5;" x1="8" x2="312.4297" y1="245.3019" y2="245.3019"/><rect fill="none" height="6" style="stroke:#C82930;stroke-width:1.0;" width="6" x="15" y="256.4474"/><text fill="#000000" font-family="Segoe UI" font-size="13" lengthAdjust="spacing" textLength="214.6523" x="26" y="263.3302">venueRepository: VenueRepository</text><rect fill="none" height="6" style="stroke:#C82930;stroke-width:1.0;" width="6" x="15" y="273.7384"/><text fill="#000000" font-family="Segoe UI" font-size="13" lengthAdjust="spacing" textLength="177.9502" x="26" y="280.6212">venueMapper: VenueMapper</text><line style="stroke:#2C6E8C;stroke-width:0.5;" x1="8" x2="312.4297" y1="287.8839" y2="287.8839"/><ellipse cx="18" cy="302.0294" fill="#84BE84" rx="3" ry="3" style="stroke:#038048;stroke-width:1.0;"/><text fill="#000000" font-family="Segoe UI" font-size="13" lengthAdjust="spacing" textLength="238.2847" x="26" y="305.9122">create(VenueRequest): VenueResponse</text><ellipse cx="18" cy="319.3204" fill="#84BE84" rx="3" ry="3" style="stroke:#038048;stroke-width:1.0;"/><text fill="#000000" font-family="Segoe UI" font-size="13" lengthAdjust="spacing" textLength="195.6348" x="26" y="323.2032">findById(Long): VenueResponse</text><ellipse cx="18" cy="336.6114" fill="#84BE84" rx="3" ry="3" style="stroke:#038048;stroke-width:1.0;"/><text fill="#000000" font-family="Segoe UI" font-size="13" lengthAdjust="spacing" textLength="258.4512" x="26" y="340.4943">findAll(Pageable): Page&lt;VenueResponse&gt;</text><ellipse cx="18" cy="353.9025" fill="#84BE84" rx="3" ry="3" style="stroke:#038048;stroke-width:1.0;"/><text fill="#000000" font-family="Segoe UI" font-size="13" lengthAdjust="spacing" textLength="281.4297" x="26" y="357.7853">update(Long, VenueRequest): VenueResponse</text><ellipse cx="18" cy="371.1935" fill="#84BE84" rx="3" ry="3" style="stroke:#038048;stroke-width:1.0;"/><text fill="#000000" font-family="Segoe UI" font-size="13" lengthAdjust="spacing" textLength="111.8521" x="26" y="375.0763">delete(Long): void</text><rect fill="#F24D5C" height="6" style="stroke:#C82930;stroke-width:1.0;" width="6" x="15" y="385.4845"/><text fill="#000000" font-family="Segoe UI" font-size="13" lengthAdjust="spacing" textLength="202.6997" x="26" y="392.3673">findVenueOrThrow(Long): Venue</text></g></a><!--class com.monacoevents.eventbooking.service.VenueService--><a href="..\..\..\..\..\..\target\reports\apidocs\com\monacoevents\eventbooking\service\VenueService.html" target="_top" title="..\..\..\..\..\..\target\reports\apidocs\com\monacoevents\eventbooking\service\VenueService.html" xlink:actuate="onRequest" xlink:href="..\..\..\..\..\..\target\reports\apidocs\com\monacoevents\eventbooking\service\VenueService.html" xlink:show="new" xlink:title="..\..\..\..\..\..\target\reports\apidocs\com\monacoevents\eventbooking\service\VenueService.html" xlink:type="simple"><g id="elem_com.monacoevents.eventbooking.service.VenueService"><rect codeLine="37" fill="#F4F8FB" height="136.377" id="com.monacoevents.eventbooking.service.VenueService" rx="4" ry="4" style="stroke:#2C6E8C;stroke-width:0.5;" width="278.3984" x="21.02" y="7"/><ellipse cx="69.3857" cy="27.9609" fill="#B4A7E5" rx="10" ry="10" style="stroke:#181818;stroke-width:1.0;"/><path d="M69.9326,25.5703 L69.9326,30.6641 L71.2451,30.6641 Q71.7138,30.6641 71.917,30.8516 Q72.1201,31.0234 72.1201,31.3203 Q72.1201,31.6016 71.917,31.7891 Q71.7138,31.9609 71.2451,31.9609 L67.3232,31.9609 Q66.8545,31.9609 66.6513,31.7891 Q66.4482,31.6016 66.4482,31.3047 Q66.4482,31.0234 66.6513,30.8516 Q66.8545,30.6641 67.3232,30.6641 L68.6357,30.6641 L68.6357,25.5703 L67.3232,25.5703 Q66.8545,25.5703 66.6513,25.3984 Q66.4482,25.2109 66.4482,24.9141 Q66.4482,24.6172 66.6513,24.4453 Q66.8545,24.2578 67.3232,24.2578 L71.2451,24.2734 Q71.7138,24.2734 71.917,24.4453 Q72.1201,24.6172 72.1201,24.9141 Q72.1201,25.2109 71.917,25.3984 Q71.7138,25.5703 71.2451,25.5703 L69.9326,25.5703 Z " fill="#000000"/><text fill="#14324A" font-family="Segoe UI" font-size="14" font-style="italic" lengthAdjust="spacing" textLength="80.0146" x="135.2119" y="27.1074">VenueService</text><text fill="#14324A" font-family="Segoe UI" font-size="10" font-style="italic" lengthAdjust="spacing" textLength="173.667" x="88.3857" y="41.4121">com.monacoevents.eventbooking.service</text><line style="stroke:#2C6E8C;stroke-width:0.5;" x1="22.02" x2="298.4184" y1="48.9219" y2="48.9219"/><ellipse cx="32.02" cy="63.0674" fill="#84BE84" rx="3" ry="3" style="stroke:#038048;stroke-width:1.0;"/><text fill="#000000" font-family="Segoe UI" font-size="13" font-style="italic" lengthAdjust="spacing" textLength="214.9316" x="40.02" y="66.9502">create(VenueRequest): VenueResponse</text><ellipse cx="32.02" cy="80.3584" fill="#84BE84" rx="3" ry="3" style="stroke:#038048;stroke-width:1.0;"/><text fill="#000000" font-family="Segoe UI" font-size="13" font-style="italic" lengthAdjust="spacing" textLength="174.624" x="40.02" y="84.2412">findById(Long): VenueResponse</text><ellipse cx="32.02" cy="97.6494" fill="#84BE84" rx="3" ry="3" style="stroke:#038048;stroke-width:1.0;"/><text fill="#000000" font-family="Segoe UI" font-size="13" font-style="italic" lengthAdjust="spacing" textLength="235.3838" x="40.02" y="101.5322">findAll(Pageable): Page&lt;VenueResponse&gt;</text><ellipse cx="32.02" cy="114.9404" fill="#84BE84" rx="3" ry="3" style="stroke:#038048;stroke-width:1.0;"/><text fill="#000000" font-family="Segoe UI" font-size="13" font-style="italic" lengthAdjust="spacing" textLength="253.3984" x="40.02" y="118.8232">update(Long, VenueRequest): VenueResponse</text><ellipse cx="32.02" cy="132.2314" fill="#84BE84" rx="3" ry="3" style="stroke:#038048;stroke-width:1.0;"/><text fill="#000000" font-family="Segoe UI" font-size="13" font-style="italic" lengthAdjust="spacing" textLength="98.7568" x="40.02" y="136.1143">delete(Long): void</text></g></a><!--reverse link com.monacoevents.eventbooking.service.VenueService to com.monacoevents.eventbooking.service.VenueServiceImpl--><g id="link_com.monacoevents.eventbooking.service.VenueService_com.monacoevents.eventbooking.service.VenueServiceImpl"><path codeLine="45" d="M160.21,161.8 C160.21,180.5 160.21,183.18 160.21,203.22 " fill="none" id="com.monacoevents.eventbooking.service.VenueService-backto-com.monacoevents.eventbooking.service.VenueServiceImpl" style="stroke:#2C6E8C;stroke-width:1.0;stroke-dasharray:7.0,7.0;"/><polygon fill="none" points="160.21,143.8,154.21,161.8,166.21,161.8,160.21,143.8" style="stroke:#2C6E8C;stroke-width:1.0;"/></g><text fill="#888888" font-family="Segoe UI" font-size="10" lengthAdjust="spacing" textLength="2.7588" x="151.8354" y="416.421">&#160;</text><a href="https://github.com/talsma-ict/umldoclet" target="_top" title="https://github.com/talsma-ict/umldoclet" xlink:actuate="onRequest" xlink:href="https://github.com/talsma-ict/umldoclet" xlink:show="new" xlink:title="https://github.com/talsma-ict/umldoclet" xlink:type="simple"><text fill="#888888" font-family="Segoe UI" font-size="10" lengthAdjust="spacing" textLength="77.7783" x="114.3257" y="429.7218">UMLDoclet 2.2.1</text></a><!--SRC=[lLRVSzf647xFNx5D7qecHWYX06OydW4ChJEazSGuBuY7Grh43TATUdV2GnF_xrtz21QoQUtCjC2CuExR_NPllrqE0E0N6CjahtYuCM0ac0tNSFTf1am44A90nGm6m6CMeeOLHbA4kW0YiDHif0Avpd_vKYdKYHG15o5yP3i6MgRAHsszUGCvrVoxztkcAzvN-spnIleH6cYCtrL2Sknsj-dOJXVcBD8nW-lnt2gzFTeubcErWNn7t4UXoMKg0bHvMCE4-VIO5Jjdi4EbkHHaOvT-ibHzAGpZGaF2bD5PIZSH4oQBjMqHlslre36ydHt7Pf_diPt1K0cM1l1P_faUqjLRBiWRYq5lM23lirDPKn9OsrMIWXrBHQS1_TfUW6kMHcPAqVtEOeHR32N2tVLfs2t_2w7TgG7yY6azOlusBDaYgjlFKtVQduwUXKf5vrV2d75tqXy_1nig9U__5PM5LOBQRiTnXpKG5mRLcldu9C39SDgTsYVXHq5EpYVTEZsLVal2VPhuYDvN9y1LhwF-sBsodmTMqkfqtDw7uY1_IXGBIQSHsylKG21DgGQIgQ0IQhB6Mymy6J8LKXHwsF000UF4x67DCGfqVJL6QZPQpjVpSuMt5vggFMYxbrzGfEHLxKZbrt4IUQBSiYzz6Lkn5CoNk4DXj9K_Lb9IFg6b2vktG0tv8gHLfuB5mhAysiSm5QBn52QIsibZ2G-ahprYyAeCNfN1AncyEeErCN6qNCBNFFNirTnbaC_aNNCwnVq0lXmlr92VM9AWAb75ZmFYlQ-Gfb2Zz90ri7btS9ZDix9ZS_2QYs2qlmuQCng4_mmRHb7ZXdJ2LX4ICljwSGI_VCIdIP35a3azWvT54Y1DFlmUnqxou37fZ3ut-qFDDzIYHz7ci8T2HuTUEg6b_qb7_ws6dkhdArjfevXl7bvN_ghTovHGjtY5AAgchzT7rVg4L4eD_42vBhvPrW-EYuBpGfjzLCbrBIK9iLAXxFNRdlfqniMsdBBzvtVlih_wY0kasuM_5KY3qJuW7mgwLeMlvFB4Oh4n9j63LYlaPfEkBCgePV9hHfFxffN6KL3SBsetZUMol3dyUhZ2PDU0fjrhsjrvsnsu7mPErt9wvxs-sx7jzxOpiEt595KomTODKrml_mO0]--></g></svg>