<svg xmlns="http://www.w3.org/2000/svg" xmlns:xlink="http://www.w3.org/1999/xlink" contentStyleType="text/css" height="408px" preserveAspectRatio="none" style="width:333px;height:408px;background:#FFFFFF;" version="1.1" viewBox="0 0 333 408" width="333px" zoomAndPan="magnify"><defs/><g><!--class com.monacoevents.eventbooking.service.VenueServiceImpl--><a href="..\..\..\..\..\..\target\reports\apidocs\com\monacoevents\eventbooking\service\VenueServiceImpl.html" target="_top" title="..\..\..\..\..\..\target\reports\apidocs\com\monacoevents\eventbooking\service\VenueServiceImpl.html" xlink:actuate="onRequest" xlink:href="..\..\..\..\..\..\target\reports\apidocs\com\monacoevents\eventbooking\service\VenueServiceImpl.html" xlink:show="new" xlink:title="..\..\..\..\..\..\target\reports\apidocs\com\monacoevents\eventbooking\service\VenueServiceImpl.html" xlink:type="simple"><g id="elem_com.monacoevents.eventbooking.service.VenueServiceImpl"><rect codeLine="13" fill="#F1F1F1" height="197.0625" id="com.monacoevents.eventbooking.service.VenueServiceImpl" rx="2.5" ry="2.5" style="stroke:#181818;stroke-width:0.5;" width="320.998" x="6" y="184"/><ellipse cx="70.5327" cy="204.0938" fill="#ADD1B2" rx="11" ry="11" style="stroke:#181818;stroke-width:1.0;"/><path d="M73.2983,199.9688 Q73.4546,199.75 73.6421,199.6406 Q73.8296,199.5313 74.0483,199.5313 Q74.4233,199.5313 74.6577,199.7969 Q74.8921,200.0469 74.8921,200.6563 L74.8921,202.1094 Q74.8921,202.7188 74.6577,202.9844 Q74.4233,203.25 74.0483,203.25 Q73.7046,203.25 73.5015,203.0469 Q73.2983,202.8594 73.189,202.3438 Q73.1421,201.9844 72.9546,201.7969 Q72.6265,201.4219 72.0171,201.2031 Q71.4077,200.9844 70.7827,200.9844 Q70.0171,200.9844 69.3765,201.3125 Q68.7515,201.6406 68.2515,202.3906 Q67.7671,203.1406 67.7671,204.1719 L67.7671,205.2656 Q67.7671,206.5 68.6577,207.3281 Q69.5483,208.1406 71.1421,208.1406 Q72.0796,208.1406 72.7358,207.8906 Q73.1265,207.7344 73.5483,207.2969 Q73.814,207.0313 73.9546,206.9531 Q74.1108,206.875 74.314,206.875 Q74.6421,206.875 74.8921,207.1406 Q75.1577,207.3906 75.1577,207.7344 Q75.1577,208.0781 74.814,208.4844 Q74.314,209.0625 73.5171,209.3906 Q72.439,209.8438 71.1421,209.8438 Q69.6265,209.8438 68.4233,209.2188 Q67.439,208.7188 66.7515,207.6563 Q66.064,206.5781 66.064,205.2969 L66.064,204.1406 Q66.064,202.8125 66.6733,201.6719 Q67.2983,200.5156 68.3921,199.9063 Q69.4858,199.2813 70.7202,199.2813 Q71.4546,199.2813 72.0952,199.4531 Q72.7515,199.6094 73.2983,199.9688 Z " fill="#000000"/><text fill="#000000" font-family="sans-serif" font-size="14" lengthAdjust="spacing" textLength="113.6133" x="125.9424" y="203.5332">VenueServiceImpl</text><text fill="#000000" font-family="sans-serif" font-size="10" lengthAdjust="spacing" textLength="183.4326" x="91.0327" y="216.9902">com.monacoevents.eventbooking.service</text><line style="stroke:#181818;stroke-width:0.5;" x1="7" x2="325.998" y1="224.1875" y2="224.1875"/><rect fill="none" height="6" style="stroke:#C82930;stroke-width:1.0;" width="6" x="14" y="235.4922"/><text fill="#000000" font-family="sans-serif" font-size="14" lengthAdjust="spacing" textLength="220.2402" x="26" y="242.7207">venueRepository: VenueRepository</text><rect fill="none" height="6" style="stroke:#C82930;stroke-width:1.0;" width="6" x="14" y="253.1016"/><text fill="#000000" font-family="sans-serif" font-size="14" lengthAdjust="spacing" textLength="181.3438" x="26" y="260.3301">venueMapper: VenueMapper</text><line style="stroke:#181818;stroke-width:0.5;" x1="7" x2="325.998" y1="267.4063" y2="267.4063"/><ellipse cx="17" cy="281.7109" fill="#84BE84" rx="3" ry="3" style="stroke:#038048;stroke-width:1.0;"/><text fill="#000000" font-family="sans-serif" font-size="14" lengthAdjust="spacing" textLength="252.1641" x="26" y="285.9395">create(VenueRequest): VenueResponse</text><ellipse cx="17" cy="299.3203" fill="#84BE84" rx="3" ry="3" style="stroke:#038048;stroke-width:1.0;"/><text fill="#000000" font-family="sans-serif" font-size="14" lengthAdjust="spacing" textLength="202.3574" x="26" y="303.5488">findById(Long): VenueResponse</text><ellipse cx="17" cy="316.9297" fill="#84BE84" rx="3" ry="3" style="stroke:#038048;stroke-width:1.0;"/><text fill="#000000" font-family="sans-serif" font-size="14" lengthAdjust="spacing" textLength="266.9707" x="26" y="321.1582">findAll(Pageable): Page&lt;VenueResponse&gt;</text><ellipse cx="17" cy="334.5391" fill="#84BE84" rx="3" ry="3" style="stroke:#038048;stroke-width:1.0;"/><text fill="#000000" font-family="sans-serif" font-size="14" lengthAdjust="spacing" textLength="294.998" x="26" y="338.7676">update(Long, VenueRequest): VenueResponse</text><ellipse cx="17" cy="352.1484" fill="#84BE84" rx="3" ry="3" style="stroke:#038048;stroke-width:1.0;"/><text fill="#000000" font-family="sans-serif" font-size="14" lengthAdjust="spacing" textLength="112.0752" x="26" y="356.377">delete(Long): void</text><rect fill="#F24D5C" height="6" style="stroke:#C82930;stroke-width:1.0;" width="6" x="14" y="366.7578"/><text fill="#000000" font-family="sans-serif" font-size="14" lengthAdjust="spacing" textLength="206.2334" x="26" y="373.9863">findVenueOrThrow(Long): Venue</text></g></a><!--class com.monacoevents.eventbooking.service.VenueService--><a href="..\..\..\..\..\..\target\reports\apidocs\com\monacoevents\eventbooking\service\VenueService.html" target="_top" title="..\..\..\..\..\..\target\reports\apidocs\com\monacoevents\eventbooking\service\VenueService.html" xlink:actuate="onRequest" xlink:href="..\..\..\..\..\..\target\reports\apidocs\com\monacoevents\eventbooking\service\VenueService.html" xlink:show="new" xlink:title="..\..\..\..\..\..\target\reports\apidocs\com\monacoevents\eventbooking\service\VenueService.html" xlink:type="simple"><g id="elem_com.monacoevents.eventbooking.service.VenueService"><rect codeLine="24" fill="#F1F1F1" height="136.2344" id="com.monacoevents.eventbooking.service.VenueService" rx="2.5" ry="2.5" style="stroke:#181818;stroke-width:0.5;" width="320.998" x="6" y="12"/><ellipse cx="70.5327" cy="32.0938" fill="#B4A7E5" rx="11" ry="11" style="stroke:#181818;stroke-width:1.0;"/><path d="M71.4858,28.7344 L71.4858,35.3906 L73.2046,35.3906 Q73.814,35.3906 74.0796,35.625 Q74.3452,35.8594 74.3452,36.25 Q74.3452,36.625 74.0796,36.8594 Q73.814,37.0938 73.2046,37.0938 L68.064,37.0938 Q67.4546,37.0938 67.189,36.8594 Q66.9233,36.625 66.9233,36.2344 Q66.9233,35.8594 67.189,35.625 Q67.4546,35.3906 68.064,35.3906 L69.7827,35.3906 L69.7827,28.7344 L68.064,28.7344 Q67.4546,28.7344 67.189,28.5 Q66.9233,28.2656 66.9233,27.875 Q66.9233,27.5 67.189,27.2656 Q67.4546,27.0313 68.064,27.0313 L73.2046,27.0313 Q73.814,27.0313 74.0796,27.2656 Q74.3452,27.5 74.3452,27.875 Q74.3452,28.2656 74.0796,28.5 Q73.814,28.7344 73.2046,28.7344 L71.4858,28.7344 Z " fill="#000000"/><text fill="#000000" font-family="sans-serif" font-size="14" font-style="italic" lengthAdjust="spacing" textLength="87.165" x="139.1665" y="31.5332">VenueService</text><text fill="#000000" font-family="sans-serif" font-size="10" font-style="italic" lengthAdjust="spacing" textLength="183.4326" x="91.0327" y="44.9902">com.monacoevents.eventbooking.service</text><line style="stroke:#181818;stroke-width:0.5;" x1="7" x2="325.998" y1="52.1875" y2="52.1875"/><ellipse cx="17" cy="66.4922" fill="#84BE84" rx="3" ry="3" style="stroke:#038048;stroke-width:1.0;"/><text fill="#000000" font-family="sans-serif" font-size="14" font-style="italic" lengthAdjust="spacing" textLength="252.1641" x="26" y="70.7207">create(VenueRequest): VenueResponse</text><ellipse cx="17" cy="84.1016" fill="#84BE84" rx="3" ry="3" style="stroke:#038048;stroke-width:1.0;"/><text fill="#000000" font-family="sans-serif" font-size="14" font-style="italic" lengthAdjust="spacing" textLength="202.3574" x="26" y="88.3301">findById(Long): VenueResponse</text><ellipse cx="17" cy="101.7109" fill="#84BE84" rx="3" ry="3" style="stroke:#038048;stroke-width:1.0;"/><text fill="#000000" font-family="sans-serif" font-size="14" font-style="italic" lengthAdjust="spacing" textLength="266.9707" x="26" y="105.9395">findAll(Pageable): Page&lt;VenueResponse&gt;</text><ellipse cx="17" cy="119.3203" fill="#84BE84" rx="3" ry="3" style="stroke:#038048;stroke-width:1.0;"/><text fill="#000000" font-family="sans-serif" font-size="14" font-style="italic" lengthAdjust="spacing" textLength="294.998" x="26" y="123.5488">update(Long, VenueRequest): VenueResponse</text><ellipse cx="17" cy="136.9297" fill="#84BE84" rx="3" ry="3" style="stroke:#038048;stroke-width:1.0;"/><text fill="#000000" font-family="sans-serif" font-size="14" font-style="italic" lengthAdjust="spacing" textLength="112.0752" x="26" y="141.1582">delete(Long): void</text></g></a><polygon fill="none" points="166.5,148.0424,160.5,166.0424,172.5,166.0424,166.5,148.0424" style="stroke:#181818;stroke-width:1.0;"/><path d="M166.5,166.0424 C166.5,177.5403 166.5,171.6953 166.5,183.8007 " fill="none" style="stroke:#181818;stroke-width:1.0;stroke-dasharray:7.0,7.0;"/><text fill="#888888" font-family="sans-serif" font-size="10" lengthAdjust="spacing" textLength="2.7783" x="161.6108" y="385.3809">&#160;</text><a href="https://github.com/talsma-ict/umldoclet" target="_top" title="https://github.com/talsma-ict/umldoclet" xlink:actuate="onRequest" xlink:href="https://github.com/talsma-ict/umldoclet" xlink:show="new" xlink:title="https://github.com/talsma-ict/umldoclet" xlink:type="simple"><text fill="#888888" font-family="sans-serif" font-size="10" lengthAdjust="spacing" textLength="74.4775" x="125.7612" y="397.959">UMLDoclet 2.2.1</text></a><!--SRC=[lLLTRzem57tlhxZh7aRLOWBhoefG9SQchHFLgfRsXV1WaWknwjYPxL1bNV_xRZuAWQrJMsb3e13xt7FkjOzz0G3Um50dcH6Bo87Ju29XuUfi15o5i425XZiCGSHyWHPcABLQs1A8m5CNQGDwNhm5sXYqYLQXK0luofSSh4vDW9Rjx40XDNvWl-MsnZxByi6FEf3ee37SgwNKyTf7pOxNEO8nbpRcS3eSiufj7TDX7TO6ufOYG6M9CbKXcYAjGS83UepAcGDOeh52AuhnAfwyr40hnuMoa73ZR5xIkUJAvRcs6UaViYuq1fUZpToyuoAt0nWOnTCGBlJtT5NkgyJm1MKiUQPJ1pP6nnKlvombhNXCoyK3l4GIvOvMKcc5nNmaGWIC4vV1NA0CxVOeaKMQXelnG79hORTlnG_ijGzFhb6bn6gMLFDfd4XVLLFUIQ1Z5cl50urBLCwouZ7J-eOsZTaoPXTeUvw4PDjIC9amvczz7JSBTBx1HDFY-ZmHeGwiJmf-NS6lA_YLWh-jm28No-aKxehIyqzpcKCkYDqAMiMi1zUR0rl8CvuaQ2fK-R92x0S6oPEDYY7VJhUt8ipTRN4DdWiLViXEmyQ8ZiNVOGCf6-TqYFXC8Y7pl_qD-CaQdoPXdaDEUW1FooH4EWVuaCTIYt1TT2vVX7qpuyZesuri2zXzwIEX79evEV8HB_qd7_rR3_tkdpi-iyxmmDq_R_lhSKzpmdR4CqnH3ts-F-hHZrYbyi0Bjgl_ax4NNXUbPj-wJDPgdMjDHgpjKFxvaj4v7GbrCzIIhihNx_yyUvLV_58ef5uJt2YaYz5R8UzBkLPDhzBorMGIEPVONgkr42vAPumgQhcYwJH5u5ffBCEossprdUcqwYEVLmqjRmfDhzlqZiRjjxrtxPxNPSVThjUbdxVlTNgUD_cK6frWwvmROQU_0000]--></g></svg>