<svg xmlns="http://www.w3.org/2000/svg" xmlns:xlink="http://www.w3.org/1999/xlink" contentStyleType="text/css" height="403px" preserveAspectRatio="none" style="width:303px;height:403px;background:#FFFFFF;" version="1.1" viewBox="0 0 303 403" width="303px" zoomAndPan="magnify"><defs/><g><!--cluster com.monacoevents.eventbooking.entity--><g id="cluster_com.monacoevents.eventbooking.entity"><path d="M16.5,4 L284.334,4 A3.75,3.75 0 0 1 286.834,6.5 L293.834,27.6094 L293.5,27.6094 A2.5,2.5 0 0 1 296,30.1094 L296,365.5 A2.5,2.5 0 0 1 293.5,368 L16.5,368 A2.5,2.5 0 0 1 14,365.5 L14,6.5 A2.5,2.5 0 0 1 16.5,4 " fill="none" style="stroke:#000000;stroke-width:1.5;"/><line style="stroke:#000000;stroke-width:1.5;" x1="14" x2="293.834" y1="27.6094" y2="27.6094"/><text fill="#000000" font-family="sans-serif" font-size="14" font-weight="bold" lengthAdjust="spacing" textLength="266.834" x="18" y="20.5332">com.monacoevents.eventbooking.entity</text></g><!--class Category--><a href="file:/C:/Users/loris/Documents/Programming/Github/event-booking-api/target/reports/apidocs/com/monacoevents/eventbooking/entity/Category.html" target="_top" title="file:/C:/Users/loris/Documents/Programming/Github/event-booking-api/target/reports/apidocs/com/monacoevents/eventbooking/entity/Category.html" xlink:actuate="onRequest" xlink:href="file:/C:/Users/loris/Documents/Programming/Github/event-booking-api/target/reports/apidocs/com/monacoevents/eventbooking/entity/Category.html" xlink:show="new" xlink:title="file:/C:/Users/loris/Documents/Programming/Github/event-booking-api/target/reports/apidocs/com/monacoevents/eventbooking/entity/Category.html" xlink:type="simple"><g id="elem_Category"><rect codeLine="12" fill="#F1F1F1" height="83.2188" id="Category" rx="2.5" ry="2.5" style="stroke:#181818;stroke-width:0.5;" width="105.3721" x="33.5" y="259.5"/><ellipse cx="55.9544" cy="275.5" fill="#ADD1B2" rx="11" ry="11" style="stroke:#181818;stroke-width:1.0;"/><path d="M58.7201,271.375 Q58.8763,271.1563 59.0638,271.0469 Q59.2513,270.9375 59.4701,270.9375 Q59.8451,270.9375 60.0794,271.2031 Q60.3138,271.4531 60.3138,272.0625 L60.3138,273.5156 Q60.3138,274.125 60.0794,274.3906 Q59.8451,274.6563 59.4701,274.6563 Q59.1263,274.6563 58.9232,274.4531 Q58.7201,274.2656 58.6107,273.75 Q58.5638,273.3906 58.3763,273.2031 Q58.0482,272.8281 57.4388,272.6094 Q56.8294,272.3906 56.2044,272.3906 Q55.4388,272.3906 54.7982,272.7188 Q54.1732,273.0469 53.6732,273.7969 Q53.1888,274.5469 53.1888,275.5781 L53.1888,276.6719 Q53.1888,277.9063 54.0794,278.7344 Q54.9701,279.5469 56.5638,279.5469 Q57.5013,279.5469 58.1576,279.2969 Q58.5482,279.1406 58.9701,278.7031 Q59.2357,278.4375 59.3763,278.3594 Q59.5326,278.2813 59.7357,278.2813 Q60.0638,278.2813 60.3138,278.5469 Q60.5794,278.7969 60.5794,279.1406 Q60.5794,279.4844 60.2357,279.8906 Q59.7357,280.4688 58.9388,280.7969 Q57.8607,281.25 56.5638,281.25 Q55.0482,281.25 53.8451,280.625 Q52.8607,280.125 52.1732,279.0625 Q51.4857,277.9844 51.4857,276.7031 L51.4857,275.5469 Q51.4857,274.2188 52.0951,273.0781 Q52.7201,271.9219 53.8138,271.3125 Q54.9076,270.6875 56.1419,270.6875 Q56.8763,270.6875 57.5169,270.8594 Q58.1732,271.0156 58.7201,271.375 Z " fill="#000000"/><text fill="#000000" font-family="sans-serif" font-size="14" lengthAdjust="spacing" textLength="56.8066" x="71.611" y="281.2285">Category</text><line style="stroke:#181818;stroke-width:0.5;" x1="34.5" x2="137.8721" y1="291.5" y2="291.5"/><rect fill="none" height="6" style="stroke:#C82930;stroke-width:1.0;" width="6" x="41.5" y="302.8047"/><text fill="#000000" font-family="sans-serif" font-size="14" lengthAdjust="spacing" textLength="49.8203" x="53.5" y="310.0332">id: Long</text><rect fill="none" height="6" style="stroke:#C82930;stroke-width:1.0;" width="6" x="41.5" y="320.4141"/><text fill="#000000" font-family="sans-serif" font-size="14" lengthAdjust="spacing" textLength="79.3721" x="53.5" y="327.6426">name: String</text><line style="stroke:#181818;stroke-width:0.5;" x1="34.5" x2="137.8721" y1="334.7188" y2="334.7188"/></g></a><!--class Event--><a href="file:/C:/Users/loris/Documents/Programming/Github/event-booking-api/target/reports/apidocs/com/monacoevents/eventbooking/entity/Event.html" target="_top" title="file:/C:/Users/loris/Documents/Programming/Github/event-booking-api/target/reports/apidocs/com/monacoevents/eventbooking/entity/Event.html" xlink:actuate="onRequest" xlink:href="file:/C:/Users/loris/Documents/Programming/Github/event-booking-api/target/reports/apidocs/com/monacoevents/eventbooking/entity/Event.html" xlink:show="new" xlink:title="file:/C:/Users/loris/Documents/Programming/Github/event-booking-api/target/reports/apidocs/com/monacoevents/eventbooking/entity/Event.html" xlink:type="simple"><g id="elem_Event"><rect codeLine="17" fill="#F1F1F1" height="153.6563" id="Event" rx="2.5" ry="2.5" style="stroke:#181818;stroke-width:0.5;" width="191.751" x="77" y="32"/><ellipse cx="150.7256" cy="48" fill="#ADD1B2" rx="11" ry="11" style="stroke:#181818;stroke-width:1.0;"/><path d="M153.4912,43.875 Q153.6475,43.6563 153.835,43.5469 Q154.0225,43.4375 154.2412,43.4375 Q154.6162,43.4375 154.8506,43.7031 Q155.085,43.9531 155.085,44.5625 L155.085,46.0156 Q155.085,46.625 154.8506,46.8906 Q154.6162,47.1563 154.2412,47.1563 Q153.8975,47.1563 153.6943,46.9531 Q153.4912,46.7656 153.3818,46.25 Q153.335,45.8906 153.1475,45.7031 Q152.8193,45.3281 152.21,45.1094 Q151.6006,44.8906 150.9756,44.8906 Q150.21,44.8906 149.5693,45.2188 Q148.9443,45.5469 148.4443,46.2969 Q147.96,47.0469 147.96,48.0781 L147.96,49.1719 Q147.96,50.4063 148.8506,51.2344 Q149.7412,52.0469 151.335,52.0469 Q152.2725,52.0469 152.9287,51.7969 Q153.3193,51.6406 153.7412,51.2031 Q154.0068,50.9375 154.1475,50.8594 Q154.3037,50.7813 154.5068,50.7813 Q154.835,50.7813 155.085,51.0469 Q155.3506,51.2969 155.3506,51.6406 Q155.3506,51.9844 155.0068,52.3906 Q154.5068,52.9688 153.71,53.2969 Q152.6318,53.75 151.335,53.75 Q149.8193,53.75 148.6162,53.125 Q147.6318,52.625 146.9443,51.5625 Q146.2568,50.4844 146.2568,49.2031 L146.2568,48.0469 Q146.2568,46.7188 146.8662,45.5781 Q147.4912,44.4219 148.585,43.8125 Q149.6787,43.1875 150.9131,43.1875 Q151.6475,43.1875 152.2881,43.3594 Q152.9443,43.5156 153.4912,43.875 Z " fill="#000000"/><text fill="#000000" font-family="sans-serif" font-size="14" lengthAdjust="spacing" textLength="35.7998" x="171.2256" y="53.7285">Event</text><line style="stroke:#181818;stroke-width:0.5;" x1="78" x2="267.751" y1="64" y2="64"/><rect fill="none" height="6" style="stroke:#C82930;stroke-width:1.0;" width="6" x="85" y="75.3047"/><text fill="#000000" font-family="sans-serif" font-size="14" lengthAdjust="spacing" textLength="49.8203" x="97" y="82.5332">id: Long</text><rect fill="none" height="6" style="stroke:#C82930;stroke-width:1.0;" width="6" x="85" y="92.9141"/><text fill="#000000" font-family="sans-serif" font-size="14" lengthAdjust="spacing" textLength="66.1377" x="97" y="100.1426">title: String</text><rect fill="none" height="6" style="stroke:#C82930;stroke-width:1.0;" width="6" x="85" y="110.5234"/><text fill="#000000" font-family="sans-serif" font-size="14" lengthAdjust="spacing" textLength="112.0547" x="97" y="117.752">description: String</text><rect fill="none" height="6" style="stroke:#C82930;stroke-width:1.0;" width="6" x="85" y="128.1328"/><text fill="#000000" font-family="sans-serif" font-size="14" lengthAdjust="spacing" textLength="165.751" x="97" y="135.3613">eventDate: LocalDateTime</text><rect fill="none" height="6" style="stroke:#C82930;stroke-width:1.0;" width="6" x="85" y="145.7422"/><text fill="#000000" font-family="sans-serif" font-size="14" lengthAdjust="spacing" textLength="102.7236" x="97" y="152.9707">capacity: Integer</text><rect fill="none" height="6" style="stroke:#C82930;stroke-width:1.0;" width="6" x="85" y="163.3516"/><text fill="#000000" font-family="sans-serif" font-size="14" lengthAdjust="spacing" textLength="108.9238" x="97" y="170.5801">price: BigDecimal</text><line style="stroke:#181818;stroke-width:0.5;" x1="78" x2="267.751" y1="177.6563" y2="177.6563"/></g></a><!--class Venue--><a href="file:/C:/Users/loris/Documents/Programming/Github/event-booking-api/target/reports/apidocs/com/monacoevents/eventbooking/entity/Venue.html" target="_top" title="file:/C:/Users/loris/Documents/Programming/Github/event-booking-api/target/reports/apidocs/com/monacoevents/eventbooking/entity/Venue.html" xlink:actuate="onRequest" xlink:href="file:/C:/Users/loris/Documents/Programming/Github/event-booking-api/target/reports/apidocs/com/monacoevents/eventbooking/entity/Venue.html" xlink:show="new" xlink:title="file:/C:/Users/loris/Documents/Programming/Github/event-booking-api/target/reports/apidocs/com/monacoevents/eventbooking/entity/Venue.html" xlink:type="simple"><g id="elem_Venue"><rect codeLine="26" fill="#F1F1F1" height="118.4375" id="Venue" rx="2.5" ry="2.5" style="stroke:#181818;stroke-width:0.5;" width="120.1582" x="157" y="242"/><ellipse cx="193.4541" cy="258" fill="#ADD1B2" rx="11" ry="11" style="stroke:#181818;stroke-width:1.0;"/><path d="M196.2197,253.875 Q196.376,253.6563 196.5635,253.5469 Q196.751,253.4375 196.9697,253.4375 Q197.3447,253.4375 197.5791,253.7031 Q197.8135,253.9531 197.8135,254.5625 L197.8135,256.0156 Q197.8135,256.625 197.5791,256.8906 Q197.3447,257.1563 196.9697,257.1563 Q196.626,257.1563 196.4229,256.9531 Q196.2197,256.7656 196.1104,256.25 Q196.0635,255.8906 195.876,255.7031 Q195.5479,255.3281 194.9385,255.1094 Q194.3291,254.8906 193.7041,254.8906 Q192.9385,254.8906 192.2979,255.2188 Q191.6729,255.5469 191.1729,256.2969 Q190.6885,257.0469 190.6885,258.0781 L190.6885,259.1719 Q190.6885,260.4063 191.5791,261.2344 Q192.4697,262.0469 194.0635,262.0469 Q195.001,262.0469 195.6572,261.7969 Q196.0479,261.6406 196.4697,261.2031 Q196.7354,260.9375 196.876,260.8594 Q197.0322,260.7813 197.2354,260.7813 Q197.5635,260.7813 197.8135,261.0469 Q198.0791,261.2969 198.0791,261.6406 Q198.0791,261.9844 197.7354,262.3906 Q197.2354,262.9688 196.4385,263.2969 Q195.3604,263.75 194.0635,263.75 Q192.5479,263.75 191.3447,263.125 Q190.3604,262.625 189.6729,261.5625 Q188.9854,260.4844 188.9854,259.2031 L188.9854,258.0469 Q188.9854,256.7188 189.5947,255.5781 Q190.2197,254.4219 191.3135,253.8125 Q192.4072,253.1875 193.6416,253.1875 Q194.376,253.1875 195.0166,253.3594 Q195.6729,253.5156 196.2197,253.875 Z " fill="#000000"/><text fill="#000000" font-family="sans-serif" font-size="14" lengthAdjust="spacing" textLength="40.4824" x="212.2217" y="263.7285">Venue</text><line style="stroke:#181818;stroke-width:0.5;" x1="158" x2="276.1582" y1="274" y2="274"/><rect fill="none" height="6" style="stroke:#C82930;stroke-width:1.0;" width="6" x="165" y="285.3047"/><text fill="#000000" font-family="sans-serif" font-size="14" lengthAdjust="spacing" textLength="49.8203" x="177" y="292.5332">id: Long</text><rect fill="none" height="6" style="stroke:#C82930;stroke-width:1.0;" width="6" x="165" y="302.9141"/><text fill="#000000" font-family="sans-serif" font-size="14" lengthAdjust="spacing" textLength="79.3721" x="177" y="310.1426">name: String</text><rect fill="none" height="6" style="stroke:#C82930;stroke-width:1.0;" width="6" x="165" y="320.5234"/><text fill="#000000" font-family="sans-serif" font-size="14" lengthAdjust="spacing" textLength="94.1582" x="177" y="327.752">address: String</text><rect fill="none" height="6" style="stroke:#C82930;stroke-width:1.0;" width="6" x="165" y="338.1328"/><text fill="#000000" font-family="sans-serif" font-size="14" lengthAdjust="spacing" textLength="65.3516" x="177" y="345.3613">city: String</text><line style="stroke:#181818;stroke-width:0.5;" x1="158" x2="276.1582" y1="352.4375" y2="352.4375"/></g></a><polygon fill="#181818" points="203.5539,241.9371,205.4202,232.2667,202.4258,237.066,197.6265,234.0716,203.5539,241.9371" style="stroke:#181818;stroke-width:1.0;"/><path d="M190.643,186.1855 C194.9465,204.7689 198.1281,218.5076 202.2002,236.0918 " fill="none" style="stroke:#181818;stroke-width:1.0;"/><text fill="#000000" font-family="sans-serif" font-size="13" lengthAdjust="spacing" textLength="35.4199" x="200" y="219.4951">venue</text><polygon fill="#181818" points="104.6487,259.273,112.0325,252.7554,106.7303,254.727,104.7587,249.4248,104.6487,259.273" style="stroke:#181818;stroke-width:1.0;"/><path d="M138.1151,186.1855 C126.6749,211.1698 116.9045,232.5075 107.1466,253.8177 " fill="none" style="stroke:#181818;stroke-width:1.0;"/><text fill="#000000" font-family="sans-serif" font-size="13" lengthAdjust="spacing" textLength="49.8608" x="131" y="219.4951">category</text><text fill="#888888" font-family="sans-serif" font-size="10" lengthAdjust="spacing" textLength="2.7783" x="142.1108" y="380.3809">&#160;</text><a href="https://github.com/talsma-ict/umldoclet" target="_top" title="https://github.com/talsma-ict/umldoclet" xlink:actuate="onRequest" xlink:href="https://github.com/talsma-ict/umldoclet" xlink:show="new" xlink:title="https://github.com/talsma-ict/umldoclet" xlink:type="simple"><text fill="#888888" font-family="sans-serif" font-size="10" lengthAdjust="spacing" textLength="74.4775" x="106.2612" y="392.959">UMLDoclet 2.2.1</text></a><!--SRC=[pLLTRzCm57tdLrp40qCiSPfzb5beqkYcCLIaYNMyb3wupbrgrR63xGnLYF_EZTEDT1Hf224jBtPyxNlFEJc-0G1u2IDRhvmg5m62XR1G7gu_Za6O0aeqw4J00bGbIlGmHsrDwRkD2A892-l0tiGtQPr3NrjJA5F21t4hmDl6IVJfisSGIqtkidyJlfTzlceNJwtK661dzAe7ASy6XqcUvOSm4TfN0Yv6atITxTUPFCtJ0L1khIGQJoaRKw2Bi4vg8MaOTv5Tk4NdbJLq9bldQQbAQu9GnaCjNF0jfKijJ6Yn3bAglvyEOUVaQho9BJkAs7RXn1dH5F39VctkwJwldIW9iHOhsmJm5GPXH0nvmkoHIeb0-d7U7I2WIvAPi5HfPOsG5c_H19_6OMxjaeHDQQh22hvtPzf7Qk4zZ4ZAqheLJAStIYDd8ywkFP5bsZhb6KdLL6qwTkbiwKHLKJPshiAYcRDO8LcNI4IjM12knC0SrfO4ORHKMEaPOMDzRAoFZNNOs1sKT14gFPiHLkWzYIeuZCb7cwj6LCZXAZZLY_nuoFAiBVS4A4OSVyMFZkdV2SPGWLuwLGUovVOD4S4fgTecbaAtqucgS7EN5EGW0iVXmj07GBSPhXrT0GxlL7cAaYwq_hFAdz4q-0HKZZZ-tKKn8eg2sfFV7knassw-zV2OMybvvyyaENxa_iYGKrEYuJ-MkRkH7EHwrf5wwyDAu_4zvHjh0_NDJQdVhsfqOsMM8qiEW1TljaUlsvQhbK7gyd9fI6l8Ubh6SgnNRrthYvbE5o7KdZDMHXEbhJT2RFU9ae4rbIwwFl-Wuyzcwmv-VlyhQTjnaWsJx70osEC70vuDqxtyw61_ECoorrdEisnwrZXR8xiKvERPJm00]--></g></svg>