<svg xmlns="http://www.w3.org/2000/svg" xmlns:xlink="http://www.w3.org/1999/xlink" contentStyleType="text/css" height="207px" preserveAspectRatio="none" style="width:303px;height:207px;background:#FFFFFF;" version="1.1" viewBox="0 0 303 207" width="303px" zoomAndPan="magnify"><defs/><g><!--cluster com.monacoevents.eventbooking.entity--><g id="cluster_com.monacoevents.eventbooking.entity"><path d="M16.5,4 L284.334,4 A3.75,3.75 0 0 1 286.834,6.5 L293.834,27.6094 L293.5,27.6094 A2.5,2.5 0 0 1 296,30.1094 L296,169.5 A2.5,2.5 0 0 1 293.5,172 L16.5,172 A2.5,2.5 0 0 1 14,169.5 L14,6.5 A2.5,2.5 0 0 1 16.5,4 " fill="none" style="stroke:#000000;stroke-width:1.5;"/><line style="stroke:#000000;stroke-width:1.5;" x1="14" x2="293.834" y1="27.6094" y2="27.6094"/><text fill="#000000" font-family="sans-serif" font-size="14" font-weight="bold" lengthAdjust="spacing" textLength="266.834" x="18" y="20.5332">com.monacoevents.eventbooking.entity</text></g><!--class Category--><a href="file:/C:/Users/loris/Documents/Programming/Github/event-booking-api/target/reports/apidocs/com/monacoevents/eventbooking/entity/Category.html" target="_top" title="file:/C:/Users/loris/Documents/Programming/Github/event-booking-api/target/reports/apidocs/com/monacoevents/eventbooking/entity/Category.html" xlink:actuate="onRequest" xlink:href="file:/C:/Users/loris/Documents/Programming/Github/event-booking-api/target/reports/apidocs/com/monacoevents/eventbooking/entity/Category.html" xlink:show="new" xlink:title="file:/C:/Users/loris/Documents/Programming/Github/event-booking-api/target/reports/apidocs/com/monacoevents/eventbooking/entity/Category.html" xlink:type="simple"><g id="elem_Category"><rect codeLine="12" fill="#F1F1F1" height="48" id="Category" rx="2.5" ry="2.5" style="stroke:#181818;stroke-width:0.5;" width="88.8066" x="67.5" y="32"/><ellipse cx="82.5" cy="48" fill="#ADD1B2" rx="11" ry="11" style="stroke:#181818;stroke-width:1.0;"/><path d="M85.2656,43.875 Q85.4219,43.6563 85.6094,43.5469 Q85.7969,43.4375 86.0156,43.4375 Q86.3906,43.4375 86.625,43.7031 Q86.8594,43.9531 86.8594,44.5625 L86.8594,46.0156 Q86.8594,46.625 86.625,46.8906 Q86.3906,47.1563 86.0156,47.1563 Q85.6719,47.1563 85.4688,46.9531 Q85.2656,46.7656 85.1563,46.25 Q85.1094,45.8906 84.9219,45.7031 Q84.5938,45.3281 83.9844,45.1094 Q83.375,44.8906 82.75,44.8906 Q81.9844,44.8906 81.3438,45.2188 Q80.7188,45.5469 80.2188,46.2969 Q79.7344,47.0469 79.7344,48.0781 L79.7344,49.1719 Q79.7344,50.4063 80.625,51.2344 Q81.5156,52.0469 83.1094,52.0469 Q84.0469,52.0469 84.7031,51.7969 Q85.0938,51.6406 85.5156,51.2031 Q85.7813,50.9375 85.9219,50.8594 Q86.0781,50.7813 86.2813,50.7813 Q86.6094,50.7813 86.8594,51.0469 Q87.125,51.2969 87.125,51.6406 Q87.125,51.9844 86.7813,52.3906 Q86.2813,52.9688 85.4844,53.2969 Q84.4063,53.75 83.1094,53.75 Q81.5938,53.75 80.3906,53.125 Q79.4063,52.625 78.7188,51.5625 Q78.0313,50.4844 78.0313,49.2031 L78.0313,48.0469 Q78.0313,46.7188 78.6406,45.5781 Q79.2656,44.4219 80.3594,43.8125 Q81.4531,43.1875 82.6875,43.1875 Q83.4219,43.1875 84.0625,43.3594 Q84.7188,43.5156 85.2656,43.875 Z " fill="#000000"/><text fill="#000000" font-family="sans-serif" font-size="14" lengthAdjust="spacing" textLength="56.8066" x="96.5" y="53.7285">Category</text><line style="stroke:#181818;stroke-width:0.5;" x1="68.5" x2="155.3066" y1="64" y2="64"/><line style="stroke:#181818;stroke-width:0.5;" x1="68.5" x2="155.3066" y1="72" y2="72"/></g></a><!--class Event--><a href="file:/C:/Users/loris/Documents/Programming/Github/event-booking-api/target/reports/apidocs/com/monacoevents/eventbooking/entity/Event.html" target="_top" title="file:/C:/Users/loris/Documents/Programming/Github/event-booking-api/target/reports/apidocs/com/monacoevents/eventbooking/entity/Event.html" xlink:actuate="onRequest" xlink:href="file:/C:/Users/loris/Documents/Programming/Github/event-booking-api/target/reports/apidocs/com/monacoevents/eventbooking/entity/Event.html" xlink:show="new" xlink:title="file:/C:/Users/loris/Documents/Programming/Github/event-booking-api/target/reports/apidocs/com/monacoevents/eventbooking/entity/Event.html" xlink:type="simple"><g id="elem_Event"><rect codeLine="15" fill="#F1F1F1" height="48" id="Event" rx="2.5" ry="2.5" style="stroke:#181818;stroke-width:0.5;" width="67.7998" x="175" y="32"/><ellipse cx="190" cy="48" fill="#ADD1B2" rx="11" ry="11" style="stroke:#181818;stroke-width:1.0;"/><path d="M192.7656,43.875 Q192.9219,43.6563 193.1094,43.5469 Q193.2969,43.4375 193.5156,43.4375 Q193.8906,43.4375 194.125,43.7031 Q194.3594,43.9531 194.3594,44.5625 L194.3594,46.0156 Q194.3594,46.625 194.125,46.8906 Q193.8906,47.1563 193.5156,47.1563 Q193.1719,47.1563 192.9688,46.9531 Q192.7656,46.7656 192.6563,46.25 Q192.6094,45.8906 192.4219,45.7031 Q192.0938,45.3281 191.4844,45.1094 Q190.875,44.8906 190.25,44.8906 Q189.4844,44.8906 188.8438,45.2188 Q188.2188,45.5469 187.7188,46.2969 Q187.2344,47.0469 187.2344,48.0781 L187.2344,49.1719 Q187.2344,50.4063 188.125,51.2344 Q189.0156,52.0469 190.6094,52.0469 Q191.5469,52.0469 192.2031,51.7969 Q192.5938,51.6406 193.0156,51.2031 Q193.2813,50.9375 193.4219,50.8594 Q193.5781,50.7813 193.7813,50.7813 Q194.1094,50.7813 194.3594,51.0469 Q194.625,51.2969 194.625,51.6406 Q194.625,51.9844 194.2813,52.3906 Q193.7813,52.9688 192.9844,53.2969 Q191.9063,53.75 190.6094,53.75 Q189.0938,53.75 187.8906,53.125 Q186.9063,52.625 186.2188,51.5625 Q185.5313,50.4844 185.5313,49.2031 L185.5313,48.0469 Q185.5313,46.7188 186.1406,45.5781 Q186.7656,44.4219 187.8594,43.8125 Q188.9531,43.1875 190.1875,43.1875 Q190.9219,43.1875 191.5625,43.3594 Q192.2188,43.5156 192.7656,43.875 Z " fill="#000000"/><text fill="#000000" font-family="sans-serif" font-size="14" lengthAdjust="spacing" textLength="35.7998" x="204" y="53.7285">Event</text><line style="stroke:#181818;stroke-width:0.5;" x1="176" x2="241.7998" y1="64" y2="64"/><line style="stroke:#181818;stroke-width:0.5;" x1="176" x2="241.7998" y1="72" y2="72"/></g></a><!--class Venue--><a href="file:/C:/Users/loris/Documents/Programming/Github/event-booking-api/target/reports/apidocs/com/monacoevents/eventbooking/entity/Venue.html" target="_top" title="file:/C:/Users/loris/Documents/Programming/Github/event-booking-api/target/reports/apidocs/com/monacoevents/eventbooking/entity/Venue.html" xlink:actuate="onRequest" xlink:href="file:/C:/Users/loris/Documents/Programming/Github/event-booking-api/target/reports/apidocs/com/monacoevents/eventbooking/entity/Venue.html" xlink:show="new" xlink:title="file:/C:/Users/loris/Documents/Programming/Github/event-booking-api/target/reports/apidocs/com/monacoevents/eventbooking/entity/Venue.html" xlink:type="simple"><g id="elem_Venue"><rect codeLine="18" fill="#F1F1F1" height="48" id="Venue" rx="2.5" ry="2.5" style="stroke:#181818;stroke-width:0.5;" width="72.4824" x="76" y="116"/><ellipse cx="91" cy="132" fill="#ADD1B2" rx="11" ry="11" style="stroke:#181818;stroke-width:1.0;"/><path d="M93.7656,127.875 Q93.9219,127.6563 94.1094,127.5469 Q94.2969,127.4375 94.5156,127.4375 Q94.8906,127.4375 95.125,127.7031 Q95.3594,127.9531 95.3594,128.5625 L95.3594,130.0156 Q95.3594,130.625 95.125,130.8906 Q94.8906,131.1563 94.5156,131.1563 Q94.1719,131.1563 93.9688,130.9531 Q93.7656,130.7656 93.6563,130.25 Q93.6094,129.8906 93.4219,129.7031 Q93.0938,129.3281 92.4844,129.1094 Q91.875,128.8906 91.25,128.8906 Q90.4844,128.8906 89.8438,129.2188 Q89.2188,129.5469 88.7188,130.2969 Q88.2344,131.0469 88.2344,132.0781 L88.2344,133.1719 Q88.2344,134.4063 89.125,135.2344 Q90.0156,136.0469 91.6094,136.0469 Q92.5469,136.0469 93.2031,135.7969 Q93.5938,135.6406 94.0156,135.2031 Q94.2813,134.9375 94.4219,134.8594 Q94.5781,134.7813 94.7813,134.7813 Q95.1094,134.7813 95.3594,135.0469 Q95.625,135.2969 95.625,135.6406 Q95.625,135.9844 95.2813,136.3906 Q94.7813,136.9688 93.9844,137.2969 Q92.9063,137.75 91.6094,137.75 Q90.0938,137.75 88.8906,137.125 Q87.9063,136.625 87.2188,135.5625 Q86.5313,134.4844 86.5313,133.2031 L86.5313,132.0469 Q86.5313,130.7188 87.1406,129.5781 Q87.7656,128.4219 88.8594,127.8125 Q89.9531,127.1875 91.1875,127.1875 Q91.9219,127.1875 92.5625,127.3594 Q93.2188,127.5156 93.7656,127.875 Z " fill="#000000"/><text fill="#000000" font-family="sans-serif" font-size="14" lengthAdjust="spacing" textLength="40.4824" x="105" y="137.7285">Venue</text><line style="stroke:#181818;stroke-width:0.5;" x1="77" x2="147.4824" y1="148" y2="148"/><line style="stroke:#181818;stroke-width:0.5;" x1="77" x2="147.4824" y1="156" y2="156"/></g></a><text fill="#888888" font-family="sans-serif" font-size="10" lengthAdjust="spacing" textLength="2.7783" x="142.1108" y="184.3809">&#160;</text><a href="https://github.com/talsma-ict/umldoclet" target="_top" title="https://github.com/talsma-ict/umldoclet" xlink:actuate="onRequest" xlink:href="https://github.com/talsma-ict/umldoclet" xlink:show="new" xlink:title="https://github.com/talsma-ict/umldoclet" xlink:type="simple"><text fill="#888888" font-family="sans-serif" font-size="10" lengthAdjust="spacing" textLength="74.4775" x="106.2612" y="196.959">UMLDoclet 2.2.1</text></a><!--SRC=[pPHHRzCm4CVVzoaEyS0GQ-naeziYX3ILQO2AD47BI-d3DRcbLXrVi9sX2F7TkQJTLYQGU9nVdFXyz__TFxe00Bo02JUTDzKwGcI8QnDW_caAw4geo977I2MO6YiAi2BBhWhRYmJOnZLxu9lXhM3lAJJiIkCg-8Yt285RNr183WvWa9hTLV-1OQ_wgkiFtt5XASBXvEKUKgRJyIZJsHXcQ4EDy64oItRL7dAo94jIaDhM5EI2b6nTINx0kcYma6swZHp1BVbWs4cEtjNfMotOHJGkG8C-XhwbQuikzgnf8ledoIaSNdoP_iccpmUs8xZm3jiIFlFtzhxTPut7IeWjTjn623L5T3Y4WZ074YcCub-URnC4T2Cs2qkTrEomOBeb5qCoR2lcZHYRoAE97VpSvlIhi1W2JCJAYdq7YyMDiPIhIQxcGPfLbhq9IgngwxwSklPSUQnhgQQkJ5otApKeZ7OI8soCYkWhYifJmsA8agEIYw24JUspgNqsjMLJToZ9EjPskHJMEzHVZwal-_GdW3nm_0VlLt8jFG7UWUEVlBljJOYTfRVtqHlcA5FnSBrVxxk6_DIupOIb2tX-zlVel1yeQnp931SRH-A5tfCTvDIUtaxhcriirZ4s8LUg6en8-lxYCCmZKqJLrhRSJl6ZULukT_DvTV-Zw8Tjf4z7UZnBTPuUv-dh93tEpa_EZhL-fRDSwyLbwxaXTOtoHPQ_0G00]--></g></svg>