<svg xmlns="http://www.w3.org/2000/svg" xmlns:xlink="http://www.w3.org/1999/xlink" contentStyleType="text/css" height="100%" preserveAspectRatio="none" style="width:100%;height:100%;background:#FFFFFF;" version="1.1" viewBox="0 0 300 442" width="100%" zoomAndPan="magnify"><defs/><g><!--cluster com.monacoevents.eventbooking.entity--><g id="cluster_com.monacoevents.eventbooking.entity"><path d="M10,6 L253.8955,6 A6,6 0 0 1 257.8955,10 L264.8955,29.291 L289,29.291 A4,4 0 0 1 293,33.291 L293,397.91 A4,4 0 0 1 289,401.91 L10,401.91 A4,4 0 0 1 6,397.91 L6,10 A4,4 0 0 1 10,6 " fill="#FBFBFD" style="stroke:#B8C4D0;stroke-width:1.5;"/><line style="stroke:#B8C4D0;stroke-width:1.5;" x1="6" x2="264.8955" y1="29.291" y2="29.291"/><text fill="#33475B" font-family="Segoe UI" font-size="13" font-weight="bold" lengthAdjust="spacing" textLength="245.8955" x="10" y="22.0283">com.monacoevents.eventbooking.entity</text></g><!--class Category--><a href="file:/C:/Users/loris/Documents/Programming/Github/event-booking-api/target/reports/apidocs/com/monacoevents/eventbooking/entity/Category.html" target="_top" title="file:/C:/Users/loris/Documents/Programming/Github/event-booking-api/target/reports/apidocs/com/monacoevents/eventbooking/entity/Category.html" xlink:actuate="onRequest" xlink:href="file:/C:/Users/loris/Documents/Programming/Github/event-booking-api/target/reports/apidocs/com/monacoevents/eventbooking/entity/Category.html" xlink:show="new" xlink:title="file:/C:/Users/loris/Documents/Programming/Github/event-booking-api/target/reports/apidocs/com/monacoevents/eventbooking/entity/Category.html" xlink:type="simple"><g id="elem_Category"><rect codeLine="25" fill="#F4F8FB" height="80.582" id="Category" rx="4" ry="4" style="stroke:#2C6E8C;stroke-width:0.5;" width="103.0381" x="22.48" y="288.04"/><ellipse cx="44.4332" cy="303.04" fill="#ADD1B2" rx="10" ry="10" style="stroke:#181818;stroke-width:1.0;"/><path d="M45.3707,299.6806 Q45.4957,299.5088 45.6363,299.4306 Q45.777,299.3525 45.9488,299.3525 Q46.2301,299.3525 46.402,299.5556 Q46.5895,299.7431 46.5895,300.2119 L46.5895,301.3213 Q46.5895,301.79 46.402,301.9931 Q46.2301,302.1806 45.9488,302.1806 Q45.6832,302.1806 45.527,302.04 Q45.3707,301.8994 45.2926,301.4931 Q45.2457,301.2275 45.1207,301.0869 Q44.8551,300.79 44.3863,300.6181 Q43.9176,300.4463 43.4488,300.4463 Q42.8707,300.4463 42.3707,300.7119 Q41.8863,300.9619 41.5113,301.54 Q41.1363,302.1025 41.1363,302.8838 L41.1363,303.7275 Q41.1363,304.665 41.8238,305.3056 Q42.5113,305.9306 43.7145,305.9306 Q44.4488,305.9306 44.9488,305.7275 Q45.2301,305.6181 45.5582,305.2744 Q45.7613,305.0713 45.8707,305.0244 Q45.9957,304.9619 46.1363,304.9619 Q46.402,304.9619 46.5895,305.165 Q46.7926,305.3525 46.7926,305.6181 Q46.7926,305.8838 46.527,306.1963 Q46.1363,306.6338 45.527,306.8838 Q44.7145,307.2275 43.7301,307.2275 Q42.5738,307.2275 41.6363,306.7588 Q40.8863,306.3681 40.3551,305.5556 Q39.8395,304.7275 39.8395,303.7588 L39.8395,302.8681 Q39.8395,301.8525 40.3082,300.9775 Q40.7926,300.1025 41.6207,299.6338 Q42.4645,299.1494 43.402,299.1494 Q43.9645,299.1494 44.4488,299.29 Q44.9488,299.415 45.3707,299.6806 Z " fill="#000000"/><text fill="#14324A" font-family="Segoe UI" font-size="13" lengthAdjust="spacing" textLength="55.3643" x="59.2006" y="308.4228">Category</text><line style="stroke:#2C6E8C;stroke-width:0.5;" x1="23.48" x2="124.5181" y1="318.04" y2="318.04"/><rect fill="none" height="6" style="stroke:#C82930;stroke-width:1.0;" width="6" x="30.48" y="329.1855"/><text fill="#000000" font-family="Segoe UI" font-size="13" lengthAdjust="spacing" textLength="49.3594" x="41.48" y="336.0683">id: Long</text><rect fill="none" height="6" style="stroke:#C82930;stroke-width:1.0;" width="6" x="30.48" y="346.4765"/><text fill="#000000" font-family="Segoe UI" font-size="13" lengthAdjust="spacing" textLength="78.0381" x="41.48" y="353.3593">name: String</text><line style="stroke:#2C6E8C;stroke-width:0.5;" x1="23.48" x2="124.5181" y1="360.622" y2="360.622"/></g></a><!--class Event--><a href="file:/C:/Users/loris/Documents/Programming/Github/event-booking-api/target/reports/apidocs/com/monacoevents/eventbooking/entity/Event.html" target="_top" title="file:/C:/Users/loris/Documents/Programming/Github/event-booking-api/target/reports/apidocs/com/monacoevents/eventbooking/entity/Event.html" xlink:actuate="onRequest" xlink:href="file:/C:/Users/loris/Documents/Programming/Github/event-booking-api/target/reports/apidocs/com/monacoevents/eventbooking/entity/Event.html" xlink:show="new" xlink:title="file:/C:/Users/loris/Documents/Programming/Github/event-booking-api/target/reports/apidocs/com/monacoevents/eventbooking/entity/Event.html" xlink:type="simple"><g id="elem_Event"><rect codeLine="30" fill="#F4F8FB" height="149.7461" id="Event" rx="4" ry="4" style="stroke:#2C6E8C;stroke-width:0.5;" width="185.2656" x="49.37" y="42"/><ellipse cx="121.0419" cy="57" fill="#ADD1B2" rx="10" ry="10" style="stroke:#181818;stroke-width:1.0;"/><path d="M121.9794,53.6406 Q122.1044,53.4688 122.245,53.3906 Q122.3856,53.3125 122.5575,53.3125 Q122.8388,53.3125 123.0106,53.5156 Q123.1981,53.7031 123.1981,54.1719 L123.1981,55.2813 Q123.1981,55.75 123.0106,55.9531 Q122.8388,56.1406 122.5575,56.1406 Q122.2919,56.1406 122.1356,56 Q121.9794,55.8594 121.9013,55.4531 Q121.8544,55.1875 121.7294,55.0469 Q121.4638,54.75 120.995,54.5781 Q120.5263,54.4063 120.0575,54.4063 Q119.4794,54.4063 118.9794,54.6719 Q118.495,54.9219 118.12,55.5 Q117.745,56.0625 117.745,56.8438 L117.745,57.6875 Q117.745,58.625 118.4325,59.2656 Q119.12,59.8906 120.3231,59.8906 Q121.0575,59.8906 121.5575,59.6875 Q121.8388,59.5781 122.1669,59.2344 Q122.37,59.0313 122.4794,58.9844 Q122.6044,58.9219 122.745,58.9219 Q123.0106,58.9219 123.1981,59.125 Q123.4013,59.3125 123.4013,59.5781 Q123.4013,59.8438 123.1356,60.1563 Q122.745,60.5938 122.1356,60.8438 Q121.3231,61.1875 120.3388,61.1875 Q119.1825,61.1875 118.245,60.7188 Q117.495,60.3281 116.9638,59.5156 Q116.4481,58.6875 116.4481,57.7188 L116.4481,56.8281 Q116.4481,55.8125 116.9169,54.9375 Q117.4013,54.0625 118.2294,53.5938 Q119.0731,53.1094 120.0106,53.1094 Q120.5731,53.1094 121.0575,53.25 Q121.5575,53.375 121.9794,53.6406 Z " fill="#000000"/><text fill="#14324A" font-family="Segoe UI" font-size="13" lengthAdjust="spacing" textLength="33.9219" x="140.0419" y="62.3828">Event</text><line style="stroke:#2C6E8C;stroke-width:0.5;" x1="50.37" x2="233.6356" y1="72" y2="72"/><rect fill="none" height="6" style="stroke:#C82930;stroke-width:1.0;" width="6" x="57.37" y="83.1455"/><text fill="#000000" font-family="Segoe UI" font-size="13" lengthAdjust="spacing" textLength="49.3594" x="68.37" y="90.0283">id: Long</text><rect fill="none" height="6" style="stroke:#C82930;stroke-width:1.0;" width="6" x="57.37" y="100.4365"/><text fill="#000000" font-family="Segoe UI" font-size="13" lengthAdjust="spacing" textLength="68.7769" x="68.37" y="107.3193">title: String</text><rect fill="none" height="6" style="stroke:#C82930;stroke-width:1.0;" width="6" x="57.37" y="117.7275"/><text fill="#000000" font-family="Segoe UI" font-size="13" lengthAdjust="spacing" textLength="112.7725" x="68.37" y="124.6104">description: String</text><rect fill="none" height="6" style="stroke:#C82930;stroke-width:1.0;" width="6" x="57.37" y="135.0186"/><text fill="#000000" font-family="Segoe UI" font-size="13" lengthAdjust="spacing" textLength="160.2656" x="68.37" y="141.9014">eventDate: LocalDateTime</text><rect fill="none" height="6" style="stroke:#C82930;stroke-width:1.0;" width="6" x="57.37" y="152.3096"/><text fill="#000000" font-family="Segoe UI" font-size="13" lengthAdjust="spacing" textLength="101.7212" x="68.37" y="159.1924">capacity: Integer</text><rect fill="none" height="6" style="stroke:#C82930;stroke-width:1.0;" width="6" x="57.37" y="169.6006"/><text fill="#000000" font-family="Segoe UI" font-size="13" lengthAdjust="spacing" textLength="106.5391" x="68.37" y="176.4834">price: BigDecimal</text><line style="stroke:#2C6E8C;stroke-width:0.5;" x1="50.37" x2="233.6356" y1="183.7461" y2="183.7461"/></g></a><!--class Venue--><a href="file:/C:/Users/loris/Documents/Programming/Github/event-booking-api/target/reports/apidocs/com/monacoevents/eventbooking/entity/Venue.html" target="_top" title="file:/C:/Users/loris/Documents/Programming/Github/event-booking-api/target/reports/apidocs/com/monacoevents/eventbooking/entity/Venue.html" xlink:actuate="onRequest" xlink:href="file:/C:/Users/loris/Documents/Programming/Github/event-booking-api/target/reports/apidocs/com/monacoevents/eventbooking/entity/Venue.html" xlink:show="new" xlink:title="file:/C:/Users/loris/Documents/Programming/Github/event-booking-api/target/reports/apidocs/com/monacoevents/eventbooking/entity/Venue.html" xlink:type="simple"><g id="elem_Venue"><rect codeLine="39" fill="#F4F8FB" height="115.1641" id="Venue" rx="4" ry="4" style="stroke:#2C6E8C;stroke-width:0.5;" width="115.9746" x="161.01" y="270.75"/><ellipse cx="196.3885" cy="285.75" fill="#ADD1B2" rx="10" ry="10" style="stroke:#181818;stroke-width:1.0;"/><path d="M197.326,282.3906 Q197.451,282.2188 197.5916,282.1406 Q197.7323,282.0625 197.9041,282.0625 Q198.1854,282.0625 198.3573,282.2656 Q198.5448,282.4531 198.5448,282.9219 L198.5448,284.0313 Q198.5448,284.5 198.3573,284.7031 Q198.1854,284.8906 197.9041,284.8906 Q197.6385,284.8906 197.4823,284.75 Q197.326,284.6094 197.2479,284.2031 Q197.201,283.9375 197.076,283.7969 Q196.8104,283.5 196.3416,283.3281 Q195.8729,283.1563 195.4041,283.1563 Q194.826,283.1563 194.326,283.4219 Q193.8416,283.6719 193.4666,284.25 Q193.0916,284.8125 193.0916,285.5938 L193.0916,286.4375 Q193.0916,287.375 193.7791,288.0156 Q194.4666,288.6406 195.6698,288.6406 Q196.4041,288.6406 196.9041,288.4375 Q197.1854,288.3281 197.5135,287.9844 Q197.7166,287.7813 197.826,287.7344 Q197.951,287.6719 198.0916,287.6719 Q198.3573,287.6719 198.5448,287.875 Q198.7479,288.0625 198.7479,288.3281 Q198.7479,288.5938 198.4823,288.9063 Q198.0916,289.3438 197.4823,289.5938 Q196.6698,289.9375 195.6854,289.9375 Q194.5291,289.9375 193.5916,289.4688 Q192.8416,289.0781 192.3104,288.2656 Q191.7948,287.4375 191.7948,286.4688 L191.7948,285.5781 Q191.7948,284.5625 192.2635,283.6875 Q192.7479,282.8125 193.576,282.3438 Q194.4198,281.8594 195.3573,281.8594 Q195.9198,281.8594 196.4041,282 Q196.9041,282.125 197.326,282.3906 Z " fill="#000000"/><text fill="#14324A" font-family="Segoe UI" font-size="13" lengthAdjust="spacing" textLength="38.4668" x="214.1393" y="291.1328">Venue</text><line style="stroke:#2C6E8C;stroke-width:0.5;" x1="162.01" x2="275.9846" y1="300.75" y2="300.75"/><rect fill="none" height="6" style="stroke:#C82930;stroke-width:1.0;" width="6" x="169.01" y="311.8955"/><text fill="#000000" font-family="Segoe UI" font-size="13" lengthAdjust="spacing" textLength="49.3594" x="180.01" y="318.7783">id: Long</text><rect fill="none" height="6" style="stroke:#C82930;stroke-width:1.0;" width="6" x="169.01" y="329.1865"/><text fill="#000000" font-family="Segoe UI" font-size="13" lengthAdjust="spacing" textLength="78.0381" x="180.01" y="336.0693">name: String</text><rect fill="none" height="6" style="stroke:#C82930;stroke-width:1.0;" width="6" x="169.01" y="346.4775"/><text fill="#000000" font-family="Segoe UI" font-size="13" lengthAdjust="spacing" textLength="90.9746" x="180.01" y="353.3604">address: String</text><rect fill="none" height="6" style="stroke:#C82930;stroke-width:1.0;" width="6" x="169.01" y="363.7686"/><text fill="#000000" font-family="Segoe UI" font-size="13" lengthAdjust="spacing" textLength="66.2251" x="180.01" y="370.6514">city: String</text><line style="stroke:#2C6E8C;stroke-width:0.5;" x1="162.01" x2="275.9846" y1="377.9141" y2="377.9141"/></g></a><!--link Event to Venue--><g id="link_Event_Venue"><path codeLine="48" d="M169.26,192.01 C178.73,217.79 187.1301,240.6384 196.0101,264.7984 " fill="none" id="Event-to-Venue" style="stroke:#2C6E8C;stroke-width:1.0;"/><polygon fill="#2C6E8C" points="198.08,270.43,198.7296,260.6026,196.3551,265.737,191.2207,263.3625,198.08,270.43" style="stroke:#2C6E8C;stroke-width:1.0;"/><text fill="#000000" font-family="Segoe UI" font-size="13" lengthAdjust="spacing" textLength="36.8418" x="186.11" y="236.7783">venue</text></g><!--link Event to Category--><g id="link_Event_Category"><path codeLine="49" d="M117.63,192.19 C114.38,202.12 111.11,212.18 108,221.75 C100.92,243.54 94.9167,262.178 88.5467,281.988 " fill="none" id="Event-to-Category" style="stroke:#2C6E8C;stroke-width:1.0;"/><polygon fill="#2C6E8C" points="86.71,287.7,93.273,280.3565,88.2406,282.94,85.6571,277.9076,86.71,287.7" style="stroke:#2C6E8C;stroke-width:1.0;"/><text fill="#000000" font-family="Segoe UI" font-size="13" lengthAdjust="spacing" textLength="53.4917" x="109" y="236.7783">category</text></g><text fill="#888888" font-family="Segoe UI" font-size="10" lengthAdjust="spacing" textLength="2.7588" x="141.6206" y="418.701">&#160;</text><a href="https://github.com/talsma-ict/umldoclet" target="_top" title="https://github.com/talsma-ict/umldoclet" xlink:actuate="onRequest" xlink:href="https://github.com/talsma-ict/umldoclet" xlink:show="new" xlink:title="https://github.com/talsma-ict/umldoclet" xlink:type="simple"><text fill="#888888" font-family="Segoe UI" font-size="10" lengthAdjust="spacing" textLength="77.7783" x="104.1108" y="432.0018">UMLDoclet 2.2.1</text></a><!--SRC=[pLPDRziu4BttLynY3zj5Ar6sLSSH5WLisMvJk4MmSNhn-i1GOvcmH6f9Ae5RzBztz96ix3ZO5aM1oWVAcZSpRqQF7040_06nBlP6fbi7JeFRIWlNxnV0LG8fAZJSOG8ovobQkC5CgzGsG0HUkgqse3VrFw6DGLjebKYLmZj-oy7gqWYq_hDdKATQtaU_uxOJ_MPVFPngaQ63v_6V7Khze3Vq-a5_24kUsPp3HRpqssZ_-VJzljy3Yfr9WSfIo58bQ6fQuu8BMXQDvINSeh5IA_89sZXLgK8hnwMoK73ZR5NIPSQLgxZsVCeV-cVmV7orEEGMdDVSNiBOA5ucyBV-jtmer-waecWy1xlbYRwhkhAX8l38QZIHZRMXRi3eo9RWXfUPcnEx3pn7kC9K8rnVF0sxafyGUeCZWCYujHCkTccRBQFtzliyd8_cavDGRQX_BQmV3sUZ-1HiR8o- -rzKHQi5zS91FnmVWQHoQ3PSu2E2i_5yE0-UX1-Gd9tFXiVfwTNlIBYF2v_GR_e4k1jrCeh3QN0Qs2bhC0ZFNZMD_AqmF2MTPdolImU9TeqtgTHYvU_88OeQYRIHI7svdsl5XSPRLCxwzNAZDULCVRgLRW-V6v_ggjiACMsUL9izh5ORcM74ueXTMv8t8rBICjeSPLw5OvT6fyGyfsZiZNJRyeRL6RmsXSSBoHmtAJfciD2q1HWzIhImZBYnBZVMvSOQRkoUYhzrURPU4rVeN9vC8bZGoN7uL96Y8xXoHdOiNuwhd5NfVe4IQnxVLH-vPOyBh4q9Mc5auUWWEWse6KofgrLWmRFgTYbpF4G9JWeYSX5SqAP8qHoQ2qE7NWGJcKvHq16UFTtbZwXA_0MwNFFuSHNL5fuaD93iQMFJjjFYQvTlsPLHrEZJyrv_8xwkCA8nHCjFJ7E_8oCGxLrJr5_MxJDy_L3oHciwJezQ_NPVe5b8jMlFjz5fwtKrP3EfaEQws2dgDGITNjRfM2TVc-iVjLfjdIjin5XQYyYljE7g0Uz9uLYPPqapsOzc_7hTpkmt3nyFrG3sWZCl62vxOHI-YcXMXyFpmR0N1i6Be1y5mMfM6bqWk-IavlLN]--></g></svg>