<svg xmlns="http://www.w3.org/2000/svg" xmlns:xlink="http://www.w3.org/1999/xlink" contentStyleType="text/css" height="259px" preserveAspectRatio="none" style="width:1362px;height:259px;" version="1.1" viewBox="0 0 1362 259" width="1362px" zoomAndPan="magnify"><defs/><g><!--class com.monacoevents.eventbooking.controller--><a href="..\..\target\reports\apidocs\com\monacoevents\eventbooking\controller\package-summary.html" target="_top" title="..\..\target\reports\apidocs\com\monacoevents\eventbooking\controller\package-summary.html" xlink:actuate="onRequest" xlink:href="..\..\target\reports\apidocs\com\monacoevents\eventbooking\controller\package-summary.html" xlink:show="new" xlink:title="..\..\target\reports\apidocs\com\monacoevents\eventbooking\controller\package-summary.html" xlink:type="simple"><g id="elem_com.monacoevents.eventbooking.controller"><rect codeLine="30" fill="#F1F1F1" height="27.6094" id="com.monacoevents.eventbooking.controller" rx="2.5" ry="2.5" style="stroke:#181818;stroke-width:0.5;" width="276.04" x="710" y="12"/><text fill="#000000" font-family="sans-serif" font-size="14" lengthAdjust="spacing" textLength="270.04" x="713" y="31.5332">com.monacoevents.eventbooking.controller</text></g></a><!--class com.monacoevents.eventbooking.service--><a href="..\..\target\reports\apidocs\com\monacoevents\eventbooking\service\package-summary.html" target="_top" title="..\..\target\reports\apidocs\com\monacoevents\eventbooking\service\package-summary.html" xlink:actuate="onRequest" xlink:href="..\..\target\reports\apidocs\com\monacoevents\eventbooking\service\package-summary.html" xlink:show="new" xlink:title="..\..\target\reports\apidocs\com\monacoevents\eventbooking\service\package-summary.html" xlink:type="simple"><g id="elem_com.monacoevents.eventbooking.service"><rect codeLine="32" fill="#F1F1F1" height="27.6094" id="com.monacoevents.eventbooking.service" rx="2.5" ry="2.5" style="stroke:#181818;stroke-width:0.5;" width="262.8057" x="445.5" y="76"/><text fill="#000000" font-family="sans-serif" font-size="14" lengthAdjust="spacing" textLength="256.8057" x="448.5" y="95.5332">com.monacoevents.eventbooking.service</text></g></a><!--class org.springframework.http--><g id="elem_org.springframework.http"><rect fill="#F1F1F1" height="27.6094" id="org.springframework.http" rx="2.5" ry="2.5" style="stroke:#181818;stroke-width:0.5;" width="160.8408" x="958.5" y="76"/><text fill="#000000" font-family="sans-serif" font-size="14" lengthAdjust="spacing" textLength="154.8408" x="961.5" y="95.5332">org.springframework.http</text></g><!--class com.monacoevents.eventbooking.dto--><a href="..\..\target\reports\apidocs\com\monacoevents\eventbooking\dto\package-summary.html" target="_top" title="..\..\target\reports\apidocs\com\monacoevents\eventbooking\dto\package-summary.html" xlink:actuate="onRequest" xlink:href="..\..\target\reports\apidocs\com\monacoevents\eventbooking\dto\package-summary.html" xlink:show="new" xlink:title="..\..\target\reports\apidocs\com\monacoevents\eventbooking\dto\package-summary.html" xlink:type="simple"><g id="elem_com.monacoevents.eventbooking.dto"><rect codeLine="34" fill="#F1F1F1" height="27.6094" id="com.monacoevents.eventbooking.dto" rx="2.5" ry="2.5" style="stroke:#181818;stroke-width:0.5;" width="237.9229" x="550" y="204"/><text fill="#000000" font-family="sans-serif" font-size="14" lengthAdjust="spacing" textLength="231.9229" x="553" y="223.5332">com.monacoevents.eventbooking.dto</text></g></a><!--class org.springframework.data.domain--><g id="elem_org.springframework.data.domain"><rect fill="#F1F1F1" height="27.6094" id="org.springframework.data.domain" rx="2.5" ry="2.5" style="stroke:#181818;stroke-width:0.5;" width="214.5439" x="686.5" y="140"/><text fill="#000000" font-family="sans-serif" font-size="14" lengthAdjust="spacing" textLength="208.5439" x="689.5" y="159.5332">org.springframework.data.domain</text></g><!--class com.monacoevents.eventbooking.exception--><a href="..\..\target\reports\apidocs\com\monacoevents\eventbooking\exception\package-summary.html" target="_top" title="..\..\target\reports\apidocs\com\monacoevents\eventbooking\exception\package-summary.html" xlink:actuate="onRequest" xlink:href="..\..\target\reports\apidocs\com\monacoevents\eventbooking\exception\package-summary.html" xlink:show="new" xlink:title="..\..\target\reports\apidocs\com\monacoevents\eventbooking\exception\package-summary.html" xlink:type="simple"><g id="elem_com.monacoevents.eventbooking.exception"><rect codeLine="36" fill="#F1F1F1" height="27.6094" id="com.monacoevents.eventbooking.exception" rx="2.5" ry="2.5" style="stroke:#181818;stroke-width:0.5;" width="278.3916" x="1077" y="12"/><text fill="#000000" font-family="sans-serif" font-size="14" lengthAdjust="spacing" textLength="272.3916" x="1080" y="31.5332">com.monacoevents.eventbooking.exception</text></g></a><!--class org.springframework.web.bind--><g id="elem_org.springframework.web.bind"><rect fill="#F1F1F1" height="27.6094" id="org.springframework.web.bind" rx="2.5" ry="2.5" style="stroke:#181818;stroke-width:0.5;" width="193.5303" x="1138" y="76"/><text fill="#000000" font-family="sans-serif" font-size="14" lengthAdjust="spacing" textLength="187.5303" x="1141" y="95.5332">org.springframework.web.bind</text></g><!--class com.monacoevents.eventbooking.mapper--><a href="..\..\target\reports\apidocs\com\monacoevents\eventbooking\mapper\package-summary.html" target="_top" title="..\..\target\reports\apidocs\com\monacoevents\eventbooking\mapper\package-summary.html" xlink:actuate="onRequest" xlink:href="..\..\target\reports\apidocs\com\monacoevents\eventbooking\mapper\package-summary.html" xlink:show="new" xlink:title="..\..\target\reports\apidocs\com\monacoevents\eventbooking\mapper\package-summary.html" xlink:type="simple"><g id="elem_com.monacoevents.eventbooking.mapper"><rect codeLine="38" fill="#F1F1F1" height="27.6094" id="com.monacoevents.eventbooking.mapper" rx="2.5" ry="2.5" style="stroke:#181818;stroke-width:0.5;" width="265.9297" x="364" y="140"/><text fill="#000000" font-family="sans-serif" font-size="14" lengthAdjust="spacing" textLength="259.9297" x="367" y="159.5332">com.monacoevents.eventbooking.mapper</text></g></a><!--class com.monacoevents.eventbooking.entity--><a href="..\..\target\reports\apidocs\com\monacoevents\eventbooking\entity\package-summary.html" target="_top" title="..\..\target\reports\apidocs\com\monacoevents\eventbooking\entity\package-summary.html" xlink:actuate="onRequest" xlink:href="..\..\target\reports\apidocs\com\monacoevents\eventbooking\entity\package-summary.html" xlink:show="new" xlink:title="..\..\target\reports\apidocs\com\monacoevents\eventbooking\entity\package-summary.html" xlink:type="simple"><g id="elem_com.monacoevents.eventbooking.entity"><rect codeLine="40" fill="#F1F1F1" height="27.6094" id="com.monacoevents.eventbooking.entity" rx="2.5" ry="2.5" style="stroke:#181818;stroke-width:0.5;" width="251.9229" x="280" y="204"/><text fill="#000000" font-family="sans-serif" font-size="14" lengthAdjust="spacing" textLength="245.9229" x="283" y="223.5332">com.monacoevents.eventbooking.entity</text></g></a><!--class com.monacoevents.eventbooking.repository--><a href="..\..\target\reports\apidocs\com\monacoevents\eventbooking\repository\package-summary.html" target="_top" title="..\..\target\reports\apidocs\com\monacoevents\eventbooking\repository\package-summary.html" xlink:actuate="onRequest" xlink:href="..\..\target\reports\apidocs\com\monacoevents\eventbooking\repository\package-summary.html" xlink:show="new" xlink:title="..\..\target\reports\apidocs\com\monacoevents\eventbooking\repository\package-summary.html" xlink:type="simple"><g id="elem_com.monacoevents.eventbooking.repository"><rect codeLine="42" fill="#F1F1F1" height="27.6094" id="com.monacoevents.eventbooking.repository" rx="2.5" ry="2.5" style="stroke:#181818;stroke-width:0.5;" width="279.9297" x="6" y="140"/><text fill="#000000" font-family="sans-serif" font-size="14" lengthAdjust="spacing" textLength="273.9297" x="9" y="159.5332">com.monacoevents.eventbooking.repository</text></g></a><!--class org.springframework.data.jpa.repository--><g id="elem_org.springframework.data.jpa.repository"><rect fill="#F1F1F1" height="27.6094" id="org.springframework.data.jpa.repository" rx="2.5" ry="2.5" style="stroke:#181818;stroke-width:0.5;" width="252.668" x="8.5" y="204"/><text fill="#000000" font-family="sans-serif" font-size="14" lengthAdjust="spacing" textLength="246.668" x="11.5" y="223.5332">org.springframework.data.jpa.repository</text></g><polygon fill="#181818" points="634.0628,75.945,643.7282,77.8371,638.9369,74.8299,641.9441,70.0386,634.0628,75.945" style="stroke:#181818;stroke-width:1.0;"/><path d="M790.859,40.0728 C744.738,50.6245 686.0119,64.06 639.9117,74.6069 " fill="none" style="stroke:#181818;stroke-width:1.0;"/><polygon fill="#181818" points="998.8801,75.9768,991.5548,69.3935,994.1244,74.4331,989.0848,77.0026,998.8801,75.9768" style="stroke:#181818;stroke-width:1.0;"/><path d="M888.5062,40.1486 C921.029,50.7058 960.7532,63.6005 993.1733,74.1243 " fill="none" style="stroke:#181818;stroke-width:1.0;"/><polygon fill="#181818" points="788.0472,206.8671,797.5062,209.6105,793.001,206.1895,796.4221,201.6843,788.0472,206.8671" style="stroke:#181818;stroke-width:1.0;"/><path d="M862.5033,40.324 C889.7509,66.9466 942.9952,127.6212 910,168 C893.8915,187.7132 846.4408,198.8801 793.9918,206.054 " fill="none" style="stroke:#181818;stroke-width:1.0;"/><polygon fill="#181818" points="799.6261,139.8724,806.848,133.1757,801.5957,135.2766,799.4948,130.0244,799.6261,139.8724" style="stroke:#181818;stroke-width:1.0;"/><path d="M842.4244,40.0096 C832.0768,64.1542 812.3754,110.1241 801.9896,134.3575 " fill="none" style="stroke:#181818;stroke-width:1.0;"/><polygon fill="#181818" points="1076.1792,75.9768,1085.9955,76.7766,1080.898,74.3239,1083.3508,69.2264,1076.1792,75.9768" style="stroke:#181818;stroke-width:1.0;"/><path d="M1178.4629,40.1486 C1148.3239,50.7058 1111.8855,63.4695 1081.8418,73.9933 " fill="none" style="stroke:#181818;stroke-width:1.0;"/><polygon fill="#181818" points="1230.9764,75.8703,1232.1638,66.0933,1229.5114,71.0898,1224.5149,68.4373,1230.9764,75.8703" style="stroke:#181818;stroke-width:1.0;"/><path d="M1220.0294,40.1486 C1223.2538,50.6702 1225.9956,59.6171 1229.2184,70.1337 " fill="none" style="stroke:#181818;stroke-width:1.0;"/><polygon fill="#181818" points="425.2709,203.8703,434.9609,202.1085,429.403,201.0551,430.4565,195.4972,425.2709,203.8703" style="stroke:#181818;stroke-width:1.0;"/><path d="M477.7012,168.1486 C462.2582,178.6702 445.6651,189.9754 430.2295,200.492 " fill="none" style="stroke:#181818;stroke-width:1.0;"/><polygon fill="#181818" points="632.8711,203.9768,625.7608,197.1618,628.1674,202.2813,623.0479,204.6878,632.8711,203.9768" style="stroke:#181818;stroke-width:1.0;"/><path d="M533.4768,168.1486 C562.7644,178.7058 598.0316,191.4184 627.2266,201.9422 " fill="none" style="stroke:#181818;stroke-width:1.0;"/><polygon fill="#181818" points="137.3295,203.8703,142.8402,195.7075,138.2029,198.9472,134.9632,194.31,137.3295,203.8703" style="stroke:#181818;stroke-width:1.0;"/><path d="M143.6672,168.1486 C141.8004,178.6702 140.2435,187.446 138.3776,197.9626 " fill="none" style="stroke:#181818;stroke-width:1.0;"/><polygon fill="#181818" points="666.1689,203.9782,667.8959,194.2819,664.9709,199.1238,660.129,196.1987,666.1689,203.9782" style="stroke:#181818;stroke-width:1.0;"/><path d="M598.9683,104.1031 C612.0847,112.8665 628.2321,125.439 639,140 C653.6723,159.8407 660.7336,181.9543 664.7313,198.1529 " fill="none" style="stroke:#181818;stroke-width:1.0;"/><polygon fill="#181818" points="748.3076,139.945,740.7528,133.6265,743.5,138.5714,738.555,141.3186,748.3076,139.945" style="stroke:#181818;stroke-width:1.0;"/><path d="M622.755,104.0728 C659.6858,114.6245 705.6243,127.7498 742.5385,138.2967 " fill="none" style="stroke:#181818;stroke-width:1.0;"/><polygon fill="#181818" points="236.493,139.9824,245.9709,142.6602,241.4421,139.2705,244.8318,134.7417,236.493,139.9824" style="stroke:#181818;stroke-width:1.0;"/><path d="M486.3856,104.035 C412.9304,114.6017 315.8545,128.5662 242.4319,139.1281 " fill="none" style="stroke:#181818;stroke-width:1.0;"/><polygon fill="#181818" points="513.9415,139.8703,523.5055,137.5189,517.8936,136.8075,518.6049,131.1955,513.9415,139.8703" style="stroke:#181818;stroke-width:1.0;"/><path d="M560.0341,104.1486 C546.4578,114.6702 532.2538,125.6783 518.684,136.1949 " fill="none" style="stroke:#181818;stroke-width:1.0;"/><polygon fill="#181818" points="386.8206,203.9638,382.055,195.3447,382.8326,200.9478,377.2294,201.7254,386.8206,203.9638" style="stroke:#181818;stroke-width:1.0;"/><path d="M456.6134,104.018 C411.8861,111.5459 368.6573,122.9995 355,140 C337.9284,161.2505 361.2344,184.6139 382.035,200.3446 " fill="none" style="stroke:#181818;stroke-width:1.0;"/><text fill="#888888" font-family="sans-serif" font-size="10" lengthAdjust="spacing" textLength="2.7783" x="675.6108" y="236.3809">&#160;</text><a href="https://github.com/talsma-ict/umldoclet" target="_top" title="https://github.com/talsma-ict/umldoclet" xlink:actuate="onRequest" xlink:href="https://github.com/talsma-ict/umldoclet" xlink:show="new" xlink:title="https://github.com/talsma-ict/umldoclet" xlink:type="simple"><text fill="#888888" font-family="sans-serif" font-size="10" lengthAdjust="spacing" textLength="74.4775" x="639.7612" y="248.959">UMLDoclet 2.2.1</text></a><!--SRC=[jPPRRzCm5CVVzoaEuu4XrjGjkr5DawQ2kAX84-kUcZwSEcvgcjZ6TZgYYU_EoOMsJ8W59KIHalZozy__d9mS080NCDOcjp9UUV0Q_4ewkFiy0LGHn489Yrv485ECXOE5IBIANJLG06P-fItePVd4jRN26QqYgMBuX1i4fpFBXGiE3g1SQlfB_HxTdleYBnhVQfu83qVZbtj8GpOuwmtPy0occBWKuUDu6jHgkpd3O1WCWBGJoOLo99cfIDWIwzeWfykawZc6ZR1EQaLpMArJR9LhvL4g1mQjTyMMRX9Klc0T1BJ-IN0EHzUtaz_Ps9kIxHYkhS8iWY_wMxRTxZDZCIRY17ETUN2fyAYmx79hgMWXJ661V1rRJRXS9-IbjwWSTGdbgv6qEuKf-OfSt8fYagTXIYjHzgzaHCvBIpRidaLgV0vBAPB8FMubYfMcvhATwpH8jKAknOPMT45vMMXDV75GU69raf2HlTxL4uETi1ko-DzbjQN9nbBFaWmHzzgkWvNtfcl0oEjku2Bq64GwfN1f82Y-Ss5y4N0jD_kqqBrO10kfeWPYAHhJo3MwbJxlKh7PUx32Q2SfrFE_luUl1lV6DX2kuxGpq7szzj7IdEu_RRfwZPrArY5K9ziRIdZqBw5ChTPLSk89EWU7JR_BGvZDWY2aqwEDXGyB9oXdXsXafBaBIIZS5mhtXSATK6Wgb9xBqXHjJXzYcipdy51I_MZELblH4gnMwOoAmhSb4IbqHhFDNYsPjZgTaLKHtnAh4kdEhVAJQMjLAT8PqoxXjEJQ2Jt5LbukdSyJSLNU5yTIQqy_ceTjGt5yoCd-2QMKSLb5FR_uS-zTKHLIvX5KYFAr4hHhjXrPUN7PtrklNYjKirdnbtQZVZ-MVfKjA1-bVLzMf3t9VJzBawWgHHyLfVDvdVVURwlTecBiiVCUEviENezE1oDs4J1spaxP2MEls734sEnTPhKH_Hkqqir_0W00]--></g></svg>