<svg xmlns="http://www.w3.org/2000/svg" xmlns:xlink="http://www.w3.org/1999/xlink" contentStyleType="text/css" height="105px" preserveAspectRatio="none" style="width:220px;height:105px;background:#FFFFFF;" version="1.1" viewBox="0 0 220 105" width="220px" zoomAndPan="magnify"><defs/><g><!--class com.monacoevents.eventbooking.EventBookingApiApplication--><a href="..\..\..\..\..\target\reports\apidocs\com\monacoevents\eventbooking\EventBookingApiApplication.html" target="_top" title="..\..\..\..\..\target\reports\apidocs\com\monacoevents\eventbooking\EventBookingApiApplication.html" xlink:actuate="onRequest" xlink:href="..\..\..\..\..\target\reports\apidocs\com\monacoevents\eventbooking\EventBookingApiApplication.html" xlink:show="new" xlink:title="..\..\..\..\..\target\reports\apidocs\com\monacoevents\eventbooking\EventBookingApiApplication.html" xlink:type="simple"><g id="elem_com.monacoevents.eventbooking.EventBookingApiApplication"><rect codeLine="13" fill="#F1F1F1" height="65.7969" id="com.monacoevents.eventbooking.EventBookingApiApplication" rx="2.5" ry="2.5" style="stroke:#181818;stroke-width:0.5;" width="207.1162" x="6" y="12"/><ellipse cx="21" cy="32.0938" fill="#ADD1B2" rx="11" ry="11" style="stroke:#181818;stroke-width:1.0;"/><path d="M23.7656,27.9688 Q23.9219,27.75 24.1094,27.6406 Q24.2969,27.5313 24.5156,27.5313 Q24.8906,27.5313 25.125,27.7969 Q25.3594,28.0469 25.3594,28.6563 L25.3594,30.1094 Q25.3594,30.7188 25.125,30.9844 Q24.8906,31.25 24.5156,31.25 Q24.1719,31.25 23.9688,31.0469 Q23.7656,30.8594 23.6563,30.3438 Q23.6094,29.9844 23.4219,29.7969 Q23.0938,29.4219 22.4844,29.2031 Q21.875,28.9844 21.25,28.9844 Q20.4844,28.9844 19.8438,29.3125 Q19.2188,29.6406 18.7188,30.3906 Q18.2344,31.1406 18.2344,32.1719 L18.2344,33.2656 Q18.2344,34.5 19.125,35.3281 Q20.0156,36.1406 21.6094,36.1406 Q22.5469,36.1406 23.2031,35.8906 Q23.5938,35.7344 24.0156,35.2969 Q24.2813,35.0313 24.4219,34.9531 Q24.5781,34.875 24.7813,34.875 Q25.1094,34.875 25.3594,35.1406 Q25.625,35.3906 25.625,35.7344 Q25.625,36.0781 25.2813,36.4844 Q24.7813,37.0625 23.9844,37.3906 Q22.9063,37.8438 21.6094,37.8438 Q20.0938,37.8438 18.8906,37.2188 Q17.9063,36.7188 17.2188,35.6563 Q16.5313,34.5781 16.5313,33.2969 L16.5313,32.1406 Q16.5313,30.8125 17.1406,29.6719 Q17.7656,28.5156 18.8594,27.9063 Q19.9531,27.2813 21.1875,27.2813 Q21.9219,27.2813 22.5625,27.4531 Q23.2188,27.6094 23.7656,27.9688 Z " fill="#000000"/><text fill="#000000" font-family="sans-serif" font-size="14" lengthAdjust="spacing" textLength="175.1162" x="35" y="31.5332">EventBookingApiApplication</text><text fill="#000000" font-family="sans-serif" font-size="10" lengthAdjust="spacing" textLength="148.9795" x="48.0684" y="44.9902">com.monacoevents.eventbooking</text><line style="stroke:#181818;stroke-width:0.5;" x1="7" x2="212.1162" y1="52.1875" y2="52.1875"/><ellipse cx="17" cy="66.4922" fill="#84BE84" rx="3" ry="3" style="stroke:#038048;stroke-width:1.0;"/><text fill="#000000" font-family="sans-serif" font-size="14" lengthAdjust="spacing" text-decoration="underline" textLength="117.4824" x="26" y="70.7207">main(String[]): void</text></g></a><text fill="#888888" font-family="sans-serif" font-size="10" lengthAdjust="spacing" textLength="2.7783" x="104.6108" y="82.3809">&#160;</text><a href="https://github.com/talsma-ict/umldoclet" target="_top" title="https://github.com/talsma-ict/umldoclet" xlink:actuate="onRequest" xlink:href="https://github.com/talsma-ict/umldoclet" xlink:show="new" xlink:title="https://github.com/talsma-ict/umldoclet" xlink:type="simple"><text fill="#888888" font-family="sans-serif" font-size="10" lengthAdjust="spacing" textLength="74.4775" x="68.7612" y="94.959">UMLDoclet 2.2.1</text></a><!--SRC=[VLDTJzim57tdLzonXu6Whfi1PHL2wZh4DdKI6kMfwOFhN1ABnDUpRpfrYFy-9-bAXyQiI5RknpdtunW0u1rCoAszoGi69k321BZxDWLbCyZHebUC6PXAvHXWYINPF7I12AhcWZpGVVkdoNiCZcncR0vVrKf1eDfh369l3rggsH_qdohie2_NZV4JwH8P3YQ7EoKbSd3MIsHo1ZDLXah1bybCRD2USnAHY054xD9ej252rZP3tvOrTah7QzfvZc65FXYoCKTkS9fMDLbMnWPmodDeMhefbUMcre68_2TY20VZs-dVjSaFRMt7CFPMrHbyfn_rjjqtpgiyLbogDTKCeK9MLdM-48ksgehZKXflCP8gZfEqPB7r5oP3mChn6kuDbbbuQOrW1KLpQzUb2W7sBuBvXQF1oUNL2Yr_97g8YnWxCtOkpaLnx3grco1vgQaI5Lcb2Plm8DfhsMNjGrpGVoF4woGmdmkHxdwiV8wSUdGKfvigPpBI8Oq4wIv1kakGlauW2gxAnG8Us-wRynWuUlGJ75LnYmUtx6FIV74uWXMPh0rxwcPr4NXTukKsyvw8erAUePhpUUtGJurzc50Pr_Bs_D_UkqPafR4OTQqVBCObo6taKqVNt-7RSALsFY-ONHZr-xdXebwAE8a-jmBl6StzkYgpJjalDBvOR3HxlNqyZG1xSjYJPxF1-z7fO2I7OdYQ39FXkPH7CXb9ER-gFJditoXlmk8t]--></g></svg>