<svg xmlns="http://www.w3.org/2000/svg" xmlns:xlink="http://www.w3.org/1999/xlink" contentStyleType="text/css" height="100%" preserveAspectRatio="none" style="width:100%;height:100%;background:#FFFFFF;" version="1.1" viewBox="0 0 240 115" width="100%" zoomAndPan="magnify"><defs/><g><!--class com.monacoevents.eventbooking.EventBookingApiApplication--><a href="..\..\..\..\..\target\reports\apidocs\com\monacoevents\eventbooking\EventBookingApiApplication.html" target="_top" title="..\..\..\..\..\target\reports\apidocs\com\monacoevents\eventbooking\EventBookingApiApplication.html" xlink:actuate="onRequest" xlink:href="..\..\..\..\..\target\reports\apidocs\com\monacoevents\eventbooking\EventBookingApiApplication.html" xlink:show="new" xlink:title="..\..\..\..\..\target\reports\apidocs\com\monacoevents\eventbooking\EventBookingApiApplication.html" xlink:type="simple"><g id="elem_com.monacoevents.eventbooking.EventBookingApiApplication"><rect codeLine="26" fill="#F4F8FB" height="67.2129" id="com.monacoevents.eventbooking.EventBookingApiApplication" rx="4" ry="4" style="stroke:#2C6E8C;stroke-width:0.5;" width="219.9434" x="7" y="7"/><ellipse cx="21" cy="27.9609" fill="#ADD1B2" rx="10" ry="10" style="stroke:#181818;stroke-width:1.0;"/><path d="M21.9375,24.6016 Q22.0625,24.4297 22.2031,24.3516 Q22.3438,24.2734 22.5156,24.2734 Q22.7969,24.2734 22.9688,24.4766 Q23.1563,24.6641 23.1563,25.1328 L23.1563,26.2422 Q23.1563,26.7109 22.9688,26.9141 Q22.7969,27.1016 22.5156,27.1016 Q22.25,27.1016 22.0938,26.9609 Q21.9375,26.8203 21.8594,26.4141 Q21.8125,26.1484 21.6875,26.0078 Q21.4219,25.7109 20.9531,25.5391 Q20.4844,25.3672 20.0156,25.3672 Q19.4375,25.3672 18.9375,25.6328 Q18.4531,25.8828 18.0781,26.4609 Q17.7031,27.0234 17.7031,27.8047 L17.7031,28.6484 Q17.7031,29.5859 18.3906,30.2266 Q19.0781,30.8516 20.2813,30.8516 Q21.0156,30.8516 21.5156,30.6484 Q21.7969,30.5391 22.125,30.1953 Q22.3281,29.9922 22.4375,29.9453 Q22.5625,29.8828 22.7031,29.8828 Q22.9688,29.8828 23.1563,30.0859 Q23.3594,30.2734 23.3594,30.5391 Q23.3594,30.8047 23.0938,31.1172 Q22.7031,31.5547 22.0938,31.8047 Q21.2813,32.1484 20.2969,32.1484 Q19.1406,32.1484 18.2031,31.6797 Q17.4531,31.2891 16.9219,30.4766 Q16.4063,29.6484 16.4063,28.6797 L16.4063,27.7891 Q16.4063,26.7734 16.875,25.8984 Q17.3594,25.0234 18.1875,24.5547 Q19.0313,24.0703 19.9688,24.0703 Q20.5313,24.0703 21.0156,24.2109 Q21.5156,24.3359 21.9375,24.6016 Z " fill="#000000"/><text fill="#14324A" font-family="Segoe UI" font-size="14" lengthAdjust="spacing" textLength="189.9434" x="34" y="27.1074">EventBookingApiApplication</text><text fill="#14324A" font-family="Segoe UI" font-size="10" lengthAdjust="spacing" textLength="158.9746" x="49.4844" y="41.4121">com.monacoevents.eventbooking</text><line style="stroke:#2C6E8C;stroke-width:0.5;" x1="8" x2="225.9434" y1="48.9219" y2="48.9219"/><ellipse cx="18" cy="63.0674" fill="#84BE84" rx="3" ry="3" style="stroke:#038048;stroke-width:1.0;"/><text fill="#000000" font-family="Segoe UI" font-size="13" lengthAdjust="spacing" text-decoration="underline" textLength="120.6309" x="26" y="66.9502">main(String[]): void</text></g></a><text fill="#888888" font-family="Segoe UI" font-size="10" lengthAdjust="spacing" textLength="2.7588" x="115.0923" y="92.0039">&#160;</text><a href="https://github.com/talsma-ict/umldoclet" target="_top" title="https://github.com/talsma-ict/umldoclet" xlink:actuate="onRequest" xlink:href="https://github.com/talsma-ict/umldoclet" xlink:show="new" xlink:title="https://github.com/talsma-ict/umldoclet" xlink:type="simple"><text fill="#888888" font-family="Segoe UI" font-size="10" lengthAdjust="spacing" textLength="77.7783" x="77.5825" y="105.3047">UMLDoclet 2.2.1</text></a><!--SRC=[XLJRRjf047tFLqpJXoPACCQOIr0K2GYqgMWL5VA4ULZimQomTztTDH6DykyTNqeT0gr1ihnxPiwPAm309nZAPATuk3PW99Wrr_3qRG9C112YGCKC1i1Z5gA69KPIXBe08h3KhAK2kSg_VAaKwaIAW8iGlh8j0orJvQEspiuWfvhzyVxCTCNxSfSTtai_GWCNmykA9CTkj6kExRHXnY8TCtWOpgpIsryRntAi1f3lYFieDBbCHO0gbzLFc4-lIN5p3LjKcaj1DdRf9mlLby8mBZGaJ1cTXVGOCM4ohGsB-5sh0nVzwUIjDlicrtODVILO6i0F-JFTXwitN90t5eDUiq0-PrbPKH1uSAiaYHrAHTc0xi5TW2kMHcPCwhwp666AeKHuUZWDc_9V28tc0S2FcDO3vc_2aYsYkdqSk-FkU70KAXNbhuGvm_QeEpm6woibd_-BocILe8RRTDp-0OWBWsh5V7mdSDGVjyVsIVWRaQERKVkGdag_eSPz7_Y0VlSdm5MlW-xGlRUF0ojXDPjkfrKayaEYM4Xz6h6TJ0q4qfJTG6qgg8IQh76AcIT3faAAeX_MF430E34xM76C0dru6YCD6ntdvtbUuVnMKxLx3VTkj4LX1bAInh2Vy7wIq2GmGttkYH9at_aojc8fc2ynWsihVoqBgtEWaVmdmZfD0lEvPNdLls4gHECfJ2JDaySI7aXVUqJWLGcyAe5tci1QcpXQBE0bZpvxNhIX6_yLhcAQsukfKMGqNrpsO2jvaCDUYrpTQhEBy6vlkPAI6gZYAdk-x19K4ousPKMxns-VihKISO6qoVoDG2g2lKU-5dJr2b_9vOdvV6rCedlrUiZDEbrQb8cwoLTQZVkcdiPHKEooWwssM9HRwlD-NMOhfsPtQdPxrd1xRgldjAnEezkwwLxPJi-svwDKoGJhZqnnlVWD]--></g></svg>